<?xml version="1.0" standalone="no"?>
<!DOCTYPE svg PUBLIC "-//W3C//DTD SVG 20010904//EN"
 "http://www.w3.org/TR/2001/REC-SVG-20010904/DTD/svg10.dtd">
<svg version="1.0" xmlns="http://www.w3.org/2000/svg"
 width="206.212468pt" height="235.363651pt" viewBox="0 0 206.212468 235.363651"
 preserveAspectRatio="xMidYMid meet">
<metadata>
Created by potrace 1.16, written by Peter Selinger 2001-2019
</metadata>
<g transform="translate(-59.272207,280.813103) scale(0.100000,-0.100000)"
fill="#000000" stroke="none">
<path d="M1061 2799 c-75 -15 -142 -40 -190 -73 -54 -36 -148 -130 -162 -160
-5 -12 -22 -41 -37 -66 -72 -116 -102 -366 -60 -495 9 -27 21 -66 26 -85 13
-47 32 -98 48 -135 19 -43 61 -156 69 -185 4 -14 16 -39 26 -56 11 -17 19 -42
19 -54 0 -13 6 -46 14 -74 8 -28 19 -114 25 -191 5 -77 15 -153 20 -168 6 -16
11 -47 11 -70 0 -56 71 -287 118 -381 26 -52 130 -132 183 -141 101 -17 165
15 210 106 48 97 57 123 64 174 4 28 11 58 17 68 5 10 15 60 23 111 37 243 86
336 164 311 29 -9 61 -58 68 -102 3 -21 11 -45 18 -53 7 -8 16 -42 20 -75 3
-33 12 -78 20 -100 7 -22 16 -62 20 -90 4 -27 13 -61 20 -75 7 -14 15 -43 18
-65 14 -89 78 -182 145 -211 73 -31 192 15 246 96 36 55 106 206 106 230 0 11
7 31 15 44 8 12 18 45 21 72 3 27 12 65 19 84 7 19 16 80 20 135 4 55 11 122
16 150 5 27 14 90 20 140 9 80 64 249 110 335 25 47 59 131 59 145 0 9 6 28
14 43 38 73 42 445 6 467 -5 3 -14 22 -21 42 -24 73 -181 263 -230 278 -11 4
-19 10 -19 15 0 5 -37 21 -82 35 -109 35 -230 43 -318 20 -36 -9 -86 -22 -111
-28 -25 -7 -52 -17 -60 -23 -28 -22 -137 -47 -176 -41 -81 13 -136 27 -149 38
-53 44 -296 79 -403 58z m211 -123 c51 -13 95 -30 165 -63 31 -15 78 -27 156
-40 57 -9 276 50 322 87 6 5 49 14 97 21 179 26 334 -40 423 -181 13 -21 29
-41 35 -45 5 -3 10 -13 10 -22 0 -9 7 -24 15 -33 16 -18 30 -81 41 -180 9 -80
-41 -307 -81 -370 -11 -18 -31 -70 -74 -200 -18 -52 -37 -108 -43 -125 -6 -16
-14 -66 -19 -110 -5 -44 -15 -129 -23 -190 -9 -60 -18 -136 -21 -168 -3 -32
-12 -72 -20 -87 -8 -16 -15 -39 -15 -52 0 -13 -8 -39 -19 -58 -10 -19 -22 -50
-26 -69 -20 -91 -108 -221 -151 -221 -44 0 -124 158 -124 246 0 14 -6 37 -14
52 -7 15 -17 61 -20 102 -4 41 -13 86 -20 100 -7 14 -16 44 -19 68 -3 24 -12
51 -20 60 -8 9 -17 29 -21 43 -9 41 -79 106 -127 119 -75 20 -164 -11 -213
-74 -37 -50 -96 -257 -112 -401 -4 -33 -13 -69 -20 -80 -8 -11 -14 -35 -14
-54 0 -62 -72 -181 -110 -181 -24 0 -105 82 -131 132 -34 66 -69 177 -75 238
-4 30 -12 78 -20 105 -8 28 -18 114 -24 193 -6 79 -14 151 -19 160 -4 9 -11
44 -15 77 -4 33 -13 70 -21 82 -8 12 -15 30 -15 39 0 9 -9 35 -19 58 -52 113
-88 211 -132 364 -26 92 -25 311 2 352 9 14 19 38 23 54 9 35 68 113 117 153
19 15 37 33 41 39 4 7 20 15 35 19 16 3 35 13 43 20 35 32 187 43 272 21z"/>
</g>
</svg>
