<?xml version="1.0" standalone="no"?>
<!DOCTYPE svg PUBLIC "-//W3C//DTD SVG 20010904//EN"
 "http://www.w3.org/TR/2001/REC-SVG-20010904/DTD/svg10.dtd">
<svg version="1.0" xmlns="http://www.w3.org/2000/svg"
 width="204.988334pt" height="237.651099pt" viewBox="0 0 204.988334 237.651099"
 preserveAspectRatio="xMidYMid meet">
<metadata>
Created by potrace 1.16, written by Peter Selinger 2001-2019
</metadata>
<g transform="translate(-55.511666,277.651099) scale(0.100000,-0.100000)"
fill="#000000" stroke="none">
<path d="M985 2768 c-27 -6 -62 -16 -77 -24 -14 -8 -34 -14 -45 -14 -10 -1
-36 -8 -58 -16 -22 -9 -57 -20 -77 -25 -47 -11 -105 -51 -143 -97 -29 -36 -30
-39 -30 -147 0 -77 5 -124 17 -155 9 -25 19 -69 22 -99 3 -29 12 -64 21 -77 8
-13 15 -33 15 -45 0 -13 8 -41 18 -63 10 -23 27 -66 37 -96 24 -73 81 -186
117 -231 15 -20 28 -42 28 -47 0 -19 245 -259 280 -275 19 -9 46 -25 60 -36
l25 -20 1 -278 c0 -153 4 -297 8 -321 26 -142 219 -302 364 -302 138 0 298
108 371 250 23 44 23 50 22 341 -2 332 -2 332 75 364 18 7 41 20 51 27 37 27
243 240 243 250 0 6 15 29 34 52 44 54 95 166 135 296 18 58 37 119 43 135 6
17 16 62 22 100 7 39 18 81 25 94 8 15 14 66 15 136 l1 112 -34 38 c-43 49
-94 84 -135 92 -17 3 -42 11 -56 18 -14 7 -46 15 -73 18 -26 4 -58 13 -70 22
-37 24 -195 32 -234 11 -40 -20 -82 -75 -93 -118 -4 -18 -15 -60 -24 -93 -9
-32 -16 -80 -16 -105 0 -25 -7 -55 -15 -67 -8 -11 -17 -40 -21 -64 -4 -24 -13
-53 -20 -64 -6 -11 -15 -34 -19 -52 -3 -17 -13 -37 -21 -44 -8 -6 -14 -17 -14
-25 0 -7 -31 -45 -70 -84 -62 -63 -73 -70 -108 -70 -23 0 -45 6 -52 15 -7 8
-16 15 -21 15 -10 0 -102 97 -108 113 -2 7 -12 23 -22 36 -11 13 -19 35 -19
50 0 14 -7 35 -15 45 -8 11 -15 31 -15 45 -1 14 -9 44 -20 66 -11 22 -19 51
-20 65 0 14 -11 76 -24 139 -23 109 -27 117 -68 157 -62 60 -110 71 -213 52z
m101 -106 c22 -15 64 -88 64 -111 0 -30 35 -181 66 -286 13 -44 24 -84 24 -88
0 -5 9 -20 20 -34 11 -14 20 -32 20 -40 0 -8 20 -39 44 -68 24 -30 46 -58 48
-62 12 -30 104 -87 151 -95 112 -18 152 -4 239 83 43 43 83 88 88 101 5 13 14
30 19 38 34 53 92 214 102 278 14 100 37 210 48 231 30 54 83 72 143 47 54
-22 130 -47 178 -58 25 -6 52 -16 60 -23 8 -7 25 -16 38 -20 27 -8 51 -51 52
-96 2 -52 -18 -167 -34 -192 -7 -12 -16 -44 -19 -72 -7 -61 -53 -204 -98 -305
-117 -260 -328 -462 -544 -520 -67 -18 -206 -33 -252 -27 -26 4 -80 11 -119
16 -136 19 -248 76 -363 185 -78 75 -162 179 -196 242 -14 27 -32 55 -39 64
-7 8 -16 26 -19 40 -8 36 -46 147 -68 202 -10 26 -19 57 -19 70 -1 13 -7 34
-15 48 -8 14 -14 36 -15 49 0 13 -12 71 -26 128 -30 119 -23 146 43 168 16 6
37 16 46 23 8 7 32 16 54 19 21 3 45 12 53 19 9 7 36 16 60 20 25 4 56 13 70
20 27 14 79 18 96 6z m742 -1429 c5 -10 9 -133 8 -274 l-1 -255 -29 -44 c-60
-91 -137 -140 -221 -140 -86 0 -129 20 -206 95 -46 45 -47 47 -57 133 -6 51
-7 169 -3 287 l6 200 140 -2 c77 -2 178 1 225 6 127 12 129 12 138 -6z"/>
<path d="M910 2492 c-25 -8 -67 -23 -95 -32 -56 -20 -68 -45 -36 -74 23 -21
54 -23 96 -8 17 7 51 14 78 17 65 8 90 43 60 83 -24 32 -43 35 -103 14z"/>
<path d="M2140 2485 c-24 -28 11 -85 52 -85 19 0 50 -9 71 -20 55 -30 84 -26
107 12 l20 33 -24 23 c-16 17 -42 27 -87 33 -35 6 -78 12 -95 15 -21 4 -34 1
-44 -11z"/>
<path d="M995 2266 c-11 -7 -40 -17 -65 -21 -47 -8 -106 -37 -113 -58 -2 -7 2
-24 10 -39 16 -32 55 -37 101 -14 15 7 45 17 67 20 59 11 85 31 85 66 0 47
-47 73 -85 46z"/>
<path d="M2101 2254 c-39 -50 -17 -84 63 -97 21 -3 46 -13 56 -22 38 -34 110
1 110 54 0 24 -49 51 -92 51 -13 0 -36 9 -53 20 -40 27 -60 25 -84 -6z"/>
<path d="M2027 2053 c-18 -5 -37 -40 -37 -68 0 -7 30 -27 68 -44 37 -18 74
-36 82 -41 60 -39 110 -26 110 29 0 30 -58 81 -92 81 -9 0 -20 5 -23 11 -12
19 -80 39 -108 32z"/>
<path d="M1005 2018 c-22 -12 -47 -24 -54 -28 -8 -4 -24 -18 -35 -33 -41 -56
15 -99 82 -63 15 8 57 28 93 45 70 31 86 50 69 82 -15 27 -101 26 -155 -3z"/>
<path d="M1173 1841 c-23 -16 -47 -38 -54 -48 -8 -11 -31 -32 -51 -47 -44 -33
-48 -57 -13 -80 39 -26 59 -19 126 40 100 89 109 114 53 151 -18 12 -25 10
-61 -16z"/>
<path d="M1907 1842 c-28 -31 -20 -52 44 -112 83 -79 103 -88 137 -68 55 33
37 72 -71 159 -54 43 -85 49 -110 21z"/>
<path d="M1325 1663 c-61 -101 -69 -124 -53 -153 7 -14 22 -26 32 -28 19 -4
56 24 56 43 0 7 9 20 20 30 11 10 20 26 20 35 0 9 9 25 20 35 24 22 25 43 4
73 -28 40 -59 29 -99 -35z"/>
<path d="M1742 1708 c-21 -21 -13 -53 32 -139 46 -89 69 -105 101 -73 23 24
15 97 -14 128 -11 12 -21 26 -21 30 0 43 -71 81 -98 54z"/>
<path d="M1549 1649 c-35 -67 -28 -202 12 -214 51 -17 86 91 59 184 -15 53
-50 68 -71 30z"/>
<path d="M1512 883 c-25 -5 -61 -69 -62 -110 0 -41 38 -89 85 -107 121 -47
207 100 115 194 -30 30 -67 36 -138 23z m106 -126 c2 -12 -3 -17 -17 -17 -12
0 -21 6 -21 13 0 31 32 34 38 4z"/>
</g>
</svg>
