<?xml version="1.0" standalone="no"?>
<!DOCTYPE svg PUBLIC "-//W3C//DTD SVG 20010904//EN"
 "http://www.w3.org/TR/2001/REC-SVG-20010904/DTD/svg10.dtd">
<svg version="1.0" xmlns="http://www.w3.org/2000/svg"
 width="232.948451pt" height="237.000000pt" viewBox="0 0 232.948451 237.000000"
 preserveAspectRatio="xMidYMid meet">
<metadata>
Created by potrace 1.16, written by Peter Selinger 2001-2019
</metadata>
<g transform="translate(-41.051549,277.000000) scale(0.100000,-0.100000)"
fill="#000000" stroke="none">
<path d="M2467 2575 c-109 -107 -203 -195 -210 -195 -7 0 -22 7 -33 15 -39 29
-73 19 -146 -46 l-68 -61 -34 21 c-69 43 -46 63 -574 -468 -268 -269 -498
-492 -511 -496 -19 -6 -31 1 -65 33 -52 52 -83 60 -119 32 -15 -12 -27 -26
-27 -32 0 -6 63 -75 140 -153 77 -78 140 -149 140 -157 0 -20 -285 -292 -310
-296 -14 -2 -37 16 -77 58 -80 86 -103 97 -136 62 l-26 -28 19 -32 c31 -50
417 -432 438 -432 24 0 49 20 56 47 6 17 -9 39 -78 115 -107 116 -107 120 -15
206 40 37 105 99 146 139 57 56 78 71 92 65 10 -4 69 -60 131 -125 131 -137
159 -156 195 -133 54 35 51 51 -16 121 -34 36 -60 67 -58 69 2 3 187 188 410
413 465 468 579 588 579 610 0 8 -11 28 -25 45 -34 40 -32 49 21 103 93 92
110 136 74 182 -25 32 -25 35 3 65 12 14 46 53 76 87 29 34 80 84 113 112 76
63 168 168 168 192 0 34 -20 57 -48 57 -22 0 -65 -38 -225 -195z m-226 -316
c39 -27 37 -45 -12 -101 -49 -58 -52 -58 -95 -11 -44 48 -43 62 8 101 49 38
60 39 99 11z m-265 -134 c208 -189 203 -181 158 -231 -38 -42 -897 -904 -901
-904 -2 0 -34 31 -71 68 -37 37 -91 89 -119 116 -66 59 -66 71 -1 132 29 27
77 75 109 107 31 31 60 57 65 57 6 0 32 -22 59 -50 27 -27 56 -50 65 -50 21 0
70 51 70 72 0 15 -50 71 -94 106 -22 18 -21 23 18 65 39 43 49 45 79 15 83
-82 108 -89 146 -38 26 36 22 47 -34 94 -53 44 -55 59 -13 103 41 43 60 42
110 -7 54 -51 82 -52 105 -4 l18 36 -48 44 c-56 54 -58 72 -12 113 43 37 58
39 78 7 9 -13 32 -34 52 -46 36 -23 37 -23 63 -3 53 40 52 50 -10 107 -32 28
-58 55 -58 58 0 14 85 88 98 85 7 -1 37 -24 68 -52z"/>
</g>
</svg>
