<?xml version="1.0" standalone="no"?>
<!DOCTYPE svg PUBLIC "-//W3C//DTD SVG 20010904//EN"
 "http://www.w3.org/TR/2001/REC-SVG-20010904/DTD/svg10.dtd">
<svg version="1.0" xmlns="http://www.w3.org/2000/svg"
 width="241.650502pt" height="238.158266pt" viewBox="0 0 241.650502 238.158266"
 preserveAspectRatio="xMidYMid meet">
<metadata>
Created by potrace 1.16, written by Peter Selinger 2001-2019
</metadata>
<g transform="translate(-47.000000,281.311357) scale(0.100000,-0.100000)"
fill="#000000" stroke="none">
<path d="M1175 2805 c-107 -24 -183 -76 -251 -171 -24 -34 -44 -66 -44 -71 0
-6 -9 -21 -19 -35 -11 -13 -23 -42 -27 -64 -4 -21 -13 -48 -20 -59 -20 -28
-20 -346 0 -378 7 -12 17 -42 20 -66 4 -24 13 -53 21 -64 8 -12 15 -31 15 -42
0 -11 7 -31 16 -43 23 -33 11 -52 -30 -52 -20 0 -55 -6 -78 -14 -24 -8 -68
-18 -98 -22 -30 -4 -66 -12 -80 -19 -14 -7 -41 -16 -60 -20 -46 -10 -70 -32
-70 -65 0 -52 61 -77 107 -45 12 8 43 18 70 21 26 4 57 12 68 18 11 7 65 18
119 26 151 20 156 9 156 -345 1 -333 16 -461 66 -558 7 -16 14 -38 14 -49 0
-27 98 -173 146 -218 34 -32 43 -35 108 -38 77 -3 84 1 127 58 36 49 56 121
79 295 27 201 46 303 58 318 5 6 15 28 21 48 17 52 45 75 74 62 41 -19 100
-166 116 -290 5 -37 14 -81 20 -97 7 -16 15 -66 18 -110 3 -45 11 -92 18 -106
7 -14 15 -41 19 -61 3 -20 22 -54 40 -75 33 -38 36 -39 98 -39 60 0 68 3 112
38 46 38 126 148 126 174 0 7 6 27 14 45 29 65 66 204 66 243 0 22 7 72 15
110 10 50 15 136 15 303 0 241 5 279 44 311 15 13 22 13 49 -2 18 -8 57 -19
87 -22 30 -4 65 -13 77 -21 12 -8 37 -14 55 -14 18 0 47 -9 63 -20 43 -29 130
-28 145 1 25 45 -27 109 -88 109 -12 0 -33 6 -45 14 -12 8 -49 18 -82 21 -33
4 -72 14 -87 21 -15 8 -42 14 -60 14 -18 0 -39 4 -47 9 -15 10 -17 1 38 185
12 38 21 82 21 98 0 16 5 60 11 98 26 156 -40 411 -129 505 -116 122 -172 148
-335 153 -125 4 -235 -19 -329 -68 -45 -24 -93 -25 -133 -4 -113 60 -329 94
-440 69z m240 -120 c28 -10 57 -22 65 -27 8 -4 29 -15 45 -24 17 -8 48 -26 70
-39 22 -14 51 -29 65 -35 14 -6 32 -17 40 -25 24 -21 165 -65 209 -65 42 0 71
25 71 62 0 24 -39 48 -78 48 -43 0 -72 16 -72 39 0 62 222 100 352 62 37 -12
147 -110 183 -166 85 -130 87 -451 4 -617 -11 -21 -19 -44 -19 -51 0 -8 -6
-20 -14 -26 -8 -7 -18 -25 -21 -41 -3 -16 -13 -34 -21 -41 -8 -6 -14 -20 -14
-30 0 -10 -9 -45 -19 -76 -17 -50 -20 -96 -24 -338 -4 -258 -7 -290 -32 -404
-30 -140 -39 -168 -62 -193 -36 -40 -78 0 -48 46 33 51 45 287 25 521 -27 307
-23 431 16 545 8 25 21 68 28 95 7 28 18 60 24 72 48 88 -42 248 -154 273 -46
11 -154 -5 -199 -28 -47 -25 -267 -23 -320 2 -31 15 -62 20 -137 20 l-97 1
-42 -40 c-75 -73 -93 -139 -65 -253 40 -163 47 -201 57 -303 9 -84 8 -145 -2
-252 -7 -78 -13 -263 -14 -412 -1 -227 -4 -270 -16 -267 -21 5 -39 32 -39 60
0 13 -6 36 -14 50 -26 50 -47 256 -45 447 2 295 -27 454 -113 605 -72 128
-100 471 -44 551 9 13 16 30 16 37 0 8 11 28 25 46 14 17 34 41 43 54 95 127
235 169 387 117z m-7 -549 c15 -8 46 -17 67 -21 22 -4 57 -13 78 -21 22 -8 74
-14 127 -14 53 0 105 6 127 14 21 8 56 17 78 21 21 4 52 13 68 21 34 18 53 13
95 -25 40 -37 46 -124 12 -176 -11 -16 -20 -41 -20 -55 0 -14 -10 -45 -21 -70
-13 -29 -21 -70 -23 -117 -4 -111 -3 -111 -115 35 -125 162 -330 151 -446 -24
-19 -28 -40 -56 -48 -62 -14 -12 -47 -7 -47 7 -6 89 -15 147 -35 227 -36 142
-34 207 7 245 36 32 56 36 96 15z m319 -416 c11 0 91 -83 112 -115 100 -156
153 -402 153 -703 0 -203 -6 -233 -39 -200 -11 12 -19 47 -26 115 -5 54 -15
119 -23 145 -8 26 -14 58 -14 72 0 14 -12 56 -27 93 -72 186 -93 207 -195 201
-58 -3 -71 -8 -98 -33 -75 -72 -123 -218 -141 -429 -19 -224 -28 -261 -65
-254 -22 4 -31 93 -33 314 -4 418 192 851 364 802 16 -4 31 -8 32 -8z"/>
</g>
</svg>
