<?xml version="1.0" standalone="no"?>
<!DOCTYPE svg PUBLIC "-//W3C//DTD SVG 20010904//EN"
 "http://www.w3.org/TR/2001/REC-SVG-20010904/DTD/svg10.dtd">
<svg version="1.0" xmlns="http://www.w3.org/2000/svg"
 width="241.579438pt" height="201.835651pt" viewBox="0 0 241.579438 201.835651"
 preserveAspectRatio="xMidYMid meet">
<metadata>
Created by potrace 1.16, written by Peter Selinger 2001-2019
</metadata>
<g transform="translate(-44.058729,268.801842) scale(0.100000,-0.100000)"
fill="#000000" stroke="none">
<path d="M1410 2679 c-58 -5 -144 -16 -193 -24 -48 -8 -103 -15 -123 -15 -19
0 -48 -7 -63 -15 -16 -8 -48 -17 -71 -21 -22 -4 -58 -15 -78 -25 -20 -11 -43
-19 -52 -19 -9 0 -20 -4 -26 -9 -5 -6 -31 -22 -59 -36 -83 -44 -152 -93 -182
-130 -40 -48 -93 -149 -93 -177 -1 -13 -7 -34 -15 -48 -10 -17 -14 -58 -14
-135 -1 -130 23 -187 96 -239 42 -29 43 -30 105 -17 35 7 88 17 118 23 30 5
75 15 100 23 25 7 68 16 97 19 60 6 122 35 141 66 7 11 17 58 23 103 14 118
23 134 85 162 30 13 75 27 101 30 27 4 72 14 100 22 74 20 412 20 485 0 29 -8
79 -18 110 -22 31 -3 62 -13 69 -21 6 -8 21 -14 34 -14 12 0 36 -14 53 -30 29
-28 32 -37 38 -115 9 -114 21 -131 113 -161 40 -13 88 -24 105 -24 17 0 40 -7
50 -15 11 -8 34 -15 52 -15 18 0 61 -9 96 -20 107 -34 167 -19 216 54 38 57
38 332 -1 411 -65 135 -73 146 -127 186 -30 23 -69 48 -87 55 -17 8 -34 18
-37 23 -3 5 -18 12 -33 16 -16 3 -35 12 -43 19 -8 7 -33 18 -55 24 -39 10 -56
15 -160 52 -49 17 -112 26 -370 55 -141 16 -338 17 -505 4z m590 -129 c122
-14 279 -45 292 -58 7 -7 23 -12 37 -12 15 0 49 -11 76 -25 28 -13 55 -25 61
-25 6 0 17 -7 24 -15 7 -8 20 -15 29 -15 27 0 124 -74 157 -121 59 -81 95
-292 62 -364 -16 -35 -44 -40 -114 -20 -32 9 -88 21 -124 26 -76 10 -169 34
-182 47 -5 5 -16 55 -23 111 -14 105 -36 152 -80 167 -11 4 -31 15 -44 25 -13
11 -36 19 -51 19 -15 0 -43 6 -61 14 -19 7 -65 16 -104 20 -38 4 -117 12 -174
18 -116 13 -433 -11 -501 -37 -19 -8 -55 -17 -80 -21 -122 -18 -179 -84 -184
-214 -4 -94 -11 -103 -104 -128 -44 -12 -95 -22 -114 -22 -19 0 -65 -10 -102
-21 -78 -25 -109 -18 -127 28 -15 39 -6 191 15 230 9 18 16 40 16 50 0 30 62
115 105 145 54 38 212 114 255 123 19 4 45 13 57 21 12 8 35 14 50 14 16 0 53
7 83 16 131 38 611 52 850 24z"/>
<path d="M1335 2121 c-109 -10 -131 -30 -137 -129 -6 -87 -34 -155 -86 -207
-16 -16 -62 -70 -101 -120 -40 -49 -92 -110 -115 -135 -63 -68 -143 -182 -167
-236 -12 -27 -29 -57 -37 -67 -27 -31 -31 -399 -5 -435 11 -15 22 -34 25 -43
4 -9 31 -31 61 -48 l55 -31 835 2 835 3 44 30 c79 55 98 112 95 285 -4 208
-49 338 -162 460 -22 25 -59 68 -80 95 -22 28 -90 109 -151 181 -116 135 -134
168 -134 249 0 119 -36 145 -200 145 l-99 0 -16 -30 c-8 -16 -15 -47 -15 -69
0 -62 -16 -71 -130 -71 -119 0 -130 7 -130 84 0 84 -36 101 -185 87z m60 -115
c34 -15 35 -16 35 -75 0 -98 -15 -91 211 -91 233 0 239 2 239 88 0 59 12 72
67 72 49 0 63 -19 63 -88 1 -44 30 -133 51 -154 45 -47 168 -186 189 -215 14
-19 59 -74 100 -122 129 -151 148 -199 162 -401 10 -160 4 -193 -46 -226 -41
-26 -1588 -26 -1628 0 -72 47 -82 360 -13 436 8 9 15 24 15 33 0 16 63 96 185
237 36 41 108 128 161 192 l96 118 9 82 c7 62 15 88 31 105 25 27 28 27 73 9z"/>
<path d="M1513 1689 c-133 -42 -247 -193 -259 -342 -16 -190 70 -346 226 -412
106 -45 260 -43 354 5 214 109 295 388 166 574 -48 71 -149 156 -211 177 -71
25 -193 25 -276 -2z m269 -121 c54 -30 128 -108 146 -156 26 -65 27 -167 3
-198 -12 -15 -21 -34 -21 -43 0 -56 -150 -150 -253 -158 -93 -7 -207 60 -263
154 -41 69 -42 208 -2 265 41 59 105 118 151 138 63 29 184 27 239 -2z"/>
</g>
</svg>
