<?xml version="1.0" standalone="no"?>
<!DOCTYPE svg PUBLIC "-//W3C//DTD SVG 20010904//EN"
 "http://www.w3.org/TR/2001/REC-SVG-20010904/DTD/svg10.dtd">
<svg version="1.0" xmlns="http://www.w3.org/2000/svg"
 width="267.783899pt" height="340.466750pt" viewBox="0 0 267.783899 340.466750"
 preserveAspectRatio="xMidYMid meet">
<metadata>
Created by potrace 1.16, written by Peter Selinger 2001-2019
</metadata>
<g transform="translate(-76.216101,380.325791) scale(0.100000,-0.100000)"
fill="#000000" stroke="none">
<path d="M1674 3788 c-8 -13 36 -53 83 -73 25 -10 30 -18 26 -34 -6 -25 -30
-27 -61 -5 -29 20 -54 11 -50 -17 4 -29 67 -64 98 -56 35 9 80 54 80 79 0 24
-66 88 -91 88 -9 0 -22 7 -29 15 -15 18 -46 20 -56 3z"/>
<path d="M1901 3781 c-6 -11 -8 -42 -3 -77 11 -90 85 -132 138 -79 33 33 23
48 -26 40 -33 -6 -39 -4 -45 14 -9 29 1 41 33 41 47 0 99 44 80 67 -14 17 -33
16 -48 -2 -7 -8 -23 -15 -35 -15 -12 0 -28 7 -35 15 -17 21 -47 19 -59 -4z"/>
<path d="M2143 3783 c-24 -21 -22 -157 1 -166 30 -12 39 11 40 94 1 88 -7 102
-41 72z"/>
<path d="M2247 3793 c-15 -15 -7 -160 9 -174 27 -22 44 13 42 90 -2 78 -23
113 -51 84z"/>
<path d="M2366 3787 c-23 -17 -15 -97 15 -146 19 -32 21 -33 72 -26 88 11 85
8 89 83 5 79 -4 104 -35 100 -18 -2 -23 -11 -25 -43 -5 -88 -21 -105 -57 -65
-13 14 -16 28 -11 51 9 49 -14 71 -48 46z"/>
<path d="M2920 3070 c-89 -12 -173 -30 -207 -46 -17 -7 -39 -14 -50 -14 -38 0
-206 -60 -229 -81 -19 -18 -24 -33 -24 -74 0 -91 -5 -90 251 -92 170 -1 224
-5 230 -15 5 -7 10 -127 11 -265 1 -139 2 -265 2 -279 1 -33 -27 -54 -51 -38
-16 10 -26 36 -51 129 -57 214 -240 393 -462 451 -30 8 -72 24 -93 34 -63 33
-125 43 -287 46 -174 3 -254 -11 -303 -52 -30 -25 -36 -27 -127 -43 -97 -17
-162 -53 -245 -137 -71 -73 -165 -217 -165 -255 0 -8 -9 -31 -20 -52 -11 -20
-20 -45 -20 -54 0 -10 -9 -31 -20 -48 -11 -16 -20 -41 -20 -55 0 -14 -9 -42
-20 -63 -11 -20 -20 -46 -20 -57 0 -11 -6 -46 -14 -78 -8 -31 -19 -82 -25
-112 -5 -30 -19 -102 -30 -160 -65 -340 -50 -463 70 -577 66 -63 120 -83 219
-83 l88 0 61 60 c33 32 64 72 67 87 4 15 15 44 26 63 10 19 18 48 18 65 0 16
4 46 10 65 5 19 21 118 35 218 15 101 30 195 36 209 5 13 9 35 9 47 0 55 58
202 110 277 94 138 260 191 386 124 26 -14 52 -25 58 -25 30 0 142 -148 153
-201 3 -15 11 -30 18 -33 7 -2 16 -28 20 -57 4 -29 14 -67 21 -85 8 -18 14
-53 14 -76 0 -24 6 -72 14 -108 12 -53 44 -239 73 -420 7 -45 73 -131 134
-175 47 -33 53 -35 132 -35 71 0 87 3 102 20 17 19 74 28 75 13 1 -5 2 -55 3
-113 3 -161 18 -174 175 -163 l93 6 20 38 c18 36 19 62 19 443 0 261 4 407 10
411 6 3 26 1 45 -6 32 -12 37 -11 56 8 24 24 24 16 14 233 l-8 166 27 17 c50
33 25 126 -30 113 -110 -27 -104 -43 -105 279 0 149 0 276 0 283 1 9 18 12 57
10 77 -3 104 27 104 117 0 87 -33 135 -93 135 -36 0 -49 6 -77 35 l-34 35 -90
-1 c-50 -1 -116 -5 -146 -9z m181 -81 c13 -7 18 -17 14 -28 -12 -38 37 -49
110 -27 29 9 48 -8 48 -43 0 -43 -6 -46 -78 -46 -35 0 -67 -3 -70 -7 -4 -4 -6
-100 -5 -215 0 -114 1 -221 0 -238 -1 -16 -1 -69 0 -117 2 -97 -6 -108 -72
-108 -69 0 -67 -10 -71 342 -2 239 -6 321 -15 330 -10 10 -69 13 -225 13 -212
0 -248 5 -228 29 12 15 81 34 341 98 41 11 135 23 203 26 16 1 37 -3 48 -9z
m-1131 -239 c141 5 156 4 180 -13 13 -9 30 -17 38 -17 7 0 25 -9 40 -20 15
-11 56 -26 92 -34 183 -38 353 -211 409 -416 6 -25 17 -63 23 -85 6 -22 17
-47 24 -56 8 -8 14 -30 14 -48 0 -17 7 -46 16 -63 20 -39 50 -144 63 -223 5
-33 19 -113 30 -178 31 -178 29 -334 -5 -392 -78 -135 -257 -166 -328 -57 -48
72 -108 346 -122 557 -3 44 -14 101 -25 127 -10 26 -19 56 -19 67 0 21 -20 69
-74 180 -110 225 -401 312 -598 179 -66 -45 -84 -64 -116 -118 -65 -110 -82
-146 -104 -225 -19 -70 -24 -98 -52 -275 -8 -52 -19 -129 -26 -170 -52 -338
-115 -420 -285 -376 -117 30 -190 168 -166 310 6 39 16 107 21 151 4 44 16
118 25 165 9 47 22 117 29 155 7 39 18 80 24 92 7 12 12 34 12 48 0 15 6 39
14 53 18 35 96 236 96 248 0 15 45 98 75 140 85 117 194 193 284 195 57 2 89
14 121 44 57 52 99 66 185 60 44 -3 91 -6 105 -5z m1195 -671 c34 -21 36 -24
30 -61 -6 -32 -3 -44 15 -63 17 -18 21 -32 18 -76 l-3 -54 -139 0 c-159 -1
-149 -7 -162 104 -4 37 -14 69 -25 82 -42 49 -18 74 68 71 37 -1 82 2 98 7 46
14 61 13 100 -10z m95 1 c0 -5 -9 -10 -20 -10 -11 0 -20 5 -20 10 0 6 9 10 20
10 11 0 20 -4 20 -10z m-25 -335 c0 -22 -31 -33 -48 -16 -7 7 -6 15 3 26 17
21 45 15 45 -10z m-144 5 c19 -11 19 -24 19 -441 -1 -237 -5 -441 -10 -455 -8
-19 -17 -24 -44 -24 -40 0 -86 18 -87 34 -11 135 -3 275 18 321 28 61 32 242
9 365 -31 163 -34 185 -24 198 13 15 92 16 119 2z"/>
<path d="M1752 2689 c-18 -12 -44 -41 -59 -66 -21 -37 -29 -43 -47 -38 -75 26
-110 19 -165 -33 -47 -45 -53 -54 -51 -88 3 -55 3 -55 -26 -43 -40 14 -59 4
-114 -62 -67 -80 -71 -136 -13 -185 42 -35 41 -64 -3 -64 -43 0 -89 -42 -104
-93 -14 -51 -9 -75 24 -115 37 -44 40 -62 10 -62 -63 0 -124 -71 -124 -145 0
-45 41 -118 75 -133 143 -65 271 90 184 221 -35 54 -33 75 11 83 33 7 37 11
71 72 l23 43 -27 49 c-36 64 -35 76 11 84 61 11 116 98 107 171 -8 61 -10 59
88 68 58 6 97 37 97 78 0 40 13 43 56 14 20 -14 45 -25 54 -25 34 0 86 29 98
54 15 34 36 33 63 -3 31 -42 71 -57 117 -43 68 21 75 20 93 -18 26 -54 87 -84
139 -69 56 17 66 5 50 -59 -21 -80 10 -134 85 -150 52 -10 53 -23 9 -72 l-37
-41 17 -56 c12 -37 32 -71 57 -97 43 -43 49 -68 21 -88 -31 -22 -34 -36 -13
-75 11 -21 23 -49 26 -63 12 -55 47 -82 116 -87 l65 -5 37 41 c33 37 37 47 37
96 0 119 -52 174 -132 140 -34 -14 -34 25 0 51 83 65 66 193 -28 213 -46 9
-47 21 -5 71 44 52 44 53 -5 150 -45 89 -66 107 -111 91 -48 -17 -62 -5 -54
45 12 84 -51 154 -139 154 -28 0 -57 -5 -64 -12 -15 -15 -32 -1 -57 46 -37 68
-154 89 -226 42 l-41 -28 -29 28 c-39 37 -119 43 -167 13z m357 -60 c58 -20
62 -77 7 -113 -34 -22 -45 -20 -78 11 -35 34 -36 66 -2 92 31 24 31 24 73 10z
m-229 -19 c25 -25 25 -41 -1 -74 -13 -17 -30 -26 -49 -26 -28 0 -70 38 -70 64
0 51 81 75 120 36z m-258 -111 c36 -36 29 -48 -40 -68 -84 -24 -104 62 -22 92
26 9 31 8 62 -24z m746 15 c12 -8 22 -23 22 -33 0 -29 -39 -71 -65 -71 -26 0
-65 42 -65 71 0 21 36 49 65 49 11 0 31 -7 43 -16z m-946 -201 c59 -56 32
-112 -47 -97 -70 13 -62 117 9 123 6 1 23 -11 38 -26z m1140 -10 c33 -38 35
-104 3 -117 -20 -7 -101 28 -108 48 -8 20 48 86 72 86 10 0 25 -8 33 -17z
m-1214 -305 c5 -42 -36 -65 -77 -43 -56 29 -33 78 34 73 35 -3 40 -6 43 -30z
m1292 12 c15 -15 18 -25 11 -39 -27 -50 -85 -55 -110 -9 -31 54 53 94 99 48z
m-1365 -276 c32 -34 31 -45 -4 -83 -45 -48 -100 -32 -117 33 -17 67 72 103
121 50z m1450 0 c34 -36 32 -67 -6 -98 -39 -33 -44 -33 -85 8 -42 42 -42 47
-1 85 39 38 61 39 92 5z"/>
<path d="M2689 1521 c-20 -4 -50 -17 -67 -30 -31 -21 -32 -25 -32 -92 0 -131
61 -196 160 -170 144 38 170 233 39 285 -42 17 -45 17 -100 7z m99 -99 c30
-38 6 -100 -48 -122 -68 -28 -118 92 -57 135 26 18 86 10 105 -13z"/>
<path d="M1125 1500 c-80 -42 -113 -122 -85 -206 28 -83 231 -104 254 -27 13
46 23 131 19 160 -12 74 -111 113 -188 73z m95 -80 c33 -33 21 -112 -20 -125
-32 -10 -90 13 -100 41 -26 67 70 134 120 84z"/>
<path d="M1332 613 c-5 -10 -8 -58 -7 -108 2 -82 4 -90 23 -93 14 -2 24 5 34
25 17 36 61 40 66 5 4 -24 36 -47 52 -37 17 10 12 91 -6 106 -9 8 -40 16 -68
19 -51 5 -51 5 -48 38 5 50 -27 81 -46 45z"/>
<path d="M2620 615 c-10 -12 -11 -38 -4 -113 9 -94 10 -97 34 -97 25 0 25 1
28 99 3 98 -5 126 -33 126 -7 0 -18 -7 -25 -15z"/>
<path d="M3164 605 c-9 -23 3 -45 26 -45 25 0 37 25 20 45 -16 19 -39 19 -46
0z"/>
<path d="M1196 562 c-19 -37 -38 -44 -93 -36 -78 12 -93 2 -93 -61 0 -52 1
-55 25 -55 17 0 29 9 39 29 31 59 107 59 116 0 4 -28 10 -35 33 -37 27 -3 31
3 28 40 -1 9 5 28 14 42 15 22 15 27 -2 62 -23 49 -47 55 -67 16z"/>
<path d="M1960 527 c-45 -11 -54 -20 -45 -46 7 -23 26 -27 54 -9 24 15 53 3
49 -19 -2 -11 -15 -20 -33 -23 -37 -7 -24 -15 36 -24 55 -8 74 7 64 52 -12 57
-64 85 -125 69z"/>
<path d="M2732 528 c-17 -17 -15 -69 3 -95 13 -19 24 -22 78 -20 l62 2 7 35
c15 75 15 75 -12 75 -21 0 -27 -7 -39 -43 -18 -58 -54 -58 -59 0 -4 42 -22 64
-40 46z"/>
<path d="M2992 529 c-26 -10 -61 -47 -62 -65 0 -25 42 -64 70 -64 50 0 47 34
-4 53 -7 3 -5 10 5 21 13 14 20 15 42 5 14 -6 33 -9 41 -6 27 11 17 37 -19 53
-39 16 -42 16 -73 3z"/>
<path d="M3320 518 c-55 -38 -59 -53 -25 -88 30 -31 75 -41 75 -15 0 8 -9 19
-20 25 -11 6 -20 17 -20 25 0 20 39 19 68 -1 26 -18 42 -11 42 17 0 18 -52 59
-76 59 -6 0 -26 -10 -44 -22z"/>
<path d="M810 510 c-11 -11 -20 -25 -20 -31 0 -6 -7 -17 -15 -26 -21 -21 -15
-47 13 -51 16 -3 27 6 42 31 33 56 74 54 82 -3 5 -43 42 -33 46 12 6 75 -95
121 -148 68z"/>
<path d="M1601 514 c-31 -22 -52 -73 -40 -96 15 -29 39 -21 55 18 19 45 67 47
72 2 5 -43 54 -48 67 -7 7 22 -27 84 -51 93 -29 11 -79 6 -103 -10z"/>
<path d="M2158 519 c-23 -13 -25 -91 -3 -109 21 -18 43 -5 47 27 5 45 54 46
66 1 6 -26 13 -33 33 -33 36 0 33 69 -5 102 -29 25 -105 32 -138 12z"/>
<path d="M2408 519 c-41 -23 -13 -70 28 -48 34 18 55 -2 35 -33 -20 -31 30
-53 67 -29 18 11 5 78 -19 102 -21 21 -82 25 -111 8z"/>
<path d="M3167 513 c-14 -14 -7 -103 8 -109 25 -10 43 14 42 54 0 51 -27 79
-50 55z"/>
</g>
</svg>
