<?xml version="1.0" standalone="no"?>
<!DOCTYPE svg PUBLIC "-//W3C//DTD SVG 20010904//EN"
 "http://www.w3.org/TR/2001/REC-SVG-20010904/DTD/svg10.dtd">
<svg version="1.0" xmlns="http://www.w3.org/2000/svg"
 width="185.028306pt" height="240.500000pt" viewBox="0 0 185.028306 240.500000"
 preserveAspectRatio="xMidYMid meet">
<metadata>
Created by potrace 1.16, written by Peter Selinger 2001-2019
</metadata>
<g transform="translate(-69.966811,284.000000) scale(0.100000,-0.100000)"
fill="#000000" stroke="none">
<path d="M802 2807 c-45 -33 -78 -81 -94 -132 -13 -44 -10 -2038 3 -2091 7
-27 29 -62 59 -96 l47 -53 807 0 807 0 43 46 c80 84 76 26 76 1156 0 858 -2
1005 -15 1047 -17 56 -40 84 -103 127 l-43 29 -772 -1 -772 0 -43 -32z m1571
-93 c9 -3 26 -23 37 -44 20 -38 20 -62 20 -1045 0 -917 -1 -1008 -16 -1031
-36 -54 -17 -52 -781 -59 l-712 -6 -41 26 c-74 47 -70 -20 -70 1095 l0 1000
29 32 29 33 709 5 c683 6 757 5 796 -6z"/>
<path d="M993 2570 c-40 -16 -43 -38 -43 -302 l0 -253 25 -28 26 -27 624 0
c613 0 625 0 645 20 20 20 20 31 18 297 l-3 277 -25 13 c-30 15 -1230 18
-1267 3z m1175 -112 c17 -17 17 -349 0 -366 -15 -15 -1074 -17 -1097 -3 -18
11 -17 347 1 368 15 18 1078 19 1096 1z"/>
<path d="M1494 1832 c-51 -10 -64 -39 -64 -148 0 -120 2 -128 43 -153 27 -16
50 -18 152 -17 177 3 185 11 185 170 0 151 2 149 -196 150 -55 1 -109 -1 -120
-2z m194 -124 c17 -17 15 -55 -4 -62 -55 -21 -154 -1 -154 30 0 39 126 64 158
32z"/>
<path d="M1941 1815 l-32 -27 3 -119 c4 -160 -4 -154 189 -154 194 0 189 -4
186 162 -3 155 -5 157 -186 161 -126 3 -128 3 -160 -23z m237 -107 c31 -31 1
-64 -68 -73 -78 -11 -125 28 -84 69 19 19 134 22 152 4z"/>
<path d="M1005 1823 c-49 -12 -55 -29 -55 -148 0 -161 -2 -159 177 -163 139
-3 140 -3 171 23 l32 27 0 113 c0 154 -2 155 -179 154 -69 -1 -135 -4 -146 -6z
m207 -119 c12 -8 10 -38 -4 -52 -18 -18 -133 -16 -148 3 -16 19 -6 43 22 55
22 9 112 5 130 -6z"/>
<path d="M1475 1408 c-42 -22 -46 -36 -49 -151 -3 -150 5 -157 195 -157 189 0
189 0 189 161 0 154 2 152 -172 159 -110 4 -134 2 -163 -12z m213 -110 c38
-38 -2 -88 -70 -88 -71 0 -103 34 -72 78 17 25 120 32 142 10z"/>
<path d="M1964 1421 c-54 -9 -54 -8 -54 -358 l0 -325 29 -29 29 -29 129 0
c137 0 193 17 193 57 0 10 0 160 0 333 -1 388 16 355 -173 355 -73 0 -142 -2
-153 -4z m201 -118 c18 -18 22 -451 5 -484 -15 -27 -124 -28 -139 -1 -17 32
-14 451 4 478 18 28 105 33 130 7z"/>
<path d="M990 1409 c-37 -15 -40 -25 -40 -145 0 -162 -4 -159 188 -159 198 0
192 -5 192 156 0 159 -1 159 -184 158 -72 0 -142 -5 -156 -10z m211 -109 c44
-24 9 -90 -47 -90 -74 0 -122 44 -88 81 19 21 101 27 135 9z"/>
<path d="M975 985 c-24 -23 -25 -30 -25 -139 l0 -115 37 -26 c49 -32 259 -38
303 -8 38 26 40 31 40 151 0 161 -1 162 -190 162 -136 0 -142 -1 -165 -25z
m233 -108 c38 -30 -1 -77 -66 -77 -82 0 -123 53 -65 83 28 15 109 12 131 -6z"/>
<path d="M1454 996 c-16 -12 -20 -30 -24 -120 -9 -180 1 -189 189 -194 126 -4
128 -4 159 23 l32 27 0 119 c0 164 6 159 -188 159 -112 0 -153 -3 -168 -14z
m214 -103 c33 -8 48 -50 26 -74 -23 -25 -119 -27 -146 -2 -53 48 29 101 120
76z"/>
</g>
</svg>
