<?xml version="1.0" standalone="no"?>
<!DOCTYPE svg PUBLIC "-//W3C//DTD SVG 20010904//EN"
 "http://www.w3.org/TR/2001/REC-SVG-20010904/DTD/svg10.dtd">
<svg version="1.0" xmlns="http://www.w3.org/2000/svg"
 width="202.621754pt" height="242.903791pt" viewBox="0 0 202.621754 242.903791"
 preserveAspectRatio="xMidYMid meet">
<metadata>
Created by potrace 1.16, written by Peter Selinger 2001-2019
</metadata>
<g transform="translate(-70.141788,292.104780) scale(0.100000,-0.100000)"
fill="#000000" stroke="none">
<path d="M1666 2911 c-3 -5 -21 -16 -40 -25 -67 -32 -107 -94 -115 -182 -7
-77 -22 -104 -58 -104 -8 0 -48 -16 -91 -37 -92 -43 -231 -176 -271 -258 -13
-28 -30 -54 -38 -58 -7 -4 -13 -18 -13 -31 0 -13 -9 -35 -20 -49 -12 -15 -20
-41 -20 -64 -1 -21 -7 -67 -15 -103 -10 -45 -14 -132 -15 -281 0 -162 -4 -228
-15 -265 -8 -27 -15 -59 -15 -72 0 -12 -4 -30 -9 -40 -5 -9 -19 -39 -32 -65
-12 -27 -29 -56 -38 -65 -51 -52 -136 -175 -152 -220 -18 -53 -3 -116 37 -159
l36 -38 927 0 c1033 0 957 -5 1001 68 38 62 12 167 -58 237 -40 40 -129 181
-145 230 -35 106 -47 202 -56 475 -9 245 -12 283 -31 333 -52 135 -136 268
-210 332 -54 46 -192 130 -214 130 -31 0 -64 55 -70 119 -9 75 -48 133 -121
176 -44 25 -128 35 -139 16z"/>
<path d="M1649 762 c-177 -2 -229 -5 -238 -16 -20 -24 24 -120 77 -172 60 -59
107 -76 215 -81 136 -7 235 37 285 125 22 40 40 141 26 143 -19 4 -147 4 -365
1z"/>
</g>
</svg>
