<?xml version="1.0" standalone="no"?>
<!DOCTYPE svg PUBLIC "-//W3C//DTD SVG 20010904//EN"
 "http://www.w3.org/TR/2001/REC-SVG-20010904/DTD/svg10.dtd">
<svg version="1.0" xmlns="http://www.w3.org/2000/svg"
 width="48.889593pt" height="238.431870pt" viewBox="0 0 48.889593 238.431870"
 preserveAspectRatio="xMidYMid meet">
<metadata>
Created by potrace 1.16, written by Peter Selinger 2001-2019
</metadata>
<g transform="translate(-136.624100,281.462495) scale(0.100000,-0.100000)"
fill="#000000" stroke="none">
<path d="M1574 2810 c-135 -15 -227 -144 -204 -287 5 -37 17 -144 25 -238 8
-93 19 -197 25 -231 5 -33 10 -94 10 -135 0 -41 7 -119 16 -174 8 -55 19 -167
24 -250 5 -82 14 -184 20 -225 5 -41 14 -140 20 -220 5 -80 16 -221 24 -315 8
-93 17 -196 19 -228 4 -64 14 -77 62 -77 60 0 72 36 74 220 1 47 8 128 15 180
8 52 17 156 21 230 4 74 12 171 20 215 7 44 16 134 20 200 3 66 12 161 20 210
8 50 15 122 15 162 0 39 7 131 14 205 36 328 49 530 37 583 -22 100 -85 156
-201 179 -8 2 -42 0 -76 -4z m106 -129 c57 -41 73 -79 67 -164 -8 -127 -41
-161 -147 -155 -52 3 -54 4 -84 53 -94 153 34 362 164 266z m28 -424 c16 -11
5 -198 -12 -209 -14 -10 -138 -10 -152 0 -14 9 -27 191 -15 206 11 13 160 15
179 3z m-39 -351 c13 -16 8 -149 -10 -281 -5 -38 -13 -132 -18 -208 -4 -76
-11 -141 -15 -144 -18 -18 -29 28 -37 158 -5 79 -13 189 -18 244 -12 116 -14
229 -4 238 12 13 90 7 102 -7z"/>
</g>
</svg>
