<?xml version="1.0" standalone="no"?>
<!DOCTYPE svg PUBLIC "-//W3C//DTD SVG 20010904//EN"
 "http://www.w3.org/TR/2001/REC-SVG-20010904/DTD/svg10.dtd">
<svg version="1.0" xmlns="http://www.w3.org/2000/svg"
 width="241.698187pt" height="121.464617pt" viewBox="0 0 241.698187 121.464617"
 preserveAspectRatio="xMidYMid meet">
<metadata>
Created by potrace 1.16, written by Peter Selinger 2001-2019
</metadata>
<g transform="translate(-46.712628,225.382990) scale(0.100000,-0.100000)"
fill="#000000" stroke="none">
<path d="M1564 2250 c-39 -4 -80 -12 -90 -18 -29 -15 -249 -72 -279 -72 -14 0
-38 -6 -53 -14 -31 -16 -102 -26 -182 -28 -49 0 -62 4 -124 45 -137 91 -265
76 -345 -41 -23 -33 -24 -45 -24 -157 1 -200 54 -318 212 -475 125 -123 334
-290 363 -290 8 0 22 -6 33 -14 17 -12 91 -41 215 -86 19 -7 58 -17 85 -22 28
-6 67 -17 88 -24 55 -20 352 -19 400 1 20 8 53 15 74 15 21 1 56 9 78 20 22
11 48 19 57 20 78 1 330 135 403 214 17 17 64 58 105 90 87 68 150 126 150
139 0 4 13 25 30 45 16 20 36 53 45 72 9 19 23 46 30 60 8 14 15 33 15 43 0
10 7 32 16 50 28 54 22 209 -10 274 -76 150 -244 165 -399 36 -33 -27 -123
-25 -202 4 -22 8 -71 19 -109 24 -39 4 -81 13 -95 18 -152 57 -349 86 -487 71z
m276 -132 c58 -11 117 -27 132 -34 15 -8 42 -14 61 -14 19 0 47 -7 64 -15 17
-8 59 -18 94 -22 34 -3 74 -12 89 -20 14 -7 32 -13 41 -13 34 0 37 -23 39
-315 1 -159 1 -295 1 -301 -1 -12 -116 -94 -132 -94 -5 0 -27 -9 -47 -19 -39
-20 -146 -54 -222 -70 -25 -6 -70 -17 -100 -26 -75 -21 -315 -21 -390 0 -30 9
-80 22 -110 29 -63 15 -137 41 -196 67 -23 11 -44 19 -47 19 -12 0 -93 59
-121 88 l-28 30 1 283 c1 155 4 286 7 290 7 12 135 47 199 55 33 3 72 13 87
20 15 8 39 14 53 14 15 0 41 6 58 14 18 8 75 23 127 34 52 12 104 23 115 26
29 7 106 -2 225 -26z m-1074 -48 c84 -54 98 -78 90 -149 -3 -31 -7 -128 -7
-216 -1 -87 -3 -165 -6 -172 -10 -27 -40 -10 -93 54 -30 36 -64 76 -76 88 -82
89 -127 293 -82 379 36 70 84 75 174 16z m1963 5 c30 -35 31 -38 31 -133 0
-66 -5 -105 -15 -122 -8 -14 -17 -32 -20 -40 -38 -97 -177 -270 -217 -270 -13
0 -16 35 -21 232 -7 267 -9 262 84 328 73 52 115 53 158 5z"/>
<path d="M1569 2015 c-42 -7 -84 -17 -95 -23 -37 -19 -220 -63 -288 -69 -106
-9 -137 -55 -74 -108 34 -29 73 -29 130 1 15 8 43 14 63 14 20 0 96 18 170 40
74 22 153 40 177 40 46 0 193 -30 298 -61 36 -11 78 -19 93 -19 15 0 40 -6 55
-14 77 -38 152 -24 152 29 0 53 -17 75 -58 75 -40 0 -178 28 -272 56 -30 9
-77 20 -105 26 -27 5 -64 14 -81 19 -38 11 -69 10 -165 -6z"/>
<path d="M1125 1703 c-18 -18 -19 -63 -2 -86 9 -13 38 -17 137 -22 69 -3 190
-13 270 -21 140 -15 192 -14 345 6 39 5 130 12 203 14 150 5 165 10 160 65 -5
65 -11 65 -373 31 -126 -12 -410 -7 -506 9 -107 18 -218 20 -234 4z"/>
<path d="M1113 1489 c-31 -32 -3 -86 51 -100 23 -5 58 -17 79 -25 20 -7 50
-14 66 -14 16 0 46 -7 66 -16 97 -40 502 -39 601 2 18 8 46 14 61 14 15 0 66
13 113 29 l85 28 3 42 c5 61 -5 61 -233 11 -49 -10 -109 -19 -131 -20 -23 0
-58 -7 -77 -15 -23 -9 -68 -15 -120 -15 -50 0 -102 6 -127 15 -23 8 -59 15
-79 15 -20 0 -79 12 -131 26 -119 32 -210 41 -227 23z"/>
</g>
</svg>
