<?xml version="1.0" standalone="no"?>
<!DOCTYPE svg PUBLIC "-//W3C//DTD SVG 20010904//EN"
 "http://www.w3.org/TR/2001/REC-SVG-20010904/DTD/svg10.dtd">
<svg version="1.0" xmlns="http://www.w3.org/2000/svg"
 width="241.476482pt" height="120.362080pt" viewBox="0 0 241.476482 120.362080"
 preserveAspectRatio="xMidYMid meet">
<metadata>
Created by potrace 1.16, written by Peter Selinger 2001-2019
</metadata>
<g transform="translate(-43.500000,224.594331) scale(0.100000,-0.100000)"
fill="#000000" stroke="none">
<path d="M1365 2241 c-49 -4 -99 -12 -110 -18 -11 -5 -53 -13 -93 -16 -40 -3
-87 -13 -104 -21 -17 -9 -43 -16 -58 -16 -90 0 -292 -155 -329 -252 -7 -20
-21 -30 -53 -39 -182 -49 -182 -50 -183 -267 l0 -177 27 -35 c26 -34 98 -70
139 -70 20 0 52 -35 78 -87 51 -101 153 -161 320 -189 115 -19 243 -15 321 10
47 14 130 64 130 77 0 5 18 36 40 70 22 34 40 69 40 78 0 9 7 25 15 35 8 11
15 28 15 37 0 32 49 79 81 79 34 0 79 -39 79 -68 0 -11 7 -25 15 -32 8 -7 15
-23 15 -36 0 -14 14 -50 32 -81 78 -139 161 -177 378 -177 74 0 158 5 185 10
119 23 241 116 271 206 16 49 36 68 72 68 60 0 137 57 153 114 12 42 11 298
-1 331 -19 51 -77 88 -156 100 -64 9 -71 13 -78 40 -16 62 -136 200 -186 212
-14 3 -41 14 -60 25 -19 10 -42 18 -50 18 -9 0 -41 9 -73 20 -31 11 -74 20
-96 20 -22 0 -65 7 -96 15 -64 16 -531 28 -680 16z m625 -137 c47 -8 103 -17
125 -20 159 -20 325 -89 325 -134 0 -34 -47 -39 -111 -11 -30 13 -88 23 -179
31 -74 6 -166 15 -205 20 -92 12 -454 12 -580 0 -55 -5 -143 -12 -195 -15
-123 -8 -249 -25 -256 -36 -7 -12 -51 -11 -59 1 -14 23 9 49 66 75 78 35 188
65 238 65 22 0 52 5 68 11 79 31 607 40 763 13z m103 -250 c38 -8 97 -14 131
-14 56 0 212 -22 259 -36 41 -13 51 -60 50 -224 -2 -250 -31 -343 -121 -389
-86 -43 -362 -47 -443 -5 -38 19 -89 81 -89 108 0 13 -6 29 -14 35 -8 7 -18
26 -21 43 -14 62 -83 158 -115 158 -9 0 -25 7 -36 15 -28 21 -81 18 -123 -7
-40 -25 -91 -72 -91 -85 0 -5 -8 -20 -17 -33 -10 -14 -23 -38 -29 -55 -7 -16
-21 -55 -33 -85 -34 -90 -86 -117 -240 -127 -171 -10 -311 40 -366 132 -58 99
-60 476 -2 507 37 19 171 48 228 48 31 0 81 5 110 11 145 29 828 32 962 3z
m-1462 -106 c7 -59 -5 -285 -15 -296 -21 -22 -43 -3 -65 55 -44 114 -10 253
61 253 10 0 19 -6 19 -12z m2073 -3 c50 -50 25 -295 -29 -295 -26 0 -35 46
-35 169 0 136 18 172 64 126z"/>
</g>
</svg>
