<?xml version="1.0" standalone="no"?>
<!DOCTYPE svg PUBLIC "-//W3C//DTD SVG 20010904//EN"
 "http://www.w3.org/TR/2001/REC-SVG-20010904/DTD/svg10.dtd">
<svg version="1.0" xmlns="http://www.w3.org/2000/svg"
 width="243.370300pt" height="248.128131pt" viewBox="0 0 243.370300 248.128131"
 preserveAspectRatio="xMidYMid meet">
<metadata>
Created by potrace 1.16, written by Peter Selinger 2001-2019
</metadata>
<g transform="translate(-51.577122,293.000000) scale(0.100000,-0.100000)"
fill="#000000" stroke="none">
<path d="M1391 2904 c-11 -14 -23 -42 -27 -63 -10 -60 -49 -111 -84 -111 -38
0 -107 -28 -114 -46 -13 -34 15 -54 81 -54 44 0 77 -33 108 -110 32 -77 41
-90 66 -90 12 0 21 10 25 28 18 83 53 122 146 163 78 34 82 54 18 86 -25 12
-52 22 -61 22 -31 2 -89 85 -89 128 0 29 -24 73 -40 73 -5 0 -18 -12 -29 -26z
m45 -169 c3 -8 21 -23 40 -34 42 -25 43 -45 4 -61 -16 -7 -30 -17 -30 -22 0
-23 -33 -19 -61 8 -36 35 -37 57 -1 94 31 33 40 36 48 15z"/>
<path d="M2712 2920 c-29 -12 -558 -539 -633 -630 -83 -100 -227 -242 -239
-235 -6 3 -36 1 -67 -5 -52 -11 -64 -19 -141 -96 -94 -94 -115 -101 -172 -59
-19 14 -43 25 -54 25 -12 0 -43 7 -70 15 -122 37 -222 8 -331 -96 -92 -88
-132 -162 -147 -272 -14 -108 -1 -298 33 -459 16 -78 29 -154 29 -170 0 -16 6
-41 14 -57 8 -15 18 -55 22 -89 4 -40 13 -67 25 -78 11 -9 19 -22 19 -29 0
-26 170 -165 202 -165 6 0 29 -9 52 -19 105 -49 453 -69 611 -36 38 8 80 15
91 15 12 0 27 6 33 14 7 8 27 18 44 22 18 3 45 17 60 30 16 13 32 24 36 24 4
0 30 21 58 48 58 55 86 131 97 262 3 42 12 95 21 119 8 24 15 64 15 90 0 25 9
82 20 126 30 119 30 369 1 426 -12 22 -21 47 -21 57 0 22 -105 127 -151 150
-53 27 -48 42 53 138 196 188 357 342 448 429 212 201 246 238 263 289 19 56
22 92 7 101 -5 3 -10 17 -10 30 0 60 -145 116 -218 85z m113 -112 c50 -59 37
-82 -132 -247 -389 -380 -454 -441 -468 -441 -8 0 -32 15 -52 34 -58 53 -76
28 323 436 267 273 277 280 329 218z m-707 -680 c7 -13 18 -32 27 -44 14 -19
12 -24 -33 -73 -56 -61 -75 -63 -109 -12 -31 45 -30 49 23 104 50 52 75 59 92
25z m-176 -219 c83 -92 75 -176 -25 -244 -21 -14 -43 -25 -50 -25 -7 0 -24 -8
-37 -17 -21 -15 -47 -18 -150 -18 -143 0 -161 11 -87 56 38 23 44 32 66 102
27 90 53 128 118 173 68 47 103 41 165 -27z m-499 -88 c101 -51 85 -100 -41
-133 -73 -18 -75 -63 -5 -111 21 -15 45 -27 51 -27 7 0 24 -8 38 -17 21 -14
51 -16 170 -15 l144 0 86 42 c104 51 178 119 194 179 12 45 18 48 58 27 106
-56 164 -216 142 -394 -12 -98 -45 -299 -61 -382 -6 -30 -17 -95 -23 -145 -16
-126 -37 -162 -126 -224 -172 -119 -575 -132 -839 -28 -56 23 -181 128 -181
153 0 8 -9 40 -20 71 -11 32 -20 72 -20 90 0 18 -6 59 -14 91 -41 161 -72 415
-62 510 15 148 80 249 206 321 80 46 201 43 303 -8z"/>
<path d="M1126 1625 c-3 -9 -6 -27 -6 -40 0 -15 -7 -26 -20 -30 -11 -3 -33
-20 -49 -36 -44 -44 -22 -79 29 -47 25 16 45 -2 45 -40 0 -20 6 -28 23 -30 19
-3 22 1 22 27 0 37 29 57 59 41 27 -14 41 -13 41 5 0 9 -11 20 -25 25 -14 5
-27 20 -31 35 -3 14 -14 30 -24 35 -10 6 -20 22 -22 37 -3 31 -32 43 -42 18z"/>
<path d="M1230 1580 c0 -5 7 -7 15 -4 8 4 15 8 15 10 0 2 -7 4 -15 4 -8 0 -15
-4 -15 -10z"/>
<path d="M1214 1318 c-26 -37 -45 -81 -40 -93 7 -20 36 -7 36 16 0 12 13 26
35 36 22 10 35 23 33 33 -4 19 -52 25 -64 8z"/>
<path d="M1354 1289 c-3 -6 -1 -16 5 -22 13 -13 34 9 25 25 -7 11 -22 10 -30
-3z"/>
<path d="M1084 1256 c-8 -22 3 -33 18 -18 9 9 9 15 0 24 -9 9 -13 7 -18 -6z"/>
<path d="M1283 1226 c-18 -39 -11 -69 14 -64 14 2 19 15 21 51 4 56 -11 62
-35 13z"/>
<path d="M888 2719 c-10 -6 -18 -22 -18 -37 0 -15 -6 -39 -14 -54 -8 -14 -19
-43 -26 -64 -25 -75 -50 -104 -115 -135 -34 -16 -71 -29 -82 -29 -10 0 -28 -7
-39 -15 -10 -8 -27 -15 -36 -15 -9 0 -24 -7 -32 -16 -25 -24 -4 -50 56 -70 29
-9 69 -25 88 -35 19 -11 42 -19 50 -19 42 -1 94 -77 125 -185 43 -149 85 -158
115 -25 17 80 47 135 94 173 46 38 143 87 172 87 54 0 89 72 42 85 -13 4 -36
12 -53 20 -16 7 -48 18 -70 24 -87 23 -131 79 -181 231 -29 87 -41 100 -76 79z
m51 -243 c24 -60 33 -72 72 -92 24 -13 49 -24 55 -24 18 0 47 -38 41 -53 -3
-8 -19 -17 -35 -20 -37 -7 -122 -89 -146 -140 -20 -44 -38 -44 -47 0 -13 67
-63 125 -125 146 -57 20 -54 39 10 76 58 33 101 86 118 149 13 46 25 37 57
-42z"/>
</g>
</svg>
