<?xml version="1.0" standalone="no"?>
<!DOCTYPE svg PUBLIC "-//W3C//DTD SVG 20010904//EN"
 "http://www.w3.org/TR/2001/REC-SVG-20010904/DTD/svg10.dtd">
<svg version="1.0" xmlns="http://www.w3.org/2000/svg"
 width="243.773047pt" height="172.471316pt" viewBox="0 0 243.773047 172.471316"
 preserveAspectRatio="xMidYMid meet">
<metadata>
Created by potrace 1.16, written by Peter Selinger 2001-2019
</metadata>
<g transform="translate(-44.000000,252.471316) scale(0.100000,-0.100000)"
fill="#000000" stroke="none">
<path d="M1005 2520 c-22 -4 -61 -13 -86 -20 -41 -12 -52 -11 -91 3 -115 44
-262 8 -319 -78 -35 -54 -69 -159 -69 -216 0 -57 34 -229 53 -267 8 -15 17
-42 20 -60 4 -19 16 -45 27 -59 11 -14 20 -29 20 -34 0 -4 25 -32 55 -63 60
-59 74 -116 40 -160 -19 -25 -19 -60 0 -76 21 -17 18 -70 -5 -100 -28 -36 -25
-67 12 -100 l32 -30 -27 -28 c-35 -37 -34 -65 2 -92 38 -27 47 -54 27 -85 -20
-30 -20 -59 -1 -75 8 -7 29 -37 46 -67 31 -54 104 -112 140 -113 75 -1 156 83
166 173 3 29 13 61 23 72 30 35 42 78 30 109 -16 42 -12 81 10 101 24 21 26
63 5 91 -20 27 -19 71 3 83 38 20 48 58 22 86 -23 25 -23 26 -11 107 12 76 16
85 62 137 27 30 49 58 49 62 0 4 4 19 10 34 12 32 45 20 61 -23 6 -15 31 -46
56 -68 66 -59 137 -79 283 -79 184 0 280 41 336 143 36 66 61 74 83 27 8 -16
36 -63 62 -103 60 -91 66 -120 43 -188 -16 -48 -16 -55 -2 -71 33 -40 30 -81
-12 -123 -26 -26 -26 -30 10 -70 35 -40 37 -49 10 -83 -26 -32 -26 -32 10 -77
35 -44 36 -49 13 -89 -13 -21 -15 -35 -8 -44 6 -7 31 -46 58 -85 48 -73 117
-122 170 -122 60 0 147 105 147 177 0 29 8 46 34 74 44 49 48 63 30 108 -17
42 -6 80 30 110 21 18 20 33 -5 65 -21 26 -20 76 0 76 5 0 15 16 21 36 11 32
10 39 -9 65 -25 33 -27 62 -6 79 10 8 14 28 13 60 -2 41 2 52 33 88 19 23 41
54 48 69 7 15 19 41 27 56 8 16 14 34 14 40 0 7 7 26 16 42 21 38 53 164 61
236 9 86 -38 210 -104 276 -59 58 -214 84 -300 48 -46 -19 -77 -19 -116 2 -72
38 -241 11 -289 -46 -22 -26 -53 -27 -70 -2 -40 56 -196 81 -293 46 -52 -19
-74 -19 -121 1 -86 37 -226 13 -281 -48 -20 -22 -51 -24 -59 -3 -17 42 -156
80 -239 65z m-163 -148 c43 -17 81 -13 161 18 87 33 156 9 196 -67 24 -46 8
-252 -25 -331 -8 -18 -17 -50 -20 -71 -7 -44 -52 -97 -92 -108 -15 -4 -92 -8
-172 -8 -170 0 -194 9 -248 90 -66 101 -101 300 -72 406 12 44 56 86 106 104
39 13 64 9 166 -33z m1592 -2 c11 1 46 9 76 20 95 34 174 16 205 -47 6 -11 17
-29 25 -38 19 -23 15 -176 -6 -216 -8 -15 -14 -36 -14 -45 0 -9 -9 -35 -20
-58 -10 -23 -24 -60 -30 -83 -18 -71 -51 -90 -173 -98 -122 -8 -222 0 -257 23
-35 21 -70 55 -70 67 0 6 -11 33 -25 60 -13 28 -25 60 -25 71 0 12 -7 41 -15
64 -43 123 -6 259 82 304 l46 23 89 -24 c50 -13 100 -23 112 -23z m-861 13
c57 -22 101 -20 171 7 97 37 172 11 206 -71 19 -45 7 -259 -19 -336 -54 -165
-87 -188 -271 -188 -140 0 -205 20 -237 74 -9 14 -24 38 -34 53 -11 15 -19 34
-19 43 0 9 -10 35 -22 58 -18 36 -21 60 -22 168 -1 124 -1 125 28 160 49 59
123 70 219 32z m-575 -682 c8 -1 12 -11 10 -27 -6 -48 -187 -92 -231 -55 -18
15 -23 61 -7 77 7 7 165 11 228 5z m1533 -1 c37 -21 23 -47 -38 -70 -32 -12
-67 -22 -78 -23 -93 -4 -149 26 -122 66 12 19 27 23 103 28 49 3 95 6 102 7 7
1 22 -3 33 -8z m-1536 -194 c0 -38 -186 -85 -199 -50 -10 27 8 37 92 56 91 20
107 19 107 -6z m1523 2 c5 -25 -101 -70 -158 -66 -62 4 -66 38 -5 52 22 5 60
15 85 22 55 16 74 14 78 -8z m-1542 -159 c9 -15 -8 -30 -53 -47 -95 -37 -156
-5 -66 35 53 23 108 29 119 12z m1524 -8 c0 -36 -156 -81 -176 -50 -9 16 9 30
63 49 69 25 113 25 113 1z m-32 -150 c26 -16 8 -46 -42 -69 -43 -21 -50 -22
-64 -9 -22 22 -8 45 40 67 50 23 49 22 66 11z m-1513 -11 c8 -13 -13 -50 -28
-50 -7 0 -25 -7 -41 -15 -53 -28 -80 26 -28 57 30 19 87 24 97 8z m1515 -184
c0 -34 -55 -79 -79 -66 -39 20 -30 73 14 83 50 12 65 8 65 -17z m-1541 5 c25
-16 -18 -75 -57 -79 -52 -5 -59 58 -8 78 28 11 48 12 65 1z"/>
</g>
</svg>
