<?xml version="1.0" standalone="no"?>
<!DOCTYPE svg PUBLIC "-//W3C//DTD SVG 20010904//EN"
 "http://www.w3.org/TR/2001/REC-SVG-20010904/DTD/svg10.dtd">
<svg version="1.0" xmlns="http://www.w3.org/2000/svg"
 width="225.030983pt" height="240.968465pt" viewBox="0 0 225.030983 240.968465"
 preserveAspectRatio="xMidYMid meet">
<metadata>
Created by potrace 1.16, written by Peter Selinger 2001-2019
</metadata>
<g transform="translate(-51.980587,285.000000) scale(0.100000,-0.100000)"
fill="#000000" stroke="none">
<path d="M770 2835 c-99 -30 -119 -41 -163 -95 -25 -30 -49 -69 -53 -85 -4
-17 -13 -39 -20 -50 -20 -28 -18 -187 2 -250 31 -98 46 -120 83 -123 l34 -3
-7 73 c-4 40 -14 91 -22 113 -42 120 36 295 146 325 59 17 141 12 183 -10 51
-28 81 -26 95 5 21 45 15 53 -68 84 -86 34 -137 37 -210 16z"/>
<path d="M2413 2826 l-28 -24 3 -190 c2 -118 -1 -200 -8 -217 -6 -16 -15 -123
-20 -237 -7 -160 -13 -214 -25 -231 -8 -12 -15 -29 -15 -39 0 -10 -9 -26 -21
-36 -69 -58 -96 -186 -52 -247 18 -25 23 -49 27 -145 17 -341 28 -537 36 -640
5 -63 10 -148 10 -189 0 -86 21 -133 77 -168 73 -48 178 -16 202 60 5 18 13
93 16 167 4 74 13 208 21 298 8 89 14 193 14 230 0 142 31 375 54 400 36 40
26 123 -21 179 -81 95 -82 98 -93 169 -6 38 -13 146 -16 239 -7 194 -1 214 75
235 53 14 104 51 112 80 23 84 5 125 -92 200 -35 28 -69 55 -76 60 -38 31
-110 70 -129 70 -13 0 -36 -11 -51 -24z m188 -172 c96 -80 104 -111 33 -129
-23 -5 -48 -15 -55 -21 -24 -20 -80 -28 -90 -13 -14 22 -11 203 3 217 19 19
24 16 109 -54z m-110 -450 c5 -15 12 -90 14 -167 3 -82 9 -145 16 -153 24 -29
2 -45 -53 -42 -59 3 -74 24 -43 58 14 15 16 28 10 57 -5 21 -7 43 -6 48 2 6 7
52 11 103 7 79 20 122 36 122 3 0 9 -12 15 -26z m117 -458 c16 -9 15 -43 0
-52 -20 -13 -246 -16 -268 -4 -22 12 -26 40 -9 57 12 12 257 12 277 -1z m-21
-157 c7 -7 8 -20 4 -33 -14 -35 -30 -254 -47 -626 -18 -387 -21 -400 -74 -400
-60 0 -56 -29 -95 723 -8 153 -18 289 -21 302 -3 13 -3 29 1 34 9 15 218 14
232 0z"/>
<path d="M1249 2831 c-21 -4 -51 -19 -68 -34 -30 -25 -30 -27 -12 -37 11 -5
22 -19 26 -30 6 -20 6 -20 45 0 106 54 246 -14 294 -143 15 -39 17 -64 11
-130 -11 -139 -10 -176 3 -189 60 -60 115 231 67 360 -54 148 -213 236 -366
203z"/>
<path d="M1650 2679 c-13 -22 -12 -23 149 -187 l82 -83 -2 -142 c-3 -154 0
-167 37 -167 17 0 24 -5 24 -20 0 -15 -7 -20 -25 -20 -32 0 -45 -31 -45 -110
0 -32 -4 -61 -9 -65 -13 -7 -35 -88 -61 -220 -28 -140 -44 -1054 -20 -1126 22
-67 71 -99 149 -99 65 1 67 2 111 45 l45 45 -1 528 c0 519 -1 528 -22 580 -12
29 -22 74 -22 100 0 26 -6 56 -14 67 -25 37 -28 79 -27 327 2 310 5 303 -146
447 -57 56 -113 106 -123 111 -31 17 -68 12 -80 -11z m317 -1006 c7 -37 17
-88 22 -113 6 -26 10 -247 11 -516 0 -462 0 -472 -21 -498 -25 -32 -68 -35
-95 -5 -18 20 -19 44 -22 448 -2 398 3 526 27 684 18 111 57 111 78 0z"/>
<path d="M770 2660 c-67 -35 -92 -71 -97 -142 -4 -51 -2 -66 11 -77 25 -21 46
-6 46 32 0 53 55 87 141 87 96 0 115 31 56 88 -39 38 -100 43 -157 12z"/>
<path d="M686 2354 c-7 -19 12 -47 25 -38 5 3 9 16 9 30 0 27 -24 33 -34 8z"/>
<path d="M1510 2195 c0 -8 2 -15 4 -15 2 0 6 7 10 15 3 8 1 15 -4 15 -6 0 -10
-7 -10 -15z"/>
<path d="M1470 2060 c0 -18 4 -29 10 -25 6 3 10 15 10 25 0 10 -4 22 -10 25
-6 4 -10 -7 -10 -25z"/>
<path d="M1061 2051 c-12 -8 -9 -11 12 -17 30 -7 43 -1 32 15 -8 13 -25 14
-44 2z"/>
<path d="M997 1986 c-4 -10 -5 -21 -2 -24 9 -9 17 6 13 25 -3 17 -4 17 -11 -1z"/>
<path d="M646 1895 c-12 -32 -6 -95 14 -145 11 -28 20 -62 20 -76 0 -14 9 -37
20 -51 11 -14 20 -31 20 -37 1 -15 58 -69 97 -91 38 -22 82 -9 113 35 24 34
25 57 4 110 -19 47 -42 52 -50 10 -19 -95 -96 -42 -124 85 -22 103 -96 206
-114 160z"/>
<path d="M951 1854 c0 -11 3 -14 6 -6 3 7 2 16 -1 19 -3 4 -6 -2 -5 -13z"/>
<path d="M1402 1743 c-24 -48 -48 -99 -55 -112 -7 -13 -26 -29 -44 -35 -55
-19 -71 -41 -53 -74 24 -42 78 -51 119 -21 85 63 160 318 95 327 -17 2 -28
-12 -62 -85z"/>
<path d="M1225 1640 c-7 -12 2 -30 16 -30 12 0 12 27 0 35 -5 3 -12 1 -16 -5z"/>
</g>
</svg>
