<?xml version="1.0" standalone="no"?>
<!DOCTYPE svg PUBLIC "-//W3C//DTD SVG 20010904//EN"
 "http://www.w3.org/TR/2001/REC-SVG-20010904/DTD/svg10.dtd">
<svg version="1.0" xmlns="http://www.w3.org/2000/svg"
 width="163.611950pt" height="237.945783pt" viewBox="0 0 163.611950 237.945783"
 preserveAspectRatio="xMidYMid meet">
<metadata>
Created by potrace 1.16, written by Peter Selinger 2001-2019
</metadata>
<g transform="translate(-78.721631,284.945783) scale(0.100000,-0.100000)"
fill="#000000" stroke="none">
<path d="M1360 2822 c-105 -52 -138 -80 -194 -165 -94 -144 -100 -389 -13
-525 15 -24 32 -53 37 -65 6 -12 26 -42 44 -67 19 -25 35 -53 35 -63 1 -17
-42 -83 -139 -217 -40 -55 -92 -141 -162 -268 -90 -165 -98 -186 -152 -397
-38 -145 -38 -403 -1 -482 77 -166 289 -113 310 78 12 111 53 313 69 344 9 17
16 37 16 46 0 18 68 153 123 246 20 34 37 64 37 66 0 41 204 277 239 277 23 0
150 -135 195 -205 52 -83 56 -89 66 -114 6 -13 17 -29 25 -35 16 -13 95 -168
95 -188 0 -7 7 -26 15 -42 20 -38 75 -280 75 -330 0 -23 7 -54 15 -70 8 -15
15 -35 15 -44 0 -51 96 -132 157 -132 65 0 135 66 148 140 19 102 3 376 -28
477 -8 26 -20 73 -27 103 -20 86 -68 191 -153 332 -12 20 -46 79 -76 130 -30
51 -78 122 -106 158 -86 109 -88 114 -69 153 10 17 34 55 54 82 96 130 137
316 100 455 -27 103 -36 128 -63 168 -29 43 -139 142 -158 142 -6 0 -22 9 -36
20 -33 26 -85 26 -108 0 -14 -15 -19 -45 -25 -137 -8 -120 -4 -149 23 -171 34
-29 39 -65 17 -123 -48 -122 -143 -164 -226 -98 -78 62 -110 158 -70 206 37
44 37 283 1 319 -30 30 -37 30 -105 -4z m547 -169 c60 -63 93 -134 100 -222 6
-70 -11 -186 -29 -197 -4 -3 -15 -20 -24 -37 -30 -64 -47 -92 -61 -100 -7 -4
-13 -13 -13 -19 0 -7 -8 -21 -18 -32 -11 -12 -29 -55 -42 -96 -31 -99 -81
-150 -174 -179 -88 -27 -128 -55 -216 -149 -92 -98 -88 -93 -152 -194 -29 -46
-67 -104 -85 -130 -18 -26 -33 -54 -33 -62 0 -7 -9 -25 -20 -39 -11 -14 -20
-32 -20 -41 0 -8 -9 -37 -19 -63 -29 -75 -71 -259 -71 -315 0 -27 -6 -64 -14
-81 -7 -18 -17 -45 -22 -62 -14 -44 -53 -42 -77 5 -42 79 9 505 69 580 6 8 15
26 19 40 4 14 13 32 20 40 7 8 16 26 20 40 4 14 13 32 19 40 7 8 43 67 81 130
38 63 101 158 141 210 71 94 115 181 128 252 14 79 108 147 246 177 95 21 170
90 200 185 28 89 24 146 -15 260 -41 118 -17 141 62 59z m-510 21 c3 -8 -3
-27 -14 -42 -10 -15 -27 -61 -38 -103 -18 -73 -18 -79 -1 -138 17 -60 45 -111
80 -146 23 -23 21 -29 -19 -59 -19 -15 -42 -41 -51 -57 -20 -39 -42 -34 -70
16 -25 43 -26 46 -55 117 -21 51 -27 222 -9 233 6 3 15 27 21 51 21 83 137
178 156 128z m489 -892 c24 -15 116 -147 155 -220 22 -43 47 -84 54 -92 22
-24 129 -241 143 -290 72 -251 97 -458 64 -537 -35 -81 -101 -27 -102 84 -1
26 -7 66 -15 88 -8 22 -15 54 -15 70 0 34 -33 149 -61 213 -10 23 -19 47 -19
53 0 17 -61 139 -70 139 -4 0 -13 12 -19 28 -11 26 -95 164 -152 249 -15 22
-41 53 -58 69 -44 41 -40 62 22 111 58 46 57 46 73 35z"/>
<path d="M1563 2003 c-32 -21 -29 -59 6 -94 36 -36 54 -36 80 -3 55 70 -15
147 -86 97z"/>
</g>
</svg>
