<?xml version="1.0" standalone="no"?>
<!DOCTYPE svg PUBLIC "-//W3C//DTD SVG 20010904//EN"
 "http://www.w3.org/TR/2001/REC-SVG-20010904/DTD/svg10.dtd">
<svg version="1.0" xmlns="http://www.w3.org/2000/svg"
 width="243.500000pt" height="238.280940pt" viewBox="0 0 243.500000 238.280940"
 preserveAspectRatio="xMidYMid meet">
<metadata>
Created by potrace 1.16, written by Peter Selinger 2001-2019
</metadata>
<g transform="translate(-56.500000,297.004156) scale(0.100000,-0.100000)"
fill="#000000" stroke="none">
<path d="M1559 2954 c-9 -11 -13 -41 -12 -91 2 -95 -14 -116 -81 -107 -57 8
-174 -18 -250 -56 -76 -37 -145 -110 -186 -196 -75 -159 -85 -398 -23 -571 8
-24 13 -50 11 -59 -3 -19 -140 -63 -198 -64 -19 0 -46 -7 -60 -15 -14 -8 -38
-15 -55 -15 -48 -2 -97 -24 -119 -54 l-21 -28 29 -25 c34 -29 49 -28 201 7
257 61 285 61 285 -2 0 -16 7 -42 16 -59 12 -23 16 -79 20 -257 4 -144 10
-243 19 -272 7 -25 16 -67 20 -95 3 -27 13 -60 21 -72 8 -12 14 -33 14 -46 0
-47 76 -180 134 -235 53 -50 57 -52 113 -52 32 0 69 6 83 13 58 29 110 163
125 322 4 39 15 104 26 147 10 42 19 90 19 106 0 16 6 35 14 41 8 7 17 23 20
37 4 14 16 39 28 55 21 28 22 28 49 12 16 -10 31 -29 34 -44 4 -15 13 -33 20
-39 8 -6 17 -33 21 -58 3 -26 12 -56 19 -67 7 -11 16 -59 20 -105 4 -47 12
-96 17 -110 6 -14 14 -55 19 -91 10 -82 47 -168 84 -197 48 -38 140 -31 197
14 58 44 138 162 138 202 0 9 7 30 15 46 8 15 15 37 15 47 0 10 9 45 20 76 16
47 23 111 34 338 20 379 29 417 96 400 14 -3 54 -10 89 -15 66 -10 205 -41
274 -62 52 -16 87 1 87 42 0 32 -39 65 -90 76 -14 2 -40 10 -59 16 -19 6 -60
14 -90 18 -31 4 -69 13 -86 19 -16 6 -46 13 -67 16 -46 7 -51 21 -33 103 34
151 37 181 32 287 -10 213 -103 389 -246 463 -66 35 -197 65 -252 59 -63 -8
-69 1 -69 99 0 120 12 114 -249 114 -188 0 -220 -2 -232 -16z m347 -119 c19
-25 20 -365 2 -383 -14 -14 -215 -17 -237 -3 -12 8 -15 46 -15 197 l-1 187 28
12 c48 20 206 13 223 -10z m-381 -209 c17 -12 19 -28 20 -144 0 -162 7 -175
97 -170 37 2 62 -2 70 -10 10 -10 13 -103 15 -411 1 -218 5 -405 8 -413 4 -11
-9 -32 -39 -63 -98 -99 -124 -179 -170 -510 -24 -171 -54 -222 -114 -191 -35
18 -78 80 -87 126 -4 19 -16 51 -26 70 -11 19 -19 47 -19 63 0 15 -7 44 -16
65 -13 29 -18 91 -23 292 -5 156 -12 266 -19 283 -7 16 -12 42 -12 59 0 18 -8
50 -18 72 -75 168 -97 270 -97 456 1 177 12 228 68 312 32 47 137 116 184 121
91 9 160 7 178 -7z m769 -16 c198 -100 259 -509 115 -782 -10 -20 -19 -44 -19
-52 0 -8 -8 -30 -19 -48 -22 -39 -34 -145 -32 -278 2 -124 -26 -424 -43 -458
-7 -15 -17 -45 -21 -67 -4 -22 -10 -44 -15 -50 -4 -5 -13 -26 -19 -46 -18 -56
-68 -109 -102 -109 -51 0 -76 48 -89 170 -19 181 -48 338 -66 361 -6 8 -16 29
-22 46 -13 39 -23 53 -86 115 -38 38 -47 53 -42 71 3 12 6 198 6 412 1 244 5
397 12 409 9 16 18 18 69 13 52 -6 61 -4 88 19 l31 26 0 123 c0 68 3 131 6
140 11 28 183 17 248 -15z"/>
</g>
</svg>
