<?xml version="1.0" standalone="no"?>
<!DOCTYPE svg PUBLIC "-//W3C//DTD SVG 20010904//EN"
 "http://www.w3.org/TR/2001/REC-SVG-20010904/DTD/svg10.dtd">
<svg version="1.0" xmlns="http://www.w3.org/2000/svg"
 width="244.935584pt" height="178.524831pt" viewBox="0 0 244.935584 178.524831"
 preserveAspectRatio="xMidYMid meet">
<metadata>
Created by potrace 1.16, written by Peter Selinger 2001-2019
</metadata>
<g transform="translate(-41.643515,256.000000) scale(0.100000,-0.100000)"
fill="#000000" stroke="none">
<path d="M705 2537 c-21 -12 -54 -42 -72 -66 l-33 -43 0 -610 c1 -451 -2 -614
-11 -624 -7 -8 -30 -14 -55 -14 -102 0 -130 -38 -113 -157 6 -42 17 -89 25
-104 19 -38 118 -122 157 -134 51 -15 1999 -13 2065 2 101 24 167 96 188 207
26 133 2 179 -96 182 -32 1 -64 5 -70 9 -8 5 -11 179 -9 624 l2 618 -28 41
c-15 23 -47 53 -70 67 l-44 25 -898 0 -898 0 -40 -23z m1821 -105 c32 -21 34
-51 34 -645 0 -518 -2 -596 -15 -607 -12 -10 -81 -11 -308 -7 -312 7 -346 4
-396 -38 -28 -24 -33 -25 -189 -25 -169 0 -206 7 -234 43 -17 22 -20 22 -344
25 -218 2 -332 6 -341 14 -16 13 -19 1172 -3 1213 5 13 19 25 32 28 40 8 1752
7 1764 -1z m-1175 -1402 l30 -35 258 0 258 0 32 33 c44 43 28 42 446 39 l370
-2 3 -40 c3 -36 -2 -45 -44 -88 l-48 -47 -1000 0 -1001 0 -37 23 c-79 48 -114
122 -67 143 11 5 189 9 395 9 l376 0 29 -35z"/>
<path d="M988 2254 c-111 -58 -176 -230 -124 -329 9 -16 16 -38 16 -47 0 -10
9 -32 20 -50 11 -18 20 -42 20 -53 0 -11 6 -30 14 -41 8 -11 17 -60 21 -114 4
-52 14 -110 21 -129 8 -18 14 -44 14 -57 0 -13 14 -39 30 -58 78 -88 159 -78
198 24 8 19 19 64 26 100 14 77 21 90 45 90 22 0 31 -27 31 -97 0 -139 96
-217 185 -149 59 46 85 110 101 260 13 113 37 212 62 250 26 40 41 187 27 256
-9 45 -85 125 -144 151 -52 23 -144 25 -181 4 -33 -19 -131 -19 -156 0 -33 25
-169 19 -226 -11z m222 -115 c73 -33 135 -36 172 -9 64 48 143 39 182 -20 31
-47 37 -159 11 -194 -8 -11 -15 -27 -15 -36 0 -8 -9 -32 -20 -53 -14 -26 -26
-81 -36 -165 -21 -167 -22 -172 -40 -172 -38 0 -54 20 -54 69 0 122 -51 187
-140 178 -77 -8 -103 -42 -119 -151 -21 -150 -71 -169 -71 -26 0 43 -6 95 -14
116 -7 22 -16 60 -20 86 -4 25 -13 51 -20 58 -8 6 -17 27 -21 47 -3 20 -14 47
-23 61 -27 42 -18 154 16 191 43 46 135 55 212 20z"/>
<path d="M1870 2098 c-27 -29 -25 -42 10 -71 29 -25 30 -25 247 -25 168 0 223
3 244 14 39 20 46 50 18 80 l-22 24 -238 0 c-232 0 -239 -1 -259 -22z"/>
<path d="M1870 1861 c-15 -29 -12 -45 11 -75 l21 -27 235 3 c234 3 235 3 254
27 21 26 18 58 -9 79 -12 9 -80 12 -259 12 -229 0 -243 -1 -253 -19z"/>
<path d="M1868 1623 c-28 -33 -28 -41 -2 -72 l26 -31 237 0 c224 0 239 1 256
20 18 20 15 61 -7 87 -18 23 -491 18 -510 -4z"/>
</g>
</svg>
