<?xml version="1.0" standalone="no"?>
<!DOCTYPE svg PUBLIC "-//W3C//DTD SVG 20010904//EN"
 "http://www.w3.org/TR/2001/REC-SVG-20010904/DTD/svg10.dtd">
<svg version="1.0" xmlns="http://www.w3.org/2000/svg"
 width="239.342749pt" height="237.951540pt" viewBox="0 0 239.342749 237.951540"
 preserveAspectRatio="xMidYMid meet">
<metadata>
Created by potrace 1.16, written by Peter Selinger 2001-2019
</metadata>
<g transform="translate(-46.588561,288.729244) scale(0.100000,-0.100000)"
fill="#000000" stroke="none">
<path d="M2255 2862 c-50 -15 -138 -51 -197 -80 -58 -29 -110 -52 -116 -52 -5
0 -21 -9 -35 -20 -50 -39 -98 -50 -135 -30 -39 21 -104 17 -142 -10 -42 -29
-67 -32 -158 -19 -65 9 -123 9 -232 1 -219 -15 -278 -49 -350 -195 -57 -117
-104 -105 -108 29 -4 138 -29 164 -156 164 -149 0 -163 -31 -160 -339 l3 -206
38 -32 c36 -31 43 -33 117 -33 111 0 146 25 147 108 2 100 21 131 71 119 22
-6 26 -14 32 -63 7 -62 41 -193 62 -239 7 -16 16 -43 20 -60 4 -16 13 -41 20
-55 34 -64 38 -141 41 -724 2 -528 4 -580 19 -597 23 -25 456 -29 490 -5 18
14 19 33 21 558 3 534 11 704 37 763 25 55 116 340 116 361 0 28 39 62 80 70
43 9 73 27 125 74 41 38 108 80 127 80 10 0 42 14 143 61 175 82 243 88 402
38 84 -27 110 -36 154 -56 43 -19 149 195 125 251 -13 31 -68 69 -121 84 -22
6 -60 17 -85 25 -196 63 -268 69 -395 29z m220 -97 c50 -8 215 -63 232 -77 22
-18 15 -57 -11 -70 -20 -9 -32 -7 -66 11 -22 11 -51 21 -64 21 -13 0 -40 7
-59 15 -46 19 -166 20 -204 1 -15 -8 -57 -26 -93 -41 -36 -14 -77 -33 -92 -41
-14 -8 -35 -14 -46 -14 -10 0 -40 -11 -66 -25 -26 -14 -52 -25 -58 -25 -6 0
-20 -7 -29 -16 -17 -15 -20 -15 -44 0 -14 9 -25 23 -25 30 0 15 62 56 84 56 7
0 25 9 39 20 14 11 32 20 40 20 8 0 26 9 40 20 14 11 32 20 41 20 8 0 23 8 33
18 37 37 219 94 278 87 17 -2 48 -7 70 -10z m-748 -213 c11 -15 24 -39 28 -52
4 -14 14 -33 22 -42 22 -25 8 -54 -38 -78 -44 -22 -69 -15 -69 19 0 9 -7 34
-15 56 -22 63 -19 92 13 108 37 20 36 20 59 -11z m-257 -17 c33 -25 90 -115
90 -144 0 -7 8 -35 17 -62 17 -47 17 -51 -7 -146 -13 -54 -29 -105 -36 -113
-7 -8 -16 -33 -20 -55 -4 -22 -13 -49 -20 -60 -7 -11 -16 -47 -20 -80 -8 -69
-37 -145 -56 -146 -96 -3 -271 -3 -278 1 -4 3 -11 21 -15 40 -4 19 -13 44 -20
55 -6 11 -15 43 -19 70 -4 28 -14 60 -22 72 -8 12 -14 32 -14 43 0 11 -9 38
-20 60 -11 22 -20 50 -20 62 0 13 -9 42 -20 66 -29 65 -16 89 52 95 118 11
282 66 321 108 22 24 27 38 27 82 0 80 22 94 80 52z m-802 -12 c15 -31 14
-347 -2 -368 -14 -19 -46 -16 -78 8 -15 12 -26 212 -19 345 2 30 85 42 99 15z
m586 11 c36 -14 -14 -83 -60 -84 -12 0 -33 -9 -47 -20 -14 -11 -32 -20 -40
-20 -8 0 -31 -11 -51 -25 -76 -51 -101 -19 -43 56 48 63 78 81 149 89 35 4 66
8 70 9 3 0 13 -2 22 -5z m171 -1409 l0 -500 -125 -6 c-69 -3 -133 -2 -142 3
-23 11 -32 947 -10 986 12 22 17 22 145 20 l132 -3 0 -500z"/>
</g>
</svg>
