<?xml version="1.0" standalone="no"?>
<!DOCTYPE svg PUBLIC "-//W3C//DTD SVG 20010904//EN"
 "http://www.w3.org/TR/2001/REC-SVG-20010904/DTD/svg10.dtd">
<svg version="1.0" xmlns="http://www.w3.org/2000/svg"
 width="221.434101pt" height="236.775143pt" viewBox="0 0 221.434101 236.775143"
 preserveAspectRatio="xMidYMid meet">
<metadata>
Created by potrace 1.16, written by Peter Selinger 2001-2019
</metadata>
<g transform="translate(-47.637785,276.874361) scale(0.100000,-0.100000)"
fill="#000000" stroke="none">
<path d="M904 2761 c-17 -5 -42 -15 -55 -24 -13 -10 -33 -17 -44 -17 -11 0
-29 -6 -40 -14 -11 -7 -33 -16 -50 -20 -16 -4 -48 -15 -70 -25 -22 -10 -47
-22 -55 -25 -36 -16 -60 -34 -86 -66 -28 -33 -29 -37 -27 -142 1 -69 7 -117
16 -135 8 -15 18 -50 21 -78 4 -27 14 -60 22 -72 8 -12 14 -33 14 -45 0 -13 9
-40 20 -61 11 -20 20 -42 20 -49 0 -21 53 -152 72 -177 10 -13 18 -27 18 -32
0 -4 20 -38 45 -76 98 -147 266 -308 385 -367 94 -47 90 -32 90 -325 0 -340
23 -416 157 -523 21 -16 40 -33 43 -37 3 -3 24 -12 48 -19 23 -6 60 -17 82
-24 40 -12 54 -11 179 21 53 14 150 88 186 143 59 90 65 126 65 422 0 149 4
276 8 282 4 6 41 29 84 52 80 45 235 176 304 258 61 74 214 341 214 374 0 9 5
21 11 27 13 13 58 184 100 378 18 87 11 151 -22 199 -17 26 -35 46 -41 46 -5
0 -21 9 -35 20 -14 11 -33 20 -42 20 -9 1 -34 9 -56 20 -22 11 -47 19 -55 20
-8 0 -35 10 -60 21 -25 12 -60 29 -77 37 -21 9 -65 15 -119 16 l-86 1 -38 -43
c-44 -49 -76 -132 -94 -242 -6 -41 -16 -82 -21 -89 -4 -8 -14 -39 -21 -70 -13
-61 -21 -85 -68 -209 -69 -185 -192 -271 -332 -232 -46 13 -144 99 -144 127 0
7 -8 21 -18 31 -25 25 -72 118 -72 143 0 11 -6 33 -14 47 -8 15 -19 54 -24 87
-55 322 -85 400 -165 439 -36 17 -117 20 -173 7z m137 -124 c14 -17 29 -50 32
-72 22 -143 86 -403 111 -450 9 -16 16 -38 16 -47 0 -9 4 -19 9 -22 5 -3 20
-29 34 -58 41 -82 139 -185 190 -199 23 -6 47 -15 54 -21 6 -5 47 -10 90 -11
162 -3 281 83 366 265 15 31 27 62 27 68 0 6 9 28 20 50 11 22 20 52 20 68 0
16 6 45 14 63 8 19 17 58 21 88 4 30 13 68 20 85 7 17 16 57 20 88 4 32 13 63
21 69 8 6 14 18 14 25 0 51 93 34 252 -47 20 -11 45 -19 55 -19 10 -1 36 -9
58 -20 22 -11 45 -19 52 -20 41 -1 41 -94 -1 -273 -14 -60 -26 -117 -26 -128
0 -10 -9 -33 -20 -51 -11 -18 -20 -41 -20 -50 0 -10 -9 -32 -20 -50 -11 -18
-20 -39 -20 -46 0 -15 -39 -73 -57 -85 -7 -4 -13 -16 -13 -26 0 -10 -8 -29
-19 -42 -10 -13 -21 -34 -25 -46 -9 -27 -147 -170 -227 -235 -60 -48 -169 -98
-259 -118 -30 -6 -80 -18 -111 -26 -213 -54 -537 45 -728 222 -75 69 -210 245
-225 292 -4 11 -13 26 -21 32 -8 7 -15 20 -15 29 0 15 -7 36 -64 184 -14 37
-26 81 -26 98 0 16 -7 43 -15 58 -8 16 -17 48 -20 72 -4 24 -11 63 -17 86 -15
60 1 94 58 121 24 12 55 22 67 22 12 0 36 9 52 20 17 11 40 20 51 20 12 0 27
7 34 15 7 8 27 17 46 21 18 3 38 12 45 20 22 26 72 17 100 -19z m462 -1417
c54 -6 110 -9 125 -6 81 18 186 25 199 15 16 -14 19 -441 2 -517 -22 -104
-138 -192 -252 -192 -49 0 -70 5 -90 20 -14 11 -29 20 -34 20 -17 0 -81 75
-107 125 -26 50 -26 51 -26 283 0 261 3 277 53 268 18 -3 76 -10 130 -16z"/>
<path d="M705 2434 c-11 -12 -14 -25 -10 -43 4 -14 13 -53 20 -87 7 -33 17
-69 23 -80 6 -10 14 -36 17 -56 3 -21 12 -44 20 -52 8 -8 15 -27 15 -41 0 -15
9 -38 20 -52 11 -14 20 -31 20 -38 0 -71 176 -302 301 -396 67 -50 214 -119
255 -119 16 0 47 -7 69 -15 51 -18 182 -19 237 -1 24 8 65 16 91 19 26 2 56
12 66 21 10 9 25 16 33 16 15 0 91 37 153 75 38 22 165 155 165 172 0 6 8 18
18 25 15 11 31 35 80 113 34 55 100 232 117 313 4 18 13 45 20 60 40 84 24
182 -30 182 -38 0 -52 -31 -95 -200 -12 -47 -27 -105 -33 -130 -7 -25 -20 -56
-29 -70 -10 -13 -18 -30 -18 -36 0 -25 -102 -171 -178 -255 -63 -71 -207 -159
-258 -159 -10 0 -37 -10 -61 -21 -57 -28 -272 -25 -316 4 -15 9 -37 17 -49 17
-23 1 -108 39 -163 75 -50 32 -189 177 -216 225 -14 25 -36 74 -48 110 -13 36
-31 81 -42 101 -10 20 -19 44 -19 53 0 9 -9 33 -20 53 -11 21 -20 48 -20 61 0
12 -6 33 -14 45 -8 12 -17 39 -20 59 -11 63 -63 90 -101 52z"/>
<path d="M1504 856 c-61 -61 -44 -145 38 -187 95 -48 184 61 136 166 -29 63
-121 74 -174 21z m126 -98 c0 -19 -16 -32 -29 -24 -5 4 -5 18 2 36 11 30 27
23 27 -12z"/>
</g>
</svg>
