<?xml version="1.0" standalone="no"?>
<!DOCTYPE svg PUBLIC "-//W3C//DTD SVG 20010904//EN"
 "http://www.w3.org/TR/2001/REC-SVG-20010904/DTD/svg10.dtd">
<svg version="1.0" xmlns="http://www.w3.org/2000/svg"
 width="190.033589pt" height="238.207401pt" viewBox="0 0 190.033589 238.207401"
 preserveAspectRatio="xMidYMid meet">
<metadata>
Created by potrace 1.16, written by Peter Selinger 2001-2019
</metadata>
<g transform="translate(-67.531970,285.074090) scale(0.100000,-0.100000)"
fill="#000000" stroke="none">
<path d="M1231 2823 c-133 -69 -149 -247 -28 -328 53 -36 56 -50 59 -360 2
-216 -7 -273 -57 -350 -17 -27 -47 -81 -66 -120 -18 -38 -48 -92 -67 -118 -18
-26 -37 -58 -43 -70 -6 -12 -21 -40 -34 -62 -13 -22 -33 -56 -43 -75 -10 -19
-28 -51 -40 -71 -11 -21 -35 -66 -53 -100 -18 -35 -47 -83 -66 -106 -18 -23
-33 -46 -33 -51 0 -5 -8 -20 -19 -33 -10 -13 -21 -35 -25 -49 -4 -14 -15 -41
-24 -60 -24 -54 -22 -162 6 -235 25 -66 54 -95 139 -140 l52 -26 747 1 748 1
35 21 c57 34 111 82 111 97 0 7 10 29 21 48 32 52 33 203 1 256 -12 21 -22 44
-22 51 0 7 -9 21 -20 31 -11 10 -20 26 -20 35 0 10 -6 23 -14 29 -8 7 -31 45
-51 84 -39 80 -54 105 -130 222 -29 44 -64 105 -79 135 -28 59 -33 67 -86 150
-19 30 -41 66 -48 80 -7 14 -23 43 -37 65 -62 101 -60 88 -63 387 -3 307 -10
275 65 333 73 58 100 195 49 256 -13 15 -26 32 -28 36 -1 5 -21 20 -43 33
l-40 25 -350 3 -350 3 -54 -28z m757 -115 c22 -22 14 -86 -13 -113 -28 -29
-39 -29 -440 -25 -247 2 -260 5 -284 58 -16 33 -14 49 9 72 19 19 33 20 368
20 257 0 351 -3 360 -12z m-131 -259 c10 -9 13 -72 13 -308 l0 -296 30 -64
c17 -35 44 -84 60 -108 17 -24 30 -48 30 -52 0 -4 9 -16 20 -26 11 -10 20 -24
20 -32 0 -7 9 -21 20 -30 11 -10 20 -23 20 -29 0 -7 11 -26 25 -42 49 -59 27
-96 -81 -133 -143 -49 -281 -29 -454 66 -14 8 -32 16 -40 19 -8 3 -22 10 -30
14 -46 27 -125 46 -205 49 -49 3 -93 8 -98 12 -4 4 9 34 29 67 20 32 47 82 61
109 14 28 36 68 49 90 43 73 44 82 49 383 5 275 6 296 24 308 13 10 71 14 202
17 205 4 236 2 256 -14z m-441 -1109 c33 -26 170 -89 276 -125 126 -43 272
-35 390 23 48 23 92 42 97 42 20 0 107 -134 171 -265 11 -22 34 -65 51 -95 43
-75 63 -144 49 -169 -5 -11 -10 -27 -10 -37 0 -30 -53 -102 -87 -118 -49 -24
-1362 -24 -1440 -1 -92 27 -139 118 -113 219 12 47 43 117 62 141 5 6 23 33
40 60 18 28 35 52 39 55 4 3 32 55 64 115 70 133 88 158 123 167 53 13 268 4
288 -12z"/>
</g>
</svg>
