<?xml version="1.0" standalone="no"?>
<!DOCTYPE svg PUBLIC "-//W3C//DTD SVG 20010904//EN"
 "http://www.w3.org/TR/2001/REC-SVG-20010904/DTD/svg10.dtd">
<svg version="1.0" xmlns="http://www.w3.org/2000/svg"
 width="189.145595pt" height="237.967300pt" viewBox="0 0 189.145595 237.967300"
 preserveAspectRatio="xMidYMid meet">
<metadata>
Created by potrace 1.16, written by Peter Selinger 2001-2019
</metadata>
<g transform="translate(-74.500000,296.930126) scale(0.100000,-0.100000)"
fill="#000000" stroke="none">
<path d="M1345 2962 c-83 -11 -143 -82 -150 -178 -7 -90 14 -128 110 -200 l28
-20 -2 -285 -2 -284 -32 -63 c-17 -35 -40 -70 -49 -79 -10 -9 -18 -21 -18 -27
0 -6 -15 -35 -34 -63 -39 -59 -136 -230 -136 -239 0 -3 -15 -29 -34 -57 -31
-48 -53 -85 -113 -185 -30 -49 -48 -82 -113 -204 l-55 -103 0 -92 c1 -128 30
-185 124 -245 l66 -43 747 -3 747 -2 58 26 c76 36 109 76 133 163 38 135 12
242 -98 404 -16 24 -47 75 -68 113 -21 38 -46 83 -56 99 -9 17 -24 44 -32 62
-9 17 -20 34 -25 37 -5 3 -12 17 -15 31 -3 13 -31 61 -61 104 -54 80 -88 137
-132 221 -13 25 -38 70 -55 100 l-32 55 -4 243 c-5 295 -2 326 37 342 110 45
146 225 63 313 -66 70 -54 68 -434 65 -189 -2 -352 -4 -363 -6z m706 -132 c29
-16 25 -71 -7 -109 l-26 -31 -324 0 -325 0 -24 25 c-31 30 -33 77 -5 105 19
19 33 20 356 20 212 0 342 -4 355 -10z m-137 -266 c3 -9 6 -141 6 -294 l0
-278 26 -49 c14 -26 36 -66 48 -88 13 -22 40 -71 60 -110 20 -38 42 -78 49
-87 17 -25 -2 -51 -41 -59 -18 -4 -38 -12 -46 -19 -18 -14 -145 -9 -191 7
-205 74 -332 103 -443 103 -99 0 -103 18 -23 115 13 17 39 61 58 100 l33 69 0
291 c0 213 3 294 12 303 20 20 444 17 452 -4z m-384 -1004 c30 -6 73 -20 96
-31 22 -10 50 -19 63 -19 12 0 33 -7 47 -16 20 -14 54 -17 182 -18 148 -1 159
0 195 23 67 41 91 21 181 -159 52 -103 63 -123 126 -220 77 -119 82 -129 95
-185 25 -111 -26 -203 -125 -224 -67 -14 -1315 -15 -1391 -1 -66 13 -102 45
-123 110 -24 74 -14 124 48 230 14 25 31 56 38 70 6 14 18 32 25 40 7 9 26 43
44 75 17 33 46 83 64 110 18 28 43 70 56 95 13 25 32 59 43 75 12 17 22 32 24
34 16 27 203 34 312 11z"/>
<path d="M1356 1420 c-59 -38 -89 -141 -61 -214 62 -162 325 -118 325 54 0
117 -62 181 -174 179 -42 0 -70 -6 -90 -19z m134 -120 c26 -26 25 -34 -6 -59
-35 -27 -50 -26 -70 4 -37 56 28 103 76 55z"/>
<path d="M1920 1202 c-66 -18 -113 -76 -124 -154 -22 -149 146 -242 276 -151
154 106 30 355 -152 305z m87 -134 c29 -27 29 -43 -2 -73 -30 -31 -48 -31 -75
-3 -55 59 18 132 77 76z"/>
</g>
</svg>
