<?xml version="1.0" standalone="no"?>
<!DOCTYPE svg PUBLIC "-//W3C//DTD SVG 20010904//EN"
 "http://www.w3.org/TR/2001/REC-SVG-20010904/DTD/svg10.dtd">
<svg version="1.0" xmlns="http://www.w3.org/2000/svg"
 width="242.312002pt" height="203.400293pt" viewBox="0 0 242.312002 203.400293"
 preserveAspectRatio="xMidYMid meet">
<metadata>
Created by potrace 1.16, written by Peter Selinger 2001-2019
</metadata>
<g transform="translate(-43.500000,270.900293) scale(0.100000,-0.100000)"
fill="#000000" stroke="none">
<path d="M910 2705 c-8 -2 -51 -9 -95 -16 -46 -7 -90 -20 -104 -31 -13 -10
-29 -18 -36 -18 -34 0 -205 -201 -205 -240 0 -7 -8 -22 -18 -33 -16 -18 -17
-66 -17 -706 l0 -686 27 -55 c56 -112 109 -166 218 -222 l45 -23 595 0 595 0
45 25 c94 51 169 124 170 164 0 5 7 17 15 26 36 40 47 203 43 640 -3 228 -8
423 -12 432 -14 31 41 44 75 18 16 -11 32 -20 37 -20 16 0 98 -95 121 -140 49
-95 36 -252 -34 -415 -61 -143 -54 -348 17 -461 38 -60 123 -132 171 -145 154
-41 349 83 281 179 -22 31 -49 27 -85 -12 -46 -51 -118 -72 -172 -51 -45 18
-107 77 -107 102 0 8 -9 26 -20 40 -24 31 -22 190 3 240 8 15 18 46 21 67 4
21 14 48 21 60 7 12 16 39 20 61 4 22 13 57 21 78 18 49 18 196 0 239 -48 114
-68 145 -121 193 -28 25 -53 45 -56 45 -3 0 -18 11 -33 25 -15 14 -35 25 -44
25 -10 0 -26 6 -37 14 -11 7 -36 17 -55 21 -19 4 -47 14 -62 21 -19 10 -87 14
-259 16 -250 3 -275 9 -196 47 85 41 148 53 312 60 88 3 166 10 174 15 10 6
12 25 9 75 -8 106 -66 195 -182 280 -88 65 -148 71 -646 70 -234 -1 -432 -3
-440 -4z m935 -124 c3 -5 22 -15 43 -22 42 -14 71 -36 126 -97 50 -55 41 -67
-62 -75 -98 -6 -199 -25 -234 -43 -14 -8 -34 -14 -44 -14 -9 0 -60 -28 -113
-63 -179 -118 -120 -107 -583 -107 -449 0 -445 -1 -435 61 10 62 27 118 49
161 28 54 151 178 175 178 11 0 28 7 39 15 22 17 1028 23 1039 6z m212 -553
c10 -8 13 -110 13 -507 l0 -496 -25 -66 c-31 -79 -83 -132 -158 -161 -73 -28
-1036 -31 -1131 -4 -58 17 -156 93 -156 121 0 7 -6 18 -14 24 -30 25 -38 143
-41 606 -3 371 -1 464 10 481 13 20 14 20 751 17 511 -3 742 -7 751 -15z"/>
<path d="M1258 1905 c-3 -4 -33 -12 -65 -19 -126 -26 -287 -162 -332 -281 -92
-244 -3 -503 213 -623 172 -96 445 -70 575 56 45 43 105 128 116 163 4 13 15
32 24 42 24 28 23 271 0 307 -10 14 -20 35 -24 48 -22 76 -186 252 -233 252
-8 0 -23 7 -31 15 -25 22 -227 56 -243 40z m165 -129 c12 -7 34 -16 49 -20 56
-13 207 -183 208 -233 0 -13 7 -40 15 -60 12 -29 13 -49 6 -83 -20 -94 -30
-124 -45 -132 -9 -5 -16 -15 -16 -22 0 -15 -30 -53 -80 -102 -104 -103 -275
-121 -426 -45 -47 23 -164 145 -164 170 0 9 -6 26 -14 37 -43 61 -28 220 31
321 23 40 101 113 121 113 5 0 15 7 22 16 46 54 230 79 293 40z"/>
<path d="M1230 1665 c-7 -8 -18 -15 -25 -15 -17 0 -86 -56 -101 -83 -72 -121
-69 -231 7 -326 23 -28 45 -51 51 -51 5 0 21 -9 35 -20 49 -38 93 -21 93 36 0
26 -7 37 -32 55 -18 12 -48 37 -65 56 -97 101 20 294 150 249 61 -21 117 -86
132 -154 7 -36 43 -66 68 -56 32 12 47 74 29 119 -33 82 -84 143 -155 183 -47
27 -167 32 -187 7z"/>
</g>
</svg>
