<?xml version="1.0" standalone="no"?>
<!DOCTYPE svg PUBLIC "-//W3C//DTD SVG 20010904//EN"
 "http://www.w3.org/TR/2001/REC-SVG-20010904/DTD/svg10.dtd">
<svg version="1.0" xmlns="http://www.w3.org/2000/svg"
 width="244.295447pt" height="212.000000pt" viewBox="0 0 244.295447 212.000000"
 preserveAspectRatio="xMidYMid meet">
<metadata>
Created by potrace 1.16, written by Peter Selinger 2001-2019
</metadata>
<g transform="translate(-43.000000,276.000000) scale(0.100000,-0.100000)"
fill="#000000" stroke="none">
<path d="M540 2740 c-14 -11 -30 -20 -37 -20 -6 0 -25 -24 -42 -54 l-31 -53 0
-913 0 -913 25 -43 c14 -23 45 -56 71 -73 l45 -31 1073 0 1073 0 45 25 c117
66 111 6 111 1038 0 829 -2 881 -19 920 -27 62 -49 87 -98 113 l-45 24 -1073
0 c-1050 0 -1074 -1 -1098 -20z m1250 -81 c14 -2 224 1 468 5 l443 8 39 -42
c61 -66 66 -219 7 -221 -134 -3 -414 4 -421 11 -6 6 -9 50 -7 99 1 59 -2 91
-9 96 -7 4 -118 8 -248 10 -131 1 -245 6 -255 10 -32 13 -46 -22 -47 -115 0
-47 -4 -90 -8 -97 -11 -17 -1209 -20 -1226 -3 -7 7 -10 47 -8 108 2 88 4 99
26 118 l25 22 598 -3 c329 -1 609 -4 623 -6z m-14 -347 c6 -4 14 -31 17 -60 8
-69 34 -113 80 -134 48 -23 54 -39 55 -131 0 -87 -10 -101 -53 -73 -13 9 -35
16 -47 16 -13 0 -33 6 -44 14 -48 34 -347 38 -434 6 -14 -5 -62 -14 -107 -19
-112 -14 -159 -39 -167 -88 -12 -77 0 -831 14 -848 7 -8 49 -41 94 -72 44 -31
83 -59 86 -63 30 -37 108 -70 167 -70 65 0 227 24 270 41 13 5 39 9 57 9 17 0
49 9 71 20 22 11 56 20 77 20 21 0 55 9 75 20 21 11 53 20 71 20 19 0 46 6 60
14 15 8 39 17 54 21 56 11 57 15 59 440 1 315 -1 390 -12 394 -45 15 -59 48
-59 143 0 120 11 157 61 204 50 48 69 83 69 127 0 56 3 57 246 57 189 0 225
-2 238 -16 14 -14 16 -95 16 -740 l0 -725 -22 -38 c-48 -84 50 -77 -1128 -76
l-1045 0 -32 24 c-18 13 -34 30 -37 38 -4 9 -9 1364 -6 1521 0 13 1235 18
1256 4z m-4 -426 c131 -43 152 -56 160 -101 16 -94 29 -138 48 -162 12 -15 20
-41 20 -63 0 -24 5 -40 15 -44 19 -7 74 50 80 84 22 110 31 135 51 135 18 0
19 -8 17 -220 -2 -216 -2 -220 -25 -237 -28 -21 -156 -64 -223 -73 -28 -4 -62
-14 -77 -21 -15 -8 -42 -14 -61 -14 -19 0 -52 -6 -73 -14 -22 -7 -68 -16 -104
-20 -36 -4 -82 -12 -102 -18 -63 -19 -179 35 -277 128 -20 19 -43 36 -52 39
-34 11 -39 51 -39 304 0 187 3 251 13 259 6 5 57 17 112 25 55 9 116 20 135
25 77 21 303 14 382 -12z"/>
<path d="M636 2564 c-10 -26 -7 -51 9 -64 32 -26 63 38 33 68 -17 17 -35 15
-42 -4z"/>
<path d="M762 2564 c-27 -18 -26 -51 1 -68 36 -23 75 35 47 70 -16 18 -20 18
-48 -2z"/>
<path d="M908 2569 c-24 -13 -23 -42 2 -64 28 -25 50 -13 50 29 0 41 -19 54
-52 35z"/>
<path d="M1040 2560 c-39 -39 9 -92 51 -54 24 21 24 36 1 57 -24 22 -28 21
-52 -3z"/>
<path d="M1750 1830 c-11 -7 -12 -12 -3 -21 14 -14 46 -4 41 13 -6 16 -20 19
-38 8z"/>
<path d="M1806 1621 c-9 -14 5 -42 18 -38 18 6 20 47 2 47 -8 0 -17 -4 -20 -9z"/>
<path d="M1840 1515 c-14 -17 2 -45 25 -45 18 0 27 30 14 46 -15 18 -24 18
-39 -1z"/>
<path d="M1914 1435 c-9 -23 3 -45 26 -45 25 0 28 45 4 54 -22 8 -24 8 -30 -9z"/>
<path d="M2040 1420 c0 -23 35 -28 43 -6 7 18 -1 26 -25 26 -11 0 -18 -7 -18
-20z"/>
</g>
</svg>
