<?xml version="1.0" standalone="no"?>
<!DOCTYPE svg PUBLIC "-//W3C//DTD SVG 20010904//EN"
 "http://www.w3.org/TR/2001/REC-SVG-20010904/DTD/svg10.dtd">
<svg version="1.0" xmlns="http://www.w3.org/2000/svg"
 width="245.092203pt" height="179.233432pt" viewBox="0 0 245.092203 179.233432"
 preserveAspectRatio="xMidYMid meet">
<metadata>
Created by potrace 1.16, written by Peter Selinger 2001-2019
</metadata>
<g transform="translate(-44.047412,260.000000) scale(0.100000,-0.100000)"
fill="#000000" stroke="none">
<path d="M745 2577 c-22 -12 -53 -43 -70 -67 l-30 -45 -3 -614 c-2 -424 -6
-619 -13 -628 -7 -8 -32 -12 -69 -11 -102 3 -130 -36 -116 -164 12 -118 78
-190 205 -223 96 -25 1965 -22 2048 3 77 23 176 118 186 178 26 158 -10 226
-112 209 -87 -15 -80 -67 -83 638 l-3 623 -25 38 c-14 21 -46 48 -72 62 l-47
24 -878 0 -878 0 -40 -23z m1773 -103 c53 -11 53 -10 59 -639 5 -555 4 -581
-14 -596 -15 -15 -60 -18 -327 -22 -259 -5 -312 -9 -330 -22 -90 -66 -68 -61
-250 -60 l-167 1 -35 37 c-33 35 -39 37 -97 37 -276 0 -580 9 -586 18 -5 8 -7
1112 -2 1210 1 13 10 26 24 32 24 10 1676 14 1725 4z m-1146 -1404 l52 -41
254 3 253 3 28 33 27 34 377 1 c333 1 379 -1 393 -15 25 -25 2 -80 -50 -123
l-43 -35 -1002 0 -1002 0 -29 22 c-72 53 -97 129 -50 146 11 4 181 8 380 10
l361 3 51 -41z"/>
<path d="M1415 2322 c-39 -8 -104 -54 -142 -100 l-38 -46 0 -121 c0 -118 1
-121 38 -199 28 -58 41 -100 47 -158 28 -242 56 -313 135 -343 60 -23 94 -10
127 51 15 27 28 62 28 77 1 111 62 209 75 120 30 -211 54 -253 140 -253 100 0
136 55 160 245 25 197 22 185 87 320 17 34 19 56 16 145 -4 110 -11 130 -74
198 -59 64 -213 91 -289 52 -46 -23 -102 -26 -124 -6 -16 13 -146 26 -186 18z
m145 -120 c19 -6 56 -19 81 -28 45 -17 47 -17 97 4 67 29 150 30 185 2 26 -21
57 -95 57 -137 0 -28 -28 -119 -46 -148 -32 -54 -64 -220 -64 -337 0 -50 -16
-70 -51 -61 -15 4 -19 15 -19 47 0 81 -30 174 -67 206 -97 86 -215 -12 -214
-178 0 -57 -3 -74 -15 -79 -34 -13 -46 21 -58 164 -7 76 -17 147 -22 158 -83
160 -104 245 -74 303 27 51 57 82 80 82 10 0 22 5 26 11 7 11 45 8 104 -9z"/>
</g>
</svg>
