<?xml version="1.0" standalone="no"?>
<!DOCTYPE svg PUBLIC "-//W3C//DTD SVG 20010904//EN"
 "http://www.w3.org/TR/2001/REC-SVG-20010904/DTD/svg10.dtd">
<svg version="1.0" xmlns="http://www.w3.org/2000/svg"
 width="289.615677pt" height="340.199927pt" viewBox="0 0 289.615677 340.199927"
 preserveAspectRatio="xMidYMid meet">
<metadata>
Created by potrace 1.16, written by Peter Selinger 2001-2019
</metadata>
<g transform="translate(-66.000000,380.277558) scale(0.100000,-0.100000)"
fill="#000000" stroke="none">
<path d="M665 3790 c-9 -15 0 -26 55 -61 53 -34 60 -48 35 -69 -13 -10 -19
-10 -33 4 -27 23 -62 21 -62 -4 0 -24 54 -60 91 -60 30 0 79 47 79 76 -1 23
-50 80 -78 88 -11 4 -26 13 -32 21 -14 17 -46 20 -55 5z"/>
<path d="M897 3788 c-24 -13 -25 -166 -2 -174 32 -13 45 15 45 96 0 81 -9 98
-43 78z"/>
<path d="M1007 3794 c-15 -15 -8 -161 8 -174 27 -23 36 2 33 91 -3 81 -16 108
-41 83z"/>
<path d="M1139 3790 c-22 -13 -24 -144 -2 -165 33 -33 41 -19 46 80 5 85 -7
107 -44 85z"/>
<path d="M1240 3781 c0 -20 43 -61 64 -61 29 0 49 -26 37 -48 -15 -28 -29 -28
-57 -1 -25 23 -44 18 -44 -11 0 -26 47 -60 82 -60 36 0 88 48 88 82 0 28 -59
88 -87 88 -11 0 -26 7 -33 15 -18 22 -50 19 -50 -4z"/>
<path d="M1569 3787 c-11 -10 -13 -33 -9 -93 5 -72 7 -79 27 -82 28 -4 35 20
31 113 -3 73 -19 93 -49 62z"/>
<path d="M1684 3787 c-3 -8 -4 -49 -2 -93 3 -73 5 -79 26 -82 19 -3 22 2 24
30 4 84 3 134 -6 146 -11 16 -35 15 -42 -1z"/>
<path d="M1793 3785 c-23 -61 26 -167 84 -181 29 -8 89 29 97 59 11 43 6 114
-9 127 -28 23 -45 4 -45 -50 0 -58 -14 -92 -34 -84 -21 8 -39 60 -32 90 11 43
-45 79 -61 39z"/>
<path d="M2067 3794 c-4 -4 -7 -38 -7 -76 0 -60 3 -72 25 -93 27 -28 33 -29
55 -15 13 8 13 12 0 32 -8 13 -17 52 -20 88 -4 56 -8 65 -25 68 -12 2 -24 0
-28 -4z"/>
<path d="M2197 3794 c-10 -11 -8 -129 3 -158 12 -32 38 -34 45 -3 3 12 5 54 3
92 -3 62 -5 70 -23 73 -12 2 -24 0 -28 -4z"/>
<path d="M2323 3788 c-19 -24 -10 -159 10 -172 29 -18 47 17 46 88 -2 85 -27
121 -56 84z"/>
<path d="M2576 3785 c-27 -28 -11 -114 30 -152 18 -18 39 -33 46 -33 27 0 78
40 78 60 0 29 -27 36 -51 14 -29 -26 -49 2 -49 67 0 33 -4 49 -16 53 -21 8
-20 8 -38 -9z"/>
<path d="M2910 3785 c-7 -8 -28 -15 -46 -15 -23 0 -34 -5 -34 -15 0 -8 -11
-22 -25 -31 -34 -22 -32 -58 4 -95 28 -28 33 -29 88 -23 32 4 60 9 63 11 7 6
10 144 4 166 -6 21 -37 22 -54 2z m-4 -80 c8 -19 -13 -45 -36 -45 -23 0 -34
28 -19 46 15 19 48 18 55 -1z"/>
<path d="M3033 3788 c-18 -31 -3 -142 23 -165 28 -26 33 -27 54 -13 13 8 13
13 -2 41 -10 17 -18 50 -18 74 0 24 -3 50 -6 59 -7 19 -40 21 -51 4z"/>
<path d="M3173 3793 c-20 -7 -17 -147 2 -167 9 -8 22 -13 30 -10 22 9 21 169
-1 178 -9 3 -16 6 -17 5 -1 0 -8 -3 -14 -6z"/>
<path d="M3296 3787 c-32 -24 -18 -123 23 -159 37 -33 55 -35 99 -8 36 22 46
42 55 112 8 56 -14 79 -49 53 -17 -12 -17 -17 -7 -45 10 -27 9 -34 -12 -57
-33 -39 -55 -19 -55 52 0 39 -4 54 -16 59 -20 8 -17 8 -38 -7z"/>
<path d="M2458 3738 c-9 -82 0 -120 26 -116 32 5 33 161 0 166 -19 3 -22 -3
-26 -50z"/>
<path d="M3525 3777 c-13 -32 -1 -152 15 -152 20 0 22 156 3 162 -7 3 -15 -2
-18 -10z"/>
<path d="M1504 3131 c-44 -27 -43 -18 -45 -217 -2 -214 -5 -224 -56 -224 -91
0 -123 -43 -123 -163 0 -95 -8 -107 -74 -107 -107 0 -162 -29 -224 -117 -22
-32 -22 -34 -22 -460 0 -469 -2 -456 61 -530 58 -69 82 -75 264 -71 130 2 166
0 170 -10 3 -8 5 -105 5 -217 0 -225 5 -248 55 -265 21 -7 256 -9 702 -8 642
3 672 4 692 22 20 18 21 30 23 249 l3 230 184 -2 183 -2 49 50 c28 30 52 65
58 88 13 47 14 839 2 901 -17 84 -115 154 -219 156 -80 2 -81 4 -75 90 5 65 3
79 -17 110 -24 40 -76 68 -110 59 -27 -7 -60 23 -60 54 0 51 -52 120 -194 261
l-144 142 -529 0 c-503 0 -530 -1 -559 -19z m1016 -89 c14 -13 20 -30 21 -67
6 -241 10 -247 184 -255 l110 -5 3 -139 c1 -77 -1 -143 -6 -148 -17 -17 -1243
-10 -1268 7 -23 15 -23 16 -24 300 0 274 1 286 20 305 20 20 31 21 480 20 415
-1 462 -3 480 -18z m167 -114 c16 -18 41 -44 57 -59 48 -45 6 -83 -67 -62 -30
8 -32 12 -40 68 -11 93 3 108 50 53z m333 -348 c14 -26 13 -143 -2 -158 -19
-19 -66 -15 -78 7 -20 39 -13 158 12 175 24 17 51 8 68 -24z m-1580 11 c14
-27 13 -144 -2 -159 -21 -21 -58 -14 -68 14 -32 82 32 214 70 145z m1854 -286
l26 -24 3 -353 c3 -564 5 -541 -41 -575 -31 -23 -142 -36 -159 -19 -4 4 -8
118 -8 253 0 230 -2 246 -20 259 -24 18 -1731 21 -1783 3 l-31 -11 -3 -249
c-2 -193 -6 -252 -16 -258 -23 -14 -115 1 -145 23 -69 50 -67 40 -67 492 1
407 1 409 23 436 12 15 33 31 47 37 16 6 402 10 1086 10 l1062 0 26 -24z
m-282 -553 c13 -11 16 -44 14 -223 -1 -221 -3 -228 -48 -229 -42 0 -48 23 -48
199 0 116 -4 171 -12 179 -17 17 -1429 17 -1446 0 -8 -8 -12 -54 -12 -142 0
-193 -7 -236 -36 -236 -13 0 -33 9 -44 20 -20 20 -21 32 -19 219 1 110 5 204
8 210 10 15 140 17 932 17 551 -1 699 -4 711 -14z m-198 -155 c14 -11 16 -54
17 -379 0 -202 -2 -372 -6 -378 -9 -14 -1229 -14 -1256 0 -18 10 -19 25 -19
374 0 292 3 366 13 375 10 7 157 12 483 13 258 2 533 4 611 5 95 1 146 -2 157
-10z"/>
<path d="M3060 2234 c-54 -36 -63 -73 -33 -125 50 -85 183 -49 183 50 0 74
-87 117 -150 75z m85 -65 c14 -42 -45 -66 -61 -24 -10 25 4 45 30 45 16 0 27
-7 31 -21z"/>
<path d="M2744 2196 c-15 -12 -17 -18 -8 -33 9 -15 25 -18 100 -18 86 0 89 1
92 24 2 13 -2 28 -10 32 -23 15 -152 11 -174 -5z"/>
<path d="M2055 1495 c-14 -13 -25 -35 -25 -47 0 -13 -6 -32 -13 -43 -8 -11
-19 -38 -25 -60 -18 -67 -43 -138 -60 -171 -34 -68 38 -95 77 -29 19 33 23 35
76 35 53 0 57 -1 67 -30 11 -34 39 -53 62 -44 21 8 20 42 -3 112 -11 31 -27
91 -36 132 -22 96 -32 123 -56 149 -25 27 -34 26 -64 -4z m44 -158 c41 -50 10
-114 -38 -81 -18 13 -21 22 -15 47 10 51 29 62 53 34z"/>
<path d="M2318 1509 c-16 -9 -17 -28 -14 -194 3 -190 8 -215 45 -215 37 0 41
19 41 206 0 210 -10 239 -72 203z"/>
<path d="M1647 1497 c-6 -15 2 -357 8 -375 3 -8 17 -12 37 -10 32 3 33 4 36
58 4 61 11 70 61 70 125 0 196 190 94 250 -41 24 -227 30 -236 7z m181 -79
c20 -20 14 -65 -10 -82 -46 -33 -88 -14 -88 39 0 17 5 36 12 43 7 7 26 12 43
12 17 0 36 -5 43 -12z"/>
<path d="M2470 1491 c-14 -27 -13 -309 1 -351 l12 -32 79 4 80 3 44 47 44 47
0 91 c0 108 -15 149 -69 186 -48 33 -174 36 -191 5z m161 -77 c9 -11 14 -46
14 -105 0 -87 -1 -90 -30 -114 -18 -15 -40 -24 -55 -22 -25 2 -25 3 -26 107
-1 121 10 150 55 150 16 0 35 -7 42 -16z"/>
<path d="M1636 1004 c-21 -21 -20 -51 2 -62 17 -9 1076 -6 1100 3 19 7 14 53
-7 65 -36 19 -1076 13 -1095 -6z"/>
<path d="M1877 644 c-10 -10 -9 -52 2 -58 20 -13 42 7 39 33 -3 25 -26 39 -41
25z"/>
<path d="M1625 617 c-3 -7 -4 -58 -3 -113 3 -94 4 -99 26 -102 18 -3 26 4 37
32 20 47 51 49 63 4 5 -22 15 -34 29 -36 26 -4 33 14 26 66 -6 44 -26 58 -88
64 -28 3 -30 7 -35 48 -5 46 -42 71 -55 37z"/>
<path d="M2003 622 c-7 -5 -13 -44 -16 -100 -4 -99 6 -131 37 -119 13 5 16 23
16 105 0 100 -10 130 -37 114z"/>
<path d="M2104 617 c-2 -7 -3 -58 -2 -113 3 -98 3 -99 28 -99 25 0 25 1 28 90
4 110 -2 135 -29 135 -11 0 -22 -6 -25 -13z"/>
<path d="M2224 595 c-8 -21 4 -35 31 -35 26 0 39 22 22 39 -16 16 -47 14 -53
-4z"/>
<path d="M2393 523 c-52 -5 -61 -17 -55 -70 6 -61 56 -69 64 -10 4 30 51 31
56 2 8 -47 62 -51 62 -4 0 42 -47 95 -78 87 -4 -1 -26 -3 -49 -5z"/>
<path d="M2600 513 c-24 -17 -38 -92 -19 -104 17 -10 38 2 53 32 16 33 46 30
66 -6 18 -33 54 -45 63 -21 4 9 4 37 0 64 l-5 49 -70 -1 c-39 0 -77 -6 -88
-13z"/>
<path d="M1864 506 c-3 -7 -4 -33 -2 -57 3 -39 6 -44 28 -44 22 0 26 5 30 40
3 22 4 48 2 58 -5 21 -50 23 -58 3z"/>
<path d="M2227 513 c-10 -18 -3 -93 9 -104 25 -21 45 8 42 60 -3 38 -7 47 -25
49 -11 2 -23 0 -26 -5z"/>
</g>
</svg>
