<?xml version="1.0" standalone="no"?>
<!DOCTYPE svg PUBLIC "-//W3C//DTD SVG 20010904//EN"
 "http://www.w3.org/TR/2001/REC-SVG-20010904/DTD/svg10.dtd">
<svg version="1.0" xmlns="http://www.w3.org/2000/svg"
 width="238.593167pt" height="201.556072pt" viewBox="0 0 238.593167 201.556072"
 preserveAspectRatio="xMidYMid meet">
<metadata>
Created by potrace 1.16, written by Peter Selinger 2001-2019
</metadata>
<g transform="translate(-46.491365,268.504380) scale(0.100000,-0.100000)"
fill="#000000" stroke="none">
<path d="M1516 2671 c-42 -28 -46 -42 -46 -148 0 -87 -3 -104 -17 -111 -10 -5
-196 -10 -413 -10 -217 -1 -411 -1 -431 -1 -41 -1 -88 -35 -122 -90 l-22 -36
0 -740 c0 -836 -6 -774 80 -836 l40 -29 1069 0 1069 -1 37 26 c20 14 47 40 61
58 l24 32 3 737 3 738 -26 44 c-14 24 -44 56 -66 72 l-41 28 -430 1 c-329 0
-430 3 -436 12 -5 7 -7 54 -6 105 3 111 1 121 -33 143 -35 23 -264 28 -297 6z
m214 -121 c17 -32 13 -292 -6 -318 -22 -32 -102 -32 -132 1 -30 32 -30 284 0
322 32 41 115 38 138 -5z m-290 -263 c22 -11 26 -21 31 -81 8 -95 10 -96 184
-96 175 0 195 10 195 104 0 45 4 57 20 66 22 12 794 15 825 4 35 -14 38 -51
36 -494 0 -239 3 -541 7 -670 7 -194 6 -243 -6 -279 -26 -78 42 -74 -1071 -67
-542 4 -996 6 -1009 6 -13 0 -37 13 -53 29 l-29 29 0 699 0 700 26 24 26 24
381 5 c210 3 389 6 397 8 8 1 26 -4 40 -11z"/>
<path d="M1096 1923 c-54 -6 -126 -67 -161 -138 -37 -73 -32 -156 16 -236 28
-49 30 -54 14 -64 -126 -75 -188 -138 -213 -215 -16 -49 -18 -220 -3 -248 l12
-22 384 0 384 0 21 27 c19 25 21 38 18 118 -6 149 -73 256 -193 310 -62 27
-67 42 -31 86 46 54 46 196 1 274 -50 88 -128 122 -249 108z m110 -122 c50
-30 77 -83 69 -132 -28 -162 -178 -183 -240 -34 -45 110 73 225 171 166z m111
-445 c68 -37 108 -80 127 -139 33 -99 41 -97 -292 -103 -320 -6 -317 -7 -306
69 20 126 106 196 254 206 110 8 154 1 217 -33z"/>
<path d="M1750 1893 c-35 -29 -38 -53 -9 -79 29 -26 782 -23 812 3 25 23 21
58 -10 83 -26 20 -35 20 -395 20 l-368 -1 -30 -26z"/>
<path d="M1749 1647 c-41 -27 -38 -61 8 -86 29 -15 765 -16 794 -1 38 21 16
83 -34 95 -12 3 -183 7 -380 8 -334 2 -361 1 -388 -16z"/>
<path d="M1750 1397 c-38 -19 -39 -62 -2 -81 33 -17 86 -19 519 -17 294 1 303
3 303 56 0 55 1 55 -413 55 -287 0 -388 -3 -407 -13z"/>
<path d="M1825 1162 c-104 -4 -140 -52 -75 -100 47 -35 425 -34 466 1 30 27
29 69 -4 86 -19 10 -266 18 -387 13z"/>
</g>
</svg>
