<?xml version="1.0" standalone="no"?>
<!DOCTYPE svg PUBLIC "-//W3C//DTD SVG 20010904//EN"
 "http://www.w3.org/TR/2001/REC-SVG-20010904/DTD/svg10.dtd">
<svg version="1.0" xmlns="http://www.w3.org/2000/svg"
 width="241.014858pt" height="237.220395pt" viewBox="0 0 241.014858 237.220395"
 preserveAspectRatio="xMidYMid meet">
<metadata>
Created by potrace 1.16, written by Peter Selinger 2001-2019
</metadata>
<g transform="translate(-42.825867,281.449383) scale(0.100000,-0.100000)"
fill="#000000" stroke="none">
<path d="M2076 2809 c-22 -5 -47 -16 -56 -24 -9 -8 -21 -15 -26 -15 -20 -1
-112 -99 -198 -213 -52 -69 -52 -143 -1 -210 19 -25 35 -51 35 -58 0 -6 -33
-53 -73 -103 -39 -50 -85 -111 -101 -136 -48 -74 -69 -104 -82 -120 -24 -27
-59 -69 -77 -92 -75 -98 -110 -137 -147 -163 -23 -16 -78 -59 -123 -95 -45
-36 -113 -87 -152 -112 -38 -25 -97 -69 -130 -97 -33 -28 -103 -86 -155 -128
-52 -42 -155 -135 -227 -207 -140 -137 -155 -163 -117 -201 34 -34 74 -6 270
182 87 83 113 106 209 181 34 26 85 68 115 94 30 26 80 64 111 85 31 21 84 61
117 88 34 28 88 70 122 95 96 71 312 313 338 380 11 29 117 174 184 253 l27
32 45 -44 c51 -50 59 -70 40 -103 -7 -12 -18 -34 -24 -48 -6 -14 -18 -32 -27
-42 -8 -9 -45 -77 -82 -151 -37 -74 -93 -172 -124 -219 -32 -47 -57 -88 -57
-92 0 -10 -68 -105 -123 -171 -27 -33 -167 -181 -312 -330 -144 -148 -282
-292 -307 -320 -175 -193 -188 -214 -150 -248 37 -34 54 -21 248 179 104 108
227 235 274 283 325 331 353 362 425 473 145 223 154 238 236 397 33 63 66
122 74 131 8 9 15 20 15 25 0 4 9 23 21 42 20 32 22 33 45 18 42 -27 134 -20
182 14 22 16 43 34 47 40 23 38 79 -4 263 -201 29 -31 71 -69 93 -84 l40 -27
27 20 c56 41 48 56 -132 234 -166 163 -181 184 -149 210 95 79 94 151 -6 269
-25 30 -53 63 -61 73 -35 43 -233 233 -253 244 -34 18 -88 23 -131 12z m66
-127 c60 -24 343 -316 336 -348 -5 -25 -169 -200 -201 -214 -47 -21 -81 3
-274 196 -84 84 -113 119 -113 138 0 33 45 98 117 167 70 69 92 78 135 61z"/>
</g>
</svg>
