<?xml version="1.0" standalone="no"?>
<!DOCTYPE svg PUBLIC "-//W3C//DTD SVG 20010904//EN"
 "http://www.w3.org/TR/2001/REC-SVG-20010904/DTD/svg10.dtd">
<svg version="1.0" xmlns="http://www.w3.org/2000/svg"
 width="191.419470pt" height="306.149338pt" viewBox="0 0 191.419470 306.149338"
 preserveAspectRatio="xMidYMid meet">
<metadata>
Created by potrace 1.16, written by Peter Selinger 2001-2019
</metadata>
<g transform="translate(-91.893617,348.278401) scale(0.100000,-0.100000)"
fill="#000000" stroke="none">
<path d="M1552 3463 c-4 -10 -6 -52 -3 -93 l6 -75 58 -3 c84 -4 112 18 120 94
7 63 -4 94 -32 94 -24 0 -32 -21 -25 -60 7 -34 -17 -80 -41 -80 -20 0 -38 48
-31 82 10 52 -31 84 -52 41z"/>
<path d="M1791 3467 c-21 -26 -5 -129 24 -154 40 -35 69 -38 105 -13 41 29 33
46 -18 42 -32 -2 -43 2 -51 16 -12 23 3 42 36 42 53 0 95 38 72 66 -15 18 -33
18 -49 -1 -7 -8 -23 -15 -35 -15 -12 0 -28 7 -35 15 -15 19 -34 19 -49 2z"/>
<path d="M2033 3468 c-18 -24 -16 -153 3 -169 28 -23 42 11 40 99 -1 78 -17
104 -43 70z"/>
<path d="M2127 3473 c-13 -12 -7 -149 7 -168 20 -27 46 -12 48 27 5 104 4 124
-5 136 -10 13 -39 16 -50 5z"/>
<path d="M2397 2781 c-32 -33 -57 -64 -57 -69 0 -13 -80 -102 -91 -102 -6 0
-23 9 -38 21 -17 13 -36 19 -47 15 -19 -6 -281 -260 -400 -386 -33 -36 -82
-85 -110 -110 -27 -25 -57 -57 -66 -71 -9 -15 -41 -42 -70 -61 -86 -58 -118
-105 -118 -175 0 -54 -4 -63 -45 -118 -59 -79 -59 -103 1 -158 26 -23 77 -73
114 -111 80 -81 101 -83 185 -11 74 62 91 70 120 51 14 -9 32 -16 41 -16 27 0
112 78 119 109 7 31 194 231 217 231 7 0 24 -7 37 -16 18 -13 36 -15 82 -10
77 9 99 -12 175 -164 26 -50 28 -65 28 -170 1 -141 -27 -210 -128 -315 l-61
-65 -111 0 c-129 0 -134 3 -134 80 0 102 40 95 -563 92 -608 -4 -557 7 -557
-113 0 -77 0 -78 37 -108 l38 -31 193 0 193 0 25 -29 c57 -68 227 -167 303
-177 65 -8 90 -26 75 -51 -10 -17 -30 -18 -245 -18 -239 -1 -265 -3 -334 -36
-78 -36 -130 -181 -87 -238 l19 -26 823 -3 c823 -2 824 -2 846 19 31 29 35 67
13 116 -10 23 -19 49 -19 57 0 19 -81 88 -123 103 -18 6 -65 12 -105 12 -69 1
-73 2 -83 27 -13 36 -4 57 35 88 96 73 246 291 246 357 0 8 5 20 11 26 41 41
40 387 -1 478 -62 137 -77 166 -119 220 -53 70 -136 152 -161 160 -16 5 -40
44 -40 65 0 6 23 35 50 65 56 62 58 70 30 101 l-21 21 83 84 c94 95 118 126
118 152 0 33 -141 200 -208 244 -46 32 -52 30 -115 -36z m162 -132 c77 -73 82
-86 40 -112 -18 -11 -169 126 -169 154 0 51 47 36 129 -42z m-119 -106 c79
-65 87 -90 39 -126 -31 -22 -63 -12 -74 23 -4 12 -24 32 -45 45 -50 32 -59 59
-29 91 30 32 29 32 109 -33z m-183 -89 c71 -82 134 -144 144 -144 5 0 13 -9
20 -21 9 -18 7 -26 -17 -50 -32 -34 -41 -35 -66 -12 -31 28 -134 22 -191 -12
-80 -46 -111 -96 -116 -182 -2 -55 1 -79 13 -98 28 -43 20 -64 -56 -144 -40
-42 -77 -77 -83 -78 -5 -2 -68 52 -138 120 -110 106 -128 127 -125 150 5 44
499 537 537 537 12 0 44 -28 78 -66z m58 -314 c50 -40 85 -88 85 -118 0 -35
-48 -110 -81 -127 -141 -74 -284 128 -164 232 59 51 107 55 160 13z m189 -176
c25 -10 133 -148 156 -200 12 -27 29 -62 36 -78 8 -16 22 -78 31 -138 16 -116
6 -218 -32 -318 -7 -19 -16 -42 -19 -50 -5 -15 -23 -44 -80 -131 -39 -60 -137
-159 -157 -159 -20 0 -66 57 -81 100 -10 29 -7 34 42 88 74 81 75 83 97 127
66 132 63 122 63 258 l0 128 -41 81 c-22 45 -53 97 -70 115 -34 40 -35 47 -9
98 11 22 20 47 20 55 0 28 14 35 44 24z m-848 -134 c93 -84 184 -184 184 -203
0 -17 -32 -47 -51 -47 -9 0 -82 63 -160 139 l-144 139 24 26 c36 39 50 33 147
-54z m-85 -167 c82 -80 88 -106 35 -147 -45 -34 -38 -37 -122 51 -85 89 -84
87 -42 130 43 45 49 43 129 -34z m377 -508 c15 -6 16 -37 0 -53 -19 -19 -911
-17 -928 3 -21 25 -8 50 30 55 42 6 879 1 898 -5z m-32 -166 c3 -6 -3 -24 -15
-40 -11 -15 -21 -34 -21 -41 0 -20 -52 -68 -75 -68 -11 0 -38 9 -60 20 -22 11
-47 20 -56 20 -9 0 -27 8 -40 19 -13 10 -33 21 -44 25 -32 10 -79 52 -71 64 9
15 372 17 382 1z m357 -23 c29 -27 71 -91 82 -126 4 -13 17 -37 27 -51 16 -22
18 -31 9 -48 -11 -20 -18 -21 -240 -21 -279 0 -269 -6 -212 114 22 47 44 86
50 86 5 0 13 9 16 21 17 52 218 72 268 25z m417 -355 c34 -25 59 -89 40 -101
-8 -5 -353 -9 -767 -10 -822 -1 -774 -4 -759 54 9 37 63 70 126 77 30 3 343 4
695 2 604 -3 641 -4 665 -22z"/>
<path d="M2195 2089 c-52 -46 -46 -103 15 -134 92 -48 162 55 91 133 -37 40
-61 40 -106 1z m65 -60 c0 -5 -7 -9 -15 -9 -15 0 -20 12 -9 23 8 8 24 -1 24
-14z"/>
<path d="M2157 914 c-10 -10 -9 -86 2 -102 11 -18 41 -12 54 10 26 40 -25 123
-56 92z"/>
<path d="M2062 898 c-15 -15 -16 -53 -2 -79 13 -23 55 -25 64 -3 17 45 0 94
-34 94 -9 0 -21 -5 -28 -12z"/>
</g>
</svg>
