<?xml version="1.0" standalone="no"?>
<!DOCTYPE svg PUBLIC "-//W3C//DTD SVG 20010904//EN"
 "http://www.w3.org/TR/2001/REC-SVG-20010904/DTD/svg10.dtd">
<svg version="1.0" xmlns="http://www.w3.org/2000/svg"
 width="239.134605pt" height="241.626206pt" viewBox="0 0 239.134605 241.626206"
 preserveAspectRatio="xMidYMid meet">
<metadata>
Created by potrace 1.16, written by Peter Selinger 2001-2019
</metadata>
<g transform="translate(-43.500000,286.766175) scale(0.100000,-0.100000)"
fill="#000000" stroke="none">
<path d="M1490 2860 c-148 -17 -186 -24 -205 -36 -11 -8 -26 -14 -35 -14 -8 0
-37 -11 -65 -24 -27 -13 -57 -27 -65 -30 -8 -4 -32 -16 -52 -29 -21 -12 -59
-35 -85 -51 -149 -89 -189 -127 -364 -344 -31 -38 -131 -264 -144 -327 -4 -16
-14 -50 -23 -75 -14 -37 -17 -85 -17 -260 0 -225 2 -237 55 -385 10 -27 21
-64 25 -82 3 -17 13 -37 21 -44 8 -6 14 -19 14 -29 0 -9 9 -29 20 -43 11 -14
20 -29 20 -34 0 -9 57 -95 68 -103 5 -3 30 -32 58 -65 99 -120 317 -295 366
-295 9 0 21 -6 27 -14 7 -8 24 -17 39 -20 15 -4 41 -13 57 -21 67 -31 138 -48
285 -68 151 -20 158 -20 275 -3 66 9 134 22 150 27 17 6 50 15 75 21 25 6 52
16 61 24 8 8 19 14 23 14 14 0 194 89 230 114 138 93 245 205 341 354 6 9 25
38 43 64 17 26 32 51 32 56 0 4 8 23 19 42 29 56 69 225 82 353 21 206 -23
502 -95 627 -14 25 -32 59 -41 75 -8 17 -23 42 -32 56 -49 72 -60 87 -92 129
-87 112 -169 182 -326 277 -46 28 -198 103 -209 103 -6 0 -24 8 -41 17 -29 15
-65 22 -220 43 -79 10 -180 10 -275 0z m320 -125 c23 -8 57 -15 74 -15 17 0
47 -8 66 -19 19 -10 49 -21 67 -25 17 -4 37 -14 44 -22 6 -8 18 -14 26 -14 8
0 31 -11 51 -25 20 -14 40 -25 44 -25 21 0 194 -136 227 -178 12 -17 36 -45
53 -64 40 -45 128 -177 128 -192 0 -8 8 -24 18 -37 84 -110 129 -517 78 -704
-38 -136 -60 -201 -78 -224 -10 -13 -18 -28 -18 -33 0 -5 -5 -14 -10 -21 -6
-7 -29 -41 -52 -77 -87 -138 -339 -350 -447 -377 -14 -3 -37 -14 -50 -25 -13
-10 -31 -18 -40 -18 -9 0 -26 -7 -39 -15 -12 -9 -45 -19 -74 -22 -29 -3 -66
-12 -81 -20 -39 -19 -278 -19 -334 1 -23 8 -63 18 -90 22 -26 4 -57 13 -68 19
-11 7 -34 16 -52 20 -17 3 -37 13 -44 21 -6 8 -19 14 -29 14 -37 0 -208 105
-260 159 -125 133 -230 264 -230 290 0 5 -8 19 -18 32 -21 29 -58 120 -67 169
-4 19 -14 47 -21 62 -44 86 -45 468 -1 554 8 16 20 51 26 78 34 137 156 320
305 458 86 79 368 228 433 228 12 0 34 5 50 11 82 31 339 40 413 14z"/>
<path d="M1994 2065 c-10 -8 -28 -15 -38 -15 -42 0 -136 -125 -136 -179 0 -57
80 -81 95 -28 12 39 95 107 133 107 40 0 89 -35 128 -91 32 -47 65 -50 97 -8
27 37 16 76 -36 130 -77 80 -194 121 -243 84z"/>
<path d="M1146 2061 c-3 -5 -21 -12 -39 -15 -59 -11 -161 -145 -144 -190 21
-55 96 -51 120 6 24 58 82 100 125 92 38 -7 112 -67 112 -91 0 -18 36 -53 54
-53 8 0 27 11 42 24 l28 23 -23 54 c-29 67 -73 116 -129 140 -45 20 -137 26
-146 10z"/>
<path d="M2355 1762 c-92 -67 -148 -267 -94 -336 67 -86 229 -73 260 21 18 57
7 151 -25 198 -62 91 -116 136 -141 117z m69 -188 c11 -28 6 -71 -9 -84 -35
-29 -75 19 -61 75 8 30 60 36 70 9z"/>
<path d="M1023 1370 c-63 -26 -4 -145 120 -243 53 -42 72 -55 137 -90 19 -10
46 -25 60 -32 14 -8 33 -15 43 -15 10 0 30 -8 44 -17 39 -26 342 -26 390 0 18
9 40 17 49 17 16 0 89 30 120 48 138 82 254 200 254 256 0 51 -73 86 -89 43
-20 -52 -226 -217 -271 -217 -8 0 -25 -7 -37 -15 -12 -8 -54 -19 -93 -25 -40
-6 -83 -13 -95 -16 -31 -8 -225 25 -250 42 -11 8 -27 14 -36 14 -9 0 -22 7
-29 14 -6 8 -33 25 -58 38 -46 21 -127 97 -185 172 -30 38 -38 40 -74 26z"/>
</g>
</svg>
