<?xml version="1.0" standalone="no"?>
<!DOCTYPE svg PUBLIC "-//W3C//DTD SVG 20010904//EN"
 "http://www.w3.org/TR/2001/REC-SVG-20010904/DTD/svg10.dtd">
<svg version="1.0" xmlns="http://www.w3.org/2000/svg"
 width="242.833617pt" height="306.198375pt" viewBox="0 0 242.833617 306.198375"
 preserveAspectRatio="xMidYMid meet">
<metadata>
Created by potrace 1.16, written by Peter Selinger 2001-2019
</metadata>
<g transform="translate(-79.541035,356.347577) scale(0.100000,-0.100000)"
fill="#000000" stroke="none">
<path d="M935 3549 c-12 -19 -5 -163 8 -171 28 -18 121 -8 149 15 50 42 46
184 -6 164 -12 -5 -16 -19 -16 -55 0 -50 -12 -72 -41 -72 -27 0 -43 29 -44 79
0 39 -3 46 -22 49 -11 2 -24 -2 -28 -9z"/>
<path d="M1172 3543 c-5 -10 -7 -42 -4 -70 7 -92 93 -143 147 -88 37 36 32 46
-21 43 -36 -2 -49 1 -58 15 -14 23 6 37 55 37 38 0 69 24 69 54 0 24 -28 31
-49 12 -22 -20 -60 -20 -85 -1 -26 20 -43 19 -54 -2z"/>
<path d="M1411 3546 c-8 -9 -11 -43 -9 -93 3 -76 4 -78 28 -78 24 0 25 2 28
84 3 94 -14 126 -47 87z"/>
<path d="M1522 3541 c-14 -37 1 -165 20 -169 26 -5 38 30 35 110 -2 67 -4 73
-25 76 -15 2 -25 -3 -30 -17z"/>
<path d="M1793 3545 c-12 -32 4 -115 27 -140 41 -44 75 -51 115 -24 41 28 47
45 43 120 -3 50 -5 54 -28 54 -23 0 -25 -4 -28 -45 -1 -25 -5 -55 -7 -67 -13
-56 -72 2 -61 59 9 48 -44 86 -61 43z"/>
<path d="M2053 3552 c-26 -17 -20 -118 10 -156 22 -27 24 -28 90 -21 l68 7 -3
87 c-3 84 -3 86 -28 86 -23 0 -25 -4 -30 -60 -4 -53 -8 -60 -27 -63 -28 -4
-43 28 -35 77 6 40 -16 62 -45 43z"/>
<path d="M2312 3548 c-13 -13 -17 -136 -4 -154 12 -18 52 -36 68 -30 18 7 18
40 -1 56 -10 8 -15 31 -15 70 0 44 -4 59 -16 64 -20 8 -18 8 -32 -6z"/>
<path d="M2433 3543 c-24 -52 1 -177 35 -171 14 3 17 17 17 93 0 85 -1 90 -22
93 -13 2 -25 -4 -30 -15z"/>
<path d="M2554 3547 c-3 -8 -4 -49 -2 -93 3 -72 5 -79 24 -82 21 -3 22 2 26
80 3 46 0 89 -5 96 -12 16 -36 15 -43 -1z"/>
<path d="M2667 3553 c-4 -3 -7 -38 -7 -78 0 -76 15 -113 43 -102 17 6 29 147
14 173 -8 14 -39 19 -50 7z"/>
<path d="M2795 3547 c-3 -7 -5 -49 -3 -93 3 -74 5 -79 26 -82 22 -3 23 -2 20
90 -3 79 -6 93 -21 96 -9 2 -19 -3 -22 -11z"/>
<path d="M3022 3543 c-20 -14 -28 -14 -62 -3 -56 18 -70 9 -70 -45 0 -96 80
-160 149 -119 59 35 48 75 -13 53 -34 -12 -38 -11 -59 9 -29 29 -12 42 56 42
41 0 49 3 59 25 20 45 -16 69 -60 38z"/>
<path d="M1653 3514 c-8 -22 25 -46 51 -38 30 9 40 20 33 38 -9 22 -75 22 -84
0z"/>
<path d="M2659 2881 c-75 -28 -77 -29 -362 -33 -278 -4 -288 -5 -310 -26 -13
-12 -27 -22 -31 -22 -4 0 -28 -23 -53 -50 -25 -28 -60 -57 -77 -65 -44 -20
-95 -51 -114 -68 -22 -19 -101 -63 -232 -128 -58 -29 -118 -63 -135 -77 -16
-14 -49 -33 -72 -43 -24 -10 -43 -22 -43 -27 0 -19 -79 -41 -165 -46 -52 -4
-98 -13 -112 -21 -151 -99 -201 -281 -118 -432 46 -85 66 -106 133 -145 37
-21 63 -46 83 -77 15 -25 37 -59 49 -76 11 -16 39 -59 61 -95 23 -36 51 -78
62 -95 39 -56 122 -177 139 -203 22 -33 23 -105 3 -187 -8 -33 -14 -81 -15
-108 0 -54 -18 -67 -90 -67 -56 0 -108 -34 -114 -73 -3 -18 -10 -63 -16 -101
-20 -123 -135 -111 1039 -114 870 -2 1011 0 1024 12 25 26 21 187 -6 228 -41
61 -28 59 -540 56 -381 -2 -469 -1 -476 10 -4 8 -11 46 -15 85 -3 40 -13 94
-21 121 -8 27 -15 69 -15 93 0 24 -9 61 -20 83 -11 22 -20 48 -20 59 0 21
-117 151 -137 151 -23 0 -170 155 -225 237 -29 44 -88 122 -131 172 -89 103
-89 103 -10 160 28 20 87 63 131 96 44 33 113 81 154 107 67 43 101 68 241
174 58 44 115 57 316 75 175 15 176 14 166 -94 -4 -39 -2 -110 6 -168 l12 -99
-25 -28 c-14 -15 -31 -37 -37 -49 -6 -12 -32 -34 -56 -49 l-45 -26 0 -86 c0
-64 4 -90 16 -103 15 -17 14 -21 -19 -61 -44 -54 -87 -134 -87 -163 0 -26 25
-64 145 -226 28 -38 57 -79 67 -92 9 -13 35 -29 57 -37 68 -22 76 -7 72 139
-3 141 4 151 97 151 91 0 92 -1 92 -148 0 -152 3 -158 61 -146 50 10 118 84
220 238 81 121 81 117 14 229 -44 74 -54 99 -47 114 40 78 11 226 -48 239 -14
3 -32 8 -40 10 -8 2 -28 28 -44 58 l-29 54 5 168 c6 167 6 170 36 221 80 135
69 253 -30 353 -91 91 -189 110 -319 61z m197 -77 c109 -45 153 -179 89 -271
-32 -46 -45 -110 -56 -272 -6 -107 -14 -168 -22 -173 -7 -4 -44 -8 -83 -8
-112 0 -109 -7 -110 226 -2 242 -4 246 -137 210 -29 -8 -112 -17 -186 -21 -73
-4 -157 -10 -186 -15 -148 -24 -250 115 -169 231 41 60 76 66 369 59 219 -4
254 -3 285 12 87 41 146 47 206 22z m-986 -224 c4 -8 16 -33 26 -55 10 -22 38
-58 62 -81 23 -22 42 -45 42 -50 0 -15 -53 -57 -167 -133 -119 -79 -147 -99
-211 -153 -24 -21 -46 -38 -50 -38 -4 0 -22 -14 -41 -30 -49 -44 -70 -39 -109
25 -19 29 -56 77 -83 105 -74 77 -76 84 -31 111 81 50 120 73 182 107 36 19
81 43 100 54 19 10 46 26 60 36 14 9 41 27 60 39 19 12 55 36 80 52 48 32 69
35 80 11z m-653 -414 c24 -17 60 -54 79 -83 19 -29 39 -55 44 -58 6 -3 10 -15
10 -26 0 -20 42 -83 120 -181 72 -91 147 -190 175 -233 15 -22 45 -59 67 -82
48 -49 43 -63 -21 -63 -35 0 -53 -5 -66 -20 -10 -11 -25 -20 -33 -20 -22 0
-97 -65 -133 -115 -18 -25 -36 -45 -39 -45 -9 0 -111 146 -175 250 -27 45 -65
102 -82 126 -33 44 -42 73 -23 75 6 1 15 3 20 4 6 1 17 3 25 4 8 0 19 10 25
20 16 32 -14 54 -64 48 -106 -14 -189 32 -242 135 -46 90 -16 206 70 271 60
46 173 43 243 -7z m1698 -176 c20 -7 26 -16 23 -33 -3 -21 -6 -22 -142 -25
-77 -1 -143 1 -148 6 -12 12 2 43 23 50 31 11 216 13 244 2z m143 -176 c6 -47
-1 -48 -265 -46 -267 2 -288 6 -262 53 9 17 28 19 242 21 256 3 281 1 285 -28z
m-169 -148 c12 -11 21 -25 21 -32 0 -7 20 -36 45 -64 49 -55 51 -60 33 -78
-17 -17 -48 -15 -93 8 -55 28 -178 28 -220 0 -66 -44 -92 -14 -48 55 82 132
79 130 185 130 41 -1 62 -6 77 -19z m-289 -3 c0 -9 -9 -26 -19 -37 -29 -32
-61 -94 -61 -119 1 -12 14 -38 30 -57 17 -19 30 -42 30 -51 0 -9 9 -28 20 -42
23 -29 26 -63 7 -70 -20 -7 -29 2 -62 58 -15 28 -43 68 -62 89 -22 27 -33 50
-33 71 0 31 42 108 83 153 25 26 67 30 67 5z m461 -35 c12 -24 35 -59 50 -78
38 -46 38 -48 -27 -143 -69 -100 -89 -121 -103 -113 -28 18 -11 69 44 133 58
68 64 83 40 103 -8 6 -17 22 -21 33 -4 12 -17 35 -30 50 -31 37 -31 57 1 57
19 0 30 -10 46 -42z m-1193 -295 c97 -60 156 -149 172 -263 25 -176 30 -252
19 -266 -9 -11 -68 -14 -310 -14 l-299 0 -5 23 c-4 13 2 90 13 170 27 201 65
272 182 344 46 28 186 32 228 6z m1015 -606 c196 -2 199 -2 218 -26 21 -26 26
-90 7 -109 -17 -17 -689 -17 -706 0 -12 12 -17 104 -6 132 5 13 26 15 147 10
78 -3 231 -6 340 -7z m-600 -36 c21 -17 23 -84 3 -100 -23 -19 -1045 -9 -1057
10 -23 36 -3 87 41 101 39 14 997 3 1013 -11z"/>
<path d="M2754 2730 c-33 -13 -74 -69 -74 -100 0 -45 38 -110 75 -127 66 -31
145 30 145 112 0 96 -66 148 -146 115z m72 -95 c14 -56 -20 -93 -55 -61 -27
25 -27 61 0 80 26 18 47 11 55 -19z"/>
<path d="M2075 2708 c-33 -18 -45 -40 -45 -82 0 -47 3 -53 49 -85 l34 -24 44
22 c78 38 82 116 8 158 -45 25 -61 27 -90 11z m63 -60 c18 -18 14 -46 -8 -53
-27 -8 -40 1 -40 29 0 36 24 48 48 24z"/>
<path d="M1050 2123 c-125 -48 -127 -218 -3 -269 99 -42 217 46 200 150 -7 45
-52 112 -80 120 -27 7 -97 6 -117 -1z m105 -98 c31 -30 31 -36 -1 -74 -18 -21
-35 -31 -54 -31 -19 0 -36 10 -54 31 -33 38 -33 52 0 78 36 28 79 27 109 -4z"/>
<path d="M1670 1251 c-82 -44 -127 -154 -95 -233 39 -99 125 -142 239 -118
170 35 187 286 23 355 -49 20 -124 18 -167 -4z m165 -75 c29 -19 46 -73 38
-122 -14 -88 -134 -127 -193 -63 -98 108 33 265 155 185z"/>
<path d="M1730 1120 c-27 -27 -25 -46 5 -76 24 -24 28 -25 48 -11 32 21 35 71
5 91 -29 20 -34 20 -58 -4z"/>
</g>
</svg>
