<?xml version="1.0" standalone="no"?>
<!DOCTYPE svg PUBLIC "-//W3C//DTD SVG 20010904//EN"
 "http://www.w3.org/TR/2001/REC-SVG-20010904/DTD/svg10.dtd">
<svg version="1.0" xmlns="http://www.w3.org/2000/svg"
 width="239.973884pt" height="237.984695pt" viewBox="0 0 239.973884 237.984695"
 preserveAspectRatio="xMidYMid meet">
<metadata>
Created by potrace 1.16, written by Peter Selinger 2001-2019
</metadata>
<g transform="translate(-44.000000,285.984695) scale(0.100000,-0.100000)"
fill="#000000" stroke="none">
<path d="M2371 2851 c-8 -5 -54 -47 -101 -93 -47 -46 -111 -106 -141 -133
-159 -148 -249 -271 -249 -344 0 -49 -23 -66 -127 -96 -126 -37 -165 -68 -466
-372 -125 -125 -230 -231 -234 -236 -5 -4 -100 -99 -213 -211 -113 -112 -249
-253 -302 -312 l-98 -109 0 -54 c0 -73 19 -101 165 -243 155 -150 181 -168
249 -168 l52 0 99 93 c54 50 245 238 425 417 180 179 362 359 406 402 77 75
229 236 265 282 23 29 52 113 44 126 -3 5 3 27 14 48 24 46 71 72 131 72 55 0
76 17 290 225 233 227 260 256 260 280 -1 27 -409 435 -435 435 -11 0 -26 -4
-34 -9z m179 -279 c77 -76 140 -145 140 -154 0 -23 -85 -89 -104 -82 -9 3 -16
10 -16 16 0 18 -193 197 -235 218 -45 22 -43 46 6 96 24 24 49 44 56 44 7 0
76 -62 153 -138z m-339 -179 c33 -32 71 -76 86 -98 15 -22 45 -61 66 -88 22
-26 37 -53 34 -61 -9 -22 -113 -106 -133 -106 -10 -1 -30 -7 -44 -15 -14 -8
-36 -14 -50 -15 -52 -1 -140 -124 -140 -195 0 -36 -76 -153 -117 -180 -21 -14
-26 -11 -90 43 -64 54 -100 90 -154 156 -13 15 -32 36 -41 46 -44 49 -44 61 3
103 24 22 58 46 76 53 17 8 34 18 38 24 3 5 16 10 29 10 38 0 119 32 155 61
35 29 80 116 81 157 0 41 97 162 128 162 8 0 41 -26 73 -57z m289 -121 c0 -35
-33 -17 -109 59 -86 88 -87 89 -70 106 13 13 179 -140 179 -165z m-944 -489
c24 -27 57 -61 73 -78 16 -16 58 -56 95 -88 36 -32 66 -66 66 -75 0 -18 -56
-76 -367 -383 -109 -108 -225 -224 -258 -258 -34 -33 -69 -61 -80 -61 -30 0
-295 264 -295 295 0 7 64 77 142 154 79 77 233 230 343 340 110 110 208 200
218 200 10 1 38 -20 63 -46z m-708 -894 c84 -83 152 -153 152 -155 0 -7 -93
-97 -120 -116 -43 -30 -60 -22 -169 85 -124 120 -151 153 -151 183 0 23 106
154 125 154 6 0 79 -68 163 -151z"/>
</g>
</svg>
