<?xml version="1.0" standalone="no"?>
<!DOCTYPE svg PUBLIC "-//W3C//DTD SVG 20010904//EN"
 "http://www.w3.org/TR/2001/REC-SVG-20010904/DTD/svg10.dtd">
<svg version="1.0" xmlns="http://www.w3.org/2000/svg"
 width="243.491841pt" height="175.285773pt" viewBox="0 0 243.491841 175.285773"
 preserveAspectRatio="xMidYMid meet">
<metadata>
Created by potrace 1.16, written by Peter Selinger 2001-2019
</metadata>
<g transform="translate(-43.500000,259.963132) scale(0.100000,-0.100000)"
fill="#000000" stroke="none">
<path d="M629 2578 c-69 -21 -123 -66 -170 -143 -24 -40 -24 -43 -24 -290 l0
-250 39 -55 c21 -30 47 -64 57 -76 26 -29 24 -48 -12 -86 -17 -18 -43 -51 -57
-73 l-27 -40 0 -255 0 -255 28 -47 c35 -59 96 -114 154 -139 69 -30 1979 -30
2060 0 88 32 150 98 175 186 15 54 19 329 6 435 -12 98 -22 121 -78 181 -47
50 -49 63 -15 85 74 48 105 174 105 425 0 259 -46 350 -201 397 l-74 22 -951
-2 c-906 -1 -955 -2 -1015 -20z m2055 -137 c63 -61 66 -75 66 -319 l0 -219
-41 -47 c-50 -57 -92 -76 -185 -83 -96 -8 -110 1 -117 74 -9 100 -47 158 -140
211 -102 59 -315 4 -350 -90 -10 -28 -33 -21 -65 20 -104 130 -349 121 -421
-15 -15 -29 -47 -29 -62 -1 -35 66 -123 108 -225 108 -86 0 -92 -2 -181 -65
-37 -26 -75 -103 -87 -174 l-11 -66 -65 -3 c-99 -5 -199 54 -231 136 -17 42
-24 369 -10 429 14 57 78 128 121 136 14 2 462 4 997 3 l972 -1 35 -34z
m-1411 -531 c47 -49 55 -133 15 -144 -30 -8 -252 -8 -272 0 -32 12 -21 107 17
147 43 45 50 47 132 42 66 -5 72 -7 108 -45z m479 24 c42 -38 67 -155 36 -167
-28 -10 -283 4 -296 17 -31 30 24 141 83 167 35 16 153 4 177 -17z m504 -16
c37 -41 49 -75 40 -113 -10 -38 -30 -42 -181 -36 l-140 6 -3 36 c-7 87 74 152
182 147 64 -4 70 -6 102 -40z m-1396 -278 c14 -14 20 -33 20 -65 0 -71 77
-185 124 -185 8 0 19 -7 26 -15 10 -12 36 -15 114 -15 112 0 168 23 217 90 29
38 38 38 79 -5 65 -67 108 -85 205 -85 106 0 176 28 214 84 29 45 39 45 74 2
86 -109 295 -120 405 -22 31 27 60 96 68 159 9 73 15 77 99 77 85 0 140 -17
182 -56 60 -56 63 -73 63 -300 0 -228 -3 -243 -72 -306 -43 -39 -54 -39 -1083
-36 l-931 3 -31 25 c-73 59 -78 76 -81 264 -5 246 2 311 39 344 67 61 226 85
269 42z m331 10 c120 0 134 -8 120 -69 -18 -82 -82 -117 -190 -104 -67 8 -108
42 -122 103 -13 58 14 85 76 74 11 -2 63 -4 116 -4z m601 -11 c38 -21 -6 -140
-57 -153 -26 -7 -132 -5 -167 3 -43 10 -99 107 -80 138 13 20 270 30 304 12z
m496 -1 c26 -26 -7 -126 -48 -148 -34 -18 -164 -16 -195 4 -53 35 -96 136 -62
149 27 12 293 7 305 -5z"/>
</g>
</svg>
