<?xml version="1.0" standalone="no"?>
<!DOCTYPE svg PUBLIC "-//W3C//DTD SVG 20010904//EN"
 "http://www.w3.org/TR/2001/REC-SVG-20010904/DTD/svg10.dtd">
<svg version="1.0" xmlns="http://www.w3.org/2000/svg"
 width="244.332907pt" height="217.254226pt" viewBox="0 0 244.332907 217.254226"
 preserveAspectRatio="xMidYMid meet">
<metadata>
Created by potrace 1.16, written by Peter Selinger 2001-2019
</metadata>
<g transform="translate(-42.357353,276.754226) scale(0.100000,-0.100000)"
fill="#000000" stroke="none">
<path d="M871 2739 c-24 -18 -41 -40 -44 -58 -7 -31 -27 -41 -90 -41 -85 0
-131 -71 -128 -199 2 -75 -4 -81 -70 -81 -41 0 -51 -5 -77 -34 -51 -58 -51
-139 -1 -367 10 -48 19 -103 19 -123 0 -19 6 -53 14 -73 8 -21 18 -60 21 -88
4 -27 13 -62 21 -77 8 -15 14 -36 14 -46 0 -10 18 -75 40 -143 22 -68 43 -142
47 -164 3 -22 12 -49 19 -60 17 -26 31 -142 44 -355 8 -119 15 -174 28 -200
l17 -35 110 2 c61 1 136 9 170 17 32 9 78 16 102 16 23 0 106 9 185 20 79 11
161 22 184 25 61 8 100 52 86 97 -6 18 -14 60 -17 93 -4 33 -13 69 -20 80 -7
11 -16 50 -20 85 -4 36 -13 90 -21 120 -16 62 -19 246 -4 255 5 3 14 25 21 48
6 23 17 49 24 57 7 8 15 35 19 59 4 25 13 65 21 90 18 61 30 453 14 482 -24
46 -152 77 -179 44 -7 -9 -23 -15 -34 -13 -20 3 -21 9 -23 178 -3 192 -14 236
-70 280 -37 29 -100 47 -115 32 -22 -22 -47 -12 -78 33 -42 61 -64 73 -132 73
-48 -1 -65 -6 -97 -29z m124 -99 c14 -16 21 -46 27 -128 18 -227 39 -459 46
-502 7 -44 8 -45 46 -48 66 -6 64 -15 46 346 -10 208 -5 235 42 240 24 3 27
-1 32 -30 9 -63 37 -504 36 -577 0 -77 22 -132 60 -146 21 -9 57 40 63 84 16
130 35 181 67 181 10 0 20 -6 22 -12 10 -27 -12 -389 -24 -411 -7 -12 -18 -42
-24 -67 -7 -25 -22 -70 -34 -100 -43 -108 -43 -114 -21 -244 11 -66 22 -137
25 -156 2 -19 7 -44 11 -56 11 -35 -18 -54 -81 -54 -30 0 -70 -7 -90 -15 -19
-8 -69 -17 -112 -21 -42 -3 -102 -12 -132 -19 -94 -23 -165 -28 -178 -13 -6 7
-13 59 -15 115 -6 104 -17 154 -69 308 -48 141 -98 318 -98 345 0 14 -7 39
-16 55 -8 17 -19 66 -24 109 -5 44 -14 93 -19 110 -5 17 -12 59 -15 92 -3 34
-13 83 -21 108 -20 58 -16 115 8 130 43 27 68 -30 87 -203 20 -182 55 -237
120 -191 26 19 31 27 26 49 -4 14 -11 64 -16 111 -5 47 -16 124 -24 173 -21
115 -23 296 -5 308 50 31 74 -12 84 -151 3 -52 13 -147 22 -210 8 -63 15 -126
14 -140 -2 -33 17 -77 36 -85 21 -7 62 20 72 48 9 24 -2 237 -18 352 -23 166
-26 307 -6 321 25 18 29 18 50 -6z m450 -1800 c21 -8 26 -16 23 -37 -3 -28 -4
-28 -113 -39 -60 -7 -204 -22 -318 -34 -144 -15 -212 -19 -219 -12 -16 16 -1
42 24 42 13 0 56 9 97 20 41 11 94 20 118 20 24 0 72 7 106 14 34 8 100 19
147 24 47 5 90 10 97 11 6 0 24 -4 38 -9z"/>
<path d="M2270 2762 c-43 -21 -69 -47 -75 -73 -9 -38 -26 -45 -74 -30 -54 16
-103 -6 -137 -61 -27 -43 -26 -33 -50 -325 -8 -101 -20 -115 -70 -88 -30 16
-39 17 -75 6 -83 -25 -122 -101 -100 -196 7 -27 16 -123 21 -213 7 -109 15
-172 25 -192 8 -16 15 -38 15 -50 0 -11 7 -37 15 -57 29 -68 46 -200 35 -267
-34 -216 -54 -319 -68 -361 -20 -56 -21 -124 -3 -145 23 -28 200 -60 421 -75
47 -4 110 -12 140 -20 30 -8 102 -15 160 -17 l104 -3 15 30 c15 30 22 96 40
382 6 101 15 161 25 182 9 16 16 41 16 55 0 14 9 40 20 58 11 18 20 42 20 53
0 11 6 29 14 40 7 11 16 38 20 60 4 22 12 45 17 51 5 6 14 38 20 70 6 32 17
71 25 86 8 15 14 45 14 68 0 22 7 73 14 113 14 65 34 206 51 344 12 95 -45
183 -118 183 -49 0 -57 14 -57 103 l0 80 -44 43 c-39 39 -48 44 -90 44 -31 0
-51 5 -61 18 -91 107 -89 105 -151 109 -32 1 -66 -1 -74 -5z m93 -126 c11 -25
14 -43 7 -68 -4 -18 -11 -78 -15 -133 -3 -55 -10 -120 -16 -145 -5 -25 -13
-103 -19 -174 -10 -143 -1 -180 48 -193 42 -10 56 29 72 202 6 66 18 141 26
167 8 26 17 78 21 115 7 83 17 103 48 103 34 0 36 -19 20 -165 -50 -454 -50
-453 -30 -475 20 -23 57 -26 73 -7 13 16 52 215 52 265 0 46 36 138 56 146 42
16 60 -37 45 -139 -14 -100 -41 -256 -56 -330 -7 -38 -17 -91 -20 -117 -3 -26
-10 -50 -15 -53 -5 -3 -14 -31 -21 -63 -7 -31 -16 -61 -20 -67 -10 -14 -52
-129 -72 -195 -27 -89 -34 -127 -53 -277 l-18 -143 -51 0 c-28 0 -74 6 -101
14 -27 8 -85 17 -129 20 -44 3 -98 12 -120 20 -22 9 -63 15 -92 16 -85 0 -106
13 -99 58 46 295 45 346 -4 493 -24 71 -40 139 -40 167 0 26 -4 65 -9 87 -18
82 -25 315 -9 315 30 0 49 -39 68 -140 27 -140 27 -140 59 -140 62 0 75 44 91
294 10 149 34 381 45 434 13 56 65 -1 65 -70 0 -24 -7 -92 -15 -153 -23 -178
-23 -325 1 -342 26 -19 53 -13 76 18 15 20 21 54 29 160 5 74 16 184 24 244 8
61 18 142 21 180 5 55 11 74 28 87 28 24 30 23 49 -16z m-370 -1802 c34 -3
100 -12 147 -19 47 -8 124 -19 171 -25 102 -12 179 -36 179 -56 0 -25 -34 -33
-101 -23 -74 11 -267 34 -422 51 -99 11 -110 14 -118 35 -15 40 -1 56 43 49
22 -4 67 -9 101 -12z"/>
</g>
</svg>
