<?xml version="1.0" standalone="no"?>
<!DOCTYPE svg PUBLIC "-//W3C//DTD SVG 20010904//EN"
 "http://www.w3.org/TR/2001/REC-SVG-20010904/DTD/svg10.dtd">
<svg version="1.0" xmlns="http://www.w3.org/2000/svg"
 width="243.400899pt" height="175.364598pt" viewBox="0 0 243.400899 175.364598"
 preserveAspectRatio="xMidYMid meet">
<metadata>
Created by potrace 1.16, written by Peter Selinger 2001-2019
</metadata>
<g transform="translate(-43.500000,252.024454) scale(0.100000,-0.100000)"
fill="#000000" stroke="none">
<path d="M625 2499 c-66 -27 -126 -78 -161 -136 l-29 -48 0 -250 0 -250 32
-45 c17 -25 43 -56 57 -69 35 -33 34 -71 -3 -98 -15 -12 -41 -43 -57 -70 l-29
-48 0 -255 0 -255 39 -55 c47 -68 89 -105 144 -131 69 -30 1982 -30 2065 1 84
31 150 112 174 213 16 67 11 413 -6 474 -13 45 -57 116 -81 131 -27 16 -25 43
4 71 73 69 102 219 93 483 -6 194 -54 287 -171 333 -82 31 -1995 35 -2071 4z
m2060 -139 c64 -61 65 -66 65 -309 0 -242 -2 -251 -65 -302 -66 -54 -80 -59
-174 -59 -97 0 -101 3 -101 60 0 41 -37 135 -67 171 -92 109 -317 100 -410
-16 -35 -44 -34 -44 -91 8 -79 73 -110 87 -190 87 -55 0 -81 -5 -114 -23 -61
-32 -108 -69 -108 -83 0 -23 -42 -28 -56 -8 -54 79 -125 114 -230 114 -146 0
-250 -94 -268 -243 -9 -69 -22 -79 -97 -71 -92 10 -155 49 -204 127 -22 34
-31 346 -13 437 13 67 72 136 122 143 17 2 466 4 998 3 l967 -1 36 -35z m-994
-480 c54 0 99 -54 106 -128 3 -34 2 -62 -3 -63 -59 -7 -283 -5 -297 2 -28 16
-13 105 25 145 28 30 97 56 126 48 8 -2 27 -4 43 -4z m-419 -51 c31 -36 38
-52 38 -86 0 -54 2 -53 -137 -58 -179 -8 -188 -3 -168 86 19 86 57 111 160
105 68 -4 70 -5 107 -47z m945 45 c60 -16 102 -148 57 -181 -19 -14 -285 -16
-299 -2 -25 26 -16 76 24 126 23 28 49 54 59 56 26 7 134 7 159 1z m-1383
-303 c28 -6 31 -11 41 -71 16 -97 67 -172 126 -185 15 -4 33 -13 40 -21 8 -10
36 -14 108 -14 107 0 164 25 212 90 29 39 41 38 81 -6 106 -116 312 -115 416
2 l34 38 34 -41 c23 -28 45 -43 68 -47 19 -4 39 -13 46 -21 9 -11 36 -15 105
-15 159 0 247 74 262 220 8 76 13 80 98 80 123 0 187 -34 225 -119 18 -40 20
-66 20 -244 1 -223 -7 -251 -82 -307 l-33 -25 -986 0 -986 0 -42 40 c-64 60
-65 62 -67 265 -2 239 6 304 42 333 62 51 147 68 238 48z m452 -6 c69 -14 11
-140 -77 -166 -58 -18 -141 0 -173 38 -32 37 -44 112 -22 129 15 11 217 10
272 -1z m489 1 c39 -17 44 -36 21 -89 -25 -61 -48 -72 -146 -72 -87 0 -89 1
-124 34 -37 36 -56 95 -36 115 6 6 55 14 108 17 53 3 107 6 120 7 12 1 38 -5
57 -12z m512 -12 c33 -44 -16 -138 -80 -155 -50 -14 -150 1 -178 26 -44 41
-70 91 -60 118 12 31 23 32 185 31 104 -1 121 -4 133 -20z"/>
</g>
</svg>
