<?xml version="1.0" standalone="no"?>
<!DOCTYPE svg PUBLIC "-//W3C//DTD SVG 20010904//EN"
 "http://www.w3.org/TR/2001/REC-SVG-20010904/DTD/svg10.dtd">
<svg version="1.0" xmlns="http://www.w3.org/2000/svg"
 width="255.708908pt" height="340.330493pt" viewBox="0 0 255.708908 340.330493"
 preserveAspectRatio="xMidYMid meet">
<metadata>
Created by potrace 1.16, written by Peter Selinger 2001-2019
</metadata>
<g transform="translate(-81.851652,380.345605) scale(0.100000,-0.100000)"
fill="#000000" stroke="none">
<path d="M1543 3783 c-4 -10 -8 -72 -8 -138 l0 -120 30 0 c27 0 30 3 31 31 1
43 10 54 44 54 52 0 102 91 86 155 -5 20 -13 25 -37 25 -30 0 -31 0 -24 -41 5
-31 3 -45 -11 -60 -36 -40 -58 -20 -59 56 0 44 -3 50 -22 53 -13 2 -25 -4 -30
-15z"/>
<path d="M1788 3793 c-14 -26 -6 -172 9 -177 26 -10 31 3 34 94 4 81 3 85 -18
88 -11 2 -23 0 -25 -5z"/>
<path d="M1897 3793 c-15 -14 -8 -160 8 -173 29 -24 45 5 45 84 0 80 -23 119
-53 89z"/>
<path d="M2018 3789 c-66 -38 43 -216 110 -180 42 22 76 80 76 129 1 46 0 47
-32 50 -33 3 -33 3 -31 -36 3 -39 -21 -92 -41 -92 -17 0 -34 44 -35 90 0 48
-14 59 -47 39z"/>
<path d="M2266 3785 c-14 -37 -7 -165 10 -172 28 -11 38 15 39 100 0 76 -2 82
-21 85 -13 2 -24 -4 -28 -13z"/>
<path d="M2367 3793 c-3 -5 -5 -39 -5 -76 1 -73 24 -124 48 -101 14 14 20 142
8 167 -9 17 -43 24 -51 10z"/>
<path d="M2610 3785 c-15 -18 -41 -20 -57 -4 -6 6 -23 9 -39 7 -63 -7 -32
-138 41 -172 34 -17 37 -16 68 1 52 31 49 55 -8 51 -37 -2 -50 1 -59 15 -14
22 5 37 50 37 40 0 73 34 58 58 -15 23 -38 26 -54 7z"/>
<path d="M2770 3132 c-59 -22 -97 -47 -142 -95 -32 -34 -41 -38 -67 -32 -44 9
-100 -27 -164 -107 -28 -37 -76 -83 -105 -105 -59 -43 -68 -63 -65 -148 3
-108 56 -190 139 -213 55 -16 733 -16 789 -1 96 27 165 117 167 218 2 98 -37
159 -135 215 -41 24 -54 39 -82 97 -49 103 -82 132 -193 170 -66 23 -83 23
-142 1z m142 -91 c61 -26 128 -110 128 -160 0 -39 19 -59 72 -76 129 -42 166
-173 73 -261 -45 -42 -61 -44 -435 -43 -385 0 -400 3 -433 93 -28 76 0 135 80
171 20 8 44 33 63 64 41 66 87 95 139 86 35 -6 41 -3 62 25 85 112 158 142
251 101z"/>
<path d="M1560 2730 c-24 -24 -30 -176 -8 -198 36 -36 58 -8 58 73 0 76 -3 75
290 75 268 0 276 2 250 49 -17 32 -558 33 -590 1z"/>
<path d="M1415 2470 c-222 -42 -441 -243 -509 -467 -32 -105 -17 -363 25 -433
5 -8 14 -26 20 -40 15 -33 18 -38 60 -101 100 -152 99 -147 86 -408 -4 -81 67
-55 84 30 28 148 -4 304 -82 394 -23 27 -83 149 -103 211 -24 72 -24 262 -1
335 53 165 204 321 355 367 221 66 434 27 573 -107 123 -118 164 -204 173
-371 7 -123 16 -149 81 -241 36 -52 53 -86 53 -107 0 -36 -6 -41 -62 -50 -58
-10 -65 -28 -75 -192 -6 -80 -15 -147 -24 -165 l-14 -30 -132 -1 c-151 -2
-163 -4 -163 -37 0 -44 22 -50 168 -54 l137 -3 37 34 c55 51 66 80 73 201 9
151 8 150 60 174 102 48 115 115 44 217 -82 116 -99 161 -99 260 0 198 -99
375 -275 491 -22 14 -52 34 -67 45 -15 10 -36 18 -46 18 -11 0 -37 6 -58 14
-47 16 -262 27 -319 16z"/>
<path d="M2980 2335 c-13 -16 -16 -598 -3 -631 9 -23 43 -38 57 -24 14 14 9
639 -6 658 -14 16 -33 15 -48 -3z"/>
<path d="M2546 2324 c-3 -9 -6 -47 -6 -85 0 -86 -5 -89 -164 -89 -122 0 -141
-7 -134 -52 3 -23 4 -23 169 -25 209 -3 202 -7 207 118 4 110 -6 149 -42 149
-13 0 -27 -7 -30 -16z"/>
<path d="M2756 2324 c-3 -9 -6 -94 -6 -190 0 -146 -2 -176 -15 -180 -8 -4
-112 -7 -230 -8 -223 -1 -234 -3 -235 -43 0 -21 32 -45 54 -39 12 3 121 6 244
6 l222 0 23 26 c21 25 22 30 19 222 -2 114 -8 202 -14 210 -15 17 -55 15 -62
-4z"/>
<path d="M2864 1587 c-40 -33 -82 -53 -127 -60 -53 -8 -211 -167 -228 -229
-19 -71 -4 -127 47 -175 l44 -43 298 0 298 0 42 30 c80 60 109 163 63 228 -10
15 -20 32 -22 38 -2 7 -24 27 -48 45 -40 31 -50 43 -71 89 -4 8 -29 33 -56 56
-48 39 -53 40 -131 42 -72 3 -83 0 -109 -21z m177 -89 c16 -12 41 -42 55 -66
14 -24 47 -59 74 -78 73 -52 82 -105 28 -161 l-32 -33 -259 0 c-156 0 -266 4
-277 10 -22 12 -44 82 -36 115 3 13 28 39 56 59 27 20 50 40 50 45 0 30 51 61
100 61 46 0 55 4 83 35 39 44 108 50 158 13z"/>
<path d="M1686 925 c-10 -10 -15 -31 -14 -54 2 -51 -8 -64 -42 -56 -21 5 -35
0 -56 -19 -27 -23 -29 -29 -29 -104 0 -109 20 -132 111 -132 77 0 74 -9 74
195 0 174 -8 205 -44 170z m-27 -179 c7 -8 11 -37 9 -67 -6 -98 -68 -89 -68
11 0 62 30 91 59 56z"/>
<path d="M1202 743 c3 -176 3 -178 26 -181 12 -2 22 1 23 7 0 6 0 83 0 171 0
88 0 165 0 170 -1 6 -12 10 -26 10 l-25 0 2 -177z"/>
<path d="M2400 902 c0 -11 7 -25 15 -32 21 -18 47 -5 43 22 -4 31 -58 40 -58
10z"/>
<path d="M3332 888 c-7 -7 -12 -26 -12 -42 0 -17 -9 -50 -20 -73 -17 -39 -35
-111 -47 -189 -3 -18 0 -35 6 -38 14 -9 61 63 61 96 0 15 11 62 24 105 13 43
26 89 29 101 10 45 -14 67 -41 40z"/>
<path d="M834 864 c-19 -28 -19 -41 -7 -182 9 -103 21 -122 75 -122 33 0 39
31 11 62 -9 10 -18 41 -21 71 -4 49 -2 55 22 70 32 22 32 29 1 63 -14 15 -25
31 -25 35 0 5 -9 13 -20 19 -16 9 -22 6 -36 -16z"/>
<path d="M2276 874 c-9 -8 -16 -23 -16 -32 0 -10 -7 -27 -15 -39 -13 -18 -12
-22 5 -38 17 -15 20 -31 20 -96 0 -72 2 -79 27 -99 46 -36 86 -2 47 41 -29 32
-31 115 -3 145 19 21 21 28 11 42 -14 20 -18 28 -31 65 -12 31 -23 34 -45 11z"/>
<path d="M2755 873 c-14 -13 -15 -34 -9 -147 8 -150 13 -166 55 -166 37 0 45
19 25 59 -24 45 -21 127 4 141 25 13 26 32 1 47 -11 7 -22 25 -26 42 -8 36
-29 46 -50 24z"/>
<path d="M995 783 c-39 -43 -50 -128 -21 -153 8 -6 16 -21 18 -33 7 -52 129
-61 136 -9 3 20 -1 22 -38 22 -33 0 -42 4 -49 23 -12 30 -6 36 41 43 79 13
100 65 46 115 -47 42 -89 40 -133 -8z m100 -43 c11 -17 -42 -35 -60 -20 -8 7
-12 16 -9 21 7 12 61 11 69 -1z"/>
<path d="M1342 787 c-70 -72 -24 -227 67 -227 56 0 88 37 74 85 -7 20 -7 37
-2 41 5 3 9 19 9 35 0 88 -89 127 -148 66z m93 -47 c0 -18 -33 -26 -47 -12 -6
6 -7 15 -3 22 10 16 50 8 50 -10z m9 -69 c10 -15 -12 -61 -28 -61 -25 0 -39
36 -20 54 17 18 40 21 48 7z"/>
<path d="M1816 798 c-24 -21 -26 -31 -28 -107 -1 -83 -1 -84 30 -112 18 -16
39 -29 47 -29 46 0 93 44 81 76 -5 13 -10 13 -37 -1 -38 -20 -59 -13 -59 20 0
21 4 25 32 25 38 0 88 43 88 75 0 63 -103 98 -154 53z m89 -58 c0 -9 -11 -16
-27 -18 -23 -3 -28 1 -28 18 0 17 5 21 28 18 16 -2 27 -9 27 -18z"/>
<path d="M2074 813 c-51 -5 -54 -13 -54 -138 0 -97 7 -119 36 -113 17 3 19 14
22 90 3 99 17 123 51 89 17 -17 21 -34 21 -91 0 -56 3 -72 16 -77 29 -11 44
25 44 104 0 67 -2 75 -31 108 -17 19 -38 34 -48 33 -9 -1 -35 -3 -57 -5z"/>
<path d="M2412 807 c-14 -17 -18 -225 -4 -239 5 -5 18 -8 28 -6 17 3 19 15 21
118 1 127 -12 167 -45 127z"/>
<path d="M2549 791 c-16 -16 -29 -37 -29 -46 0 -29 40 -70 73 -75 26 -4 32
-10 32 -30 0 -32 -38 -40 -66 -14 -29 26 -48 4 -29 -32 27 -50 103 -54 140 -6
33 42 26 68 -30 108 -27 20 -50 42 -50 50 0 16 45 19 55 4 11 -17 35 -11 35 9
0 25 -46 61 -77 61 -14 0 -37 -13 -54 -29z"/>
<path d="M3021 811 c-8 -5 -36 -7 -63 -4 -75 9 -80 0 -75 -131 3 -61 6 -112 6
-114 1 -2 13 -2 29 0 27 3 27 3 27 83 1 105 0 102 35 120 37 19 53 5 80 -72
30 -86 32 -115 10 -157 -10 -22 -17 -43 -14 -47 9 -15 51 -10 65 7 18 22 49
113 49 144 0 14 9 42 20 63 27 51 27 107 0 107 -22 0 -40 -34 -40 -76 0 -38
-21 -25 -50 32 -25 50 -50 64 -79 45z"/>
<path d="M1992 451 c-23 -14 -10 -46 21 -49 26 -3 28 -1 25 25 -3 29 -23 39
-46 24z"/>
<path d="M1262 428 c4 -31 53 -34 53 -3 0 15 -8 21 -28 23 -25 3 -28 0 -25
-20z"/>
<path d="M2434 435 c-4 -9 -2 -21 4 -27 16 -16 47 -5 47 17 0 26 -42 34 -51
10z"/>
<path d="M3061 441 c-14 -9 -9 -41 6 -41 25 1 38 19 23 34 -10 10 -20 12 -29
7z"/>
</g>
</svg>
