<?xml version="1.0" standalone="no"?>
<!DOCTYPE svg PUBLIC "-//W3C//DTD SVG 20010904//EN"
 "http://www.w3.org/TR/2001/REC-SVG-20010904/DTD/svg10.dtd">
<svg version="1.0" xmlns="http://www.w3.org/2000/svg"
 width="227.603168pt" height="229.293385pt" viewBox="0 0 227.603168 229.293385"
 preserveAspectRatio="xMidYMid meet">
<metadata>
Created by potrace 1.16, written by Peter Selinger 2001-2019
</metadata>
<g transform="translate(-45.358635,273.430523) scale(0.100000,-0.100000)"
fill="#000000" stroke="none">
<path d="M1420 2726 c-52 -6 -105 -17 -117 -24 -12 -7 -31 -12 -42 -12 -11 0
-42 -10 -68 -21 -27 -12 -68 -30 -93 -41 -25 -11 -52 -23 -60 -29 -8 -5 -31
-18 -52 -29 -20 -11 -38 -23 -40 -27 -1 -5 -43 -41 -92 -81 -127 -104 -256
-272 -312 -407 -30 -73 -74 -237 -74 -276 0 -16 -5 -60 -12 -97 -19 -110 22
-178 81 -134 24 18 26 26 32 118 16 256 108 454 300 651 123 126 269 221 369
239 19 4 45 13 57 20 13 8 44 17 70 20 27 4 73 13 103 20 70 18 179 18 249 0
31 -8 79 -18 106 -24 83 -16 258 -87 310 -127 17 -12 35 -24 40 -26 6 -2 27
-15 48 -28 55 -34 46 -54 -28 -64 -113 -16 -136 -39 -89 -88 l28 -29 148 0
c202 0 198 -4 198 187 0 109 -3 143 -16 161 -33 47 -101 9 -106 -61 -4 -59
-28 -61 -87 -4 -42 41 -218 137 -250 137 -6 0 -22 6 -34 14 -21 14 -106 39
-192 57 -72 15 -277 18 -375 5z"/>
<path d="M1299 2147 c-123 -35 -213 -138 -228 -264 -8 -67 7 -193 27 -228 55
-98 92 -213 92 -291 0 -70 23 -199 46 -253 40 -97 149 -171 203 -139 62 38
103 149 103 288 0 37 26 80 48 80 24 0 40 -28 40 -72 0 -18 7 -60 16 -93 8
-33 19 -77 23 -98 9 -40 45 -85 86 -107 20 -11 30 -9 68 9 42 20 59 40 112
126 22 34 39 119 59 290 11 90 23 139 47 195 70 165 76 284 19 405 -68 143
-193 186 -392 136 l-87 -22 -67 21 c-88 27 -159 33 -215 17z m202 -136 c15
-12 39 -21 52 -21 13 0 38 -5 56 -11 29 -10 37 -8 83 21 144 89 296 3 298
-170 0 -49 -14 -95 -81 -269 -20 -53 -30 -100 -35 -170 -3 -53 -12 -116 -19
-141 -8 -25 -16 -62 -20 -83 -6 -34 -9 -38 -33 -35 -24 3 -28 9 -35 53 -27
163 -75 267 -134 292 -107 44 -176 -41 -205 -252 -14 -105 -14 -105 -39 -105
-37 0 -59 28 -59 74 0 23 -5 57 -10 76 -5 19 -16 92 -24 161 -13 111 -19 133
-51 188 -19 35 -38 75 -41 90 -3 14 -10 45 -16 69 -18 71 4 140 64 201 55 56
68 61 157 56 45 -2 71 -9 92 -24z"/>
<path d="M2643 1645 c-17 -12 -22 -29 -27 -97 -10 -140 -23 -216 -40 -242 -9
-14 -16 -36 -16 -48 0 -13 -7 -34 -15 -48 -7 -14 -21 -38 -29 -55 -84 -162
-131 -225 -256 -338 -88 -81 -192 -147 -270 -171 -25 -8 -58 -21 -75 -30 -16
-9 -40 -16 -53 -16 -13 0 -37 -8 -55 -17 -48 -27 -396 -27 -444 -1 -18 10 -43
18 -56 18 -13 0 -35 8 -48 19 -13 10 -40 21 -59 25 -40 7 -104 38 -169 80 -24
15 -56 32 -72 38 -62 21 -48 68 20 68 70 0 102 27 81 67 l-16 28 -144 7 c-200
10 -189 20 -186 -171 3 -159 9 -181 51 -181 31 0 45 21 53 77 9 60 31 67 77
23 33 -32 61 -49 155 -95 106 -52 135 -64 165 -71 17 -4 39 -12 50 -18 11 -6
49 -16 85 -23 36 -6 85 -16 110 -22 55 -12 189 -13 250 -1 25 5 80 15 122 23
42 7 82 18 90 24 7 6 29 14 48 18 19 4 76 27 125 52 234 114 371 248 485 473
18 36 39 72 45 80 7 8 16 26 20 40 3 14 12 39 20 55 28 64 55 195 61 296 6
100 5 108 -15 128 -25 25 -39 26 -68 6z"/>
</g>
</svg>
