<?xml version="1.0" standalone="no"?>
<!DOCTYPE svg PUBLIC "-//W3C//DTD SVG 20010904//EN"
 "http://www.w3.org/TR/2001/REC-SVG-20010904/DTD/svg10.dtd">
<svg version="1.0" xmlns="http://www.w3.org/2000/svg"
 width="229.538338pt" height="238.362896pt" viewBox="0 0 229.538338 238.362896"
 preserveAspectRatio="xMidYMid meet">
<metadata>
Created by potrace 1.16, written by Peter Selinger 2001-2019
</metadata>
<g transform="translate(-47.284410,281.650113) scale(0.100000,-0.100000)"
fill="#000000" stroke="none">
<path d="M758 2811 c-47 -7 -80 -28 -101 -66 -7 -12 -14 -90 -17 -193 -6 -196
0 -182 -100 -242 -23 -14 -47 -34 -53 -45 -9 -15 -12 -246 -13 -867 -2 -963
-8 -892 82 -939 l51 -26 879 4 c483 2 896 3 916 3 45 0 114 55 125 99 3 14 12
35 19 46 8 11 14 32 14 48 0 16 8 46 19 66 10 20 23 59 29 86 30 144 84 376
97 415 8 25 17 63 21 85 4 22 13 52 21 68 19 38 29 177 14 205 -6 12 -36 40
-66 62 l-55 41 0 285 c0 297 -2 314 -44 344 -81 57 -103 88 -110 156 -8 83
-35 135 -81 163 -35 20 -48 21 -333 21 -163 0 -333 3 -377 6 l-81 7 -54 68
c-89 114 -46 103 -423 105 -183 1 -353 -1 -379 -5z m732 -173 c41 -44 88 -87
105 -93 21 -9 132 -13 384 -14 360 -2 381 -4 401 -41 18 -34 27 -835 9 -846
-8 -5 -336 -9 -769 -10 -743 0 -756 -1 -795 -21 -22 -12 -49 -30 -59 -42 -11
-12 -24 -21 -30 -21 -17 0 -11 1151 6 1161 7 5 162 9 343 9 l330 0 75 -82z
m1048 -400 c9 -9 12 -90 12 -305 0 -290 0 -292 -22 -304 -45 -24 -48 -1 -48
323 l0 298 23 0 c13 0 28 -5 35 -12z m-1917 -9 c20 -10 20 -20 18 -348 -1
-186 2 -345 7 -352 25 -39 -6 -353 -39 -395 -46 -59 -47 -43 -47 542 0 507 1
544 18 553 21 13 20 13 43 0z m2046 -701 c18 -15 16 -62 -6 -116 -10 -26 -23
-69 -29 -97 -6 -27 -15 -70 -21 -95 -6 -25 -23 -97 -37 -160 -14 -63 -30 -128
-36 -145 -6 -16 -16 -52 -22 -80 -6 -27 -17 -59 -23 -70 -6 -11 -15 -38 -19
-60 -10 -58 -59 -161 -79 -169 -9 -3 -409 -6 -889 -6 -862 0 -874 0 -899 20
-35 28 -42 56 -23 85 9 14 19 46 23 72 3 27 10 57 16 68 6 11 16 49 22 85 7
36 17 79 23 95 27 77 102 381 102 413 0 48 56 136 100 156 49 22 1771 26 1797
4z"/>
<path d="M1095 2502 c-158 -3 -160 -3 -188 -30 -32 -30 -57 -79 -57 -113 0
-12 -12 -38 -26 -57 l-27 -35 1 -276 c1 -152 1 -288 2 -302 0 -39 30 -46 57
-14 23 26 23 31 23 289 0 343 -25 311 238 311 188 0 202 -1 229 -21 66 -49 53
-53 -172 -52 -163 0 -210 -3 -220 -13 -15 -16 -25 -464 -11 -487 9 -15 39 -15
54 0 7 7 12 34 12 61 0 85 -2 83 182 92 l162 7 51 -57 c68 -77 77 -78 475 -79
l324 -1 16 28 c29 53 14 55 -326 55 -168 0 -319 -4 -336 -9 -35 -9 -66 16
-102 83 -35 64 -62 71 -248 63 -196 -9 -198 -8 -198 85 0 32 5 71 10 85 l10
27 113 -5 c61 -3 127 -8 145 -12 29 -7 38 -3 67 25 38 37 47 34 75 -20 11 -21
36 -51 57 -67 l36 -28 361 0 c199 -1 367 -4 374 -9 14 -8 17 -164 4 -211 -6
-20 -4 -41 5 -63 12 -30 17 -33 51 -30 l37 3 -2 189 c-2 118 -7 194 -13 200
-7 7 -141 12 -406 13 -343 1 -399 4 -420 18 -29 19 -32 51 -5 60 33 10 763 -3
775 -15 16 -16 63 -12 70 6 12 32 5 57 -28 97 -18 23 -37 56 -41 74 -3 18 -21
45 -41 63 l-35 30 -347 -2 c-346 -1 -347 -1 -392 22 -50 26 -76 27 -375 22z
m325 -105 c43 -21 58 -22 415 -27 l370 -5 9 -28 c8 -22 7 -30 -4 -37 -21 -13
-757 -13 -765 0 -4 6 -25 20 -48 32 -38 19 -63 22 -245 26 -212 5 -233 10
-202 47 10 12 48 15 219 15 193 0 209 -2 251 -23z"/>
<path d="M1682 1948 c-16 -16 -15 -55 1 -65 17 -11 448 -12 470 -1 20 10 23
48 5 66 -17 17 -459 17 -476 0z"/>
<path d="M2128 822 c-11 -8 -18 -23 -16 -35 3 -21 8 -22 144 -25 122 -2 142 0
148 13 13 36 -11 55 -72 56 -165 4 -186 3 -204 -9z"/>
<path d="M1950 690 l-185 -5 -3 -26 c-5 -39 75 -68 106 -37 9 9 20 9 45 1 52
-19 446 -20 458 -2 43 68 -29 80 -421 69z"/>
</g>
</svg>
