<?xml version="1.0" standalone="no"?>
<!DOCTYPE svg PUBLIC "-//W3C//DTD SVG 20010904//EN"
 "http://www.w3.org/TR/2001/REC-SVG-20010904/DTD/svg10.dtd">
<svg version="1.0" xmlns="http://www.w3.org/2000/svg"
 width="188.308151pt" height="236.296484pt" viewBox="0 0 188.308151 236.296484"
 preserveAspectRatio="xMidYMid meet">
<metadata>
Created by potrace 1.16, written by Peter Selinger 2001-2019
</metadata>
<g transform="translate(-68.045370,280.595301) scale(0.100000,-0.100000)"
fill="#000000" stroke="none">
<path d="M1140 2800 c-76 -9 -151 -34 -200 -67 -19 -13 -49 -32 -66 -43 -42
-27 -138 -165 -165 -236 -25 -69 -38 -276 -21 -359 29 -143 36 -171 48 -186 8
-8 14 -22 14 -30 0 -8 9 -32 20 -54 11 -22 20 -44 20 -50 1 -27 94 -189 123
-213 25 -21 179 -38 215 -23 57 24 73 51 88 158 20 135 30 160 72 188 87 57
566 61 657 5 46 -28 85 -105 92 -179 9 -101 28 -146 73 -166 64 -29 192 -7
250 42 28 23 90 139 90 167 0 6 7 24 15 40 9 16 20 46 25 65 5 20 15 56 24 81
49 149 50 153 49 291 0 105 -4 144 -17 169 -9 18 -16 38 -16 43 0 40 -104 207
-155 249 -37 31 -125 78 -145 78 -9 0 -26 8 -40 17 -35 24 -260 26 -311 2 -19
-9 -54 -22 -79 -29 -25 -6 -67 -18 -95 -26 -57 -17 -161 -13 -222 10 -151 56
-233 69 -343 56z m190 -130 c19 -5 80 -23 135 -40 144 -45 206 -43 360 10 118
42 120 42 235 38 95 -3 122 -8 158 -27 54 -28 129 -96 138 -124 4 -12 15 -33
25 -46 11 -13 19 -31 19 -40 0 -9 8 -29 17 -46 25 -43 26 -289 1 -355 -9 -25
-19 -60 -23 -78 -4 -18 -13 -45 -21 -60 -8 -15 -14 -33 -14 -40 0 -39 -55
-166 -82 -193 -30 -28 -79 -39 -103 -21 -11 7 -26 63 -46 171 -23 120 -79 173
-219 205 -88 20 -526 18 -615 -2 -117 -28 -183 -122 -185 -262 -1 -114 -106
-165 -144 -70 -8 21 -20 41 -26 45 -5 3 -10 13 -10 22 0 9 -12 41 -26 72 -84
179 -97 231 -97 401 -1 159 6 183 76 287 41 62 133 132 202 154 31 11 206 10
245 -1z"/>
<path d="M1426 1726 c-21 -8 -45 -21 -53 -28 -21 -21 -52 -148 -59 -242 -8
-102 -17 -112 -119 -146 -106 -36 -146 -80 -160 -175 -4 -28 -13 -66 -21 -85
-7 -19 -15 -51 -18 -71 -4 -21 -13 -42 -21 -49 -7 -6 -16 -24 -20 -39 -3 -16
-32 -55 -64 -88 -129 -135 -129 -163 6 -258 119 -84 678 -129 1068 -85 483 54
594 156 386 355 -46 44 -92 133 -108 210 -46 219 -58 243 -131 275 -24 11 -65
22 -92 26 -67 9 -75 25 -93 180 -17 151 -37 196 -97 215 -57 19 -357 22 -404
5z m342 -119 c37 -39 92 -407 68 -457 -23 -49 -75 -63 -226 -58 -187 7 -210
17 -210 96 0 66 43 373 54 391 24 38 70 51 182 51 103 0 112 -2 132 -23z m265
-402 c56 -23 74 -55 82 -143 3 -42 12 -93 20 -112 7 -19 16 -49 19 -67 6 -37
18 -52 99 -132 71 -71 73 -91 10 -118 -241 -105 -1046 -106 -1270 -1 -24 10
-45 23 -47 27 -7 10 31 71 44 71 15 0 90 119 97 154 3 17 12 40 19 51 6 11 15
46 19 78 12 102 37 159 78 182 51 28 72 14 73 -47 1 -52 22 -84 81 -126 l38
-27 230 0 230 0 38 30 c49 38 67 73 67 129 0 39 11 60 36 66 1 0 17 -7 37 -15z"/>
</g>
</svg>
