<?xml version="1.0" standalone="no"?>
<!DOCTYPE svg PUBLIC "-//W3C//DTD SVG 20010904//EN"
 "http://www.w3.org/TR/2001/REC-SVG-20010904/DTD/svg10.dtd">
<svg version="1.0" xmlns="http://www.w3.org/2000/svg"
 width="238.578505pt" height="235.883687pt" viewBox="0 0 238.578505 235.883687"
 preserveAspectRatio="xMidYMid meet">
<metadata>
Created by potrace 1.16, written by Peter Selinger 2001-2019
</metadata>
<g transform="translate(-47.158606,287.998752) scale(0.100000,-0.100000)"
fill="#000000" stroke="none">
<path d="M2184 2857 c-17 -12 -44 -31 -60 -42 -45 -31 -154 -150 -182 -197
-38 -66 -36 -130 7 -191 42 -61 37 -72 -67 -166 -41 -36 -90 -88 -109 -114
-20 -26 -73 -79 -119 -118 -75 -63 -87 -69 -127 -69 -26 0 -49 -6 -56 -14 -7
-8 -24 -17 -38 -21 -16 -4 -202 -182 -495 -475 -445 -444 -469 -470 -466 -501
8 -82 60 -64 195 68 60 60 143 140 184 179 41 40 157 158 259 263 102 105 190
191 196 191 23 0 255 -242 261 -271 5 -26 -3 -37 -72 -101 -94 -89 -452 -448
-575 -578 -74 -78 -90 -100 -90 -126 0 -38 20 -57 54 -52 44 5 929 897 970
977 8 14 21 53 29 84 16 60 52 114 146 217 28 30 51 60 51 66 0 6 10 23 23 37
40 48 67 85 67 95 0 5 9 17 20 27 11 10 20 23 20 30 0 15 43 55 59 55 7 0 24
-9 37 -19 51 -40 174 -16 224 43 24 30 49 16 145 -79 104 -104 137 -121 169
-86 31 34 12 67 -95 175 -106 106 -110 113 -79 141 11 10 20 26 20 35 0 10 7
23 15 30 23 19 19 91 -7 137 -44 75 -272 315 -352 369 -46 32 -118 32 -162 1z
m141 -139 c143 -126 275 -278 275 -318 0 -30 -52 -103 -107 -152 -98 -85 -145
-68 -328 123 -114 118 -127 138 -121 173 7 32 10 37 82 111 116 119 129 123
199 63z m-205 -465 c46 -42 49 -63 18 -103 -13 -16 -41 -54 -63 -84 -22 -31
-59 -81 -82 -112 -24 -31 -43 -60 -43 -64 0 -19 -82 -110 -98 -110 -28 0 -132
98 -132 124 0 16 48 72 158 186 86 89 160 171 164 181 11 28 33 23 78 -18z
m-524 -413 c17 0 194 -180 194 -196 0 -15 -10 -34 -59 -109 -30 -47 -40 -55
-65 -55 -16 0 -227 208 -250 247 -18 32 104 129 149 118 11 -3 25 -5 31 -5z"/>
</g>
</svg>
