<?xml version="1.0" standalone="no"?>
<!DOCTYPE svg PUBLIC "-//W3C//DTD SVG 20010904//EN"
 "http://www.w3.org/TR/2001/REC-SVG-20010904/DTD/svg10.dtd">
<svg version="1.0" xmlns="http://www.w3.org/2000/svg"
 width="243.704852pt" height="160.600353pt" viewBox="0 0 243.704852 160.600353"
 preserveAspectRatio="xMidYMid meet">
<metadata>
Created by potrace 1.16, written by Peter Selinger 2001-2019
</metadata>
<g transform="translate(-43.500000,247.600353) scale(0.100000,-0.100000)"
fill="#000000" stroke="none">
<path d="M599 2461 c-60 -17 -98 -45 -139 -101 l-25 -35 0 -655 0 -656 40 -48
c25 -31 58 -57 91 -72 l53 -24 1043 0 c1041 0 1043 0 1083 21 60 32 93 67 110
120 23 67 23 1223 0 1308 -16 62 -53 106 -111 132 -58 26 -2053 35 -2145 10z
m2065 -111 c22 -5 51 -20 65 -34 l25 -26 1 -608 c0 -564 -1 -610 -18 -635 -39
-60 18 -57 -1082 -57 -1064 0 -1047 -1 -1085 45 -19 23 -29 1174 -11 1236 23
77 3 73 475 79 758 10 1590 10 1630 0z"/>
<path d="M865 2170 c-59 -21 -112 -70 -139 -125 -10 -22 -25 -52 -33 -67 -18
-36 -17 -167 1 -194 8 -11 17 -36 21 -56 4 -20 16 -44 26 -54 10 -9 19 -28 19
-41 0 -13 6 -36 14 -51 7 -15 16 -61 20 -102 7 -74 30 -189 49 -243 16 -47 72
-87 119 -87 55 0 118 63 118 119 0 20 5 54 11 76 6 22 15 59 20 83 13 52 49
62 49 14 0 -16 9 -64 20 -107 11 -43 20 -88 20 -101 0 -78 127 -115 187 -55
50 50 87 170 99 325 6 73 13 100 40 153 19 36 34 70 34 76 1 7 9 30 20 52 54
111 -5 273 -130 360 -50 34 -164 42 -251 17 -40 -12 -55 -12 -106 1 -98 26
-171 28 -228 7z m221 -136 l81 -36 65 31 c96 46 154 38 215 -29 36 -41 33
-159 -7 -242 -55 -112 -78 -196 -85 -308 -7 -115 -20 -155 -50 -155 -18 0 -21
9 -26 75 -4 41 -14 89 -23 105 -9 17 -16 37 -16 47 0 24 -73 78 -107 78 -77 0
-116 -61 -137 -215 -20 -148 -85 -97 -86 67 0 67 -28 206 -45 228 -41 51 -67
135 -67 214 l0 80 53 48 c69 63 115 65 235 12z"/>
<path d="M1795 2040 c-54 -21 -56 -65 -3 -92 53 -28 746 -22 777 6 27 25 27
61 -1 81 -25 17 -730 22 -773 5z"/>
<path d="M1778 1779 c-35 -26 -35 -52 -2 -78 26 -20 37 -21 401 -21 l374 0 24
25 c29 28 31 38 9 59 -31 32 -55 34 -414 35 -355 1 -366 0 -392 -20z"/>
<path d="M1915 1480 c-33 -3 -71 -13 -86 -22 -101 -69 -98 -221 6 -267 58 -26
628 -24 686 2 95 42 88 218 -11 268 -37 18 -454 32 -595 19z m537 -114 c28
-14 33 -35 14 -61 -13 -18 -27 -19 -292 -16 -153 1 -282 4 -286 7 -12 8 -9 59
4 72 17 17 525 15 560 -2z"/>
</g>
</svg>
