<?xml version="1.0" standalone="no"?>
<!DOCTYPE svg PUBLIC "-//W3C//DTD SVG 20010904//EN"
 "http://www.w3.org/TR/2001/REC-SVG-20010904/DTD/svg10.dtd">
<svg version="1.0" xmlns="http://www.w3.org/2000/svg"
 width="238.778870pt" height="237.828580pt" viewBox="0 0 238.778870 237.828580"
 preserveAspectRatio="xMidYMid meet">
<metadata>
Created by potrace 1.16, written by Peter Selinger 2001-2019
</metadata>
<g transform="translate(-40.031543,280.824889) scale(0.100000,-0.100000)"
fill="#000000" stroke="none">
<path d="M2663 2771 c-26 -21 -99 -91 -160 -155 -118 -121 -125 -126 -173
-101 -44 23 -74 10 -141 -56 -64 -65 -74 -68 -112 -39 -56 45 -53 47 -429
-332 -192 -194 -397 -401 -456 -460 -105 -107 -139 -127 -159 -95 -13 20 -81
67 -113 79 -42 14 -68 5 -122 -44 -76 -70 -79 -108 -13 -180 109 -118 155
-171 155 -179 0 -12 -317 -329 -329 -329 -6 0 -37 27 -69 60 -33 33 -67 60
-76 60 -20 0 -65 -48 -66 -69 0 -27 482 -501 511 -501 77 0 85 68 16 138 -26
26 -47 54 -47 62 0 8 44 57 98 110 54 52 120 121 146 153 66 78 77 77 172 -28
131 -145 156 -150 252 -55 79 78 78 106 -7 204 -47 54 -48 59 -20 85 12 10 25
23 29 27 5 5 105 111 224 235 118 124 266 275 328 335 172 167 308 316 308
339 0 5 -9 25 -20 43 -30 48 -26 61 42 129 66 67 70 78 53 168 -7 38 -4 43 36
89 56 61 151 157 217 219 58 53 63 73 29 105 -32 30 -48 28 -104 -17z m-322
-401 c42 -34 42 -45 -3 -98 -33 -39 -63 -41 -100 -5 -38 36 -35 54 12 97 48
43 43 43 91 6z m-188 -190 c54 -52 102 -96 108 -98 35 -13 3 -58 -152 -214
-564 -571 -693 -698 -709 -693 -9 3 -30 23 -46 45 -16 21 -64 69 -106 106 -95
82 -98 100 -34 162 53 51 74 52 125 7 44 -40 52 -41 86 -19 38 25 33 62 -15
109 -49 48 -50 62 -6 104 41 40 54 37 118 -24 54 -51 60 -53 88 -25 32 32 20
72 -37 127 -32 31 -29 45 17 87 47 42 61 39 107 -19 34 -43 54 -44 87 -4 34
40 34 42 -19 98 -54 57 -54 56 -13 98 38 39 64 42 80 8 6 -14 27 -35 46 -47
34 -21 34 -21 60 -1 41 31 39 61 -7 108 -37 36 -57 95 -33 95 4 0 33 25 65 56
68 64 49 71 190 -66z m-1136 -792 c55 -57 129 -130 164 -163 99 -94 279 -294
279 -310 0 -37 -48 -14 -102 47 -29 35 -66 74 -83 87 -16 13 -90 85 -164 160
-250 255 -245 249 -231 266 21 26 34 18 137 -87z m60 -300 c13 -12 23 -27 23
-34 0 -21 -112 -146 -186 -209 -37 -31 -77 -71 -88 -88 -29 -42 -61 -46 -97
-11 -16 15 -29 32 -29 38 0 18 314 324 334 325 11 0 30 -9 43 -21z"/>
</g>
</svg>
