<?xml version="1.0" standalone="no"?>
<!DOCTYPE svg PUBLIC "-//W3C//DTD SVG 20010904//EN"
 "http://www.w3.org/TR/2001/REC-SVG-20010904/DTD/svg10.dtd">
<svg version="1.0" xmlns="http://www.w3.org/2000/svg"
 width="242.247531pt" height="221.308712pt" viewBox="0 0 242.247531 221.308712"
 preserveAspectRatio="xMidYMid meet">
<metadata>
Created by potrace 1.16, written by Peter Selinger 2001-2019
</metadata>
<g transform="translate(-45.949153,275.624467) scale(0.100000,-0.100000)"
fill="#000000" stroke="none">
<path d="M1300 2751 c-30 -4 -109 -13 -175 -20 -66 -7 -131 -19 -146 -26 -14
-8 -50 -17 -80 -21 -29 -3 -63 -12 -74 -19 -11 -6 -33 -15 -50 -19 -28 -7 -67
-23 -155 -64 -52 -25 -140 -101 -151 -131 -6 -14 -10 -102 -9 -196 4 -324 3
-310 29 -346 19 -26 25 -47 27 -108 5 -90 8 -104 45 -159 50 -74 42 -120 -30
-198 -71 -76 -76 -102 -69 -399 l4 -184 40 -47 c42 -50 206 -144 250 -144 12
0 27 -6 33 -14 6 -7 34 -17 63 -20 28 -4 64 -14 79 -22 15 -7 43 -14 61 -14
19 0 58 -7 88 -16 234 -66 1088 -48 1315 28 17 5 50 14 75 19 25 5 59 15 75
23 17 8 62 26 101 41 97 37 181 101 211 162 22 46 23 58 23 275 0 249 1 246
-69 318 -65 68 -78 128 -38 177 33 39 38 56 46 155 7 72 13 95 35 127 l28 39
0 224 c0 122 0 235 -1 250 -2 47 -130 167 -195 184 -14 3 -43 15 -63 25 -21
10 -47 19 -58 19 -12 0 -25 4 -30 9 -17 17 -167 52 -260 62 -49 5 -115 14
-145 20 -64 13 -746 21 -830 10z m750 -117 c69 -3 145 -12 170 -19 25 -7 69
-16 99 -20 59 -7 171 -39 213 -61 14 -8 35 -14 46 -14 10 0 30 -8 43 -18 13
-11 35 -22 49 -25 27 -7 90 -60 90 -76 0 -47 -112 -115 -245 -149 -44 -12 -98
-28 -120 -36 -22 -8 -59 -15 -81 -16 -23 0 -60 -7 -83 -15 -26 -9 -141 -20
-314 -31 -295 -18 -545 -11 -747 22 -52 8 -124 20 -159 25 -36 6 -74 17 -85
25 -11 8 -32 14 -46 14 -88 0 -310 106 -310 149 0 22 57 76 90 86 14 4 41 16
60 26 19 11 43 19 54 19 11 0 27 7 36 15 9 8 40 19 68 25 29 5 60 14 70 19 10
5 55 15 101 21 46 6 94 15 108 21 13 5 61 9 106 10 45 1 120 5 167 9 86 8 389
5 620 -6z m-1335 -467 c33 -11 75 -26 94 -34 19 -8 57 -17 85 -20 28 -2 67
-11 86 -18 19 -7 69 -16 110 -20 41 -3 109 -13 150 -21 106 -21 737 -21 860 0
47 8 112 17 145 20 93 10 188 33 335 83 74 25 146 46 160 47 l25 1 -4 -100
c-4 -114 -9 -125 -60 -124 -51 1 -112 -23 -149 -61 -30 -30 -33 -30 -54 -16
-39 27 -81 20 -139 -24 -62 -46 -63 -46 -96 -20 -48 37 -142 21 -192 -34 -29
-31 -45 -33 -63 -7 -54 77 -233 78 -303 1 -19 -21 -50 -27 -60 -11 -3 6 -27
24 -53 42 -76 53 -180 41 -283 -33 -14 -9 -24 -6 -56 20 -71 56 -119 62 -172
20 -29 -22 -36 -23 -59 0 -55 55 -131 76 -175 47 -21 -13 -25 -12 -65 25 -24
22 -49 40 -56 40 -8 0 -19 7 -26 15 -16 19 -54 19 -70 1 -31 -38 -55 13 -64
135 -7 92 1 105 53 82 20 -8 63 -24 96 -36z m6 -378 c22 -68 23 -72 5 -84 -31
-23 -59 -4 -79 56 -22 64 -12 99 27 99 21 0 27 -9 47 -71z m1971 46 c30 -66
-35 -186 -77 -144 -21 21 -5 112 25 144 29 31 38 31 52 0z m-1732 -80 c36 -58
12 -145 -40 -145 -33 0 -70 49 -70 94 0 85 70 116 110 51z m1511 14 c18 -34 7
-136 -17 -154 -23 -17 -70 -20 -80 -3 -12 20 -5 87 13 116 41 67 64 78 84 41z
m-913 -37 c32 -38 41 -63 48 -141 10 -105 4 -111 -111 -111 -51 0 -100 3 -109
6 -26 10 -22 162 5 215 36 71 120 87 167 31z m-372 20 c44 -28 78 -201 44
-222 -47 -30 -161 26 -146 72 3 7 10 39 16 70 15 76 47 106 86 80z m740 -16
c26 -22 28 -30 34 -127 4 -63 3 -109 -3 -116 -6 -9 -43 -13 -120 -13 l-110 0
6 78 c11 140 49 202 123 202 31 0 51 -7 70 -24z m280 16 c23 -15 34 -53 34
-119 0 -94 -10 -105 -85 -101 -59 3 -59 3 -66 37 -22 106 54 225 117 183z
m-1425 -210 c13 -10 32 -21 42 -25 28 -10 12 -73 -27 -106 -44 -37 -116 43
-96 105 16 47 42 56 81 26z m1840 8 c15 -9 19 -22 19 -62 0 -75 -36 -107 -90
-78 -23 12 -50 92 -34 97 6 2 26 15 44 28 39 29 36 28 61 15z m-1581 -95 c50
-26 51 -75 3 -127 -27 -29 -68 -23 -77 11 -31 110 -2 155 74 116z m1348 -45
c6 -80 -41 -130 -84 -89 -38 36 -34 103 7 128 47 29 73 15 77 -39z m-1074 -30
c30 -30 -3 -140 -43 -140 -43 0 -90 107 -63 146 16 24 79 21 106 -6z m828 6
c25 -38 -26 -145 -69 -146 -45 0 -70 91 -38 137 23 32 88 38 107 9z m-548 -26
c16 -15 -5 -112 -30 -137 -33 -33 -56 -18 -84 57 -22 58 -22 61 -5 80 18 20
97 19 119 0z m-921 -41 c51 -41 52 -41 116 -35 l64 6 49 -49 c58 -58 95 -69
163 -46 l46 16 44 -40 c68 -62 136 -76 183 -36 39 33 46 32 102 -15 66 -56
127 -57 188 -4 l42 35 46 -35 c71 -54 155 -45 210 22 l22 26 41 -28 c37 -26
46 -28 92 -22 44 6 107 37 117 57 19 40 29 44 71 25 64 -30 111 -18 175 43 52
49 55 50 91 40 56 -16 104 -3 157 42 58 49 68 44 68 -30 0 -55 -2 -59 -38 -88
-20 -17 -48 -34 -62 -38 -14 -4 -34 -14 -45 -21 -11 -8 -32 -14 -48 -14 -16 0
-41 -6 -55 -14 -15 -8 -63 -22 -107 -31 -44 -9 -109 -22 -145 -30 -36 -8 -101
-16 -145 -19 -44 -3 -116 -10 -160 -16 -105 -13 -494 -13 -570 0 -33 6 -108
15 -168 20 -169 14 -407 70 -492 114 -16 9 -37 16 -46 16 -9 0 -22 7 -29 15
-7 8 -18 15 -26 15 -35 0 -58 95 -34 141 15 27 24 24 83 -22z m1201 25 c7 -19
-3 -64 -19 -84 -6 -8 -15 -23 -18 -33 -10 -29 -38 -33 -58 -9 -18 23 -35 114
-24 132 11 17 112 13 119 -6z m-1226 -284 c42 -22 183 -66 257 -79 28 -5 63
-14 78 -20 16 -6 42 -11 59 -11 16 0 56 -6 87 -14 45 -12 369 -39 481 -40 217
-2 582 24 621 44 10 6 36 10 59 10 23 0 74 9 113 19 40 11 99 27 132 36 33 9
78 21 100 27 22 6 49 19 61 29 11 11 30 19 42 19 21 0 22 -4 22 -84 0 -79 -1
-85 -31 -115 -35 -38 -113 -81 -143 -81 -12 0 -31 -7 -43 -15 -12 -9 -41 -19
-65 -24 -24 -5 -61 -16 -83 -25 -22 -8 -57 -15 -77 -16 -21 0 -55 -6 -75 -14
-21 -8 -72 -17 -113 -21 -41 -3 -136 -13 -210 -22 -145 -17 -407 -13 -545 8
-38 6 -115 14 -170 19 -127 12 -247 37 -377 81 -223 74 -258 107 -258 245 0
74 11 80 78 44z"/>
</g>
</svg>
