<?xml version="1.0" standalone="no"?>
<!DOCTYPE svg PUBLIC "-//W3C//DTD SVG 20010904//EN"
 "http://www.w3.org/TR/2001/REC-SVG-20010904/DTD/svg10.dtd">
<svg version="1.0" xmlns="http://www.w3.org/2000/svg"
 width="247.777247pt" height="234.827491pt" viewBox="0 0 247.777247 234.827491"
 preserveAspectRatio="xMidYMid meet">
<metadata>
Created by potrace 1.16, written by Peter Selinger 2001-2019
</metadata>
<g transform="translate(-41.015717,286.827491) scale(0.100000,-0.100000)"
fill="#000000" stroke="none">
<path d="M515 2851 c-48 -22 -69 -44 -90 -94 -13 -32 -15 -156 -15 -1004 l0
-968 23 -40 c12 -22 44 -55 71 -72 l48 -33 508 0 c554 0 535 -2 528 57 l-3 28
-500 1 c-275 0 -509 4 -521 8 -11 3 -31 18 -44 31 l-24 25 0 845 c-1 553 2
847 9 854 11 11 1776 18 1794 6 8 -4 11 -161 11 -493 0 -425 2 -490 16 -510
22 -31 12 -39 -53 -44 -77 -7 -95 1 -133 61 -41 63 -48 65 -270 59 -152 -3
-172 -6 -197 -24 l-28 -21 -3 -465 -2 -465 40 -37 40 -36 488 0 c458 0 489 1
518 19 34 21 55 67 78 176 9 39 20 88 25 110 6 22 15 67 21 100 7 33 16 78 22
100 6 22 13 73 15 112 5 81 -15 114 -81 131 -29 8 -31 12 -36 60 -4 42 -12 59
-38 85 l-32 32 -144 1 c-186 2 -222 10 -181 44 13 11 15 94 15 640 l0 627 -23
34 c-52 78 3 74 -957 76 -813 3 -857 2 -895 -16z m1081 -60 l641 -1 34 -23
c31 -21 34 -27 37 -82 2 -33 1 -69 -3 -82 l-5 -23 -894 0 c-703 0 -896 3 -903
13 -6 6 -10 42 -11 78 0 60 2 69 26 92 38 35 37 35 247 32 105 -2 478 -4 831
-4z m472 -1317 c10 -11 29 -36 43 -54 32 -42 80 -48 366 -49 l181 -1 26 -31
c50 -59 51 -59 -419 -59 l-423 0 -25 -29 c-15 -19 -27 -48 -31 -82 -4 -29 -14
-64 -22 -78 -7 -15 -19 -39 -24 -55 -8 -21 -14 -26 -21 -19 -8 8 -7 55 0 159
7 82 13 185 14 229 l2 80 75 5 c167 11 240 7 258 -16z m718 -284 c29 -11 31
-34 10 -118 -8 -31 -27 -113 -42 -182 -14 -69 -33 -154 -41 -190 -7 -36 -19
-70 -26 -77 -13 -13 -896 -21 -916 -8 -16 9 -13 72 4 135 8 30 20 82 26 115 7
33 18 69 25 80 8 11 14 36 14 57 0 20 9 60 20 88 11 28 20 59 20 68 0 10 5 23
12 30 14 14 856 16 894 2z"/>
<path d="M608 2719 c-24 -14 -23 -46 3 -54 53 -17 96 30 50 55 -24 12 -31 12
-53 -1z"/>
<path d="M845 2713 c-19 -18 -9 -40 21 -46 30 -5 59 15 51 35 -8 21 -55 29
-72 11z"/>
<path d="M720 2696 c0 -30 13 -40 41 -31 31 10 21 49 -13 53 -24 3 -28 0 -28
-22z"/>
<path d="M960 2696 c0 -28 42 -48 62 -28 20 20 4 47 -30 50 -28 3 -32 0 -32
-22z"/>
<path d="M940 2411 c-31 -4 -68 -15 -85 -27 -16 -12 -41 -28 -55 -36 -14 -9
-39 -35 -55 -58 l-30 -43 0 -462 0 -462 28 -40 c33 -47 65 -72 132 -102 48
-21 64 -22 363 -24 372 -2 345 -12 356 130 10 129 0 145 -75 111 -58 -26 -231
-29 -298 -4 -89 33 -192 143 -220 236 -22 73 -26 229 -7 274 9 21 16 45 16 53
0 41 160 203 200 203 10 0 34 7 55 16 44 18 138 12 220 -14 135 -42 220 -190
199 -347 -11 -75 -23 -79 -235 -76 -233 3 -249 -2 -249 -72 1 -59 19 -86 84
-126 72 -45 146 -29 221 48 l39 41 201 0 c143 0 204 3 213 12 9 9 12 88 12
295 l0 283 -31 55 c-43 77 -107 127 -172 136 -62 9 -748 9 -827 0z"/>
<path d="M1241 1993 c-39 -46 -46 -63 -41 -108 3 -35 18 -39 126 -37 135 2
158 12 162 70 3 39 -1 47 -36 83 -38 37 -42 39 -105 39 l-65 0 -41 -47z"/>
<path d="M650 1049 c-58 -39 -60 -42 -60 -122 0 -91 24 -116 114 -119 157 -4
814 -4 838 0 31 5 42 26 28 52 -9 16 -25 18 -172 18 -155 0 -163 1 -180 22
-22 27 -23 54 -2 74 13 13 44 16 184 16 161 0 170 1 180 21 9 16 8 26 -5 45
l-15 24 -433 0 -432 0 -45 -31z"/>
</g>
</svg>
