<?xml version="1.0" standalone="no"?>
<!DOCTYPE svg PUBLIC "-//W3C//DTD SVG 20010904//EN"
 "http://www.w3.org/TR/2001/REC-SVG-20010904/DTD/svg10.dtd">
<svg version="1.0" xmlns="http://www.w3.org/2000/svg"
 width="242.998111pt" height="242.056796pt" viewBox="0 0 242.998111 242.056796"
 preserveAspectRatio="xMidYMid meet">
<metadata>
Created by potrace 1.16, written by Peter Selinger 2001-2019
</metadata>
<g transform="translate(-45.001889,282.849817) scale(0.100000,-0.100000)"
fill="#000000" stroke="none">
<path d="M1600 2810 c-34 -18 -186 -133 -244 -184 l-29 -26 -202 0 -202 0 -47
-50 -46 -49 0 -113 c0 -145 -5 -153 -153 -251 -145 -97 -212 -167 -221 -233
-10 -78 -7 -1294 5 -1343 13 -60 58 -111 116 -133 67 -25 2093 -28 2165 -2 57
20 85 48 114 113 l24 53 0 659 0 659 -25 38 c-38 58 -129 134 -291 244 -61 41
-61 43 -66 174 -5 137 -12 155 -80 204 l-41 30 -186 0 -186 0 -71 53 c-39 28
-86 65 -105 80 -58 48 -63 52 -102 75 -46 27 -80 27 -127 2z m146 -142 c88
-70 82 -74 -96 -70 -142 3 -159 12 -97 51 18 11 42 29 52 41 31 34 78 26 141
-22z m617 -201 l27 -17 0 -390 c0 -377 -1 -391 -20 -410 -11 -11 -23 -20 -28
-20 -4 0 -23 -14 -42 -32 -39 -36 -163 -135 -236 -188 -26 -19 -71 -54 -98
-78 -106 -91 -268 -201 -297 -202 -20 0 -72 29 -158 90 -35 25 -73 52 -85 59
-11 8 -59 47 -106 86 -47 40 -96 78 -109 85 -25 13 -125 94 -193 156 -21 19
-42 34 -47 34 -6 0 -17 10 -25 22 -21 29 -24 792 -4 804 31 20 121 22 733 21
614 -2 663 -3 688 -20z m-1526 -529 c3 -206 5 -205 -127 -98 -55 45 -100 90
-100 99 1 20 189 162 210 159 12 -3 15 -31 17 -160z m1781 80 c42 -34 81 -65
85 -69 15 -12 -2 -45 -31 -60 -15 -7 -51 -36 -80 -64 -89 -84 -96 -77 -100 90
-1 76 0 145 2 152 11 27 50 11 124 -49z m-1980 -248 c26 -22 76 -65 112 -96
36 -31 90 -73 120 -94 30 -21 84 -64 120 -95 36 -31 81 -68 100 -81 19 -13 60
-41 90 -64 30 -22 67 -48 82 -58 43 -27 33 -77 -22 -111 -16 -9 -69 -54 -117
-98 -48 -44 -108 -97 -133 -116 -58 -46 -58 -46 -172 -149 -54 -49 -101 -88
-106 -88 -5 0 -35 -25 -67 -55 -33 -30 -65 -55 -72 -55 -14 0 -20 1180 -6
1193 12 13 25 7 71 -33z m2120 -560 c1 -345 -2 -588 -7 -593 -6 -6 -22 3 -43
21 -18 17 -82 72 -143 124 -60 51 -112 96 -115 99 -3 4 -45 39 -95 78 -49 39
-128 106 -174 149 -45 42 -94 83 -107 90 -51 27 -54 74 -7 104 48 30 156 109
208 153 65 55 233 185 265 206 14 9 39 30 55 46 50 49 137 114 149 110 8 -3
12 -170 14 -587z m-1289 -88 c99 -83 119 -92 198 -92 l73 0 81 65 c95 76 97
76 152 27 23 -21 64 -56 91 -78 27 -21 59 -48 71 -59 62 -59 113 -103 146
-125 21 -14 74 -58 119 -99 45 -41 115 -101 156 -134 75 -60 100 -107 57 -107
-10 0 -445 0 -967 0 -612 -1 -953 3 -959 9 -14 14 12 51 63 86 23 16 63 49 89
72 25 24 75 67 110 96 64 53 226 192 361 311 88 77 97 78 159 28z"/>
<path d="M1542 2335 c-34 -12 -70 -29 -80 -37 -9 -8 -25 -19 -34 -24 -44 -23
-119 -110 -146 -167 -34 -72 -51 -214 -33 -282 33 -128 36 -135 101 -200 36
-36 70 -65 76 -65 6 0 22 -9 36 -19 13 -11 38 -23 54 -26 16 -4 48 -13 72 -21
55 -18 114 -18 159 1 19 8 43 15 53 15 10 0 28 8 41 19 21 17 22 21 11 46 -13
27 -13 28 -80 20 -121 -14 -234 -3 -251 22 -3 6 -23 18 -44 28 -49 23 -95 80
-119 147 -20 57 -26 222 -8 233 5 3 14 23 20 45 10 37 88 120 113 120 6 0 21
9 33 21 27 25 121 39 209 30 66 -7 149 -58 199 -123 105 -138 58 -434 -48
-307 -25 29 -26 36 -26 148 0 145 -10 166 -74 158 -26 -4 -58 0 -87 10 -97 35
-202 -18 -228 -114 -26 -94 -5 -211 46 -263 55 -53 214 -62 254 -14 15 18 33
18 50 -2 18 -22 84 -54 111 -54 24 0 94 42 115 69 21 27 43 116 43 173 0 61
-34 195 -56 219 -8 8 -14 20 -14 26 0 14 -81 88 -117 106 -16 9 -35 23 -42 31
-8 9 -21 16 -30 16 -9 1 -34 9 -56 20 -54 26 -142 24 -223 -5z m188 -330 c18
-19 25 -40 28 -83 4 -56 3 -59 -32 -90 -92 -80 -208 3 -174 124 15 56 40 74
101 74 44 0 58 -4 77 -25z"/>
</g>
</svg>
