<?xml version="1.0" standalone="no"?>
<!DOCTYPE svg PUBLIC "-//W3C//DTD SVG 20010904//EN"
 "http://www.w3.org/TR/2001/REC-SVG-20010904/DTD/svg10.dtd">
<svg version="1.0" xmlns="http://www.w3.org/2000/svg"
 width="222.877569pt" height="246.330757pt" viewBox="0 0 222.877569 246.330757"
 preserveAspectRatio="xMidYMid meet">
<metadata>
Created by potrace 1.16, written by Peter Selinger 2001-2019
</metadata>
<g transform="translate(-54.122431,289.092014) scale(0.100000,-0.100000)"
fill="#000000" stroke="none">
<path d="M1512 2885 c-23 -7 -62 -28 -85 -47 -23 -19 -60 -45 -82 -58 -47 -28
-80 -53 -132 -97 -21 -18 -62 -49 -91 -70 -30 -21 -80 -59 -112 -85 -32 -27
-62 -48 -66 -48 -5 0 -31 -21 -59 -46 -69 -64 -238 -194 -252 -194 -5 -1 -23
-14 -41 -29 -49 -42 -53 -102 -50 -664 l3 -478 35 -30 c19 -16 59 -41 88 -54
29 -13 66 -33 82 -45 15 -11 35 -20 44 -20 8 0 23 -8 33 -19 10 -10 29 -22 43
-26 14 -4 31 -12 38 -18 19 -15 70 -43 142 -77 170 -81 368 -187 387 -206 8
-8 19 -14 24 -14 5 0 70 -29 144 -65 133 -65 204 -82 230 -56 9 9 60 37 185
103 30 16 62 35 70 41 17 13 52 34 91 54 15 7 32 20 39 28 7 8 16 15 21 15 4
0 36 17 71 37 91 54 120 70 147 83 13 6 29 17 35 25 6 7 30 23 54 35 23 12 44
26 47 30 3 5 33 24 68 43 34 20 72 49 85 66 l22 30 0 531 0 530 -42 47 c-36
39 -178 143 -195 143 -3 0 -28 17 -56 38 -28 20 -69 48 -92 62 -22 14 -61 40
-85 58 -25 18 -97 65 -160 104 -63 39 -145 95 -182 124 -37 30 -71 54 -77 54
-5 0 -22 10 -38 23 -15 12 -41 29 -56 37 -16 8 -39 24 -51 35 -65 60 -159 89
-224 70z m129 -107 c24 -18 46 -35 49 -39 3 -3 16 -12 30 -19 49 -25 221 -142
278 -188 58 -47 71 -56 147 -97 73 -40 149 -89 210 -135 33 -25 81 -59 107
-75 200 -126 214 -143 148 -195 -23 -18 -51 -41 -63 -51 -26 -22 -79 -65 -219
-177 -57 -46 -121 -101 -144 -122 -54 -51 -192 -160 -202 -160 -5 0 -18 -13
-30 -30 -13 -16 -56 -55 -96 -85 -83 -63 -84 -63 -161 -1 -28 23 -71 52 -98
66 -55 29 -56 44 -2 48 22 2 51 12 66 23 15 10 31 19 36 19 7 0 215 99 253
121 8 5 24 13 35 18 247 109 379 255 362 403 -18 154 -76 200 -288 225 -53 6
-58 10 -112 73 -9 10 -21 29 -27 42 -7 13 -43 52 -80 88 -75 72 -167 110 -266
110 -65 0 -199 -43 -264 -85 -54 -34 -160 -131 -160 -146 0 -7 -90 -123 -127
-164 -10 -11 -23 -33 -29 -50 -31 -82 -49 -122 -65 -145 -9 -14 -19 -36 -20
-50 -6 -40 -38 -34 -114 20 -38 28 -82 58 -97 68 -44 27 -36 55 27 102 30 22
82 65 116 95 33 30 84 70 112 90 69 47 133 96 182 138 63 54 165 130 230 172
33 22 80 56 105 76 74 60 107 63 171 17z m26 -373 c19 -8 43 -15 53 -15 20 0
80 -89 80 -120 0 -12 9 -33 20 -47 11 -14 20 -32 20 -39 0 -33 81 -67 165 -69
88 -3 167 -41 205 -101 41 -62 -59 -149 -320 -278 -30 -15 -62 -31 -70 -36
-65 -38 -219 -90 -267 -90 -43 0 -57 25 -43 82 19 83 -3 176 -45 192 -61 23
-100 17 -190 -28 -93 -47 -138 -56 -170 -33 -32 24 -16 131 29 199 20 31 36
58 36 63 0 4 18 29 40 55 22 26 40 51 40 55 0 26 158 183 208 206 47 22 160
24 209 4z m-988 -397 c128 -77 171 -127 191 -223 27 -124 105 -225 209 -272
137 -60 229 -83 342 -83 119 0 117 1 239 -88 l60 -44 0 -369 c0 -332 -2 -370
-16 -376 -22 -8 -427 195 -454 227 -3 4 -57 30 -120 60 -63 29 -122 58 -130
65 -8 6 -44 26 -80 44 -36 17 -72 36 -80 41 -8 5 -22 11 -30 15 -60 24 -157
86 -167 106 -9 19 -20 776 -13 912 0 11 10 9 49 -15z m2001 -493 l0 -464 -45
-38 c-25 -21 -71 -54 -103 -73 -32 -19 -73 -44 -91 -55 -92 -56 -144 -85 -154
-85 -8 0 -104 -59 -207 -129 -14 -9 -54 -32 -90 -50 -36 -19 -81 -44 -100 -57
-59 -41 -76 -34 -83 33 -12 118 -7 637 6 665 13 28 151 151 258 229 35 26 100
78 143 115 43 38 104 87 134 109 51 37 197 165 267 233 68 67 65 84 65 -433z
m-1246 293 c7 -12 7 -33 -3 -75 -25 -105 -14 -155 37 -174 15 -6 22 -16 20
-27 -3 -15 -15 -17 -108 -13 -104 3 -106 3 -217 58 -119 59 -142 77 -173 139
-41 79 -26 92 54 48 70 -38 146 -46 182 -19 10 8 24 15 31 15 6 0 35 16 65 35
56 38 93 42 112 13z"/>
</g>
</svg>
