<?xml version="1.0" standalone="no"?>
<!DOCTYPE svg PUBLIC "-//W3C//DTD SVG 20010904//EN"
 "http://www.w3.org/TR/2001/REC-SVG-20010904/DTD/svg10.dtd">
<svg version="1.0" xmlns="http://www.w3.org/2000/svg"
 width="245.427294pt" height="241.446012pt" viewBox="0 0 245.427294 241.446012"
 preserveAspectRatio="xMidYMid meet">
<metadata>
Created by potrace 1.16, written by Peter Selinger 2001-2019
</metadata>
<g transform="translate(-127.340798,330.439377) scale(0.100000,-0.100000)"
fill="#000000" stroke="none">
<path d="M2427 3293 c-12 -7 -29 -12 -38 -13 -23 0 -97 -83 -106 -117 -10 -40
-9 -460 2 -508 12 -57 75 -116 142 -133 70 -18 77 -28 71 -112 -9 -120 30
-139 129 -64 26 20 50 39 53 43 3 3 38 32 78 64 l73 59 250 -1 c263 -2 302 3
369 45 77 47 74 38 79 317 4 296 0 321 -62 370 -72 58 -94 61 -580 61 -326 1
-444 -2 -460 -11z m945 -95 c58 -17 61 -29 65 -272 6 -339 25 -321 -337 -322
-146 0 -276 -1 -290 -2 -25 -2 -77 -41 -158 -120 -57 -56 -72 -47 -64 43 6 75
-6 85 -98 85 -41 0 -56 5 -82 29 l-33 29 -3 236 c-3 257 -1 269 51 291 43 19
888 21 949 3z"/>
<path d="M2530 3048 c-26 -10 -27 -54 -1 -68 13 -6 151 -10 380 -10 352 0 362
1 382 21 18 18 19 23 6 42 -14 22 -16 22 -380 22 -202 1 -376 -3 -387 -7z"/>
<path d="M2528 2849 c-26 -15 -23 -58 5 -68 12 -4 125 -7 250 -6 199 1 230 4
245 18 21 21 7 48 -29 58 -39 11 -452 10 -471 -2z"/>
<path d="M1735 2241 c-22 -4 -58 -13 -80 -21 -44 -15 -145 -105 -145 -130 0
-8 -9 -28 -19 -44 -43 -65 -14 -230 55 -323 35 -46 30 -58 -36 -92 -116 -59
-186 -154 -221 -303 -26 -111 -21 -148 24 -182 27 -20 40 -21 311 -22 156 -1
288 -4 294 -8 7 -4 9 -31 5 -75 -13 -159 -45 -151 597 -151 l519 0 28 24 c27
23 28 28 26 104 -1 56 2 84 11 91 9 7 111 12 287 14 348 4 346 2 333 160 -6
71 -13 90 -52 161 -46 80 -130 174 -179 198 -48 24 -50 42 -12 90 26 32 39 60
48 108 7 36 14 73 16 83 6 34 -32 167 -56 195 -100 111 -237 150 -361 101
-174 -68 -247 -325 -138 -484 38 -55 38 -71 -1 -90 -37 -20 -79 -55 -136 -114
-35 -35 -47 -42 -67 -37 -32 8 -42 41 -22 69 92 126 111 208 86 360 -21 128
-99 218 -224 259 -140 45 -266 17 -365 -84 -34 -34 -64 -73 -68 -87 -3 -14
-13 -34 -22 -44 -12 -15 -15 -43 -16 -135 l0 -117 41 -60 c23 -34 49 -67 58
-74 25 -21 19 -44 -19 -68 -50 -33 -62 -29 -97 27 -29 47 -79 88 -122 100 -41
12 -49 44 -19 76 111 120 115 274 12 412 -56 74 -187 128 -274 113z m1570
-105 c85 -40 120 -81 134 -156 29 -158 -60 -281 -204 -284 -172 -3 -268 230
-153 375 22 28 47 49 58 49 10 0 22 5 25 11 21 33 77 35 140 5z m-1475 -1 c7
-8 22 -15 34 -15 77 0 169 -232 111 -280 -8 -7 -15 -18 -15 -25 0 -20 -40 -65
-83 -92 -49 -31 -125 -38 -178 -16 -35 13 -99 80 -99 102 0 6 -10 29 -21 51
-62 119 53 286 197 289 26 1 46 -5 54 -14z m771 -40 c105 -36 171 -132 171
-252 1 -96 -21 -146 -95 -220 l-61 -63 -96 0 c-72 0 -102 4 -120 16 -35 23
-120 106 -120 117 0 5 -9 20 -20 34 -33 42 -29 171 8 231 38 64 108 132 135
132 12 0 29 5 37 10 23 15 111 12 161 -5z m-693 -507 c60 -15 103 -39 156 -85
57 -50 57 -64 0 -125 -25 -27 -54 -69 -65 -93 -34 -76 -29 -75 -331 -75 -327
0 -314 -6 -279 119 60 215 270 321 519 259z m1441 0 c40 -7 83 -23 111 -41 48
-31 140 -136 140 -159 0 -7 6 -23 14 -34 8 -11 17 -40 21 -65 12 -81 16 -80
-298 -77 l-272 3 -15 30 c-32 62 -73 119 -118 163 l-47 45 35 28 c19 16 39 29
46 29 6 0 18 7 25 16 13 16 77 48 129 64 38 12 155 11 229 -2z m-739 -142
c105 -6 165 -34 257 -120 87 -81 122 -154 126 -261 l2 -80 -479 -3 c-345 -1
-483 1 -492 9 -30 25 -8 134 47 239 31 60 143 170 173 170 13 0 31 9 41 20 10
11 30 20 44 21 14 0 35 4 46 9 11 4 49 6 85 4 36 -2 103 -6 150 -8z"/>
</g>
</svg>
