<?xml version="1.0" standalone="no"?>
<!DOCTYPE svg PUBLIC "-//W3C//DTD SVG 20010904//EN"
 "http://www.w3.org/TR/2001/REC-SVG-20010904/DTD/svg10.dtd">
<svg version="1.0" xmlns="http://www.w3.org/2000/svg"
 width="240.181782pt" height="240.524515pt" viewBox="0 0 240.181782 240.524515"
 preserveAspectRatio="xMidYMid meet">
<metadata>
Created by potrace 1.16, written by Peter Selinger 2001-2019
</metadata>
<g transform="translate(-42.481373,288.587709) scale(0.100000,-0.100000)"
fill="#000000" stroke="none">
<path d="M2598 2879 c-24 -14 -23 -46 2 -54 24 -8 25 -14 1 -42 -24 -28 -52
-29 -76 -3 -23 25 -47 26 -68 2 -22 -24 -21 -35 3 -57 40 -36 15 -70 -28 -38
-51 37 -69 37 -89 -2 -9 -15 -7 -25 13 -48 27 -32 31 -62 9 -71 -17 -6 -60 8
-70 23 -10 17 -52 13 -59 -5 -4 -11 8 -30 34 -57 36 -36 39 -42 26 -55 -17
-18 -57 2 -76 38 -13 24 -42 26 -60 5 -10 -13 -8 -22 14 -53 47 -68 26 -105
-29 -52 -63 61 -110 20 -60 -53 38 -57 33 -85 -22 -141 -44 -44 -51 -47 -88
-43 -83 9 -184 -37 -288 -133 -21 -19 -57 -47 -79 -62 -22 -15 -74 -59 -116
-99 -91 -84 -127 -104 -205 -114 -61 -7 -187 -46 -209 -64 -7 -6 -37 -29 -66
-51 -113 -87 -252 -235 -252 -268 0 -4 -7 -20 -15 -35 -19 -37 -53 -150 -66
-223 -11 -62 -21 -78 -102 -164 -29 -30 -59 -65 -67 -76 -8 -12 -28 -38 -44
-58 -79 -99 -40 -262 77 -321 101 -50 193 -24 290 81 87 94 199 166 267 172
30 2 62 11 71 18 8 8 30 17 47 20 17 4 37 13 43 20 6 8 17 14 24 14 23 0 169
102 219 154 57 58 130 161 141 197 4 13 13 31 20 39 7 8 16 33 20 55 4 21 13
52 21 67 8 15 14 38 14 52 0 53 72 164 184 283 27 29 57 65 67 80 10 16 36 53
58 83 57 78 71 112 81 197 8 79 24 110 73 147 l27 20 34 -37 c38 -42 57 -46
86 -17 19 19 19 22 5 50 -8 16 -19 32 -25 35 -16 10 -12 45 5 45 9 0 29 -9 44
-21 59 -43 106 1 62 57 -46 58 -10 99 40 45 50 -55 94 -19 50 40 -35 47 5 72
44 29 22 -24 53 -23 69 2 8 13 6 21 -7 36 -39 42 -14 78 32 46 47 -33 100 29
56 66 -19 16 -19 59 0 66 8 3 28 -4 44 -15 37 -27 47 -26 67 4 15 23 15 27 -5
57 -46 73 -48 79 -23 96 52 34 5 83 -58 59 -28 -11 -33 -10 -48 10 -20 26 -60
37 -84 22z m-619 -833 c19 -23 -32 -120 -127 -238 -65 -81 -74 -82 -130 -20
-59 65 -55 80 43 165 115 100 184 130 214 93z m-354 -303 c24 -21 55 -46 69
-56 26 -18 36 -60 16 -72 -15 -9 -80 -111 -80 -126 0 -8 -7 -22 -15 -32 -7
-11 -17 -48 -20 -83 -4 -35 -11 -67 -15 -69 -5 -3 -14 -21 -20 -41 -13 -37
-78 -139 -120 -187 -29 -33 -155 -122 -210 -149 -14 -6 -32 -17 -40 -23 -8 -7
-41 -17 -72 -24 -32 -7 -60 -17 -63 -22 -4 -5 -18 -9 -33 -9 -15 0 -38 -7 -52
-15 -14 -8 -37 -19 -52 -26 -16 -6 -28 -15 -28 -20 0 -4 -11 -14 -24 -21 -13
-7 -61 -48 -105 -91 -97 -93 -139 -103 -192 -46 -56 60 -26 129 126 289 66 69
71 82 105 253 19 97 61 177 133 255 95 105 223 202 264 202 8 0 29 7 46 15 18
7 64 18 103 23 74 10 128 37 173 86 33 35 56 33 106 -11z"/>
<path d="M1184 1501 c-58 -28 -194 -149 -194 -172 0 -5 -9 -22 -20 -37 -28
-37 -45 -148 -31 -199 19 -68 57 -93 141 -93 57 0 77 4 97 20 14 11 33 20 42
20 9 0 24 8 33 18 9 9 34 30 55 47 21 16 52 46 68 68 17 21 38 46 47 55 16 17
34 73 45 140 20 129 -139 204 -283 133z m164 -99 c18 -23 15 -56 -8 -85 -11
-14 -20 -30 -20 -35 0 -21 -128 -140 -178 -165 -64 -32 -74 -33 -96 -8 -22 25
-15 68 23 129 88 145 229 228 279 164z"/>
</g>
</svg>
