<?xml version="1.0" standalone="no"?>
<!DOCTYPE svg PUBLIC "-//W3C//DTD SVG 20010904//EN"
 "http://www.w3.org/TR/2001/REC-SVG-20010904/DTD/svg10.dtd">
<svg version="1.0" xmlns="http://www.w3.org/2000/svg"
 width="239.229547pt" height="240.154205pt" viewBox="0 0 239.229547 240.154205"
 preserveAspectRatio="xMidYMid meet">
<metadata>
Created by potrace 1.16, written by Peter Selinger 2001-2019
</metadata>
<g transform="translate(-46.000000,291.154205) scale(0.100000,-0.100000)"
fill="#000000" stroke="none">
<path d="M863 2892 c-11 -9 -24 -33 -28 -52 -4 -19 -13 -46 -20 -60 -7 -14
-16 -42 -20 -62 -17 -89 -105 -155 -252 -190 -47 -11 -83 -47 -83 -84 0 -33
38 -58 128 -84 104 -30 150 -62 184 -130 15 -30 28 -63 28 -73 0 -9 9 -34 20
-54 11 -21 20 -48 20 -60 0 -25 34 -53 65 -53 32 0 55 22 65 60 41 169 121
275 230 305 157 44 182 68 134 129 -21 26 -39 37 -69 42 -22 3 -49 13 -60 20
-11 8 -27 14 -37 14 -27 0 -102 56 -118 87 -8 15 -19 35 -26 43 -6 8 -23 53
-38 100 -38 119 -69 145 -123 102z m82 -291 c40 -64 105 -121 137 -121 48 0
37 -35 -20 -64 -49 -25 -94 -73 -122 -130 -24 -50 -56 -47 -79 7 -25 59 -61
95 -122 123 -59 28 -65 57 -13 62 35 3 118 77 130 115 18 59 54 63 89 8z"/>
<path d="M2391 2751 c-17 -17 -41 -78 -41 -106 0 -19 -45 -100 -70 -126 -29
-29 -99 -64 -150 -74 -80 -17 -130 -61 -112 -100 12 -26 68 -59 118 -68 31 -6
65 -26 136 -80 42 -32 73 -91 82 -157 8 -49 56 -110 87 -110 21 0 57 44 65 79
21 99 31 123 66 164 41 49 134 107 170 107 13 0 41 10 63 23 76 43 52 112 -49
137 -134 34 -202 89 -231 187 -32 111 -51 143 -85 143 -16 0 -39 -9 -49 -19z
m44 -227 c9 -4 24 -23 35 -44 20 -39 57 -74 109 -102 39 -22 40 -43 1 -56 -16
-6 -58 -39 -92 -73 -56 -56 -63 -61 -72 -44 -23 40 -91 107 -123 120 -47 20
-43 36 19 74 38 23 98 95 98 118 0 15 2 15 25 7z"/>
<path d="M1600 2368 c-26 -18 -36 -35 -46 -73 -6 -27 -16 -63 -22 -80 -5 -16
-22 -68 -37 -115 -25 -76 -61 -160 -100 -229 -31 -56 -164 -162 -229 -183 -17
-5 -51 -19 -76 -30 -25 -12 -58 -27 -75 -34 -16 -8 -49 -17 -72 -20 -24 -4
-48 -13 -54 -20 -6 -8 -27 -14 -46 -14 -43 0 -83 -37 -83 -78 0 -47 44 -79
133 -98 43 -8 90 -22 105 -30 15 -8 35 -14 44 -14 10 0 32 -9 50 -20 18 -11
41 -20 50 -20 59 0 249 -174 295 -270 37 -79 83 -210 83 -240 0 -12 6 -36 14
-53 7 -18 17 -50 22 -72 14 -62 58 -83 118 -57 40 18 45 24 51 63 4 24 13 53
20 64 7 11 16 44 19 74 10 75 71 223 118 282 61 77 209 195 268 214 14 4 36
16 49 26 13 11 35 19 50 19 14 1 37 7 51 15 14 8 36 14 49 15 46 0 161 40 171
60 37 69 -23 123 -167 149 -24 4 -51 15 -61 24 -10 10 -27 17 -38 17 -10 0
-34 9 -52 20 -18 11 -38 20 -44 20 -58 0 -242 137 -274 204 -8 17 -23 45 -34
61 -24 38 -90 221 -90 251 0 12 -9 41 -20 65 -11 24 -20 55 -20 69 0 18 -9 31
-29 43 -38 22 -51 22 -91 -5z m76 -295 c17 -78 78 -214 114 -256 10 -12 37
-44 59 -72 47 -57 92 -92 171 -130 98 -48 218 -95 242 -95 24 0 33 -19 16 -36
-7 -7 -45 -22 -83 -32 -39 -9 -81 -25 -95 -35 -13 -9 -29 -17 -35 -17 -56 0
-315 -251 -315 -305 0 -5 -6 -16 -14 -24 -8 -9 -19 -32 -25 -51 -5 -19 -18
-59 -28 -88 -30 -84 -66 -92 -78 -17 -3 25 -10 47 -15 50 -5 3 -14 25 -21 48
-6 23 -17 49 -25 58 -7 8 -17 30 -20 49 -11 52 -189 226 -276 268 -37 18 -70
37 -73 42 -3 4 -24 11 -48 15 -102 17 -156 65 -82 73 16 2 38 10 49 18 11 8
27 14 35 14 21 0 179 77 215 105 72 56 89 73 134 135 27 36 58 85 69 110 31
67 63 153 63 171 0 40 57 42 66 2z"/>
<path d="M2439 1173 c-6 -16 -14 -50 -18 -76 -13 -80 -31 -97 -183 -166 -70
-32 -85 -52 -74 -97 7 -25 97 -74 136 -74 55 0 138 -124 140 -208 0 -22 31
-42 66 -42 25 0 64 47 64 77 0 70 67 152 138 169 145 35 198 150 78 168 -24 4
-50 14 -56 21 -7 8 -22 15 -35 15 -44 0 -118 93 -128 164 -8 53 -32 76 -79 76
-33 0 -40 -4 -49 -27z m112 -260 c58 -57 61 -74 16 -102 -19 -11 -39 -32 -45
-46 -13 -29 -33 -25 -53 11 -7 14 -26 32 -41 40 -15 8 -28 21 -28 30 0 12 83
108 98 113 2 1 26 -20 53 -46z"/>
</g>
</svg>
