<?xml version="1.0" standalone="no"?>
<!DOCTYPE svg PUBLIC "-//W3C//DTD SVG 20010904//EN"
 "http://www.w3.org/TR/2001/REC-SVG-20010904/DTD/svg10.dtd">
<svg version="1.0" xmlns="http://www.w3.org/2000/svg"
 width="243.978009pt" height="207.711402pt" viewBox="0 0 243.978009 207.711402"
 preserveAspectRatio="xMidYMid meet">
<metadata>
Created by potrace 1.16, written by Peter Selinger 2001-2019
</metadata>
<g transform="translate(-43.856246,272.711402) scale(0.100000,-0.100000)"
fill="#000000" stroke="none">
<path d="M1260 2721 c-14 -4 -34 -13 -45 -18 -11 -6 -36 -17 -56 -26 -44 -19
-159 -113 -159 -131 0 -7 -9 -21 -20 -31 -11 -10 -20 -25 -20 -34 0 -9 -10
-41 -21 -71 -38 -97 -38 -251 0 -374 17 -55 37 -107 44 -115 7 -9 18 -28 25
-43 11 -26 10 -28 -12 -28 -13 0 -29 7 -36 15 -14 17 -174 22 -185 6 -3 -5
-27 -17 -54 -26 -58 -19 -164 -111 -209 -182 -61 -96 -65 -127 -69 -567 l-4
-398 22 -24 22 -24 1171 0 c924 0 1176 3 1196 13 l25 13 3 417 c2 339 0 423
-12 445 -7 15 -16 44 -20 65 -4 20 -10 37 -15 37 -4 0 -22 22 -40 50 -40 62
-124 136 -171 151 -19 6 -43 18 -52 26 -16 14 -114 14 -218 1 -32 -4 -39 25
-11 49 12 9 21 24 21 33 0 8 7 29 16 45 27 50 56 204 49 260 -11 92 -28 170
-39 185 -6 8 -22 37 -36 64 -29 55 -150 173 -189 183 -14 3 -36 13 -48 20 -33
22 -198 22 -249 1 -149 -61 -210 -63 -354 -13 -79 27 -207 41 -250 26z m241
-146 c137 -41 218 -43 314 -9 112 40 271 42 325 5 58 -40 127 -134 137 -185 3
-17 12 -43 19 -58 19 -37 -6 -251 -35 -313 -6 -11 -17 -36 -25 -55 -9 -19 -20
-42 -25 -50 -5 -8 -24 -44 -41 -80 -18 -36 -37 -70 -42 -77 -13 -16 -114 -73
-130 -73 -7 0 -26 -7 -41 -15 -83 -43 -491 -38 -624 9 -73 25 -163 93 -163
123 0 12 -39 92 -66 134 -4 8 -17 37 -27 64 -80 222 -61 412 55 521 92 88 209
106 369 59z m-495 -846 c33 -16 76 -43 96 -60 20 -16 40 -29 43 -29 4 0 19 -8
33 -18 26 -17 101 -47 222 -88 80 -27 468 -28 517 -1 18 9 44 17 58 17 14 0
48 11 75 25 27 14 54 25 59 25 14 0 77 40 119 76 77 64 108 76 202 82 77 4 93
2 134 -19 105 -52 184 -161 191 -264 15 -204 14 -684 0 -699 -17 -17 -2128
-22 -2173 -5 l-23 9 3 368 3 367 27 51 c90 171 267 240 414 163z"/>
</g>
</svg>
