<?xml version="1.0" standalone="no"?>
<!DOCTYPE svg PUBLIC "-//W3C//DTD SVG 20010904//EN"
 "http://www.w3.org/TR/2001/REC-SVG-20010904/DTD/svg10.dtd">
<svg version="1.0" xmlns="http://www.w3.org/2000/svg"
 width="240.959368pt" height="238.121962pt" viewBox="0 0 240.959368 238.121962"
 preserveAspectRatio="xMidYMid meet">
<metadata>
Created by potrace 1.16, written by Peter Selinger 2001-2019
</metadata>
<g transform="translate(-46.858769,284.589157) scale(0.100000,-0.100000)"
fill="#000000" stroke="none">
<path d="M1653 2842 c-58 -13 -100 -61 -113 -130 -19 -95 -21 -96 -119 -82
-85 13 -110 11 -221 -14 -118 -26 -182 -76 -278 -216 -23 -33 -47 -80 -53
-103 -5 -23 -15 -62 -21 -86 -18 -77 -5 -264 27 -374 15 -54 25 -101 21 -104
-4 -4 -30 -10 -59 -14 -82 -12 -325 -70 -347 -84 -22 -14 -28 -49 -14 -77 16
-30 34 -34 93 -19 102 27 223 54 276 62 33 4 69 10 79 11 13 2 27 -9 42 -29
25 -38 33 -97 39 -313 2 -80 9 -172 15 -205 5 -33 10 -78 10 -100 1 -141 111
-398 199 -463 35 -26 107 -44 141 -35 76 18 132 128 155 303 6 53 17 105 23
117 7 12 12 42 12 67 0 50 40 188 65 224 34 47 125 -3 125 -68 0 -12 5 -30 10
-40 10 -19 21 -91 41 -260 25 -226 95 -340 208 -340 67 0 165 79 201 161 5 13
14 31 19 39 23 37 52 112 58 147 3 21 10 47 16 58 18 35 36 245 37 424 0 261
30 343 114 313 18 -7 45 -12 60 -12 25 0 168 -33 270 -63 45 -13 89 5 94 40 3
23 -49 73 -77 73 -9 0 -42 9 -74 20 -31 11 -70 20 -87 20 -17 0 -45 7 -62 16
-16 9 -50 16 -74 16 -64 0 -77 47 -36 125 21 38 33 233 22 337 -11 92 -69 236
-114 281 -6 6 -25 27 -41 46 -53 60 -187 119 -273 119 -42 0 -69 24 -75 68
-13 100 -72 141 -214 147 -48 2 -102 1 -120 -3z m185 -132 c38 -23 38 -31 17
-162 -26 -154 -13 -138 -108 -138 -51 0 -88 5 -95 12 -13 13 -17 232 -6 263
17 44 136 59 192 25z m-365 -201 c24 -6 41 -18 46 -32 5 -12 12 -155 15 -317
12 -546 16 -665 26 -760 9 -88 8 -97 -10 -120 -11 -14 -25 -36 -31 -50 -6 -14
-16 -34 -22 -45 -17 -32 -48 -155 -58 -230 -6 -38 -14 -88 -20 -110 -5 -22
-14 -71 -21 -110 -6 -38 -16 -77 -23 -85 -6 -8 -15 -23 -18 -33 -18 -50 -157
52 -157 116 0 10 -6 30 -14 45 -7 15 -16 43 -20 62 -3 19 -10 55 -16 80 -6 25
-15 164 -20 310 -9 268 -21 342 -69 437 -26 53 -49 112 -56 143 -4 19 -14 46
-22 59 -23 36 -25 357 -2 391 9 14 19 36 22 50 8 33 106 142 155 172 73 45
205 56 315 27z m605 10 c68 -16 143 -53 174 -86 43 -45 97 -165 108 -240 5
-37 12 -84 15 -103 9 -59 -30 -236 -89 -405 l-57 -160 -9 -245 c-12 -303 -37
-470 -81 -540 -5 -8 -16 -28 -24 -45 -27 -56 -69 -98 -100 -98 -29 1 -55 25
-55 51 0 8 -6 28 -14 45 -7 18 -18 70 -25 117 -37 292 -78 417 -160 494 -34
33 -38 48 -17 65 7 6 17 39 20 72 4 34 13 75 21 92 7 18 18 64 23 102 10 69
38 233 67 390 8 44 19 107 24 140 11 71 27 141 47 211 8 28 14 65 14 83 0 70
25 82 118 60z m-289 -243 c16 -19 -5 -136 -27 -153 -20 -16 -94 -17 -110 -1
-7 7 -12 40 -12 78 0 38 5 71 12 78 17 17 123 16 137 -2z m-71 -238 c-7 -19
-38 -22 -38 -4 0 10 9 16 21 16 12 0 19 -5 17 -12z m16 -91 c30 -22 -12 -127
-50 -127 -42 0 -64 107 -26 129 24 14 55 13 76 -2z m-28 -288 c9 -15 -16 -59
-33 -59 -16 0 -33 39 -26 58 6 15 49 16 59 1z"/>
</g>
</svg>
