<?xml version="1.0" standalone="no"?>
<!DOCTYPE svg PUBLIC "-//W3C//DTD SVG 20010904//EN"
 "http://www.w3.org/TR/2001/REC-SVG-20010904/DTD/svg10.dtd">
<svg version="1.0" xmlns="http://www.w3.org/2000/svg"
 width="176.504499pt" height="240.500000pt" viewBox="0 0 176.504499 240.500000"
 preserveAspectRatio="xMidYMid meet">
<metadata>
Created by potrace 1.16, written by Peter Selinger 2001-2019
</metadata>
<g transform="translate(-79.500000,284.000000) scale(0.100000,-0.100000)"
fill="#000000" stroke="none">
<path d="M1491 2760 c-85 -83 -90 -86 -121 -70 -11 6 -40 7 -72 2 -47 -6 -55
-11 -67 -40 l-15 -32 -90 -2 c-50 -1 -102 -1 -116 0 -65 5 -126 -18 -171 -64
l-44 -45 0 -989 0 -990 48 -47 47 -48 784 0 785 0 31 30 c74 71 70 7 70 1062
l0 944 -24 47 c-46 90 -94 108 -273 99 -103 -5 -116 -4 -130 13 -65 77 -63 76
-153 83 -82 7 -86 8 -120 45 -67 73 -87 82 -193 82 l-95 0 -81 -80z m221 -40
c24 -7 39 -18 44 -33 22 -69 49 -86 147 -89 l92 -3 7 -70 c4 -44 3 -74 -4 -82
-8 -10 -80 -13 -317 -13 -362 0 -351 -3 -351 90 0 73 13 82 97 74 79 -8 108 5
135 62 18 36 31 50 58 60 44 16 47 16 92 4z m-506 -225 c22 -14 24 -22 22 -76
-5 -104 -26 -99 434 -99 374 0 392 1 423 20 41 25 47 42 39 96 -9 64 12 74
154 74 107 0 114 -1 137 -25 l25 -24 0 -939 c0 -735 -3 -942 -12 -955 -21 -27
-1460 -32 -1494 -5 l-23 19 0 933 c-1 920 0 934 19 959 22 28 34 31 164 35 67
2 94 -1 112 -13z"/>
<path d="M1585 2156 c-120 -52 -175 -212 -110 -322 30 -52 26 -67 -31 -100
-53 -31 -117 -106 -133 -156 -7 -21 -17 -40 -22 -43 -5 -4 -9 -42 -9 -85 0
-72 2 -81 23 -94 31 -19 719 -18 739 2 19 19 11 146 -13 214 -25 67 -85 141
-139 168 -49 25 -57 46 -28 84 40 54 36 176 -8 243 -58 89 -178 129 -269 89z
m137 -109 c24 -20 70 -104 64 -117 -1 -3 -10 -22 -20 -43 -11 -24 -30 -44 -56
-57 l-40 -20 -39 20 c-80 40 -98 129 -41 194 27 30 45 38 95 44 6 1 22 -9 37
-21z m60 -386 c13 -11 36 -23 49 -26 53 -13 129 -128 109 -164 -9 -19 -25 -20
-258 -23 -136 -2 -255 0 -264 5 -53 24 15 137 120 198 62 37 203 42 244 10z"/>
<path d="M1109 1167 c-34 -22 -37 -47 -8 -73 20 -18 45 -19 578 -20 599 0 591
-1 591 51 0 54 11 53 -583 57 -519 3 -550 2 -578 -15z"/>
<path d="M1123 925 c-25 -18 -30 -52 -10 -78 18 -25 754 -21 770 4 13 21 1 65
-20 75 -10 4 -175 9 -368 11 -311 4 -352 3 -372 -12z"/>
</g>
</svg>
