<?xml version="1.0" standalone="no"?>
<!DOCTYPE svg PUBLIC "-//W3C//DTD SVG 20010904//EN"
 "http://www.w3.org/TR/2001/REC-SVG-20010904/DTD/svg10.dtd">
<svg version="1.0" xmlns="http://www.w3.org/2000/svg"
 width="281.260239pt" height="340.349616pt" viewBox="0 0 281.260239 340.349616"
 preserveAspectRatio="xMidYMid meet">
<metadata>
Created by potrace 1.16, written by Peter Selinger 2001-2019
</metadata>
<g transform="translate(-67.873186,380.246753) scale(0.100000,-0.100000)"
fill="#000000" stroke="none">
<path d="M1194 3785 c-6 -15 43 -172 57 -180 24 -15 69 47 69 95 0 16 5 41 12
55 15 33 6 41 -32 25 -26 -11 -33 -10 -49 4 -22 20 -50 21 -57 1z"/>
<path d="M1412 3788 c-18 -18 -16 -152 3 -168 37 -31 56 18 45 121 -5 56 -22
73 -48 47z"/>
<path d="M1527 3794 c-4 -4 -7 -30 -7 -58 0 -98 67 -154 144 -122 40 17 47 35
44 115 -5 97 -57 99 -62 2 -4 -98 -62 -88 -68 13 -3 43 -6 51 -23 54 -12 2
-24 0 -28 -4z"/>
<path d="M1772 3788 c-18 -18 -15 -70 7 -121 25 -58 71 -78 121 -52 58 30 49
80 -10 55 -27 -11 -34 -11 -47 3 -20 20 -10 47 17 47 38 0 92 28 88 46 -6 30
-34 40 -56 21 -23 -21 -50 -21 -76 -2 -24 18 -29 18 -44 3z"/>
<path d="M2002 3788 c-13 -13 -15 -43 -5 -101 12 -77 110 -110 161 -54 28 31
39 139 16 157 -23 20 -49 0 -48 -36 3 -48 -15 -94 -36 -94 -26 0 -34 16 -40
80 -5 57 -22 74 -48 48z"/>
<path d="M2347 3794 c-4 -4 -7 -35 -7 -69 0 -101 74 -149 149 -96 35 25 42 61
12 61 -11 0 -22 -4 -25 -9 -9 -13 -42 -20 -57 -10 -8 4 -16 33 -19 66 -4 49
-8 58 -25 61 -12 2 -24 0 -28 -4z"/>
<path d="M2675 3780 c-10 -11 -29 -20 -42 -20 -13 0 -26 -8 -30 -17 -4 -10
-15 -24 -25 -31 -22 -16 -22 -25 -2 -68 16 -32 19 -34 69 -34 76 0 87 13 83
109 -3 83 -18 100 -53 61z m0 -70 c9 -15 -4 -50 -19 -50 -20 0 -39 27 -32 45
6 17 42 20 51 5z"/>
<path d="M2795 3788 c-12 -35 0 -161 17 -172 29 -18 41 7 44 86 2 77 -6 98
-38 98 -10 0 -21 -6 -23 -12z"/>
<path d="M2922 3788 c-7 -8 -8 -43 -5 -96 6 -77 7 -83 27 -80 20 3 21 9 21 93
0 74 -3 90 -16 93 -9 1 -21 -3 -27 -10z"/>
<path d="M1135 3128 c-48 -25 -75 -64 -75 -109 0 -46 -33 -75 -77 -66 -30 6
-97 -27 -110 -53 -13 -25 -15 -1877 -3 -1901 17 -30 70 -59 112 -59 34 0 39
-3 57 -45 40 -91 -14 -85 811 -85 l725 0 40 23 c54 30 77 94 69 188 -6 61 -5
67 17 83 44 30 60 22 109 -50 14 -21 82 -95 151 -165 138 -140 159 -150 263
-135 78 12 122 96 96 185 -11 41 -250 280 -324 325 -63 38 -64 46 -25 119 33
62 33 62 33 207 1 156 -14 218 -80 322 -39 61 -143 157 -185 169 -64 20 -96
51 -81 83 8 18 12 91 12 225 l0 197 -37 45 c-72 84 -278 290 -305 305 -23 12
-121 14 -597 14 l-571 0 -16 25 c-20 31 0 71 41 81 53 13 1362 -1 1379 -15 12
-10 16 -31 16 -80 0 -94 14 -111 90 -111 91 0 87 13 96 -380 7 -341 14 -400
48 -400 35 0 37 21 34 409 l-3 381 -30 30 c-22 22 -43 31 -80 36 -61 8 -75 24
-75 85 0 56 -25 92 -78 115 -60 25 -1398 26 -1447 2z m-107 -270 c16 -16 18
-1789 2 -1819 -13 -23 -43 -25 -61 -2 -16 19 -23 1769 -8 1811 9 24 47 30 67
10z m1226 -7 c14 -12 17 -31 15 -120 -2 -131 7 -152 73 -181 40 -17 66 -21
135 -19 116 4 113 11 113 -214 l0 -179 -22 7 c-52 16 -149 17 -191 2 -23 -9
-61 -18 -84 -22 -23 -4 -47 -13 -53 -20 -6 -8 -25 -17 -41 -20 -40 -9 -155
-124 -194 -194 -16 -29 -43 -77 -59 -105 -28 -50 -29 -54 -28 -191 1 -136 2
-141 31 -195 17 -30 37 -70 45 -87 19 -42 181 -203 204 -203 10 0 23 -5 29
-11 31 -31 121 -52 243 -58 l125 -6 3 -34 c4 -43 -4 -75 -24 -95 -14 -14 -93
-16 -724 -16 -691 0 -710 0 -720 19 -18 34 -14 1926 5 1944 21 22 1093 19
1119 -2z m134 -91 c9 -11 41 -44 70 -73 69 -69 67 -77 -12 -77 -75 0 -78 3
-95 88 -16 82 -2 106 37 62z m192 -705 c14 -8 33 -14 44 -15 28 0 145 -81 193
-133 69 -74 124 -213 122 -305 0 -41 -20 -141 -31 -157 -3 -6 -22 -41 -42 -79
-43 -82 -111 -148 -207 -200 -95 -51 -236 -64 -311 -27 -25 11 -52 21 -61 21
-19 0 -152 104 -190 150 -76 90 -92 142 -91 295 0 152 3 163 68 253 54 76 203
182 258 182 13 1 34 7 48 15 16 9 53 14 100 14 47 0 84 -5 100 -14z m360 -850
c13 -16 -26 -77 -57 -89 -21 -9 -43 12 -43 40 0 48 71 83 100 49z m190 -167
c108 -110 111 -114 107 -151 -7 -49 -22 -67 -61 -67 -26 0 -48 17 -138 107
-108 108 -121 130 -92 154 8 7 22 25 30 41 22 43 34 37 154 -84z"/>
<path d="M1720 2699 c-7 -11 -11 -47 -11 -80 0 -77 -12 -89 -93 -89 -88 0 -94
-9 -97 -137 -2 -100 -2 -101 27 -127 23 -20 39 -25 80 -24 69 1 74 -4 74 -73
0 -90 10 -97 151 -92 138 4 145 9 142 93 -3 71 7 80 90 80 82 0 97 21 97 137
0 122 -15 143 -101 143 -90 0 -97 6 -97 90 1 98 -1 100 -138 100 -105 0 -114
-2 -124 -21z m178 -81 c7 -7 12 -37 12 -82 0 -90 6 -96 95 -96 82 0 95 -9 95
-61 0 -47 -3 -49 -88 -50 -93 -2 -96 -5 -102 -91 l-5 -73 -54 -3 c-67 -4 -75
4 -77 79 -2 75 -4 77 -85 82 -85 5 -89 9 -89 66 0 64 10 71 88 58 78 -14 87
-6 88 76 2 97 2 96 37 106 33 9 63 5 85 -11z"/>
<path d="M1267 1942 c-21 -23 -22 -46 -3 -61 9 -8 105 -11 332 -9 l319 3 0 40
0 40 -316 3 c-296 2 -317 1 -332 -16z"/>
<path d="M1290 1737 c-38 -19 -49 -45 -26 -63 24 -17 534 -21 567 -4 22 12 25
52 5 69 -19 16 -513 14 -546 -2z"/>
<path d="M1268 1529 c-24 -13 -23 -56 1 -69 12 -6 123 -10 290 -10 257 0 271
1 281 19 14 27 13 37 -6 55 -19 19 -535 24 -566 5z"/>
<path d="M1270 1315 c-18 -21 -4 -64 23 -70 12 -3 150 -4 307 -3 l285 3 10 28
c19 55 5 57 -321 57 -246 0 -293 -2 -304 -15z"/>
<path d="M1258 1119 c-23 -13 -24 -65 -2 -73 9 -3 204 -6 435 -6 l419 0 6 26
c15 59 14 59 -434 61 -270 2 -413 -1 -424 -8z"/>
<path d="M2405 1999 c-125 -29 -149 -41 -222 -113 -40 -39 -73 -76 -73 -84 0
-7 -9 -30 -20 -52 -25 -49 -29 -229 -6 -282 8 -18 22 -53 32 -76 11 -28 40
-64 78 -97 126 -113 316 -138 464 -61 41 21 171 163 178 195 4 14 13 38 21 54
8 17 14 60 14 115 0 123 -22 178 -106 270 -78 85 -122 110 -225 128 -85 15
-81 15 -135 3z m207 -107 c55 -25 123 -93 154 -154 29 -58 36 -226 10 -247 -8
-7 -18 -25 -21 -41 -8 -38 -114 -141 -167 -162 -146 -58 -338 13 -405 150 -40
82 -41 241 -1 317 74 142 276 206 430 137z"/>
<path d="M1832 618 c-6 -7 -12 -26 -14 -43 -3 -26 -8 -31 -40 -36 -51 -8 -86
-34 -96 -72 -18 -64 28 -93 53 -33 23 55 82 57 87 3 2 -27 7 -32 28 -32 25 0
25 1 28 99 3 111 -14 153 -46 114z"/>
<path d="M3311 606 c-8 -9 -11 -47 -9 -107 3 -93 3 -94 28 -94 20 0 27 7 35
33 13 46 65 48 65 2 0 -36 24 -50 47 -27 42 41 -14 136 -72 121 -31 -8 -45 6
-45 47 0 15 -7 30 -16 33 -21 8 -20 8 -33 -8z"/>
<path d="M1130 527 c-39 -14 -61 -48 -58 -92 5 -53 57 -43 58 11 0 32 29 38
62 14 46 -34 69 -20 44 28 -11 22 -56 55 -69 51 -1 0 -18 -5 -37 -12z"/>
<path d="M1960 522 c-43 -21 -49 -50 -19 -92 25 -33 77 -42 98 -16 13 16 -12
36 -44 36 -9 0 -15 6 -12 13 3 8 20 11 51 9 43 -3 46 -2 46 22 0 20 -7 27 -37
35 -48 14 -42 14 -83 -7z"/>
<path d="M2520 526 c-60 -19 -81 -126 -26 -126 30 0 41 16 37 52 -2 22 2 28
18 28 24 0 35 -15 35 -50 1 -21 6 -25 31 -25 29 0 30 2 29 43 -1 67 -55 101
-124 78z"/>
<path d="M2749 526 c-23 -8 -35 -18 -37 -33 -3 -23 -1 -25 50 -27 37 -1 39
-20 3 -26 -41 -7 -34 -24 15 -33 72 -15 94 -3 87 44 -9 70 -52 96 -118 75z"/>
<path d="M687 523 c-15 -15 -7 -113 9 -120 23 -8 48 9 52 36 2 12 14 26 27 31
58 22 36 60 -35 60 -25 0 -50 -3 -53 -7z"/>
<path d="M860 490 c-42 -53 -38 -85 10 -85 33 0 35 2 33 32 -2 25 2 33 18 38
26 9 42 -12 29 -36 -13 -23 12 -43 45 -35 28 7 33 34 14 83 -13 36 -25 43 -76
43 -36 0 -45 -5 -73 -40z"/>
<path d="M1333 520 c-13 -5 -23 -17 -23 -27 0 -9 -10 -27 -22 -40 -20 -22 -21
-25 -6 -40 21 -20 43 -12 60 24 19 40 53 42 72 5 18 -35 43 -47 62 -31 12 10
12 15 -1 35 -8 13 -15 30 -15 38 0 36 -74 57 -127 36z"/>
<path d="M1560 521 c-24 -7 -29 -31 -21 -103 4 -36 101 47 101 85 0 25 -31 32
-80 18z"/>
<path d="M2282 514 c-40 -28 -45 -50 -20 -84 19 -26 28 -30 58 -28 43 4 54 32
16 42 -15 4 -26 11 -26 17 0 16 24 21 52 10 18 -7 29 -6 37 2 41 41 -63 79
-117 41z"/>
<path d="M2932 522 c-21 -14 -12 -116 10 -120 11 -2 22 6 30 23 6 15 25 33 41
41 47 25 34 58 -23 62 -25 1 -51 -2 -58 -6z"/>
<path d="M3086 518 c-11 -34 -14 -94 -7 -106 15 -24 53 -10 65 25 15 44 23 49
46 28 28 -26 52 -13 48 27 -3 35 -35 50 -61 30 -7 -5 -21 -6 -32 -1 -30 12
-55 10 -59 -3z"/>
</g>
</svg>
