<?xml version="1.0" standalone="no"?>
<!DOCTYPE svg PUBLIC "-//W3C//DTD SVG 20010904//EN"
 "http://www.w3.org/TR/2001/REC-SVG-20010904/DTD/svg10.dtd">
<svg version="1.0" xmlns="http://www.w3.org/2000/svg"
 width="245.562021pt" height="248.869616pt" viewBox="0 0 245.562021 248.869616"
 preserveAspectRatio="xMidYMid meet">
<metadata>
Created by potrace 1.16, written by Peter Selinger 2001-2019
</metadata>
<g transform="translate(-48.053180,293.868360) scale(0.100000,-0.100000)"
fill="#000000" stroke="none">
<path d="M2429 2903 c-12 -21 -46 -85 -76 -143 -97 -189 -126 -245 -134 -260
-95 -179 -104 -213 -57 -218 25 -3 31 7 119 180 82 162 168 330 208 405 10 19
11 31 2 49 -15 34 -36 30 -62 -13z"/>
<path d="M886 2903 c-116 -82 -134 -130 -56 -150 l35 -9 5 -136 c4 -114 8
-139 24 -156 15 -17 17 -30 11 -72 -7 -50 -6 -52 16 -48 21 3 24 8 22 38 -2
19 -3 42 -4 50 0 16 10 60 35 147 22 77 20 277 -2 323 -22 44 -38 47 -86 13z"/>
<path d="M1228 2903 c-23 -25 -23 -43 0 -43 9 0 40 -15 67 -33 47 -30 50 -35
57 -87 15 -106 29 -159 50 -185 19 -24 19 -27 4 -44 -24 -26 -21 -44 7 -35 12
3 22 7 22 8 0 0 8 15 18 33 13 24 17 55 17 145 0 193 -32 242 -164 255 -52 5
-64 2 -78 -14z"/>
<path d="M1645 2897 c-84 -40 -98 -82 -93 -293 l3 -169 30 -42 c40 -57 101
-83 194 -83 125 0 161 58 161 258 0 95 -14 248 -25 281 -22 63 -180 91 -270
48z m159 -88 l26 -20 0 -183 c0 -209 1 -206 -82 -206 -82 0 -92 20 -93 200 -2
143 4 181 31 211 23 26 84 25 118 -2z"/>
<path d="M2051 2894 c-74 -62 -63 -265 15 -294 107 -41 184 29 184 167 0 124
-115 198 -199 127z m113 -66 c46 -65 -25 -215 -71 -152 -16 21 -17 127 -3 155
14 26 55 24 74 -3z"/>
<path d="M1135 2872 c-43 -31 -68 -105 -43 -130 14 -14 21 -101 19 -232 -2
-95 -2 -95 31 -129 42 -43 61 -49 128 -44 111 8 160 33 160 79 0 33 -27 38
-42 7 -17 -35 -78 -56 -141 -48 -53 8 -63 15 -92 68 -19 35 -19 38 -2 66 18
31 23 105 8 143 -4 13 -12 53 -15 91 -7 62 -6 67 12 67 33 0 48 27 27 50 -19
21 -33 25 -50 12z"/>
<path d="M2431 2611 c-29 -26 -35 -39 -44 -103 -18 -127 11 -194 90 -205 110
-15 153 28 153 151 0 155 -107 239 -199 157z m119 -162 c0 -76 -1 -79 -26 -85
-52 -13 -74 9 -74 75 0 73 13 109 42 120 40 16 58 -18 58 -110z"/>
<path d="M2042 2147 c-13 -16 -14 -261 -1 -295 13 -33 174 -30 174 3 0 17 -8
21 -58 25 -90 8 -110 70 -27 82 40 5 39 43 -2 54 -29 9 -33 14 -33 44 0 34 1
35 48 40 49 6 84 30 73 49 -10 16 -161 14 -174 -2z"/>
<path d="M2269 2144 c-15 -18 9 -44 42 -44 28 0 32 -17 30 -135 -2 -117 7
-145 44 -131 12 4 15 27 15 124 0 124 7 147 45 154 12 2 20 11 20 23 0 28
-173 36 -196 9z"/>
<path d="M2524 2148 c-16 -26 -4 -292 14 -305 20 -16 144 -17 160 -1 19 19 -6
38 -50 38 -81 0 -107 47 -43 77 43 20 44 38 5 58 -65 34 -45 95 31 95 46 0 69
8 69 25 0 19 -24 25 -105 25 -47 0 -77 -4 -81 -12z"/>
<path d="M756 2134 c-26 -26 -18 -32 27 -21 52 14 55 16 37 27 -22 14 -47 12
-64 -6z"/>
<path d="M1432 2138 c-17 -17 -15 -85 2 -91 13 -5 22 18 29 77 2 23 -14 31
-31 14z"/>
<path d="M1585 2142 c-13 -9 -16 -92 -4 -92 5 0 9 11 9 25 0 32 32 49 81 41
32 -5 37 -3 33 9 -4 10 -20 15 -44 15 -21 0 -44 2 -52 5 -7 3 -18 1 -23 -3z"/>
<path d="M1008 2128 c-21 -7 -28 -16 -28 -36 l1 -27 22 28 c16 19 32 27 55 27
18 0 32 5 32 10 0 13 -46 12 -82 -2z"/>
<path d="M1255 2093 c2 -21 4 -49 5 -63 l0 -25 20 25 c23 29 24 40 8 75 -18
39 -38 32 -33 -12z"/>
<path d="M1120 2098 c0 -9 5 -20 11 -23 17 -11 20 0 4 21 -13 17 -14 17 -15 2z"/>
<path d="M727 2083 c-4 -3 -7 -11 -7 -17 0 -6 5 -5 12 2 6 6 9 14 7 17 -3 3
-9 2 -12 -2z"/>
<path d="M1810 2045 c-19 -49 -12 -159 11 -189 33 -42 172 -35 156 8 -4 11
-19 16 -45 16 -65 0 -77 17 -77 106 0 67 -3 79 -17 82 -12 2 -21 -6 -28 -23z"/>
<path d="M1725 2030 c-4 -6 -22 -17 -41 -25 -43 -18 -44 -48 -2 -53 27 -3 68
42 68 76 0 15 -16 16 -25 2z"/>
<path d="M1452 1950 c2 -48 7 -85 13 -85 13 0 7 146 -6 160 -6 6 -9 -21 -7
-75z"/>
<path d="M707 1992 c-31 -34 -11 -128 31 -151 59 -31 142 -3 142 47 0 26 1 26
-39 6 -47 -23 -77 -8 -86 44 -10 60 -26 79 -48 54z"/>
<path d="M1580 1980 c0 -19 3 -21 12 -12 9 9 9 15 0 24 -9 9 -12 7 -12 -12z"/>
<path d="M1566 1929 c-21 -30 -21 -73 0 -90 25 -20 47 15 39 61 -9 48 -20 56
-39 29z"/>
<path d="M980 1898 c0 -15 5 -30 10 -33 13 -8 13 25 0 45 -8 12 -10 9 -10 -12z"/>
<path d="M1126 1913 c-9 -9 -7 -33 3 -33 12 0 22 28 12 34 -5 3 -11 3 -15 -1z"/>
<path d="M1399 1698 c-23 -4 -53 -15 -67 -24 l-26 -17 23 -18 c22 -18 48 -19
412 -19 256 0 390 -4 394 -10 7 -12 7 -871 0 -878 -3 -4 -503 -5 -602 -2 -7 0
-19 13 -28 30 -42 81 -142 150 -218 150 -69 -1 -139 -51 -205 -147 -21 -31
-26 -33 -80 -33 -83 0 -85 2 -81 111 4 103 -1 119 -36 119 -47 0 -55 -22 -55
-145 0 -62 3 -121 6 -130 11 -29 60 -45 136 -45 86 0 87 -1 123 -65 34 -59 64
-95 81 -95 6 0 17 -7 24 -15 9 -11 33 -15 86 -15 106 0 166 36 213 127 11 23
30 47 40 53 13 6 149 10 373 10 l353 0 23 -35 c12 -19 22 -38 22 -43 0 -18 54
-72 91 -92 96 -49 252 -3 291 86 31 73 45 84 107 84 120 0 145 46 135 255 -6
150 -9 159 -69 211 -30 25 -57 55 -61 66 -3 11 -16 35 -29 54 -12 18 -40 74
-61 123 -71 168 -105 188 -326 194 -157 4 -168 9 -168 72 0 49 -21 73 -71 81
-55 8 -704 10 -750 2z m1121 -252 c25 -7 46 -20 48 -29 3 -14 -12 -16 -117
-14 -154 3 -147 10 -156 -163 -9 -189 -31 -174 252 -180 303 -7 287 5 297
-203 5 -106 -1 -121 -52 -134 -36 -9 -74 15 -95 62 -32 69 -93 99 -203 99
-102 1 -150 -21 -188 -85 -27 -46 -53 -69 -70 -63 -17 7 -24 667 -7 693 19 30
211 41 291 17z m38 -135 c14 -4 33 -19 42 -33 52 -89 70 -122 70 -134 0 -16
-267 -9 -287 8 -8 7 -13 37 -13 82 0 93 6 99 93 91 38 -4 81 -10 95 -14z
m-1191 -517 c115 -88 47 -265 -100 -255 -9 0 -38 20 -62 42 -42 38 -45 45 -45
91 0 115 122 187 207 122z m1189 6 c30 -11 69 -61 79 -103 17 -66 -65 -157
-140 -157 -60 0 -135 80 -135 145 0 40 54 113 88 118 52 8 79 7 108 -3z"/>
<path d="M1233 729 c-42 -27 -44 -65 -5 -102 39 -38 82 -36 116 4 66 78 -22
155 -111 98z"/>
<path d="M2442 727 c-33 -34 -28 -67 13 -100 44 -35 73 -32 102 12 28 41 28
38 3 79 -25 41 -84 46 -118 9z"/>
<path d="M863 1678 c-24 -27 -38 -129 -20 -147 31 -31 75 -10 106 52 13 27 22
33 55 35 21 2 48 9 60 16 14 9 51 12 113 11 69 -2 95 1 104 11 6 8 8 14 3 15
-5 0 -56 1 -114 3 -60 1 -114 7 -127 14 -40 22 -156 15 -180 -10z"/>
<path d="M498 1449 c-21 -12 -23 -42 -4 -58 9 -8 110 -12 326 -14 347 -2 354
-1 317 57 l-17 26 -303 0 c-186 0 -309 -5 -319 -11z"/>
<path d="M733 1270 c-71 -6 -103 -20 -103 -46 0 -28 41 -34 225 -34 192 0 225
6 225 40 0 48 -115 62 -347 40z"/>
<path d="M600 1090 c-31 -4 -35 -8 -35 -35 l0 -30 115 -6 c234 -13 367 -10
384 7 20 19 20 38 2 53 -14 12 -396 21 -466 11z"/>
</g>
</svg>
