<?xml version="1.0" standalone="no"?>
<!DOCTYPE svg PUBLIC "-//W3C//DTD SVG 20010904//EN"
 "http://www.w3.org/TR/2001/REC-SVG-20010904/DTD/svg10.dtd">
<svg version="1.0" xmlns="http://www.w3.org/2000/svg"
 width="241.648657pt" height="241.219829pt" viewBox="0 0 241.648657 241.219829"
 preserveAspectRatio="xMidYMid meet">
<metadata>
Created by potrace 1.16, written by Peter Selinger 2001-2019
</metadata>
<g transform="translate(-42.029212,284.832760) scale(0.100000,-0.100000)"
fill="#000000" stroke="none">
<path d="M1582 2814 c-18 -20 -32 -44 -32 -54 0 -10 -6 -31 -14 -47 -32 -65
-56 -125 -56 -140 0 -9 -9 -34 -19 -57 -46 -96 -45 -303 2 -353 22 -25 24 -46
8 -153 -14 -105 -15 -1392 0 -1460 31 -144 259 -153 299 -12 13 49 13 1331 0
1474 -10 107 -10 108 17 160 50 95 30 291 -52 520 -56 157 -95 188 -153 122z
m81 -209 c11 -33 28 -81 38 -107 11 -26 19 -60 19 -77 0 -16 5 -52 12 -80 15
-64 1 -112 -47 -168 -38 -44 -41 -58 -24 -97 15 -33 -2 -56 -43 -56 -36 0 -46
23 -24 60 20 34 15 50 -41 118 -34 41 -43 61 -43 90 1 74 21 177 55 275 19 55
35 102 35 104 0 3 10 3 21 1 17 -2 27 -17 42 -63z m19 -1337 c3 -662 1 -724
-24 -740 -24 -14 -65 -8 -84 13 -18 20 -19 47 -20 695 0 464 3 677 10 683 12
10 47 18 88 20 l28 1 2 -672z"/>
<path d="M2250 2838 c-216 -30 -282 -120 -236 -321 8 -34 19 -98 25 -142 26
-187 34 -223 57 -274 13 -30 33 -60 43 -67 12 -9 27 -46 41 -106 17 -70 31
-103 56 -135 33 -40 34 -44 34 -134 0 -52 -7 -152 -15 -224 -51 -464 -72 -769
-55 -839 18 -82 123 -156 220 -156 138 0 239 99 240 235 0 82 -22 384 -36 485
-7 58 -19 177 -25 265 -6 88 -15 182 -20 209 -14 77 -11 99 25 159 21 35 41
87 52 139 14 63 25 89 47 113 49 50 55 66 67 160 6 50 15 108 20 130 6 22 14
83 20 135 5 52 14 111 20 130 20 69 -5 149 -52 165 -10 4 -18 10 -18 15 0 11
-81 37 -175 56 -77 15 -234 17 -335 2z m272 -88 c54 -5 105 -14 115 -19 10 -5
30 -14 46 -20 31 -12 33 -27 12 -78 -8 -19 -15 -47 -15 -62 -1 -14 -8 -44 -16
-66 -9 -22 -20 -62 -26 -89 -24 -123 -54 -145 -210 -153 -197 -11 -251 29
-265 194 -3 43 -12 95 -20 117 -7 21 -13 60 -13 87 0 45 2 49 28 55 15 3 38
10 53 15 64 24 182 32 311 19z m168 -533 c-6 -29 -14 -59 -16 -68 -9 -33 -58
-41 -263 -44 -229 -3 -238 -1 -257 65 -22 74 -7 88 47 43 l33 -28 189 0 189 0
18 25 c72 96 80 97 60 7z m-118 -205 c9 -9 9 -25 -3 -69 -21 -81 -52 -98 -168
-95 -129 4 -134 8 -135 117 -1 47 0 50 29 55 59 10 265 4 277 -8z m-100 -243
c13 -7 17 -29 21 -106 5 -116 35 -479 41 -508 3 -11 12 -131 21 -267 16 -239
16 -249 -2 -285 -20 -43 -87 -83 -137 -83 -38 0 -103 44 -123 84 -22 43 -3
383 44 781 9 77 18 196 19 265 1 69 3 126 3 128 2 6 98 -2 113 -9z"/>
<path d="M702 2539 c-29 -5 -62 -14 -74 -20 -34 -18 -65 -105 -72 -201 -4 -47
-11 -101 -17 -120 -5 -18 -14 -73 -20 -122 -14 -111 -22 -133 -65 -172 -32
-30 -34 -35 -34 -95 1 -52 5 -69 23 -89 26 -30 112 -80 137 -80 10 0 27 -8 39
-17 20 -17 22 -31 31 -248 6 -126 13 -240 15 -253 3 -13 0 -39 -7 -58 -10 -28
-9 -39 5 -69 16 -33 16 -38 1 -67 -14 -26 -14 -37 -4 -69 10 -31 10 -44 0 -69
-11 -26 -10 -35 5 -63 16 -31 16 -35 1 -65 -17 -32 -16 -33 23 -100 76 -131
186 -164 268 -79 56 56 63 80 63 201 0 74 4 107 15 122 21 28 18 74 -7 101
l-21 23 20 23 c19 21 21 35 22 232 2 357 13 441 59 450 15 3 44 15 64 25 20
11 44 20 52 20 29 0 76 79 76 127 0 44 -23 103 -40 103 -17 0 -60 86 -60 121
0 19 -7 58 -14 86 -8 29 -17 97 -21 150 -8 126 -40 230 -75 248 -65 33 -260
45 -388 24z m261 -108 c6 -23 -9 -184 -24 -257 -11 -59 -56 -91 -111 -79 -43
10 -56 39 -68 155 -6 58 -13 119 -16 136 -9 52 13 64 121 64 83 0 93 -2 98
-19z m-280 -256 c11 -117 45 -149 167 -160 110 -10 151 29 175 165 15 87 25
106 47 97 9 -3 18 -40 26 -113 7 -60 21 -145 32 -188 26 -102 20 -109 -93
-126 -97 -15 -398 -9 -439 8 -34 14 -34 23 -9 132 11 47 25 124 31 172 6 48
13 95 17 104 13 33 40 -20 46 -91z m527 -384 c0 -58 -123 -92 -353 -98 -179
-5 -206 0 -317 57 -56 29 -54 55 3 46 181 -27 290 -36 371 -31 137 8 219 19
241 33 31 18 55 15 55 -7z m-244 -194 c11 -11 1 -372 -12 -434 -5 -28 -31 -35
-127 -37 l-72 -1 -7 160 c-4 88 -12 194 -17 235 -5 41 -6 79 -1 85 12 14 222
7 236 -8z m-85 -567 c44 -24 -1 -70 -69 -70 -28 0 -46 32 -29 53 10 13 21 18
70 26 5 0 17 -4 28 -9z m39 -150 c0 -11 -8 -23 -17 -27 -10 -3 -37 -14 -61
-25 -40 -19 -72 -19 -72 0 0 19 27 42 65 55 60 22 85 21 85 -3z m-12 -147 c2
-14 -3 -23 -15 -26 -101 -27 -115 -29 -124 -20 -17 17 2 42 44 57 57 20 91 17
95 -11z m9 -140 c4 -10 -3 -24 -21 -40 -33 -28 -33 -28 -74 -3 -28 17 -31 23
-22 40 14 27 107 29 117 3z"/>
</g>
</svg>
