<?xml version="1.0" standalone="no"?>
<!DOCTYPE svg PUBLIC "-//W3C//DTD SVG 20010904//EN"
 "http://www.w3.org/TR/2001/REC-SVG-20010904/DTD/svg10.dtd">
<svg version="1.0" xmlns="http://www.w3.org/2000/svg"
 width="243.938482pt" height="219.489514pt" viewBox="0 0 243.938482 219.489514"
 preserveAspectRatio="xMidYMid meet">
<metadata>
Created by potrace 1.16, written by Peter Selinger 2001-2019
</metadata>
<g transform="translate(-43.928767,278.858623) scale(0.100000,-0.100000)"
fill="#000000" stroke="none">
<path d="M2495 2779 c-522 -12 -515 -11 -529 -32 -17 -22 -35 -134 -45 -277
-5 -74 -14 -128 -24 -150 -28 -57 -204 -231 -278 -275 -56 -33 -136 -94 -177
-134 -97 -95 -318 -300 -355 -330 -21 -16 -131 -120 -245 -229 -114 -110 -230
-219 -258 -243 -180 -154 -192 -311 -35 -450 71 -62 101 -71 210 -62 l75 6
125 126 c70 69 162 169 206 221 44 52 91 106 104 120 12 14 63 68 111 121 49
52 114 126 146 165 31 38 94 107 140 154 45 47 109 121 142 165 33 44 71 91
84 105 13 14 47 61 74 105 27 44 71 103 99 130 28 28 69 73 93 102 l43 52 1
188 c1 235 -2 228 114 237 48 4 103 13 123 21 20 7 71 16 115 20 43 3 95 12
115 20 20 7 62 16 93 18 78 7 112 25 116 60 4 30 -13 58 -32 55 -6 0 -164 -5
-351 -9z m-389 -156 c-3 -27 -8 -109 -11 -183 -9 -226 -14 -245 -97 -326 -38
-38 -81 -86 -94 -106 -28 -43 -48 -47 -81 -16 -36 33 -29 52 48 125 140 134
141 138 166 443 7 90 16 110 49 110 25 0 26 -2 20 -47z m-364 -720 c26 -26 48
-51 48 -56 0 -18 -93 -127 -108 -127 -17 0 -122 105 -122 121 0 15 103 108
120 109 8 0 36 -21 62 -47z m-199 -204 c60 -53 72 -84 41 -110 -9 -8 -64 -67
-123 -133 -58 -66 -119 -133 -137 -150 -17 -17 -55 -60 -85 -96 -49 -60 -75
-89 -199 -222 -25 -26 -56 -62 -70 -80 -143 -180 -210 -223 -298 -194 -81 27
-119 92 -106 183 6 42 19 58 126 154 67 60 228 212 320 301 49 48 119 114 156
147 37 32 111 102 165 155 119 116 127 118 210 45z"/>
</g>
</svg>
