<?xml version="1.0" standalone="no"?>
<!DOCTYPE svg PUBLIC "-//W3C//DTD SVG 20010904//EN"
 "http://www.w3.org/TR/2001/REC-SVG-20010904/DTD/svg10.dtd">
<svg version="1.0" xmlns="http://www.w3.org/2000/svg"
 width="199.263663pt" height="235.428341pt" viewBox="0 0 199.263663 235.428341"
 preserveAspectRatio="xMidYMid meet">
<metadata>
Created by potrace 1.16, written by Peter Selinger 2001-2019
</metadata>
<g transform="translate(-59.154170,281.048919) scale(0.100000,-0.100000)"
fill="#000000" stroke="none">
<path d="M1010 2795 c-137 -40 -128 -35 -239 -145 -147 -145 -172 -198 -179
-375 -2 -66 1 -142 7 -170 18 -90 43 -170 56 -185 7 -8 16 -25 20 -38 4 -13
22 -49 40 -82 18 -32 36 -73 40 -92 4 -18 15 -48 23 -65 14 -30 14 -43 -1
-146 -21 -142 -22 -361 -2 -437 8 -30 15 -69 15 -87 0 -18 13 -72 29 -120 58
-176 84 -225 163 -309 94 -98 180 -112 256 -41 25 23 82 129 82 153 0 7 9 42
19 76 11 35 34 119 51 188 18 68 38 133 46 144 8 11 14 30 14 43 0 12 5 25 11
29 6 3 19 25 29 48 27 62 72 100 107 91 43 -10 105 -85 131 -157 13 -35 29
-74 37 -88 14 -26 47 -144 67 -235 6 -27 19 -76 29 -108 11 -31 19 -63 19 -71
0 -7 7 -19 15 -26 8 -7 15 -21 15 -31 0 -27 50 -75 97 -94 162 -64 358 232
405 615 15 119 15 213 -1 360 -14 125 -9 237 13 279 8 14 19 37 25 51 7 14 23
43 36 65 14 22 28 47 31 55 55 126 67 183 68 325 1 125 -16 234 -43 273 -10
15 -31 47 -47 71 -42 63 -185 194 -230 209 -183 62 -396 52 -541 -27 -108 -58
-154 -68 -203 -42 -22 12 -47 21 -54 21 -7 0 -21 9 -31 20 -10 11 -25 20 -33
20 -7 0 -28 6 -45 14 -83 38 -256 48 -347 21z m240 -106 c30 -12 69 -28 85
-37 28 -14 41 -23 114 -80 50 -38 150 -91 201 -106 27 -8 57 -19 67 -24 40
-21 156 -23 182 -3 47 36 15 77 -74 96 -86 18 -135 36 -135 52 0 22 30 42 64
43 16 0 47 8 70 19 182 83 370 59 490 -63 66 -67 126 -144 126 -163 0 -10 7
-28 15 -39 24 -32 21 -263 -5 -311 -11 -21 -20 -46 -20 -56 0 -15 -13 -45 -51
-117 -45 -83 -61 -119 -71 -154 -13 -45 -14 -233 -3 -449 5 -91 4 -158 -4
-195 -33 -167 -43 -212 -59 -259 -10 -28 -23 -58 -29 -65 -5 -7 -20 -34 -31
-59 -23 -47 -103 -139 -122 -139 -19 0 -60 48 -60 70 0 12 -7 34 -15 50 -9 16
-18 51 -22 77 -3 27 -10 53 -15 60 -5 7 -16 36 -23 65 -23 91 -55 198 -64 216
-103 209 -124 234 -230 262 -101 27 -238 -68 -276 -191 -4 -13 -12 -30 -18
-37 -11 -14 -43 -122 -58 -202 -6 -30 -17 -70 -25 -88 -8 -18 -14 -43 -14 -55
-1 -12 -8 -40 -16 -62 -9 -22 -20 -57 -25 -78 -12 -47 -47 -97 -69 -97 -35 0
-160 168 -160 215 0 9 -9 33 -19 53 -11 20 -25 60 -31 87 -7 28 -17 70 -23 95
-7 28 -11 176 -12 385 l0 340 -48 90 c-27 50 -52 94 -58 99 -5 6 -9 19 -9 31
0 11 -7 31 -17 44 -22 33 -52 164 -53 233 0 127 40 220 136 315 103 102 155
128 284 143 36 4 67 8 70 8 2 1 29 -8 60 -19z"/>
</g>
</svg>
