<?xml version="1.0" standalone="no"?>
<!DOCTYPE svg PUBLIC "-//W3C//DTD SVG 20010904//EN"
 "http://www.w3.org/TR/2001/REC-SVG-20010904/DTD/svg10.dtd">
<svg version="1.0" xmlns="http://www.w3.org/2000/svg"
 width="244.164706pt" height="206.835156pt" viewBox="0 0 244.164706 206.835156"
 preserveAspectRatio="xMidYMid meet">
<metadata>
Created by potrace 1.16, written by Peter Selinger 2001-2019
</metadata>
<g transform="translate(-46.015399,272.517043) scale(0.100000,-0.100000)"
fill="#000000" stroke="none">
<path d="M1297 2720 c-21 -4 -43 -12 -50 -19 -6 -6 -20 -11 -32 -11 -55 0
-156 -92 -205 -185 -17 -33 -35 -64 -39 -70 -4 -5 -15 -53 -24 -105 -19 -111
-5 -252 33 -325 11 -21 20 -44 20 -51 0 -6 7 -17 15 -24 8 -7 15 -26 15 -43 0
-29 -1 -29 -37 -22 -161 34 -323 -87 -442 -330 -24 -50 -51 -102 -58 -118 -23
-44 -33 -183 -33 -454 0 -250 0 -252 23 -279 l24 -27 1179 2 1179 2 19 22 c30
35 20 680 -11 747 -12 25 -25 58 -28 72 -4 15 -13 32 -21 39 -8 6 -14 17 -14
24 0 38 -190 247 -266 293 -39 24 -122 27 -181 7 -28 -9 -30 7 -9 57 58 141
84 324 61 437 -48 234 -217 377 -432 366 -45 -3 -94 -10 -110 -16 -122 -47
-202 -60 -245 -38 -20 10 -51 19 -68 19 -17 0 -43 6 -58 14 -33 16 -153 26
-205 16z m208 -137 c164 -64 227 -68 340 -22 217 88 403 6 456 -201 26 -99 -9
-359 -51 -385 -6 -3 -10 -17 -10 -29 0 -13 -8 -34 -18 -47 -39 -51 -66 -159
-76 -312 -3 -43 -8 -81 -10 -86 -3 -5 -10 -46 -15 -92 -16 -144 -80 -310 -127
-331 -45 -21 -54 0 -100 257 -13 72 -28 129 -57 208 -16 46 -79 103 -127 115
-90 23 -175 -55 -195 -178 -4 -25 -13 -56 -20 -70 -7 -14 -16 -52 -19 -85 -4
-33 -13 -73 -20 -90 -8 -16 -17 -55 -20 -86 -10 -77 -35 -103 -71 -69 -25 23
-58 89 -89 175 -21 59 -19 48 -46 285 -26 232 -33 268 -69 344 -16 33 -32 72
-36 86 -4 14 -16 41 -26 60 -11 19 -19 47 -19 63 0 15 -7 41 -14 56 -18 34
-18 146 -1 181 7 14 15 40 18 58 15 77 111 177 197 203 45 13 183 9 225 -8z
m-501 -851 c81 -44 86 -58 107 -249 10 -92 25 -190 34 -217 8 -27 15 -59 15
-71 0 -13 6 -28 14 -34 8 -7 17 -23 20 -36 16 -62 106 -164 169 -190 37 -15
40 -15 75 6 48 29 91 78 92 104 0 11 6 29 14 40 7 11 17 49 21 85 4 36 13 80
21 99 8 18 14 48 14 66 0 74 58 205 91 205 29 0 62 -97 94 -281 39 -222 65
-280 145 -316 19 -9 37 -17 40 -19 11 -5 101 44 125 68 33 33 115 211 115 249
0 17 6 42 14 57 8 15 17 70 21 122 11 136 36 225 76 266 18 19 38 34 45 34 6
0 17 7 24 15 8 10 30 15 61 15 46 0 52 -3 119 -68 38 -37 70 -71 70 -75 0 -5
13 -25 29 -45 32 -42 70 -112 100 -189 29 -72 32 -571 4 -594 -21 -18 -2158
-16 -2180 2 -10 9 -13 61 -13 234 0 229 13 345 44 403 89 166 124 217 180 268
87 79 125 88 200 46z"/>
<path d="M1872 2497 c-44 -47 -14 -92 66 -99 65 -6 104 -39 128 -110 28 -87
104 -73 104 19 0 73 -82 182 -137 183 -10 0 -27 7 -37 15 -31 24 -99 19 -124
-8z"/>
</g>
</svg>
