<?xml version="1.0" standalone="no"?>
<!DOCTYPE svg PUBLIC "-//W3C//DTD SVG 20010904//EN"
 "http://www.w3.org/TR/2001/REC-SVG-20010904/DTD/svg10.dtd">
<svg version="1.0" xmlns="http://www.w3.org/2000/svg"
 width="219.823403pt" height="225.545006pt" viewBox="0 0 219.823403 225.545006"
 preserveAspectRatio="xMidYMid meet">
<metadata>
Created by potrace 1.16, written by Peter Selinger 2001-2019
</metadata>
<g transform="translate(-44.266556,269.487309) scale(0.100000,-0.100000)"
fill="#000000" stroke="none">
<path d="M864 2685 c-34 -7 -70 -18 -80 -23 -11 -5 -30 -14 -44 -20 -113 -46
-250 -229 -270 -360 -5 -31 -14 -75 -21 -97 -13 -45 -5 -203 11 -219 6 -6 10
-24 10 -41 0 -17 13 -71 30 -121 33 -97 30 -92 88 -214 68 -146 74 -171 83
-355 4 -93 15 -199 23 -235 9 -36 20 -87 25 -115 49 -253 178 -445 301 -445
61 0 150 65 150 110 0 10 6 23 14 29 8 7 17 35 21 64 4 29 13 63 20 77 7 14
16 63 20 109 3 46 11 96 17 110 6 14 14 51 18 81 15 105 74 220 115 220 51 0
124 -148 125 -252 1 -24 7 -61 15 -83 8 -22 17 -74 21 -115 4 -41 13 -87 20
-102 8 -15 14 -37 14 -48 0 -32 46 -122 77 -152 120 -111 249 -30 358 227 40
94 79 324 96 560 10 150 36 272 65 306 8 8 14 22 14 30 -1 20 -46 69 -64 69
-16 0 -66 -55 -66 -72 0 -6 -6 -19 -13 -27 -35 -41 -55 -144 -61 -316 -8 -231
-56 -487 -103 -547 -5 -7 -13 -21 -16 -30 -24 -67 -90 -134 -121 -122 -27 11
-64 103 -75 189 -5 45 -15 93 -20 109 -6 15 -11 47 -11 72 0 24 -9 70 -20 101
-11 32 -20 70 -20 85 0 26 -53 140 -83 178 -62 80 -208 73 -262 -13 -44 -69
-74 -134 -74 -160 -1 -15 -8 -41 -15 -56 -8 -15 -18 -52 -21 -82 -4 -30 -11
-66 -16 -80 -6 -14 -16 -66 -24 -115 -25 -165 -55 -234 -102 -234 -16 0 -83
69 -83 86 0 6 -8 22 -18 35 -56 74 -112 328 -112 512 -1 67 -5 140 -9 162 -5
22 -14 67 -21 100 -7 35 -43 124 -84 210 -124 255 -150 422 -97 608 66 231
293 363 512 298 75 -23 234 -96 245 -112 6 -10 128 -69 142 -69 5 0 24 -7 42
-16 55 -28 114 -30 139 -5 42 42 15 85 -61 97 -47 8 -64 27 -51 56 18 41 276
74 347 44 21 -9 45 -16 54 -16 9 0 37 -18 63 -40 26 -22 56 -40 66 -40 22 0
73 49 73 71 0 13 -100 99 -115 99 -3 0 -25 9 -49 20 -89 40 -291 43 -380 6
-17 -7 -49 -16 -71 -20 -21 -4 -57 -17 -79 -28 -45 -23 -132 -22 -161 2 -71
59 -304 93 -441 65z"/>
<path d="M2234 2485 c-12 -8 -27 -36 -34 -62 -47 -177 -66 -200 -190 -239
-107 -32 -146 -69 -113 -106 19 -21 152 -88 176 -88 41 0 117 -152 117 -236 0
-28 19 -44 52 -44 35 0 65 33 79 85 6 22 17 53 25 68 8 16 14 35 14 43 0 21
77 94 99 94 11 0 26 7 35 15 8 9 36 19 61 24 110 21 116 108 9 126 -130 21
-212 105 -243 247 -16 76 -47 102 -87 73z m59 -290 c15 -19 45 -44 67 -55 56
-29 56 -35 1 -71 -27 -18 -59 -50 -71 -71 -27 -49 -31 -48 -68 12 -19 31 -45
56 -67 67 -45 21 -44 26 9 63 25 16 54 44 66 60 27 38 29 38 63 -5z"/>
<path d="M1696 1989 c-14 -17 -26 -40 -26 -51 0 -42 -34 -79 -103 -113 -80
-39 -97 -52 -97 -74 0 -22 64 -71 93 -71 13 0 42 -14 65 -32 37 -29 42 -37 42
-74 0 -30 7 -48 25 -68 46 -50 88 -25 101 58 8 57 36 89 92 107 52 16 112 56
112 75 0 23 -50 64 -79 64 -48 0 -91 39 -113 105 -20 61 -51 105 -74 105 -7 0
-24 -14 -38 -31z m70 -214 c13 -50 -22 -81 -56 -50 -24 22 -25 33 -3 57 23 26
51 23 59 -7z"/>
</g>
</svg>
