<?xml version="1.0" standalone="no"?>
<!DOCTYPE svg PUBLIC "-//W3C//DTD SVG 20010904//EN"
 "http://www.w3.org/TR/2001/REC-SVG-20010904/DTD/svg10.dtd">
<svg version="1.0" xmlns="http://www.w3.org/2000/svg"
 width="244.184445pt" height="244.911649pt" viewBox="0 0 244.184445 244.911649"
 preserveAspectRatio="xMidYMid meet">
<metadata>
Created by potrace 1.16, written by Peter Selinger 2001-2019
</metadata>
<g transform="translate(-43.540061,287.954796) scale(0.100000,-0.100000)"
fill="#000000" stroke="none">
<path d="M1450 2865 c-30 -7 -75 -18 -100 -23 -127 -29 -326 -114 -377 -161
-18 -16 -59 -50 -90 -74 -84 -65 -244 -246 -292 -332 -44 -78 -121 -281 -121
-319 0 -13 -7 -41 -17 -62 -23 -55 -24 -395 0 -469 8 -27 18 -67 22 -89 3 -21
12 -52 20 -70 7 -17 28 -67 45 -111 45 -117 48 -120 137 -230 112 -137 127
-152 202 -213 157 -128 181 -145 216 -159 16 -6 66 -25 110 -43 44 -18 98 -36
120 -40 22 -5 61 -15 88 -22 76 -22 376 -24 462 -3 39 10 88 21 110 25 22 4
76 22 120 40 44 18 94 37 110 44 41 16 80 42 154 101 35 28 87 69 117 93 76
61 234 267 274 358 101 229 140 497 105 719 -21 130 -101 398 -124 415 -4 3
-33 46 -65 95 -90 138 -292 327 -424 398 -58 30 -242 98 -297 109 -27 6 -68
16 -90 24 -54 18 -338 18 -415 -1z m450 -95 c47 -12 94 -29 105 -36 11 -8 28
-14 37 -14 34 0 209 -89 270 -137 137 -108 243 -223 303 -328 16 -27 34 -57
41 -65 24 -28 98 -247 108 -315 3 -22 12 -69 20 -105 17 -75 19 -165 5 -230
-5 -25 -16 -81 -24 -125 -50 -279 -194 -493 -482 -711 -70 -53 -259 -134 -348
-150 -22 -4 -52 -13 -67 -20 -47 -24 -374 -19 -438 6 -28 11 -61 20 -73 20
-31 0 -179 54 -227 82 -21 13 -64 38 -95 56 -71 43 -212 176 -270 255 -24 34
-54 74 -65 89 -26 34 -87 157 -96 194 -4 16 -14 43 -22 59 -9 17 -21 57 -28
90 -7 33 -17 78 -23 100 -19 74 -14 325 9 397 11 34 20 72 20 83 0 11 6 30 14
41 8 11 19 40 26 64 26 96 113 239 209 343 84 90 219 201 287 235 106 53 149
72 162 72 8 0 33 9 56 19 136 63 408 78 586 31z"/>
<path d="M1463 2721 c-34 -4 -68 -13 -75 -18 -7 -6 -32 -14 -55 -18 -22 -3
-49 -13 -60 -20 -10 -8 -25 -15 -34 -15 -9 0 -28 -9 -42 -20 -14 -11 -30 -20
-37 -20 -47 0 -266 -182 -338 -280 -98 -134 -112 -155 -112 -168 0 -7 -9 -25
-20 -39 -11 -14 -20 -31 -20 -39 0 -7 -6 -25 -14 -41 -52 -104 -76 -233 -76
-402 1 -118 22 -266 44 -306 9 -16 16 -35 16 -41 0 -22 75 -170 97 -192 7 -7
13 -20 13 -29 0 -14 26 -48 125 -160 82 -94 297 -243 349 -243 8 0 19 -7 26
-15 7 -8 22 -15 34 -15 11 0 35 -9 51 -20 17 -11 47 -20 70 -20 22 0 60 -9 84
-20 63 -29 266 -29 330 0 24 11 63 20 87 20 32 0 49 6 61 20 10 11 28 20 42
20 26 0 126 44 136 60 3 6 14 10 24 10 10 0 26 9 36 20 10 11 25 20 33 20 19
0 131 98 238 208 85 87 204 290 204 348 0 14 8 41 19 62 40 80 36 502 -6 529
-17 11 -20 21 -16 57 5 37 2 46 -16 55 -15 9 -20 18 -16 34 4 15 -1 32 -14 49
-12 14 -21 33 -21 41 0 8 -9 26 -20 40 -11 14 -20 29 -20 33 0 45 -214 286
-287 322 -22 12 -43 25 -45 30 -1 4 -43 28 -93 51 -49 24 -101 49 -115 56 -14
7 -43 16 -65 20 -21 3 -52 13 -67 21 -33 17 -336 27 -435 15z m310 -52 c67 -6
134 -17 149 -25 15 -8 39 -14 53 -14 15 0 38 -9 52 -20 14 -11 36 -20 48 -20
12 0 28 -7 35 -15 6 -8 21 -17 31 -20 45 -14 152 -93 232 -170 50 -48 187
-240 187 -262 0 -6 7 -13 15 -17 8 -3 15 -17 15 -31 0 -14 9 -34 20 -45 11
-11 20 -33 20 -49 0 -15 8 -39 18 -52 46 -59 46 -472 1 -562 -10 -21 -19 -48
-19 -60 0 -12 -9 -35 -20 -52 -11 -16 -20 -35 -20 -42 0 -30 -129 -199 -218
-285 -96 -92 -232 -193 -277 -204 -13 -3 -26 -12 -29 -20 -3 -8 -18 -14 -34
-14 -16 0 -41 -9 -55 -20 -15 -12 -41 -20 -64 -20 -21 -1 -56 -7 -78 -15 -56
-21 -297 -20 -355 0 -23 8 -59 15 -79 15 -20 0 -49 9 -66 20 -16 11 -38 20
-48 20 -11 0 -30 9 -44 20 -14 11 -32 20 -39 20 -7 0 -45 23 -86 50 -40 28
-89 61 -109 74 -39 27 -96 84 -131 134 -92 130 -148 215 -148 226 0 7 -9 25
-20 39 -11 14 -20 35 -20 47 0 11 -6 33 -14 48 -49 98 -53 509 -5 605 10 21
19 47 19 58 0 12 9 32 20 46 11 14 20 33 21 42 0 9 20 43 45 76 24 33 60 84
80 112 43 63 161 181 189 189 11 4 27 13 35 20 8 7 24 21 35 31 11 10 31 24
45 30 14 7 32 17 40 22 33 19 111 51 126 51 8 0 27 6 43 14 57 30 232 41 404
25z"/>
<path d="M1171 2410 c-45 -33 -55 -51 -65 -122 -8 -55 10 -162 30 -179 8 -6
14 -19 14 -28 0 -44 98 -111 162 -111 47 0 126 36 163 74 35 36 58 45 70 25
18 -28 90 -69 123 -69 37 0 113 31 146 59 17 15 20 14 47 -18 41 -49 119 -72
203 -60 103 14 96 7 115 119 6 30 15 75 20 100 32 142 -4 218 -98 205 -30 -4
-51 -3 -55 4 -11 17 -148 1 -171 -19 -19 -18 -21 -18 -55 0 -43 23 -80 25
-106 5 -27 -20 -57 -18 -77 5 -21 25 -55 26 -82 0 -21 -20 -21 -20 -67 5 -45
24 -47 24 -93 9 -45 -16 -47 -16 -69 5 -35 33 -102 29 -155 -9z m119 -30 c5 0
15 -12 22 -27 16 -35 48 -40 73 -13 20 23 63 26 89 7 15 -11 16 -23 10 -96
l-7 -83 -71 -59 c-77 -63 -90 -67 -142 -43 -60 29 -94 95 -94 183 0 42 4 81 8
86 14 20 77 55 90 50 8 -3 18 -5 22 -5z m349 -52 l18 -22 51 22 c88 38 92 34
92 -93 0 -104 -9 -131 -49 -140 -17 -4 -33 -11 -36 -16 -29 -46 -195 68 -182
123 4 13 3 37 -2 53 -17 64 69 122 108 73z m505 -63 c-1 -111 -29 -189 -70
-192 -16 -2 -45 -5 -64 -9 -43 -7 -85 22 -95 65 -3 16 -17 39 -30 51 -32 30
-43 101 -22 133 18 28 119 32 170 7 25 -12 30 -12 50 9 45 44 62 26 61 -64z"/>
<path d="M831 1958 c-61 -34 -84 -88 -85 -205 -1 -133 14 -188 66 -248 53 -60
80 -73 177 -84 110 -12 211 8 211 43 0 8 18 37 40 64 21 28 42 63 46 79 4 15
13 41 21 56 26 52 22 166 -8 212 -53 82 -176 118 -224 65 -23 -25 -40 -25 -75
0 -36 26 -135 36 -169 18z m126 -68 c14 -11 31 -20 38 -20 7 0 18 -7 25 -15
19 -23 51 -17 90 15 47 41 80 39 120 -6 30 -34 31 -40 27 -98 -6 -81 -37 -165
-71 -190 -22 -17 -46 -21 -134 -24 -138 -5 -176 7 -217 68 -42 62 -45 205 -6
258 30 39 87 45 128 12z"/>
<path d="M1379 1904 c-37 -40 -34 -316 5 -375 38 -56 76 -73 152 -66 75 7 96
19 123 68 35 61 41 63 106 24 70 -43 62 -42 146 -1 l68 34 38 -29 c53 -40 85
-35 164 24 45 33 64 20 64 -42 0 -77 32 -101 133 -101 120 0 130 12 149 185
17 161 16 230 -2 265 -15 29 -18 30 -98 32 -126 3 -140 0 -162 -27 -27 -33
-45 -32 -80 5 -37 39 -92 41 -159 5 -58 -31 -58 -31 -96 1 -41 35 -103 29
-161 -18 l-39 -32 -28 22 c-64 52 -73 56 -91 44 -32 -23 -44 -25 -71 -8 -46
27 -131 22 -161 -10z m143 -59 c31 -26 62 -32 73 -15 16 26 65 10 82 -27 24
-50 38 -51 77 -9 18 20 39 36 47 36 8 0 24 7 35 15 31 23 58 18 94 -20 43 -44
62 -44 106 0 52 52 75 54 126 11 64 -55 82 -56 132 -7 39 38 46 41 98 41 38 0
62 -5 72 -16 22 -21 20 -101 -4 -193 -14 -55 -16 -80 -8 -94 15 -28 -8 -46
-67 -52 -64 -6 -94 15 -70 52 15 22 14 26 -11 69 -15 25 -34 48 -42 52 -15 5
-91 -29 -122 -54 -46 -38 -71 -37 -111 6 -35 37 -79 54 -79 30 0 -5 -18 -22
-40 -36 -58 -39 -113 -37 -152 5 -28 30 -65 40 -83 22 -6 -5 -23 -11 -40 -13
-28 -3 -30 -7 -36 -51 -6 -57 -18 -67 -81 -67 -48 0 -67 12 -90 53 -12 23 -24
246 -15 271 10 26 74 20 109 -9z"/>
<path d="M1512 1393 c-78 -38 -114 -125 -113 -273 3 -273 115 -394 349 -376
236 18 322 137 310 427 -5 117 -15 145 -62 177 -45 31 -173 32 -201 2 -24 -27
-36 -25 -80 10 -63 50 -143 63 -203 33z m122 -68 c20 -9 59 -31 85 -50 59 -43
60 -43 111 0 54 45 95 47 134 6 l29 -30 -5 -128 c-7 -200 -52 -253 -220 -256
-137 -2 -168 7 -226 64 -57 56 -74 103 -73 210 0 166 57 229 165 184z"/>
<path d="M2240 1385 c-82 -20 -90 -35 -90 -167 0 -107 1 -111 30 -148 56 -71
133 -75 195 -10 25 26 31 43 57 148 19 80 -12 147 -77 170 -16 5 -37 12 -45
15 -8 3 -40 -1 -70 -8z m110 -80 c9 -10 11 -33 7 -70 -7 -70 -14 -81 -37 -60
-25 22 -65 16 -65 -10 0 -15 10 -22 38 -29 41 -10 45 -20 20 -48 -22 -25 -49
-23 -78 7 -36 35 -38 185 -3 209 29 21 102 21 118 1z"/>
<path d="M1110 1334 c-59 -24 -89 -76 -100 -175 -11 -95 -1 -130 49 -172 45
-37 69 -41 131 -21 92 30 100 42 101 164 1 114 -6 143 -43 178 -25 23 -107 38
-138 26z m103 -86 c25 -29 23 -94 -3 -108 -30 -16 -121 -9 -133 11 -15 25 13
101 43 116 31 16 70 9 93 -19z m2 -172 c40 -29 -34 -67 -89 -46 -32 12 -30 30
5 47 32 17 61 16 84 -1z"/>
</g>
</svg>
