<?xml version="1.0" standalone="no"?>
<!DOCTYPE svg PUBLIC "-//W3C//DTD SVG 20010904//EN"
 "http://www.w3.org/TR/2001/REC-SVG-20010904/DTD/svg10.dtd">
<svg version="1.0" xmlns="http://www.w3.org/2000/svg"
 width="246.052566pt" height="245.722674pt" viewBox="0 0 246.052566 245.722674"
 preserveAspectRatio="xMidYMid meet">
<metadata>
Created by potrace 1.16, written by Peter Selinger 2001-2019
</metadata>
<g transform="translate(-45.934072,292.766948) scale(0.100000,-0.100000)"
fill="#000000" stroke="none">
<path d="M600 2921 c-51 -7 -101 -41 -121 -80 -15 -29 -27 -1734 -14 -1879 6
-62 11 -79 37 -108 54 -62 20 -59 710 -64 350 -3 640 -8 644 -13 4 -4 8 -56 9
-116 3 -197 -19 -190 530 -190 l430 -1 40 28 c22 15 43 31 47 37 4 5 8 285 8
621 0 605 0 612 -21 638 -25 32 -61 51 -112 60 -28 5 -40 14 -48 33 -6 16 -9
197 -8 467 0 279 -3 451 -9 467 -6 14 -29 42 -51 61 l-41 35 -247 5 c-363 8
-1730 7 -1783 -1z m2006 -88 c47 -27 50 -59 53 -515 3 -450 1 -468 -42 -468
-47 0 -47 -1 -47 460 0 239 -4 441 -9 448 -10 16 -1863 18 -1905 2 -13 -4 -26
-17 -30 -27 -11 -27 -7 -1719 3 -1747 5 -13 17 -26 26 -29 8 -4 281 -7 606 -7
325 0 595 -2 600 -5 13 -9 11 -49 -3 -63 -18 -18 -1223 -17 -1258 1 -58 29
-59 37 -61 1119 -1 865 -5 825 72 839 69 13 1972 5 1995 -8z m-618 -205 c30
-30 -1 -74 -33 -48 -34 28 -64 -64 -36 -108 14 -22 113 -3 126 24 6 12 17 29
25 38 7 10 16 34 19 54 6 34 9 37 41 37 28 0 36 -5 42 -25 4 -14 14 -49 22
-79 29 -99 10 -146 -37 -91 -16 19 -19 20 -48 5 -19 -10 -41 -14 -59 -10 -20
4 -37 1 -52 -9 -42 -30 -115 -15 -137 28 -7 12 -11 51 -9 91 3 69 4 70 38 87
41 21 81 23 98 6z m330 -18 c16 -26 36 -25 55 3 12 18 18 20 34 11 20 -12 28
-160 11 -196 -14 -28 -47 -22 -54 10 -8 32 -42 72 -61 72 -9 0 -13 -12 -11
-42 3 -40 1 -43 -23 -46 l-27 -3 5 93 c2 51 6 99 8 106 7 19 49 14 63 -8z
m-890 -50 c2 -14 7 -36 12 -50 6 -14 22 -115 36 -225 40 -309 36 -290 60 -293
14 -2 27 6 38 22 10 16 26 26 41 26 14 0 29 8 35 20 6 11 21 20 34 20 13 0 31
9 41 20 10 11 24 20 32 20 8 0 31 8 51 19 89 44 104 51 119 51 8 0 27 7 41 15
111 60 219 88 229 59 2 -7 -15 -21 -39 -32 -127 -59 -158 -72 -170 -72 -8 0
-19 -5 -26 -12 -15 -15 -78 -39 -119 -45 -18 -3 -38 -11 -44 -19 -6 -8 -19
-14 -29 -14 -25 0 -109 -39 -148 -68 -45 -34 -28 -51 30 -31 30 10 93 14 213
14 164 0 172 -1 221 -27 l52 -26 21 24 c33 38 81 2 81 -60 0 -37 -15 -40 -44
-9 -25 26 -26 27 -87 15 -34 -6 -69 -18 -79 -27 -9 -8 -22 -15 -28 -15 -18 0
-154 -67 -177 -87 -12 -10 -34 -37 -49 -60 -29 -44 -76 -78 -185 -134 -37 -20
-80 -53 -106 -82 -27 -32 -49 -48 -61 -45 -23 4 -42 75 -51 186 -7 89 -16 108
-61 118 -15 3 -47 13 -72 21 -55 20 -211 28 -251 14 -36 -12 -56 -6 -64 20
-10 29 10 46 61 54 26 3 53 15 62 26 9 10 22 19 29 19 8 0 39 9 70 20 32 11
72 20 89 20 79 0 80 14 8 104 -80 99 -112 166 -79 166 14 0 64 -66 105 -138 9
-15 28 -40 44 -57 16 -16 35 -40 43 -52 17 -26 35 -29 51 -10 13 15 -1 288
-18 364 -14 60 -25 226 -16 248 10 26 50 15 54 -15z m-390 -383 c3 -180 -4
-230 -32 -235 -17 -4 -17 8 -11 195 8 206 9 217 28 210 8 -2 13 -55 15 -170z
m1729 -406 c89 -1 84 35 83 -607 -1 -613 1 -595 -61 -608 -17 -3 -204 -6 -416
-6 l-384 0 -24 24 -24 25 -1 569 0 570 23 19 c23 18 136 20 804 14z m-1909
-164 c27 -29 19 -39 -24 -31 -25 4 -37 1 -53 -15 -42 -42 -15 -110 38 -95 14
4 42 7 61 8 33 1 35 3 38 38 2 25 10 41 23 48 10 6 19 20 19 31 0 11 7 22 17
26 23 9 63 -40 63 -77 0 -29 34 -65 52 -54 4 3 8 25 8 49 0 89 57 103 85 20
14 -43 39 -39 43 8 3 40 27 60 43 36 12 -19 11 -186 -1 -194 -5 -3 -21 12 -36
35 -34 51 -71 56 -81 10 -7 -36 -19 -46 -38 -30 -10 8 -18 8 -34 -2 -17 -10
-25 -9 -50 10 -35 26 -49 27 -75 7 -11 -8 -36 -15 -55 -15 -20 0 -52 -4 -71
-10 -30 -8 -39 -6 -72 15 -36 24 -38 28 -38 81 0 93 86 156 138 101z m30 -299
c26 -26 14 -40 -35 -36 -44 3 -48 1 -70 -31 -37 -55 -23 -121 26 -121 29 0
111 52 111 71 0 23 52 119 65 119 17 0 40 -41 50 -90 4 -19 21 -47 37 -62 25
-23 27 -30 18 -48 -14 -26 -41 -26 -63 0 -21 25 -45 25 -71 1 -15 -14 -43 -21
-102 -26 l-81 -7 -26 32 c-63 75 -7 210 88 210 22 0 46 -5 53 -12z m524 -6
c22 -22 0 -45 -36 -38 -44 8 -58 -9 -54 -71 l3 -48 43 3 c32 2 44 -2 49 -14
14 -38 -70 -69 -118 -44 -27 15 -29 189 -2 215 18 19 96 16 115 -3z m-262 -82
c0 -86 9 -100 64 -100 19 0 26 -5 26 -20 0 -18 -7 -20 -54 -20 -58 0 -76 12
-76 51 0 13 -3 50 -6 82 -7 69 -2 87 26 87 18 0 20 -6 20 -80z"/>
<path d="M2122 2511 c4 -13 18 -16 19 -4 0 4 -5 9 -11 12 -7 2 -11 -2 -8 -8z"/>
<path d="M1801 1911 c-20 -13 -4 -31 27 -31 34 0 57 14 48 29 -8 13 -55 14
-75 2z"/>
<path d="M1325 1900 c-3 -5 -1 -10 4 -10 6 0 11 5 11 10 0 6 -2 10 -4 10 -3 0
-8 -4 -11 -10z"/>
<path d="M1507 1819 c-26 -15 -21 -41 14 -71 28 -25 30 -31 24 -73 -9 -57 14
-61 73 -12 22 19 54 40 71 47 50 20 42 50 -13 50 -27 0 -52 7 -67 19 -45 35
-84 50 -102 40z"/>
<path d="M2015 1693 c-13 -12 -15 -43 -13 -171 l3 -157 369 -3 c264 -2 373 1
382 9 11 9 14 47 14 160 0 145 -1 149 -24 164 -35 23 -708 21 -731 -2z m673
-68 c16 -6 17 -166 0 -183 -15 -15 -560 -17 -588 -2 -14 8 -20 27 -25 87 -11
115 -28 109 316 106 156 -2 290 -5 297 -8z"/>
<path d="M2033 1310 c-28 -11 -35 -38 -31 -120 l3 -65 73 -9 c42 -5 90 -5 115
0 l42 9 3 72 c4 93 -12 113 -90 113 -29 0 -62 2 -73 5 -11 2 -30 0 -42 -5z
m136 -92 c12 -31 -5 -50 -43 -46 -53 5 -49 68 4 68 23 0 33 -6 39 -22z"/>
<path d="M2620 1313 c-54 -7 -60 -17 -60 -104 0 -91 -3 -87 92 -95 109 -10
118 -3 118 94 0 42 -4 83 -9 91 -9 15 -82 22 -141 14z m68 -75 c17 -17 15 -58
-4 -65 -24 -9 -49 11 -46 38 4 35 29 48 50 27z"/>
<path d="M2301 1291 c-24 -24 -31 -137 -9 -159 13 -13 163 -17 192 -6 26 10
22 135 -4 159 -32 29 -151 34 -179 6z m120 -72 c17 -32 -11 -57 -46 -41 -27
13 -32 31 -13 50 19 19 46 14 59 -9z"/>
<path d="M2042 1069 c-32 -12 -43 -44 -40 -117 l3 -67 48 -7 c27 -3 76 -4 110
0 l62 7 3 76 c4 97 -9 112 -102 114 -35 1 -73 -2 -84 -6z m106 -81 c33 -33
-17 -78 -53 -48 -19 16 -19 25 1 44 19 19 36 20 52 4z"/>
<path d="M2600 1072 c-31 -6 -35 -11 -42 -47 -8 -46 -2 -390 7 -405 9 -15 178
-13 193 2 9 9 12 70 12 213 0 189 -1 203 -20 220 -22 20 -93 28 -150 17z m94
-95 c18 -50 -31 -88 -68 -52 -32 33 -6 89 38 83 12 -2 25 -14 30 -31z m4 -198
c4 -85 -22 -127 -57 -95 -23 21 -27 47 -11 77 8 13 7 25 -1 41 -14 25 12 51
46 46 17 -3 20 -12 23 -69z"/>
<path d="M2292 1058 c-15 -15 -16 -164 -2 -173 22 -14 179 -18 195 -5 24 20
21 144 -5 170 -24 24 -166 30 -188 8z m130 -81 c14 -23 -12 -48 -45 -45 -35 3
-52 42 -25 59 16 11 60 2 70 -14z"/>
<path d="M2012 828 c-19 -19 -16 -193 3 -212 21 -20 192 -16 206 5 18 28 11
184 -9 202 -23 21 -181 24 -200 5z m130 -75 c10 -9 18 -22 18 -29 0 -14 -27
-44 -40 -44 -13 0 -40 30 -40 45 0 14 26 45 37 45 4 0 15 -7 25 -17z"/>
<path d="M2340 833 c-19 -2 -41 -11 -47 -20 -17 -22 -17 -175 -1 -191 15 -15
141 -16 168 -2 52 28 52 182 0 210 -18 10 -51 11 -120 3z m84 -95 c14 -23 -3
-52 -33 -56 -42 -6 -67 38 -39 66 17 17 58 11 72 -10z"/>
<path d="M970 1530 c0 -11 5 -20 10 -20 6 0 10 9 10 20 0 11 -4 20 -10 20 -5
0 -10 -9 -10 -20z"/>
<path d="M962 1208 c5 -32 28 -35 28 -4 0 17 -5 26 -16 26 -10 0 -14 -7 -12
-22z"/>
</g>
</svg>
