<?xml version="1.0" standalone="no"?>
<!DOCTYPE svg PUBLIC "-//W3C//DTD SVG 20010904//EN"
 "http://www.w3.org/TR/2001/REC-SVG-20010904/DTD/svg10.dtd">
<svg version="1.0" xmlns="http://www.w3.org/2000/svg"
 width="242.323588pt" height="168.504619pt" viewBox="0 0 242.323588 168.504619"
 preserveAspectRatio="xMidYMid meet">
<metadata>
Created by potrace 1.16, written by Peter Selinger 2001-2019
</metadata>
<g transform="translate(-45.278754,252.004619) scale(0.100000,-0.100000)"
fill="#000000" stroke="none">
<path d="M1395 2510 c-3 -5 -14 -10 -24 -10 -33 0 -122 -80 -143 -129 -27 -62
-36 -187 -16 -226 8 -17 18 -45 21 -63 4 -19 16 -45 27 -59 11 -14 20 -34 20
-45 0 -10 6 -31 14 -46 7 -15 17 -70 21 -122 4 -52 14 -107 21 -122 8 -15 14
-38 14 -51 0 -14 7 -30 16 -38 8 -7 22 -25 29 -40 20 -37 75 -55 124 -40 44
13 76 67 91 153 14 83 30 129 46 135 22 8 24 3 45 -119 24 -140 44 -167 126
-171 108 -4 160 90 183 331 7 80 16 115 39 161 57 116 83 254 56 301 -8 14
-14 36 -15 50 0 34 -80 111 -142 139 -56 25 -169 28 -208 6 -34 -19 -140 -19
-166 0 -22 17 -169 21 -179 5z m185 -135 c40 -17 78 -25 116 -25 48 0 60 4 80
25 34 37 134 37 169 0 53 -58 73 -174 37 -218 -33 -40 -87 -253 -98 -387 -8
-93 -11 -100 -43 -100 -32 0 -41 14 -41 67 0 72 -32 173 -63 199 -55 46 -168
19 -184 -44 -3 -15 -12 -36 -19 -47 -7 -11 -15 -45 -19 -77 -14 -115 -75 -155
-75 -49 0 58 -44 279 -59 294 -6 6 -11 20 -11 32 0 11 -10 38 -21 60 -17 32
-22 59 -23 133 l-1 93 37 35 c49 44 126 48 218 9z"/>
<path d="M523 1362 c-57 -50 -64 -74 -69 -236 -5 -160 4 -203 51 -254 l33 -37
1116 0 1115 0 31 30 c63 60 70 83 75 217 6 173 -15 234 -102 296 l-31 22
-1089 0 -1088 0 -42 -38z m2206 -92 c23 -12 27 -43 23 -187 -4 -107 -5 -113
-29 -129 -39 -25 -2088 -26 -2128 0 -25 16 -25 18 -25 154 0 144 6 167 44 174
51 8 2098 -2 2115 -12z"/>
<path d="M754 1230 c-34 -13 -47 -61 -39 -137 8 -78 17 -93 55 -93 45 0 59 26
59 110 0 100 -25 139 -75 120z"/>
<path d="M997 1212 c-20 -22 -24 -160 -7 -193 12 -22 68 -27 88 -7 21 21 16
181 -6 201 -24 22 -55 21 -75 -1z"/>
<path d="M1262 1214 c-20 -13 -22 -24 -22 -95 0 -88 17 -119 64 -119 45 0 56
23 56 115 0 88 -14 115 -60 115 -9 0 -26 -7 -38 -16z"/>
<path d="M1529 1213 c-18 -21 -25 -163 -10 -192 12 -21 54 -29 78 -13 36 23
34 182 -2 208 -25 19 -50 18 -66 -3z"/>
<path d="M1809 1213 c-19 -22 -26 -178 -9 -198 15 -18 61 -20 78 -3 18 18 16
168 -4 196 -18 26 -46 29 -65 5z"/>
</g>
</svg>
