<?xml version="1.0" standalone="no"?>
<!DOCTYPE svg PUBLIC "-//W3C//DTD SVG 20010904//EN"
 "http://www.w3.org/TR/2001/REC-SVG-20010904/DTD/svg10.dtd">
<svg version="1.0" xmlns="http://www.w3.org/2000/svg"
 width="243.442152pt" height="225.544796pt" viewBox="0 0 243.442152 225.544796"
 preserveAspectRatio="xMidYMid meet">
<metadata>
Created by potrace 1.16, written by Peter Selinger 2001-2019
</metadata>
<g transform="translate(-45.057848,290.675941) scale(0.100000,-0.100000)"
fill="#000000" stroke="none">
<path d="M700 2893 c-97 -20 -196 -102 -231 -193 -17 -45 -26 -1172 -10 -1289
22 -162 124 -261 270 -261 44 0 60 -4 65 -16 3 -9 6 -110 6 -225 0 -210 0
-210 25 -234 29 -30 44 -31 94 -6 36 19 151 116 201 170 14 15 76 72 137 125
62 54 116 103 120 109 5 7 24 26 45 43 l36 32 603 1 c562 2 606 3 645 20 55
25 116 81 151 139 l28 47 0 496 0 496 -205 208 c-270 276 -310 314 -339 334
-33 21 -1535 25 -1641 4z m1699 -215 c20 -22 92 -99 161 -170 131 -136 145
-153 136 -167 -12 -18 -266 -1 -308 21 -53 28 -55 33 -63 206 l-7 152 22 0
c14 0 37 -16 59 -42z"/>
</g>
</svg>
