<?xml version="1.0" standalone="no"?>
<!DOCTYPE svg PUBLIC "-//W3C//DTD SVG 20010904//EN"
 "http://www.w3.org/TR/2001/REC-SVG-20010904/DTD/svg10.dtd">
<svg version="1.0" xmlns="http://www.w3.org/2000/svg"
 width="241.084030pt" height="229.732779pt" viewBox="0 0 241.084030 229.732779"
 preserveAspectRatio="xMidYMid meet">
<metadata>
Created by potrace 1.16, written by Peter Selinger 2001-2019
</metadata>
<g transform="translate(-43.858175,288.732716) scale(0.100000,-0.100000)"
fill="#000000" stroke="none">
<path d="M1582 2865 c-17 -14 -34 -40 -38 -58 -7 -35 -19 -46 -49 -47 -34 -1
-96 -53 -124 -105 l-27 -50 -145 -5 c-239 -8 -256 -6 -278 38 -21 42 -59 73
-110 90 -19 7 -49 23 -67 37 -18 14 -42 25 -52 25 -21 0 -72 -53 -72 -75 0 -7
-31 -36 -70 -66 -38 -29 -70 -56 -70 -61 0 -4 -9 -16 -21 -27 -19 -17 -21 -30
-20 -116 l0 -98 49 -71 c64 -92 88 -152 103 -251 6 -44 15 -102 20 -130 5 -27
13 -90 18 -140 6 -49 15 -124 21 -165 5 -41 15 -122 21 -180 12 -126 23 -199
34 -223 5 -13 -3 -27 -33 -55 -58 -54 -64 -73 -64 -183 -1 -90 2 -102 29 -151
22 -39 31 -71 35 -119 3 -37 9 -72 12 -78 5 -7 58 -11 156 -11 172 0 170 -1
170 94 0 44 4 57 19 65 30 16 1206 17 1226 1 9 -7 15 -29 15 -52 0 -44 21 -93
45 -102 9 -3 75 -6 146 -6 l128 0 16 30 c8 16 15 54 15 84 0 43 5 60 25 84 37
44 42 68 40 167 -3 100 -24 152 -70 173 -28 13 -43 58 -26 75 6 6 11 34 11 62
0 52 29 295 55 465 8 52 20 140 26 195 11 97 40 224 59 255 5 8 24 40 42 70
17 30 38 60 46 65 16 13 28 145 18 201 -6 29 -25 56 -81 113 -40 42 -84 95
-99 119 -30 49 -30 48 -87 21 -82 -38 -158 -87 -210 -136 l-35 -33 -195 2
-194 3 -10 32 c-15 44 -49 79 -112 110 -38 20 -54 34 -58 54 -17 76 -124 114
-183 64z m96 -71 c4 -27 -26 -40 -46 -20 -21 20 -8 48 20 44 14 -2 24 -11 26
-24z m102 -154 c12 -6 20 -19 18 -28 -3 -15 -20 -17 -128 -20 -145 -3 -170 1
-170 28 0 19 18 26 95 32 61 6 164 -1 185 -12z m-949 -102 l60 -61 729 6 c645
5 729 4 734 -9 9 -24 7 -52 -5 -59 -5 -4 -338 -7 -739 -7 l-729 -1 -18 -21
c-37 -42 -62 -85 -86 -142 -27 -66 -24 -168 7 -269 9 -27 16 -77 16 -110 0
-33 7 -88 15 -123 8 -34 17 -100 20 -145 3 -45 11 -120 19 -167 23 -136 37
-260 31 -270 -7 -12 -45 -13 -63 -2 -7 5 -14 43 -18 103 -3 52 -10 112 -15
134 -5 22 -16 94 -24 160 -8 66 -19 149 -24 185 -6 36 -17 126 -26 200 -30
262 -36 282 -111 376 -76 96 -63 186 37 254 75 51 116 44 190 -32z m1829 31
c44 -30 89 -95 90 -132 0 -26 -35 -90 -71 -129 -17 -18 -37 -47 -45 -65 -7
-17 -18 -34 -24 -38 -5 -3 -10 -18 -10 -33 0 -15 -6 -63 -14 -107 -8 -44 -20
-127 -26 -185 -7 -58 -18 -148 -25 -200 -7 -52 -16 -126 -20 -165 -4 -38 -13
-95 -21 -126 -8 -31 -14 -88 -14 -126 0 -77 -17 -113 -54 -113 -40 0 -41 8 -5
235 5 39 15 113 20 165 6 52 16 115 24 140 8 25 17 77 20 115 3 39 13 100 21
137 22 102 22 268 1 298 -9 14 -17 33 -17 43 0 10 -20 40 -45 66 -53 57 -57
84 -20 147 59 101 151 130 235 73z m-1383 -291 c6 -5 11 -36 11 -70 0 -82 10
-89 118 -97 l88 -6 9 -32 c13 -45 4 -60 -42 -73 -22 -6 -56 -26 -76 -44 -32
-31 -35 -38 -35 -92 0 -107 24 -154 79 -154 24 0 57 -33 78 -75 7 -16 27 -48
43 -70 26 -35 29 -48 30 -112 0 -65 2 -73 26 -92 55 -44 94 -13 100 79 7 100
9 104 94 190 l79 80 56 0 c84 0 105 25 105 123 l0 74 -38 27 c-32 22 -49 26
-110 26 l-71 0 -21 46 c-33 76 -17 104 61 104 67 0 97 14 105 47 3 15 14 51
23 78 l17 50 109 7 c200 12 263 -6 282 -81 9 -38 -6 -251 -22 -305 -8 -27 -15
-68 -15 -90 0 -23 -9 -99 -19 -171 -11 -71 -27 -204 -37 -294 -23 -208 -17
-200 -154 -202 -138 -1 -139 -1 -137 68 2 51 0 57 -32 85 l-34 31 -309 -6
c-196 -4 -316 -10 -329 -17 -25 -14 -49 -68 -49 -109 0 -42 -23 -51 -133 -51
-70 0 -98 4 -107 14 -15 19 -36 111 -44 196 -7 67 -28 220 -46 325 -5 33 -10
83 -10 111 0 28 -7 67 -15 87 -16 39 -31 256 -21 308 14 72 47 93 155 99 112
7 221 1 238 -12z m591 10 c18 -15 15 -46 -6 -57 -29 -15 -439 -16 -457 -1 -17
14 -20 41 -5 56 13 13 451 15 468 2z m-188 -253 c0 -75 0 -75 41 -115 23 -22
47 -40 54 -40 39 0 146 -43 143 -59 -3 -13 -18 -16 -85 -17 -95 0 -107 -7
-144 -84 -29 -60 -50 -63 -83 -12 -44 65 -60 81 -100 95 -77 26 -68 77 14 77
60 0 84 34 88 128 5 85 13 102 48 102 23 0 24 -3 24 -75z m230 -830 c6 -8 9
-23 5 -35 -6 -19 -13 -20 -264 -20 -218 0 -261 2 -271 15 -23 28 5 44 83 48
221 10 435 7 447 -8z m641 -182 c21 -25 23 -107 4 -123 -22 -18 -1755 -27
-1800 -10 -36 14 -34 118 2 136 37 18 1779 15 1794 -3z m-1662 -275 c13 -36
-4 -58 -45 -58 -101 0 -97 77 4 79 25 1 35 -4 41 -21z m1610 -3 c21 -21 6 -43
-35 -51 -59 -11 -94 25 -59 59 18 18 70 13 94 -8z"/>
</g>
</svg>
