<?xml version="1.0" standalone="no"?>
<!DOCTYPE svg PUBLIC "-//W3C//DTD SVG 20010904//EN"
 "http://www.w3.org/TR/2001/REC-SVG-20010904/DTD/svg10.dtd">
<svg version="1.0" xmlns="http://www.w3.org/2000/svg"
 width="87.452745pt" height="234.740297pt" viewBox="0 0 87.452745 234.740297"
 preserveAspectRatio="xMidYMid meet">
<metadata>
Created by potrace 1.16, written by Peter Selinger 2001-2019
</metadata>
<g transform="translate(-112.386480,284.732718) scale(0.100000,-0.100000)"
fill="#000000" stroke="none">
<path d="M1465 2837 c-79 -25 -111 -46 -176 -114 -144 -150 -181 -256 -160
-453 21 -192 33 -279 46 -345 8 -38 17 -113 20 -165 4 -52 12 -126 20 -165 7
-38 16 -111 20 -161 3 -51 12 -117 20 -148 8 -32 15 -74 15 -95 0 -21 9 -73
20 -116 11 -43 20 -87 20 -98 0 -60 70 -294 114 -383 69 -136 228 -122 290 26
10 25 27 63 37 86 10 23 19 51 19 63 0 12 6 32 14 44 8 12 18 44 22 72 4 27
13 64 20 82 8 18 14 47 14 65 0 17 9 79 20 137 18 100 49 380 70 646 5 66 15
137 20 158 6 20 15 79 20 130 5 50 14 124 20 162 21 121 0 255 -52 340 -7 11
-24 38 -37 60 -37 59 -109 124 -171 152 -66 30 -201 40 -265 20z m195 -122
c118 -42 210 -190 210 -339 0 -85 -46 -421 -65 -476 -34 -98 -116 -193 -180
-210 -14 -4 -21 -16 -23 -38 -3 -29 1 -34 33 -48 44 -18 69 -11 108 28 16 16
34 27 41 25 15 -5 9 -185 -10 -257 -7 -31 -16 -89 -20 -130 -3 -41 -10 -88
-16 -105 -5 -16 -16 -64 -23 -105 -15 -81 -29 -139 -52 -210 -8 -25 -20 -67
-27 -95 -25 -92 -44 -125 -72 -125 -19 0 -28 8 -39 34 -8 19 -19 37 -23 40 -5
3 -12 25 -15 49 -3 23 -13 56 -21 72 -9 17 -16 39 -16 50 0 11 -7 41 -14 67
-8 25 -22 97 -31 160 -9 62 -20 129 -25 148 -5 19 -14 76 -19 125 -6 50 -17
125 -26 169 -23 110 -13 128 43 81 32 -27 80 -33 100 -13 21 21 14 68 -14 91
-68 56 -144 153 -144 183 0 8 -5 25 -12 37 -24 46 -58 289 -58 423 0 121 2
135 25 175 93 167 245 244 385 194z"/>
</g>
</svg>
