<?xml version="1.0" standalone="no"?>
<!DOCTYPE svg PUBLIC "-//W3C//DTD SVG 20010904//EN"
 "http://www.w3.org/TR/2001/REC-SVG-20010904/DTD/svg10.dtd">
<svg version="1.0" xmlns="http://www.w3.org/2000/svg"
 width="245.826199pt" height="242.744661pt" viewBox="0 0 245.826199 242.744661"
 preserveAspectRatio="xMidYMid meet">
<metadata>
Created by potrace 1.16, written by Peter Selinger 2001-2019
</metadata>
<g transform="translate(-42.045261,283.744661) scale(0.100000,-0.100000)"
fill="#000000" stroke="none">
<path d="M2775 2819 c-16 -10 -43 -19 -58 -19 -16 0 -40 -9 -54 -20 -14 -11
-35 -20 -47 -20 -12 0 -31 -7 -42 -15 -10 -8 -28 -15 -38 -15 -11 0 -38 -9
-60 -19 -23 -11 -94 -36 -158 -55 -65 -19 -126 -40 -137 -46 -11 -5 -30 -10
-43 -10 -13 0 -36 -9 -53 -20 -16 -11 -42 -20 -56 -20 -15 0 -32 -7 -39 -15
-7 -8 -28 -17 -49 -21 -20 -3 -46 -12 -58 -20 -12 -8 -31 -14 -41 -14 -10 0
-35 -9 -57 -20 -22 -11 -45 -20 -52 -20 -7 0 -27 -6 -45 -14 -55 -24 -224 -76
-248 -76 -12 0 -33 -9 -47 -20 -14 -11 -36 -20 -49 -20 -13 0 -41 -9 -61 -20
-21 -11 -47 -20 -58 -20 -11 0 -29 -6 -40 -14 -11 -7 -33 -16 -50 -20 -16 -4
-66 -20 -110 -35 -44 -16 -127 -43 -185 -61 -58 -18 -123 -41 -146 -51 -23
-10 -47 -19 -55 -19 -8 0 -32 -8 -54 -19 -22 -10 -66 -30 -97 -45 -75 -33 -87
-65 -39 -108 17 -15 39 -28 49 -28 9 0 37 -7 62 -15 25 -8 72 -22 105 -31 33
-8 72 -22 87 -30 14 -8 39 -14 55 -14 16 0 38 -7 50 -15 11 -8 40 -17 64 -21
24 -3 54 -13 66 -20 12 -8 33 -14 45 -14 13 0 40 -9 61 -20 20 -11 46 -20 57
-20 12 0 35 -7 53 -16 17 -9 56 -22 87 -29 284 -65 336 -98 286 -178 -7 -12
-16 -45 -19 -74 -3 -29 -13 -65 -21 -82 -9 -16 -16 -51 -16 -76 0 -25 -9 -71
-20 -102 -27 -78 -26 -109 5 -129 39 -26 70 -10 166 82 130 125 137 122 247
-121 30 -66 59 -126 65 -134 14 -16 23 -33 65 -113 19 -34 40 -70 48 -79 8 -8
14 -19 14 -23 0 -13 63 -140 84 -168 11 -16 28 -28 37 -28 24 0 59 47 59 78 0
23 22 102 51 187 6 17 16 55 23 85 7 30 18 65 24 77 7 12 12 34 12 50 1 15 9
46 20 68 11 22 19 51 20 65 0 31 45 225 71 305 10 33 19 71 19 85 0 14 7 37
14 52 8 16 18 49 22 75 3 27 12 59 19 73 7 14 16 45 20 69 4 24 14 59 21 77 8
18 14 44 14 56 1 13 9 41 20 63 11 22 19 54 20 70 0 17 5 46 11 65 6 19 21 82
33 140 31 140 44 193 67 270 11 36 19 74 19 85 1 11 7 31 15 45 8 14 14 37 15
51 0 14 9 52 20 84 27 78 25 101 -7 130 -33 29 -39 29 -78 4z m-179 -193 c3
-9 -11 -30 -37 -53 -24 -21 -240 -235 -480 -475 -348 -350 -441 -438 -462
-438 -24 0 -250 59 -312 81 -16 6 -53 17 -81 24 -28 7 -59 17 -70 23 -10 5
-39 13 -64 17 -25 4 -54 14 -65 21 -11 8 -30 14 -44 14 -13 0 -33 8 -43 17
-10 9 -40 20 -66 24 -72 11 -203 59 -209 76 -8 21 23 43 61 43 17 0 40 7 50
15 11 8 30 15 43 15 12 0 37 6 55 14 54 23 224 76 244 76 10 0 33 9 49 20 17
11 39 20 50 20 11 0 34 9 50 20 17 11 39 20 50 20 11 0 29 7 39 15 11 8 29 15
40 15 11 0 38 8 60 18 23 10 88 33 146 52 58 18 122 39 143 46 20 8 50 14 66
14 15 0 36 9 46 20 11 12 31 20 50 20 18 0 38 7 45 15 7 8 28 17 49 21 20 4
47 12 61 19 38 19 124 50 235 85 55 18 115 38 133 46 18 8 43 14 56 14 13 0
34 9 47 20 28 23 57 26 65 6z m122 -81 c2 -9 -5 -30 -17 -46 -12 -16 -21 -43
-21 -63 0 -19 -5 -47 -11 -63 -6 -15 -22 -77 -35 -138 -23 -106 -32 -147 -55
-237 -5 -24 -15 -65 -20 -93 -6 -27 -16 -61 -23 -75 -7 -14 -16 -47 -19 -73
-4 -27 -14 -58 -22 -70 -8 -12 -15 -34 -15 -50 0 -15 -7 -44 -16 -65 -9 -20
-22 -66 -29 -102 -20 -98 -32 -148 -55 -230 -12 -41 -25 -97 -29 -125 -4 -27
-12 -59 -18 -70 -6 -11 -14 -42 -18 -70 -4 -27 -14 -62 -21 -77 -8 -15 -14
-37 -14 -50 -1 -13 -8 -41 -17 -63 -8 -22 -18 -64 -22 -94 -10 -86 -16 -82
-98 59 -28 47 -159 306 -192 380 -6 14 -20 39 -31 55 -21 32 -24 37 -40 75 -6
14 -22 43 -35 65 -14 22 -32 56 -41 75 -9 19 -29 61 -45 94 -16 32 -29 67 -29
78 0 12 128 147 347 366 190 191 407 411 481 490 131 139 153 155 160 117z
m-1019 -1171 c33 -42 28 -100 -11 -141 -54 -56 -79 -40 -53 36 8 26 13 55 9
64 -9 24 4 67 20 67 8 0 24 -12 35 -26z"/>
<path d="M1033 1311 c-73 -9 -105 -39 -82 -79 14 -25 20 -27 76 -27 34 0 64
-3 68 -6 6 -7 -134 -158 -243 -263 -35 -33 -100 -98 -145 -144 -45 -47 -88
-90 -95 -96 -8 -6 -48 -46 -90 -89 -107 -109 -119 -134 -84 -177 16 -20 21
-21 43 -10 25 14 211 200 510 509 197 204 209 211 209 112 0 -31 5 -62 12 -69
16 -16 63 -15 75 1 16 19 26 316 12 333 -12 15 -161 18 -266 5z"/>
<path d="M575 1089 c-105 -101 -121 -129 -93 -157 19 -19 66 -15 78 7 5 11 52
57 103 102 102 92 109 104 76 130 -40 31 -55 23 -164 -82z"/>
<path d="M1094 738 c-114 -86 -165 -157 -148 -206 19 -53 46 -41 149 65 93 96
109 125 83 151 -18 18 -51 14 -84 -10z"/>
</g>
</svg>
