<?xml version="1.0" standalone="no"?>
<!DOCTYPE svg PUBLIC "-//W3C//DTD SVG 20010904//EN"
 "http://www.w3.org/TR/2001/REC-SVG-20010904/DTD/svg10.dtd">
<svg version="1.0" xmlns="http://www.w3.org/2000/svg"
 width="223.950033pt" height="242.170940pt" viewBox="0 0 223.950033 242.170940"
 preserveAspectRatio="xMidYMid meet">
<metadata>
Created by potrace 1.16, written by Peter Selinger 2001-2019
</metadata>
<g transform="translate(-53.095374,291.260781) scale(0.100000,-0.100000)"
fill="#000000" stroke="none">
<path d="M1615 2909 c-101 -25 -203 -99 -221 -160 -14 -50 -36 -58 -76 -26
-95 78 -105 82 -202 82 -140 0 -208 -51 -255 -192 -28 -83 -27 -105 10 -174
18 -33 29 -62 25 -66 -4 -4 -62 -7 -129 -7 -113 -1 -125 -3 -159 -26 -68 -46
-71 -60 -76 -472 -5 -447 -2 -464 103 -529 27 -17 52 -19 226 -19 227 0 217 4
221 -94 4 -85 29 -112 103 -108 59 2 61 -23 8 -96 -21 -29 -56 -80 -78 -115
-39 -62 -61 -91 -115 -157 -16 -20 -44 -63 -61 -95 -17 -33 -40 -71 -50 -84
-21 -26 -13 -53 22 -71 23 -13 89 28 89 55 0 7 30 57 67 112 36 54 104 154
149 223 158 238 158 238 155 -98 -2 -238 -1 -266 15 -283 22 -24 46 -24 69 1
17 18 18 43 17 298 -1 152 3 283 7 291 11 18 41 7 41 -15 0 -9 15 -37 33 -63
18 -25 59 -91 91 -146 80 -140 78 -136 111 -180 17 -22 46 -66 65 -98 50 -83
73 -103 108 -91 32 11 42 53 18 74 -9 7 -16 19 -16 26 0 8 -8 22 -18 32 -9 9
-30 40 -46 67 -16 28 -35 55 -41 60 -15 13 -41 55 -77 125 -16 30 -37 64 -47
75 -16 19 -28 36 -73 103 -23 35 -13 52 32 52 59 0 90 42 90 125 0 48 4 64 16
69 9 3 100 6 203 6 l186 0 48 43 c42 40 47 48 47 88 0 82 11 119 33 119 11 0
45 -17 75 -37 74 -51 68 -48 147 -84 39 -18 93 -48 122 -67 57 -36 80 -37 120
0 l22 20 1 454 0 454 -24 25 c-28 28 -79 34 -105 11 -9 -7 -36 -24 -61 -37
-25 -13 -56 -32 -69 -41 -13 -10 -31 -18 -40 -18 -15 0 -81 -40 -126 -76 -26
-20 -64 -36 -74 -29 -5 2 -11 32 -14 66 -11 124 -55 153 -230 156 -155 1 -155
1 -102 91 46 79 50 183 11 260 -61 120 -221 215 -321 191z m90 -109 c22 -5 44
-15 50 -22 5 -7 22 -21 37 -31 37 -23 68 -90 68 -148 0 -136 -155 -256 -267
-207 -125 56 -169 155 -122 278 41 108 125 155 234 130z m-511 -105 c110 -88
124 -176 39 -256 -52 -50 -90 -61 -158 -47 -85 17 -118 58 -117 144 3 144 139
236 236 159z m204 -277 c31 -31 -2 -67 -48 -53 -19 6 -28 44 -13 58 11 11 48
8 61 -5z m748 -152 c31 -23 30 -805 -1 -836 -21 -20 -29 -20 -736 -21 -767 -2
-745 -3 -768 48 -15 33 -15 741 0 780 5 15 16 31 22 35 24 16 1461 9 1483 -6z
m522 -38 c9 -9 12 -107 12 -380 0 -421 4 -403 -84 -344 -30 20 -74 45 -98 56
-24 11 -59 30 -80 43 -20 12 -64 38 -97 57 -33 19 -62 40 -63 45 -2 6 -2 80 0
166 l3 156 72 38 c185 97 254 135 287 158 29 20 32 21 48 5z m-1020 -920 c21
-21 15 -86 -9 -98 -38 -21 -450 -6 -466 16 -14 19 -18 76 -6 87 12 13 468 8
481 -5z"/>
<path d="M912 2126 l-37 -34 -3 -233 -2 -233 32 -33 32 -33 403 0 404 0 24 26
c29 31 29 28 25 289 -3 219 -5 233 -48 264 -29 21 -39 21 -411 21 l-381 0 -38
-34z m787 -70 c18 -22 11 -377 -8 -399 -17 -22 -698 -26 -719 -5 -17 17 -17
389 0 406 19 19 711 17 727 -2z"/>
<path d="M1925 2135 c-34 -33 -32 -67 6 -99 17 -14 37 -26 44 -26 16 0 65 56
65 75 0 22 -50 75 -71 75 -11 0 -31 -11 -44 -25z"/>
</g>
</svg>
