<?xml version="1.0" standalone="no"?>
<!DOCTYPE svg PUBLIC "-//W3C//DTD SVG 20010904//EN"
 "http://www.w3.org/TR/2001/REC-SVG-20010904/DTD/svg10.dtd">
<svg version="1.0" xmlns="http://www.w3.org/2000/svg"
 width="217.152655pt" height="238.067954pt" viewBox="0 0 217.152655 238.067954"
 preserveAspectRatio="xMidYMid meet">
<metadata>
Created by potrace 1.16, written by Peter Selinger 2001-2019
</metadata>
<g transform="translate(-56.099195,284.984646) scale(0.100000,-0.100000)"
fill="#000000" stroke="none">
<path d="M945 2843 c-11 -3 -39 -14 -62 -24 -23 -10 -47 -19 -53 -19 -6 0 -43
-33 -83 -72 -79 -79 -142 -185 -158 -268 -4 -25 -14 -69 -21 -98 -10 -42 -9
-64 1 -110 7 -31 17 -79 22 -107 5 -27 15 -63 23 -80 8 -16 29 -66 46 -110 18
-44 46 -107 62 -139 52 -104 66 -168 71 -331 3 -100 10 -163 20 -190 9 -22 18
-61 22 -86 3 -26 12 -55 20 -65 8 -11 15 -30 15 -44 0 -14 7 -36 15 -50 8 -14
17 -32 21 -40 53 -124 90 -162 176 -179 105 -22 163 25 191 155 10 43 25 109
33 146 9 36 20 92 24 125 8 56 33 142 52 173 4 8 15 30 23 48 21 45 54 43 89
-6 14 -21 26 -46 26 -56 0 -10 7 -30 15 -44 14 -26 47 -225 48 -288 0 -21 -10
-45 -31 -72 -37 -46 -45 -142 -17 -209 8 -19 15 -43 15 -52 0 -31 71 -150 120
-202 87 -91 264 -106 397 -34 40 21 96 61 126 89 53 51 137 170 137 196 0 7 6
21 14 29 15 17 66 160 66 184 0 21 48 57 75 57 30 0 132 55 162 88 105 116
115 344 20 479 -48 68 -136 122 -210 130 -79 7 -108 25 -148 86 -18 28 -45 57
-61 66 -32 18 -38 62 -13 95 8 11 15 28 15 38 0 10 9 47 21 81 27 79 24 280
-4 334 -9 18 -17 41 -17 52 0 79 -174 273 -275 305 -83 27 -230 32 -320 11
-38 -9 -95 -22 -126 -29 -31 -7 -67 -20 -80 -29 -31 -22 -45 -21 -76 3 -14 11
-41 23 -62 26 -20 4 -60 15 -90 25 -52 18 -221 25 -276 12z m224 -119 c31 -9
74 -24 96 -34 147 -68 222 -105 235 -115 23 -18 124 -47 151 -43 61 8 45 100
-20 115 -29 7 -36 14 -36 32 0 21 9 26 70 42 158 41 273 18 367 -74 91 -89
120 -161 125 -307 6 -161 -21 -269 -110 -450 -39 -79 -46 -87 -95 -111 -147
-73 -237 -267 -177 -383 8 -15 15 -33 15 -40 0 -6 14 -36 30 -66 90 -168 90
-219 -4 -309 -67 -64 -101 -16 -125 174 -22 173 -52 289 -92 355 -41 67 -57
84 -102 107 -44 22 -55 24 -87 14 -72 -21 -156 -140 -175 -246 -4 -21 -12 -51
-19 -65 -7 -14 -16 -59 -19 -100 -13 -151 -41 -251 -77 -270 -41 -22 -125 104
-152 230 -5 25 -16 68 -24 97 -8 29 -19 129 -25 224 -5 94 -13 178 -18 188 -5
9 -12 39 -16 68 -4 29 -13 57 -21 64 -8 6 -14 19 -14 29 0 9 -9 29 -20 43 -11
14 -20 29 -20 34 0 5 -17 45 -39 88 -21 44 -42 100 -46 125 -3 25 -14 69 -23
98 -17 56 -18 43 22 222 42 190 257 318 445 264z m1045 -947 c19 -52 20 -58 4
-73 -15 -15 -19 -14 -52 11 -42 32 -46 60 -15 99 28 36 39 30 63 -37z m-162
-132 c17 -20 68 -53 112 -74 127 -62 151 -86 151 -156 0 -55 -1 -59 -45 -96
-37 -32 -53 -39 -95 -41 -62 -4 -74 -32 -28 -68 24 -19 36 -21 87 -17 150 13
233 161 177 315 -19 51 -33 68 -101 120 -42 33 -30 42 55 42 188 0 303 -175
238 -362 -22 -61 -74 -107 -151 -134 -96 -34 -172 -126 -172 -210 0 -17 -7
-37 -14 -44 -8 -6 -20 -28 -27 -47 -11 -35 -52 -102 -68 -113 -5 -3 -16 -19
-25 -37 -9 -18 -26 -39 -39 -48 -69 -49 -114 -75 -130 -75 -10 0 -31 -7 -47
-15 -63 -33 -227 64 -245 144 -3 16 -15 39 -26 52 -39 45 -19 93 24 59 41 -32
143 -28 189 8 106 80 155 233 114 351 -19 52 -70 157 -87 178 -26 30 -18 182
11 222 63 88 94 98 142 46z"/>
</g>
</svg>
