<?xml version="1.0" standalone="no"?>
<!DOCTYPE svg PUBLIC "-//W3C//DTD SVG 20010904//EN"
 "http://www.w3.org/TR/2001/REC-SVG-20010904/DTD/svg10.dtd">
<svg version="1.0" xmlns="http://www.w3.org/2000/svg"
 width="244.798838pt" height="226.800416pt" viewBox="0 0 244.798838 226.800416"
 preserveAspectRatio="xMidYMid meet">
<metadata>
Created by potrace 1.16, written by Peter Selinger 2001-2019
</metadata>
<g transform="translate(-67.500000,302.800416) scale(0.100000,-0.100000)"
fill="#000000" stroke="none">
<path d="M1695 3020 c-449 -4 -804 -10 -822 -16 -40 -12 -129 -88 -168 -144
l-30 -43 0 -671 0 -671 27 -45 c62 -102 138 -152 250 -163 32 -3 62 -8 68 -12
6 -4 10 -85 10 -222 0 -201 1 -217 21 -244 11 -16 30 -29 41 -29 20 0 172 124
280 230 123 120 271 256 290 266 14 8 208 12 627 13 672 2 662 1 739 67 87 74
86 65 92 604 5 446 5 478 -13 517 -12 28 -94 118 -265 288 -234 235 -298 288
-339 283 -10 -2 -373 -5 -808 -8z m765 -116 c7 -7 14 -85 17 -200 6 -202 13
-234 65 -281 53 -49 91 -57 275 -57 116 -1 176 -5 184 -13 18 -18 13 -847 -6
-882 -17 -33 -50 -63 -95 -87 -33 -18 -65 -19 -625 -16 -324 1 -608 0 -630 -4
-33 -5 -58 -24 -145 -108 -257 -247 -335 -316 -350 -314 -13 3 -16 33 -20 198
-3 107 -9 201 -13 208 -5 8 -36 12 -90 12 -118 0 -190 41 -228 128 -18 41 -19
78 -19 638 0 651 1 663 59 723 59 62 52 60 398 64 635 6 1212 2 1223 -9z m227
-163 c181 -183 234 -241 228 -251 -4 -6 -59 -10 -141 -10 -133 0 -135 0 -159
26 -19 21 -25 39 -26 78 -1 28 -2 90 -4 139 -4 112 8 114 102 18z"/>
</g>
</svg>
