<?xml version="1.0" standalone="no"?>
<!DOCTYPE svg PUBLIC "-//W3C//DTD SVG 20010904//EN"
 "http://www.w3.org/TR/2001/REC-SVG-20010904/DTD/svg10.dtd">
<svg version="1.0" xmlns="http://www.w3.org/2000/svg"
 width="242.003430pt" height="219.729654pt" viewBox="0 0 242.003430 219.729654"
 preserveAspectRatio="xMidYMid meet">
<metadata>
Created by potrace 1.16, written by Peter Selinger 2001-2019
</metadata>
<g transform="translate(-41.800842,272.036829) scale(0.100000,-0.100000)"
fill="#000000" stroke="none">
<path d="M2189 2704 c-70 -51 -89 -108 -110 -324 l-12 -115 -81 -90 c-164
-182 -154 -174 -222 -168 -40 4 -69 1 -85 -7 -82 -43 -226 -150 -299 -222 -46
-45 -112 -105 -145 -131 -33 -27 -143 -128 -245 -226 -102 -97 -256 -241 -343
-320 -222 -203 -252 -256 -216 -384 39 -141 215 -235 331 -176 49 25 282 260
485 489 26 30 75 82 108 116 56 56 228 237 388 406 37 40 67 76 67 80 0 4 18
34 40 65 22 32 40 63 40 69 0 6 7 17 15 24 11 9 15 32 15 80 l0 67 116 114
c149 147 151 151 163 330 14 221 24 234 163 219 47 -5 100 -16 117 -24 16 -9
52 -16 78 -16 27 0 64 -5 83 -11 128 -39 242 -1 181 60 -20 20 -100 41 -155
41 -19 0 -50 7 -69 15 -20 8 -56 15 -79 15 -24 1 -61 8 -83 16 -72 29 -213 33
-246 8z m-402 -836 c15 -13 17 -54 3 -63 -6 -4 -26 -31 -45 -61 -19 -30 -38
-54 -42 -54 -18 0 -103 99 -97 114 5 13 29 31 98 74 22 13 62 8 83 -10z m-230
-200 c56 -55 64 -79 35 -100 -10 -7 -72 -71 -137 -143 -66 -71 -204 -219 -309
-328 -104 -108 -206 -216 -225 -240 -19 -23 -75 -81 -124 -129 -118 -117 -162
-120 -238 -15 -57 79 -38 112 197 323 106 95 269 248 419 393 129 126 313 291
322 291 4 0 31 -23 60 -52z"/>
</g>
</svg>
