<?xml version="1.0" standalone="no"?>
<!DOCTYPE svg PUBLIC "-//W3C//DTD SVG 20010904//EN"
 "http://www.w3.org/TR/2001/REC-SVG-20010904/DTD/svg10.dtd">
<svg version="1.0" xmlns="http://www.w3.org/2000/svg"
 width="215.507886pt" height="241.227468pt" viewBox="0 0 215.507886 241.227468"
 preserveAspectRatio="xMidYMid meet">
<metadata>
Created by potrace 1.16, written by Peter Selinger 2001-2019
</metadata>
<g transform="translate(-54.935160,285.329472) scale(0.100000,-0.100000)"
fill="#000000" stroke="none">
<path d="M2251 2836 c-7 -8 -16 -36 -21 -63 -15 -81 -41 -167 -56 -184 -8 -8
-14 -20 -14 -25 0 -35 -150 -114 -215 -114 -19 0 -85 -58 -85 -75 0 -20 73
-65 107 -65 18 0 35 -4 38 -10 3 -5 23 -14 44 -20 51 -13 90 -46 108 -88 8
-19 21 -41 29 -49 8 -8 14 -29 15 -46 0 -18 12 -57 27 -87 26 -53 29 -55 66
-55 41 0 47 8 74 110 39 146 75 187 202 229 102 33 117 41 130 66 20 37 -27
78 -108 93 -100 19 -162 71 -191 160 -7 20 -16 37 -20 37 -4 0 -13 31 -20 68
-20 111 -71 166 -110 118z m80 -327 c25 -50 62 -87 107 -106 38 -16 38 -34 0
-44 -37 -10 -81 -53 -107 -104 -12 -24 -26 -47 -32 -50 -17 -11 -49 6 -49 26
0 26 -46 85 -87 110 -40 25 -42 47 -5 60 34 13 92 84 92 113 0 54 52 51 81 -5z"/>
<path d="M956 2684 c-30 -6 -61 -16 -68 -21 -7 -6 -28 -14 -46 -18 -41 -9
-185 -146 -206 -196 -8 -20 -22 -41 -30 -49 -9 -7 -16 -21 -16 -32 0 -10 -6
-29 -14 -41 -35 -53 -35 -401 -1 -450 8 -12 15 -30 15 -40 0 -16 14 -52 65
-162 36 -78 55 -129 61 -163 4 -20 14 -47 22 -60 11 -17 17 -67 22 -176 4 -84
10 -157 13 -163 4 -6 11 -51 17 -100 5 -50 16 -106 24 -124 8 -19 17 -55 21
-81 4 -26 13 -53 21 -59 8 -6 14 -20 14 -31 0 -28 87 -186 118 -215 70 -64
162 -80 222 -39 55 37 102 163 116 306 4 41 13 92 20 114 8 21 14 59 14 85 0
27 8 62 20 84 11 20 20 45 20 55 0 25 54 108 80 122 31 17 66 -10 94 -73 47
-104 56 -128 56 -155 0 -24 11 -107 47 -352 13 -92 91 -193 158 -206 103 -19
183 46 262 216 19 41 40 84 46 95 28 51 64 285 75 495 6 96 16 195 23 220 15
54 95 226 109 235 6 3 10 17 10 29 0 13 9 35 20 49 11 14 20 34 20 45 0 12 4
32 10 47 8 20 6 29 -10 45 -33 33 -66 26 -80 -15 -6 -19 -15 -35 -18 -35 -7 0
-23 -31 -100 -190 -68 -139 -82 -196 -92 -375 -11 -182 -40 -409 -58 -442 -7
-12 -12 -31 -12 -42 0 -30 -87 -191 -123 -229 -51 -53 -101 -35 -118 45 -4 21
-12 56 -18 78 -6 22 -18 87 -27 145 -43 276 -54 319 -108 398 -30 46 -68 75
-125 93 -90 30 -224 -120 -247 -276 -3 -22 -12 -58 -19 -80 -8 -22 -17 -67
-20 -100 -4 -33 -13 -80 -20 -105 -8 -25 -17 -71 -20 -102 -19 -169 -121 -155
-199 28 -20 45 -36 90 -36 99 0 9 -6 28 -14 43 -7 15 -17 47 -21 72 -3 25 -13
79 -20 120 -8 41 -17 132 -20 203 -3 70 -12 148 -20 175 -8 26 -15 55 -15 65
0 20 -96 246 -111 262 -5 5 -9 18 -9 30 0 11 -9 39 -20 62 -20 45 -50 199 -50
257 0 151 98 352 202 416 26 16 52 30 56 30 4 0 20 7 37 16 52 27 186 29 253
4 60 -23 137 -57 162 -72 8 -4 27 -13 43 -19 15 -6 27 -15 27 -19 0 -5 16 -14
35 -20 19 -6 35 -15 35 -20 0 -5 45 -23 100 -40 118 -38 160 -32 160 21 0 31
-5 36 -75 64 -50 20 -63 38 -46 63 10 17 240 64 296 61 90 -4 124 1 134 19 16
29 2 60 -31 71 -44 16 -233 13 -298 -4 -30 -8 -75 -20 -100 -26 -25 -6 -66
-20 -92 -30 -57 -23 -116 -24 -145 -4 -23 16 -145 59 -202 70 -56 12 -195 11
-255 -1z"/>
</g>
</svg>
