<?xml version="1.0" standalone="no"?>
<!DOCTYPE svg PUBLIC "-//W3C//DTD SVG 20010904//EN"
 "http://www.w3.org/TR/2001/REC-SVG-20010904/DTD/svg10.dtd">
<svg version="1.0" xmlns="http://www.w3.org/2000/svg"
 width="239.280725pt" height="196.365017pt" viewBox="0 0 239.280725 196.365017"
 preserveAspectRatio="xMidYMid meet">
<metadata>
Created by potrace 1.16, written by Peter Selinger 2001-2019
</metadata>
<g transform="translate(-41.885317,260.365017) scale(0.100000,-0.100000)"
fill="#000000" stroke="none">
<path d="M1530 2600 l-976 -5 -39 -31 c-58 -46 -72 -64 -84 -110 -16 -61 -16
-1646 0 -1694 15 -45 32 -64 85 -95 l43 -25 1066 0 1066 0 32 22 c33 24 47 38
73 75 14 19 16 121 16 863 l0 842 -24 46 c-38 73 -96 112 -168 112 -31 0 -70
1 -86 3 -16 2 -468 0 -1004 -3z m1128 -129 c46 -24 45 -14 50 -852 4 -842 5
-823 -42 -854 -29 -19 -2050 -24 -2084 -6 -55 29 -53 -6 -52 861 0 872 -2 836
54 861 33 14 2047 5 2074 -10z"/>
<path d="M840 2326 c-68 -40 -113 -98 -135 -173 -21 -70 -9 -169 29 -242 38
-73 56 -136 66 -229 14 -131 34 -208 66 -249 25 -34 71 -63 98 -63 28 0 77 35
82 60 3 14 11 39 19 56 7 17 16 56 20 87 5 40 14 62 32 78 32 31 43 15 43 -71
0 -37 7 -76 15 -90 8 -14 14 -34 15 -46 1 -60 122 -84 175 -34 15 14 32 36 37
50 16 40 48 217 48 263 0 23 6 51 14 62 7 11 17 34 20 52 4 17 13 37 21 43 7
6 16 27 20 48 4 20 13 49 21 64 18 34 18 115 0 149 -7 14 -16 38 -20 53 -17
68 -153 166 -230 166 -17 0 -60 -9 -94 -20 -80 -25 -108 -25 -172 0 -74 29
-124 26 -190 -14z m503 -100 c62 -25 87 -68 87 -147 0 -42 -5 -78 -14 -92 -8
-12 -17 -39 -20 -59 -4 -20 -11 -38 -17 -40 -12 -4 -49 -186 -49 -244 0 -137
-68 -132 -86 7 -14 109 -47 149 -124 149 -78 0 -120 -52 -120 -148 0 -65 -17
-112 -40 -112 -23 0 -31 12 -35 53 -1 18 -6 68 -10 112 -7 78 -30 163 -59 221
-67 135 -63 200 17 277 32 31 136 40 166 13 9 -7 36 -19 61 -25 91 -25 95 -25
119 6 36 44 69 52 124 29z"/>
<path d="M1759 2163 c-32 -13 -49 -57 -30 -76 18 -18 748 -27 779 -9 25 14 30
63 8 81 -20 17 -718 21 -757 4z"/>
<path d="M1745 1908 c-14 -11 -25 -30 -25 -43 0 -42 42 -46 435 -43 l359 3 13
24 c12 25 3 57 -21 74 -6 4 -174 7 -374 6 -342 -2 -364 -3 -387 -21z"/>
<path d="M1744 1657 c-32 -28 -27 -58 12 -75 34 -16 464 -16 498 -1 31 14 39
34 25 60 -18 34 -54 39 -284 39 -219 0 -224 0 -251 -23z"/>
<path d="M1395 1203 c-22 -24 -25 -37 -25 -98 0 -97 -1 -98 -106 -96 -111 2
-113 4 -116 104 -3 76 -5 82 -30 96 -21 12 -31 13 -52 3 -25 -11 -26 -15 -26
-96 0 -104 -1 -105 -121 -108 -119 -4 -119 -4 -119 90 0 83 -4 93 -37 111 -27
14 -56 2 -73 -29 -5 -10 -10 -73 -10 -139 l0 -120 29 -16 c42 -21 1763 -20
1799 2 21 13 22 19 22 147 0 116 -2 135 -18 149 -50 46 -84 5 -81 -97 1 -44
-3 -82 -9 -88 -6 -6 -56 -12 -112 -14 -133 -5 -144 5 -134 106 8 80 -9 120
-50 120 -39 0 -50 -26 -56 -124 l-5 -91 -104 -3 c-124 -3 -121 -6 -121 105 0
76 -2 84 -25 99 -57 37 -98 -12 -90 -109 7 -92 0 -97 -126 -97 -117 0 -121 4
-113 113 4 58 2 68 -18 86 -29 28 -42 26 -73 -6z"/>
</g>
</svg>
