<?xml version="1.0" standalone="no"?>
<!DOCTYPE svg PUBLIC "-//W3C//DTD SVG 20010904//EN"
 "http://www.w3.org/TR/2001/REC-SVG-20010904/DTD/svg10.dtd">
<svg version="1.0" xmlns="http://www.w3.org/2000/svg"
 width="245.601892pt" height="240.885250pt" viewBox="0 0 245.601892 240.885250"
 preserveAspectRatio="xMidYMid meet">
<metadata>
Created by potrace 1.16, written by Peter Selinger 2001-2019
</metadata>
<g transform="translate(-46.918319,288.811659) scale(0.100000,-0.100000)"
fill="#000000" stroke="none">
<path d="M1625 2879 c-78 -13 -140 -45 -184 -96 -23 -25 -41 -51 -41 -58 0 -7
-8 -23 -18 -36 -53 -71 -49 -241 9 -325 36 -52 108 -124 125 -124 6 0 24 -10
39 -22 44 -34 199 -32 275 4 126 60 184 138 202 271 26 191 -90 352 -277 386
-65 12 -59 12 -130 0z m156 -100 c96 -24 164 -124 164 -244 0 -116 -36 -171
-151 -232 -107 -57 -256 -5 -331 116 -31 50 -33 186 -3 224 11 14 20 29 20 34
0 22 81 92 116 102 82 21 104 21 185 0z"/>
<path d="M1785 2648 c-27 -15 -66 -56 -94 -95 -28 -41 -71 -45 -95 -9 -31 48
-86 41 -86 -11 0 -31 103 -133 135 -133 29 0 159 127 206 201 25 39 -22 72
-66 47z"/>
<path d="M2117 2549 c-20 -28 -11 -55 27 -77 102 -61 234 -196 276 -283 25
-50 25 -52 63 -108 36 -54 80 -57 85 -5 6 64 -115 253 -230 356 -152 136 -193
158 -221 117z"/>
<path d="M1125 2494 c-135 -111 -175 -157 -255 -296 -63 -111 -62 -108 -45
-134 32 -49 69 -14 183 177 25 41 178 189 196 189 14 0 86 68 86 81 0 29 -22
49 -53 48 -24 0 -52 -16 -112 -65z"/>
<path d="M1615 2010 c-104 -22 -197 -90 -234 -174 -26 -59 -30 -237 -7 -308 8
-24 17 -56 20 -71 4 -15 31 -64 61 -107 30 -44 55 -84 55 -88 0 -24 -117 -92
-156 -92 -13 0 -33 14 -49 35 -14 20 -35 43 -45 53 -69 65 -81 91 -74 171 10
115 -12 315 -41 376 -50 106 -123 150 -250 150 -212 0 -287 -110 -301 -439
l-7 -168 -32 -42 c-79 -104 -85 -122 -86 -256 0 -122 0 -124 28 -151 l28 -28
262 -3 c168 -2 266 -7 273 -14 6 -6 12 -67 13 -145 4 -151 10 -170 78 -208 35
-20 50 -21 548 -21 l512 -1 38 30 c46 37 51 58 51 223 0 82 4 119 13 125 6 4
137 10 289 13 348 6 323 -8 323 183 -1 120 -3 136 -24 170 -45 73 -132 134
-243 171 -22 7 -23 39 -2 57 49 40 64 101 64 259 l0 150 -33 36 c-85 93 -390
53 -413 -54 -3 -15 -10 -38 -16 -52 -23 -55 -22 -172 1 -225 35 -79 44 -95 68
-121 41 -45 22 -67 -67 -81 -68 -11 -145 -74 -204 -166 -16 -26 -21 -28 -59
-22 -133 22 -153 67 -77 170 83 113 102 190 90 370 -5 72 -9 136 -10 143 0 20
-78 99 -120 121 -68 36 -178 48 -265 31z m230 -124 c56 -37 75 -72 77 -136 2
-49 -12 -55 -80 -36 -32 9 -69 16 -83 16 -28 0 -128 33 -176 58 l-33 16 -43
-42 c-49 -48 -67 -53 -67 -17 0 44 121 160 183 176 70 18 164 3 222 -35z
m-845 -48 c18 -13 41 -34 52 -48 18 -26 50 -129 42 -141 -7 -11 -41 2 -60 22
-9 10 -21 19 -25 19 -5 0 -46 23 -93 50 -110 65 -121 64 -157 -15 -18 -38 -62
-43 -67 -8 -15 103 206 190 308 121z m1584 12 c28 -10 49 -42 40 -63 -4 -11
-31 -14 -132 -13 -121 2 -127 3 -130 23 -8 52 135 86 222 53z m-10 -171 c65
-30 52 -152 -22 -203 -65 -44 -115 -31 -167 44 -35 50 -41 134 -11 156 24 17
164 19 200 3z m-1706 -19 c20 -10 49 -22 65 -25 32 -7 67 -38 67 -61 0 -27
-93 -114 -122 -114 -34 0 -73 46 -87 102 -15 64 -14 75 9 98 24 24 23 24 68 0z
m832 0 c22 -11 57 -20 79 -20 67 0 129 -33 136 -72 19 -100 -132 -278 -235
-278 -88 0 -200 145 -200 260 0 109 112 165 220 110z m-592 -218 c3 -85 -8
-96 -63 -62 -43 27 -43 37 -4 95 46 67 63 59 67 -33z m-396 45 c46 -43 45
-127 -1 -127 -30 0 -41 23 -41 87 0 69 5 74 42 40z m209 -127 c37 -20 18 -80
-26 -80 -27 0 -45 18 -45 45 0 40 32 55 71 35z m1600 -11 c8 -16 8 -28 0 -45
-18 -41 -71 -25 -71 21 0 44 50 61 71 24z m-136 -89 c63 -62 101 -76 147 -57
36 16 78 52 78 67 0 5 11 17 25 26 23 15 27 15 43 2 9 -9 26 -18 37 -22 11 -3
44 -29 73 -57 l52 -50 0 -98 c0 -98 -7 -121 -39 -121 -32 0 -45 20 -51 71 -9
94 -72 96 -78 3 -2 -27 -7 -53 -12 -58 -5 -5 -86 -9 -181 -8 -171 1 -199 6
-199 38 0 39 -77 119 -120 126 -59 8 -29 54 94 145 72 53 70 53 131 -7z
m-1602 -18 c98 -88 113 -89 191 -17 69 65 99 70 162 27 47 -30 94 -83 94 -103
0 -27 -66 -69 -108 -69 -43 0 -52 -12 -52 -78 0 -45 -19 -50 -185 -48 -162 1
-165 3 -165 61 0 46 -19 75 -49 75 -29 0 -41 -22 -41 -72 0 -56 -29 -83 -58
-54 -26 26 -20 189 9 230 31 45 91 80 147 85 7 0 31 -16 55 -37z m955 -33 c38
1 54 -3 58 -14 8 -20 -83 -125 -108 -125 -24 0 -118 78 -118 98 0 34 33 54 75
47 22 -4 64 -7 93 -6z m-153 -184 c117 -103 113 -103 216 7 l75 81 50 -6 c122
-17 220 -81 264 -172 20 -41 22 -58 18 -196 -3 -171 -7 -179 -84 -179 -62 0
-76 19 -74 99 3 94 2 99 -20 111 -45 24 -60 -1 -60 -98 0 -55 -4 -92 -12 -100
-15 -15 -534 -17 -543 -2 -3 5 -7 48 -9 96 -4 92 -18 120 -54 107 -27 -10 -30
-22 -31 -111 -1 -100 3 -95 -64 -99 -84 -5 -97 13 -97 135 0 208 5 227 74 297
59 60 104 88 171 105 68 18 79 13 180 -75z"/>
</g>
</svg>
