<?xml version="1.0" standalone="no"?>
<!DOCTYPE svg PUBLIC "-//W3C//DTD SVG 20010904//EN"
 "http://www.w3.org/TR/2001/REC-SVG-20010904/DTD/svg10.dtd">
<svg version="1.0" xmlns="http://www.w3.org/2000/svg"
 width="188.648310pt" height="240.868755pt" viewBox="0 0 188.648310 240.868755"
 preserveAspectRatio="xMidYMid meet">
<metadata>
Created by potrace 1.16, written by Peter Selinger 2001-2019
</metadata>
<g transform="translate(-74.854700,286.963659) scale(0.100000,-0.100000)"
fill="#000000" stroke="none">
<path d="M1082 2856 c-66 -23 -81 -57 -82 -179 0 -128 11 -157 70 -183 43 -19
54 -40 48 -90 l-3 -29 -132 -5 c-145 -6 -165 -13 -210 -80 -19 -26 -23 -47
-23 -104 -1 -227 -2 -1007 -1 -1278 l1 -316 40 -51 c66 -83 28 -80 889 -80
802 0 847 2 893 46 66 63 63 14 63 913 0 908 3 862 -68 920 -29 23 -40 25
-169 28 -151 4 -162 8 -156 64 3 30 7 34 45 43 76 18 82 32 85 180 3 153 -1
169 -53 195 -38 20 -56 21 -622 19 -410 -1 -592 -5 -615 -13z m1172 -122 c18
-17 23 -109 7 -119 -6 -3 -260 -7 -565 -9 -617 -5 -579 -9 -578 64 1 88 -59
80 567 80 490 0 555 -2 569 -16z m-128 -269 c13 -20 15 -33 7 -58 l-9 -32
-428 -3 c-308 -1 -433 1 -442 9 -31 25 -10 92 31 102 11 3 201 5 422 6 l403 1
16 -25z m361 -223 c11 -6 23 -26 27 -43 3 -17 6 -378 6 -801 l0 -770 -29 -29
-30 -29 -767 0 c-482 1 -774 5 -785 11 -50 27 -50 12 -44 831 6 793 7 822 30
835 23 13 1568 8 1592 -5z"/>
<path d="M1452 2018 c-102 -83 -125 -136 -127 -290 -2 -131 -7 -142 -66 -158
-69 -19 -164 -94 -189 -150 -6 -14 -17 -36 -25 -50 -24 -40 -16 -164 10 -168
16 -2 26 10 50 63 30 68 90 135 123 135 9 0 26 7 36 15 11 8 32 15 47 15 l28
0 -6 -70 c-11 -135 58 -254 165 -283 133 -36 -73 -154 -225 -129 -62 11 -76 4
-71 -34 3 -26 10 -31 68 -51 124 -42 283 -20 367 52 51 43 49 43 120 -3 116
-77 232 -93 354 -50 70 26 90 47 69 73 -12 14 -25 16 -82 11 -151 -15 -301 83
-195 128 92 39 177 205 161 313 -6 40 -5 43 17 43 13 0 33 -7 43 -15 11 -8 28
-15 38 -15 30 0 82 -61 113 -132 26 -61 32 -68 57 -68 l28 0 0 78 c0 137 -94
253 -237 291 -47 13 -65 35 -52 66 21 52 10 171 -21 234 -50 99 -170 200 -204
172 -22 -19 -21 -22 24 -72 22 -24 45 -61 50 -81 6 -20 15 -40 20 -43 19 -12
11 -73 -12 -95 -31 -29 -108 -28 -149 3 -44 32 -147 32 -182 -1 -78 -73 -151
-38 -149 72 0 63 31 127 77 166 20 16 19 46 -1 54 -25 9 -29 8 -72 -26z m418
-391 c0 -16 -40 -47 -108 -81 -59 -30 -79 -32 -102 -11 -8 8 -40 27 -70 43
-100 54 -86 62 109 62 134 0 171 -3 171 -13z m-125 -202 c42 -42 20 -125 -34
-125 -32 0 -81 56 -81 92 0 53 75 74 115 33z m-223 -60 c71 -56 109 -215 53
-223 -51 -7 -172 190 -151 244 9 24 51 15 98 -21z m454 20 c4 -8 2 -21 -4 -28
-5 -6 -12 -29 -16 -49 -9 -49 -128 -179 -147 -161 -13 13 -12 21 24 158 12 44
19 53 57 73 52 26 78 28 86 7z"/>
</g>
</svg>
