<?xml version="1.0" standalone="no"?>
<!DOCTYPE svg PUBLIC "-//W3C//DTD SVG 20010904//EN"
 "http://www.w3.org/TR/2001/REC-SVG-20010904/DTD/svg10.dtd">
<svg version="1.0" xmlns="http://www.w3.org/2000/svg"
 width="128.839733pt" height="234.735149pt" viewBox="0 0 128.839733 234.735149"
 preserveAspectRatio="xMidYMid meet">
<metadata>
Created by potrace 1.16, written by Peter Selinger 2001-2019
</metadata>
<g transform="translate(-99.181728,280.988182) scale(0.100000,-0.100000)"
fill="#000000" stroke="none">
<path d="M1207 2801 c-142 -46 -205 -139 -215 -318 -7 -134 50 -428 110 -559
10 -22 18 -47 18 -55 0 -8 7 -24 15 -36 22 -31 52 -189 64 -338 14 -170 27
-273 57 -480 44 -297 99 -417 231 -512 76 -54 234 -54 302 1 83 66 152 186
176 304 4 18 13 45 21 60 8 15 14 41 14 57 1 17 7 59 15 95 8 36 24 153 35
260 42 418 50 475 74 540 13 36 30 81 37 100 6 19 18 49 25 65 23 54 45 129
54 180 5 28 15 77 24 110 20 76 22 278 2 316 -7 14 -16 38 -20 54 -9 36 -69
99 -126 132 -65 39 -177 44 -286 13 -186 -53 -234 -54 -369 -5 -56 20 -215 29
-258 16z m182 -116 c32 -8 80 -25 107 -37 75 -33 216 -31 309 6 158 64 260 52
322 -37 27 -40 28 -43 27 -176 0 -110 -5 -149 -22 -205 -12 -37 -22 -79 -22
-92 0 -14 -6 -35 -14 -47 -8 -12 -17 -38 -20 -58 -3 -19 -15 -53 -26 -74 -11
-22 -20 -46 -20 -55 0 -9 -6 -24 -14 -35 -7 -11 -17 -32 -22 -47 -14 -44 -82
-130 -136 -173 -128 -102 -291 -110 -428 -19 -34 23 -98 93 -114 124 -4 8 -18
33 -31 55 -14 22 -30 51 -36 65 -6 14 -17 38 -25 53 -8 16 -14 36 -14 45 0 9
-7 31 -16 47 -26 48 -69 234 -84 364 -22 182 11 260 125 294 66 20 86 20 154
2z m-23 -1142 c75 -76 323 -99 458 -43 41 17 80 38 87 46 12 15 45 19 53 6 5
-8 -2 -73 -25 -224 -6 -40 -16 -125 -24 -188 -7 -63 -18 -127 -23 -142 -6 -14
-14 -53 -18 -87 -3 -33 -13 -66 -20 -72 -8 -6 -14 -21 -14 -32 0 -11 -12 -45
-26 -76 -73 -154 -173 -203 -265 -131 -47 38 -99 105 -99 129 0 9 -7 30 -16
46 -34 63 -71 270 -102 570 -22 212 -16 248 34 198z"/>
</g>
</svg>
