<?xml version="1.0" standalone="no"?>
<!DOCTYPE svg PUBLIC "-//W3C//DTD SVG 20010904//EN"
 "http://www.w3.org/TR/2001/REC-SVG-20010904/DTD/svg10.dtd">
<svg version="1.0" xmlns="http://www.w3.org/2000/svg"
 width="201.279626pt" height="243.137040pt" viewBox="0 0 201.279626 243.137040"
 preserveAspectRatio="xMidYMid meet">
<metadata>
Created by potrace 1.16, written by Peter Selinger 2001-2019
</metadata>
<g transform="translate(-63.588709,292.147362) scale(0.100000,-0.100000)"
fill="#000000" stroke="none">
<path d="M1561 2903 c-67 -52 -84 -70 -106 -113 -18 -35 -24 -62 -22 -98 2
-54 -20 -92 -53 -92 -9 0 -37 -11 -61 -25 -24 -13 -57 -32 -74 -41 -85 -48
-215 -174 -215 -209 0 -7 -6 -18 -14 -24 -8 -7 -17 -24 -21 -39 -4 -15 -12
-34 -19 -42 -38 -45 -64 -229 -66 -470 -1 -91 -6 -190 -11 -220 -5 -30 -12
-75 -15 -100 -3 -25 -13 -63 -24 -85 -10 -22 -23 -51 -29 -65 -18 -41 -71
-122 -110 -170 -91 -111 -108 -188 -56 -256 48 -63 55 -64 364 -64 l281 0 6
-27 c13 -50 53 -117 108 -179 47 -53 63 -63 113 -77 63 -18 208 -23 218 -8 3
5 19 12 35 16 50 11 170 169 170 224 0 49 14 51 288 51 141 0 275 5 296 10 59
13 98 57 104 118 6 72 -16 115 -147 283 -98 126 -130 275 -130 611 -1 210 -15
296 -70 436 -47 118 -184 253 -330 325 -103 51 -120 68 -118 123 2 60 -46 150
-103 191 -55 38 -148 46 -189 16z m156 -118 c67 -44 54 -160 -16 -134 -13 5
-56 8 -95 7 -69 -3 -71 -2 -75 22 -4 34 38 108 69 120 32 12 85 5 117 -15z
m90 -251 c12 -8 29 -14 38 -14 30 0 153 -71 197 -112 10 -10 22 -18 27 -18 12
0 121 -138 121 -153 0 -7 6 -21 13 -32 14 -22 38 -100 57 -183 7 -29 15 -167
19 -305 8 -269 18 -333 70 -447 25 -55 85 -154 108 -178 7 -7 13 -18 13 -23 0
-5 8 -17 18 -27 62 -62 76 -134 29 -150 -12 -4 -410 -8 -883 -7 -833 0 -863 1
-883 19 -33 30 -26 63 27 124 90 104 192 279 192 331 0 14 7 44 15 66 10 30
14 96 15 255 2 267 14 362 60 465 10 22 25 57 34 78 31 72 136 188 192 212 17
8 36 21 44 29 7 9 17 16 22 16 5 0 21 9 35 20 14 11 40 20 57 20 18 0 38 6 44
12 29 29 274 31 319 2z m60 -1761 c10 -28 -56 -125 -111 -165 -84 -61 -263
-15 -302 78 -8 18 -18 35 -24 39 -13 8 -13 52 0 57 25 8 434 0 437 -9z"/>
</g>
</svg>
