<?xml version="1.0" standalone="no"?>
<!DOCTYPE svg PUBLIC "-//W3C//DTD SVG 20010904//EN"
 "http://www.w3.org/TR/2001/REC-SVG-20010904/DTD/svg10.dtd">
<svg version="1.0" xmlns="http://www.w3.org/2000/svg"
 width="203.237958pt" height="238.449709pt" viewBox="0 0 203.237958 238.449709"
 preserveAspectRatio="xMidYMid meet">
<metadata>
Created by potrace 1.16, written by Peter Selinger 2001-2019
</metadata>
<g transform="translate(-64.241753,288.699806) scale(0.100000,-0.100000)"
fill="#000000" stroke="none">
<path d="M1170 2884 c-182 -36 -349 -142 -403 -257 -9 -19 -23 -40 -31 -46 -8
-7 -18 -27 -21 -44 -4 -18 -13 -39 -20 -47 -7 -8 -16 -37 -19 -65 -4 -27 -14
-77 -23 -110 -9 -37 -13 -79 -9 -110 9 -77 36 -197 52 -228 8 -16 14 -36 14
-45 0 -9 19 -53 41 -97 62 -123 120 -283 129 -355 4 -36 12 -85 18 -110 6 -25
14 -97 18 -160 3 -63 13 -130 20 -149 8 -18 14 -52 14 -75 0 -22 9 -61 20 -85
11 -24 20 -52 20 -63 0 -11 7 -32 15 -46 8 -15 28 -61 46 -102 61 -147 167
-211 291 -177 38 10 108 102 108 141 0 17 6 41 14 51 8 11 17 52 21 90 4 39
11 78 16 87 5 9 14 63 20 120 6 57 17 115 25 130 8 15 14 41 14 59 0 37 43
117 76 142 24 18 25 17 67 -12 28 -20 47 -43 59 -73 20 -51 67 -304 75 -403 3
-38 11 -81 18 -95 7 -14 16 -41 20 -60 11 -56 47 -123 84 -155 47 -41 158 -44
209 -5 82 62 182 247 212 395 5 28 14 68 20 90 5 22 10 76 10 120 0 44 6 121
14 170 8 50 17 126 21 170 4 44 13 90 21 102 8 12 14 27 14 33 0 10 15 45 73
169 35 75 89 234 97 286 4 28 13 75 19 105 7 38 8 72 1 110 -6 30 -15 84 -21
120 -6 36 -17 75 -25 87 -8 12 -14 28 -14 36 0 53 -122 219 -195 264 -50 32
-118 63 -134 63 -10 0 -36 8 -57 17 -56 24 -227 24 -271 0 -18 -9 -41 -17 -53
-17 -12 0 -70 -16 -130 -36 l-108 -36 -114 37 c-62 20 -135 43 -163 52 -51 16
-170 25 -215 17z m233 -149 c41 -14 97 -38 124 -53 100 -54 182 -103 188 -112
3 -6 14 -10 24 -10 10 0 29 -8 42 -18 25 -19 111 -42 158 -42 62 0 95 65 52
104 -23 21 -103 46 -147 46 -37 0 -48 11 -39 39 4 15 31 25 121 46 156 37 251
33 350 -16 73 -36 179 -126 190 -162 3 -12 12 -29 20 -38 34 -39 66 -190 61
-294 -5 -106 -51 -290 -88 -355 -5 -8 -14 -26 -20 -40 -6 -14 -15 -32 -20 -40
-5 -8 -14 -26 -19 -40 -6 -14 -16 -36 -24 -50 -7 -14 -17 -41 -21 -60 -4 -19
-13 -44 -20 -55 -8 -11 -16 -71 -20 -140 -16 -298 -56 -540 -108 -657 -10 -21
-17 -40 -17 -43 0 -3 -16 -27 -35 -54 -92 -128 -158 -73 -194 164 -6 39 -15
88 -20 110 -6 22 -14 72 -19 110 -37 276 -145 411 -300 376 -58 -12 -151 -114
-152 -164 0 -9 -9 -34 -20 -54 -11 -21 -20 -53 -20 -71 0 -18 -6 -45 -14 -60
-8 -15 -17 -63 -21 -107 -4 -44 -14 -97 -21 -119 -8 -21 -14 -60 -14 -86 0
-106 -59 -186 -116 -157 -54 28 -138 189 -160 307 -4 19 -13 46 -20 61 -7 14
-17 68 -23 120 -6 51 -15 118 -21 148 -5 30 -13 106 -17 170 -3 63 -12 127
-20 141 -7 14 -13 36 -13 50 0 14 -9 43 -20 65 -11 22 -19 46 -20 52 0 7 -10
34 -21 60 -30 68 -64 142 -83 183 -67 144 -67 415 0 491 8 8 14 19 14 24 0 17
91 142 118 162 128 95 294 120 445 68z"/>
</g>
</svg>
