<?xml version="1.0" standalone="no"?>
<!DOCTYPE svg PUBLIC "-//W3C//DTD SVG 20010904//EN"
 "http://www.w3.org/TR/2001/REC-SVG-20010904/DTD/svg10.dtd">
<svg version="1.0" xmlns="http://www.w3.org/2000/svg"
 width="212.790024pt" height="238.900457pt" viewBox="0 0 212.790024 238.900457"
 preserveAspectRatio="xMidYMid meet">
<metadata>
Created by potrace 1.16, written by Peter Selinger 2001-2019
</metadata>
<g transform="translate(-55.209976,282.796976) scale(0.100000,-0.100000)"
fill="#000000" stroke="none">
<path d="M2432 2809 c-42 -20 -158 -123 -257 -228 -142 -152 -280 -300 -365
-391 -116 -124 -112 -120 -131 -147 -9 -13 -49 -58 -90 -101 -104 -109 -140
-151 -169 -194 -14 -20 -44 -58 -67 -85 -22 -26 -78 -95 -123 -153 -45 -58
-88 -109 -94 -115 -6 -5 -19 -21 -28 -35 -8 -14 -45 -59 -82 -100 -70 -80 -84
-120 -47 -140 46 -24 69 -13 181 89 33 30 99 85 147 122 49 38 102 80 118 94
17 15 94 77 172 140 77 63 144 119 148 124 3 6 45 43 93 83 47 40 129 113 182
163 52 50 122 113 155 140 33 27 83 72 110 100 28 27 117 113 199 190 176 165
196 193 196 270 0 88 -42 146 -130 178 -56 21 -64 20 -118 -4z m126 -133 c22
-32 22 -36 9 -63 -15 -28 -167 -181 -283 -284 -163 -145 -221 -197 -258 -234
-35 -34 -79 -73 -211 -187 -11 -10 -78 -72 -148 -138 -117 -109 -157 -137
-157 -111 0 11 84 114 133 163 18 18 65 71 104 118 38 47 92 108 120 136 27
28 79 86 115 130 64 76 144 154 160 154 4 0 15 15 24 33 9 17 82 96 161 175
164 162 187 173 231 108z"/>
<path d="M2390 1841 c-24 -19 -24 -21 -11 -68 8 -26 17 -67 21 -90 4 -23 13
-50 21 -59 23 -28 20 -328 -3 -371 -10 -18 -18 -41 -18 -52 0 -32 -58 -173
-95 -232 -78 -121 -200 -236 -310 -292 -99 -51 -156 -77 -166 -77 -6 0 -23 -6
-37 -14 -69 -36 -413 -37 -467 -2 -13 9 -32 16 -42 16 -10 0 -28 6 -40 13 -12
6 -52 28 -90 47 -107 56 -142 82 -225 164 -77 77 -91 101 -63 112 38 15 26 42
-53 121 -47 47 -82 91 -86 108 -4 17 -13 37 -21 45 -7 8 -16 26 -20 40 -34
111 -144 108 -132 -4 6 -55 18 -88 98 -260 44 -96 224 -316 259 -316 4 0 26
-15 49 -34 22 -18 84 -55 138 -81 54 -26 109 -53 123 -60 14 -7 45 -16 70 -20
25 -4 57 -14 72 -21 40 -20 358 -20 397 1 16 8 48 17 72 21 24 4 55 13 69 20
14 7 48 23 75 36 202 93 406 291 488 474 15 34 27 68 27 75 0 8 7 27 15 43 9
16 20 57 24 90 5 34 14 74 20 89 41 107 -22 480 -91 540 -26 22 -37 21 -68 -2z"/>
</g>
</svg>
