<?xml version="1.0" standalone="no"?>
<!DOCTYPE svg PUBLIC "-//W3C//DTD SVG 20010904//EN"
 "http://www.w3.org/TR/2001/REC-SVG-20010904/DTD/svg10.dtd">
<svg version="1.0" xmlns="http://www.w3.org/2000/svg"
 width="239.176394pt" height="240.093372pt" viewBox="0 0 239.176394 240.093372"
 preserveAspectRatio="xMidYMid meet">
<metadata>
Created by potrace 1.16, written by Peter Selinger 2001-2019
</metadata>
<g transform="translate(-42.496654,283.854208) scale(0.100000,-0.100000)"
fill="#000000" stroke="none">
<path d="M2489 2812 c-20 -15 -61 -47 -90 -72 -68 -58 -131 -100 -149 -100 -7
0 -39 -22 -71 -50 -64 -56 -65 -56 -105 -35 -60 31 -106 21 -186 -43 -40 -31
-86 -65 -101 -75 -16 -10 -61 -49 -100 -85 -40 -37 -99 -90 -132 -117 -33 -28
-100 -89 -150 -136 -49 -48 -117 -108 -150 -134 -33 -26 -87 -73 -120 -105
-33 -31 -85 -76 -115 -100 -30 -24 -62 -51 -71 -60 -70 -69 -226 -207 -278
-247 -230 -175 -260 -207 -241 -257 10 -28 713 -732 749 -750 40 -21 62 -6
155 106 186 223 225 267 303 348 46 47 104 112 130 145 26 33 82 95 123 138
41 43 77 84 79 90 5 16 81 105 163 192 37 40 82 90 100 112 18 22 74 85 123
139 221 242 233 265 183 360 -22 42 -22 42 -2 69 31 45 47 69 84 130 19 31 44
71 55 89 28 44 108 146 116 146 13 0 31 59 24 79 -3 11 -58 72 -122 135 -129
129 -141 134 -204 88z m120 -173 c34 -28 62 -56 62 -62 3 -24 -3 -42 -14 -52
-7 -5 -28 -32 -46 -60 -60 -87 -73 -86 -174 10 -69 66 -77 77 -67 95 6 11 15
20 20 20 5 0 37 23 71 50 34 28 68 50 75 50 7 0 40 -23 73 -51z m-311 -201
c137 -130 173 -172 170 -197 -6 -54 -39 -38 -152 75 -103 104 -127 144 -93
157 24 10 31 7 75 -35z m-156 -106 c253 -243 288 -280 288 -314 0 -31 -124
-190 -240 -306 -25 -26 -78 -83 -116 -127 -38 -44 -89 -101 -114 -126 -25 -25
-59 -66 -77 -90 -17 -24 -51 -64 -75 -89 -53 -56 -118 -135 -143 -175 -10 -16
-57 -70 -105 -120 -47 -49 -108 -118 -134 -152 -71 -92 -85 -91 -178 12 -66
74 -328 331 -383 377 -132 108 -140 131 -65 192 19 15 60 51 90 80 30 29 93
83 140 121 47 38 126 109 177 158 50 49 110 102 133 117 23 15 70 54 104 87
85 82 201 183 210 183 4 0 43 35 85 78 83 83 144 135 190 163 16 10 32 22 35
28 22 34 64 11 178 -97z m-1199 -1348 c321 -321 325 -327 279 -384 -22 -28
-38 -21 -87 42 -22 28 -136 145 -254 262 -250 247 -311 309 -311 318 0 8 59
58 69 58 4 0 141 -133 304 -296z"/>
<path d="M1565 1988 c-26 -14 -85 -70 -85 -80 0 -26 -83 -175 -137 -245 -35
-46 -69 -94 -74 -107 -16 -35 12 -92 55 -112 34 -17 35 -17 88 19 59 40 74 31
40 -26 -35 -59 -36 -82 -1 -122 52 -59 119 -41 252 69 38 31 73 56 79 56 25 0
115 51 144 82 97 103 79 213 -51 315 -27 22 -63 58 -79 81 -40 59 -85 82 -154
82 -31 0 -66 -6 -77 -12z m127 -115 c9 -10 19 -28 22 -39 6 -19 38 -53 143
-151 12 -12 23 -28 23 -35 0 -18 -57 -69 -100 -89 -19 -9 -66 -37 -103 -62
-95 -65 -119 -64 -72 4 l36 50 -26 45 c-27 45 -33 48 -97 45 -46 -3 -49 12
-13 65 14 20 25 43 25 51 0 18 27 61 64 101 34 36 74 42 98 15z"/>
</g>
</svg>
