<?xml version="1.0" standalone="no"?>
<!DOCTYPE svg PUBLIC "-//W3C//DTD SVG 20010904//EN"
 "http://www.w3.org/TR/2001/REC-SVG-20010904/DTD/svg10.dtd">
<svg version="1.0" xmlns="http://www.w3.org/2000/svg"
 width="224.928820pt" height="240.151386pt" viewBox="0 0 224.928820 240.151386"
 preserveAspectRatio="xMidYMid meet">
<metadata>
Created by potrace 1.16, written by Peter Selinger 2001-2019
</metadata>
<g transform="translate(-51.250092,284.151386) scale(0.100000,-0.100000)"
fill="#000000" stroke="none">
<path d="M2240 2788 c-25 -28 -127 -133 -227 -233 -111 -110 -183 -190 -183
-201 0 -11 41 -60 95 -114 52 -52 95 -100 95 -106 0 -21 -46 -54 -76 -54 -17
0 -39 -7 -50 -15 -10 -8 -30 -15 -44 -15 -14 0 -36 -7 -50 -15 -14 -7 -40 -21
-57 -29 -52 -24 -169 -148 -240 -253 -15 -23 -203 -220 -418 -438 -214 -218
-420 -428 -457 -465 -93 -95 -123 -154 -114 -227 13 -113 87 -183 193 -183 81
0 123 35 458 391 39 41 92 94 118 119 238 226 452 472 501 575 60 127 70 141
128 188 33 26 68 47 78 47 9 0 23 6 29 14 7 8 27 18 44 21 58 11 179 70 237
114 56 43 363 348 419 416 52 63 56 119 15 181 -34 49 -45 57 -121 84 -65 23
-63 21 -202 178 -82 93 -105 96 -171 20z m163 -174 c70 -78 70 -90 5 -151 -29
-26 -72 -68 -96 -93 -137 -142 -157 -160 -179 -160 -33 0 -173 135 -173 167 0
35 21 28 90 -27 65 -52 69 -54 94 -44 26 10 18 53 -19 98 -38 47 -47 96 -18
96 9 0 42 -25 74 -55 62 -60 82 -66 100 -34 10 19 5 28 -46 79 -59 59 -69 92
-30 98 13 2 39 -16 75 -53 60 -61 62 -62 84 -39 25 25 19 52 -24 103 -84 100
-27 114 63 15z m235 -180 c2 -22 -5 -39 -29 -65 -86 -93 -329 -335 -364 -364
-38 -31 -150 -85 -177 -85 -7 0 -31 -9 -53 -19 -22 -11 -62 -29 -90 -42 -114
-52 -148 -89 -226 -243 -31 -61 -63 -112 -72 -114 -14 -3 -97 73 -97 89 0 5
23 34 51 66 28 32 59 74 69 93 31 60 148 170 180 170 7 0 23 9 37 20 14 11 35
20 47 20 12 0 31 6 42 14 11 8 37 18 58 21 21 4 40 13 43 20 2 7 16 16 30 20
15 3 38 15 51 26 14 10 30 19 37 19 7 0 101 88 209 196 170 168 201 195 224
192 22 -2 28 -9 30 -34z m-1140 -981 c23 -20 42 -45 42 -55 0 -10 -66 -85
-150 -171 -83 -83 -264 -268 -403 -410 -222 -227 -256 -257 -283 -257 -51 0
-91 70 -66 117 6 10 144 153 307 318 163 165 337 344 387 398 51 53 99 97 108
97 9 0 35 -17 58 -37z"/>
</g>
</svg>
