<?xml version="1.0" standalone="no"?>
<!DOCTYPE svg PUBLIC "-//W3C//DTD SVG 20010904//EN"
 "http://www.w3.org/TR/2001/REC-SVG-20010904/DTD/svg10.dtd">
<svg version="1.0" xmlns="http://www.w3.org/2000/svg"
 width="240.760317pt" height="180.854300pt" viewBox="0 0 240.760317 180.854300"
 preserveAspectRatio="xMidYMid meet">
<metadata>
Created by potrace 1.16, written by Peter Selinger 2001-2019
</metadata>
<g transform="translate(-41.029700,244.843256) scale(0.100000,-0.100000)"
fill="#000000" stroke="none">
<path d="M1052 2428 c-49 -25 -86 -81 -97 -145 -19 -115 -168 -152 -235 -59
-48 68 -83 96 -116 96 -68 0 -145 -74 -178 -170 -17 -49 -21 -136 -7 -144 4
-3 11 -23 14 -43 5 -30 21 -52 74 -104 75 -72 157 -139 170 -139 15 0 72 -64
93 -105 32 -63 22 -139 -31 -225 -5 -8 -29 -57 -54 -107 -97 -198 -46 -361
165 -529 30 -24 61 -49 68 -55 23 -19 184 -59 237 -59 50 0 244 31 320 52 69
19 203 21 249 5 23 -9 61 -18 86 -20 25 -3 79 -13 120 -22 53 -12 101 -15 165
-12 153 9 230 49 370 191 79 81 92 100 108 153 27 89 12 258 -27 303 -50 56
-96 172 -98 239 -1 95 40 147 204 254 138 90 186 195 159 348 -12 64 -17 75
-66 124 -87 89 -123 87 -228 -15 -66 -64 -75 -70 -114 -70 -49 0 -109 44 -119
89 -23 99 -95 181 -159 181 -80 0 -149 -92 -170 -229 -8 -50 -50 -99 -118
-139 -93 -54 -348 -61 -419 -11 -15 10 -31 19 -35 19 -4 0 -27 17 -50 38 -38
34 -44 46 -67 134 -28 108 -53 151 -108 179 -47 24 -53 24 -106 -3z m82 -130
c8 -13 17 -52 21 -88 13 -124 72 -187 259 -276 54 -26 335 -25 399 1 184 75
257 154 269 293 4 34 12 70 19 78 18 22 53 14 57 -15 2 -13 12 -37 23 -55 10
-17 19 -38 19 -46 1 -22 39 -63 85 -91 34 -21 52 -24 130 -24 102 0 141 17
189 80 29 38 63 46 73 18 3 -10 12 -25 18 -33 56 -68 0 -194 -116 -265 -38
-23 -178 -147 -195 -172 -36 -54 -64 -125 -64 -163 0 -50 60 -206 98 -253 5
-7 13 -26 16 -44 4 -17 13 -37 21 -43 8 -6 16 -43 20 -85 9 -88 -3 -114 -94
-208 -100 -105 -197 -156 -301 -159 -53 -1 -200 21 -240 37 -115 44 -367 45
-473 0 -100 -42 -306 -38 -366 7 -13 10 -29 18 -35 18 -15 0 -146 125 -174
166 -46 68 -50 201 -7 254 36 44 96 187 106 252 24 156 -9 217 -196 358 -104
77 -125 99 -155 157 -24 48 -21 131 6 154 8 6 14 18 14 25 0 28 49 16 69 -17
36 -60 94 -84 196 -84 73 1 97 5 128 22 45 25 97 80 97 102 0 9 7 25 15 35 8
11 15 32 15 46 0 46 30 55 54 18z"/>
<path d="M982 1897 c-29 -31 -28 -41 11 -90 72 -90 82 -120 81 -247 0 -114 -1
-116 -42 -200 -23 -47 -42 -92 -42 -101 0 -9 -7 -22 -15 -29 -28 -24 -20 -130
14 -176 89 -122 197 -154 366 -111 39 10 88 23 110 29 75 19 234 22 289 4 182
-57 277 -67 341 -36 22 11 45 19 51 20 6 0 31 21 56 48 88 95 86 182 -9 367
-58 111 -54 273 9 375 63 103 67 115 55 141 -53 105 -197 -82 -222 -287 -10
-78 29 -264 61 -290 7 -5 16 -23 20 -40 4 -16 12 -36 19 -44 40 -48 25 -114
-36 -159 -53 -39 -153 -44 -223 -12 -111 51 -263 71 -357 47 -31 -8 -80 -18
-110 -22 -30 -3 -61 -12 -69 -19 -19 -16 -154 -27 -183 -15 -72 28 -99 112
-61 185 64 121 87 208 88 320 0 152 -29 241 -107 323 -47 48 -65 52 -95 19z"/>
</g>
</svg>
