<?xml version="1.0" standalone="no"?>
<!DOCTYPE svg PUBLIC "-//W3C//DTD SVG 20010904//EN"
 "http://www.w3.org/TR/2001/REC-SVG-20010904/DTD/svg10.dtd">
<svg version="1.0" xmlns="http://www.w3.org/2000/svg"
 width="245.980384pt" height="210.880649pt" viewBox="0 0 245.980384 210.880649"
 preserveAspectRatio="xMidYMid meet">
<metadata>
Created by potrace 1.16, written by Peter Selinger 2001-2019
</metadata>
<g transform="translate(-39.947008,273.819699) scale(0.100000,-0.100000)"
fill="#000000" stroke="none">
<path d="M1570 2731 c-106 -22 -254 -140 -310 -250 -36 -68 -28 -228 17 -331
26 -60 43 -133 43 -190 0 -147 87 -320 160 -320 58 0 95 70 119 224 18 121 65
133 76 19 8 -78 37 -174 66 -215 59 -83 161 29 188 207 30 198 35 221 73 293
38 72 38 75 39 188 l0 115 -35 44 c-43 51 -169 163 -212 187 -17 9 -59 22 -95
27 -70 12 -78 12 -129 2z m182 -111 c15 -11 30 -20 34 -20 15 0 44 -34 44 -50
0 -13 -11 -19 -40 -24 -25 -4 -43 -14 -50 -26 -6 -11 -17 -20 -25 -20 -9 0
-23 -9 -32 -20 -10 -11 -27 -20 -39 -20 -12 0 -33 9 -47 20 -14 11 -28 20 -32
20 -4 0 -20 11 -37 25 -16 14 -41 25 -54 25 -63 0 -9 84 71 110 49 15 175 3
207 -20z m-282 -186 c25 -18 57 -42 72 -53 21 -17 41 -21 101 -21 l76 0 62 50
c71 57 99 68 135 51 58 -26 59 -159 1 -281 -31 -67 -78 -260 -77 -323 0 -29
-31 -87 -46 -87 -20 0 -32 34 -39 112 -12 129 -64 184 -152 162 -55 -14 -72
-52 -92 -200 -9 -68 -16 -84 -36 -84 -29 0 -43 31 -54 117 -16 122 -39 232
-72 344 -41 135 -38 175 14 231 30 32 40 30 107 -18z"/>
<path d="M2155 2397 c-8 -13 -26 -29 -40 -35 -31 -14 -32 -40 -2 -51 13 -5 29
-16 36 -25 18 -21 33 -20 65 5 29 23 35 63 11 73 -8 3 -20 17 -25 31 -12 31
-25 32 -45 2z"/>
<path d="M1053 2370 c-38 -45 -40 -60 -13 -85 11 -10 24 -32 28 -49 15 -57 62
-43 62 19 0 20 9 36 28 51 l27 22 -40 41 c-49 50 -52 50 -92 1z"/>
<path d="M1001 1889 c-52 -27 -54 -40 -20 -87 32 -44 58 -52 79 -27 7 8 20 15
29 15 50 0 52 41 4 85 -43 39 -45 40 -92 14z"/>
<path d="M2187 1883 c-14 -14 -6 -42 14 -48 26 -9 52 15 43 38 -6 17 -44 23
-57 10z"/>
<path d="M755 1642 c-76 -17 -145 -109 -145 -196 0 -56 30 -257 41 -276 37
-60 37 -57 -32 -123 -93 -88 -139 -127 -150 -127 -6 0 -23 -28 -39 -62 -40
-85 -41 -150 -1 -196 l28 -33 1184 1 c1045 0 1185 2 1199 15 11 11 16 42 19
106 4 110 -7 129 -124 223 -44 35 -93 78 -110 95 l-29 31 18 68 c31 110 37
152 38 254 1 193 -81 244 -361 225 -81 -6 -86 -8 -124 -44 -21 -21 -45 -50
-53 -65 -17 -32 -49 -37 -63 -9 -6 10 -31 31 -56 46 l-46 26 -306 0 c-256 0
-308 -2 -321 -15 -10 -8 -29 -17 -44 -21 -14 -4 -34 -15 -44 -26 -24 -26 -50
-24 -77 8 -12 14 -37 43 -55 62 l-33 36 -142 2 c-78 1 -156 -2 -172 -5z m285
-90 c42 -32 34 -93 -10 -76 -8 3 -68 7 -132 9 -165 4 -209 33 -114 75 56 26
218 20 256 -8z m1484 -1 c21 -18 20 -48 -2 -60 -21 -11 -113 -16 -229 -10 -16
0 -40 -2 -55 -6 -55 -14 -51 67 5 84 47 15 261 8 281 -8z m-879 -30 c8 -27 34
-34 60 -17 18 12 174 17 237 7 16 -2 78 -64 99 -98 22 -35 22 -36 4 -49 -32
-24 -57 -16 -104 34 -45 47 -86 72 -118 72 -8 0 -45 -31 -82 -70 -87 -90 -96
-90 -190 -4 -59 55 -71 72 -69 93 3 24 7 26 48 26 25 0 54 5 65 12 29 18 43
16 50 -6z m-241 -7 c35 -13 18 -54 -31 -75 -25 -11 -64 -35 -85 -54 -41 -38
-72 -45 -82 -19 -6 16 41 80 73 98 9 5 29 20 44 33 29 23 52 28 81 17z m-564
-115 c36 -6 85 -10 110 -8 72 4 109 3 117 -4 11 -12 2 -219 -11 -252 -32 -75
-133 -123 -193 -92 -78 41 -129 128 -147 248 -16 110 -10 135 32 125 15 -4 56
-11 92 -17z m1720 -65 c0 -90 -43 -209 -96 -261 -42 -43 -156 -49 -190 -10
-62 72 -68 87 -75 207 -4 63 -6 116 -4 118 1 1 72 4 158 6 85 2 163 9 173 14
29 16 34 6 34 -74z m-1087 -8 c95 -87 221 -91 323 -9 52 42 64 41 133 -4 51
-35 61 -37 118 -35 l62 2 5 -32 c20 -128 19 -145 -13 -180 l-29 -33 -429 0
c-528 0 -505 -8 -493 160 l5 80 55 0 c56 0 98 19 163 72 38 31 45 30 100 -21z
m-331 -343 l42 -28 455 0 456 0 40 28 c49 33 55 33 101 2 56 -38 210 -37 265
1 32 22 40 24 61 13 39 -21 108 -81 108 -94 0 -18 -2045 -20 -2056 -3 -10 16
85 98 115 98 13 0 39 -9 57 -21 53 -32 183 -29 249 5 59 32 56 32 107 -1z
m1616 -188 c9 -3 12 -18 10 -42 l-3 -38 -1117 0 c-1036 0 -1119 1 -1134 17
-16 16 -16 18 0 42 l16 26 883 2 c958 3 1324 1 1345 -7z"/>
</g>
</svg>
