<?xml version="1.0" standalone="no"?>
<!DOCTYPE svg PUBLIC "-//W3C//DTD SVG 20010904//EN"
 "http://www.w3.org/TR/2001/REC-SVG-20010904/DTD/svg10.dtd">
<svg version="1.0" xmlns="http://www.w3.org/2000/svg"
 width="239.680970pt" height="238.119574pt" viewBox="0 0 239.680970 238.119574"
 preserveAspectRatio="xMidYMid meet">
<metadata>
Created by potrace 1.16, written by Peter Selinger 2001-2019
</metadata>
<g transform="translate(-43.289018,284.767413) scale(0.100000,-0.100000)"
fill="#000000" stroke="none">
<path d="M2455 2840 c-99 -4 -192 -12 -207 -18 -14 -6 -43 -11 -65 -10 -70 0
-222 -68 -290 -131 -18 -16 -71 -61 -118 -100 -48 -39 -105 -95 -128 -124 -23
-28 -80 -91 -127 -138 -47 -48 -133 -136 -191 -197 -117 -120 -137 -137 -187
-146 -82 -15 -247 -143 -358 -278 -47 -57 -109 -131 -139 -166 -57 -66 -65
-90 -40 -132 27 -48 28 -53 12 -84 -9 -17 -21 -42 -27 -56 -5 -14 -14 -32 -20
-40 -18 -29 -60 -127 -60 -141 0 -8 -5 -20 -11 -26 -32 -32 -85 -537 -59 -568
37 -45 102 -2 99 66 0 24 4 85 11 134 6 50 15 119 19 155 4 36 12 74 18 85 6
11 13 38 17 60 7 41 39 131 61 175 7 14 16 42 20 63 9 47 24 47 75 1 43 -39
52 -74 26 -103 -48 -54 -111 -349 -117 -555 -3 -84 3 -96 53 -96 44 0 54 20
61 122 6 101 22 219 38 283 6 22 15 63 21 90 13 59 48 118 83 141 14 9 44 34
67 56 24 21 75 64 113 95 99 80 215 203 215 227 0 8 84 126 106 148 11 12 18
35 18 68 1 56 -18 32 241 299 360 370 453 449 565 483 84 26 208 38 382 38
l157 0 20 29 c18 25 21 44 21 138 -1 112 -6 130 -47 151 -23 12 -33 13 -328 2z
m263 -147 c6 -64 2 -65 -174 -68 -240 -4 -384 -30 -443 -78 -8 -7 -24 -16 -37
-22 -26 -11 -125 -107 -454 -439 -245 -248 -259 -257 -287 -188 l-13 33 72 73
c40 40 113 116 163 169 49 54 98 100 108 103 9 3 24 17 31 32 13 24 98 112
246 252 84 80 190 133 304 151 33 5 62 11 65 14 2 3 97 4 210 3 l206 -3 3 -32z
m-1479 -907 c79 -79 90 -116 40 -131 -40 -13 -185 160 -164 194 16 26 53 7
124 -63z m-138 -137 c52 -55 95 -109 97 -119 3 -17 -36 -58 -208 -219 -36 -33
-72 -60 -80 -61 -25 0 -180 155 -180 181 0 34 231 316 261 318 9 1 59 -44 110
-100z"/>
</g>
</svg>
