<?xml version="1.0" standalone="no"?>
<!DOCTYPE svg PUBLIC "-//W3C//DTD SVG 20010904//EN"
 "http://www.w3.org/TR/2001/REC-SVG-20010904/DTD/svg10.dtd">
<svg version="1.0" xmlns="http://www.w3.org/2000/svg"
 width="230.170355pt" height="238.267916pt" viewBox="0 0 230.170355 238.267916"
 preserveAspectRatio="xMidYMid meet">
<metadata>
Created by potrace 1.16, written by Peter Selinger 2001-2019
</metadata>
<g transform="translate(-51.000000,285.311790) scale(0.100000,-0.100000)"
fill="#000000" stroke="none">
<path d="M2542 2838 c-26 -26 -14 -58 31 -78 85 -38 127 -98 127 -177 -1 -69
-97 -141 -169 -127 -17 4 -60 3 -96 -1 -72 -7 -155 -61 -205 -131 -39 -56 -70
-70 -118 -55 -45 15 -119 -13 -180 -68 -18 -17 -67 -61 -110 -99 -72 -64 -143
-134 -527 -525 -162 -166 -225 -240 -225 -267 0 -10 -4 -22 -10 -25 -15 -9
-12 -48 5 -81 22 -43 20 -48 -52 -119 -91 -89 -111 -99 -208 -100 -205 -4
-295 -80 -295 -249 0 -117 35 -179 134 -236 83 -47 153 -37 144 21 -2 12 -12
27 -23 33 -117 65 -148 100 -147 172 1 51 19 82 70 121 36 27 41 28 138 25
129 -3 142 2 242 105 l84 86 57 -6 c120 -13 104 -25 606 478 453 455 440 438
440 556 l0 88 40 43 c22 24 63 62 91 86 l51 42 109 3 c131 3 180 25 232 106
57 87 39 250 -35 318 -72 68 -166 96 -201 61z m-422 -720 c57 -64 79 -36 -429
-548 -448 -453 -433 -441 -492 -378 -16 18 -29 39 -29 48 0 32 176 225 455
501 470 463 438 439 495 377z"/>
</g>
</svg>
