<?xml version="1.0" standalone="no"?>
<!DOCTYPE svg PUBLIC "-//W3C//DTD SVG 20010904//EN"
 "http://www.w3.org/TR/2001/REC-SVG-20010904/DTD/svg10.dtd">
<svg version="1.0" xmlns="http://www.w3.org/2000/svg"
 width="242.648678pt" height="207.481861pt" viewBox="0 0 242.648678 207.481861"
 preserveAspectRatio="xMidYMid meet">
<metadata>
Created by potrace 1.16, written by Peter Selinger 2001-2019
</metadata>
<g transform="translate(-44.012483,268.473325) scale(0.100000,-0.100000)"
fill="#000000" stroke="none">
<path d="M1223 2665 c-241 -80 -359 -306 -312 -595 5 -35 19 -79 30 -97 38
-61 23 -73 -89 -72 -101 1 -165 -15 -239 -60 -43 -27 -131 -146 -139 -189 -4
-19 -13 -47 -20 -61 -11 -21 -14 -119 -14 -486 l0 -460 31 -18 c29 -16 102
-17 1190 -17 1333 1 1193 -12 1201 106 10 147 2 828 -10 891 -13 68 -64 163
-109 204 -72 67 -243 115 -317 88 -71 -26 -85 17 -40 123 33 78 34 292 2 341
-10 14 -18 35 -18 45 0 11 -9 31 -20 45 -11 14 -20 30 -20 37 0 22 -110 127
-150 144 -22 9 -59 24 -82 34 -57 23 -209 22 -255 -1 -18 -10 -42 -17 -55 -17
-13 0 -36 -9 -53 -20 -20 -13 -47 -20 -80 -20 -33 0 -60 7 -80 20 -16 11 -40
20 -53 20 -13 0 -35 6 -50 14 -54 27 -170 28 -249 1z m262 -134 c28 -13 68
-31 90 -41 22 -10 63 -28 90 -40 28 -12 62 -28 77 -36 74 -40 146 26 81 75
-60 43 0 69 162 70 133 1 211 -49 272 -177 38 -79 41 -296 5 -376 -12 -27 -22
-54 -22 -60 0 -6 -18 -45 -39 -87 -55 -107 -80 -215 -87 -367 -3 -70 -11 -145
-19 -167 -7 -22 -16 -56 -19 -75 -10 -59 -77 -207 -100 -222 -34 -23 -86 31
-86 91 0 36 -56 303 -77 366 -37 114 -118 161 -210 123 -75 -32 -112 -125
-165 -413 -17 -93 -50 -175 -70 -175 -37 0 -109 114 -123 196 -4 21 -13 49
-21 61 -8 13 -17 80 -23 185 -5 89 -14 176 -20 191 -6 16 -11 40 -11 55 0 26
-40 131 -74 197 -9 17 -16 37 -16 45 0 9 -6 24 -14 35 -7 11 -23 63 -35 115
l-22 96 21 82 c35 134 118 245 204 272 53 16 195 6 251 -19z m-503 -776 c73
-52 85 -85 96 -275 10 -161 21 -221 68 -354 41 -116 159 -246 224 -246 55 0
147 99 157 169 3 20 10 45 16 56 6 11 16 65 23 120 26 200 62 279 116 255 27
-13 61 -130 74 -255 9 -85 43 -214 66 -253 29 -48 94 -92 134 -92 44 0 121 70
158 145 16 30 32 58 37 60 4 3 11 20 15 37 3 18 13 42 20 53 7 11 16 40 19 65
4 25 13 63 20 85 8 22 16 102 19 178 5 146 9 160 64 220 95 101 289 87 376
-28 65 -84 66 -101 64 -551 l-3 -409 -1080 -5 c-932 -4 -1082 -3 -1092 9 -10
11 -13 108 -13 410 l0 396 25 50 c13 28 25 55 25 60 0 17 81 91 125 115 63 34
188 26 247 -15z"/>
</g>
</svg>
