<?xml version="1.0" standalone="no"?>
<!DOCTYPE svg PUBLIC "-//W3C//DTD SVG 20010904//EN"
 "http://www.w3.org/TR/2001/REC-SVG-20010904/DTD/svg10.dtd">
<svg version="1.0" xmlns="http://www.w3.org/2000/svg"
 width="241.103064pt" height="229.881890pt" viewBox="0 0 241.103064 229.881890"
 preserveAspectRatio="xMidYMid meet">
<metadata>
Created by potrace 1.16, written by Peter Selinger 2001-2019
</metadata>
<g transform="translate(-43.865565,280.606820) scale(0.100000,-0.100000)"
fill="#000000" stroke="none">
<path d="M1581 2784 c-17 -14 -31 -36 -31 -47 0 -33 -12 -44 -50 -52 -48 -9
-92 -50 -124 -112 -14 -29 -32 -53 -39 -54 -6 -1 -93 -2 -192 -3 l-180 -2 -58
59 c-31 32 -74 65 -93 73 -20 9 -54 27 -76 40 -55 35 -78 29 -105 -27 -15 -32
-41 -60 -81 -90 -106 -79 -114 -93 -113 -209 l0 -99 51 -70 c55 -76 87 -154
99 -246 5 -33 16 -109 25 -170 18 -126 42 -309 57 -440 13 -115 25 -194 34
-223 6 -18 0 -29 -29 -57 -86 -81 -102 -255 -32 -357 17 -26 25 -53 28 -102 2
-36 9 -71 15 -77 16 -16 289 -15 308 1 10 8 15 32 15 71 0 96 -47 89 640 89
450 0 599 -3 608 -12 7 -7 12 -33 12 -58 0 -35 6 -52 25 -73 26 -27 27 -27
160 -27 l134 0 17 32 c12 22 14 44 10 78 -6 42 -3 51 24 85 52 65 64 229 21
298 -12 20 -27 37 -32 37 -42 0 -42 139 0 428 11 75 23 162 26 192 4 30 11 72
17 94 5 21 13 77 18 125 15 148 35 208 111 324 32 48 39 68 45 131 10 115 4
132 -81 217 -42 41 -89 95 -105 122 -34 54 -33 54 -67 27 -14 -11 -32 -20 -40
-20 -12 0 -137 -91 -191 -139 -34 -32 -381 -32 -412 -1 -11 11 -20 26 -20 34
0 21 -101 106 -126 106 -25 0 -39 15 -48 52 -16 67 -120 98 -175 52z m83 -30
c23 -9 20 -31 -4 -39 -28 -9 -54 13 -39 31 13 16 20 17 43 8z m80 -190 c49 -7
71 -29 45 -45 -16 -10 -259 -12 -283 -3 -21 8 -20 31 2 43 19 12 165 14 236 5z
m-910 -105 l64 -60 414 1 c553 2 955 8 999 15 33 6 37 4 43 -20 8 -32 -1 -65
-17 -66 -67 -4 -1413 2 -1426 6 -20 6 -121 -114 -121 -143 0 -8 -8 -24 -17
-34 -19 -21 -20 -133 -2 -228 6 -30 15 -93 20 -140 5 -47 16 -110 24 -140 7
-30 16 -89 20 -130 3 -41 12 -115 20 -165 24 -151 36 -265 30 -275 -10 -16
-51 -11 -67 8 -12 12 -16 41 -17 108 -1 51 -8 117 -16 148 -8 32 -15 78 -16
104 0 26 -4 70 -10 97 -5 28 -16 113 -24 190 -36 334 -51 401 -102 461 -74 88
-74 89 -76 146 -1 66 23 108 87 150 71 47 113 40 190 -33z m1829 30 c62 -44
98 -128 74 -172 -9 -16 -17 -34 -17 -41 0 -6 -20 -32 -45 -56 -25 -24 -45 -51
-45 -60 0 -9 -6 -22 -12 -28 -13 -13 -29 -102 -48 -257 -5 -44 -16 -134 -25
-200 -9 -66 -22 -172 -30 -235 -8 -63 -19 -131 -25 -150 -5 -19 -10 -67 -10
-105 0 -80 -17 -115 -54 -115 -42 0 -42 8 5 296 10 67 19 139 19 161 0 22 6
59 14 81 8 22 18 74 21 114 3 40 13 102 20 138 25 115 22 266 -5 325 -12 28
-29 57 -37 65 -63 69 -64 70 -57 119 19 127 156 192 257 120z m-1397 -284 c19
-4 21 -11 21 -70 -1 -89 10 -99 105 -98 87 2 118 -13 118 -56 0 -33 -11 -44
-62 -60 -46 -15 -98 -72 -98 -109 0 -102 32 -182 73 -182 22 0 87 -61 87 -83
0 -8 7 -21 16 -28 29 -24 54 -98 54 -159 0 -49 4 -61 22 -74 47 -33 114 -5
105 43 -14 73 8 128 89 217 72 79 80 85 113 83 106 -6 131 18 131 125 l0 76
-42 27 c-36 24 -52 28 -112 28 l-71 0 -17 35 c-39 80 -18 110 81 119 82 8 87
12 97 88 10 81 15 83 204 85 l163 1 30 -33 30 -34 -7 -145 c-3 -80 -13 -168
-21 -195 -8 -27 -15 -68 -15 -90 0 -23 -6 -75 -14 -116 -8 -41 -24 -169 -37
-285 -15 -144 -27 -215 -37 -227 -13 -15 -33 -18 -127 -18 -127 0 -135 4 -135
68 0 50 -12 77 -42 93 -35 19 -634 12 -664 -7 -26 -18 -48 -75 -39 -103 12
-39 -18 -51 -134 -51 -75 0 -112 4 -118 13 -13 16 -31 110 -43 222 -15 139
-28 235 -40 294 -5 29 -10 80 -10 111 0 32 -7 77 -15 101 -9 26 -18 97 -21
179 l-6 135 31 42 c30 39 36 42 84 45 62 4 243 -1 273 -7z m602 2 c14 -9 16
-36 3 -56 -11 -17 -447 -17 -468 1 -19 16 -16 48 7 56 26 10 442 9 458 -1z
m-197 -204 c9 -10 13 -35 11 -70 -4 -53 -3 -55 39 -93 25 -24 56 -42 78 -46
56 -11 123 -43 119 -57 -3 -7 -33 -14 -83 -17 l-79 -5 -49 -60 c-49 -61 -74
-71 -92 -39 -26 45 -85 99 -121 109 -69 19 -51 75 24 75 69 0 100 49 88 142
-10 70 28 106 65 61z m249 -898 c0 -13 -5 -27 -11 -31 -13 -8 -518 -6 -531 2
-12 8 -10 42 5 51 16 11 497 20 520 10 9 -4 17 -19 17 -32z m637 -177 c19 -34
16 -85 -6 -107 -17 -17 -54 -18 -903 -17 -992 1 -918 -5 -918 77 0 82 -73 76
928 73 l887 -2 12 -24z m-1677 -253 c15 -18 0 -62 -24 -71 -20 -8 -70 18 -74
37 -8 40 71 67 98 34z m1620 -10 c23 -24 1 -49 -46 -53 -55 -5 -81 30 -47 63
19 19 68 14 93 -10z"/>
</g>
</svg>
