<?xml version="1.0" standalone="no"?>
<!DOCTYPE svg PUBLIC "-//W3C//DTD SVG 20010904//EN"
 "http://www.w3.org/TR/2001/REC-SVG-20010904/DTD/svg10.dtd">
<svg version="1.0" xmlns="http://www.w3.org/2000/svg"
 width="157.074845pt" height="235.160520pt" viewBox="0 0 157.074845 235.160520"
 preserveAspectRatio="xMidYMid meet">
<metadata>
Created by potrace 1.16, written by Peter Selinger 2001-2019
</metadata>
<g transform="translate(-83.406330,280.852901) scale(0.100000,-0.100000)"
fill="#000000" stroke="none">
<path d="M1320 2795 c-127 -17 -228 -39 -265 -58 -16 -8 -41 -20 -55 -26 -73
-32 -120 -83 -120 -130 0 -53 95 -134 178 -152 21 -5 64 -15 97 -23 203 -51
557 -63 734 -26 52 11 119 20 151 20 34 0 64 6 76 15 10 8 29 15 42 15 35 0
144 49 175 78 46 43 39 110 -15 157 -87 74 -142 92 -419 135 -89 14 -461 10
-579 -5z m615 -111 c66 -9 141 -24 167 -35 26 -10 55 -19 64 -19 23 0 54 -29
54 -51 0 -21 -108 -59 -166 -59 -19 0 -51 -8 -72 -17 -58 -26 -554 -32 -673
-8 -46 9 -110 21 -143 26 -71 11 -146 43 -146 62 0 89 542 148 915 101z"/>
<path d="M1240 2273 c-32 -6 -114 -36 -166 -62 -49 -24 -164 -131 -164 -153 0
-8 -6 -21 -14 -27 -8 -7 -25 -45 -38 -84 -50 -159 -21 -366 83 -593 10 -23 19
-48 19 -55 0 -8 7 -25 16 -38 11 -16 19 -58 25 -130 4 -58 13 -124 18 -146 6
-22 11 -56 11 -75 0 -20 7 -60 15 -90 9 -30 20 -74 25 -98 5 -24 16 -53 25
-65 8 -12 15 -27 15 -34 0 -45 89 -138 152 -159 54 -17 129 -2 161 34 36 40
87 214 108 372 9 71 41 161 62 174 32 21 71 -5 83 -55 7 -25 16 -55 22 -65 5
-10 13 -45 17 -77 3 -32 13 -73 20 -90 7 -18 16 -57 20 -87 4 -30 13 -62 20
-70 7 -8 16 -26 20 -40 36 -119 170 -137 272 -38 84 83 125 221 164 558 23
203 27 215 109 371 56 108 65 150 65 319 0 206 -12 237 -133 357 -106 105 -96
99 -191 129 -79 25 -88 26 -145 14 -131 -26 -172 -37 -208 -53 -21 -9 -43 -17
-51 -17 -7 0 -22 -7 -33 -15 -25 -19 -58 -19 -74 0 -7 8 -20 15 -29 15 -9 0
-34 9 -56 20 -22 11 -45 20 -52 20 -7 0 -32 6 -55 14 -54 18 -105 25 -138 19z
m146 -147 c38 -13 114 -47 169 -76 191 -98 274 -115 314 -64 27 35 16 62 -30
76 -40 11 -67 33 -56 45 8 7 171 32 219 33 20 0 57 -9 83 -20 48 -21 155 -120
155 -144 0 -8 6 -19 14 -25 44 -37 40 -305 -5 -391 -11 -19 -19 -40 -19 -46 0
-7 -15 -43 -34 -80 -65 -134 -67 -141 -82 -328 -8 -100 -22 -204 -30 -233 -8
-28 -14 -61 -14 -72 0 -12 -9 -39 -20 -61 -11 -22 -20 -48 -20 -58 0 -19 -72
-102 -88 -102 -23 0 -52 50 -61 107 -5 34 -14 70 -19 80 -6 10 -13 45 -17 78
-4 33 -14 72 -21 87 -8 15 -14 40 -14 55 0 39 -48 125 -89 159 -51 43 -151 42
-202 0 -65 -55 -105 -161 -128 -342 -20 -152 -46 -224 -80 -224 -20 0 -69 42
-83 71 -26 54 -68 200 -68 240 0 19 -6 58 -14 85 -8 27 -17 96 -21 154 -4 58
-13 120 -21 139 -8 18 -14 42 -14 53 0 10 -8 36 -19 56 -74 146 -99 226 -107
339 -14 215 52 337 221 409 67 29 118 29 201 0z"/>
</g>
</svg>
