<?xml version="1.0" standalone="no"?>
<!DOCTYPE svg PUBLIC "-//W3C//DTD SVG 20010904//EN"
 "http://www.w3.org/TR/2001/REC-SVG-20010904/DTD/svg10.dtd">
<svg version="1.0" xmlns="http://www.w3.org/2000/svg"
 width="166.080994pt" height="236.998292pt" viewBox="0 0 166.080994 236.998292"
 preserveAspectRatio="xMidYMid meet">
<metadata>
Created by potrace 1.16, written by Peter Selinger 2001-2019
</metadata>
<g transform="translate(-78.419087,280.998796) scale(0.100000,-0.100000)"
fill="#000000" stroke="none">
<path d="M1145 2801 c-26 -9 -69 -27 -125 -54 -49 -24 -150 -112 -150 -132 0
-7 -6 -18 -14 -24 -25 -21 -64 -153 -70 -236 -11 -146 36 -383 104 -530 10
-22 21 -51 25 -63 10 -34 63 -110 85 -122 10 -6 30 -10 44 -10 32 0 37 -9 61
-105 l20 -80 58 -31 c69 -36 82 -54 90 -117 8 -59 -3 -82 -43 -90 -52 -11 -40
-82 16 -93 66 -12 73 -72 14 -109 -54 -34 -48 -95 10 -95 57 0 66 -69 14 -116
-45 -42 -41 -63 14 -89 43 -20 62 -54 62 -111 0 -63 149 -154 252 -154 164 0
255 84 273 250 9 94 12 98 56 110 66 18 72 49 20 105 -22 24 -41 49 -41 54 0
16 30 41 49 41 23 0 61 41 61 66 0 24 -8 35 -42 57 -43 27 -37 61 15 93 76 47
81 78 20 114 -46 27 -40 49 21 80 59 31 101 96 90 143 -9 40 18 77 57 77 59 0
107 53 134 149 7 25 29 91 48 146 73 215 72 209 72 370 0 153 -17 231 -62 286
-7 8 -13 21 -13 28 0 31 -97 114 -180 154 l-85 42 -125 0 c-92 0 -136 -4 -165
-16 -159 -64 -217 -73 -287 -43 -32 13 -64 24 -72 24 -7 0 -33 9 -57 20 -45
20 -207 27 -254 11z m901 -120 c186 -22 276 -149 276 -391 1 -134 -34 -283
-109 -475 -32 -80 10 -75 -590 -75 -329 0 -541 4 -553 10 -10 5 -23 22 -29 37
-6 16 -15 35 -19 43 -71 123 -113 285 -115 435 -3 216 38 295 206 395 35 20
47 22 160 18 134 -5 124 -2 322 -99 122 -61 175 -76 219 -65 52 13 40 86 -15
86 -38 0 -49 25 -22 51 14 14 41 22 99 28 43 5 81 9 84 10 3 0 42 -3 86 -8z
m-48 -1067 c29 -20 30 -69 1 -84 -24 -13 -663 -27 -721 -16 -61 11 -91 69 -56
104 20 20 747 17 776 -4z m-130 -239 c5 -49 -28 -70 -128 -84 -169 -22 -292
-41 -301 -47 -34 -21 -75 54 -67 122 l3 29 225 5 c124 3 234 6 245 5 15 0 21
-8 23 -30z m-30 -212 c4 -44 -26 -73 -76 -73 -20 0 -53 -5 -72 -10 -19 -6 -66
-15 -105 -20 -38 -5 -90 -12 -114 -16 -52 -8 -75 11 -64 55 10 43 19 48 106
55 45 3 99 11 119 16 49 14 147 28 178 26 20 -1 26 -7 28 -33z m-30 -213 c6
-53 -56 -84 -203 -100 -38 -4 -89 -11 -111 -15 -36 -6 -43 -4 -58 16 -33 48 0
78 98 91 34 4 97 14 141 22 109 19 129 17 133 -14z m-40 -199 c19 -12 6 -93
-22 -134 -42 -63 -154 -84 -213 -41 -38 28 -75 101 -63 125 17 31 263 73 298
50z"/>
</g>
</svg>
