<?xml version="1.0" standalone="no"?>
<!DOCTYPE svg PUBLIC "-//W3C//DTD SVG 20010904//EN"
 "http://www.w3.org/TR/2001/REC-SVG-20010904/DTD/svg10.dtd">
<svg version="1.0" xmlns="http://www.w3.org/2000/svg"
 width="240.624068pt" height="165.855043pt" viewBox="0 0 240.624068 165.855043"
 preserveAspectRatio="xMidYMid meet">
<metadata>
Created by potrace 1.16, written by Peter Selinger 2001-2019
</metadata>
<g transform="translate(-42.288225,248.923861) scale(0.100000,-0.100000)"
fill="#000000" stroke="none">
<path d="M990 2480 c-55 -9 -143 -98 -161 -164 -15 -54 -7 -453 10 -484 14
-27 60 -51 114 -60 33 -6 43 -12 45 -30 l3 -22 -274 0 c-294 0 -289 1 -302
-52 -5 -19 -1 -32 14 -47 21 -21 30 -22 279 -21 141 0 263 0 270 0 16 0 16
-45 -1 -58 -7 -6 -22 -9 -34 -6 -38 10 -103 -15 -114 -43 -6 -16 -9 -126 -7
-277 l3 -251 28 -36 c63 -82 92 -94 259 -97 82 -2 160 -1 174 2 36 9 102 73
109 106 12 54 34 60 228 56 96 -2 180 -7 185 -10 6 -3 20 -26 32 -50 11 -25
38 -57 58 -73 l37 -28 165 1 c156 1 167 2 205 25 105 63 125 122 125 375 0
266 -19 304 -151 304 -40 0 -65 21 -55 45 5 14 42 15 282 15 247 -1 278 1 295
16 26 23 24 56 -4 82 -22 21 -32 22 -297 24 -237 3 -275 5 -275 18 0 10 14 17
46 20 68 8 114 37 138 85 31 61 31 408 1 470 -11 22 -19 45 -20 52 0 19 -99
101 -137 114 -25 8 -84 10 -186 7 l-149 -5 -44 -48 c-24 -27 -46 -61 -49 -76
-9 -39 -21 -42 -208 -47 -181 -4 -217 4 -217 48 0 32 -83 110 -127 121 -44 10
-228 10 -293 -1z m283 -125 l37 -26 1 -92 c2 -199 -3 -332 -11 -341 -11 -11
-346 -14 -357 -2 -4 4 -8 89 -7 189 1 277 12 292 224 296 65 1 80 -2 113 -24z
m972 3 c61 -33 62 -36 69 -248 3 -118 2 -201 -4 -210 -15 -24 -331 -28 -351
-4 -11 13 -15 61 -17 204 -5 271 -1 278 183 275 62 0 99 -6 120 -17z m-431
-164 c20 -8 24 -192 4 -212 -8 -8 -65 -12 -190 -12 l-178 0 -10 26 c-14 36
-13 177 2 192 13 13 341 18 372 6z m18 -359 c13 -51 54 -67 161 -64 51 2 98 0
105 -4 8 -6 12 -40 12 -111 0 -131 0 -131 -121 -123 -103 7 -133 -2 -155 -45
-21 -41 -38 -44 -238 -38 l-180 5 -8 31 c-11 44 -46 56 -154 55 -129 -2 -124
-7 -124 110 0 120 -1 119 135 119 87 0 98 2 115 23 11 12 31 34 45 50 l25 27
187 -2 187 -3 8 -30z m-538 -421 c12 -12 16 -39 18 -112 1 -53 2 -128 3 -167
5 -175 -9 -190 -175 -190 -177 1 -194 20 -197 220 -1 72 -3 146 -3 166 -1 20
5 50 14 68 l17 31 154 0 c126 0 156 -3 169 -16z m1006 6 c26 -16 22 -386 -5
-422 -56 -77 -315 -78 -337 -2 -12 40 -9 393 3 416 9 16 24 18 167 18 86 0
164 -5 172 -10z m-484 -91 c10 -8 14 -36 14 -105 0 -123 6 -119 -210 -116
-198 2 -194 0 -197 110 -3 112 5 120 114 124 151 5 264 0 279 -13z"/>
</g>
</svg>
