<?xml version="1.0" standalone="no"?>
<!DOCTYPE svg PUBLIC "-//W3C//DTD SVG 20010904//EN"
 "http://www.w3.org/TR/2001/REC-SVG-20010904/DTD/svg10.dtd">
<svg version="1.0" xmlns="http://www.w3.org/2000/svg"
 width="233.347112pt" height="234.509028pt" viewBox="0 0 233.347112 234.509028"
 preserveAspectRatio="xMidYMid meet">
<metadata>
Created by potrace 1.16, written by Peter Selinger 2001-2019
</metadata>
<g transform="translate(-43.037537,276.907213) scale(0.100000,-0.100000)"
fill="#000000" stroke="none">
<path d="M2502 2758 c-17 -17 -15 -36 6 -63 9 -12 24 -33 32 -45 8 -13 24 -35
36 -49 11 -14 31 -44 44 -66 13 -22 32 -50 43 -63 35 -39 12 -47 -119 -44
-172 4 -217 -11 -312 -101 -90 -85 -139 -133 -246 -245 l-78 -82 -54 0 c-34 0
-65 -6 -82 -17 -110 -68 -173 -112 -207 -145 -22 -21 -44 -38 -49 -38 -12 0
-88 -63 -156 -129 -30 -30 -95 -88 -145 -129 -49 -41 -98 -86 -108 -99 -11
-13 -56 -56 -100 -95 -45 -39 -116 -103 -157 -142 -41 -39 -102 -93 -135 -121
-87 -71 -255 -252 -271 -291 -17 -39 -18 -141 -3 -181 55 -144 262 -233 391
-167 36 19 195 182 369 380 76 86 360 396 380 414 14 13 80 91 194 229 17 20
40 47 53 59 12 12 22 26 22 32 0 5 25 46 55 90 62 91 96 175 84 205 -16 42 -3
58 198 259 l206 207 156 -2 c86 0 164 2 174 6 45 18 55 118 18 175 -10 14 -23
36 -29 50 -33 65 -72 121 -121 173 -46 48 -68 56 -89 35z m-648 -894 c17 -17
22 -69 7 -79 -6 -3 -24 -31 -42 -63 -47 -82 -98 -142 -121 -142 -30 0 -98 79
-98 112 0 23 17 41 101 108 102 82 126 92 153 64z m-295 -325 l62 -71 -37 -41
c-21 -23 -78 -87 -129 -142 -50 -55 -109 -120 -130 -145 -22 -25 -71 -79 -110
-120 -110 -118 -237 -258 -303 -336 -67 -78 -117 -124 -137 -124 -7 0 -18 -7
-25 -15 -7 -8 -22 -15 -34 -15 -47 0 -156 75 -156 107 0 8 -8 25 -17 39 -16
24 -15 28 3 62 23 43 130 154 234 241 41 34 127 111 190 171 231 218 296 278
355 326 33 27 79 69 102 92 23 23 49 42 57 42 8 0 42 -32 75 -71z"/>
</g>
</svg>
