<?xml version="1.0" standalone="no"?>
<!DOCTYPE svg PUBLIC "-//W3C//DTD SVG 20010904//EN"
 "http://www.w3.org/TR/2001/REC-SVG-20010904/DTD/svg10.dtd">
<svg version="1.0" xmlns="http://www.w3.org/2000/svg"
 width="201.273952pt" height="238.861388pt" viewBox="0 0 201.273952 238.861388"
 preserveAspectRatio="xMidYMid meet">
<metadata>
Created by potrace 1.16, written by Peter Selinger 2001-2019
</metadata>
<g transform="translate(-70.758243,296.945175) scale(0.100000,-0.100000)"
fill="#000000" stroke="none">
<path d="M1132 2944 c-71 -23 -86 -31 -167 -83 -48 -31 -111 -94 -146 -147
-100 -151 -112 -194 -111 -400 0 -130 3 -178 15 -200 8 -16 17 -46 21 -66 4
-20 13 -50 21 -65 8 -15 15 -31 15 -36 0 -6 52 -116 79 -167 58 -109 91 -229
91 -334 1 -127 41 -403 75 -516 23 -78 28 -91 58 -145 9 -16 23 -44 31 -60 16
-34 74 -97 112 -122 17 -11 48 -16 96 -17 l71 0 43 48 c25 29 45 63 49 84 4
20 13 45 21 56 8 11 14 34 14 51 0 16 6 68 14 115 8 47 22 128 30 181 39 246
120 347 204 256 24 -26 72 -138 72 -167 0 -12 7 -34 15 -50 8 -16 17 -68 21
-117 3 -48 11 -106 19 -128 7 -22 16 -64 19 -92 26 -215 193 -311 325 -188 53
50 171 270 171 319 0 9 6 29 14 44 7 15 17 56 21 92 4 36 12 74 18 85 5 11 14
97 18 192 10 216 65 453 118 506 6 6 11 18 11 27 0 8 7 25 15 36 17 25 42 91
60 159 7 28 18 63 24 78 17 44 14 266 -4 301 -8 16 -18 47 -21 70 -4 22 -11
46 -15 52 -5 6 -21 33 -35 60 -29 54 -91 135 -138 178 -34 31 -160 96 -187 96
-9 0 -30 7 -45 15 -38 20 -190 20 -258 0 -28 -8 -91 -25 -141 -39 -49 -14
-105 -31 -122 -38 -30 -11 -43 -9 -145 25 -228 75 -235 77 -315 76 -55 0 -100
-8 -151 -25z m490 -212 c113 -56 210 -102 215 -102 6 0 16 -6 22 -14 24 -28
155 -35 183 -9 50 45 -9 99 -125 114 -67 8 -71 10 -62 38 18 57 342 105 422
62 10 -5 40 -19 66 -32 27 -12 61 -32 77 -46 37 -30 128 -166 136 -201 4 -15
13 -38 22 -51 21 -35 20 -299 -1 -333 -9 -12 -19 -39 -22 -59 -10 -56 -27 -59
-279 -59 -239 0 -255 3 -243 50 8 30 -10 85 -39 119 -38 46 -103 60 -288 61
-241 1 -305 -29 -309 -146 -4 -89 12 -84 -257 -84 l-239 0 -20 25 c-69 89 -67
398 5 537 31 61 164 181 225 203 89 32 100 34 205 31 l101 -3 205 -101z m291
-589 c4 -2 7 -24 7 -48 0 -37 -4 -47 -30 -65 -34 -25 -39 -50 -10 -50 41 0 55
-105 20 -140 -25 -25 -12 -23 -208 -24 -187 -1 -179 -5 -168 96 8 77 8 78 -4
134 -20 96 -11 103 127 107 118 3 251 -1 266 -10z m560 -232 c2 -10 -6 -40
-19 -67 -13 -27 -24 -57 -24 -67 0 -11 -7 -31 -15 -45 -26 -47 -45 -162 -56
-337 -5 -93 -16 -190 -24 -215 -8 -25 -17 -67 -21 -95 -3 -27 -12 -60 -20 -72
-8 -12 -14 -30 -14 -40 0 -10 -12 -40 -25 -68 -14 -27 -25 -57 -25 -66 0 -22
-55 -106 -79 -118 -81 -44 -123 42 -151 301 -4 45 -14 103 -20 128 -35 129
-65 218 -82 239 -10 13 -18 29 -18 36 0 17 -74 83 -106 95 -105 40 -223 -32
-271 -165 -22 -60 -62 -247 -69 -323 -4 -37 -13 -84 -20 -106 -8 -21 -14 -56
-14 -78 0 -67 -47 -148 -85 -148 -19 0 -105 86 -105 105 0 7 -9 24 -20 38 -11
14 -20 34 -20 44 0 10 -7 28 -15 40 -13 19 -29 77 -56 211 -5 23 -13 104 -19
180 -20 259 -42 370 -96 474 -8 14 -14 33 -14 42 0 8 -10 24 -21 35 -49 46
-28 51 214 51 l224 0 6 -67 c5 -63 8 -70 46 -106 l41 -38 239 3 c222 3 240 4
261 23 35 31 53 75 54 130 l1 50 205 5 c113 3 210 7 216 8 7 1 14 -6 17 -17z"/>
</g>
</svg>
