<?xml version="1.0" standalone="no"?>
<!DOCTYPE svg PUBLIC "-//W3C//DTD SVG 20010904//EN"
 "http://www.w3.org/TR/2001/REC-SVG-20010904/DTD/svg10.dtd">
<svg version="1.0" xmlns="http://www.w3.org/2000/svg"
 width="241.940075pt" height="238.634617pt" viewBox="0 0 241.940075 238.634617"
 preserveAspectRatio="xMidYMid meet">
<metadata>
Created by potrace 1.16, written by Peter Selinger 2001-2019
</metadata>
<g transform="translate(-41.586214,280.936822) scale(0.100000,-0.100000)"
fill="#000000" stroke="none">
<path d="M763 2781 c-46 -16 -103 -44 -132 -66 -53 -40 -161 -168 -161 -190 0
-7 -6 -18 -13 -24 -54 -44 -55 -445 -2 -511 7 -8 16 -26 20 -40 4 -14 13 -32
20 -40 11 -14 24 -41 74 -152 29 -66 50 -172 57 -293 10 -180 38 -351 69 -420
42 -95 59 -126 98 -177 51 -67 106 -108 148 -108 39 0 100 41 121 82 43 87 58
127 58 159 0 19 7 59 15 89 8 30 19 93 25 140 22 176 57 241 80 148 24 -95 44
-131 129 -238 39 -50 163 -150 184 -150 32 0 261 -227 276 -273 6 -18 91 -117
133 -154 162 -148 367 -186 408 -77 19 48 4 161 -28 219 -6 11 -25 49 -42 85
-18 36 -38 76 -46 90 -7 14 -14 37 -14 52 0 15 -5 39 -12 52 -13 30 11 66 44
66 19 0 148 -125 263 -255 69 -78 109 -99 174 -92 56 6 104 53 122 119 16 60
-15 273 -49 333 -6 11 -25 49 -42 85 -17 36 -34 72 -39 80 -5 8 -25 50 -45 93
-38 81 -40 90 -77 292 -20 111 -33 148 -91 261 -21 38 -135 154 -153 154 -7 0
-23 8 -36 18 -13 11 -46 24 -73 31 -99 24 -106 32 -106 114 0 142 -81 316
-188 405 -120 100 -288 144 -412 107 -30 -9 -71 -20 -90 -25 -19 -5 -53 -15
-75 -24 -55 -21 -137 -20 -193 3 -172 69 -268 77 -399 32z m262 -117 c49 -16
120 -47 145 -63 45 -29 140 -80 161 -86 13 -4 31 -14 40 -21 29 -25 140 -30
168 -7 49 40 7 92 -86 108 -85 14 -65 44 46 70 144 33 272 8 352 -68 44 -42
96 -111 104 -137 4 -14 13 -32 21 -40 19 -22 30 -199 15 -228 -6 -12 -17 -22
-24 -22 -24 0 -123 -82 -213 -176 -93 -98 -119 -113 -199 -114 -32 0 -93 -28
-162 -73 -40 -25 -123 -118 -123 -137 0 -21 -56 -90 -80 -99 -15 -5 -39 -24
-52 -43 -44 -58 -107 -287 -108 -390 0 -75 -60 -248 -85 -248 -18 0 -105 98
-105 119 0 5 -6 25 -14 43 -25 59 -54 162 -61 218 -4 30 -13 82 -21 115 -7 33
-14 108 -14 167 0 66 -6 124 -14 150 -8 24 -20 63 -26 88 -7 25 -18 52 -25 60
-7 8 -16 26 -20 40 -4 14 -13 32 -20 40 -8 8 -16 27 -20 42 -4 15 -13 32 -21
39 -8 6 -14 22 -14 36 0 13 -8 38 -17 56 -31 59 -30 228 1 311 51 134 136 217
266 260 34 11 162 5 205 -10z m1198 -619 c102 -59 192 -176 212 -275 4 -19 13
-46 20 -60 7 -14 15 -65 17 -115 3 -56 12 -105 23 -130 10 -22 29 -65 42 -95
14 -30 29 -62 34 -70 5 -8 14 -26 19 -40 6 -14 14 -32 20 -40 58 -88 93 -204
94 -305 1 -86 0 -90 -21 -93 -17 -3 -29 7 -50 39 -15 23 -84 99 -153 169 -113
115 -130 128 -176 139 -89 21 -155 -7 -185 -79 -16 -37 -1 -186 22 -229 10
-20 19 -43 19 -52 0 -9 6 -22 14 -28 8 -7 17 -27 20 -46 4 -18 11 -35 17 -37
12 -4 48 -103 49 -135 1 -106 -251 88 -392 302 -44 66 -97 120 -162 164 -188
127 -264 196 -311 284 -49 93 -51 237 -5 312 30 48 78 95 98 95 9 0 23 7 33
16 10 9 50 20 95 25 43 6 81 12 85 15 4 2 61 8 126 13 109 8 119 11 140 36 50
58 15 113 -61 97 -28 -6 -49 -6 -52 -1 -7 12 93 106 121 115 11 4 27 12 35 19
37 32 151 27 213 -10z"/>
</g>
</svg>
