<?xml version="1.0" standalone="no"?>
<!DOCTYPE svg PUBLIC "-//W3C//DTD SVG 20010904//EN"
 "http://www.w3.org/TR/2001/REC-SVG-20010904/DTD/svg10.dtd">
<svg version="1.0" xmlns="http://www.w3.org/2000/svg"
 width="241.125520pt" height="211.959790pt" viewBox="0 0 241.125520 211.959790"
 preserveAspectRatio="xMidYMid meet">
<metadata>
Created by potrace 1.16, written by Peter Selinger 2001-2019
</metadata>
<g transform="translate(-44.374480,271.959790) scale(0.100000,-0.100000)"
fill="#000000" stroke="none">
<path d="M2140 2706 c-20 -8 -56 -17 -80 -21 -25 -4 -61 -16 -80 -26 -19 -11
-44 -19 -55 -19 -11 0 -29 -6 -40 -14 -11 -7 -36 -17 -55 -21 -19 -4 -39 -11
-45 -15 -5 -4 -32 -15 -60 -24 -98 -30 -170 -58 -185 -70 -8 -7 -40 -25 -70
-40 -30 -15 -73 -38 -95 -51 -22 -13 -47 -27 -55 -31 -8 -3 -51 -23 -95 -44
-44 -20 -91 -41 -105 -45 -14 -4 -43 -22 -65 -40 -22 -17 -66 -47 -98 -66
-157 -91 -233 -146 -320 -229 -91 -87 -145 -171 -174 -273 -18 -64 -27 -505
-12 -587 25 -133 29 -143 97 -265 18 -33 128 -133 165 -150 18 -8 39 -19 47
-24 70 -42 124 -51 303 -51 176 0 178 0 235 29 59 30 152 134 152 170 0 9 7
27 16 40 28 40 25 258 -4 296 -12 15 -22 33 -22 39 0 15 -56 76 -69 76 -6 0
-15 10 -22 21 -16 30 -4 35 104 43 50 4 102 13 116 21 14 7 49 23 76 35 58 25
163 76 185 90 26 16 207 100 216 100 4 0 15 6 23 14 34 29 58 28 92 -4 147
-136 223 -140 434 -20 81 46 192 160 230 235 l30 60 -1 215 c-1 214 -1 216
-33 318 -18 56 -47 124 -64 149 -30 44 -109 111 -133 112 -6 1 -22 10 -36 20
-13 11 -41 23 -63 27 -21 4 -50 13 -64 20 -35 18 -272 18 -321 0z m282 -112
c38 -3 72 -12 79 -20 6 -8 17 -14 23 -14 40 -1 135 -88 170 -158 35 -68 71
-231 50 -220 -5 2 -26 12 -46 21 -20 9 -39 21 -43 27 -12 19 -177 12 -220 -10
-22 -11 -51 -20 -66 -20 -15 0 -32 -7 -39 -15 -19 -23 -31 -18 -85 36 -110
111 -292 156 -474 119 -100 -20 -251 -66 -261 -79 -3 -3 -30 -18 -61 -34 -32
-15 -62 -34 -69 -42 -7 -8 -19 -15 -27 -15 -32 0 -233 -216 -233 -250 0 -5 -9
-17 -19 -27 -22 -21 -40 -94 -50 -210 -8 -90 -17 -107 -67 -123 -49 -17 -46
-66 5 -92 125 -62 41 -82 -144 -34 -33 9 -75 16 -94 16 -42 0 -128 40 -160 73
-45 49 -7 182 79 281 61 70 206 189 271 224 24 12 50 29 59 37 9 8 19 15 23
15 3 0 32 17 64 38 74 48 84 54 163 96 36 19 79 41 95 50 17 9 35 16 41 16 6
0 17 6 23 14 7 8 24 17 39 21 15 4 34 12 42 20 8 7 26 16 40 20 14 4 32 13 40
20 8 7 40 23 70 35 30 12 80 32 110 45 30 12 87 33 125 45 39 13 88 31 110 40
96 43 127 52 196 60 73 8 107 7 241 -6z m-349 -395 c162 -81 201 -198 118
-348 -31 -57 -123 -149 -167 -167 -18 -8 -35 -18 -38 -22 -3 -5 -54 -30 -113
-56 -59 -26 -115 -51 -123 -56 -48 -29 -136 -70 -150 -70 -9 0 -22 -6 -28 -12
-21 -21 -142 -51 -207 -51 -152 -1 -233 81 -222 226 6 81 21 143 39 165 8 9
27 40 43 67 48 85 210 235 254 235 5 0 19 8 32 18 27 20 99 51 179 77 136 44
287 42 383 -6z m602 -108 c101 -87 102 -199 2 -323 -78 -97 -287 -219 -341
-198 -37 14 -106 84 -106 108 0 25 20 72 31 72 31 0 89 164 89 252 0 52 3 59
28 75 15 10 30 22 34 27 24 35 219 26 263 -13z m-1530 -721 c10 -11 26 -20 35
-20 25 0 42 -21 29 -37 -7 -7 -18 -13 -26 -13 -17 0 -73 59 -73 77 0 19 14 16
35 -7z m-336 -30 c24 -11 54 -20 67 -20 38 0 120 -20 139 -34 17 -12 17 -17 0
-101 -24 -124 -17 -305 16 -393 31 -82 26 -87 -87 -74 -129 14 -262 94 -312
188 -80 152 -91 308 -27 378 18 20 42 36 53 36 12 0 24 5 27 11 20 31 67 34
124 9z m505 -179 c99 -91 86 -248 -34 -403 -73 -95 -193 102 -176 289 6 74 15
94 53 118 59 39 111 38 157 -4z"/>
</g>
</svg>
