<?xml version="1.0" standalone="no"?>
<!DOCTYPE svg PUBLIC "-//W3C//DTD SVG 20010904//EN"
 "http://www.w3.org/TR/2001/REC-SVG-20010904/DTD/svg10.dtd">
<svg version="1.0" xmlns="http://www.w3.org/2000/svg"
 width="227.196857pt" height="237.267414pt" viewBox="0 0 227.196857 237.267414"
 preserveAspectRatio="xMidYMid meet">
<metadata>
Created by potrace 1.16, written by Peter Selinger 2001-2019
</metadata>
<g transform="translate(-47.538381,281.267414) scale(0.100000,-0.100000)"
fill="#000000" stroke="none">
<path d="M2504 2810 c-36 -14 -39 -48 -9 -115 15 -33 38 -102 60 -179 8 -27
19 -54 24 -59 6 -6 11 -18 11 -28 0 -9 11 -51 24 -93 35 -110 29 -122 -66
-130 -40 -4 -104 -13 -143 -21 -38 -8 -106 -18 -150 -24 -150 -18 -212 -45
-272 -119 -13 -15 -37 -44 -54 -64 -30 -37 -70 -50 -84 -28 -8 13 -112 13
-120 1 -3 -6 -56 -44 -119 -85 -62 -41 -137 -99 -167 -128 -30 -29 -79 -73
-109 -97 -30 -25 -91 -79 -135 -121 -44 -43 -116 -108 -160 -145 -44 -38 -81
-72 -83 -76 -3 -7 -141 -130 -299 -266 -147 -127 -177 -178 -178 -303 0 -168
120 -290 286 -290 64 0 72 3 127 41 68 46 139 111 165 152 10 15 68 81 130
146 61 66 166 179 232 251 135 148 223 240 275 286 19 17 49 51 67 75 17 24
57 73 88 109 69 79 108 136 136 197 21 45 21 66 4 149 -6 29 -2 36 60 90 96
85 130 104 192 104 28 0 64 5 80 11 15 6 80 18 143 25 276 32 318 70 271 247
-11 39 -27 89 -35 109 -9 21 -16 48 -16 61 0 13 -4 27 -10 33 -10 10 -43 98
-63 170 -7 23 -17 47 -23 55 -6 8 -14 22 -17 31 -8 24 -38 37 -63 28z m-656
-1004 c41 -43 40 -63 -6 -123 -20 -26 -45 -60 -55 -75 -10 -16 -26 -28 -36
-28 -10 0 -27 12 -37 28 -10 15 -35 44 -56 65 -50 50 -47 60 37 118 83 58 108
61 153 15z m-298 -174 c0 -4 27 -36 60 -71 33 -35 60 -70 60 -78 0 -8 -24 -38
-54 -67 -29 -29 -95 -100 -146 -157 -51 -57 -122 -133 -159 -169 -37 -36 -83
-85 -103 -110 -20 -25 -58 -67 -84 -95 -27 -27 -87 -93 -133 -145 -47 -52 -96
-104 -109 -115 -13 -11 -35 -30 -48 -41 -114 -100 -303 60 -241 203 14 33 177
193 402 394 83 74 186 168 230 210 44 43 104 97 133 120 30 24 72 63 95 85 38
38 97 59 97 36z"/>
</g>
</svg>
