<?xml version="1.0" standalone="no"?>
<!DOCTYPE svg PUBLIC "-//W3C//DTD SVG 20010904//EN"
 "http://www.w3.org/TR/2001/REC-SVG-20010904/DTD/svg10.dtd">
<svg version="1.0" xmlns="http://www.w3.org/2000/svg"
 width="317.522825pt" height="340.204808pt" viewBox="0 0 317.522825 340.204808"
 preserveAspectRatio="xMidYMid meet">
<metadata>
Created by potrace 1.16, written by Peter Selinger 2001-2019
</metadata>
<g transform="translate(-51.029531,380.091557) scale(0.100000,-0.100000)"
fill="#000000" stroke="none">
<path d="M517 3794 c-10 -10 -8 -156 2 -172 5 -8 17 -12 27 -10 30 5 29 182
-1 186 -12 2 -24 0 -28 -4z"/>
<path d="M643 3788 c-14 -17 -10 -155 4 -169 7 -7 19 -9 28 -5 23 9 18 179 -6
184 -9 1 -21 -3 -26 -10z"/>
<path d="M757 3794 c-4 -4 -7 -39 -7 -79 0 -78 15 -113 44 -102 28 11 19 181
-9 185 -12 2 -24 0 -28 -4z"/>
<path d="M870 3781 c-47 -89 54 -210 139 -166 43 22 46 71 4 61 -50 -13 -65
-11 -77 7 -14 22 5 37 46 37 67 0 100 39 62 71 -14 11 -21 10 -46 -4 -36 -21
-52 -21 -68 -2 -17 21 -47 19 -60 -4z"/>
<path d="M1114 3785 c-7 -17 28 -51 69 -66 30 -12 37 -43 11 -53 -9 -3 -28 1
-44 10 -30 19 -60 13 -60 -10 0 -20 68 -66 98 -66 24 0 92 58 92 79 0 15 -79
91 -95 91 -7 0 -18 7 -25 15 -16 19 -39 19 -46 0z"/>
<path d="M1320 3780 c0 -12 10 -25 23 -30 12 -6 29 -14 37 -19 8 -5 23 -12 33
-15 22 -7 22 -45 1 -53 -9 -3 -24 -1 -33 5 -31 23 -43 25 -59 9 -19 -20 0 -47
50 -68 54 -22 130 38 111 88 -9 24 -61 73 -77 73 -8 0 -19 7 -26 15 -19 23
-60 19 -60 -5z"/>
<path d="M1775 3787 c-48 -36 14 -187 71 -173 32 8 53 -20 31 -41 -14 -14 -22
-15 -53 -5 -56 17 -71 -1 -34 -38 22 -22 87 -27 120 -10 41 22 67 250 30 270
-28 15 -49 -7 -47 -50 2 -67 -44 -90 -73 -36 -9 18 -9 28 0 45 20 38 -10 63
-45 38z"/>
<path d="M2017 3787 c-28 -20 -13 -119 25 -159 25 -27 33 -30 66 -25 68 12 82
62 17 62 -25 0 -41 6 -49 18 -14 22 5 37 47 37 60 0 91 46 47 70 -16 8 -27 7
-49 -6 -27 -16 -30 -16 -52 0 -28 19 -30 19 -52 3z"/>
<path d="M2402 3788 c-13 -13 -17 -116 -4 -133 16 -23 73 -55 96 -55 13 0 38
12 56 26 30 26 31 29 28 98 -3 68 -4 71 -28 71 -21 0 -25 -5 -28 -35 -5 -77
-12 -100 -31 -100 -29 0 -40 21 -43 80 -3 57 -20 74 -46 48z"/>
<path d="M2643 3788 c-6 -7 -10 -42 -9 -77 2 -73 37 -119 79 -105 12 4 40 8
62 8 l40 1 0 90 c0 89 0 90 -25 90 -23 0 -25 -4 -30 -57 -10 -106 -61 -107
-70 -2 -5 60 -24 81 -47 52z"/>
<path d="M3032 3788 c-17 -21 -8 -146 12 -166 30 -30 47 8 44 98 -3 67 -5 75
-24 78 -11 2 -26 -3 -32 -10z"/>
<path d="M3155 3787 c-3 -7 -5 -49 -3 -93 3 -71 5 -79 23 -79 29 0 31 178 2
183 -9 2 -19 -3 -22 -11z"/>
<path d="M3273 3793 c-20 -7 -18 -157 2 -173 32 -26 46 5 43 94 -3 82 -10 94
-45 79z"/>
<path d="M3395 3787 c-3 -7 -5 -49 -3 -93 3 -72 5 -79 24 -82 27 -4 31 13 24
108 -4 61 -8 75 -23 78 -9 2 -19 -3 -22 -11z"/>
<path d="M3503 3793 c-8 -3 -13 -25 -13 -60 0 -61 39 -115 93 -128 51 -13 125
56 87 80 -6 4 -22 -1 -37 -10 -20 -14 -30 -15 -50 -6 -34 16 -27 45 12 49 55
5 74 12 85 31 21 40 -21 71 -50 36 -16 -19 -49 -19 -74 0 -20 15 -32 17 -53 8z"/>
<path d="M1645 3781 c-3 -6 -16 -11 -28 -11 -24 0 -87 -68 -87 -93 0 -8 10
-27 22 -42 20 -26 24 -27 82 -20 73 8 71 5 71 97 0 72 -1 73 -27 76 -14 2 -29
-2 -33 -7z m5 -79 c0 -18 -18 -42 -32 -42 -12 0 -30 39 -23 50 11 18 55 12 55
-8z"/>
<path d="M2886 3774 c-8 -20 3 -112 16 -136 14 -28 45 -40 68 -28 22 12 16 33
-19 74 -9 10 -16 36 -16 60 0 45 -35 66 -49 30z"/>
<path d="M2250 3766 c-18 -22 5 -48 39 -44 20 2 26 9 26 28 0 30 -44 41 -65
16z"/>
<path d="M3089 3150 c-26 -4 -56 -13 -67 -19 -11 -6 -29 -11 -39 -11 -23 -1
-190 -152 -270 -245 -33 -38 -99 -105 -146 -148 -78 -71 -89 -78 -124 -76 -53
3 -98 -19 -171 -84 -34 -31 -77 -64 -95 -73 -17 -9 -43 -25 -56 -35 -13 -11
-32 -19 -43 -19 -11 0 -39 -16 -62 -35 -24 -19 -48 -35 -54 -35 -37 0 -280
-237 -518 -505 -139 -156 -167 -187 -258 -283 -48 -52 -94 -102 -102 -111 -7
-9 -57 -70 -111 -135 l-98 -120 0 -95 0 -96 53 -65 c112 -139 246 -230 338
-230 49 0 115 32 175 86 81 71 582 575 681 684 47 52 109 120 138 150 119 126
175 201 219 296 11 23 24 45 30 48 6 4 11 17 11 29 0 37 57 144 89 168 55 40
111 133 111 184 0 24 4 47 10 50 5 3 42 43 82 88 223 255 287 311 353 308 137
-5 217 145 135 256 -28 38 -117 85 -153 82 -7 -1 -33 -5 -58 -9z m112 -120
c22 -12 27 -78 7 -98 -7 -7 -38 -12 -69 -12 -37 0 -61 -5 -69 -15 -6 -8 -20
-17 -30 -20 -23 -7 -258 -240 -323 -320 -26 -33 -55 -64 -64 -68 -19 -11 -88
42 -88 67 0 18 129 161 289 319 86 86 150 135 191 149 32 10 135 9 156 -2z
m-705 -545 c36 -36 77 -73 90 -81 13 -9 24 -23 24 -31 0 -18 -38 -73 -50 -73
-13 0 -200 187 -200 200 0 8 56 50 67 50 2 0 32 -29 69 -65z m-204 -86 c60
-31 188 -159 188 -188 0 -21 -33 -102 -61 -151 -5 -8 -14 -26 -19 -40 -6 -14
-14 -32 -20 -40 -5 -8 -21 -37 -35 -65 -34 -68 -156 -202 -580 -638 -143 -147
-268 -270 -277 -273 -23 -7 -100 57 -236 198 -137 141 -137 142 -49 236 61 67
178 199 331 376 137 159 366 390 426 430 43 28 158 102 225 144 60 38 55 37
107 11z m-1076 -1289 c84 -82 157 -150 162 -150 6 0 13 -7 16 -16 7 -17 -10
-54 -24 -54 -5 0 -31 -13 -57 -30 -26 -16 -57 -30 -69 -30 -72 0 -274 212
-274 287 0 47 59 141 89 143 2 0 73 -67 157 -150z"/>
<path d="M1977 2177 c-78 -61 -131 -114 -249 -246 -158 -178 -158 -182 -67
-268 34 -32 81 -77 105 -100 51 -49 82 -60 124 -43 31 13 172 155 242 244 22
28 65 77 94 109 33 35 54 67 54 81 0 28 -130 171 -196 216 -53 36 -70 37 -107
7z m105 -131 c41 -32 98 -96 98 -111 0 -6 -95 -107 -212 -226 -21 -21 -38 -43
-38 -49 0 -16 -51 -60 -70 -60 -9 0 -34 19 -56 43 -22 23 -56 56 -77 74 -20
17 -37 37 -37 43 0 6 49 62 109 123 60 62 126 131 147 154 49 53 76 54 136 9z"/>
<path d="M1997 2008 c-9 -7 -19 -25 -22 -40 -6 -24 -4 -27 22 -30 22 -2 29 -9
31 -30 4 -33 23 -41 51 -22 32 23 26 54 -20 96 -47 44 -41 41 -62 26z"/>
<path d="M1880 1903 c0 -22 88 -115 103 -110 32 10 30 36 -6 70 -20 19 -37 39
-37 46 0 6 -13 11 -30 11 -22 0 -30 -5 -30 -17z"/>
<path d="M1802 1808 c-19 -19 -14 -36 17 -52 16 -9 31 -25 34 -36 9 -34 61
-24 65 13 2 15 -1 27 -7 27 -6 0 -26 14 -44 30 -38 33 -47 36 -65 18z"/>
<path d="M1445 1552 c-83 -51 -103 -120 -59 -206 71 -139 226 -140 283 -1 34
81 24 130 -34 184 -41 38 -49 41 -102 41 -39 0 -68 -6 -88 -18z m124 -67 c36
-18 43 -37 35 -93 -15 -99 -76 -109 -139 -23 -36 49 -33 86 8 111 38 24 59 25
96 5z"/>
<path d="M2360 610 c-6 -11 -9 -60 -8 -112 3 -82 5 -93 22 -96 28 -6 36 15 36
106 0 107 -23 153 -50 102z"/>
<path d="M1644 605 c-8 -21 2 -45 19 -45 25 0 41 28 27 45 -7 8 -19 15 -27 15
-7 0 -16 -7 -19 -15z"/>
<path d="M2474 605 c-10 -25 4 -47 28 -43 36 5 39 58 3 58 -14 0 -28 -7 -31
-15z"/>
<path d="M2836 603 c-9 -30 1 -184 12 -195 18 -18 42 -1 42 31 0 16 6 31 13
34 24 8 47 -5 47 -28 0 -31 27 -52 48 -38 12 7 16 22 15 48 -4 54 -27 75 -80
75 -41 0 -43 1 -43 29 0 56 -40 89 -54 44z"/>
<path d="M3074 559 c-10 -20 -13 -42 -9 -58 3 -14 9 -42 13 -61 10 -46 45 -50
50 -5 2 16 12 35 23 43 22 16 25 40 5 48 -8 3 -19 19 -25 35 -13 38 -36 37
-57 -2z"/>
<path d="M1054 507 c-38 -33 -41 -102 -4 -102 20 0 26 6 30 30 6 36 41 46 70
20 40 -36 56 17 17 53 -31 29 -78 28 -113 -1z"/>
<path d="M1274 522 c-20 -13 -28 -108 -10 -115 29 -11 43 4 50 50 8 57 -10 85
-40 65z"/>
<path d="M1371 516 c-7 -8 -11 -36 -9 -63 3 -44 5 -48 28 -48 22 0 25 5 28 39
6 74 -17 109 -47 72z"/>
<path d="M1525 521 c-43 -6 -41 -4 -37 -81 3 -46 38 -40 85 16 32 36 37 47 27
59 -7 8 -18 14 -24 14 -6 -1 -29 -5 -51 -8z"/>
<path d="M1788 518 c-24 -19 -35 -103 -14 -111 23 -9 44 2 52 26 16 53 54 53
54 0 0 -31 29 -42 46 -18 18 25 18 65 -2 93 -18 25 -107 32 -136 10z"/>
<path d="M2029 520 c-19 -11 -44 -83 -36 -104 13 -34 61 -14 68 28 10 50 58
42 59 -10 0 -24 21 -37 45 -28 24 10 21 100 -4 114 -24 12 -110 13 -132 0z"/>
<path d="M2631 517 c-25 -12 -52 -72 -43 -94 9 -27 49 -14 56 18 8 39 57 40
66 0 8 -33 34 -49 54 -32 20 17 12 90 -12 109 -20 15 -90 15 -121 -1z"/>
<path d="M1643 508 c-14 -18 -4 -98 13 -105 24 -9 44 17 44 56 0 52 -33 80
-57 49z"/>
<path d="M2474 507 c-3 -8 -4 -34 -2 -58 3 -39 6 -44 28 -44 24 0 25 3 25 55
0 49 -2 55 -23 58 -12 2 -24 -3 -28 -11z"/>
</g>
</svg>
