<?xml version="1.0" standalone="no"?>
<!DOCTYPE svg PUBLIC "-//W3C//DTD SVG 20010904//EN"
 "http://www.w3.org/TR/2001/REC-SVG-20010904/DTD/svg10.dtd">
<svg version="1.0" xmlns="http://www.w3.org/2000/svg"
 width="125.348830pt" height="240.514745pt" viewBox="0 0 125.348830 240.514745"
 preserveAspectRatio="xMidYMid meet">
<metadata>
Created by potrace 1.16, written by Peter Selinger 2001-2019
</metadata>
<g transform="translate(-102.690552,284.515687) scale(0.100000,-0.100000)"
fill="#000000" stroke="none">
<path d="M1507 2841 c-37 -4 -73 -13 -79 -19 -7 -7 -28 -12 -49 -12 -21 0 -47
-8 -62 -20 -14 -11 -33 -20 -44 -20 -17 0 -54 -22 -145 -85 -90 -62 -130 -220
-78 -310 39 -67 72 -117 126 -185 59 -76 119 -166 140 -212 9 -18 26 -51 39
-73 29 -48 45 -82 45 -97 0 -6 8 -20 18 -31 23 -26 22 -412 -2 -590 -22 -160
-23 -534 -1 -563 8 -10 15 -25 15 -32 0 -8 17 -34 37 -59 111 -135 307 -121
388 27 l30 55 3 224 c2 148 -2 279 -12 390 -36 384 -31 496 28 626 13 27 26
57 29 65 4 8 33 53 66 100 162 228 226 324 246 367 8 17 19 34 25 38 19 12 11
94 -14 144 -25 48 -113 137 -164 165 -71 39 -158 76 -179 76 -11 0 -36 6 -54
14 -41 17 -256 27 -352 17z m348 -138 c22 -8 54 -18 70 -23 65 -18 171 -86
205 -133 33 -44 31 -91 -5 -146 -17 -24 -37 -55 -45 -69 -8 -14 -23 -34 -32
-44 -10 -10 -18 -22 -18 -28 0 -11 -41 -72 -63 -95 -120 -120 -203 -306 -221
-495 -6 -60 7 -378 24 -590 33 -417 6 -520 -137 -520 -46 0 -50 3 -88 59 l-30
44 3 171 c2 176 15 359 32 481 15 110 13 401 -4 433 -7 15 -16 43 -20 62 -3
19 -12 49 -20 65 -8 17 -19 41 -25 55 -6 14 -22 43 -36 65 -13 22 -27 47 -31
55 -4 8 -17 28 -28 45 -55 78 -70 123 -35 104 25 -13 82 -4 99 16 6 7 26 17
43 21 18 3 41 13 52 20 28 20 188 19 205 -1 7 -8 19 -15 28 -15 8 0 39 -16 68
-35 64 -42 65 -42 92 -5 40 54 23 86 -63 123 -11 4 -26 14 -35 21 -41 35 -220
51 -315 27 -83 -21 -199 -83 -218 -117 -18 -32 -43 -12 -104 86 -55 86 -71
130 -63 167 10 42 80 118 118 128 14 3 37 15 50 26 14 10 34 19 46 19 12 0 32
7 45 16 49 35 369 39 456 7z"/>
<path d="M1492 2601 c-23 -4 -48 -13 -54 -19 -7 -7 -21 -12 -33 -12 -12 0 -36
-11 -55 -25 -19 -14 -37 -25 -41 -25 -17 0 -79 -46 -84 -63 -4 -10 1 -29 10
-43 19 -29 61 -26 104 7 13 11 31 19 39 19 9 0 24 7 34 17 10 9 37 20 61 24
23 4 62 13 87 19 76 20 268 -7 309 -44 9 -7 27 -17 41 -21 14 -4 32 -13 40
-21 44 -38 120 -28 120 15 0 24 -55 79 -97 97 -17 8 -34 18 -38 24 -3 5 -16
10 -28 10 -12 0 -40 10 -62 21 -44 24 -263 36 -353 20z"/>
<path d="M1596 809 c-35 -41 -33 -71 5 -103 40 -34 59 -33 94 4 28 29 28 32
16 68 -26 73 -70 85 -115 31z"/>
</g>
</svg>
