<?xml version="1.0" standalone="no"?>
<!DOCTYPE svg PUBLIC "-//W3C//DTD SVG 20010904//EN"
 "http://www.w3.org/TR/2001/REC-SVG-20010904/DTD/svg10.dtd">
<svg version="1.0" xmlns="http://www.w3.org/2000/svg"
 width="243.040597pt" height="153.337389pt" viewBox="0 0 243.040597 153.337389"
 preserveAspectRatio="xMidYMid meet">
<metadata>
Created by potrace 1.16, written by Peter Selinger 2001-2019
</metadata>
<g transform="translate(-45.005560,244.869092) scale(0.100000,-0.100000)"
fill="#000000" stroke="none">
<path d="M765 2442 c-11 -2 -28 -11 -37 -19 -10 -9 -34 -19 -55 -24 -159 -33
-223 -105 -223 -247 0 -111 59 -238 141 -304 37 -30 38 -31 38 -102 0 -52 6
-89 24 -136 23 -59 38 -88 91 -175 31 -50 83 -77 151 -80 33 -2 63 -3 68 -4 4
-1 7 -10 7 -21 0 -73 89 -200 187 -268 58 -39 209 -112 233 -112 11 0 35 -7
53 -16 47 -25 367 -25 414 -1 18 10 44 17 58 17 31 0 210 85 270 127 45 33
119 131 136 183 22 65 48 93 81 86 61 -12 150 50 215 149 14 22 34 51 43 65
23 35 34 91 35 182 l0 76 55 55 c31 30 66 77 78 104 13 26 30 60 38 75 19 35
20 201 1 220 -8 7 -19 22 -24 33 -15 27 -165 105 -201 105 -16 0 -35 6 -41 14
-15 18 -108 31 -155 22 -43 -8 -120 -80 -130 -122 -4 -16 -14 -36 -21 -44 -13
-14 -24 -60 -44 -182 -6 -37 -18 -58 -54 -97 -26 -28 -47 -57 -47 -65 0 -14
-30 -82 -51 -116 -5 -8 -14 -26 -20 -40 -6 -14 -18 -38 -27 -54 -24 -46 -28
-155 -7 -195 l17 -34 -63 -59 c-81 -77 -121 -102 -200 -124 -95 -26 -143 -28
-199 -10 -27 9 -59 16 -72 16 -46 0 -148 58 -204 117 -60 64 -72 92 -55 129
25 56 4 172 -53 279 -9 17 -16 35 -16 42 0 18 -54 95 -89 126 -17 15 -32 33
-33 40 0 6 -2 23 -4 37 -19 174 -91 317 -178 350 -23 8 -94 10 -131 2z m113
-122 c17 -11 32 -28 32 -38 0 -10 9 -43 19 -73 11 -30 23 -78 27 -107 6 -50 6
-51 -22 -58 -16 -4 -40 -15 -53 -26 -13 -10 -32 -18 -41 -18 -10 0 -23 -7 -30
-15 -7 -8 -18 -15 -24 -15 -6 0 -28 -9 -49 -20 -20 -11 -45 -20 -54 -20 -16 0
-73 59 -73 75 0 4 -9 19 -19 34 -13 18 -22 53 -27 102 l-6 75 36 32 c20 18 46
32 57 32 11 0 37 9 57 19 32 17 92 35 127 40 6 0 25 -8 43 -19z m1690 -1 c18
-4 43 -14 57 -23 13 -9 32 -16 42 -16 37 0 90 -49 97 -89 8 -50 -8 -132 -27
-143 -9 -4 -18 -22 -22 -38 -4 -17 -11 -30 -16 -30 -5 0 -15 -11 -21 -25 -14
-31 -59 -34 -95 -5 -14 11 -33 20 -42 20 -9 0 -25 6 -36 14 -11 7 -33 16 -49
20 -16 4 -44 18 -62 32 -31 24 -33 28 -27 77 3 29 12 62 19 74 8 12 14 30 14
40 0 24 50 94 75 103 11 5 29 6 40 3 11 -3 35 -9 53 -14z m-1514 -414 c14 -13
26 -30 26 -38 0 -8 7 -20 15 -27 8 -7 15 -22 15 -33 0 -11 8 -38 19 -61 44
-97 51 -119 46 -137 -8 -24 -92 -89 -115 -89 -10 0 -23 -7 -30 -15 -7 -8 -17
-15 -23 -15 -6 0 -30 -9 -53 -21 -80 -38 -140 22 -199 198 -35 104 -31 129 26
168 25 18 56 36 70 40 13 4 30 13 38 19 15 12 84 33 117 35 12 0 33 -10 48
-24z m1321 8 c22 -3 47 -11 55 -19 8 -7 28 -16 44 -20 41 -10 93 -45 105 -72
40 -86 -33 -261 -138 -331 -34 -22 -37 -23 -64 -7 -16 9 -37 16 -46 16 -10 0
-29 8 -42 19 -13 10 -33 21 -44 25 -11 3 -35 19 -54 35 -43 36 -45 94 -5 179
14 31 35 77 46 102 29 63 58 93 83 85 11 -3 38 -9 60 -12z m-1172 -510 c44
-52 129 -133 140 -133 5 0 20 -9 34 -20 14 -11 34 -20 45 -20 10 0 30 -7 44
-16 67 -45 342 -44 406 0 12 9 30 16 39 16 9 0 24 9 34 20 10 11 24 20 30 20
7 0 50 39 95 86 89 95 75 90 154 47 33 -18 31 -56 -6 -103 -13 -16 -36 -47
-53 -70 -40 -56 -87 -92 -165 -124 -36 -16 -80 -34 -99 -42 -18 -8 -63 -19
-100 -24 -36 -5 -86 -12 -111 -15 -53 -8 -241 19 -273 39 -12 8 -38 17 -58 20
-21 4 -48 15 -62 26 -14 11 -30 20 -36 20 -5 0 -38 28 -73 63 -125 126 -141
170 -76 217 52 38 53 38 91 -7z"/>
<path d="M743 2200 c-35 -14 -31 -63 7 -90 30 -21 31 -21 63 -3 79 46 17 128
-70 93z"/>
<path d="M2500 2203 c-20 -8 -30 -24 -30 -51 0 -34 58 -59 98 -43 78 32 11
124 -68 94z"/>
<path d="M887 1815 c-44 -30 -46 -52 -12 -110 13 -22 35 -64 49 -92 29 -62 54
-68 98 -26 35 33 35 53 3 91 -14 17 -25 43 -25 59 0 31 -44 103 -63 103 -7 0
-29 -11 -50 -25z"/>
<path d="M2362 1798 c-12 -16 -52 -104 -52 -116 0 -5 -7 -15 -15 -22 -22 -18
-18 -53 8 -78 44 -41 76 -20 122 83 14 33 32 71 38 84 21 42 -70 86 -101 49z"/>
</g>
</svg>
