<?xml version="1.0" standalone="no"?>
<!DOCTYPE svg PUBLIC "-//W3C//DTD SVG 20010904//EN"
 "http://www.w3.org/TR/2001/REC-SVG-20010904/DTD/svg10.dtd">
<svg version="1.0" xmlns="http://www.w3.org/2000/svg"
 width="140.930651pt" height="240.733437pt" viewBox="0 0 140.930651 240.733437"
 preserveAspectRatio="xMidYMid meet">
<metadata>
Created by potrace 1.16, written by Peter Selinger 2001-2019
</metadata>
<g transform="translate(-91.050616,284.819592) scale(0.100000,-0.100000)"
fill="#000000" stroke="none">
<path d="M1363 2840 c-49 -20 -55 -46 -63 -267 -11 -280 -13 -283 -143 -283
-91 0 -142 -24 -201 -94 l-41 -48 0 -159 0 -158 39 -40 39 -40 1 -383 1 -382
-37 -41 c-47 -50 -50 -66 -46 -255 3 -150 4 -156 28 -180 68 -69 25 -65 650
-67 l565 -2 52 24 c91 41 113 89 113 253 0 145 -12 182 -75 242 l-25 23 0 360
c0 374 5 428 42 448 38 20 48 62 48 197 0 172 -17 212 -115 271 -34 21 -56 25
-152 29 -74 3 -113 8 -113 16 -3 419 -16 514 -72 535 -31 11 -467 13 -495 1z
m435 -122 c8 -7 12 -40 12 -98 0 -126 2 -124 -210 -127 -198 -3 -193 -6 -198
103 -5 89 2 123 28 132 29 11 353 2 368 -10z m-8 -368 c15 -28 12 -58 -6 -62
-9 -2 -96 -1 -193 2 l-176 5 -3 26 c-6 49 20 58 173 61 149 3 190 -3 205 -32z
m288 -186 c104 -10 117 -28 114 -156 -2 -56 -8 -107 -13 -113 -14 -14 -1103
-19 -1129 -5 -18 10 -20 21 -20 110 0 177 3 178 590 173 217 -1 423 -6 458 -9z
m21 -418 c8 -9 10 -121 9 -392 l-3 -379 -478 -5 c-263 -3 -485 -1 -493 3 -15
8 -22 765 -7 780 14 15 960 8 972 -7z m77 -897 c16 -17 20 -40 22 -130 4 -105
3 -109 -22 -134 l-25 -25 -545 0 -546 0 -16 26 c-21 31 -28 210 -10 246 17 34
25 35 592 37 529 1 531 1 550 -20z"/>
<path d="M1558 1633 c-20 -21 -43 -51 -52 -68 -9 -16 -35 -57 -59 -90 -64 -90
-85 -167 -62 -236 37 -112 109 -163 223 -160 90 2 152 30 200 89 30 38 32 46
32 119 0 79 0 79 -53 159 -96 144 -160 224 -182 224 -6 0 -27 -17 -47 -37z
m72 -146 c0 -8 20 -40 45 -71 39 -51 45 -65 45 -107 0 -74 -12 -94 -65 -111
-87 -29 -171 22 -167 101 2 36 41 131 53 131 4 0 16 16 28 35 20 35 61 49 61
22z"/>
</g>
</svg>
