<?xml version="1.0" standalone="no"?>
<!DOCTYPE svg PUBLIC "-//W3C//DTD SVG 20010904//EN"
 "http://www.w3.org/TR/2001/REC-SVG-20010904/DTD/svg10.dtd">
<svg version="1.0" xmlns="http://www.w3.org/2000/svg"
 width="241.946898pt" height="232.577219pt" viewBox="0 0 241.946898 232.577219"
 preserveAspectRatio="xMidYMid meet">
<metadata>
Created by potrace 1.16, written by Peter Selinger 2001-2019
</metadata>
<g transform="translate(-42.471188,279.945180) scale(0.100000,-0.100000)"
fill="#000000" stroke="none">
<path d="M2505 2793 c-118 -10 -179 -52 -394 -275 -101 -105 -117 -118 -147
-118 -34 0 -107 -43 -165 -96 -14 -13 -35 -24 -46 -24 -12 0 -25 -5 -28 -10
-4 -6 -22 -17 -41 -25 -20 -8 -56 -28 -80 -45 -25 -16 -49 -30 -55 -30 -5 0
-47 -29 -93 -64 -74 -57 -123 -103 -193 -185 -31 -37 -246 -275 -253 -281 -3
-3 -46 -50 -94 -105 -49 -55 -100 -111 -115 -125 -14 -14 -51 -55 -81 -90 -30
-35 -94 -105 -143 -156 -118 -123 -148 -170 -152 -237 -3 -70 3 -82 76 -158
204 -209 299 -286 364 -294 64 -8 108 22 202 139 35 45 98 115 138 156 40 41
95 104 123 139 29 35 84 98 124 139 40 42 83 89 94 104 12 16 65 75 118 131
191 202 346 392 346 423 0 5 18 36 40 69 22 33 40 67 40 75 0 9 6 24 13 35 8
11 17 35 20 54 4 18 25 56 47 84 22 27 43 62 46 76 3 14 8 37 10 51 3 15 69
88 160 179 l154 154 99 -6 c68 -5 108 -3 125 5 72 32 108 198 55 254 -56 60
-126 73 -314 57z m204 -127 c7 -8 11 -27 9 -43 l-3 -28 -110 0 c-121 -1 -155
-12 -195 -62 -51 -66 -255 -273 -268 -273 -18 0 -62 38 -62 53 0 6 28 38 63
72 34 33 100 101 147 149 131 137 143 142 306 145 77 1 104 -2 113 -13z m-685
-467 c56 -51 65 -73 46 -110 -17 -31 -49 -22 -92 24 -59 63 -71 84 -64 112 10
41 47 32 110 -26z m-153 -145 c57 -53 107 -102 112 -109 6 -12 -13 -64 -43
-115 -5 -8 -24 -44 -42 -80 -21 -41 -61 -94 -110 -144 -43 -44 -78 -82 -78
-85 0 -6 -38 -49 -153 -175 -40 -43 -76 -86 -81 -95 -5 -9 -51 -59 -101 -111
-51 -52 -123 -131 -161 -175 -38 -44 -85 -97 -106 -117 -20 -20 -44 -48 -53
-62 -30 -45 -21 -51 -271 188 -57 55 -104 105 -104 111 0 6 20 31 45 55 25 24
45 49 45 55 1 5 39 51 86 100 47 50 135 146 197 214 364 402 459 498 530 539
23 13 51 32 62 41 11 10 33 21 48 25 15 4 30 13 33 21 12 30 44 13 145 -81z
m-1100 -1226 c93 -90 169 -167 169 -172 0 -21 -45 -56 -72 -56 -22 0 -47 17
-106 73 -42 39 -84 79 -93 87 -95 89 -129 124 -134 141 -8 24 30 89 52 89 8 0
91 -73 184 -162z"/>
<path d="M1485 1828 c-35 -29 -47 -42 -98 -103 -23 -27 -65 -71 -93 -98 -75
-69 -92 -112 -65 -164 21 -43 73 -93 121 -118 43 -22 65 -8 203 132 152 154
167 175 167 231 0 111 -153 189 -235 120z m108 -109 c8 -30 -184 -234 -221
-234 -42 0 -37 22 20 82 30 32 75 84 102 116 51 62 89 75 99 36z"/>
</g>
</svg>
