<?xml version="1.0" standalone="no"?>
<!DOCTYPE svg PUBLIC "-//W3C//DTD SVG 20010904//EN"
 "http://www.w3.org/TR/2001/REC-SVG-20010904/DTD/svg10.dtd">
<svg version="1.0" xmlns="http://www.w3.org/2000/svg"
 width="332.669155pt" height="340.435411pt" viewBox="0 0 332.669155 340.435411"
 preserveAspectRatio="xMidYMid meet">
<metadata>
Created by potrace 1.16, written by Peter Selinger 2001-2019
</metadata>
<g transform="translate(-43.000000,380.267016) scale(0.100000,-0.100000)"
fill="#000000" stroke="none">
<path d="M437 3793 c-4 -3 -7 -37 -7 -75 0 -60 3 -72 25 -93 50 -51 82 -18 45
46 -15 27 -20 48 -16 65 12 47 -20 85 -47 57z"/>
<path d="M1303 3784 c-9 -24 17 -34 72 -28 91 12 87 44 -6 44 -45 0 -61 -4
-66 -16z"/>
<path d="M1513 3788 c-13 -17 -14 -90 -1 -105 26 -32 58 -9 58 43 0 21 5 24
34 24 35 0 63 21 51 40 -9 15 -130 13 -142 -2z"/>
<path d="M1752 3788 c-25 -25 -7 -128 23 -128 14 0 35 37 35 61 0 26 3 29 33
29 41 0 62 13 54 34 -8 20 -126 23 -145 4z"/>
<path d="M2025 3790 c-11 -17 15 -40 44 -40 33 0 67 23 57 38 -9 15 -93 16
-101 2z"/>
<path d="M2363 3784 c-7 -19 2 -28 22 -21 19 8 19 23 0 31 -9 3 -18 -1 -22
-10z"/>
<path d="M2623 3784 c-7 -18 14 -35 37 -31 8 1 16 12 18 25 4 27 -45 33 -55 6z"/>
<path d="M3144 3788 c-7 -11 21 -38 40 -38 22 0 39 18 33 34 -7 19 -62 22 -73
4z"/>
<path d="M3447 3786 c-7 -18 1 -26 25 -26 13 0 18 6 16 17 -4 22 -34 29 -41 9z"/>
<path d="M3603 3793 c-19 -7 -16 -21 7 -33 28 -15 60 -3 60 21 0 19 -35 25
-67 12z"/>
<path d="M2235 3781 c-3 -5 -1 -12 4 -15 13 -8 42 4 35 15 -7 12 -31 12 -39 0z"/>
<path d="M2480 3774 c0 -9 7 -14 17 -12 25 5 28 28 4 28 -12 0 -21 -6 -21 -16z"/>
<path d="M2735 3781 c-3 -5 -1 -12 5 -16 12 -7 30 2 30 16 0 12 -27 12 -35 0z"/>
<path d="M2866 3781 c-3 -5 0 -11 8 -14 15 -6 26 1 26 15 0 11 -27 10 -34 -1z"/>
<path d="M2977 3784 c-9 -10 2 -24 19 -24 8 0 14 7 14 15 0 15 -21 21 -33 9z"/>
<path d="M3327 3784 c-9 -10 2 -24 19 -24 8 0 14 7 14 15 0 15 -21 21 -33 9z"/>
<path d="M2006 3645 c-14 -13 -26 -31 -26 -39 0 -8 -8 -28 -17 -44 -16 -29
-16 -32 -1 -49 13 -14 18 -41 20 -108 3 -90 3 -90 31 -93 30 -4 30 -7 27 110
-1 48 4 74 16 93 15 24 15 27 0 44 -21 23 -21 28 10 56 22 21 25 27 14 40 -18
22 -43 19 -74 -10z"/>
<path d="M2111 3651 c-21 -13 -5 -41 23 -41 30 0 42 16 26 35 -14 17 -29 19
-49 6z"/>
<path d="M3134 3645 c-15 -38 29 -62 55 -31 9 11 8 18 -4 30 -21 20 -44 21
-51 1z"/>
<path d="M2981 3587 c-23 -47 -26 -73 -11 -82 6 -3 10 -37 10 -75 0 -77 13
-117 43 -126 34 -11 52 18 33 54 -22 42 -21 130 1 154 17 19 17 21 0 50 -9 16
-17 38 -17 49 0 37 -37 22 -59 -24z"/>
<path d="M1321 3557 c-79 -39 -86 -216 -11 -247 54 -23 150 31 134 75 -8 21
-37 19 -57 -5 -45 -52 -87 25 -57 104 12 31 36 33 66 5 25 -23 44 -18 44 11 0
22 -54 70 -78 70 -9 0 -28 -6 -41 -13z"/>
<path d="M1520 3538 c-36 -39 -47 -101 -30 -164 17 -58 41 -74 103 -67 43 5
50 9 67 44 28 54 26 116 -6 162 -43 64 -91 73 -134 25z m94 -50 c44 -62 -5
-167 -56 -121 -20 18 -22 102 -3 133 11 17 43 11 59 -12z"/>
<path d="M1797 3559 c-9 -6 -25 -8 -35 -5 -34 11 -39 -5 -33 -124 6 -114 6
-115 31 -115 24 0 25 2 28 75 3 99 8 120 31 120 31 0 40 -22 43 -110 3 -83 4
-85 28 -85 24 0 25 3 28 73 5 127 -54 210 -121 171z"/>
<path d="M2778 3541 c-31 -28 -32 -31 -16 -47 15 -16 18 -15 43 4 21 17 31 19
47 11 29 -16 18 -39 -26 -54 -41 -14 -96 -61 -96 -82 0 -7 13 -27 28 -44 28
-31 28 -31 92 -23 l65 9 3 95 c3 93 2 96 -27 128 -38 40 -70 41 -113 3z m90
-163 c2 -9 -5 -21 -16 -27 -25 -14 -58 9 -49 33 9 23 61 18 65 -6z"/>
<path d="M3270 3539 c-28 -31 -30 -39 -30 -105 0 -88 5 -103 41 -118 111 -47
195 63 138 180 -25 52 -34 60 -81 69 -34 6 -40 4 -68 -26z m96 -64 c18 -45 18
-74 -3 -97 -37 -41 -73 -15 -73 53 0 63 7 79 37 79 18 0 28 -9 39 -35z"/>
<path d="M2236 3544 c-8 -20 -8 -198 0 -218 7 -19 54 -22 55 -3 0 6 2 48 2 91
2 65 5 81 20 90 65 39 59 56 -18 56 -39 0 -54 -4 -59 -16z"/>
<path d="M2399 3549 c-6 -3 -8 -55 -7 -120 l3 -114 25 0 c24 0 25 3 30 82 4
60 10 87 22 100 28 28 41 3 46 -89 5 -89 15 -116 38 -97 10 8 14 36 14 93 0
89 8 110 36 104 17 -3 20 -15 24 -98 5 -89 6 -95 27 -98 28 -4 33 16 30 129
-1 55 -7 92 -16 102 -17 22 -59 22 -82 1 -17 -15 -21 -15 -43 -1 -23 16 -125
20 -147 6z"/>
<path d="M3482 3438 c3 -115 4 -123 23 -123 18 0 20 8 25 89 4 70 9 91 22 100
33 20 52 -14 54 -100 3 -81 10 -98 40 -92 31 5 33 177 4 218 -20 29 -25 30
-96 30 l-75 0 3 -122z"/>
<path d="M2117 3544 c-10 -10 -8 -206 2 -222 5 -8 17 -12 27 -10 30 5 29 232
-1 236 -12 2 -24 0 -28 -4z"/>
<path d="M3127 3538 c-2 -7 -4 -57 -5 -111 0 -87 2 -98 20 -108 38 -21 48 3
42 109 -6 116 -8 122 -33 122 -10 0 -21 -6 -24 -12z"/>
<path d="M2265 3136 c-101 -37 -195 -88 -218 -119 -12 -16 -56 -66 -98 -111
-79 -84 -149 -207 -149 -261 0 -38 27 -31 48 13 10 20 23 46 28 57 6 11 24 45
39 75 37 72 91 137 129 157 17 9 48 31 69 49 20 19 45 34 55 34 10 0 29 8 42
17 13 9 45 20 70 25 25 4 72 12 105 18 89 17 288 -5 326 -36 8 -7 29 -15 48
-19 56 -12 191 -124 191 -158 0 -2 20 -38 45 -79 25 -42 45 -83 45 -93 0 -10
6 -26 14 -34 17 -20 56 -133 56 -164 0 -12 7 -35 16 -52 11 -21 17 -73 21
-182 l6 -153 -38 -36 c-38 -36 -40 -36 -102 -31 -62 6 -123 37 -123 62 0 6 -9
28 -20 50 -11 22 -20 53 -20 70 0 17 -9 56 -20 88 -11 31 -20 64 -20 74 0 9
-6 35 -14 58 -7 22 -19 67 -25 100 -19 102 -52 154 -134 208 l-71 47 -93 0
c-158 0 -259 -73 -278 -203 -10 -66 6 -61 59 21 59 88 102 117 192 125 148 14
274 -107 274 -263 0 -19 6 -45 14 -56 8 -11 17 -42 22 -69 4 -28 12 -59 19
-70 7 -11 18 -47 25 -80 22 -106 32 -127 78 -171 37 -36 52 -44 83 -44 53 0
73 -9 58 -26 -6 -8 -17 -14 -25 -14 -7 0 -19 -6 -26 -12 -28 -27 -95 -68 -110
-68 -8 0 -21 -7 -28 -15 -7 -8 -28 -15 -47 -15 -19 0 -48 -8 -66 -17 -28 -16
-60 -18 -277 -16 -252 2 -311 8 -354 37 -36 23 -58 21 -54 -6 3 -25 31 -36
100 -37 40 -1 50 -5 67 -30 19 -26 25 -28 60 -24 33 5 41 2 51 -17 26 -49 -32
-70 -77 -28 -22 21 -23 21 -64 3 -33 -15 -44 -16 -60 -7 -26 17 -79 15 -79 -2
0 -7 -7 -19 -15 -26 -17 -14 -20 -50 -5 -50 6 0 15 11 20 25 13 34 61 34 102
0 16 -14 39 -25 51 -25 12 0 77 -8 145 -17 118 -16 131 -16 275 1 84 10 167
25 186 32 18 8 49 14 67 14 74 0 48 -105 -36 -147 -112 -56 -561 -53 -710 5
-59 22 -100 24 -100 4 0 -40 111 -102 182 -102 69 0 113 -72 75 -124 -13 -18
-61 -21 -299 -17 -94 1 -123 21 -156 107 -13 33 -29 72 -37 87 -8 16 -15 39
-15 52 0 12 -7 28 -15 35 -8 7 -15 20 -15 29 0 9 -7 29 -16 46 -24 46 -64 150
-64 166 0 8 -6 26 -14 40 -7 14 -16 42 -20 63 -4 20 -16 58 -28 84 -25 59 -22
256 6 312 21 43 20 48 -4 20 -11 -13 -23 -35 -26 -49 -2 -14 -10 -42 -16 -61
-7 -19 -13 -64 -15 -100 -1 -36 -5 -91 -9 -122 -7 -59 12 -135 57 -234 11 -23
19 -46 19 -51 0 -12 35 -97 56 -135 7 -14 14 -37 14 -50 0 -13 5 -29 11 -35 6
-6 21 -40 33 -74 44 -123 67 -161 116 -186 l45 -24 605 3 c596 3 606 3 638 24
35 23 63 74 107 194 15 41 35 93 45 115 17 41 54 128 75 180 26 64 47 132 55
180 5 28 16 88 24 135 9 47 16 99 16 116 0 36 20 57 44 48 25 -10 29 -43 16
-155 -7 -57 -15 -131 -19 -164 -4 -33 -15 -74 -24 -92 -9 -18 -17 -38 -17 -45
0 -13 -52 -160 -77 -218 -23 -52 -48 -111 -65 -150 -72 -169 -126 -239 -190
-248 -91 -12 -1154 -18 -1243 -6 -87 11 -132 48 -188 154 -46 87 -157 381
-157 416 0 10 -7 25 -16 35 -9 10 -20 32 -24 51 -5 18 -16 58 -25 88 -8 30
-15 79 -15 108 0 30 -9 85 -21 122 -30 101 -26 114 40 120 57 5 78 23 40 35
-11 4 -45 4 -74 0 l-52 -6 -8 -72 c-13 -121 -7 -255 16 -332 36 -120 104 -319
124 -362 8 -17 15 -40 15 -51 0 -11 7 -25 15 -32 8 -7 15 -17 15 -23 0 -32
105 -225 137 -251 99 -82 85 -78 326 -84 l217 -5 0 -74 c0 -159 64 -212 255
-213 122 0 143 9 190 82 35 55 41 71 45 138 l5 75 210 0 c209 0 211 0 244 25
75 56 123 113 157 188 20 42 42 89 50 104 8 14 14 33 14 41 0 8 8 25 19 38 10
13 21 35 24 49 8 35 60 182 92 260 19 47 28 89 31 150 11 223 28 310 59 310
30 0 37 31 40 172 4 220 -10 238 -183 238 -120 0 -126 -3 -160 -72 -16 -30
-21 -33 -70 -36 -61 -4 -78 6 -87 51 -15 74 -97 254 -160 352 -72 112 -135
154 -350 231 -80 28 -311 29 -390 0z m1310 -619 c22 -30 14 -226 -9 -243 -23
-16 -129 -12 -151 6 -18 15 -21 209 -4 242 15 27 143 23 164 -5z m-271 -90
c24 -18 19 -80 -7 -85 -45 -9 -104 38 -91 72 5 13 17 17 70 25 5 0 18 -5 28
-12z m8 -184 c38 -37 38 -38 37 -113 0 -41 -4 -95 -9 -120 -24 -133 -39 -193
-49 -203 -6 -6 -11 -18 -11 -27 0 -8 -9 -32 -20 -53 -11 -20 -20 -43 -20 -50
0 -7 -8 -28 -19 -47 -10 -19 -22 -46 -26 -60 -4 -14 -17 -50 -30 -80 -13 -30
-33 -84 -46 -119 -31 -88 -41 -91 -267 -91 -199 0 -202 1 -202 65 0 58 8 64
93 75 82 10 171 46 203 81 29 32 32 217 3 252 -32 41 -26 93 14 113 41 21 87
64 87 81 0 8 24 25 53 37 83 38 116 101 117 227 0 83 29 93 92 32z m-447 -473
c0 -20 -6 -26 -28 -28 -35 -4 -49 25 -21 45 27 20 49 12 49 -17z m-95 -30 c0
-21 -25 -33 -52 -24 -12 3 -27 -1 -38 -11 -21 -19 -179 -31 -209 -16 -10 6
-32 5 -59 -2 -50 -13 -75 1 -56 31 15 23 41 27 70 11 19 -10 29 -10 48 1 16 8
40 10 70 6 28 -4 53 -3 66 4 15 8 30 8 49 2 21 -7 32 -6 49 8 26 21 62 15 62
-10z m-192 -362 c7 -7 12 -26 12 -43 0 -17 -5 -36 -12 -43 -15 -15 -181 -16
-209 -2 -23 13 -26 62 -3 84 19 20 193 23 212 4z m43 -348 c27 -15 27 -85 0
-100 -32 -16 -285 -18 -304 -1 -23 19 -23 87 1 100 23 14 278 14 303 1z m-45
-174 c15 -12 17 -17 6 -27 -17 -18 -187 -18 -204 -1 -20 20 9 33 57 27 22 -3
56 -1 75 4 19 5 38 9 41 10 3 1 14 -5 25 -13z"/>
<path d="M2366 3053 c-4 -5 -14 -23 -21 -40 -15 -36 -35 -42 -55 -18 -26 31
-69 9 -84 -42 -8 -25 -11 -26 -41 -14 -27 11 -50 -2 -86 -51 l-29 -42 23 -25
c13 -14 34 -43 47 -64 21 -36 23 -37 41 -21 11 9 19 25 19 34 0 23 32 50 58
50 12 0 27 9 34 21 20 32 84 61 119 54 19 -4 36 -1 51 9 28 20 57 20 85 1 11
-8 39 -17 63 -21 23 -4 54 -17 70 -30 34 -29 66 -31 80 -4 11 21 44 27 55 10
3 -5 -5 -21 -19 -35 -31 -31 -33 -60 -6 -75 12 -6 20 -21 20 -36 0 -24 39 -74
59 -74 16 0 24 -40 11 -55 -9 -11 -9 -23 -1 -46 6 -18 11 -51 11 -75 0 -46 41
-107 81 -119 27 -9 24 -23 -11 -53 -36 -32 -38 -61 -8 -111 28 -45 31 -47 86
-55 53 -7 72 5 72 45 0 31 -34 41 -57 18 -13 -13 -63 16 -63 36 0 23 27 37 49
26 55 -30 77 -9 54 52 -14 37 -20 44 -33 37 -20 -11 -45 3 -35 20 4 7 17 9 32
5 25 -6 25 -6 18 47 -4 29 -18 82 -31 117 -20 52 -23 71 -15 93 9 26 5 35 -34
90 -25 33 -45 70 -45 82 0 12 -22 45 -51 76 -28 30 -58 65 -66 78 -23 33 -57
29 -74 -10 -16 -37 -46 -49 -56 -23 -3 10 2 31 12 47 14 25 15 32 4 39 -32 20
-63 7 -78 -34 -7 -17 -18 -27 -31 -27 -28 0 -36 27 -17 59 11 19 13 31 6 44
-15 26 -35 21 -65 -18 -32 -43 -49 -44 -68 -6 -19 36 -60 53 -80 34z m31 -79
c-3 -3 -12 -4 -19 -1 -8 3 -5 6 6 6 11 1 17 -2 13 -5z m496 -201 c33 -7 36
-32 7 -58 -20 -18 -21 -18 -52 12 -33 34 -34 71 0 58 9 -3 29 -9 45 -12z m62
-169 c0 -23 -5 -30 -24 -32 -35 -5 -44 18 -19 46 28 28 43 24 43 -14z m45
-123 c14 -28 -21 -71 -46 -55 -30 18 -39 40 -25 58 18 22 58 20 71 -3z"/>
<path d="M1996 2755 c-8 -21 3 -44 25 -56 22 -11 23 -7 7 38 -13 36 -23 41
-32 18z"/>
<path d="M2072 2679 c2 -6 8 -10 13 -10 5 0 11 4 13 10 2 6 -4 11 -13 11 -9 0
-15 -5 -13 -11z"/>
<path d="M1377 2610 c-21 -4 -51 -20 -68 -36 l-31 -29 4 -152 c2 -127 6 -155
20 -169 13 -14 20 -15 31 -6 20 17 40 153 33 220 -8 73 0 83 70 93 74 10 94
-4 94 -67 0 -88 37 -128 66 -71 22 41 40 54 87 62 47 8 47 21 1 34 -46 13 -74
38 -74 66 0 31 -16 41 -84 54 -66 12 -92 12 -149 1z"/>
<path d="M1958 2613 c7 -3 16 -2 19 1 4 3 -2 6 -13 5 -11 0 -14 -3 -6 -6z"/>
<path d="M2050 2554 c0 -8 5 -12 10 -9 6 4 8 11 5 16 -9 14 -15 11 -15 -7z"/>
<path d="M1955 2510 c3 -5 15 -10 26 -10 11 0 17 5 14 10 -3 6 -15 10 -26 10
-11 0 -17 -4 -14 -10z"/>
<path d="M2166 2494 c-10 -27 -7 -56 7 -52 14 5 23 68 9 68 -6 0 -13 -7 -16
-16z"/>
<path d="M1757 2473 c-4 -3 -7 -24 -7 -45 0 -57 -13 -74 -62 -83 l-43 -8 38
-9 c48 -13 87 9 87 50 0 15 3 44 6 65 6 34 -2 47 -19 30z"/>
<path d="M2007 2416 c-3 -8 -3 -17 0 -20 9 -9 34 15 27 25 -8 13 -21 11 -27
-5z"/>
<path d="M1900 2395 c0 -17 6 -21 48 -30 45 -9 40 7 -8 27 -32 13 -40 14 -40
3z"/>
<path d="M2130 2329 c0 -17 4 -28 10 -24 6 3 10 17 10 31 0 13 -4 24 -10 24
-5 0 -10 -14 -10 -31z"/>
<path d="M1729 2270 c-9 -72 -3 -150 12 -150 5 0 9 36 9 80 0 47 -4 80 -10 80
-5 0 -11 -4 -11 -10z"/>
<path d="M2096 2185 c-3 -8 -1 -15 4 -15 6 0 10 7 10 15 0 8 -2 15 -4 15 -2 0
-6 -7 -10 -15z"/>
<path d="M1955 2180 c-11 -17 5 -32 21 -19 8 6 14 15 14 20 0 12 -27 11 -35
-1z"/>
<path d="M1845 2150 c-3 -5 1 -10 9 -10 9 0 16 5 16 10 0 6 -4 10 -9 10 -6 0
-13 -4 -16 -10z"/>
<path d="M2057 2103 c-10 -9 -9 -23 2 -23 5 0 11 7 15 15 5 15 -5 20 -17 8z"/>
<path d="M1933 2037 c2 -7 14 -14 26 -15 28 -4 20 13 -9 21 -14 3 -20 1 -17
-6z"/>
<path d="M1770 2034 c0 -9 54 -64 62 -64 15 0 8 20 -17 45 -24 23 -45 32 -45
19z"/>
<path d="M1870 1936 c18 -18 70 -32 70 -19 0 12 -44 33 -68 33 -14 0 -14 -2
-2 -14z"/>
<path d="M1964 1895 c11 -8 22 -12 25 -9 6 6 -19 24 -34 24 -5 -1 -1 -7 9 -15z"/>
<path d="M2005 1767 c-4 -10 -5 -21 -1 -24 10 -10 18 4 13 24 -4 17 -4 17 -12
0z"/>
<path d="M2000 1580 c0 -19 3 -21 12 -12 9 9 9 15 0 24 -9 9 -12 7 -12 -12z"/>
<path d="M2041 636 c-8 -9 -11 -51 -9 -122 3 -109 3 -109 28 -109 25 0 25 0
28 109 3 102 -4 136 -28 136 -4 0 -13 -6 -19 -14z"/>
<path d="M1464 606 c-10 -26 4 -48 28 -44 17 2 23 10 23 28 0 30 -41 42 -51
16z"/>
<path d="M1315 566 c-17 -41 -32 -47 -89 -40 -67 10 -88 -7 -84 -64 4 -60 41
-74 61 -23 22 58 107 62 107 5 0 -30 27 -51 48 -37 10 6 16 18 14 27 -2 9 5
30 14 46 17 28 17 31 -2 67 -32 63 -49 68 -69 19z"/>
<path d="M2380 568 c-24 -40 -26 -71 -4 -89 9 -7 13 -21 10 -33 -7 -28 7 -49
30 -44 15 2 21 16 28 60 16 111 -22 175 -64 106z"/>
<path d="M3253 583 c-18 -6 -25 -60 -16 -123 8 -50 11 -55 33 -55 20 0 26 6
28 30 2 17 10 37 19 47 24 27 -30 113 -64 101z"/>
<path d="M3726 561 c-3 -5 -26 -18 -50 -30 -46 -21 -64 -57 -54 -108 6 -33 52
-24 56 12 5 42 19 57 43 45 14 -8 17 -17 12 -42 -5 -23 -3 -30 7 -26 22 7 22
158 0 158 -5 0 -11 -4 -14 -9z"/>
<path d="M2190 525 c-37 -12 -46 -30 -31 -55 8 -12 13 -12 36 0 29 16 42 8 47
-30 2 -20 9 -25 33 -25 27 0 30 3 31 35 3 67 -47 98 -116 75z"/>
<path d="M2549 525 c-26 -14 -49 -59 -49 -95 0 -41 66 -29 72 12 5 38 46 36
59 -1 14 -40 59 -45 59 -7 0 81 -73 128 -141 91z"/>
<path d="M927 515 c-33 -33 -13 -77 26 -56 34 18 63 10 60 -16 -3 -28 20 -46
48 -38 19 6 21 12 16 52 -6 58 -15 65 -80 71 -41 3 -57 0 -70 -13z"/>
<path d="M1589 500 c-24 -23 -30 -37 -27 -62 4 -47 38 -46 50 1 10 35 4 34 93
19 26 -4 32 28 9 53 -28 31 -89 26 -125 -11z"/>
<path d="M1801 516 c-7 -8 -11 -36 -9 -63 3 -44 5 -48 28 -48 23 0 25 4 28 48
3 45 -9 77 -28 77 -4 0 -13 -6 -19 -14z"/>
<path d="M1921 516 c-7 -8 -11 -36 -9 -63 3 -44 5 -48 28 -48 23 0 25 4 28 48
3 45 -9 77 -28 77 -4 0 -13 -6 -19 -14z"/>
<path d="M2761 516 c-7 -8 -11 -36 -9 -63 4 -61 37 -74 63 -24 8 17 24 35 35
41 31 17 25 46 -11 54 -48 9 -65 7 -78 -8z"/>
<path d="M3049 520 c-52 -30 -40 -120 16 -120 27 0 34 27 13 48 -23 23 6 37
50 24 51 -15 52 -15 52 6 0 43 -84 69 -131 42z"/>
<path d="M3384 517 c-3 -8 -4 -36 -2 -63 3 -45 5 -49 28 -49 24 0 25 3 25 60
0 55 -2 60 -23 63 -12 2 -24 -3 -28 -11z"/>
<path d="M3522 518 c-18 -18 -16 -107 3 -114 40 -16 64 76 29 110 -19 19 -17
19 -32 4z"/>
<path d="M1464 507 c-3 -8 -4 -34 -2 -58 3 -39 6 -44 28 -44 24 0 25 3 25 55
0 49 -2 55 -23 58 -12 2 -24 -3 -28 -11z"/>
</g>
</svg>
