<?xml version="1.0" standalone="no"?>
<!DOCTYPE svg PUBLIC "-//W3C//DTD SVG 20010904//EN"
 "http://www.w3.org/TR/2001/REC-SVG-20010904/DTD/svg10.dtd">
<svg version="1.0" xmlns="http://www.w3.org/2000/svg"
 width="244.159195pt" height="211.967694pt" viewBox="0 0 244.159195 211.967694"
 preserveAspectRatio="xMidYMid meet">
<metadata>
Created by potrace 1.16, written by Peter Selinger 2001-2019
</metadata>
<g transform="translate(-42.845435,276.000000) scale(0.100000,-0.100000)"
fill="#000000" stroke="none">
<path d="M522 2735 c-62 -43 -76 -66 -87 -135 -6 -41 -8 -383 -5 -945 6 -998
-2 -914 90 -981 l45 -33 1083 0 c1183 -1 1094 -5 1160 53 65 58 62 1 62 994 0
1022 5 961 -80 1032 l-48 40 -1093 0 -1094 -1 -33 -24z m2208 -75 c43 -23 73
-164 49 -227 l-9 -23 -1119 0 c-883 0 -1121 3 -1129 13 -43 54 -10 187 56 225
l37 21 1048 1 c714 0 1054 -3 1067 -10z m43 -349 c5 -5 10 -973 7 -1464 0 -39
-5 -53 -32 -83 l-33 -35 -1062 -2 -1063 -1 -30 29 c-17 16 -35 45 -40 66 -13
48 -7 1476 6 1489 18 18 2229 18 2247 1z"/>
<path d="M658 2568 c-21 -17 -27 -39 -16 -60 11 -23 31 -23 52 1 35 38 3 90
-36 59z"/>
<path d="M788 2573 c-21 -5 -35 -50 -20 -65 28 -28 87 15 66 49 -12 19 -22 22
-46 16z"/>
<path d="M915 2564 c-19 -19 -16 -43 7 -57 20 -13 48 6 48 34 0 28 -35 43 -55
23z"/>
<path d="M1047 2573 c-18 -17 -6 -51 22 -63 36 -15 51 -7 51 26 0 29 -54 57
-73 37z"/>
<path d="M1030 2213 c-24 -13 -42 -34 -61 -71 -15 -30 -32 -59 -38 -65 -8 -8
-11 -169 -11 -568 l0 -558 33 -34 c17 -19 48 -45 67 -58 l35 -24 610 2 610 3
42 46 43 46 0 588 0 589 -37 45 c-65 77 -71 78 -586 70 -522 -8 -546 -8 -617
0 -42 5 -63 2 -90 -11z m1116 -23 c58 0 62 -2 108 -45 40 -39 47 -51 44 -78
-4 -43 -30 -46 -69 -7 -55 54 -84 64 -194 62 -84 -1 -109 -5 -158 -26 -68 -31
-79 -31 -114 -9 -34 22 -124 23 -175 1 -32 -15 -37 -22 -49 -72 -18 -80 -3
-123 61 -176 l50 -42 124 1 c136 1 152 -5 140 -53 -5 -21 0 -32 27 -57 32 -29
32 -32 18 -57 -8 -15 -24 -28 -36 -30 -23 -3 -93 -74 -93 -95 0 -8 -4 -7 -10
3 -5 8 -10 45 -10 82 0 61 -3 71 -31 103 -31 35 -31 35 -115 35 l-84 0 -44
-40 c-48 -44 -57 -47 -77 -24 -40 49 -94 48 -190 -2 -28 -14 -32 -13 -56 6
-14 11 -39 20 -55 20 -16 0 -39 5 -50 11 -39 21 -56 -13 -67 -136 -12 -129 -7
-138 89 -182 30 -13 71 -33 91 -43 35 -18 36 -18 65 1 16 10 37 19 46 19 22 0
82 36 122 72 40 37 46 36 79 -16 25 -40 34 -46 83 -57 73 -16 98 -6 148 58 23
28 44 52 47 52 4 1 10 -39 13 -88 8 -97 21 -118 107 -169 50 -30 160 -31 204
-2 17 11 37 20 47 20 9 0 28 14 42 30 24 29 25 37 24 138 -1 117 -9 136 -70
168 -28 15 -39 56 -18 69 6 3 10 19 10 35 0 21 11 41 39 68 l39 38 0 93 c0
101 15 139 42 106 10 -12 12 -99 10 -408 -1 -215 -2 -405 -2 -422 4 -172 1
-200 -24 -225 l-24 -25 -593 -3 -592 -2 -42 38 -42 39 0 554 c0 598 -3 566 56
633 37 41 93 49 138 20 20 -13 30 -13 67 -3 24 6 72 11 108 10 107 -3 229 -5
330 -4 52 1 115 1 140 2 25 0 86 4 135 9 50 5 99 8 110 6 11 -2 47 -4 81 -4z
m15 -142 l35 -33 -4 -113 c-4 -114 -4 -114 -33 -130 -30 -18 -59 -75 -59 -116
0 -24 -12 -38 -42 -49 -23 -8 -70 41 -64 66 7 30 -29 159 -49 173 -13 10 -54
13 -141 13 -110 -1 -127 1 -159 21 -78 48 -81 129 -6 168 21 11 43 17 47 12 5
-5 35 -17 68 -28 63 -21 108 -13 165 30 19 14 43 18 116 18 89 0 92 -1 126
-32z m-413 -474 l3 -91 -41 -37 c-47 -43 -86 -47 -117 -13 -66 73 -82 155 -40
208 21 28 24 28 107 26 l85 -2 3 -91z m-346 62 c26 -19 68 -84 68 -105 0 -28
-68 -82 -172 -135 -41 -21 -57 -16 -155 47 -49 31 -57 51 -48 124 5 44 11 56
30 63 30 11 91 2 106 -16 14 -17 41 -18 57 -2 12 12 67 35 87 36 6 1 18 -5 27
-12z m727 -100 c80 -71 81 -73 81 -123 0 -78 -16 -122 -48 -129 -15 -4 -36
-13 -47 -20 -11 -8 -46 -14 -82 -14 -59 0 -66 3 -104 37 l-41 37 4 73 c4 88
15 102 87 107 37 2 58 9 74 24 25 25 53 28 76 8z"/>
<path d="M1268 2117 c-36 -21 -38 -21 -67 -4 -55 33 -130 5 -157 -59 -22 -52
-18 -189 5 -228 23 -37 73 -76 98 -76 10 0 31 -7 47 -15 36 -19 49 -19 121 5
106 36 144 95 145 222 0 89 -19 121 -93 157 -53 25 -53 25 -99 -2z m-76 -57
c15 -23 54 -26 77 -6 32 29 66 29 99 1 30 -25 31 -28 29 -105 -3 -88 -21 -119
-83 -146 -17 -7 -36 -20 -44 -28 -17 -21 -33 -20 -55 4 -10 11 -29 20 -42 20
-14 0 -38 13 -54 29 -28 28 -29 33 -29 119 0 72 3 92 18 104 36 32 67 35 84 8z"/>
<path d="M1066 1291 c-36 -38 -46 -104 -22 -150 15 -28 15 -34 1 -53 -21 -30
-19 -50 8 -91 31 -49 83 -68 199 -74 l98 -6 52 37 c61 42 71 43 105 16 14 -11
39 -20 55 -20 16 0 38 -5 48 -10 28 -15 97 3 129 34 34 33 52 33 90 0 33 -28
32 -28 264 -25 93 1 99 2 123 28 39 42 42 72 10 100 -22 18 -27 29 -22 48 6
23 4 25 -28 25 -65 0 -81 -59 -21 -74 25 -6 43 -42 28 -56 -7 -7 -191 -23
-265 -23 -17 0 -42 14 -68 37 -22 20 -42 36 -45 36 -19 0 -85 -36 -121 -65
-50 -41 -48 -41 -81 -15 -14 11 -39 20 -55 20 -40 0 -98 45 -98 77 0 39 46
107 89 131 52 29 73 28 99 -8 24 -32 47 -31 57 1 10 32 43 23 64 -18 22 -43
70 -83 101 -83 34 0 26 44 -15 78 -20 16 -39 42 -44 57 -12 47 -54 72 -85 52
-34 -23 -68 -21 -99 3 -35 28 -52 25 -84 -15 -35 -44 -46 -44 -94 0 -47 42
-77 44 -127 10 -20 -14 -44 -25 -54 -25 -9 0 -30 11 -46 25 -44 37 -109 35
-146 -4z m150 -66 c51 -42 42 -42 90 0 48 43 76 44 104 6 l20 -30 -21 -41
c-17 -32 -20 -52 -17 -92 8 -83 -14 -98 -139 -95 -90 2 -100 5 -126 28 -27 26
-28 33 -26 124 0 11 -3 39 -7 62 -13 81 47 99 122 38z"/>
</g>
</svg>
