<?xml version="1.0" standalone="no"?>
<!DOCTYPE svg PUBLIC "-//W3C//DTD SVG 20010904//EN"
 "http://www.w3.org/TR/2001/REC-SVG-20010904/DTD/svg10.dtd">
<svg version="1.0" xmlns="http://www.w3.org/2000/svg"
 width="241.162646pt" height="221.438045pt" viewBox="0 0 241.162646 221.438045"
 preserveAspectRatio="xMidYMid meet">
<metadata>
Created by potrace 1.16, written by Peter Selinger 2001-2019
</metadata>
<g transform="translate(-42.026613,271.500000) scale(0.100000,-0.100000)"
fill="#000000" stroke="none">
<path d="M593 2709 c-78 -17 -148 -80 -164 -145 -12 -54 -12 -1560 1 -1603 11
-39 49 -82 100 -114 35 -22 35 -22 700 -24 668 -1 720 -4 720 -36 0 -8 9 -26
20 -40 11 -14 20 -32 20 -41 0 -8 11 -27 25 -42 14 -15 25 -33 25 -41 0 -26
71 -102 105 -113 88 -29 110 5 100 160 -9 155 -26 144 244 150 l216 5 42 30
c23 17 51 49 63 75 l22 44 -1 788 c-2 913 5 849 -98 915 l-58 38 -1027 0
c-565 0 -1040 -3 -1055 -6z m2017 -115 c108 -12 100 60 100 -836 l1 -773 -25
-21 c-33 -29 -94 -40 -113 -21 -12 11 -12 22 -4 53 14 52 0 106 -34 138 -27
25 -33 26 -151 26 -81 0 -125 4 -130 11 -4 7 -6 45 -5 85 1 40 -3 83 -9 94
-12 23 -61 28 -78 7 -16 -19 -26 -566 -11 -617 10 -32 10 -43 0 -53 -15 -14
-57 32 -68 73 -5 24 -11 36 -44 104 -34 71 -37 71 -1247 75 l-204 1 -29 29
-29 29 0 760 0 760 26 31 c14 17 40 35 57 39 38 10 1914 16 1997 6z m-160
-1563 c30 -8 40 -60 17 -80 -16 -13 -196 -19 -216 -7 -14 9 -14 51 -1 77 9 17
21 19 93 18 45 -1 93 -4 107 -8z"/>
<path d="M1360 2433 c-163 -25 -236 -76 -296 -208 -31 -70 -37 -238 -11 -305
62 -155 96 -285 106 -413 9 -102 34 -211 62 -273 11 -22 19 -45 19 -50 1 -32
113 -114 156 -114 59 1 125 83 135 169 20 165 60 311 86 311 11 0 54 -118 62
-173 5 -34 16 -82 25 -106 9 -24 13 -54 10 -67 -8 -30 74 -118 120 -130 57
-14 155 61 172 132 4 16 13 38 20 49 7 11 17 48 23 83 5 34 13 68 18 75 4 6
10 69 14 139 3 70 11 133 17 140 10 13 32 70 78 208 60 180 8 397 -115 474
-88 56 -227 67 -356 28 -69 -20 -105 -18 -215 12 -52 14 -97 25 -100 24 -3 0
-16 -2 -30 -5z m156 -148 c35 -12 70 -28 78 -34 8 -7 44 -18 80 -24 75 -13 93
-4 98 46 l3 32 79 3 c95 3 123 -6 175 -63 70 -76 79 -244 19 -361 -20 -39 -52
-110 -73 -160 -10 -26 -19 -89 -24 -175 -5 -74 -14 -147 -20 -162 -6 -16 -11
-41 -11 -57 0 -42 -40 -120 -61 -120 -22 0 -45 69 -54 160 -4 36 -13 78 -21
94 -8 16 -14 40 -14 54 0 41 -58 119 -102 137 -66 26 -135 0 -170 -65 -16 -28
-28 -57 -28 -65 0 -9 -6 -26 -14 -38 -7 -12 -17 -53 -20 -90 -7 -66 -28 -167
-41 -187 -31 -50 -94 125 -114 318 -6 57 -15 112 -21 122 -5 10 -10 31 -10 47
0 15 -18 73 -40 128 -143 354 -1 567 306 460z"/>
</g>
</svg>
