<?xml version="1.0" standalone="no"?>
<!DOCTYPE svg PUBLIC "-//W3C//DTD SVG 20010904//EN"
 "http://www.w3.org/TR/2001/REC-SVG-20010904/DTD/svg10.dtd">
<svg version="1.0" xmlns="http://www.w3.org/2000/svg"
 width="241.901936pt" height="173.122932pt" viewBox="0 0 241.901936 173.122932"
 preserveAspectRatio="xMidYMid meet">
<metadata>
Created by potrace 1.16, written by Peter Selinger 2001-2019
</metadata>
<g transform="translate(-46.570969,253.122932) scale(0.100000,-0.100000)"
fill="#000000" stroke="none">
<path d="M1310 2514 c-212 -33 -257 -42 -285 -58 -16 -9 -40 -16 -51 -16 -12
0 -27 -7 -34 -15 -7 -8 -20 -15 -30 -15 -27 0 -208 -96 -268 -143 -71 -54
-114 -108 -148 -187 l-28 -65 1 -275 c1 -261 2 -278 23 -325 31 -69 105 -165
154 -198 23 -16 59 -42 81 -58 22 -17 54 -37 70 -45 17 -8 50 -26 75 -40 43
-25 68 -33 205 -67 34 -9 64 -23 70 -33 28 -48 94 -121 124 -136 19 -9 39 -22
44 -27 7 -7 127 -11 355 -11 l343 0 44 25 c41 25 100 83 137 138 12 18 35 29
80 40 176 43 193 50 308 122 133 83 270 222 270 274 0 6 8 24 18 38 15 24 17
57 17 303 -1 309 2 298 -87 430 -84 125 -351 269 -588 316 -225 45 -700 60
-900 28z m715 -113 c61 -7 126 -19 145 -27 19 -7 54 -16 77 -19 24 -4 45 -11
48 -15 3 -5 30 -16 60 -24 30 -9 57 -21 60 -26 3 -6 14 -10 24 -10 10 0 26 -8
35 -19 9 -10 30 -21 46 -24 36 -8 146 -83 169 -116 62 -92 90 -194 56 -207 -9
-4 -36 13 -68 40 -30 25 -58 46 -62 46 -5 0 -48 20 -97 45 -49 25 -97 45 -106
45 -10 0 -35 9 -57 20 -22 11 -52 20 -67 20 -16 0 -39 6 -51 14 -12 8 -49 17
-82 21 -33 3 -85 14 -115 23 -81 24 -661 24 -735 0 -27 -9 -74 -19 -103 -23
-29 -3 -67 -12 -85 -19 -18 -8 -50 -18 -72 -24 -46 -12 -117 -37 -160 -57 -16
-7 -42 -17 -58 -20 -15 -4 -30 -11 -33 -16 -3 -5 -21 -16 -39 -24 -19 -7 -40
-19 -47 -25 -109 -91 -136 -92 -129 -5 4 40 64 144 100 172 57 46 212 133 235
133 8 0 19 6 25 14 7 8 31 18 54 21 23 4 51 14 62 21 11 8 31 14 45 14 14 1
43 8 65 17 116 45 605 65 860 34z m-88 -321 c67 -5 139 -16 159 -25 20 -8 48
-15 63 -15 15 0 44 -9 66 -20 22 -11 53 -20 70 -20 16 0 43 -7 58 -15 16 -8
50 -21 75 -29 26 -8 67 -26 92 -40 25 -14 59 -32 75 -39 55 -26 115 -86 115
-115 0 -63 -229 -220 -348 -239 -18 -3 -50 -14 -70 -24 -61 -31 -100 -25 -139
21 -71 82 -83 84 -466 88 l-338 3 -52 -24 c-29 -13 -70 -43 -92 -65 -48 -50
-111 -59 -158 -22 -14 11 -34 20 -45 20 -35 0 -193 80 -269 136 -110 81 -118
112 -47 165 49 36 103 70 144 90 14 7 32 18 40 24 8 6 56 24 105 39 50 15 117
36 150 47 33 11 72 19 87 19 15 0 45 6 65 14 21 8 101 20 178 26 77 7 142 14
145 17 5 6 147 -1 337 -17z m-1297 -505 c64 -53 215 -132 315 -165 39 -12 79
-27 89 -33 11 -5 40 -15 65 -21 l45 -11 -3 -110 c-1 -60 -6 -114 -11 -119 -11
-11 -116 12 -150 33 -8 5 -42 22 -75 38 -33 15 -65 32 -71 38 -6 5 -30 21 -54
35 -62 37 -142 108 -167 149 -35 59 -68 211 -45 211 4 0 32 -20 62 -45z m2125
-37 c-7 -63 -13 -80 -40 -128 -42 -74 -122 -139 -245 -202 -14 -7 -36 -20 -49
-30 -13 -10 -33 -18 -45 -18 -12 0 -31 -6 -42 -14 -11 -8 -44 -16 -74 -18
l-55 -3 -3 112 -3 112 28 6 c15 4 43 13 61 21 18 8 42 14 54 14 11 0 42 10 67
21 25 12 71 33 101 46 30 14 62 29 70 34 8 5 29 15 45 23 17 8 48 30 69 50 59
54 69 49 61 -26z m-1400 -56 c6 -4 11 -89 11 -212 1 -113 5 -235 9 -271 7 -62
6 -67 -13 -73 -27 -9 -80 29 -90 64 -9 35 -9 387 1 432 9 45 56 79 82 60z
m460 2 c38 -15 45 -55 45 -266 -1 -189 -2 -206 -23 -248 l-22 -45 -145 0 -145
0 -22 45 c-34 70 -35 481 -1 504 23 16 275 24 313 10z m221 -17 c26 -23 28
-30 40 -170 8 -95 9 -170 3 -214 -4 -38 -8 -73 -9 -80 0 -23 -62 -83 -85 -83
-29 0 -35 24 -23 92 6 31 8 138 5 259 -3 114 -3 210 0 213 13 13 43 5 69 -17z"/>
</g>
</svg>
