<?xml version="1.0" standalone="no"?>
<!DOCTYPE svg PUBLIC "-//W3C//DTD SVG 20010904//EN"
 "http://www.w3.org/TR/2001/REC-SVG-20010904/DTD/svg10.dtd">
<svg version="1.0" xmlns="http://www.w3.org/2000/svg"
 width="238.550637pt" height="237.479104pt" viewBox="0 0 238.550637 237.479104"
 preserveAspectRatio="xMidYMid meet">
<metadata>
Created by potrace 1.16, written by Peter Selinger 2001-2019
</metadata>
<g transform="translate(-46.842741,281.061701) scale(0.100000,-0.100000)"
fill="#000000" stroke="none">
<path d="M2339 2787 c-19 -12 -56 -52 -83 -87 -26 -36 -65 -84 -86 -107 -21
-24 -60 -73 -87 -110 -26 -36 -64 -85 -84 -107 -65 -75 -80 -104 -86 -164 -14
-160 -95 -269 -255 -340 -78 -35 -119 -66 -312 -243 -126 -115 -249 -226 -304
-273 -31 -26 -91 -80 -132 -120 -41 -39 -105 -97 -141 -128 -69 -61 -234 -226
-267 -268 -32 -41 -45 -166 -23 -223 14 -37 99 -124 149 -153 40 -23 59 -28
122 -28 87 -1 128 21 210 111 25 28 110 119 190 204 165 176 302 326 351 384
18 22 69 78 113 125 143 151 268 313 321 415 31 59 75 110 103 119 10 4 27 15
37 26 10 11 24 20 30 20 7 0 18 6 24 14 7 9 41 15 94 18 58 3 91 10 112 23 33
22 131 97 156 120 9 8 21 15 27 15 7 0 46 31 87 70 41 38 99 85 128 105 78 53
108 82 117 116 11 38 -4 118 -28 147 -44 55 -282 293 -316 316 -51 34 -119 36
-167 3z m256 -252 c137 -136 155 -157 146 -174 -11 -21 -60 -59 -97 -76 -12
-5 -41 -27 -65 -47 -256 -217 -339 -268 -437 -268 -67 0 -113 -24 -198 -104
-64 -60 -104 -73 -104 -34 0 14 29 50 80 101 81 79 114 137 109 190 -5 59 15
111 70 181 31 39 76 98 100 131 24 33 52 69 63 80 34 36 66 76 119 148 34 45
50 36 214 -128z m-842 -801 c47 -45 48 -74 1 -130 -45 -56 -69 -57 -117 -3
-47 51 -48 84 -6 124 58 54 73 56 122 9z m-194 -214 c74 -71 74 -72 -12 -160
-35 -36 -103 -110 -152 -165 -49 -55 -112 -125 -141 -155 -28 -30 -67 -73 -85
-95 -19 -22 -39 -44 -45 -50 -6 -5 -39 -43 -75 -84 -130 -150 -226 -242 -264
-252 -85 -24 -158 17 -194 108 -20 51 -20 51 0 89 19 38 161 181 269 272 30
25 96 85 146 132 379 355 453 420 480 420 6 0 39 -27 73 -60z"/>
</g>
</svg>
