<?xml version="1.0" standalone="no"?>
<!DOCTYPE svg PUBLIC "-//W3C//DTD SVG 20010904//EN"
 "http://www.w3.org/TR/2001/REC-SVG-20010904/DTD/svg10.dtd">
<svg version="1.0" xmlns="http://www.w3.org/2000/svg"
 width="245.318517pt" height="301.543742pt" viewBox="0 0 245.318517 301.543742"
 preserveAspectRatio="xMidYMid meet">
<metadata>
Created by potrace 1.16, written by Peter Selinger 2001-2019
</metadata>
<g transform="translate(-76.000000,356.079205) scale(0.100000,-0.100000)"
fill="#000000" stroke="none">
<path d="M1157 3543 c-3 -10 -4 -38 -2 -63 1 -25 3 -60 3 -78 2 -29 5 -33 25
-30 34 5 35 181 0 186 -14 2 -23 -3 -26 -15z"/>
<path d="M1287 3553 c-4 -3 -7 -41 -7 -83 0 -81 12 -106 44 -94 23 9 24 169 0
178 -20 8 -29 8 -37 -1z"/>
<path d="M1405 3547 c-3 -7 -5 -49 -3 -93 3 -71 5 -79 23 -79 29 0 31 178 2
183 -9 2 -19 -3 -22 -11z"/>
<path d="M1517 3553 c-11 -10 -8 -100 4 -125 11 -25 67 -68 88 -68 27 0 71 35
71 55 0 32 -11 37 -38 19 -19 -13 -30 -14 -49 -5 -38 18 -26 45 24 52 50 6 75
25 71 53 -3 21 -48 37 -48 17 0 -24 -37 -31 -63 -11 -26 20 -48 25 -60 13z"/>
<path d="M1753 3544 c-6 -16 35 -58 70 -69 21 -8 23 -43 2 -51 -8 -3 -22 1
-30 10 -20 19 -27 20 -43 4 -18 -18 -15 -25 25 -53 47 -31 54 -31 92 1 34 28
43 80 16 90 -8 3 -17 14 -20 25 -4 10 -12 19 -19 19 -7 0 -25 9 -39 20 -30 24
-46 25 -54 4z"/>
<path d="M1955 3550 c-10 -16 10 -35 65 -61 39 -18 50 -29 48 -44 -4 -26 -44
-32 -68 -10 -21 19 -50 14 -50 -10 0 -16 71 -65 95 -65 21 0 95 60 95 76 0 21
-75 94 -97 94 -11 0 -26 7 -33 15 -14 17 -46 20 -55 5z"/>
<path d="M2275 3540 c-10 -11 -26 -20 -37 -20 -10 0 -18 -7 -18 -15 0 -8 -11
-22 -25 -31 -30 -20 -31 -37 -4 -75 20 -28 23 -29 87 -26 l67 4 -4 84 c-2 46
-5 87 -8 92 -8 14 -40 7 -58 -13z m0 -90 c0 -33 -32 -40 -44 -8 -11 29 -5 40
22 36 16 -2 22 -10 22 -28z"/>
<path d="M2402 3548 c-16 -20 -6 -108 16 -137 13 -18 31 -28 58 -31 31 -4 40
-10 42 -28 5 -30 -22 -39 -63 -19 -35 17 -45 14 -45 -14 0 -26 39 -49 83 -49
81 0 100 33 95 175 -3 76 -7 101 -20 108 -30 20 -48 1 -48 -51 0 -60 -16 -79
-49 -56 -19 14 -22 22 -16 51 9 50 -26 84 -53 51z"/>
<path d="M2770 3545 c-15 -17 -51 -20 -67 -4 -6 6 -21 9 -34 7 -48 -6 -27
-139 26 -168 55 -29 138 2 121 45 -6 17 -18 17 -57 1 -9 -4 -26 1 -40 13 -28
24 -14 41 33 41 43 0 78 20 78 46 0 33 -38 45 -60 19z"/>
<path d="M1943 2863 c-17 -27 -42 -73 -56 -103 -42 -90 -88 -120 -187 -120
-52 0 -127 -31 -137 -56 -4 -12 16 -39 74 -96 102 -100 110 -117 89 -201 -45
-180 -2 -217 162 -137 44 22 91 40 103 40 12 0 54 -18 94 -40 78 -43 126 -50
163 -24 26 18 27 34 7 111 -31 118 -26 133 71 229 95 96 101 114 45 151 -25
17 -48 23 -90 23 -64 0 -157 38 -167 67 -32 93 -104 203 -134 203 -3 0 -20
-21 -37 -47z m84 -178 c14 -33 32 -68 40 -77 16 -18 94 -44 148 -50 47 -5 44
-33 -8 -82 -71 -65 -89 -113 -63 -164 45 -90 23 -110 -62 -58 -74 45 -99 45
-179 1 -35 -19 -70 -35 -78 -35 -17 0 -20 42 -5 70 5 10 13 43 16 74 8 64 -7
88 -78 129 -27 14 -38 28 -38 43 0 24 -4 23 108 40 57 9 78 28 114 104 40 84
51 85 85 5z"/>
<path d="M3140 2401 c-30 -10 -105 -56 -115 -71 -3 -5 -13 -10 -22 -10 -9 0
-24 -6 -32 -14 -9 -7 -59 -35 -111 -63 -52 -27 -122 -66 -155 -87 -33 -21 -78
-48 -100 -59 -70 -36 -93 -66 -97 -122 -3 -49 -4 -50 -37 -53 -20 -2 -55 5
-80 16 -70 31 -203 46 -318 37 -112 -9 -167 -10 -238 -6 -27 2 -122 0 -211 -5
-175 -8 -180 -6 -176 46 2 41 -57 93 -164 144 -17 8 -36 22 -44 30 -7 9 -20
16 -29 16 -9 0 -29 8 -46 18 -16 10 -75 42 -130 71 -55 29 -117 66 -138 83
-47 37 -120 38 -125 2 -3 -21 71 -94 95 -94 6 0 22 -9 35 -20 28 -21 131 -78
268 -146 109 -54 182 -97 187 -111 3 -7 -8 -42 -25 -76 -17 -34 -38 -78 -47
-97 -9 -19 -29 -57 -45 -85 -16 -27 -36 -63 -44 -80 -9 -16 -21 -39 -28 -50
-7 -11 -28 -45 -48 -75 -19 -30 -42 -70 -51 -88 -27 -53 -69 -102 -86 -102
-17 0 -120 56 -141 77 -26 25 -82 1 -82 -35 0 -16 40 -52 76 -68 17 -7 36 -20
44 -28 7 -9 23 -16 35 -16 12 0 34 -9 48 -20 32 -26 63 -26 79 0 15 24 66 27
74 5 3 -8 21 -23 40 -34 38 -22 47 -68 19 -91 -10 -8 -15 -31 -15 -70 0 -57 1
-59 42 -89 23 -17 48 -31 55 -31 7 0 26 -27 42 -59 40 -78 77 -107 164 -126
18 -3 36 -19 49 -41 23 -40 45 -54 83 -54 35 0 56 -12 111 -65 55 -54 128 -64
171 -23 29 27 76 28 106 1 12 -11 51 -25 88 -32 84 -16 137 2 165 55 18 33 22
35 55 30 42 -7 117 42 144 94 9 17 22 30 29 30 7 0 25 9 39 20 14 11 31 20 39
20 22 0 98 83 106 116 6 22 20 35 59 54 98 48 124 94 102 180 -12 49 -12 51
17 93 36 51 61 56 102 23 33 -29 77 -34 101 -12 9 7 43 28 76 45 86 46 117 75
106 103 -12 32 -37 46 -58 31 -10 -7 -31 -19 -48 -28 -16 -8 -37 -18 -45 -23
-75 -43 -82 -44 -106 -21 -12 11 -25 33 -29 47 -4 15 -15 36 -25 47 -10 11
-51 85 -91 164 -85 165 -91 175 -110 198 -8 10 -27 43 -43 73 -15 30 -33 63
-39 72 -21 32 53 84 270 193 62 31 115 60 118 64 3 5 27 20 54 34 26 14 65 37
86 51 21 14 41 26 46 26 14 0 20 39 9 60 -11 21 -20 23 -60 11z m-1382 -528
c2 -14 -3 -23 -15 -27 -23 -7 -130 -126 -163 -181 -39 -64 -34 -148 11 -187
65 -55 261 -22 334 56 60 64 144 86 180 46 10 -11 22 -20 26 -20 8 0 55 -31
149 -100 30 -22 73 -49 95 -61 22 -12 60 -38 85 -58 25 -19 51 -40 58 -46 8
-5 24 -19 35 -31 12 -12 32 -24 43 -28 12 -4 29 -15 39 -26 10 -11 23 -20 28
-20 20 0 57 -44 57 -67 0 -33 -43 -73 -78 -73 -31 0 -150 72 -250 150 -64 50
-105 53 -110 6 -4 -29 38 -86 64 -86 7 0 38 -21 71 -47 32 -26 63 -51 68 -55
6 -4 26 -21 45 -37 l35 -30 -36 -37 c-47 -47 -73 -42 -160 29 -83 67 -127 89
-170 85 -30 -3 -34 -6 -34 -33 0 -20 7 -33 22 -40 12 -6 56 -38 97 -70 87 -68
101 -106 49 -126 -37 -14 -59 -7 -170 55 l-96 54 -40 -14 c-40 -14 -41 -14
-69 13 -15 16 -37 36 -48 46 -11 9 -20 29 -20 43 0 36 -46 91 -98 118 -37 19
-50 34 -76 87 -39 79 -75 102 -152 94 -43 -5 -53 -3 -70 16 -23 25 -86 59
-111 59 -10 0 -36 -11 -58 -25 -50 -30 -70 -31 -105 -2 -16 12 -40 30 -54 40
-14 10 -26 25 -26 34 0 14 66 131 125 223 39 60 73 123 106 192 35 74 41 78
116 65 35 -6 64 -5 84 2 18 6 44 11 58 11 14 1 37 7 51 15 36 21 74 15 78 -12z
m457 12 c33 -8 74 -14 91 -15 17 0 47 -6 65 -14 49 -19 132 -28 163 -16 38 14
49 6 85 -63 17 -34 43 -82 58 -107 14 -25 38 -72 55 -105 16 -33 33 -67 39
-75 5 -8 18 -28 29 -45 11 -16 20 -39 20 -50 0 -25 -86 -115 -110 -115 -10 0
-73 42 -140 93 -68 50 -130 97 -139 102 -9 6 -36 24 -60 40 -49 34 -129 87
-187 126 -22 14 -63 39 -91 55 l-53 29 -47 -25 c-63 -34 -102 -60 -138 -94
-81 -76 -205 -92 -205 -27 0 35 119 174 207 242 91 71 229 95 358 64z m-791
-668 c37 -27 23 -65 -44 -128 -73 -69 -81 -71 -110 -23 -22 35 -22 36 -4 71
13 24 33 41 60 53 23 10 45 23 48 29 9 15 28 14 50 -2z m221 -98 l19 -40 -61
-62 c-34 -34 -77 -79 -96 -99 -42 -46 -76 -50 -106 -12 -26 33 -26 33 90 154
108 114 127 121 154 59z m123 -135 c42 -29 25 -72 -73 -175 -49 -52 -76 -60
-107 -32 -33 30 -22 57 60 142 83 87 86 89 120 65z m131 -185 c17 -49 14 -58
-36 -110 -53 -55 -70 -59 -102 -25 -28 30 -28 31 38 105 60 69 84 76 100 30z
m200 -50 c67 -46 84 -75 55 -96 -59 -43 -172 18 -159 86 12 65 22 66 104 10z"/>
</g>
</svg>
