<?xml version="1.0" standalone="no"?>
<!DOCTYPE svg PUBLIC "-//W3C//DTD SVG 20010904//EN"
 "http://www.w3.org/TR/2001/REC-SVG-20010904/DTD/svg10.dtd">
<svg version="1.0" xmlns="http://www.w3.org/2000/svg"
 width="228.433023pt" height="240.194877pt" viewBox="0 0 228.433023 240.194877"
 preserveAspectRatio="xMidYMid meet">
<metadata>
Created by potrace 1.16, written by Peter Selinger 2001-2019
</metadata>
<g transform="translate(-51.555648,290.276835) scale(0.100000,-0.100000)"
fill="#000000" stroke="none">
<path d="M1530 2900 c-459 -3 -846 -10 -860 -14 -35 -12 -108 -84 -133 -131
-20 -40 -21 -46 -21 -955 l0 -915 24 -40 c27 -43 79 -94 96 -95 6 0 17 -7 24
-15 7 -9 29 -15 51 -15 47 0 59 -18 59 -88 0 -59 23 -110 53 -117 12 -3 81 -7
154 -8 132 -2 132 -2 159 25 24 23 28 37 31 93 1 36 5 70 8 76 4 5 196 9 484
9 546 0 507 7 496 -88 -6 -54 -4 -62 18 -88 25 -29 26 -29 154 -32 197 -6 231
12 220 115 -7 66 9 87 74 98 66 11 118 61 158 155 20 44 30 1753 11 1829 -12
48 -59 123 -99 157 -58 50 -79 51 -1161 44z m1065 -127 c19 -9 45 -33 58 -52
l22 -36 2 -876 c3 -985 8 -915 -73 -971 l-39 -27 -907 -1 -906 0 -44 33 c-23
18 -49 45 -56 59 -16 34 -18 1732 -2 1790 8 26 23 46 53 67 l42 29 907 1 c833
1 910 0 943 -16z m-1537 -2075 c51 -51 -54 -102 -142 -68 -25 9 -37 55 -19 73
12 12 148 8 161 -5z m1373 -10 c29 -45 -16 -83 -88 -75 -67 7 -100 48 -67 82
21 20 141 15 155 -7z"/>
<path d="M861 2646 c-60 -21 -76 -54 -79 -164 -4 -100 -12 -122 -43 -122 -30
0 -34 -27 -29 -175 5 -130 6 -140 26 -150 55 -27 54 -25 54 -219 0 -195 -1
-201 -43 -211 -40 -10 -41 -15 -40 -169 1 -121 4 -142 18 -151 65 -38 65 -39
63 -149 -2 -122 9 -156 58 -180 45 -21 1614 -28 1653 -7 52 28 51 9 51 844 0
844 1 829 -56 853 -46 19 -1580 19 -1633 0z m1569 -122 c11 -29 10 -1458 -1
-1469 -4 -3 -341 -6 -750 -6 l-744 1 -22 26 c-19 20 -23 37 -23 90 l0 65 55
25 55 25 0 140 c0 157 -5 174 -53 183 -42 8 -43 18 -42 236 2 158 9 184 52
195 41 10 43 18 43 160 0 146 -2 150 -62 179 l-43 21 0 59 c1 104 -68 96 786
96 l739 0 10 -26z m-1553 -266 c30 -38 15 -128 -22 -128 -41 0 -60 74 -29 118
17 25 37 28 51 10z m3 -777 c12 -24 13 -81 1 -99 -5 -8 -21 -12 -37 -10 -27 3
-29 7 -32 49 -4 67 42 107 68 60z"/>
<path d="M1598 2265 c-3 -3 -31 -10 -63 -15 -32 -5 -65 -16 -75 -25 -9 -8 -24
-15 -33 -15 -31 0 -173 -151 -203 -215 -39 -87 -46 -246 -14 -343 51 -155 135
-238 304 -303 73 -27 90 -30 166 -26 107 5 237 50 282 97 9 10 21 20 26 21 12
5 102 139 102 152 0 6 7 18 16 28 31 34 43 189 24 297 -27 150 -206 332 -326
332 -18 0 -36 5 -39 10 -6 10 -157 14 -167 5z m202 -132 c66 -24 73 -32 67
-75 -8 -56 12 -78 50 -56 29 16 30 16 56 -8 15 -14 27 -33 27 -42 0 -10 7 -27
15 -39 14 -21 13 -24 -20 -50 -45 -36 -45 -63 1 -98 34 -26 34 -28 20 -51 -9
-13 -16 -33 -16 -44 0 -12 -11 -32 -25 -46 -24 -23 -26 -24 -49 -8 -45 28 -79
-17 -45 -60 27 -34 16 -49 -59 -82 -72 -32 -93 -31 -114 6 -21 38 -37 38 -73
0 -35 -37 -72 -39 -126 -8 -46 25 -59 60 -35 87 9 10 16 25 16 35 0 30 30 29
80 -2 72 -45 106 -49 163 -19 122 65 147 106 147 237 l0 99 -49 49 c-55 55
-147 86 -189 63 -11 -6 -35 -11 -52 -11 -39 0 -92 -41 -125 -97 -34 -56 -36
-186 -5 -226 24 -31 26 -67 4 -67 -9 0 -29 -8 -44 -17 -41 -24 -70 -2 -93 68
l-17 54 30 26 c41 35 41 73 -1 95 -33 17 -33 18 -12 104 9 34 11 35 55 35 58
0 78 17 78 65 0 35 3 39 53 65 72 36 106 32 121 -15 15 -46 33 -44 71 7 35 48
35 48 95 26z m-54 -259 c45 -47 50 -72 24 -116 -59 -101 -196 -89 -216 19 -20
109 116 178 192 97z"/>
</g>
</svg>
