<?xml version="1.0" standalone="no"?>
<!DOCTYPE svg PUBLIC "-//W3C//DTD SVG 20010904//EN"
 "http://www.w3.org/TR/2001/REC-SVG-20010904/DTD/svg10.dtd">
<svg version="1.0" xmlns="http://www.w3.org/2000/svg"
 width="243.176136pt" height="243.444028pt" viewBox="0 0 243.176136 243.444028"
 preserveAspectRatio="xMidYMid meet">
<metadata>
Created by potrace 1.16, written by Peter Selinger 2001-2019
</metadata>
<g transform="translate(-44.956736,292.083450) scale(0.100000,-0.100000)"
fill="#000000" stroke="none">
<path d="M844 2877 c-44 -23 -87 -48 -95 -54 -8 -7 -39 -33 -70 -57 -58 -46
-144 -147 -172 -201 -77 -151 -77 -425 0 -610 58 -137 194 -398 236 -450 4 -5
28 -37 52 -70 93 -127 176 -230 193 -239 22 -12 156 -145 168 -167 23 -43 342
-281 434 -325 25 -12 60 -34 79 -48 19 -14 41 -26 49 -26 8 0 25 -9 39 -20 14
-11 34 -20 43 -20 10 0 23 -7 30 -15 7 -8 20 -15 29 -15 9 0 30 -9 46 -20 17
-11 42 -20 56 -20 15 0 46 -7 70 -16 105 -36 444 -13 501 35 7 6 32 24 56 39
86 56 239 256 258 337 25 104 -3 178 -95 251 -31 24 -60 48 -66 52 -5 5 -39
24 -75 44 -122 66 -145 80 -180 107 -73 56 -126 83 -188 98 -34 8 -105 -31
-155 -85 -168 -180 -170 -182 -199 -182 -28 0 -142 59 -196 101 -15 11 -44 33
-66 49 -55 42 -193 174 -246 235 -83 96 -167 210 -175 235 -4 14 -16 37 -26
52 -46 64 -19 115 107 205 85 61 117 93 138 140 19 42 19 43 -4 105 -13 35
-31 72 -40 83 -9 11 -22 31 -28 45 -7 14 -21 39 -32 55 -11 17 -44 77 -73 135
-63 124 -136 240 -151 240 -6 0 -22 9 -36 20 -44 34 -120 26 -216 -23z m194
-90 c14 -11 72 -95 72 -103 0 -6 85 -176 120 -242 10 -18 24 -41 32 -50 65
-82 67 -172 2 -188 -24 -6 -64 17 -64 37 0 5 -16 33 -35 64 -20 30 -39 63 -42
73 -4 9 -19 35 -34 57 -15 22 -51 87 -81 145 -30 58 -64 121 -76 140 -32 50
-28 66 16 78 39 10 68 7 90 -11z m-191 -134 c16 -27 51 -88 78 -138 26 -49 69
-123 96 -163 27 -41 49 -78 49 -84 0 -6 11 -25 24 -42 27 -36 56 -90 56 -105
0 -6 -15 -28 -34 -49 -123 -136 -32 -349 279 -657 123 -123 159 -152 304 -247
54 -37 68 -44 139 -74 65 -28 138 -1 204 74 32 36 45 34 119 -15 23 -15 49
-33 58 -38 77 -49 134 -90 187 -134 6 -5 30 -18 53 -29 71 -35 181 -122 181
-144 0 -57 -165 -186 -260 -203 -120 -21 -188 -25 -235 -14 -27 6 -70 15 -95
19 -58 11 -141 39 -161 57 -8 7 -22 13 -31 13 -8 0 -27 9 -41 20 -14 11 -31
20 -39 20 -7 0 -24 9 -38 20 -14 11 -28 20 -32 20 -4 0 -27 14 -51 30 -25 17
-49 30 -55 30 -5 0 -59 39 -120 88 -61 48 -128 100 -149 115 -52 38 -302 288
-339 338 -16 22 -63 84 -105 137 -42 53 -97 134 -123 180 -85 150 -126 230
-126 245 0 8 -7 20 -15 27 -8 7 -17 28 -21 49 -4 20 -11 45 -17 56 -22 41 -37
216 -26 305 13 110 43 173 122 253 100 103 120 108 164 40z m1426 -1313 c14
-11 29 -20 35 -20 5 0 31 -16 57 -36 26 -20 72 -50 102 -66 30 -16 76 -44 102
-62 26 -19 56 -36 67 -40 11 -3 43 -28 72 -54 50 -46 51 -48 44 -92 -9 -59
-36 -65 -94 -18 -23 18 -54 40 -69 48 -97 52 -169 96 -204 124 -22 18 -60 44
-85 59 -75 45 -135 93 -138 109 -3 17 51 68 72 68 8 0 25 -9 39 -20z"/>
<path d="M1704 2913 c-15 -11 -34 -48 -34 -65 0 -43 23 -51 147 -53 86 -2 129
-7 151 -19 17 -9 43 -16 57 -16 28 0 221 -91 301 -142 81 -51 264 -234 264
-263 0 -7 8 -23 19 -36 10 -13 22 -35 26 -49 4 -14 16 -36 26 -49 11 -13 19
-32 19 -41 0 -10 6 -23 14 -29 8 -7 17 -27 21 -44 3 -18 12 -48 20 -67 15 -39
45 -226 45 -278 0 -65 45 -95 84 -56 25 25 22 235 -4 289 -11 22 -19 59 -20
81 0 23 -6 47 -14 53 -8 7 -17 24 -21 39 -10 44 -75 172 -128 252 -46 70 -67
93 -190 208 -61 56 -167 129 -201 138 -14 3 -29 10 -32 15 -13 21 -213 99
-255 99 -15 0 -46 7 -70 16 -49 17 -208 30 -225 17z"/>
<path d="M1682 2588 c-19 -19 -14 -56 11 -72 26 -17 123 -36 182 -36 27 0 52
-7 68 -20 14 -11 34 -20 46 -20 11 0 51 -12 88 -27 112 -46 296 -243 320 -342
3 -14 12 -33 20 -42 8 -9 16 -34 20 -55 3 -22 11 -58 19 -82 8 -23 14 -70 14
-103 0 -103 66 -141 100 -59 24 58 -19 298 -66 364 -8 11 -14 27 -14 35 0 23
-108 178 -164 235 -85 87 -252 185 -341 202 -22 4 -54 13 -72 21 -41 17 -214
18 -231 1z"/>
<path d="M1676 2281 c-16 -17 -18 -27 -10 -48 10 -29 14 -30 148 -53 132 -22
237 -93 288 -195 50 -100 58 -126 58 -189 0 -60 2 -66 32 -91 l32 -27 28 33
c32 39 32 37 13 109 -8 30 -15 66 -15 80 0 14 -9 42 -20 63 -11 20 -20 42 -20
48 0 19 -70 120 -110 160 -66 66 -189 115 -305 124 -94 6 -101 6 -119 -14z"/>
</g>
</svg>
