<?xml version="1.0" standalone="no"?>
<!DOCTYPE svg PUBLIC "-//W3C//DTD SVG 20010904//EN"
 "http://www.w3.org/TR/2001/REC-SVG-20010904/DTD/svg10.dtd">
<svg version="1.0" xmlns="http://www.w3.org/2000/svg"
 width="335.319389pt" height="306.273868pt" viewBox="0 0 335.319389 306.273868"
 preserveAspectRatio="xMidYMid meet">
<metadata>
Created by potrace 1.16, written by Peter Selinger 2001-2019
</metadata>
<g transform="translate(-40.168344,368.168540) scale(0.100000,-0.100000)"
fill="#000000" stroke="none">
<path d="M502 3671 c-9 -5 -12 -32 -10 -87 3 -77 4 -79 28 -79 24 0 25 2 27
77 3 80 -12 109 -45 89z"/>
<path d="M1073 3668 c-18 -22 -17 -253 2 -268 25 -21 44 -4 47 42 3 41 4 43
42 49 63 10 88 47 84 123 -3 58 -4 61 -28 61 -22 0 -25 -4 -26 -40 -2 -68 -3
-74 -25 -86 -31 -16 -43 1 -49 69 -5 58 -24 78 -47 50z"/>
<path d="M1395 3660 c-10 -11 -23 -20 -29 -20 -21 0 -66 -54 -66 -80 0 -54 24
-70 98 -67 74 2 85 9 71 44 -5 14 -9 46 -9 72 0 68 -29 91 -65 51z m0 -90 c0
-27 -22 -39 -31 -16 -8 22 3 49 19 43 6 -2 12 -14 12 -27z"/>
<path d="M1552 3668 c-7 -7 -12 -38 -12 -73 0 -71 18 -105 57 -105 23 0 25 3
18 33 -3 17 -9 59 -13 92 -7 62 -24 79 -50 53z"/>
<path d="M1674 3655 c-8 -33 3 -146 15 -158 5 -5 17 -7 26 -3 13 5 15 20 13
93 -3 82 -4 88 -25 91 -17 3 -24 -3 -29 -23z"/>
<path d="M1797 3673 c-4 -3 -7 -37 -7 -75 l0 -68 40 -26 c45 -30 73 -28 117
10 26 23 27 26 11 42 -15 15 -18 15 -46 -2 -26 -14 -33 -15 -46 -5 -28 23 -20
51 14 51 48 0 92 27 88 53 -4 30 -43 35 -58 8 -14 -26 -32 -27 -55 -1 -18 20
-46 26 -58 13z"/>
<path d="M2032 3668 c-14 -14 -17 -145 -3 -166 5 -8 17 -12 27 -10 17 3 19 13
19 93 0 93 -11 115 -43 83z"/>
<path d="M2154 3667 c-3 -8 -4 -49 -2 -93 3 -77 4 -79 28 -79 24 0 25 2 28 78
3 80 -6 107 -35 107 -7 0 -16 -6 -19 -13z"/>
<path d="M2277 3674 c-4 -4 -7 -37 -7 -73 0 -80 17 -111 61 -111 32 0 37 16
17 53 -7 12 -15 47 -18 77 -4 46 -8 55 -25 58 -12 2 -24 0 -28 -4z"/>
<path d="M2513 3663 c-4 -10 -1 -19 6 -21 8 -3 22 -13 32 -23 10 -10 30 -21
44 -25 18 -4 25 -13 25 -29 0 -33 -29 -40 -56 -14 -27 25 -54 19 -54 -11 0
-22 53 -60 84 -60 30 0 86 40 92 67 7 26 -61 103 -91 103 -7 0 -18 7 -25 15
-17 20 -49 19 -57 -2z"/>
<path d="M2742 3663 c-12 -25 0 -137 18 -158 12 -14 25 -16 74 -11 75 8 74 6
77 93 4 76 3 80 -21 83 -35 5 -40 0 -40 -47 0 -97 -47 -102 -52 -6 -3 51 -6
58 -25 61 -13 2 -25 -4 -31 -15z"/>
<path d="M2986 3668 c-14 -45 -15 -256 -2 -267 23 -19 51 -9 54 19 7 64 11 70
45 70 64 0 120 140 72 180 -25 21 -51 0 -47 -39 3 -38 -22 -91 -43 -91 -16 0
-23 24 -27 90 -3 38 -6 45 -26 48 -12 2 -24 -3 -26 -10z"/>
<path d="M3226 3668 c-2 -7 -7 -68 -10 -135 -5 -113 -3 -124 14 -133 29 -16
50 -2 50 34 0 42 9 54 45 58 60 7 111 126 74 172 -27 33 -55 11 -51 -41 3 -29
-2 -43 -17 -57 -33 -30 -50 -14 -53 51 -3 51 -6 58 -26 61 -12 2 -24 -3 -26
-10z"/>
<path d="M3460 3662 c-31 -25 -12 -120 32 -158 35 -28 40 -29 79 -8 68 35 93
174 32 174 -23 0 -25 -3 -21 -37 5 -37 -21 -93 -42 -93 -17 0 -34 45 -35 89 0
51 -12 60 -45 33z"/>
<path d="M3703 3668 c-5 -7 -9 -47 -9 -88 1 -73 2 -75 26 -75 24 0 25 3 32 80
3 44 4 83 1 88 -7 11 -40 8 -50 -5z"/>
<path d="M407 3663 c-14 -22 3 -167 17 -152 4 4 10 120 7 147 -1 13 -17 16
-24 5z"/>
<path d="M1457 3015 c-72 -34 -94 -59 -101 -114 -4 -31 -15 -58 -31 -75 -41
-45 -45 -60 -45 -196 0 -138 12 -183 51 -195 9 -3 98 -6 199 -7 l183 -1 24 27
c22 26 23 35 23 175 l0 147 -40 39 c-28 27 -40 48 -40 67 0 52 -35 103 -89
132 -60 31 -72 31 -134 1z m104 -76 c25 -13 48 -65 42 -90 -5 -17 -16 -19 -84
-19 -91 0 -104 11 -75 65 27 49 75 67 117 44z m112 -208 c17 -17 22 -174 7
-211 l-12 -30 -148 0 c-126 0 -149 2 -154 16 -11 28 -7 219 5 231 16 16 285
11 302 -6z"/>
<path d="M1482 2668 c-32 -32 -6 -108 36 -108 38 0 52 17 52 60 0 43 -14 60
-50 60 -14 0 -31 -5 -38 -12z"/>
<path d="M3424 3015 c-28 -13 -63 -38 -77 -55 -31 -36 -29 -32 -32 -85 -2 -31
-9 -45 -36 -67 l-34 -29 0 -155 0 -156 29 -24 c28 -25 28 -25 210 -21 186 5
221 12 230 47 6 21 9 118 8 228 -2 92 -2 93 -31 110 -32 18 -51 50 -51 85 0
31 -51 90 -104 121 -53 31 -49 31 -112 1z m109 -94 c21 -21 28 -37 25 -58 -3
-27 -6 -28 -68 -35 -122 -12 -144 10 -76 78 51 52 79 55 119 15z m96 -181 c30
-19 39 -201 12 -234 -19 -23 -292 -24 -311 -1 -18 21 -20 201 -3 225 13 18 26
19 154 18 77 -1 143 -5 148 -8z"/>
<path d="M3451 2681 c-34 -22 -22 -117 16 -132 38 -14 63 12 63 67 0 61 -37
91 -79 65z"/>
<path d="M1930 2417 c-50 -25 -59 -46 -67 -155 l-5 -63 -31 7 c-17 3 -79 6
-136 6 -127 -1 -131 2 -131 83 0 81 -36 121 -71 79 -14 -17 -15 -202 -1 -216
10 -10 323 -14 351 -4 23 8 24 7 17 -33 -4 -28 -1 -53 10 -79 18 -43 12 -143
-12 -179 -14 -22 -19 -23 -188 -23 -192 0 -210 -5 -188 -55 13 -29 4 -28 227
-29 l160 -1 7 -75 c3 -41 3 -109 0 -150 l-7 -75 -182 -5 c-118 -3 -186 -9
-194 -17 -20 -20 -16 -158 5 -182 l19 -21 24 22 c16 15 23 33 23 59 0 21 4 40
8 43 4 2 73 6 152 7 l145 2 6 -59 c7 -71 14 -86 59 -119 l34 -25 552 0 552 0
31 35 c30 35 35 54 31 122 -2 50 16 76 43 61 13 -8 74 -15 147 -18 l125 -5 3
-39 c2 -21 10 -49 19 -62 22 -35 12 -48 -55 -72 -63 -24 -85 -46 -97 -100 -4
-19 -21 -49 -37 -68 -58 -66 -51 -326 11 -375 46 -38 397 -18 423 24 4 7 8 81
8 164 l0 153 -37 23 c-30 19 -41 35 -58 88 -19 59 -25 66 -69 89 l-48 25 8 50
c9 53 7 172 -2 187 -4 6 -84 8 -190 7 -101 -2 -186 0 -189 3 -11 11 -7 280 5
292 8 8 63 10 186 7 185 -3 204 0 204 43 0 43 -14 46 -207 46 -138 0 -185 3
-188 13 -8 20 -8 168 0 233 l7 61 177 -5 c210 -5 204 -8 209 105 5 83 -10 133
-39 133 -26 0 -39 -31 -39 -94 0 -74 -7 -77 -177 -74 l-138 3 -6 75 c-6 90
-10 99 -52 128 l-33 22 -535 -1 c-529 0 -534 0 -579 -22z m1101 -74 c15 -18
20 -252 7 -285 -7 -17 -41 -18 -525 -18 -285 0 -523 4 -529 8 -26 17 -34 56
-34 157 0 98 2 108 24 130 l24 24 510 0 c460 1 511 -1 523 -16z m0 -400 c14
-14 18 -268 4 -281 -9 -9 -651 -18 -933 -14 -105 2 -115 4 -137 27 -48 47 -28
266 24 278 47 10 1031 1 1042 -10z m-1 -388 c18 -21 20 -279 3 -296 -20 -20
-1031 -19 -1055 1 -54 45 -40 257 20 289 10 5 219 10 502 11 266 0 486 3 489
5 9 10 29 5 41 -10z m514 -464 c10 -11 16 -30 14 -43 -3 -22 -7 -23 -88 -23
-74 0 -85 2 -88 18 -11 57 120 95 162 48z m90 -157 c20 -20 23 -191 4 -217
-20 -25 -285 -28 -303 -3 -26 35 -30 191 -6 219 18 23 283 24 305 1z"/>
<path d="M2037 2263 c-15 -27 -16 -82 -2 -96 73 -73 195 -5 140 79 -21 33 -43
30 -60 -8 l-14 -33 -11 33 c-11 30 -42 44 -53 25z"/>
<path d="M2628 2239 c-10 -5 -18 -20 -18 -32 0 -51 64 -67 76 -20 12 45 -21
75 -58 52z"/>
<path d="M2761 2236 c-7 -8 -11 -27 -9 -43 5 -48 88 -42 88 8 0 40 -55 64 -79
35z"/>
<path d="M2894 2215 c-8 -33 12 -57 45 -53 22 3 26 8 26 38 0 32 -3 35 -32 38
-28 3 -33 -1 -39 -23z"/>
<path d="M2030 1844 c-30 -78 -2 -119 74 -109 64 9 85 20 96 51 19 49 -35 101
-70 69 -19 -18 -50 -14 -50 5 0 22 -41 9 -50 -16z m85 -64 c0 -27 -20 -38 -28
-15 -8 20 3 47 17 42 6 -2 11 -14 11 -27z"/>
<path d="M2638 1843 c-25 -6 -32 -40 -14 -68 27 -41 66 -26 66 25 0 24 -17 52
-29 49 -4 -1 -14 -3 -23 -6z"/>
<path d="M2760 1834 c-21 -24 -1 -68 33 -72 21 -3 29 2 36 20 19 52 -35 93
-69 52z"/>
<path d="M2913 1839 c-17 -6 -23 -16 -23 -37 0 -64 73 -73 78 -10 4 43 -18 61
-55 47z"/>
<path d="M2034 1449 c-13 -21 -7 -90 9 -107 13 -13 21 -13 42 -4 14 7 41 12
58 12 58 0 73 37 36 84 -25 32 -56 34 -61 4 -4 -31 -25 -33 -32 -3 -7 26 -39
35 -52 14z"/>
<path d="M2619 1429 c-27 -27 -21 -61 14 -70 21 -6 30 -3 42 14 39 55 -9 103
-56 56z"/>
<path d="M2763 1438 c-19 -25 -21 -46 -7 -67 21 -29 61 -28 76 4 20 45 -40
100 -69 63z"/>
<path d="M2906 1428 c-23 -32 -20 -57 9 -70 40 -18 72 22 54 70 -11 28 -43 28
-63 0z"/>
<path d="M3454 875 c-42 -42 -20 -115 36 -115 43 0 60 50 34 98 -25 46 -38 49
-70 17z"/>
<path d="M1444 1190 c-51 -23 -80 -58 -88 -110 -4 -29 -16 -51 -38 -70 l-32
-29 -4 -146 c-7 -215 -1 -219 269 -209 229 8 209 -10 209 189 l0 165 -27 17
c-34 21 -43 34 -64 96 -19 57 -45 87 -73 87 -12 0 -34 7 -50 15 -36 19 -51 18
-102 -5z m131 -95 c49 -48 31 -78 -50 -80 -70 -2 -95 9 -95 40 0 63 96 90 145
40z m93 -157 c17 -17 17 -224 0 -234 -18 -12 -281 -12 -295 -1 -14 10 -19 200
-7 231 8 21 282 24 302 4z"/>
<path d="M1491 886 c-17 -21 -24 -95 -10 -112 17 -20 57 -17 69 5 35 67 -16
159 -59 107z"/>
</g>
</svg>
