<?xml version="1.0" standalone="no"?>
<!DOCTYPE svg PUBLIC "-//W3C//DTD SVG 20010904//EN"
 "http://www.w3.org/TR/2001/REC-SVG-20010904/DTD/svg10.dtd">
<svg version="1.0" xmlns="http://www.w3.org/2000/svg"
 width="242.628111pt" height="238.419482pt" viewBox="0 0 242.628111 238.419482"
 preserveAspectRatio="xMidYMid meet">
<metadata>
Created by potrace 1.16, written by Peter Selinger 2001-2019
</metadata>
<g transform="translate(-43.589843,281.534677) scale(0.100000,-0.100000)"
fill="#000000" stroke="none">
<path d="M1870 2809 c-30 -5 -97 -22 -149 -37 l-95 -28 -99 33 c-271 90 -457
0 -542 -262 -30 -90 -35 -228 -10 -261 8 -10 15 -32 15 -49 0 -16 8 -43 18
-60 10 -16 22 -43 26 -60 4 -16 13 -37 20 -45 43 -52 66 -137 67 -246 1 -140
30 -323 57 -357 5 -7 12 -25 16 -41 4 -16 16 -41 27 -54 10 -14 19 -30 19 -36
0 -45 135 -106 194 -86 42 14 83 75 91 137 4 27 13 66 20 88 7 22 16 67 20
100 4 33 12 65 17 71 5 7 14 31 21 55 10 36 18 45 39 47 31 4 52 -47 73 -175
8 -45 18 -91 24 -102 6 -11 11 -37 11 -58 0 -21 7 -49 15 -63 8 -14 19 -35 24
-47 19 -41 55 -56 123 -51 61 4 63 6 115 63 29 32 53 63 53 69 0 6 7 25 16 41
27 50 63 249 70 388 5 102 11 139 25 165 11 18 19 41 19 51 0 10 9 26 20 36
11 10 20 27 20 37 0 10 6 29 14 41 8 12 17 38 21 57 4 19 14 48 22 63 21 41
20 259 -1 289 -9 12 -16 29 -16 36 0 19 -47 95 -90 144 -81 94 -190 129 -330
107z m130 -126 c71 -19 160 -98 160 -140 0 -8 10 -27 21 -43 27 -36 24 -222
-4 -275 -94 -178 -118 -265 -137 -500 -7 -77 -18 -157 -26 -178 -8 -20 -14
-52 -14 -70 0 -17 -7 -43 -15 -57 -8 -14 -19 -37 -26 -53 -38 -94 -101 -22
-115 133 -3 36 -11 83 -19 105 -7 22 -16 54 -19 70 -32 150 -160 222 -248 139
-34 -33 -73 -111 -83 -169 -4 -21 -12 -51 -19 -65 -7 -14 -16 -53 -19 -88 -10
-98 -35 -164 -60 -160 -24 3 -97 135 -97 174 0 13 -6 38 -14 56 -8 18 -19 103
-26 188 -12 170 -28 249 -61 319 -72 151 -82 186 -87 294 -3 86 -1 104 19 145
75 155 148 200 284 173 60 -12 201 -76 235 -106 8 -7 27 -16 42 -20 15 -4 32
-13 39 -21 14 -17 110 -19 127 -2 20 20 14 56 -14 74 -40 27 -28 54 31 74 66
23 75 23 145 3z"/>
<path d="M2293 1844 c-30 -13 -51 -71 -58 -154 -20 -251 -126 -483 -249 -547
-48 -25 -146 -13 -194 23 -124 96 -166 103 -229 42 -117 -112 -256 -117 -354
-12 -35 37 -50 61 -83 131 -9 17 -20 34 -25 37 -5 4 -12 25 -16 49 -4 23 -14
51 -21 62 -8 11 -14 33 -14 50 0 16 -9 66 -20 110 -11 44 -20 99 -20 122 0 37
-4 44 -36 64 -36 22 -40 22 -148 11 -155 -16 -242 -31 -306 -55 -93 -35 -85
30 -83 -659 l2 -611 28 -29 c15 -16 43 -33 63 -39 23 -7 400 -9 1152 -7 l1118
3 30 31 31 31 1 604 c1 332 -2 614 -6 626 -9 27 -95 73 -136 73 -16 0 -74 9
-129 19 -104 20 -277 35 -298 25z m-1386 -134 c7 -14 13 -51 13 -83 0 -32 5
-68 12 -80 6 -12 17 -47 24 -77 18 -76 44 -152 61 -171 7 -8 13 -22 13 -29 0
-8 11 -31 25 -52 14 -21 37 -56 51 -78 66 -100 235 -161 345 -125 57 19 153
67 180 91 20 18 33 18 50 -2 7 -9 46 -32 86 -51 128 -62 283 -35 374 64 62 68
156 262 175 363 27 143 49 237 59 249 21 22 281 -22 358 -61 27 -14 26 -1092
-1 -1107 -12 -6 -412 -10 -1085 -10 -960 -1 -1068 1 -1082 15 -14 14 -15 58
-12 383 2 201 0 435 -4 520 -4 85 -4 164 1 175 9 25 115 62 200 71 30 3 62 10
70 16 27 17 74 6 87 -21z"/>
<path d="M2560 1506 c-28 -35 11 -93 48 -70 35 22 22 84 -18 84 -10 0 -23 -7
-30 -14z"/>
<path d="M654 1356 c-12 -31 0 -61 25 -61 31 0 50 28 35 53 -14 22 -52 28 -60
8z"/>
<path d="M2364 1316 c-10 -26 1 -51 23 -54 23 -3 42 35 28 57 -9 16 -45 13
-51 -3z"/>
<path d="M848 1279 c-25 -14 -22 -36 7 -55 34 -22 65 -10 65 26 0 37 -34 51
-72 29z"/>
<path d="M2494 1123 c-5 -19 -2 -30 11 -40 39 -27 63 -7 51 42 -9 36 -53 35
-62 -2z"/>
<path d="M2262 1128 c-26 -26 0 -61 40 -50 14 3 18 12 16 31 -3 29 -35 40 -56
19z"/>
<path d="M672 1078 c-27 -27 -5 -88 31 -88 46 0 64 52 29 83 -22 20 -43 22
-60 5z"/>
<path d="M2594 986 c-10 -26 1 -51 22 -54 24 -3 38 20 29 49 -7 22 -43 25 -51
5z"/>
<path d="M910 975 c-18 -21 -8 -50 19 -53 31 -5 45 11 37 42 -7 29 -36 35 -56
11z"/>
<path d="M1570 922 c-39 -31 -3 -72 45 -50 27 12 32 37 13 56 -17 17 -32 15
-58 -6z"/>
<path d="M2282 918 c-27 -27 -6 -68 34 -68 52 0 61 73 9 78 -17 2 -36 -3 -43
-10z"/>
<path d="M1095 900 c-37 -41 9 -95 54 -63 26 18 27 45 3 66 -24 22 -35 21 -57
-3z"/>
<path d="M2074 896 c-10 -25 0 -51 20 -54 27 -6 48 25 35 49 -12 22 -47 25
-55 5z"/>
<path d="M1802 878 c-17 -17 -15 -63 3 -78 22 -18 64 -4 71 24 12 50 -40 88
-74 54z"/>
<path d="M1314 764 c-47 -52 -54 -74 -29 -94 23 -19 117 73 113 110 -5 42 -35
36 -84 -16z"/>
<path d="M2547 794 c-28 -28 11 -91 44 -73 31 16 23 73 -11 77 -14 2 -29 0
-33 -4z"/>
<path d="M723 767 c-41 -45 -35 -87 11 -87 27 0 36 17 36 65 0 41 -21 51 -47
22z"/>
<path d="M1578 719 c-22 -12 -23 -42 -3 -59 32 -26 81 13 59 48 -14 21 -33 25
-56 11z"/>
<path d="M1007 699 c-20 -28 -10 -59 19 -59 31 0 57 37 43 62 -13 24 -44 23
-62 -3z"/>
<path d="M1996 698 c-22 -31 -5 -58 38 -58 41 0 53 23 31 56 -19 30 -49 31
-69 2z"/>
<path d="M2334 706 c-13 -35 0 -61 33 -64 41 -4 60 24 37 56 -17 25 -62 30
-70 8z"/>
</g>
</svg>
