<?xml version="1.0" standalone="no"?>
<!DOCTYPE svg PUBLIC "-//W3C//DTD SVG 20010904//EN"
 "http://www.w3.org/TR/2001/REC-SVG-20010904/DTD/svg10.dtd">
<svg version="1.0" xmlns="http://www.w3.org/2000/svg"
 width="244.891537pt" height="212.000000pt" viewBox="0 0 244.891537 212.000000"
 preserveAspectRatio="xMidYMid meet">
<metadata>
Created by potrace 1.16, written by Peter Selinger 2001-2019
</metadata>
<g transform="translate(-43.992781,272.000000) scale(0.100000,-0.100000)"
fill="#000000" stroke="none">
<path d="M517 2693 c-82 -62 -77 10 -77 -1029 l0 -921 36 -47 c19 -26 53 -58
75 -71 l39 -25 1079 0 c776 0 1082 3 1087 11 3 6 21 17 40 25 21 9 43 31 61
61 l28 48 3 860 c3 1030 4 1021 -99 1088 l-41 27 -1097 0 -1097 0 -37 -27z
m2250 -100 l28 -36 3 -869 c3 -941 3 -931 -52 -973 l-32 -25 -620 -2 c-340 -1
-814 -1 -1053 0 l-433 2 -39 39 -39 39 0 911 c0 898 0 911 20 931 20 20 33 20
1104 20 l1085 0 28 -37z"/>
<path d="M657 2533 c-13 -12 -7 -61 8 -67 33 -12 61 19 50 55 -6 19 -44 26
-58 12z"/>
<path d="M785 2520 c-9 -30 20 -70 50 -70 35 0 51 34 30 66 -20 31 -71 34 -80
4z"/>
<path d="M926 2524 c-16 -43 -1 -70 33 -59 37 12 30 75 -8 75 -11 0 -22 -7
-25 -16z"/>
<path d="M1066 2524 c-29 -29 -13 -68 25 -62 40 5 37 77 -3 78 -4 0 -14 -7
-22 -16z"/>
<path d="M641 2370 c-34 -22 -35 -48 -39 -803 -4 -764 -4 -777 32 -777 8 0 12
197 13 733 3 732 3 732 24 750 20 16 79 17 918 18 1010 1 1063 1 1074 -11 17
-16 9 -1424 -8 -1436 -8 -6 -15 -21 -15 -33 0 -25 35 -29 66 -7 18 14 19 35
21 775 3 873 13 790 -100 792 -234 4 -1980 3 -1986 -1z"/>
<path d="M814 2188 c-52 -83 -50 -73 -53 -404 l-2 -311 23 -29 c13 -16 30 -40
39 -52 l14 -24 373 -1 373 -1 24 25 24 24 2 352 c2 464 29 426 -295 422 -280
-3 -442 -1 -483 6 -20 4 -34 1 -39 -7z m740 -37 c33 -28 40 -70 17 -101 -25
-34 -26 -46 -7 -53 12 -5 14 -35 11 -164 -2 -87 -3 -188 -4 -225 0 -45 -5 -75
-16 -92 -15 -23 -15 -25 4 -36 29 -15 28 -58 -1 -69 -35 -13 -49 -2 -46 33 3
26 0 30 -17 28 -70 -13 -135 1 -135 29 0 16 44 49 77 58 42 12 93 48 93 67 0
25 -30 28 -55 4 -15 -14 -41 -24 -69 -27 -25 -3 -51 -12 -57 -19 -26 -31 -79
4 -90 59 -4 16 -6 16 -23 4 -34 -25 -14 -84 35 -103 51 -21 61 -40 43 -83 -12
-30 -17 -33 -42 -27 -35 9 -52 9 -79 1 -17 -5 -23 -2 -28 17 -12 38 -26 50
-41 37 -19 -16 -17 -49 4 -66 16 -13 15 -14 -8 -9 -14 3 -35 6 -47 6 -16 0
-23 6 -23 19 0 57 -44 72 -61 21 -13 -37 -41 -39 -57 -6 -6 13 -20 27 -31 31
-32 10 -29 74 4 103 29 25 32 47 9 56 -26 10 -53 -3 -60 -29 -7 -26 -31 -51
-40 -42 -4 3 -3 50 1 104 l7 97 20 -23 c10 -14 17 -29 14 -36 -2 -7 6 -10 25
-7 33 5 59 -12 59 -39 0 -12 10 -21 28 -25 15 -4 35 -14 45 -22 12 -11 21 -12
28 -5 8 8 5 14 -10 22 -34 19 -28 64 10 78 19 8 34 23 42 42 7 21 18 31 32 31
11 0 33 7 49 15 28 15 29 14 65 -25 20 -22 42 -40 49 -40 7 0 19 -15 27 -34
20 -47 21 -47 109 -32 112 20 138 49 92 103 -14 16 -28 41 -31 56 -4 14 -13
31 -21 38 -26 22 -2 61 27 43 16 -9 39 16 39 42 0 24 -23 33 -35 14 -3 -5 -18
-10 -33 -10 -15 0 -38 -7 -50 -16 -21 -14 -25 -14 -40 -1 -33 28 -62 39 -76
28 -15 -13 -100 -17 -136 -7 -29 8 -67 -14 -56 -32 4 -7 27 -12 51 -12 31 0
47 -5 53 -17 9 -15 15 -15 50 -5 96 29 142 8 109 -51 -22 -38 -13 -51 32 -43
39 6 91 -31 91 -65 0 -29 -18 -32 -90 -13 -59 15 -70 21 -81 48 -8 17 -23 33
-34 35 -11 1 -27 10 -37 18 -9 8 -25 13 -35 12 -10 -1 -36 3 -58 9 -53 16 -65
15 -65 -4 0 -14 -89 -103 -111 -112 -11 -4 -79 50 -79 63 0 6 14 25 31 43 31
34 66 42 75 18 7 -18 29 -27 49 -20 21 8 19 32 -5 46 -25 16 -25 29 0 51 21
17 17 47 -6 47 -7 0 -22 -10 -33 -21 -16 -17 -27 -20 -55 -15 -68 13 -91 106
-33 134 32 16 34 27 7 42 -17 9 -26 4 -64 -37 l-45 -47 -6 26 c-12 47 -2 72
35 90 44 21 688 21 714 -1z m-654 -247 c0 -14 -51 -54 -69 -54 -6 0 -11 15
-11 33 0 17 -3 50 -7 72 l-6 39 46 -38 c26 -21 47 -44 47 -52z m-51 -424 c17
-28 41 -54 53 -59 12 -4 17 -10 12 -13 -5 -3 -29 2 -54 11 -44 16 -45 18 -48
64 -4 59 -1 59 37 -3z"/>
<path d="M975 2110 c-6 -10 45 -40 70 -40 11 0 15 -11 15 -40 0 -37 2 -40 28
-40 35 0 52 16 52 51 0 34 14 39 105 39 68 0 98 11 80 28 -4 4 -49 9 -100 10
-84 4 -95 2 -114 -17 l-21 -21 -20 20 c-21 21 -84 28 -95 10z"/>
<path d="M1467 2114 c-8 -8 21 -44 35 -44 5 0 8 10 6 22 -3 23 -27 35 -41 22z"/>
<path d="M1080 1706 c0 -7 7 -20 16 -27 9 -7 20 -23 25 -36 11 -29 20 -29 49
3 26 26 17 43 -21 44 -9 0 -22 7 -29 15 -16 19 -40 20 -40 1z"/>
<path d="M1084 1592 c-11 -7 -34 -45 -34 -57 0 -16 54 -25 68 -12 29 30 -1 91
-34 69z"/>
<path d="M2347 1944 c-147 -145 -148 -145 -190 -142 l-42 3 -5 -42 c-4 -23
-12 -48 -19 -57 -19 -23 -58 -20 -66 4 -3 11 -19 29 -36 40 -33 24 -39 68 -14
94 21 20 19 28 -14 60 -58 55 -115 -1 -60 -60 18 -20 21 -30 15 -72 -7 -56 15
-98 107 -194 l54 -58 68 0 c80 0 128 31 190 123 19 29 87 105 150 170 122 125
145 158 145 204 0 52 -24 73 -83 73 l-52 0 -148 -146z"/>
<path d="M1720 1786 c0 -26 1 -26 70 -26 54 0 72 4 77 15 8 22 7 22 -74 30
l-73 7 0 -26z"/>
<path d="M1170 1282 c-104 -8 -113 -25 -118 -237 -4 -188 6 -220 74 -243 66
-22 1051 -13 1086 10 96 63 93 405 -4 456 -21 11 -917 24 -1038 14z m1007 -74
c37 -30 41 -66 28 -202 -15 -154 -17 -156 -119 -156 -100 0 -102 2 -76 91 12
41 31 84 42 96 27 29 15 43 -35 42 -23 -1 -52 2 -64 6 -31 10 -41 -19 -19 -55
21 -36 22 -142 2 -159 -15 -13 -750 -17 -782 -4 -27 10 -34 49 -34 181 0 93 4
133 14 147 13 19 29 20 521 23 407 3 510 1 522 -10z"/>
<path d="M1857 1158 c-56 -43 -49 -236 8 -214 11 4 15 21 15 63 0 39 7 71 20
95 18 33 18 39 4 53 -19 18 -25 19 -47 3z"/>
<path d="M1757 1143 c-12 -11 -8 -23 8 -23 8 0 15 7 15 15 0 16 -12 20 -23 8z"/>
<path d="M1727 1093 c-4 -3 -25 -6 -48 -5 -62 3 -99 -21 -99 -65 0 -13 -2 -23
-4 -23 -12 0 -54 47 -57 65 -7 35 -59 27 -81 -14 l-19 -33 26 -34 c30 -39 60
-44 98 -14 25 20 26 20 32 1 14 -44 57 -33 70 17 12 47 61 73 80 42 10 -16 32
-11 37 8 10 35 -16 75 -35 55z"/>
<path d="M1246 1081 c-7 -11 3 -41 14 -41 5 0 19 -21 32 -46 12 -26 29 -49 36
-51 16 -7 52 25 52 45 0 8 7 20 16 27 13 9 15 18 7 41 -13 40 -38 42 -51 5
-12 -35 -42 -33 -67 5 -16 25 -30 30 -39 15z"/>
</g>
</svg>
