<?xml version="1.0" standalone="no"?>
<!DOCTYPE svg PUBLIC "-//W3C//DTD SVG 20010904//EN"
 "http://www.w3.org/TR/2001/REC-SVG-20010904/DTD/svg10.dtd">
<svg version="1.0" xmlns="http://www.w3.org/2000/svg"
 width="211.839065pt" height="249.796133pt" viewBox="0 0 211.839065 249.796133"
 preserveAspectRatio="xMidYMid meet">
<metadata>
Created by potrace 1.16, written by Peter Selinger 2001-2019
</metadata>
<g transform="translate(-74.151487,292.690547) scale(0.100000,-0.100000)"
fill="#000000" stroke="none">
<path d="M902 2919 c-96 -28 -147 -94 -157 -202 -3 -39 -4 -418 -3 -842 l3
-770 27 -47 c27 -45 78 -79 156 -102 16 -5 22 -15 22 -35 0 -46 15 -51 138
-51 128 0 152 8 152 49 0 17 6 31 16 35 9 3 255 6 548 6 554 0 556 0 556 -42
0 -29 40 -41 151 -46 115 -5 113 -5 149 56 16 25 26 32 51 32 20 0 45 12 74
36 79 64 75 19 75 958 l0 831 -23 40 c-12 22 -43 53 -67 70 l-45 30 -895 2
c-547 1 -908 -2 -928 -8z m1814 -92 c69 -36 68 -3 65 -1300 l-1 -418 -31 -29
-32 -29 -901 1 c-749 0 -906 3 -928 14 -31 16 -83 98 -73 114 4 6 6 353 6 771
-1 721 -1 762 17 802 43 96 0 92 993 91 759 -1 858 -3 885 -17z m-1568 -1872
c14 -13 -11 -35 -40 -35 -50 0 -68 16 -43 36 18 14 69 13 83 -1z m1428 -6 c9
-14 -14 -29 -46 -29 -14 0 -31 4 -39 9 -23 15 -2 31 39 31 21 0 42 -5 46 -11z"/>
<path d="M1690 2755 c-14 -8 -37 -19 -51 -25 -24 -10 -45 -34 -94 -105 -32
-46 -36 -63 -36 -147 0 -87 13 -123 68 -187 109 -128 338 -125 440 5 15 19 36
45 45 56 40 47 35 200 -8 274 -29 49 -89 105 -139 128 -44 21 -190 22 -225 1z
m152 -45 c51 -14 145 -102 157 -147 13 -46 5 -67 -23 -58 -11 4 -40 12 -63 18
-43 10 -43 10 -43 58 0 44 -3 49 -37 69 -66 39 -82 37 -140 -18 -33 -30 -53
-57 -53 -70 0 -33 17 -27 68 23 72 71 85 64 81 -42 -4 -84 -3 -88 18 -91 14
-2 26 4 34 20 6 13 13 25 15 26 1 2 16 -7 34 -19 21 -16 43 -23 70 -22 83 4
51 -92 -55 -164 -118 -82 -309 1 -303 131 1 36 -2 50 -15 58 -68 38 93 236
193 238 14 0 42 -5 62 -10z"/>
<path d="M2595 2756 c-27 -19 -12 -48 22 -44 33 4 42 32 15 47 -14 7 -24 7
-37 -3z"/>
<path d="M2467 2746 c-6 -15 11 -36 28 -36 17 0 34 21 28 36 -3 8 -15 14 -28
14 -13 0 -25 -6 -28 -14z"/>
<path d="M986 2126 l-26 -35 0 -439 0 -439 23 -21 23 -22 785 -5 c621 -4 789
-2 809 8 48 24 51 57 48 505 l-3 414 -37 34 -38 34 -779 0 -779 0 -26 -34z
m1565 -73 c11 -13 14 -89 16 -387 2 -440 6 -422 -90 -411 -57 6 -66 11 -112
55 -27 27 -61 54 -75 59 -14 6 -32 15 -40 19 -69 38 -104 52 -133 52 -43 0
-61 19 -48 51 19 49 45 166 48 225 8 115 -61 204 -159 204 -34 0 -52 -6 -72
-25 -15 -14 -36 -25 -47 -25 -11 0 -35 11 -53 25 -29 22 -43 25 -117 25 -95 0
-97 -1 -133 -54 -38 -56 -38 -207 0 -327 32 -103 23 -113 -131 -135 -55 -8
-94 -27 -209 -102 -81 -54 -115 -63 -136 -37 -18 22 -15 786 3 797 7 4 341 8
743 8 668 0 733 -1 745 -17z m-815 -208 c19 -8 47 -24 61 -35 33 -25 79 -26
118 0 89 59 131 8 119 -144 -9 -119 -35 -201 -76 -238 -31 -27 -35 -28 -145
-28 -63 0 -123 4 -133 10 -29 15 -74 101 -81 155 -4 28 -12 81 -17 120 -20
137 46 205 154 160z"/>
<path d="M865 751 c-91 -56 -81 -109 38 -191 20 -14 37 -32 37 -40 0 -38 -50
-53 -86 -25 -50 38 -77 -6 -27 -45 45 -35 118 -25 156 22 l30 38 -19 36 c-10
20 -42 51 -72 71 -65 43 -68 49 -46 74 14 16 26 19 55 14 59 -10 65 34 7 54
-40 14 -38 14 -73 -8z"/>
<path d="M1450 760 c-22 -14 0 -44 34 -48 l26 -3 0 -122 c0 -129 6 -151 36
-145 17 3 19 15 22 136 3 131 3 132 26 132 27 0 51 24 41 40 -3 6 -30 10 -58
9 -29 -1 -65 1 -82 5 -16 3 -37 2 -45 -4z"/>
<path d="M1725 763 c-43 -7 -45 -13 -45 -165 0 -171 -1 -170 114 -166 79 3 81
4 81 28 0 24 -3 25 -62 28 -76 4 -90 16 -69 65 12 31 20 36 53 39 30 2 38 7
38 23 0 16 -8 21 -45 25 -42 5 -45 7 -45 35 0 28 3 30 40 33 66 4 85 11 85 31
0 30 -49 38 -145 24z"/>
<path d="M1166 744 c-9 -24 -7 -277 3 -292 5 -8 17 -12 27 -10 16 3 20 15 24
78 3 51 9 75 18 74 6 -1 18 -2 26 -2 7 -1 16 -15 19 -30 15 -75 73 -135 102
-105 21 21 19 250 -3 276 -26 30 -41 9 -44 -61 -4 -89 -30 -94 -68 -15 -42 85
-89 125 -104 87z"/>
<path d="M1947 748 c-14 -11 -18 -36 -21 -130 -5 -142 1 -173 35 -173 22 0 24
4 24 50 0 49 1 50 30 50 25 0 33 -6 47 -36 18 -40 65 -82 79 -73 16 10 9 35
-21 81 -36 52 -36 55 -10 78 34 31 28 107 -11 139 -34 29 -121 37 -152 14z
m112 -52 c19 -22 10 -80 -12 -84 -57 -11 -84 27 -57 79 12 22 52 25 69 5z"/>
<path d="M2199 758 c-5 -23 -7 -270 -3 -291 5 -22 11 -27 27 -25 35 5 34 311
0 316 -13 2 -23 2 -24 0z"/>
<path d="M2332 751 c-15 -9 -27 -280 -13 -301 23 -34 46 2 46 73 0 78 16 104
35 58 7 -17 16 -31 20 -31 5 0 11 -12 15 -27 8 -36 49 -83 72 -83 17 0 18 12
18 153 0 149 0 152 -22 155 -23 3 -29 -15 -32 -102 -1 -22 -3 -41 -5 -44 -10
-10 -46 21 -46 40 0 26 -44 104 -63 111 -8 3 -19 2 -25 -2z"/>
<path d="M2632 750 c-32 -13 -42 -49 -42 -155 0 -118 23 -153 103 -162 70 -8
107 28 107 103 0 57 -15 78 -52 72 -29 -4 -35 -34 -12 -59 23 -26 9 -53 -32
-57 -43 -5 -54 19 -54 114 0 115 25 141 82 84 36 -36 62 -36 66 1 6 51 -96 87
-166 59z"/>
<path d="M1061 736 c-8 -9 -9 -43 -5 -107 3 -52 6 -113 5 -136 0 -36 3 -43 19
-43 30 0 32 27 22 263 -2 39 -20 49 -41 23z"/>
</g>
</svg>
