<?xml version="1.0" standalone="no"?>
<!DOCTYPE svg PUBLIC "-//W3C//DTD SVG 20010904//EN"
 "http://www.w3.org/TR/2001/REC-SVG-20010904/DTD/svg10.dtd">
<svg version="1.0" xmlns="http://www.w3.org/2000/svg"
 width="245.452101pt" height="212.641703pt" viewBox="0 0 245.452101 212.641703"
 preserveAspectRatio="xMidYMid meet">
<metadata>
Created by potrace 1.16, written by Peter Selinger 2001-2019
</metadata>
<g transform="translate(-44.000000,272.641703) scale(0.100000,-0.100000)"
fill="#000000" stroke="none">
<path d="M600 2721 c-57 -9 -111 -44 -138 -92 l-22 -38 0 -925 0 -925 31 -46
c17 -25 45 -56 63 -70 l33 -25 1101 0 1101 0 33 22 c19 13 46 41 60 63 l27 41
3 936 3 935 -28 40 c-15 22 -39 51 -53 64 l-26 24 -1071 1 c-590 1 -1092 -1
-1117 -5z m2170 -111 l35 -31 0 -910 0 -911 -37 -34 -38 -34 -1051 0 c-975 0
-1053 1 -1080 17 -16 10 -29 21 -29 25 0 4 -9 17 -20 28 -19 19 -19 38 -20
920 -1 735 1 904 12 917 33 40 33 40 1132 42 l1061 2 35 -31z"/>
<path d="M658 2529 c-24 -14 -23 -35 4 -53 39 -27 80 18 46 52 -14 14 -27 15
-50 1z"/>
<path d="M802 2531 c-8 -5 -12 -21 -10 -37 4 -36 36 -44 62 -15 32 35 -11 79
-52 52z"/>
<path d="M930 2525 c-19 -23 -8 -50 20 -50 19 0 26 6 28 24 5 35 -26 53 -48
26z"/>
<path d="M1057 2526 c-23 -24 -10 -56 23 -56 35 0 58 25 43 48 -14 23 -47 27
-66 8z"/>
<path d="M694 2382 c-79 -6 -74 54 -74 -803 l-1 -764 26 -23 26 -22 996 0
c1023 1 1052 2 1053 38 5 129 1 1504 -4 1519 -18 54 6 52 -1027 55 -525 2
-973 2 -995 0z m1934 -105 c18 -12 18 -1375 -1 -1400 -19 -27 -1895 -26 -1915
0 -13 18 -16 1381 -3 1401 3 5 12 11 18 13 25 8 1888 -6 1901 -14z"/>
<path d="M1215 2161 c-56 -10 -176 -72 -240 -123 -143 -115 -198 -393 -115
-584 41 -94 29 -92 455 -85 416 7 409 6 459 82 55 82 59 307 8 404 -83 155
-154 223 -293 279 -70 28 -201 41 -274 27z m210 -101 c17 -11 42 -20 56 -20
35 0 44 -25 19 -50 -11 -11 -23 -20 -27 -20 -5 0 -33 -23 -63 -52 -30 -28 -73
-59 -96 -68 -50 -22 -104 -85 -104 -122 0 -38 62 -88 111 -88 44 0 67 23 117
118 49 92 120 199 138 206 22 9 41 -3 54 -34 7 -16 18 -34 26 -41 78 -65 96
-333 27 -400 l-28 -27 -336 -7 -336 -7 -31 37 c-22 24 -32 46 -32 68 0 18 -4
48 -10 67 -12 40 1 123 33 215 24 69 134 189 184 201 15 4 39 15 52 26 36 27
203 26 246 -2z m-65 -291 c0 -25 -22 -49 -45 -49 -27 0 -34 27 -13 48 15 15
58 16 58 1z"/>
<path d="M2205 2000 c-79 -5 -80 -5 -83 -34 -2 -16 1 -33 7 -39 13 -13 372
-10 385 3 10 10 12 58 3 67 -8 8 -213 10 -312 3z"/>
<path d="M1967 1993 c-29 -28 21 -91 62 -78 22 7 37 45 27 70 -5 15 -76 22
-89 8z"/>
<path d="M1978 1779 c-39 -22 -12 -84 33 -77 29 4 43 29 35 61 -7 29 -35 35
-68 16z"/>
<path d="M2119 1769 c-8 -16 -8 -28 0 -45 l11 -24 192 2 193 3 3 28 c6 54 -3
57 -204 57 -177 0 -184 -1 -195 -21z"/>
<path d="M1976 1567 c-40 -30 11 -100 56 -76 35 19 43 51 18 71 -26 21 -49 23
-74 5z"/>
<path d="M2129 1566 c-12 -13 -12 -63 1 -71 19 -11 363 -5 377 7 17 14 17 57
0 64 -25 9 -368 9 -378 0z"/>
<path d="M1103 1215 c-111 -56 -126 -175 -30 -234 34 -21 43 -21 598 -21 l564
0 38 26 c84 57 76 178 -16 225 -36 19 -68 20 -570 25 l-532 6 -52 -27z m1125
-84 c25 -13 30 -52 8 -70 -23 -19 -316 -10 -329 10 -14 22 -1 67 21 72 40 9
278 0 300 -12z m-420 -3 c21 -21 14 -58 -14 -68 -14 -6 -159 -10 -339 -10
-180 0 -325 4 -339 10 -34 13 -36 57 -3 70 35 14 680 13 695 -2z"/>
</g>
</svg>
