<?xml version="1.0" standalone="no"?>
<!DOCTYPE svg PUBLIC "-//W3C//DTD SVG 20010904//EN"
 "http://www.w3.org/TR/2001/REC-SVG-20010904/DTD/svg10.dtd">
<svg version="1.0" xmlns="http://www.w3.org/2000/svg"
 width="241.290646pt" height="221.877040pt" viewBox="0 0 241.290646 221.877040"
 preserveAspectRatio="xMidYMid meet">
<metadata>
Created by potrace 1.16, written by Peter Selinger 2001-2019
</metadata>
<g transform="translate(-43.708897,274.975969) scale(0.100000,-0.100000)"
fill="#000000" stroke="none">
<path d="M630 2739 c-56 -11 -116 -53 -157 -112 l-32 -46 -3 -995 c-2 -1078
-5 -1014 49 -1031 17 -4 30 1 48 19 l26 26 -3 973 c-1 534 1 981 5 992 4 11
28 30 54 43 l48 22 995 0 995 0 38 -35 c20 -18 37 -42 38 -52 4 -116 -2 -1568
-7 -1585 -13 -51 -64 -68 -197 -68 -67 0 -129 5 -137 10 -11 7 -15 34 -17 111
-2 115 -11 132 -75 150 -39 10 -39 11 -33 47 6 37 -14 104 -34 117 -9 5 -355
8 -693 6 -182 -1 -188 -4 -189 -97 -1 -56 -12 -74 -44 -74 -47 0 -65 -42 -65
-149 0 -121 0 -121 -118 -121 -85 0 -96 2 -128 26 l-34 26 0 578 0 578 34 26
c33 25 39 26 170 26 153 0 150 2 152 -79 2 -74 42 -110 120 -111 71 0 79 -12
79 -121 0 -103 10 -119 77 -128 l43 -6 3 -110 c2 -98 5 -112 23 -127 58 -49
93 3 94 139 0 50 3 94 6 98 4 3 31 7 60 8 l54 2 3 -120 c3 -129 13 -155 58
-155 36 0 54 49 54 151 0 109 4 119 45 119 52 0 65 24 69 130 4 110 12 120 91
120 43 0 55 4 77 28 45 48 48 62 48 242 0 293 14 285 -510 281 -305 -2 -372
-5 -408 -18 -58 -22 -82 -63 -86 -148 -4 -90 -5 -90 -149 -87 -193 4 -242 -12
-301 -104 l-26 -41 0 -588 c0 -585 0 -588 22 -632 26 -53 69 -87 129 -103 47
-13 446 -17 509 -5 28 5 41 2 64 -16 28 -22 28 -24 22 -98 -7 -88 4 -120 48
-136 51 -18 68 19 60 125 l-7 88 30 16 c33 17 94 15 191 -6 40 -9 58 -8 80 1
19 9 112 14 312 17 435 6 457 11 521 120 l29 49 0 810 0 810 -28 51 c-34 64
-76 100 -139 119 -55 17 -1968 21 -2053 4z m1560 -359 c17 -17 19 -32 18 -147
-1 -70 -5 -136 -10 -145 -14 -30 -73 -34 -410 -34 -402 1 -368 -14 -372 169
-3 121 -2 128 20 152 l23 25 356 0 c340 0 356 -1 375 -20z m-204 -431 c16 -13
19 -91 4 -120 -15 -28 -328 -29 -352 -1 -31 36 -28 91 6 117 20 15 324 19 342
4z m162 -742 c9 -46 0 -47 -347 -47 -335 0 -378 5 -357 39 17 26 62 30 376 28
304 -2 325 -3 328 -20z m120 -184 c13 -18 16 -101 4 -120 -12 -19 -901 -21
-913 -2 -13 21 -11 103 4 122 15 21 84 23 552 19 303 -2 341 -4 353 -19z"/>
<path d="M670 2025 c-20 -24 3 -67 33 -63 25 3 35 41 17 64 -16 18 -34 18 -50
-1z"/>
<path d="M662 1847 c-29 -30 -28 -68 2 -96 48 -45 89 0 70 76 -11 47 -40 54
-72 20z"/>
<path d="M672 1648 c-43 -27 -44 -73 -4 -111 32 -31 52 -28 76 8 26 40 11 103
-28 118 -7 3 -27 -4 -44 -15z"/>
</g>
</svg>
