<?xml version="1.0" standalone="no"?>
<!DOCTYPE svg PUBLIC "-//W3C//DTD SVG 20010904//EN"
 "http://www.w3.org/TR/2001/REC-SVG-20010904/DTD/svg10.dtd">
<svg version="1.0" xmlns="http://www.w3.org/2000/svg"
 width="248.004654pt" height="270.178348pt" viewBox="0 0 248.004654 270.178348"
 preserveAspectRatio="xMidYMid meet">
<metadata>
Created by potrace 1.16, written by Peter Selinger 2001-2019
</metadata>
<g transform="translate(-51.027038,311.335932) scale(0.100000,-0.100000)"
fill="#000000" stroke="none">
<path d="M1700 3110 c-39 -7 -237 -103 -267 -129 -7 -6 -23 -11 -36 -11 -13 0
-32 -8 -41 -19 -9 -10 -59 -35 -112 -56 -52 -21 -97 -41 -100 -46 -3 -5 -15
-9 -26 -9 -12 0 -29 -7 -38 -15 -33 -30 -363 -195 -391 -195 -8 0 -23 -7 -33
-15 -11 -8 -27 -15 -37 -15 -20 0 -86 -70 -99 -106 -6 -15 -10 -305 -10 -732
l1 -706 23 -41 c38 -63 79 -89 246 -156 41 -17 82 -36 90 -44 8 -7 27 -16 42
-20 15 -4 32 -13 38 -20 6 -8 25 -17 41 -20 16 -4 31 -10 34 -14 6 -11 192
-101 207 -101 8 0 191 -84 233 -107 102 -54 121 -65 135 -77 8 -7 29 -16 45
-19 17 -3 51 -11 78 -18 41 -11 52 -10 83 4 19 9 42 17 50 17 9 0 27 9 41 20
14 11 32 20 40 20 8 0 26 9 40 20 14 11 34 20 44 20 10 0 21 4 24 10 6 9 209
110 222 110 6 0 88 37 113 51 62 34 334 165 415 199 108 46 146 74 176 132 18
35 19 70 19 736 1 776 2 758 -66 808 -35 25 -213 111 -248 120 -14 3 -30 12
-37 20 -6 8 -19 14 -29 14 -9 0 -25 9 -35 20 -10 11 -26 20 -35 20 -10 0 -29
9 -43 20 -14 11 -32 20 -40 20 -8 0 -26 9 -40 20 -14 11 -30 20 -36 20 -6 0
-41 14 -78 32 -71 33 -420 201 -463 223 -33 16 -96 23 -140 15z m154 -125 c29
-19 60 -35 69 -35 9 0 18 -4 22 -9 3 -6 38 -26 78 -46 39 -19 79 -39 87 -44
28 -15 85 -40 110 -47 42 -11 368 -174 380 -190 7 -8 19 -14 27 -14 26 0 162
-70 177 -91 22 -33 11 -44 -77 -79 -44 -17 -180 -80 -301 -139 -122 -60 -257
-123 -301 -141 -44 -19 -87 -39 -95 -45 -8 -7 -44 -26 -80 -44 -36 -17 -89
-44 -119 -61 -73 -41 -88 -39 -215 29 -174 92 -295 151 -308 151 -8 0 -160 72
-188 89 -8 5 -26 14 -40 20 -14 6 -32 15 -40 20 -8 5 -42 21 -75 36 -33 15
-69 31 -79 37 -11 6 -58 26 -105 45 -101 40 -105 44 -98 76 5 18 26 32 94 61
49 21 95 42 103 47 8 5 47 24 87 43 39 19 74 40 78 45 3 6 14 11 23 11 10 0
29 8 42 17 24 17 238 113 252 113 4 0 24 12 45 26 21 14 74 43 118 65 44 22
87 43 95 48 108 60 152 61 234 6z m-1214 -570 c7 -8 19 -15 27 -15 8 0 26 -9
40 -20 14 -11 32 -20 39 -20 13 0 331 -148 364 -170 22 -14 122 -61 220 -105
150 -66 308 -144 315 -154 3 -6 14 -11 23 -11 42 -1 42 2 44 -451 1 -239 -2
-444 -6 -456 -4 -13 -18 -26 -32 -29 -30 -8 -32 -39 -4 -54 29 -15 26 -48 -5
-56 -15 -4 -25 -13 -25 -24 0 -29 -41 -37 -58 -11 -10 14 -25 21 -46 21 -19 0
-38 8 -49 20 -9 11 -23 20 -30 20 -8 0 -34 11 -58 25 -24 14 -51 27 -59 31
-21 8 -49 22 -90 44 -19 10 -45 19 -57 20 -12 0 -27 9 -33 20 -7 13 -21 20
-41 20 -22 0 -32 5 -36 20 -4 13 -14 20 -32 20 -14 0 -35 7 -45 15 -11 8 -28
15 -38 15 -9 0 -39 14 -65 30 -26 17 -53 30 -60 30 -7 0 -34 11 -60 24 -27 14
-74 37 -105 52 -32 15 -58 30 -59 33 -10 95 -24 1095 -15 1118 7 17 21 16 36
-2z m2252 -440 c0 -309 -3 -443 -12 -475 -7 -25 -13 -65 -14 -90 -5 -125 -4
-120 -30 -120 -16 0 -26 7 -29 21 -6 24 1 49 14 49 14 0 11 44 -5 65 -13 18
-17 18 -56 5 -24 -8 -45 -22 -48 -32 -3 -14 -11 -16 -50 -11 -33 4 -48 2 -56
-8 -16 -20 -71 -58 -102 -69 -34 -13 -29 -44 9 -48 22 -3 27 1 27 17 0 14 6
21 19 21 30 0 51 11 51 25 0 17 39 30 51 18 15 -15 0 -41 -24 -45 -12 -2 -27
-14 -34 -28 -7 -13 -20 -30 -29 -37 -10 -7 -14 -19 -10 -29 6 -15 8 -16 24 0
10 9 24 16 31 16 7 0 17 13 22 30 10 28 12 29 35 14 38 -25 48 -14 45 49 -2
54 -1 56 30 72 26 14 33 15 40 3 13 -20 11 -26 -11 -33 -25 -8 -28 -62 -5 -72
20 -7 -9 -43 -35 -43 -9 0 -25 -9 -35 -20 -9 -10 -38 -27 -64 -36 -25 -10 -53
-23 -61 -30 -34 -27 -120 -65 -137 -60 -13 4 -21 -1 -28 -16 -6 -13 -29 -28
-60 -39 -27 -9 -86 -37 -130 -62 -45 -24 -95 -48 -112 -51 -17 -4 -37 -14 -44
-22 -6 -8 -19 -14 -29 -14 -9 0 -25 -9 -35 -20 -19 -21 -65 -28 -65 -10 0 6
-7 10 -15 10 -18 0 -20 -16 -4 -26 19 -11 -13 -24 -33 -13 -15 8 -20 5 -30
-16 -6 -14 -20 -25 -30 -25 -17 0 -18 7 -15 86 3 57 -1 99 -10 127 -18 52 -12
879 6 901 12 14 277 147 371 186 58 25 184 84 210 99 82 49 359 171 387 171 6
0 17 7 24 16 17 20 48 34 72 31 17 -2 18 -24 19 -432z m-1195 -1151 c8 -20
-13 -42 -27 -28 -12 12 -3 44 11 44 5 0 12 -7 16 -16z"/>
<path d="M690 1405 c-9 -11 -10 -19 -3 -26 17 -17 48 -6 48 16 0 25 -28 31
-45 10z"/>
<path d="M826 1374 c-10 -27 -7 -33 22 -36 23 -2 28 -8 30 -37 2 -23 9 -35 23
-38 10 -3 19 -13 19 -22 0 -26 29 -61 51 -61 30 0 23 33 -16 68 -31 29 -39 62
-14 62 20 0 7 21 -18 31 -15 5 -33 19 -40 29 -17 24 -49 26 -57 4z"/>
<path d="M790 1302 c0 -32 16 -52 41 -52 17 0 17 2 1 40 -20 46 -42 53 -42 12z"/>
<path d="M970 1296 c0 -18 43 -66 58 -66 27 0 19 52 -12 72 -19 13 -46 9 -46
-6z"/>
<path d="M1066 1252 c-6 -11 9 -25 37 -35 15 -6 18 -2 15 16 -3 23 -41 37 -52
19z"/>
<path d="M1046 1171 c-14 -26 -14 -30 -1 -41 13 -11 17 -7 26 19 6 17 15 31
20 31 5 0 9 5 9 10 0 23 -40 9 -54 -19z"/>
<path d="M1250 1165 c0 -9 9 -15 25 -15 16 0 25 6 25 15 0 9 -9 15 -25 15 -16
0 -25 -6 -25 -15z"/>
<path d="M1137 1163 c-15 -14 -7 -43 12 -43 24 0 33 13 25 34 -6 16 -25 21
-37 9z"/>
<path d="M1356 1103 c8 -46 9 -47 29 -40 31 12 12 77 -22 77 -11 0 -12 -9 -7
-37z"/>
<path d="M1288 1103 c7 -3 16 -2 19 1 4 3 -2 6 -13 5 -11 0 -14 -3 -6 -6z"/>
<path d="M1210 1070 c0 -5 5 -10 11 -10 5 0 7 5 4 10 -3 6 -8 10 -11 10 -2 0
-4 -4 -4 -10z"/>
<path d="M1452 1069 c2 -7 10 -15 17 -17 8 -3 12 1 9 9 -2 7 -10 15 -17 17 -8
3 -12 -1 -9 -9z"/>
<path d="M1490 1044 c0 -3 14 -19 32 -35 38 -36 59 -24 24 14 -22 24 -56 37
-56 21z"/>
<path d="M1410 1017 c0 -17 38 -53 46 -44 7 7 -25 57 -37 57 -5 0 -9 -6 -9
-13z"/>
<path d="M2465 1894 c-67 -34 -94 -117 -95 -292 0 -93 16 -122 70 -122 21 0
43 7 50 15 7 8 18 15 24 15 72 0 129 260 78 360 -20 41 -74 51 -127 24z m79
-99 c27 -114 -51 -284 -102 -222 -16 19 9 245 29 258 32 21 63 6 73 -36z"/>
<path d="M2682 1739 c-46 -34 -58 -66 -19 -54 60 19 77 18 77 -4 0 -13 -11
-26 -30 -36 -37 -19 -38 -33 -4 -60 24 -19 25 -23 11 -37 -10 -10 -26 -14 -42
-10 -40 7 -58 -24 -29 -52 30 -31 68 -20 108 31 37 47 44 67 26 78 -16 10 -12
56 6 76 15 17 15 21 -5 53 -17 27 -39 46 -55 46 -1 0 -21 -14 -44 -31z"/>
<path d="M2037 1709 c-70 -28 -117 -67 -117 -95 0 -31 39 -33 65 -4 20 23 53
26 61 7 4 -12 -37 -115 -105 -259 -37 -80 -40 -98 -19 -111 13 -9 21 -7 35 5
10 8 35 21 55 27 21 7 40 17 43 22 4 5 16 9 29 9 28 0 46 18 46 46 0 34 -15
37 -60 14 -22 -11 -45 -18 -50 -15 -15 9 -12 41 5 55 8 7 15 18 15 25 0 7 8
23 18 36 18 24 56 135 68 195 4 21 1 36 -11 47 -20 21 -18 21 -78 -4z"/>
<path d="M2239 1655 c-46 -30 -46 -31 -54 -157 -6 -89 -5 -105 9 -117 31 -26
44 -6 52 79 6 73 10 86 41 122 62 74 29 124 -48 73z"/>
<path d="M2405 1246 c-13 -19 -14 -29 -5 -45 12 -24 43 -29 34 -7 -3 8 2 25
10 38 9 14 13 28 9 31 -13 14 -33 6 -48 -17z"/>
<path d="M2333 1223 c-16 -6 -17 -69 -3 -78 6 -4 8 -16 4 -28 -5 -17 -4 -19 6
-10 14 13 33 101 24 114 -6 10 -12 10 -31 2z"/>
<path d="M2495 1190 c-3 -5 1 -10 9 -10 9 0 16 5 16 10 0 6 -4 10 -9 10 -6 0
-13 -4 -16 -10z"/>
<path d="M2220 1170 c0 -5 7 -10 15 -10 8 0 15 5 15 10 0 6 -7 10 -15 10 -8 0
-15 -4 -15 -10z"/>
<path d="M2125 1140 c-9 -15 3 -30 24 -30 21 0 44 23 34 33 -10 11 -51 8 -58
-3z"/>
<path d="M2050 1084 c0 -17 22 -14 28 4 2 7 -3 12 -12 12 -9 0 -16 -7 -16 -16z"/>
<path d="M1924 1019 c-3 -6 -2 -15 4 -21 13 -13 32 -2 32 18 0 16 -26 19 -36
3z"/>
<path d="M2095 990 c-3 -5 1 -10 10 -10 9 0 13 5 10 10 -3 6 -8 10 -10 10 -2
0 -7 -4 -10 -10z"/>
<path d="M1857 940 c-7 -32 0 -60 14 -60 5 0 8 20 7 45 -3 52 -13 59 -21 15z"/>
</g>
</svg>
