<?xml version="1.0" standalone="no"?>
<!DOCTYPE svg PUBLIC "-//W3C//DTD SVG 20010904//EN"
 "http://www.w3.org/TR/2001/REC-SVG-20010904/DTD/svg10.dtd">
<svg version="1.0" xmlns="http://www.w3.org/2000/svg"
 width="148.449953pt" height="236.341515pt" viewBox="0 0 148.449953 236.341515"
 preserveAspectRatio="xMidYMid meet">
<metadata>
Created by potrace 1.16, written by Peter Selinger 2001-2019
</metadata>
<g transform="translate(-87.200357,281.891810) scale(0.100000,-0.100000)"
fill="#000000" stroke="none">
<path d="M1545 2796 c-15 -15 -26 -41 -30 -72 -4 -27 -11 -62 -15 -79 -42
-149 -79 -339 -68 -352 8 -10 35 -14 102 -13 50 1 99 1 109 1 21 -1 22 -29 3
-56 -7 -11 -16 -38 -19 -60 -6 -43 -47 -169 -60 -181 -26 -26 15 -104 55 -104
23 0 58 48 58 79 0 14 9 43 20 64 11 20 20 49 20 64 0 16 7 42 16 58 17 30 37
100 55 189 10 46 9 51 -15 74 l-25 25 -54 -17 c-31 -10 -73 -16 -94 -14 l-38
3 3 44 c1 24 12 70 22 102 11 32 20 71 20 87 0 15 7 37 15 48 23 31 19 100 -7
118 -31 22 -45 20 -73 -8z"/>
<path d="M986 2704 c-11 -28 -6 -45 34 -128 44 -89 54 -106 88 -153 43 -61 27
-79 -83 -93 -85 -11 -148 -36 -153 -61 -5 -25 231 -256 331 -323 47 -32 53
-32 72 -2 25 38 10 66 -85 151 -122 110 -127 136 -31 150 63 9 121 41 121 65
0 17 -31 72 -59 106 -5 6 -12 21 -16 35 -4 13 -13 31 -20 39 -6 8 -29 51 -50
94 -50 102 -79 136 -115 136 -16 0 -30 -7 -34 -16z"/>
<path d="M2189 2646 c-13 -13 -35 -40 -49 -61 -14 -20 -35 -48 -47 -62 -13
-14 -23 -34 -23 -43 0 -10 -6 -23 -14 -29 -8 -7 -35 -43 -61 -81 -66 -97 -56
-117 70 -141 100 -19 89 -45 -67 -172 -55 -44 -77 -105 -56 -152 17 -39 41
-31 111 38 36 34 117 112 181 172 120 114 129 125 120 149 -6 16 -75 41 -139
51 -73 11 -83 15 -89 31 -7 17 16 57 78 137 67 89 78 132 43 165 -29 27 -29
27 -58 -2z"/>
<path d="M1264 1769 c-151 -49 -258 -213 -241 -370 13 -117 20 -155 32 -169 7
-8 16 -29 20 -47 3 -17 13 -37 21 -44 8 -6 14 -17 14 -24 0 -7 8 -32 19 -56
11 -26 21 -80 25 -135 3 -49 12 -110 21 -133 8 -24 15 -57 15 -73 0 -42 48
-156 84 -201 40 -50 117 -75 168 -54 69 30 93 85 123 286 15 98 26 121 56 121
28 0 46 -38 54 -114 9 -92 41 -213 65 -247 53 -74 180 -69 234 10 31 44 75
163 76 202 0 14 7 48 15 75 8 27 17 90 21 139 6 81 16 119 54 196 105 211 100
425 -11 531 -38 35 -63 42 -96 26 -37 -17 -45 -71 -14 -88 12 -6 21 -17 21
-24 0 -8 7 -19 15 -26 8 -7 15 -20 15 -29 0 -9 9 -22 20 -29 42 -26 9 -179
-72 -326 -27 -50 -48 -143 -57 -256 -6 -69 -18 -150 -26 -180 -9 -30 -19 -66
-22 -80 -18 -79 -103 -94 -103 -17 0 15 -4 47 -9 70 -6 23 -18 83 -27 132 -16
82 -21 94 -59 133 -40 40 -45 42 -100 42 -53 0 -60 -3 -95 -37 -41 -42 -76
-159 -87 -293 -7 -87 -34 -118 -76 -87 -22 15 -64 180 -77 297 -13 122 -36
215 -75 295 -99 206 -78 360 64 456 39 27 51 30 95 26 57 -5 132 -31 158 -54
30 -27 166 -22 188 7 29 39 50 20 50 -45 0 -60 29 -105 68 -105 43 0 54 -47
25 -99 -17 -29 -17 -30 6 -55 14 -14 34 -26 46 -26 24 0 105 80 105 103 0 8
12 36 26 63 l26 49 -32 26 c-18 15 -51 32 -74 38 -76 19 -82 29 -67 102 12 62
12 64 -11 82 -30 25 -140 18 -172 -11 -27 -24 -135 -25 -162 -1 -16 13 -177
51 -209 48 -5 0 -37 -9 -71 -20z"/>
</g>
</svg>
