<?xml version="1.0" standalone="no"?>
<!DOCTYPE svg PUBLIC "-//W3C//DTD SVG 20010904//EN"
 "http://www.w3.org/TR/2001/REC-SVG-20010904/DTD/svg10.dtd">
<svg version="1.0" xmlns="http://www.w3.org/2000/svg"
 width="66.919995pt" height="240.497458pt" viewBox="0 0 66.919995 240.497458"
 preserveAspectRatio="xMidYMid meet">
<metadata>
Created by potrace 1.16, written by Peter Selinger 2001-2019
</metadata>
<g transform="translate(-130.000000,284.497458) scale(0.100000,-0.100000)"
fill="#000000" stroke="none">
<path d="M1635 2843 c-53 -4 -64 -8 -98 -41 -37 -36 -38 -36 -112 -33 -97 3
-115 -7 -115 -63 0 -58 11 -65 116 -68 l89 -3 0 -30 0 -30 -89 -3 c-107 -3
-118 -10 -114 -71 l3 -46 80 -3 c105 -3 125 -8 125 -32 0 -28 -11 -31 -107
-35 -90 -3 -113 -14 -113 -56 0 -43 31 -59 120 -61 l85 -3 3 -42 c2 -23 -3
-53 -10 -65 -8 -15 -15 -87 -19 -208 -5 -150 -11 -198 -28 -255 -30 -94 -62
-177 -77 -195 -7 -8 -15 -28 -19 -45 -4 -16 -13 -47 -21 -68 -11 -30 -14 -120
-14 -461 l0 -424 35 -31 36 -31 260 0 261 0 28 29 29 29 -3 442 c-4 428 -5
443 -27 503 -12 34 -28 69 -34 77 -14 18 -44 85 -69 155 -38 105 -48 473 -15
512 52 60 59 98 59 322 0 314 -24 347 -245 334z m123 -334 c3 -230 2 -233 -64
-233 -58 0 -59 4 -55 227 1 111 5 205 8 210 3 4 28 7 56 5 l52 -3 3 -206z
m-76 -339 c-2 -14 -3 -101 -4 -195 -1 -217 28 -340 107 -450 29 -41 7 -50
-138 -53 -173 -4 -175 -3 -118 109 22 45 41 93 41 106 0 14 6 48 14 76 8 30
17 126 20 226 5 145 9 177 23 193 25 27 59 20 55 -12z m152 -822 c27 -38 24
-758 -3 -782 -28 -25 -368 -20 -382 6 -11 20 -12 758 -1 774 12 19 33 21 204
23 162 1 167 1 182 -21z"/>
<path d="M1610 1100 c-17 -11 -31 -242 -18 -294 13 -52 66 -64 94 -21 25 38
17 274 -10 304 -21 23 -42 26 -66 11z"/>
</g>
</svg>
