<?xml version="1.0" standalone="no"?>
<!DOCTYPE svg PUBLIC "-//W3C//DTD SVG 20010904//EN"
 "http://www.w3.org/TR/2001/REC-SVG-20010904/DTD/svg10.dtd">
<svg version="1.0" xmlns="http://www.w3.org/2000/svg"
 width="241.301386pt" height="241.822651pt" viewBox="0 0 241.301386 241.822651"
 preserveAspectRatio="xMidYMid meet">
<metadata>
Created by potrace 1.16, written by Peter Selinger 2001-2019
</metadata>
<g transform="translate(-44.045731,286.540697) scale(0.100000,-0.100000)"
fill="#000000" stroke="none">
<path d="M1420 2851 c-63 -10 -128 -26 -145 -35 -16 -9 -40 -16 -51 -16 -12 0
-27 -7 -34 -15 -7 -8 -20 -15 -30 -15 -9 0 -29 -9 -43 -20 -14 -11 -29 -20
-34 -20 -14 0 -206 -126 -238 -156 -49 -47 -183 -204 -216 -252 -34 -51 -108
-202 -120 -247 -16 -60 -39 -151 -54 -221 -17 -83 -20 -289 -4 -349 6 -22 14
-63 19 -91 4 -28 15 -65 24 -82 9 -17 16 -39 16 -50 0 -38 78 -206 123 -267
105 -140 160 -205 230 -270 45 -41 85 -75 89 -75 4 0 23 -11 42 -24 31 -21
142 -77 221 -112 17 -7 46 -16 65 -20 19 -3 41 -11 48 -17 7 -5 57 -16 110
-24 53 -8 126 -18 162 -24 65 -9 264 15 345 43 17 5 48 15 70 20 22 6 47 16
55 23 8 7 29 15 45 19 29 7 109 43 150 69 183 111 217 141 332 283 128 160
166 237 233 471 32 107 31 469 0 582 -35 123 -72 224 -92 250 -10 13 -18 29
-18 36 0 30 -209 286 -270 330 -22 17 -62 46 -88 66 -26 20 -60 43 -77 52
-100 52 -207 103 -250 120 -135 50 -424 68 -615 38z m425 -115 c19 -8 56 -18
82 -22 26 -4 57 -13 68 -20 11 -8 25 -14 33 -14 25 0 207 -94 282 -146 103
-72 268 -273 324 -394 8 -19 20 -42 24 -50 27 -46 54 -163 69 -302 39 -365
-67 -662 -328 -913 -93 -89 -222 -176 -285 -191 -16 -4 -36 -12 -44 -19 -18
-15 -159 -58 -256 -79 -83 -18 -260 -21 -301 -5 -15 6 -59 15 -96 20 -37 5
-78 15 -90 24 -12 8 -28 15 -36 15 -15 0 -94 35 -177 78 -123 64 -320 251
-391 371 -59 100 -123 272 -123 330 0 16 -7 48 -16 72 -21 60 -22 285 -1 360
9 30 21 83 27 117 12 67 25 104 68 187 47 94 86 146 209 284 41 46 198 161
220 161 6 0 16 6 22 14 7 8 25 18 41 21 16 3 34 12 40 20 6 8 26 17 43 21 18
3 43 12 57 19 92 49 451 76 535 41z"/>
<path d="M1513 2490 c-64 -3 -107 -10 -115 -18 -10 -10 -13 -55 -13 -170 0
-199 11 -194 -190 -82 -72 40 -103 47 -134 30 -15 -7 -106 -137 -158 -225 -94
-156 -95 -188 -8 -232 46 -24 169 -105 177 -117 13 -19 10 -22 -69 -70 -144
-87 -173 -113 -173 -149 0 -28 59 -144 128 -252 17 -27 32 -55 32 -60 0 -16
76 -95 92 -95 18 0 226 105 249 126 10 9 26 14 36 12 16 -3 18 -15 14 -149 -3
-145 -3 -145 24 -177 l27 -32 218 0 c283 0 263 -14 270 187 l5 148 27 -2 c14
-1 62 -22 107 -47 44 -25 89 -46 100 -46 11 0 23 -4 26 -10 18 -29 105 16 105
53 0 8 6 20 14 26 8 7 29 40 46 74 17 34 42 80 55 102 14 22 30 51 36 65 6 14
16 35 22 48 15 32 -5 67 -63 107 -125 88 -146 102 -162 108 -28 10 -21 23 26
51 82 48 208 138 213 154 4 8 1 22 -5 31 -7 9 -15 23 -18 31 -10 26 -24 54
-49 95 -13 22 -36 66 -51 97 -14 32 -33 63 -41 70 -8 6 -20 26 -28 44 -21 50
-58 71 -90 50 -13 -9 -30 -16 -37 -16 -7 0 -42 -16 -78 -35 -171 -90 -166 -93
-163 82 3 128 2 129 -25 160 l-27 31 -125 4 c-69 2 -171 1 -227 -2z m293 -117
c24 -26 25 -28 22 -185 -2 -87 -5 -158 -7 -158 -2 0 -14 10 -25 23 -12 12 -30
27 -40 32 -16 9 -16 13 8 55 52 94 29 228 -38 218 -23 -3 -72 -70 -81 -110 -4
-15 -24 -43 -46 -62 -32 -27 -42 -44 -51 -90 -16 -74 -6 -90 55 -94 57 -4 71
-18 56 -61 -12 -34 -33 -40 -61 -14 -14 13 -23 14 -42 5 -36 -16 -41 -46 -16
-88 24 -38 22 -92 -5 -114 -25 -21 -19 -106 12 -158 l26 -46 -21 -40 c-38 -76
-33 -132 15 -167 34 -25 34 -37 1 -75 -31 -35 -33 -40 -31 -115 3 -156 50
-167 190 -42 l75 67 -6 50 c-3 27 -13 57 -22 67 -16 18 -16 22 1 76 25 78 23
106 -8 142 -29 35 -27 53 9 87 43 41 46 194 5 237 -26 28 -26 35 -4 60 10 10
23 38 28 61 9 37 13 41 38 38 26 -3 150 54 282 128 52 29 85 22 108 -22 19
-36 52 -94 82 -145 16 -27 16 -34 5 -48 -13 -16 -141 -102 -215 -145 -47 -27
-95 -70 -95 -84 0 -17 49 -54 114 -87 34 -16 79 -41 101 -54 22 -13 52 -31 68
-40 30 -17 38 -72 14 -97 -7 -7 -28 -40 -47 -73 -59 -106 -90 -125 -141 -87
-13 10 -35 23 -49 30 -14 7 -43 23 -65 37 -22 13 -54 31 -72 39 -17 9 -34 20
-38 26 -13 20 -63 11 -84 -16 -27 -34 -26 -49 0 -68 24 -16 24 2 1 -224 -10
-100 -14 -102 -168 -99 -168 3 -158 -10 -157 214 1 149 -1 181 -14 196 -21 22
-44 22 -75 -2 -13 -11 -37 -23 -51 -26 -15 -4 -27 -11 -27 -15 0 -17 -173
-110 -204 -110 -13 0 -28 9 -35 23 -6 12 -22 40 -36 62 -13 22 -31 54 -39 70
-9 17 -21 37 -27 46 -7 9 -9 23 -6 32 8 20 164 124 237 157 77 35 88 78 28
113 -24 14 -66 43 -95 64 -58 43 -71 52 -130 90 -39 25 -59 63 -33 63 8 0 30
34 95 150 32 54 64 64 106 31 13 -10 35 -22 49 -27 24 -9 87 -45 158 -92 20
-13 46 -22 61 -20 25 3 26 6 33 88 3 47 6 138 7 202 1 82 5 119 14 125 10 7
96 14 240 21 30 2 43 -4 63 -25z m-79 -639 c2 -6 -8 -25 -22 -42 -14 -17 -29
-50 -33 -74 -9 -51 -35 -63 -53 -24 -10 21 -9 34 6 68 28 67 90 109 102 72z
m-22 -353 c0 -38 -30 -50 -57 -24 -18 19 -19 24 -8 38 21 25 65 16 65 -14z
m16 -177 c11 -14 9 -20 -20 -46 -39 -35 -84 -36 -89 -2 -6 45 80 83 109 48z"/>
</g>
</svg>
