<?xml version="1.0" standalone="no"?>
<!DOCTYPE svg PUBLIC "-//W3C//DTD SVG 20010904//EN"
 "http://www.w3.org/TR/2001/REC-SVG-20010904/DTD/svg10.dtd">
<svg version="1.0" xmlns="http://www.w3.org/2000/svg"
 width="240.960827pt" height="120.352515pt" viewBox="0 0 240.960827 120.352515"
 preserveAspectRatio="xMidYMid meet">
<metadata>
Created by potrace 1.16, written by Peter Selinger 2001-2019
</metadata>
<g transform="translate(-43.539173,240.527483) scale(0.100000,-0.100000)"
fill="#000000" stroke="none">
<path d="M1395 2401 c-66 -4 -129 -12 -140 -18 -11 -6 -54 -13 -96 -16 -42 -3
-90 -12 -107 -21 -17 -9 -42 -16 -57 -16 -14 0 -42 -9 -62 -20 -21 -11 -43
-20 -49 -20 -37 0 -197 -155 -210 -204 -7 -31 -24 -41 -79 -52 -54 -10 -117
-39 -140 -64 -17 -19 -19 -39 -20 -205 0 -181 0 -183 25 -210 26 -27 101 -65
130 -65 28 0 68 -38 88 -84 60 -136 265 -218 502 -202 181 12 245 47 307 166
7 14 27 50 43 80 17 30 30 61 30 68 0 28 54 82 82 82 32 0 65 -31 73 -70 3
-15 19 -52 35 -81 17 -30 35 -65 42 -79 59 -119 157 -163 368 -164 148 -1 229
13 296 48 65 35 140 110 155 155 16 50 36 69 78 77 47 9 102 38 132 70 24 25
24 29 24 209 0 165 -2 185 -19 204 -23 26 -95 61 -124 61 -44 0 -91 27 -98 57
-4 15 -15 36 -25 46 -11 10 -19 24 -19 31 0 18 -87 97 -126 114 -16 8 -46 22
-66 33 -20 10 -48 19 -62 19 -14 0 -48 9 -76 20 -28 11 -71 20 -95 20 -24 0
-72 6 -107 14 -76 18 -457 28 -633 17z m645 -143 c30 -9 80 -18 111 -22 118
-13 289 -85 289 -121 0 -26 -29 -29 -89 -10 -35 12 -106 22 -191 27 -74 4
-182 12 -240 17 -134 13 -425 13 -560 1 -58 -6 -172 -14 -254 -20 -95 -7 -161
-16 -182 -26 -67 -32 -94 -2 -42 46 40 37 170 80 274 90 39 4 77 11 85 16 43
27 700 29 799 2z m15 -243 c50 -8 122 -15 160 -15 59 0 129 -9 271 -36 11 -2
26 -16 33 -30 18 -41 26 -277 11 -349 -7 -33 -15 -78 -19 -100 -16 -94 -89
-146 -227 -164 -184 -23 -281 -8 -350 52 -24 21 -44 44 -44 50 0 6 -9 30 -20
54 -11 24 -30 64 -42 91 -58 127 -165 182 -255 130 -42 -25 -93 -71 -93 -86 0
-5 -8 -20 -18 -33 -11 -13 -21 -33 -25 -44 -32 -113 -86 -189 -145 -204 -104
-28 -341 -19 -382 14 -8 7 -29 20 -47 29 -85 43 -119 160 -111 383 6 146 15
186 45 198 46 18 180 45 231 46 31 0 93 6 137 14 121 19 771 20 890 0z m-1427
-107 c15 -19 3 -285 -14 -299 -54 -45 -103 176 -58 263 25 48 51 61 72 36z
m2067 6 c27 -11 37 -53 36 -153 -1 -100 -14 -143 -45 -149 -37 -8 -46 24 -46
158 0 142 7 162 55 144z"/>
</g>
</svg>
