<?xml version="1.0" standalone="no"?>
<!DOCTYPE svg PUBLIC "-//W3C//DTD SVG 20010904//EN"
 "http://www.w3.org/TR/2001/REC-SVG-20010904/DTD/svg10.dtd">
<svg version="1.0" xmlns="http://www.w3.org/2000/svg"
 width="120.463139pt" height="238.109239pt" viewBox="0 0 120.463139 238.109239"
 preserveAspectRatio="xMidYMid meet">
<metadata>
Created by potrace 1.16, written by Peter Selinger 2001-2019
</metadata>
<g transform="translate(-96.036861,281.000000) scale(0.100000,-0.100000)"
fill="#000000" stroke="none">
<path d="M1437 2780 c-31 -27 -35 -37 -42 -97 -4 -38 -13 -84 -20 -103 -8 -19
-17 -57 -20 -85 -4 -27 -12 -59 -17 -70 -6 -10 -14 -53 -19 -95 -15 -150 -32
-183 -98 -194 -68 -11 -76 -33 -74 -209 1 -120 5 -152 17 -166 22 -25 22 -26
-31 -59 -27 -16 -58 -42 -71 -58 -12 -16 -33 -42 -46 -59 -43 -55 -52 -152
-55 -596 -3 -416 2 -447 87 -516 l46 -38 466 -3 465 -3 48 32 c27 18 51 39 55
48 3 9 13 25 21 37 14 18 16 78 16 495 l0 474 -40 65 c-25 41 -64 83 -103 114
l-62 50 20 21 c18 19 20 35 20 148 0 165 -14 197 -98 225 -66 21 -70 32 -92
204 -6 51 -20 131 -31 178 -10 47 -19 98 -19 113 0 36 -38 135 -61 158 -16 16
-34 19 -124 19 -102 0 -105 -1 -138 -30z m196 -146 c4 -21 14 -59 22 -84 7
-25 16 -74 20 -110 3 -36 12 -83 20 -105 24 -73 35 -156 24 -176 -10 -20 -6
-19 -189 -24 -120 -3 -142 26 -104 135 9 25 18 76 21 115 3 38 11 81 18 95 7
14 16 52 20 85 13 106 49 145 110 121 24 -10 32 -21 38 -52z m237 -623 c11
-21 14 -149 4 -175 -8 -22 -578 -24 -606 -2 -14 11 -18 29 -18 89 0 110 -11
106 332 107 264 0 278 -1 288 -19z m4 -338 c118 -85 159 -136 160 -198 l1 -40
-450 -2 c-247 -1 -460 0 -472 2 -50 11 -5 111 77 170 22 17 62 47 88 67 l47
37 248 1 249 0 52 -37z m149 -366 c16 -11 17 -34 15 -232 l-3 -220 -467 -3
c-443 -2 -468 -1 -477 16 -12 22 -5 422 7 434 4 4 208 9 452 11 245 1 448 3
451 5 3 1 13 -4 22 -11z m20 -583 c9 -16 3 -106 -9 -137 -14 -39 -55 -42 -462
-40 -437 2 -455 4 -478 59 -16 38 -18 82 -5 116 l9 23 468 -3 c421 -2 469 -4
477 -18z"/>
</g>
</svg>
