<?xml version="1.0" standalone="no"?>
<!DOCTYPE svg PUBLIC "-//W3C//DTD SVG 20010904//EN"
 "http://www.w3.org/TR/2001/REC-SVG-20010904/DTD/svg10.dtd">
<svg version="1.0" xmlns="http://www.w3.org/2000/svg"
 width="241.949701pt" height="235.571043pt" viewBox="0 0 241.949701 235.571043"
 preserveAspectRatio="xMidYMid meet">
<metadata>
Created by potrace 1.16, written by Peter Selinger 2001-2019
</metadata>
<g transform="translate(-43.038476,285.901565) scale(0.100000,-0.100000)"
fill="#000000" stroke="none">
<path d="M2300 2849 c-79 -11 -148 -36 -200 -71 -47 -32 -128 -122 -145 -161
-5 -12 -18 -33 -27 -47 -10 -13 -18 -34 -18 -46 0 -12 -7 -38 -15 -57 -19 -46
-19 -134 0 -171 8 -15 15 -37 15 -47 0 -10 11 -39 25 -65 14 -26 25 -55 25
-64 0 -13 -110 -129 -286 -301 -19 -18 -29 -20 -85 -14 -60 6 -115 -4 -129
-24 -3 -4 -27 -19 -53 -35 -26 -15 -121 -98 -210 -185 -89 -87 -182 -176 -207
-197 -57 -49 -210 -198 -400 -387 -156 -157 -172 -182 -154 -254 20 -79 156
-204 234 -217 98 -16 139 19 623 525 66 68 156 162 200 208 188 193 278 325
263 388 -21 84 -24 76 64 160 46 43 116 111 156 151 40 39 78 72 85 72 10 0
66 -27 164 -79 23 -12 57 -16 145 -15 115 2 146 10 220 55 8 5 31 18 51 29
119 64 209 227 209 380 0 67 -33 195 -60 232 -11 15 -20 31 -20 36 0 23 -121
126 -185 157 -59 29 -178 58 -220 54 -5 -1 -35 -5 -65 -10z m155 -118 c3 -5
20 -13 37 -16 79 -18 202 -145 225 -234 42 -159 -34 -341 -167 -398 -19 -8
-38 -20 -42 -27 -5 -7 -49 -12 -116 -14 -105 -4 -112 -2 -177 28 -76 35 -161
115 -171 158 -3 15 -12 43 -21 63 -18 44 -13 165 9 222 37 95 116 169 218 203
67 23 194 32 205 15z m-860 -1051 c40 -24 54 -74 29 -101 -9 -10 -23 -32 -32
-50 -31 -59 -44 -59 -107 3 -45 44 -56 60 -50 77 3 11 10 21 15 21 5 0 16 8
26 18 21 21 66 50 78 51 5 1 23 -8 41 -19z m-184 -222 c32 -29 59 -57 59 -63
0 -5 -90 -102 -200 -215 -110 -113 -269 -276 -353 -363 -83 -87 -165 -165
-180 -173 -41 -22 -85 -9 -134 39 -67 64 -63 73 85 219 484 477 622 608 644
608 11 0 46 -24 79 -52z"/>
<path d="M2241 2619 c-61 -21 -118 -57 -126 -78 -16 -42 65 -83 94 -48 26 32
194 51 287 33 38 -8 44 -6 58 16 23 35 12 53 -44 77 -65 28 -191 28 -269 0z"/>
</g>
</svg>
