<?xml version="1.0" standalone="no"?>
<!DOCTYPE svg PUBLIC "-//W3C//DTD SVG 20010904//EN"
 "http://www.w3.org/TR/2001/REC-SVG-20010904/DTD/svg10.dtd">
<svg version="1.0" xmlns="http://www.w3.org/2000/svg"
 width="244.377003pt" height="224.895140pt" viewBox="0 0 244.377003 224.895140"
 preserveAspectRatio="xMidYMid meet">
<metadata>
Created by potrace 1.16, written by Peter Selinger 2001-2019
</metadata>
<g transform="translate(-43.535355,277.922596) scale(0.100000,-0.100000)"
fill="#000000" stroke="none">
<path d="M2590 2771 c-61 -19 -155 -106 -633 -586 -370 -371 -510 -518 -514
-538 -4 -21 -139 -162 -494 -518 -269 -269 -496 -500 -504 -513 -47 -71 86
-104 300 -75 196 26 352 100 495 234 252 237 290 286 290 378 0 53 4 64 39
111 68 88 67 88 114 81 56 -8 126 37 207 132 31 37 82 88 111 113 30 25 70 62
89 83 19 21 72 75 118 120 45 45 205 204 355 352 296 294 307 309 307 419 0
138 -148 247 -280 207z m110 -122 c66 -39 80 -98 38 -155 -62 -82 -1000 -1004
-1022 -1004 -26 0 -126 107 -126 134 0 20 59 86 180 202 52 51 100 98 105 104
6 7 121 124 256 259 135 135 256 260 270 276 36 44 154 152 197 180 46 30 58
30 102 4z m-1151 -1165 c40 -34 42 -28 -39 -125 -86 -102 -104 -137 -95 -179
13 -59 -72 -178 -189 -264 -21 -16 -70 -57 -108 -91 -38 -34 -83 -69 -101 -78
-85 -42 -148 -67 -169 -67 -13 0 -42 -7 -65 -15 -71 -25 -123 -30 -123 -13 0
9 169 186 376 394 207 209 392 398 412 422 40 49 59 52 101 16z"/>
<path d="M1815 658 c-54 -14 -71 -51 -39 -82 26 -27 210 -23 224 4 14 25 5 56
-18 66 -27 12 -138 20 -167 12z"/>
<path d="M2548 649 c-43 -22 -48 -46 -17 -75 31 -28 314 -28 335 1 19 26 18
41 -6 65 -18 18 -33 20 -134 20 -63 0 -120 2 -128 5 -7 2 -30 -5 -50 -16z"/>
<path d="M1292 644 c-26 -18 -28 -45 -4 -67 14 -13 241 -25 339 -18 28 2 32
68 5 89 -25 19 -311 17 -340 -4z"/>
<path d="M2135 635 c-29 -28 -30 -34 -12 -60 21 -27 237 -27 267 0 56 51 2 85
-135 85 -88 0 -98 -2 -120 -25z"/>
</g>
</svg>
