<?xml version="1.0" standalone="no"?>
<!DOCTYPE svg PUBLIC "-//W3C//DTD SVG 20010904//EN"
 "http://www.w3.org/TR/2001/REC-SVG-20010904/DTD/svg10.dtd">
<svg version="1.0" xmlns="http://www.w3.org/2000/svg"
 width="240.682163pt" height="238.308357pt" viewBox="0 0 240.682163 238.308357"
 preserveAspectRatio="xMidYMid meet">
<metadata>
Created by potrace 1.16, written by Peter Selinger 2001-2019
</metadata>
<g transform="translate(-43.317837,285.067584) scale(0.100000,-0.100000)"
fill="#000000" stroke="none">
<path d="M700 2802 c-74 -26 -146 -55 -160 -65 -13 -9 -30 -17 -37 -17 -20 0
-61 -71 -69 -116 -8 -56 35 -321 61 -374 7 -14 15 -42 19 -64 4 -21 16 -55 27
-75 10 -20 19 -39 19 -43 0 -8 102 -186 148 -258 81 -126 295 -314 430 -377
109 -50 102 -25 102 -351 0 -228 3 -289 14 -310 8 -15 17 -38 20 -52 16 -75
106 -163 213 -208 82 -35 233 -32 310 7 97 48 108 55 139 91 75 90 86 153 83
504 -2 279 -8 257 76 297 22 10 48 23 58 29 9 5 23 13 31 18 174 92 388 319
473 502 50 107 73 163 73 176 0 8 9 31 20 51 11 21 20 50 20 66 0 15 7 41 14
56 8 15 18 52 22 82 4 30 13 69 20 88 8 18 14 66 14 106 0 72 0 72 -44 116
-69 70 -81 79 -104 79 -12 0 -38 9 -59 20 -21 10 -64 26 -95 34 -31 8 -66 19
-77 25 -11 6 -55 11 -99 11 -131 0 -176 -52 -207 -240 -8 -47 -21 -110 -30
-140 -8 -30 -15 -62 -15 -71 0 -9 -9 -38 -21 -65 -86 -200 -161 -298 -284
-371 -60 -36 -61 -36 -181 -37 -99 -1 -125 2 -140 15 -11 9 -28 19 -40 23 -28
9 -156 137 -176 177 -9 19 -28 63 -43 99 -15 36 -33 79 -41 95 -7 17 -18 48
-23 70 -6 22 -17 63 -26 90 -34 106 -44 141 -49 182 -4 24 -16 61 -27 83 -56
107 -141 117 -359 42z m233 -74 c19 -15 67 -145 67 -183 0 -14 6 -38 14 -53 7
-15 17 -47 21 -72 4 -25 14 -54 21 -65 8 -11 14 -28 14 -39 0 -10 9 -37 19
-60 11 -23 34 -77 53 -121 52 -124 191 -257 330 -313 98 -40 325 -20 389 35 8
7 21 13 27 13 6 0 24 12 39 26 15 14 37 34 48 43 26 21 115 130 115 141 0 5
13 28 29 52 50 74 82 172 152 476 26 111 48 139 101 128 152 -32 249 -64 308
-101 l43 -27 -6 -84 c-3 -45 -13 -96 -21 -113 -9 -16 -16 -42 -16 -56 0 -14
-7 -42 -16 -63 -9 -20 -22 -62 -29 -92 -52 -216 -243 -488 -430 -612 -47 -31
-139 -83 -175 -99 -14 -6 -38 -17 -55 -24 -133 -60 -439 -83 -540 -41 -16 7
-48 16 -70 20 -22 4 -53 13 -70 20 -16 8 -41 19 -55 25 -14 6 -43 22 -65 36
-22 13 -51 30 -65 37 -89 44 -292 245 -336 333 -25 49 -49 96 -66 125 -9 17
-24 48 -32 70 -3 8 -10 22 -14 30 -22 39 -52 106 -52 117 0 7 -9 41 -19 75
-56 184 -57 297 -3 324 13 6 29 17 35 23 6 6 20 11 32 11 11 0 34 7 50 16 73
40 199 63 228 42z m552 -1428 c67 -12 233 -9 368 6 l57 6 0 -264 c0 -258 -1
-264 -25 -313 -38 -80 -83 -118 -158 -135 -24 -5 -57 -14 -72 -20 -62 -24
-199 45 -258 129 l-32 46 -6 270 c-5 285 -3 303 40 291 9 -3 48 -10 86 -16z"/>
<path d="M670 2566 c-26 -33 64 -424 109 -469 6 -6 11 -15 11 -21 0 -5 12 -28
27 -50 14 -23 38 -59 52 -81 49 -76 99 -134 157 -183 73 -60 161 -122 174
-122 5 0 17 -8 27 -19 10 -10 32 -22 50 -25 17 -4 37 -14 44 -22 6 -8 24 -14
40 -14 16 0 49 -7 75 -16 53 -18 312 -22 355 -6 13 5 46 13 74 17 27 4 65 15
85 25 19 10 61 31 93 47 83 41 98 49 137 80 68 54 220 214 220 231 0 5 8 20
19 33 10 13 30 53 45 89 15 36 34 79 41 95 8 17 19 49 25 72 6 23 15 45 20 48
5 3 12 27 15 53 4 26 13 64 21 85 8 20 14 62 14 91 0 51 -2 54 -31 67 -30 12
-33 11 -56 -17 -13 -16 -25 -38 -27 -49 -3 -11 -9 -45 -14 -75 -14 -73 -47
-187 -59 -202 -6 -7 -13 -29 -17 -48 -23 -117 -177 -311 -321 -403 -109 -71
-118 -76 -135 -83 -8 -3 -37 -14 -65 -24 -122 -46 -401 -46 -492 1 -20 10 -43
19 -49 19 -17 0 -231 144 -272 183 -36 34 -102 127 -102 144 0 6 -7 17 -16 24
-9 7 -20 22 -25 34 -5 11 -13 27 -18 35 -20 32 -51 101 -51 113 0 7 -9 29 -20
50 -11 20 -20 46 -20 57 0 11 -6 37 -14 57 -7 21 -19 67 -26 103 -6 36 -16 71
-22 78 -14 17 -63 15 -78 -2z"/>
<path d="M1573 929 c-85 -55 -73 -149 27 -194 47 -21 77 -15 118 23 100 94
-29 246 -145 171z m80 -86 c11 -10 -13 -32 -29 -26 -20 8 -17 33 4 33 10 0 22
-3 25 -7z"/>
</g>
</svg>
