<?xml version="1.0" standalone="no"?>
<!DOCTYPE svg PUBLIC "-//W3C//DTD SVG 20010904//EN"
 "http://www.w3.org/TR/2001/REC-SVG-20010904/DTD/svg10.dtd">
<svg version="1.0" xmlns="http://www.w3.org/2000/svg"
 width="204.977062pt" height="235.285482pt" viewBox="0 0 204.977062 235.285482"
 preserveAspectRatio="xMidYMid meet">
<metadata>
Created by potrace 1.16, written by Peter Selinger 2001-2019
</metadata>
<g transform="translate(-62.861487,280.859570) scale(0.100000,-0.100000)"
fill="#000000" stroke="none">
<path d="M1088 2799 c-137 -32 -162 -46 -279 -159 -145 -140 -180 -227 -180
-450 -1 -184 20 -283 92 -435 20 -44 40 -87 43 -95 3 -8 10 -22 14 -30 33 -57
66 -203 82 -360 24 -238 58 -439 78 -463 6 -7 13 -29 17 -49 4 -21 13 -42 21
-49 8 -6 14 -19 14 -27 0 -19 39 -78 96 -147 101 -122 279 -99 331 42 26 68
65 227 73 293 9 79 37 196 55 230 7 14 16 39 19 56 14 63 83 112 123 86 23
-15 60 -79 67 -118 4 -21 14 -51 22 -66 8 -15 14 -41 14 -58 0 -43 46 -270 73
-359 41 -137 124 -196 249 -176 47 8 147 98 175 160 7 16 26 53 42 81 50 94
119 458 121 642 0 56 29 169 60 237 10 22 34 74 53 115 90 195 136 454 106
590 -5 25 -15 67 -20 94 -21 101 -87 195 -208 300 -87 75 -115 88 -236 112
-125 25 -267 4 -404 -59 -64 -29 -255 -30 -297 -1 -16 10 -51 24 -79 31 -27 7
-75 19 -105 27 -58 17 -172 19 -232 5z m208 -120 c32 -6 75 -19 95 -30 20 -10
44 -19 53 -19 9 0 27 -6 39 -14 79 -52 273 -48 393 9 62 29 87 29 92 0 12 -73
27 -102 73 -146 47 -45 49 -50 49 -101 0 -96 50 -146 126 -126 33 9 46 8 89
-12 51 -24 70 -26 161 -19 91 7 109 -32 83 -177 -5 -32 -17 -73 -25 -91 -7
-17 -14 -38 -14 -47 0 -9 -9 -33 -20 -53 -11 -21 -20 -45 -20 -54 0 -9 -6 -22
-14 -28 -8 -7 -17 -24 -21 -39 -3 -15 -22 -60 -41 -100 -19 -40 -34 -78 -34
-85 0 -7 -7 -40 -16 -72 -8 -33 -22 -145 -30 -250 -8 -104 -21 -215 -29 -245
-8 -30 -15 -64 -15 -75 0 -11 -6 -32 -14 -47 -8 -15 -17 -42 -21 -60 -14 -69
-139 -238 -175 -238 -25 0 -86 86 -98 140 -6 25 -15 63 -20 85 -6 22 -16 78
-22 125 -7 47 -18 110 -26 141 -8 31 -14 67 -14 80 0 56 -76 170 -136 205
-124 73 -270 -18 -313 -195 -5 -20 -14 -49 -19 -66 -6 -16 -16 -66 -22 -110
-37 -272 -82 -394 -145 -395 -33 0 -155 138 -155 176 0 4 -9 26 -19 48 -28 61
-61 175 -61 212 0 18 -9 92 -20 166 -11 73 -20 154 -20 179 0 55 -43 227 -70
285 -11 22 -20 45 -20 51 0 6 -7 24 -15 40 -22 43 -52 115 -60 143 -4 14 -11
30 -16 35 -16 21 -42 162 -46 255 -5 99 17 228 44 261 7 8 13 20 13 26 0 18
162 171 205 194 78 42 191 57 291 38z m1006 -33 c112 -67 260 -260 232 -303
-15 -24 -107 -19 -176 8 -27 10 -69 19 -93 19 -51 0 -65 16 -65 75 0 30 -10
46 -60 100 -62 66 -68 81 -49 117 16 30 151 20 211 -16z"/>
<path d="M1361 2131 c-29 -41 -72 -53 -149 -41 -73 10 -89 6 -98 -23 -5 -16 2
-28 28 -53 33 -30 40 -32 111 -33 120 -2 197 45 197 119 0 65 -52 83 -89 31z"/>
<path d="M1850 2141 c-47 -89 73 -169 238 -159 57 4 68 8 89 34 46 57 14 96
-62 76 -73 -19 -107 -15 -153 19 -23 17 -42 35 -42 40 0 18 -59 9 -70 -10z"/>
<path d="M1162 1897 c-42 -50 -51 -117 -21 -158 40 -56 95 -26 106 58 8 63
-55 137 -85 100z"/>
<path d="M2082 1898 c-96 -121 -40 -284 78 -223 54 28 65 82 29 150 -34 66
-84 100 -107 73z m58 -139 c0 -10 -7 -19 -15 -19 -15 0 -21 31 -9 43 11 10 24
-3 24 -24z"/>
<path d="M1570 1790 c-8 -6 -34 -15 -57 -21 -23 -6 -48 -17 -54 -25 -6 -8 -17
-14 -24 -14 -14 0 -75 -55 -92 -85 -36 -60 -37 -64 -18 -85 33 -36 78 -22 134
43 18 20 37 37 42 37 6 0 23 10 39 22 26 19 37 20 115 15 101 -7 136 -25 205
-100 51 -56 84 -60 110 -13 44 83 -168 236 -326 236 -32 0 -66 -5 -74 -10z"/>
</g>
</svg>
