<?xml version="1.0" standalone="no"?>
<!DOCTYPE svg PUBLIC "-//W3C//DTD SVG 20010904//EN"
 "http://www.w3.org/TR/2001/REC-SVG-20010904/DTD/svg10.dtd">
<svg version="1.0" xmlns="http://www.w3.org/2000/svg"
 width="239.450213pt" height="126.832608pt" viewBox="0 0 239.450213 126.832608"
 preserveAspectRatio="xMidYMid meet">
<metadata>
Created by potrace 1.16, written by Peter Selinger 2001-2019
</metadata>
<g transform="translate(-44.607224,226.837196) scale(0.100000,-0.100000)"
fill="#000000" stroke="none">
<path d="M607 2255 c-112 -41 -160 -126 -161 -285 -1 -128 28 -211 102 -288
26 -28 32 -53 30 -124 -3 -155 48 -254 162 -310 25 -12 53 -32 63 -45 10 -12
39 -36 65 -54 45 -31 54 -33 173 -37 23 -1 52 -14 80 -34 86 -63 139 -78 284
-78 113 0 134 3 160 20 38 25 80 25 128 0 32 -17 56 -20 174 -20 150 0 206 14
281 70 26 19 47 25 90 26 113 2 163 23 236 100 24 24 51 44 61 44 27 0 79 44
114 95 31 46 49 146 47 271 0 35 7 49 49 96 159 180 113 479 -84 546 -41 15
-143 15 -191 2 -73 -20 -150 -132 -150 -218 0 -47 -4 -53 -67 -88 -29 -16 -53
-32 -53 -36 0 -4 -13 -16 -30 -28 l-29 -21 -42 27 c-133 84 -277 81 -412 -10
l-58 -38 -57 40 c-60 42 -158 82 -202 82 -33 0 -156 -44 -178 -63 -48 -43 -95
-30 -180 50 -48 45 -52 53 -52 94 0 25 -9 62 -20 84 -11 22 -20 44 -21 50 -1
17 -67 67 -107 81 -48 17 -157 16 -205 -1z m180 -116 c59 -29 78 -99 52 -194
-14 -49 -23 -56 -61 -41 -27 10 -32 9 -54 -19 -13 -16 -24 -34 -24 -38 0 -18
-45 -67 -61 -67 -44 0 -95 125 -87 210 13 134 123 203 235 149z m1839 5 c19
-9 48 -35 65 -58 29 -39 30 -44 27 -126 -4 -100 -30 -149 -89 -173 -28 -11
-39 -22 -44 -45 -9 -42 -35 -62 -92 -70 -41 -6 -48 -11 -51 -32 -7 -46 -30
-63 -180 -126 -48 -20 -62 -17 -73 16 -17 47 -70 52 -97 9 -11 -17 -11 -27 -1
-51 15 -37 3 -48 -57 -48 -22 0 -63 -6 -90 -14 -65 -19 -241 -27 -253 -12 -5
6 -9 34 -8 63 4 127 -74 98 -85 -32 l-3 -30 -93 -3 c-61 -2 -109 2 -144 13
-28 8 -65 15 -81 15 -63 0 -124 52 -87 75 21 13 10 43 -21 54 -39 14 -63 1
-77 -39 -13 -36 -21 -37 -98 -6 -138 55 -164 74 -164 119 0 28 -1 29 -42 25
-31 -4 -51 0 -71 14 -32 23 -34 41 -6 76 13 17 18 34 14 50 -11 45 46 72 75
36 11 -12 27 -14 91 -8 l78 6 57 -57 c51 -51 88 -75 115 -75 5 0 33 22 63 49
89 80 98 85 168 77 65 -6 112 -30 163 -81 38 -38 80 -65 99 -65 19 0 86 39 86
50 0 4 28 29 62 54 77 58 163 66 212 21 15 -14 31 -25 35 -25 5 0 27 -19 50
-41 36 -36 45 -41 73 -35 37 7 64 30 84 68 18 34 55 54 119 62 28 4 66 9 87
12 32 5 38 2 50 -23 22 -45 78 -39 78 9 0 27 -59 78 -90 78 -36 0 -50 18 -50
65 0 135 91 209 196 159z m-1866 -634 c19 -16 39 -29 43 -30 10 0 111 -45 159
-70 20 -11 48 -20 61 -20 14 0 30 -7 37 -15 6 -7 33 -17 58 -20 26 -4 65 -13
87 -21 22 -7 76 -18 120 -24 44 -6 103 -15 130 -20 131 -24 581 11 655 50 10
5 31 10 47 10 15 0 43 9 61 20 18 11 39 20 46 20 24 0 209 91 247 121 57 45
79 40 79 -19 0 -68 -32 -110 -114 -151 -36 -18 -68 -40 -71 -51 -11 -34 -76
-77 -127 -83 -44 -6 -50 -4 -79 24 -38 37 -56 34 -86 -11 -31 -48 -74 -90 -98
-95 -114 -22 -148 -27 -179 -21 -20 3 -51 9 -70 12 -21 4 -48 21 -72 45 -47
48 -52 48 -108 0 -53 -46 -122 -59 -254 -47 -86 8 -154 50 -174 108 -12 34
-47 38 -96 8 -60 -37 -144 -10 -182 58 -9 16 -40 39 -76 57 -80 39 -109 75
-117 143 -6 49 -5 52 16 52 13 0 38 -13 57 -30z"/>
</g>
</svg>
