<?xml version="1.0" standalone="no"?>
<!DOCTYPE svg PUBLIC "-//W3C//DTD SVG 20010904//EN"
 "http://www.w3.org/TR/2001/REC-SVG-20010904/DTD/svg10.dtd">
<svg version="1.0" xmlns="http://www.w3.org/2000/svg"
 width="242.674843pt" height="243.010704pt" viewBox="0 0 242.674843 243.010704"
 preserveAspectRatio="xMidYMid meet">
<metadata>
Created by potrace 1.16, written by Peter Selinger 2001-2019
</metadata>
<g transform="translate(-41.325157,287.025933) scale(0.100000,-0.100000)"
fill="#000000" stroke="none">
<path d="M1594 2862 c-20 -13 -34 -50 -34 -91 0 -86 -22 -102 -180 -130 -81
-15 -89 -12 -120 51 -32 67 -45 78 -84 78 -61 0 -77 -64 -36 -143 27 -50 24
-55 -46 -102 -33 -22 -68 -47 -79 -56 -40 -34 -60 -32 -113 11 -79 62 -142 53
-144 -19 -1 -31 41 -97 68 -108 26 -10 15 -44 -41 -128 -66 -101 -76 -107
-128 -89 -89 32 -161 3 -140 -54 7 -18 95 -84 126 -95 12 -4 -16 -206 -33
-236 -9 -18 -20 -21 -71 -21 -103 0 -152 -44 -112 -99 18 -23 28 -26 89 -29
78 -3 89 -10 99 -55 31 -140 33 -227 5 -227 -18 0 -99 -61 -105 -80 -20 -62
62 -100 127 -60 56 34 66 27 145 -88 62 -91 63 -102 12 -162 -61 -72 -56 -140
11 -140 25 0 100 45 115 69 12 20 50 11 106 -27 122 -81 137 -105 104 -168
-34 -66 2 -145 59 -130 24 6 78 74 91 116 8 24 8 24 165 1 90 -13 100 -22 107
-97 8 -80 26 -114 61 -114 51 0 72 33 72 114 0 69 16 82 121 97 41 6 89 13
107 16 37 6 72 -17 72 -48 0 -22 57 -89 75 -89 6 0 25 12 40 26 26 24 27 29
21 81 -3 30 -11 64 -17 74 -8 15 -5 26 10 47 22 32 134 112 156 112 15 0 100
-55 110 -71 15 -23 65 -9 85 23 26 44 26 45 -20 107 -22 29 -40 59 -40 67 0
23 126 199 145 202 9 2 30 -5 46 -17 70 -52 172 -4 137 63 -14 26 -72 69 -108
81 -21 7 -22 11 -16 59 4 28 11 80 15 115 9 76 24 91 95 91 59 0 116 29 116
59 0 55 -41 81 -129 81 -33 0 -63 5 -66 11 -8 12 -22 98 -31 185 l-7 61 33 12
c41 14 96 55 111 82 9 18 6 26 -17 50 -33 35 -67 37 -129 9 -50 -23 -62 -20
-90 20 -11 16 -39 56 -62 90 -52 75 -52 73 -2 127 38 41 41 49 36 85 -10 71
-53 77 -128 18 -62 -49 -68 -49 -136 -4 -84 55 -126 103 -118 134 15 53 17
131 5 145 -33 40 -84 13 -143 -75 -28 -41 -30 -42 -70 -36 -23 4 -58 9 -77 11
-111 13 -121 20 -131 107 -10 81 -54 128 -95 100z m226 -314 c36 -6 74 -18 85
-25 11 -7 32 -13 47 -13 15 0 30 -5 33 -10 4 -6 21 -17 38 -25 18 -8 44 -23
58 -32 135 -91 168 -115 191 -139 26 -29 158 -221 158 -231 0 -3 8 -24 19 -47
44 -98 53 -123 67 -205 18 -97 20 -239 4 -291 -5 -19 -10 -50 -10 -68 0 -18
-9 -50 -20 -72 -11 -22 -20 -48 -20 -58 0 -11 -6 -25 -14 -31 -8 -7 -17 -23
-20 -37 -7 -25 -15 -39 -93 -154 -52 -77 -74 -101 -110 -127 -122 -86 -209
-143 -219 -143 -6 0 -17 -7 -24 -15 -7 -8 -23 -15 -35 -15 -12 0 -34 -9 -48
-20 -14 -11 -35 -20 -48 -20 -12 0 -58 -7 -102 -16 -115 -24 -357 -1 -432 39
-16 9 -37 17 -46 17 -9 0 -22 7 -29 15 -7 8 -16 15 -21 15 -13 0 -93 53 -102
67 -4 7 -12 13 -18 13 -21 0 -120 82 -153 127 -54 74 -69 93 -94 121 -26 29
-92 163 -92 186 0 9 -10 39 -21 68 -30 73 -34 352 -6 440 9 31 17 65 17 77 0
24 73 167 101 197 10 11 19 25 19 30 0 6 10 20 23 32 12 12 38 41 57 65 62 76
297 247 341 247 4 0 29 7 55 16 125 42 300 50 464 22z"/>
<path d="M1605 2356 c-30 -31 -31 -36 -4 -70 27 -34 64 -32 92 7 l21 27 -21
28 c-27 36 -57 39 -88 8z"/>
<path d="M1166 2186 c-67 -42 -98 -89 -103 -159 -8 -94 8 -138 69 -191 l52
-45 85 1 c113 1 160 26 196 103 53 110 24 220 -76 287 -57 38 -163 40 -223 4z
m159 -104 c69 -42 69 -129 1 -171 -57 -35 -94 -29 -134 23 -69 90 36 207 133
148z"/>
<path d="M2001 2184 c-54 -68 14 -148 87 -104 40 25 43 63 7 103 -33 34 -67
35 -94 1z"/>
<path d="M1704 2046 c-35 -35 -38 -58 -13 -108 16 -30 113 -52 149 -33 62 32
68 97 15 144 -51 45 -104 44 -151 -3z"/>
<path d="M2125 1881 c-91 -16 -144 -108 -121 -212 6 -31 3 -46 -24 -98 -56
-107 -31 -189 74 -243 95 -49 239 46 276 181 6 22 15 43 20 46 6 3 10 47 10
96 0 180 -80 258 -235 230z m90 -123 c26 -31 27 -36 22 -115 -2 -46 -10 -90
-17 -98 -7 -9 -20 -29 -29 -47 -43 -84 -129 -89 -118 -6 3 23 15 54 26 69 17
23 21 43 21 113 0 119 38 152 95 84z"/>
<path d="M904 1675 c-33 -33 -28 -64 14 -88 33 -20 34 -20 60 0 36 27 41 75
10 97 -32 22 -55 20 -84 -9z"/>
<path d="M1630 1603 c-47 -17 -52 -71 -10 -107 33 -28 54 -25 82 9 43 50 -9
121 -72 98z"/>
<path d="M1195 1540 c-11 -5 -31 -11 -45 -14 -14 -3 -38 -22 -55 -43 -28 -36
-30 -42 -29 -130 1 -169 68 -263 264 -372 32 -18 164 -51 203 -51 60 0 136 32
164 68 82 108 23 273 -104 293 -116 18 -168 54 -188 129 -20 79 -143 149 -210
120z m76 -132 c17 -18 37 -50 46 -71 26 -63 115 -135 178 -142 118 -15 167
-76 104 -129 -30 -26 -37 -27 -93 -21 -33 4 -70 13 -81 20 -11 7 -31 16 -43
20 -144 43 -269 269 -186 334 35 28 40 27 75 -11z"/>
<path d="M2005 1168 c-50 -27 -56 -55 -19 -92 32 -31 53 -33 82 -6 51 48 -2
131 -63 98z"/>
</g>
</svg>
