<?xml version="1.0" standalone="no"?>
<!DOCTYPE svg PUBLIC "-//W3C//DTD SVG 20010904//EN"
 "http://www.w3.org/TR/2001/REC-SVG-20010904/DTD/svg10.dtd">
<svg version="1.0" xmlns="http://www.w3.org/2000/svg"
 width="231.661329pt" height="240.211145pt" viewBox="0 0 231.661329 240.211145"
 preserveAspectRatio="xMidYMid meet">
<metadata>
Created by potrace 1.16, written by Peter Selinger 2001-2019
</metadata>
<g transform="translate(-46.579013,284.278182) scale(0.100000,-0.100000)"
fill="#000000" stroke="none">
<path d="M2264 2823 c-9 -9 -22 -31 -29 -48 -7 -16 -57 -68 -111 -115 -53 -47
-118 -112 -143 -146 -27 -36 -65 -72 -92 -87 -82 -47 -112 -90 -107 -155 5
-52 8 -58 60 -106 31 -28 74 -64 97 -79 49 -33 54 -62 14 -79 -16 -6 -41 -16
-58 -23 -16 -7 -55 -23 -85 -36 -146 -60 -152 -64 -325 -213 -44 -38 -88 -82
-97 -97 -13 -22 -145 -158 -208 -214 -28 -25 -218 -216 -274 -275 -33 -36
-133 -137 -221 -226 -88 -89 -171 -173 -183 -187 -71 -76 -33 -218 72 -272
103 -52 180 -24 302 111 43 49 176 187 295 308 118 122 248 256 289 299 190
199 437 437 454 437 4 0 36 14 71 30 35 17 70 30 76 30 89 0 685 576 717 693
27 97 -77 219 -171 202 -42 -8 -131 70 -212 186 -61 85 -92 100 -131 62z m124
-243 c60 -58 71 -73 63 -87 -5 -10 -88 -98 -183 -195 -142 -145 -178 -176
-195 -172 -12 3 -24 11 -26 18 -3 6 -24 25 -48 41 -113 75 -121 111 -31 151
38 17 67 39 87 65 110 146 211 249 242 249 10 0 51 -32 91 -70z m265 -134 c21
-16 22 -50 2 -73 -9 -10 -109 -113 -223 -229 -249 -253 -312 -306 -427 -359
-229 -105 -233 -108 -475 -360 -85 -88 -208 -214 -273 -280 -66 -66 -220 -225
-344 -352 -233 -240 -245 -249 -293 -223 -11 6 -22 26 -26 46 -6 33 -3 39 59
102 36 37 92 94 124 127 33 33 79 78 103 101 25 22 63 60 86 85 22 24 76 78
120 120 43 42 88 89 99 105 23 32 110 117 170 164 22 17 45 40 50 50 16 28 89
104 157 163 35 30 85 75 113 101 27 26 63 54 80 62 16 7 37 18 45 23 8 6 47
22 85 36 173 64 181 70 413 305 213 214 306 300 327 300 5 0 18 -7 28 -14z"/>
</g>
</svg>
