<?xml version="1.0" standalone="no"?>
<!DOCTYPE svg PUBLIC "-//W3C//DTD SVG 20010904//EN"
 "http://www.w3.org/TR/2001/REC-SVG-20010904/DTD/svg10.dtd">
<svg version="1.0" xmlns="http://www.w3.org/2000/svg"
 width="242.937180pt" height="192.454267pt" viewBox="0 0 242.937180 192.454267"
 preserveAspectRatio="xMidYMid meet">
<metadata>
Created by potrace 1.16, written by Peter Selinger 2001-2019
</metadata>
<g transform="translate(-43.770367,264.681949) scale(0.100000,-0.100000)"
fill="#000000" stroke="none">
<path d="M1240 2641 c-19 -4 -45 -13 -57 -19 -12 -7 -36 -12 -53 -12 -17 0
-52 -8 -78 -19 -109 -43 -208 -64 -332 -71 -168 -9 -213 -31 -256 -129 -27
-60 -33 -208 -13 -286 6 -22 14 -58 18 -81 10 -54 40 -101 95 -147 54 -44 54
-48 20 -135 -39 -101 -59 -139 -93 -176 -11 -12 -21 -34 -21 -48 0 -14 -7 -42
-15 -61 -27 -66 -21 -296 10 -357 65 -128 300 -250 631 -329 50 -11 105 -21
122 -21 17 0 61 -7 98 -16 50 -11 96 -14 178 -10 146 8 179 8 316 0 87 -4 132
-2 183 10 38 9 80 16 94 16 33 0 143 24 278 62 95 27 163 56 331 141 19 9 61
44 93 77 l58 59 8 78 c9 88 9 119 -3 248 -8 79 -15 102 -57 185 -65 130 -82
161 -94 173 -23 23 -10 53 45 102 31 27 60 58 65 69 6 12 16 32 24 46 8 14 15
43 15 65 0 22 5 80 11 129 30 241 -46 328 -292 338 -76 3 -139 11 -164 21 -67
26 -205 67 -224 67 -10 0 -36 8 -57 17 -47 20 -262 25 -285 7 -8 -6 -25 -15
-39 -19 -14 -4 -48 -25 -77 -46 -47 -35 -103 -52 -103 -31 0 12 -94 72 -112
72 -7 0 -24 7 -36 16 -26 18 -175 28 -232 15z m227 -143 c11 -10 24 -18 29
-18 6 0 23 -14 40 -31 34 -36 108 -89 123 -89 6 0 48 31 92 70 99 85 127 94
269 87 79 -4 129 -13 205 -37 55 -17 118 -36 140 -42 22 -5 60 -16 85 -24 26
-8 86 -14 140 -14 104 0 106 -1 138 -47 29 -41 24 -224 -9 -310 -14 -36 -46
-29 -68 16 -24 45 -94 101 -129 101 -14 0 -45 -15 -71 -33 -65 -47 -75 -49
-111 -22 -78 57 -152 51 -220 -20 -35 -37 -67 -45 -76 -21 -3 8 -22 25 -42 39
-83 54 -199 48 -289 -16 -65 -46 -66 -46 -122 1 -60 49 -178 80 -196 52 -3 -5
-17 -10 -31 -10 -15 0 -42 -16 -68 -40 -40 -37 -86 -53 -86 -31 0 22 -52 68
-89 81 -44 14 -137 -6 -162 -36 -17 -21 -30 -18 -85 21 -27 19 -60 35 -74 35
-42 0 -103 -43 -138 -95 -42 -65 -46 -65 -72 -8 -17 36 -23 74 -27 158 l-5
110 31 34 31 35 103 3 c57 1 117 9 137 17 19 7 55 19 80 25 25 6 97 27 160 46
137 42 328 48 367 13z m-623 -487 c27 -28 27 -30 22 -131 -3 -69 -9 -106 -18
-111 -48 -31 -118 36 -118 114 0 78 38 157 75 157 6 0 24 -13 39 -29z m677 -4
c52 -42 69 -96 69 -217 0 -141 -4 -146 -109 -134 -42 4 -90 7 -108 7 -60 -2
-67 18 -56 168 10 123 12 132 39 161 51 53 110 59 165 15z m410 2 c53 -38 69
-85 69 -207 0 -124 -1 -127 -76 -141 -196 -38 -207 -31 -207 142 -1 118 1 130
23 160 57 78 124 94 191 46z m608 5 c34 -43 31 -193 -4 -229 -27 -26 -69 -33
-81 -13 -13 21 -4 206 13 238 18 37 45 39 72 4z m-1407 -11 c46 -49 57 -85 59
-182 1 -50 -1 -94 -5 -98 -7 -8 -160 -5 -188 3 -26 8 -27 25 -12 125 8 52 14
100 14 107 0 22 57 72 82 72 14 0 36 -12 50 -27z m1128 7 c43 -23 60 -72 60
-172 0 -65 -4 -99 -13 -106 -14 -12 -162 -20 -173 -10 -10 11 -15 98 -8 163 9
89 79 154 134 125z m-1552 -357 c4 -39 -22 -103 -42 -103 -47 0 -56 23 -31 83
26 62 68 73 73 20z m1950 24 c22 -27 37 -104 23 -121 -39 -46 -81 -5 -81 78 0
56 29 78 58 43z m-168 -79 c35 -47 35 -165 1 -202 -54 -58 -99 -10 -107 111
-5 82 -2 93 31 111 32 18 50 14 75 -20z m-1569 -5 c16 -16 -6 -185 -27 -200
-55 -40 -94 2 -94 103 0 102 9 118 67 111 25 -2 49 -9 54 -14z m243 -22 c70
-13 75 -22 67 -116 -7 -92 -22 -121 -74 -150 -63 -33 -103 29 -107 165 -3 117
0 126 50 114 8 -2 37 -8 64 -13z m1094 -61 c8 -177 -52 -263 -134 -192 -31 26
-32 30 -37 128 -3 56 -1 107 3 114 9 15 77 29 130 26 l35 -1 3 -75z m-680 35
c22 -8 15 -171 -11 -235 -46 -112 -170 -103 -197 15 -19 84 -23 200 -8 216 14
13 178 16 216 4z m372 -10 c17 -20 3 -177 -22 -231 -69 -156 -208 -72 -208
125 0 120 1 121 119 121 74 0 102 -4 111 -15z m-1316 -127 c22 -18 64 -59 95
-90 62 -63 99 -77 145 -59 63 26 71 25 114 -21 l41 -43 85 -3 c75 -4 86 -2
105 17 29 29 44 26 78 -11 59 -66 85 -78 173 -79 78 -1 82 0 125 35 54 45 67
45 123 -1 42 -34 48 -36 116 -36 76 0 143 32 174 82 14 24 44 27 61 8 6 -8 29
-22 52 -32 58 -27 135 -1 186 62 39 48 64 53 115 27 58 -30 188 35 188 96 0
13 11 24 35 34 19 8 35 20 35 26 0 6 12 10 27 8 35 -4 46 -50 40 -168 -4 -95
-24 -146 -65 -172 -15 -9 -46 -30 -68 -46 -23 -17 -52 -33 -65 -37 -13 -4 -31
-13 -39 -20 -47 -41 -301 -107 -520 -136 -104 -14 -671 -6 -745 10 -27 6 -75
16 -105 22 -146 27 -238 58 -374 125 -187 93 -206 118 -206 273 0 174 7 185
74 129z"/>
</g>
</svg>
