<?xml version="1.0" standalone="no"?>
<!DOCTYPE svg PUBLIC "-//W3C//DTD SVG 20010904//EN"
 "http://www.w3.org/TR/2001/REC-SVG-20010904/DTD/svg10.dtd">
<svg version="1.0" xmlns="http://www.w3.org/2000/svg"
 width="84.293275pt" height="235.100431pt" viewBox="0 0 84.293275 235.100431"
 preserveAspectRatio="xMidYMid meet">
<metadata>
Created by potrace 1.16, written by Peter Selinger 2001-2019
</metadata>
<g transform="translate(-120.234130,280.872603) scale(0.100000,-0.100000)"
fill="#000000" stroke="none">
<path d="M1515 2779 c-37 -28 -104 -128 -120 -181 -4 -13 -13 -30 -20 -38 -7
-8 -15 -28 -19 -45 -4 -16 -13 -43 -21 -60 -7 -16 -34 -120 -60 -230 -26 -110
-51 -213 -57 -230 -19 -51 -21 -162 -4 -233 8 -37 18 -92 21 -122 4 -30 12
-84 20 -120 8 -36 25 -139 40 -230 14 -91 31 -183 36 -205 6 -22 16 -74 23
-115 7 -41 17 -84 23 -95 6 -11 14 -45 18 -75 4 -30 13 -65 21 -77 8 -12 14
-35 14 -50 0 -15 7 -39 15 -53 8 -14 19 -36 25 -49 68 -153 264 -151 342 4 21
44 53 176 69 295 6 41 17 104 25 139 8 35 17 94 20 130 3 36 12 93 20 127 8
33 18 110 23 170 13 162 40 323 58 351 24 36 25 246 1 288 -22 40 -54 114 -63
145 -4 14 -13 32 -20 40 -19 24 -105 218 -105 239 0 7 -9 29 -20 51 -11 22
-20 48 -20 58 0 11 -6 25 -14 31 -8 7 -17 28 -21 47 -3 19 -12 37 -20 40 -8 3
-17 14 -20 24 -20 62 -143 80 -210 29z m131 -121 c12 -24 31 -63 42 -88 21
-45 25 -56 80 -205 16 -44 48 -118 70 -165 23 -46 42 -91 42 -99 0 -8 7 -22
15 -31 36 -40 34 -218 -3 -286 -6 -12 -16 -71 -21 -130 -14 -152 -30 -276 -48
-364 -8 -41 -20 -131 -28 -199 -16 -147 -41 -296 -61 -367 -8 -28 -14 -58 -14
-68 0 -16 -67 -86 -82 -86 -37 0 -83 85 -113 210 -7 30 -18 69 -24 85 -15 41
-39 161 -55 272 -8 50 -17 97 -21 103 -4 7 -11 42 -16 79 -4 36 -13 91 -18
121 -30 150 -35 141 65 106 103 -35 185 -41 218 -15 51 40 19 92 -56 91 -169
-3 -288 110 -288 272 0 70 66 363 104 461 8 22 15 52 16 67 0 15 5 30 10 33 6
3 15 26 21 50 6 25 17 50 25 56 8 6 14 19 14 29 0 15 10 30 65 93 23 27 38 21
61 -25z"/>
<path d="M1599 2416 c-15 -32 -4 -89 21 -111 11 -10 20 -25 20 -32 0 -8 9 -26
20 -40 11 -14 20 -34 20 -43 0 -10 6 -23 14 -29 8 -7 17 -24 21 -39 11 -46 54
-129 69 -135 25 -10 56 5 62 29 5 21 -33 143 -57 184 -5 8 -14 26 -20 40 -6
14 -20 43 -30 66 -11 23 -19 46 -19 52 0 6 -9 27 -21 46 -27 46 -82 52 -100
12z"/>
</g>
</svg>
