<?xml version="1.0" standalone="no"?>
<!DOCTYPE svg PUBLIC "-//W3C//DTD SVG 20010904//EN"
 "http://www.w3.org/TR/2001/REC-SVG-20010904/DTD/svg10.dtd">
<svg version="1.0" xmlns="http://www.w3.org/2000/svg"
 width="241.730190pt" height="164.410947pt" viewBox="0 0 241.730190 164.410947"
 preserveAspectRatio="xMidYMid meet">
<metadata>
Created by potrace 1.16, written by Peter Selinger 2001-2019
</metadata>
<g transform="translate(-42.151803,244.410947) scale(0.100000,-0.100000)"
fill="#000000" stroke="none">
<path d="M1050 2441 c-110 -7 -142 -24 -188 -101 l-27 -45 -3 -243 c-3 -209
-1 -247 12 -268 25 -37 62 -56 124 -63 48 -5 57 -9 57 -25 0 -19 -8 -20 -291
-17 l-291 3 -13 -33 c-12 -27 -11 -36 1 -58 l15 -26 280 0 c309 -1 333 -5 288
-49 -10 -11 -34 -16 -70 -16 -30 0 -68 -7 -85 -15 l-29 -16 0 -250 c1 -292 4
-305 84 -374 l51 -45 168 0 168 0 44 30 c26 18 50 45 61 70 23 52 24 52 213
56 178 4 202 -2 216 -48 4 -13 26 -42 48 -65 l41 -43 172 0 c293 0 327 39 325
375 -2 266 -6 294 -47 311 -18 8 -58 14 -87 14 -61 0 -89 18 -67 45 10 12 58
14 293 14 275 1 281 1 304 23 29 27 29 49 0 76 -23 22 -30 22 -304 22 -241 0
-282 2 -293 15 -21 25 1 37 80 44 115 11 114 9 120 264 6 221 -2 301 -34 336
-9 10 -16 23 -16 29 0 6 -20 24 -46 41 l-45 31 -172 0 -173 0 -43 -41 c-24
-23 -49 -57 -57 -75 -21 -50 -37 -54 -217 -54 -177 0 -193 5 -211 65 -3 12
-25 39 -49 62 -41 41 -43 41 -127 46 -47 2 -128 1 -180 -2z m190 -112 c57 -15
64 -23 70 -86 10 -112 -3 -383 -20 -394 -19 -13 -320 -1 -337 13 -24 19 -18
375 7 415 40 66 147 86 280 52z m986 -4 c80 -23 84 -37 84 -269 0 -183 -1
-196 -19 -206 -38 -20 -305 -13 -332 9 -35 28 -42 391 -9 430 38 45 183 64
276 36z m-418 -181 c33 -23 33 -175 0 -198 -26 -18 -362 -24 -373 -7 -3 6 -8
47 -10 92 -8 131 -11 129 193 129 135 0 172 -3 190 -16z m-7 -319 c11 -4 25
-18 33 -33 31 -60 49 -67 165 -67 l106 0 3 -100 c3 -133 5 -131 -121 -127 -92
3 -106 1 -130 -18 -15 -12 -27 -26 -27 -32 0 -31 -36 -37 -208 -38 -170 0
-173 0 -197 25 -14 13 -25 28 -25 34 0 20 -73 34 -153 28 -110 -7 -117 0 -116
128 2 119 2 120 131 104 l93 -11 52 58 51 59 162 -2 c89 -1 171 -5 181 -8z
m-507 -445 c17 -16 22 -87 19 -255 -2 -158 -4 -171 -23 -187 -26 -21 -113 -32
-206 -25 -80 6 -108 17 -125 49 -16 31 -21 343 -6 388 l12 35 95 6 c107 7 221
1 234 -11z m1004 -8 c8 -11 12 -69 12 -205 l0 -189 -29 -29 c-32 -31 -41 -33
-191 -30 -159 3 -160 5 -160 248 0 202 3 212 66 222 74 13 288 1 302 -17z
m-481 -78 c16 -22 18 -167 3 -195 -10 -18 -23 -19 -189 -19 -205 0 -198 -3
-201 90 -6 153 -17 145 200 143 154 -1 176 -4 187 -19z"/>
</g>
</svg>
