<?xml version="1.0" standalone="no"?>
<!DOCTYPE svg PUBLIC "-//W3C//DTD SVG 20010904//EN"
 "http://www.w3.org/TR/2001/REC-SVG-20010904/DTD/svg10.dtd">
<svg version="1.0" xmlns="http://www.w3.org/2000/svg"
 width="131.422858pt" height="238.364995pt" viewBox="0 0 131.422858 238.364995"
 preserveAspectRatio="xMidYMid meet">
<metadata>
Created by potrace 1.16, written by Peter Selinger 2001-2019
</metadata>
<g transform="translate(-95.350295,281.247315) scale(0.100000,-0.100000)"
fill="#000000" stroke="none">
<path d="M1083 2778 c-70 -51 -93 -119 -94 -271 -1 -107 2 -130 20 -167 12
-24 21 -49 21 -56 0 -7 31 -48 69 -93 92 -106 91 -104 90 -223 l0 -103 -45
-60 c-25 -33 -52 -76 -60 -95 -9 -19 -22 -42 -28 -50 -7 -8 -21 -37 -30 -65
-17 -49 -23 -69 -53 -190 -18 -75 -26 -268 -14 -360 17 -125 71 -315 97 -336
8 -6 14 -17 14 -24 0 -28 111 -159 183 -217 111 -87 247 -20 235 116 -4 41
-15 66 -59 131 -76 111 -97 165 -139 350 -12 51 -11 176 0 235 29 146 69 201
227 307 111 74 95 74 194 -3 205 -158 264 -327 209 -599 -13 -64 -80 -214
-105 -235 -8 -7 -15 -18 -15 -24 0 -7 -11 -27 -24 -44 -118 -160 -2 -335 167
-251 45 22 146 125 147 148 0 8 9 24 19 35 25 28 77 126 105 201 94 246 61
630 -73 845 -91 145 -116 226 -106 331 8 81 37 143 96 203 21 23 39 46 39 51
0 6 5 16 11 22 6 6 22 38 35 70 28 69 35 243 10 278 -7 11 -16 31 -19 45 -8
31 -80 108 -114 121 -50 19 -102 11 -142 -22 -47 -37 -55 -72 -40 -176 5 -40
6 -79 2 -87 -16 -28 -258 -216 -287 -222 -20 -4 -36 0 -57 15 -15 12 -31 21
-34 21 -14 0 -103 67 -153 114 -79 74 -86 92 -71 180 12 70 11 75 -10 109 -53
86 -139 104 -218 45z m1016 -137 c28 -51 33 -202 7 -250 -8 -14 -21 -39 -29
-56 -21 -42 -98 -121 -124 -128 -19 -4 -78 3 -140 18 -34 8 -30 42 7 57 43 19
184 151 204 191 19 41 21 107 4 153 -27 75 31 88 71 15z m-903 24 c3 -8 -2
-37 -12 -64 -14 -41 -15 -55 -6 -76 7 -14 12 -36 12 -47 0 -23 164 -191 204
-209 11 -5 44 -25 71 -45 57 -39 158 -74 217 -74 21 0 48 -5 59 -11 11 -5 48
-15 82 -20 93 -15 96 -20 94 -152 -1 -101 1 -117 23 -159 14 -26 42 -82 64
-125 21 -43 44 -85 51 -93 7 -8 16 -28 19 -45 4 -16 14 -37 23 -47 8 -9 18
-40 22 -70 4 -29 13 -64 20 -77 24 -44 18 -304 -8 -379 -11 -34 -21 -71 -21
-81 0 -10 -7 -24 -15 -31 -8 -7 -15 -18 -15 -24 0 -10 -39 -87 -87 -173 -28
-50 -109 -125 -131 -121 -22 4 -28 55 -9 76 54 60 140 210 153 267 3 17 13 50
21 75 22 65 22 354 0 396 -8 16 -19 47 -23 69 -12 63 -80 151 -196 249 -117
100 -220 176 -236 176 -13 0 -61 32 -120 79 -49 38 -106 122 -121 176 -8 31
-32 61 -104 130 -84 82 -95 96 -115 158 -31 96 -30 185 4 243 27 46 68 61 80
29z m200 -820 c26 -24 62 -55 80 -67 55 -37 45 -56 -56 -105 -112 -54 -230
-213 -230 -308 0 -14 -7 -42 -15 -62 -9 -21 -15 -67 -15 -113 0 -43 7 -96 15
-120 8 -23 15 -57 15 -75 0 -85 96 -308 165 -384 37 -41 38 -55 2 -59 -45 -5
-132 93 -195 220 -110 225 -128 458 -52 703 25 81 90 215 130 265 15 19 35 53
44 75 18 41 43 75 57 75 5 0 30 -20 55 -45z"/>
<path d="M1554 2045 c-21 -21 -23 -28 -13 -47 32 -62 62 -73 97 -35 28 29 28
31 -4 73 -31 41 -47 42 -80 9z"/>
</g>
</svg>
