<?xml version="1.0" standalone="no"?>
<!DOCTYPE svg PUBLIC "-//W3C//DTD SVG 20010904//EN"
 "http://www.w3.org/TR/2001/REC-SVG-20010904/DTD/svg10.dtd">
<svg version="1.0" xmlns="http://www.w3.org/2000/svg"
 width="146.498497pt" height="237.059500pt" viewBox="0 0 146.498497 237.059500"
 preserveAspectRatio="xMidYMid meet">
<metadata>
Created by potrace 1.16, written by Peter Selinger 2001-2019
</metadata>
<g transform="translate(-85.449818,280.613021) scale(0.100000,-0.100000)"
fill="#000000" stroke="none">
<path d="M1350 2804 c-19 -3 -69 -11 -110 -18 -41 -8 -97 -17 -125 -21 -27 -4
-69 -15 -92 -26 -23 -10 -45 -19 -49 -19 -4 0 -27 -16 -51 -36 -55 -45 -79
-97 -64 -139 5 -16 14 -55 20 -85 5 -30 14 -68 20 -83 6 -16 11 -40 11 -55 0
-15 8 -67 19 -117 26 -116 36 -173 62 -320 11 -66 27 -142 35 -169 8 -27 14
-62 14 -77 0 -33 41 -128 81 -185 33 -48 36 -82 15 -164 -8 -30 -17 -82 -21
-115 -3 -33 -12 -78 -20 -100 -7 -22 -16 -64 -20 -94 -3 -30 -12 -66 -19 -80
-7 -14 -16 -46 -20 -71 -4 -24 -11 -49 -15 -55 -13 -15 -41 -131 -41 -166 0
-57 133 -139 224 -139 13 0 39 -7 59 -15 41 -17 356 -26 522 -14 165 11 336
59 389 110 33 31 39 113 11 155 -8 13 -15 32 -15 42 0 11 -11 40 -25 66 -14
26 -25 61 -25 77 0 17 -6 42 -14 57 -7 15 -16 56 -20 92 -3 36 -13 99 -20 140
-39 204 -39 269 2 294 20 12 62 115 62 151 0 20 6 48 14 63 7 15 16 52 20 83
3 31 12 71 20 90 7 19 17 61 21 93 4 33 11 70 16 83 5 13 22 111 39 216 17
106 37 212 45 237 73 217 -125 309 -680 315 -132 2 -256 1 -275 -1z m579 -130
c68 -8 132 -19 142 -24 10 -6 30 -10 45 -10 32 0 64 -25 64 -50 0 -36 -28 -45
-250 -87 -198 -37 -595 -22 -876 33 -12 2 -32 12 -45 23 -124 101 445 172 920
115z m-833 -254 c42 -12 122 -25 178 -30 55 -6 128 -15 161 -20 75 -12 293
-12 360 1 28 5 88 13 135 19 47 5 110 17 140 25 126 35 129 25 64 -203 -9 -30
-18 -79 -21 -110 -3 -32 -12 -70 -20 -85 -7 -15 -16 -58 -20 -95 -3 -37 -10
-75 -15 -85 -5 -10 -14 -45 -19 -78 -23 -144 -76 -254 -134 -280 -11 -5 -27
-13 -35 -18 -8 -5 -53 -19 -100 -32 -190 -53 -447 -7 -545 97 -49 52 -52 58
-60 105 -4 24 -13 58 -20 75 -7 17 -16 60 -20 95 -4 35 -13 79 -21 98 -8 18
-14 49 -14 68 0 19 -9 78 -19 131 -11 54 -23 120 -27 147 -3 28 -12 61 -19 75
-25 49 -30 120 -9 120 2 0 39 -9 80 -20z m232 -1084 c62 -32 258 -47 382 -30
63 9 125 23 137 30 12 8 36 14 52 14 37 0 36 3 56 -179 9 -73 19 -141 24 -150
5 -9 12 -43 16 -76 4 -33 16 -89 27 -125 20 -66 27 -84 54 -133 14 -25 14 -30
0 -52 -61 -93 -628 -123 -878 -45 -97 30 -113 50 -83 106 8 16 15 38 15 49 0
11 6 30 14 41 8 12 18 45 22 75 4 30 12 65 19 79 7 14 16 55 19 92 4 36 14 88
22 114 8 26 14 71 14 100 0 98 25 123 88 90z"/>
</g>
</svg>
