<?xml version="1.0" standalone="no"?>
<!DOCTYPE svg PUBLIC "-//W3C//DTD SVG 20010904//EN"
 "http://www.w3.org/TR/2001/REC-SVG-20010904/DTD/svg10.dtd">
<svg version="1.0" xmlns="http://www.w3.org/2000/svg"
 width="252.601712pt" height="224.964476pt" viewBox="0 0 252.601712 224.964476"
 preserveAspectRatio="xMidYMid meet">
<metadata>
Created by potrace 1.16, written by Peter Selinger 2001-2019
</metadata>
<g transform="translate(-43.898288,285.985307) scale(0.100000,-0.100000)"
fill="#000000" stroke="none">
<path d="M535 2846 c-16 -7 -45 -31 -62 -54 l-33 -40 0 -861 -1 -861 21 -30
c12 -17 38 -42 57 -58 l36 -27 396 -2 c218 -2 404 -4 414 -7 14 -4 17 -17 17
-90 0 -111 -15 -130 -93 -121 -96 11 -149 -26 -96 -66 22 -17 56 -19 507 -19
493 0 522 2 522 38 0 31 -22 42 -85 42 -91 0 -96 7 -93 120 l3 95 392 2 c445
1 442 1 498 81 l30 44 0 858 0 858 -31 39 c-63 79 38 73 -1234 73 -919 -1
-1141 -3 -1165 -14z m2319 -91 l26 -24 0 -840 c0 -462 -3 -847 -6 -856 -18
-46 8 -45 -1172 -45 l-1109 0 -27 21 c-15 12 -32 33 -37 46 -12 33 -12 1623 0
1655 12 32 34 49 74 58 17 4 525 8 1128 8 l1097 2 26 -25z m-906 -1862 c15
-28 7 -184 -9 -194 -18 -11 -439 -9 -461 3 -25 12 -26 168 -2 192 25 25 459
24 472 -1z"/>
<path d="M2599 2656 c-75 -44 -136 -94 -258 -211 -238 -229 -537 -537 -579
-597 -18 -25 -39 -41 -64 -48 -50 -14 -91 -64 -85 -104 4 -25 -2 -39 -29 -69
-35 -39 -44 -83 -22 -105 21 -21 131 -15 161 8 14 11 56 35 93 52 67 31 165
122 414 384 36 38 103 106 150 151 209 203 410 427 410 456 -1 31 -28 63 -75
87 -48 25 -70 24 -116 -4z m106 -58 c14 -6 24 -16 22 -22 -6 -19 -40 -19 -54
0 -25 34 -13 43 32 22z m-117 -94 c38 -26 26 -46 -109 -190 -133 -142 -155
-158 -171 -129 -5 9 -21 20 -34 25 -42 16 -28 38 112 176 142 139 159 149 202
118z m-358 -325 c0 -5 11 -19 25 -31 30 -26 32 -44 5 -53 -14 -4 -29 4 -55 29
-39 40 -43 51 -18 64 18 11 43 5 43 -9z m-72 -84 c12 -14 26 -25 32 -25 31 0
-4 -50 -115 -160 -138 -139 -147 -144 -169 -102 -8 16 -22 32 -31 35 -8 4 -15
11 -15 16 0 20 248 261 269 261 4 0 17 -11 29 -25z m-290 -327 c20 -20 14 -45
-22 -82 -37 -40 -60 -45 -76 -17 -31 58 54 143 98 99z m-143 -39 c0 -7 -8 -15
-17 -17 -18 -3 -25 18 -11 32 10 10 28 1 28 -15z m-79 -144 c3 -8 -1 -24 -10
-36 l-15 -23 -10 25 c-5 15 -5 29 1 37 14 16 27 15 34 -3z"/>
<path d="M890 2582 c-85 -6 -156 -25 -183 -51 -53 -48 -55 -66 -57 -375 -1
-448 -11 -438 464 -440 338 -1 343 0 393 97 l26 51 -6 276 c-8 437 -7 437
-412 442 -104 2 -206 2 -225 0z m288 -181 c46 -9 77 -33 116 -90 30 -42 46
-142 27 -165 -11 -13 -135 -27 -273 -30 -62 -2 -73 -13 -53 -58 39 -95 133
-112 199 -37 35 39 104 35 120 -6 25 -66 -81 -138 -204 -139 -116 -1 -177 34
-245 138 -33 51 -29 217 6 271 40 61 100 115 129 116 14 0 34 5 45 10 20 9 57
6 133 -10z"/>
<path d="M1017 2302 c-8 -9 -21 -30 -27 -47 -21 -56 18 -70 167 -56 28 2 34
39 13 81 -20 40 -21 40 -79 40 -42 0 -62 -5 -74 -18z"/>
<path d="M1640 2296 c0 -30 19 -38 64 -24 43 13 45 21 11 36 -45 20 -75 15
-75 -12z"/>
<path d="M1876 2313 c-4 -4 -28 -8 -53 -8 -52 0 -71 -21 -26 -30 15 -3 45 -9
65 -14 44 -10 72 5 66 35 -3 20 -38 31 -52 17z"/>
<path d="M1955 2290 c-8 -25 1 -40 25 -40 21 0 29 16 22 43 -6 23 -39 22 -47
-3z"/>
<path d="M2387 2033 c-10 -15 10 -35 29 -31 26 5 24 32 -3 36 -11 2 -23 -1
-26 -5z"/>
<path d="M2487 2003 c-15 -14 -7 -43 12 -43 23 0 34 23 18 39 -13 13 -21 14
-30 4z"/>
<path d="M2553 1994 c-9 -24 23 -51 45 -38 9 6 32 9 50 6 27 -4 32 -1 32 16 0
28 -15 35 -41 22 -15 -9 -24 -9 -32 -1 -16 16 -47 13 -54 -5z"/>
<path d="M2721 1996 c-16 -19 -6 -36 20 -36 15 0 20 6 17 22 -4 27 -21 33 -37
14z"/>
<path d="M1100 1440 c-397 -6 -398 -6 -439 -76 -43 -72 -36 -146 19 -214 l29
-35 994 0 995 0 27 25 c107 100 83 247 -47 285 -59 17 -886 25 -1578 15z
m1601 -97 c27 -27 23 -98 -7 -131 l-29 -32 -254 -1 c-293 -1 -282 -4 -289 91
-7 96 -22 91 294 88 191 -2 277 -7 285 -15z"/>
</g>
</svg>
