<?xml version="1.0" standalone="no"?>
<!DOCTYPE svg PUBLIC "-//W3C//DTD SVG 20010904//EN"
 "http://www.w3.org/TR/2001/REC-SVG-20010904/DTD/svg10.dtd">
<svg version="1.0" xmlns="http://www.w3.org/2000/svg"
 width="203.871421pt" height="238.844070pt" viewBox="0 0 203.871421 238.844070"
 preserveAspectRatio="xMidYMid meet">
<metadata>
Created by potrace 1.16, written by Peter Selinger 2001-2019
</metadata>
<g transform="translate(-64.061973,284.773045) scale(0.100000,-0.100000)"
fill="#000000" stroke="none">
<path d="M1135 2844 c-45 -12 -142 -49 -165 -63 -80 -47 -131 -84 -152 -110
-74 -94 -135 -214 -144 -283 -3 -29 -12 -72 -20 -96 -18 -55 -18 -131 0 -201
8 -31 19 -78 24 -106 13 -65 41 -143 86 -240 20 -43 36 -83 36 -90 0 -7 7 -18
15 -25 8 -7 15 -20 15 -29 0 -9 9 -34 21 -55 12 -23 24 -72 30 -125 5 -47 13
-108 18 -136 5 -27 12 -96 16 -153 3 -56 12 -121 20 -143 8 -23 15 -53 15 -68
0 -26 49 -190 67 -227 6 -10 21 -41 34 -69 51 -105 121 -155 216 -155 100 0
147 42 183 162 6 21 16 40 21 43 5 4 9 21 9 38 0 18 9 66 20 107 11 41 20 92
20 114 0 51 48 265 65 292 37 57 107 75 141 36 25 -30 64 -133 71 -187 3 -27
11 -61 18 -75 7 -14 16 -61 20 -105 4 -44 13 -95 21 -114 8 -18 14 -46 14 -62
0 -54 48 -171 87 -211 96 -99 240 -43 322 125 61 125 91 203 91 235 0 16 6 45
14 63 8 19 19 76 25 128 7 52 14 98 17 103 3 5 10 81 15 168 6 107 13 168 23
183 8 12 17 37 21 56 7 34 28 87 72 181 14 30 32 71 41 90 8 19 21 46 28 60 7
14 17 48 22 75 6 28 15 68 21 90 15 58 13 182 -4 248 -8 32 -15 68 -15 81 0
52 -165 326 -196 326 -6 0 -16 6 -23 13 -48 59 -266 124 -376 113 -61 -6 -70
-9 -258 -72 -74 -25 -119 -35 -145 -32 -36 5 -191 55 -262 86 -35 15 -215 26
-255 16z m276 -155 c52 -17 101 -36 109 -43 8 -7 56 -32 105 -55 50 -24 122
-58 160 -76 112 -54 223 -54 233 -2 7 35 -76 87 -138 87 -63 0 -88 50 -35 70
187 71 371 62 502 -25 31 -21 123 -125 123 -140 0 -4 11 -31 24 -59 45 -98 50
-120 54 -251 2 -97 0 -138 -11 -165 -8 -19 -29 -71 -45 -115 -17 -44 -44 -107
-60 -140 -16 -33 -33 -71 -37 -85 -4 -14 -13 -38 -20 -55 -29 -66 -54 -223
-59 -367 -2 -81 -10 -156 -15 -167 -6 -11 -18 -51 -26 -88 -36 -174 -100 -339
-153 -395 -50 -53 -105 -25 -118 59 -3 26 -12 59 -19 73 -7 14 -16 57 -20 95
-4 39 -13 84 -20 100 -6 17 -15 59 -19 94 -4 36 -13 76 -20 90 -7 14 -17 44
-20 66 -11 58 -42 114 -94 168 l-46 47 -72 0 c-56 0 -77 -4 -97 -20 -14 -11
-30 -20 -36 -20 -18 0 -79 -123 -96 -195 -9 -38 -21 -88 -26 -110 -5 -22 -16
-83 -24 -135 -7 -52 -17 -106 -23 -120 -5 -14 -13 -51 -16 -83 -13 -101 -70
-164 -119 -132 -84 55 -196 356 -197 528 0 26 -6 89 -14 140 -8 50 -18 128
-21 172 -4 44 -13 89 -20 100 -7 11 -16 36 -20 55 -4 19 -14 44 -21 55 -8 11
-14 29 -14 41 0 12 -8 32 -17 45 -40 53 -113 233 -113 277 -1 15 -7 38 -15 52
-20 34 -20 230 -1 268 7 15 17 47 21 72 4 25 16 56 26 69 11 13 19 29 19 37 0
7 22 37 49 67 128 139 314 181 512 116z"/>
</g>
</svg>
