<?xml version="1.0" standalone="no"?>
<!DOCTYPE svg PUBLIC "-//W3C//DTD SVG 20010904//EN"
 "http://www.w3.org/TR/2001/REC-SVG-20010904/DTD/svg10.dtd">
<svg version="1.0" xmlns="http://www.w3.org/2000/svg"
 width="242.033095pt" height="240.745271pt" viewBox="0 0 242.033095 240.745271"
 preserveAspectRatio="xMidYMid meet">
<metadata>
Created by potrace 1.16, written by Peter Selinger 2001-2019
</metadata>
<g transform="translate(-47.178412,292.129606) scale(0.100000,-0.100000)"
fill="#000000" stroke="none">
<path d="M1450 2900 c-25 -10 -61 -19 -81 -19 -19 -1 -44 -8 -55 -16 -10 -8
-29 -15 -40 -15 -28 0 -261 -120 -313 -162 -47 -36 -225 -213 -251 -248 -37
-50 -106 -170 -115 -200 -4 -14 -16 -36 -26 -49 -11 -13 -19 -33 -19 -45 0
-11 -7 -29 -15 -40 -8 -10 -17 -39 -21 -65 -4 -25 -13 -56 -21 -68 -19 -28
-28 -307 -15 -423 10 -85 30 -160 58 -213 7 -16 14 -37 14 -46 0 -10 8 -29 19
-42 10 -13 22 -35 26 -48 4 -13 20 -46 36 -73 16 -27 36 -66 44 -85 25 -60
278 -304 355 -342 36 -18 72 -39 80 -46 8 -7 27 -16 42 -20 15 -4 32 -13 39
-21 6 -8 17 -14 23 -14 6 0 28 -9 49 -20 20 -11 46 -20 57 -20 10 0 43 -10 72
-22 70 -29 520 -33 573 -6 17 9 49 20 70 23 22 4 51 13 65 21 14 7 48 22 75
35 182 81 395 252 495 399 44 65 170 306 170 326 0 8 9 40 20 71 43 128 43
476 -1 618 -41 133 -118 285 -215 425 -81 115 -330 320 -390 320 -6 0 -17 6
-23 14 -7 8 -25 18 -41 21 -16 3 -34 12 -40 20 -6 8 -26 17 -43 21 -17 3 -41
12 -52 19 -11 7 -39 15 -61 19 -23 3 -54 13 -70 21 -47 24 -413 21 -474 -5z
m415 -110 c64 -7 153 -33 201 -58 10 -5 64 -31 119 -58 121 -59 182 -105 300
-226 85 -87 138 -162 151 -214 3 -12 14 -30 25 -40 10 -9 19 -25 19 -34 0 -9
4 -20 10 -26 22 -22 53 -137 71 -264 19 -129 19 -141 4 -280 -9 -80 -22 -158
-30 -175 -7 -16 -17 -41 -20 -55 -11 -39 -45 -107 -61 -120 -7 -7 -14 -23 -14
-35 0 -12 -8 -33 -18 -46 -10 -13 -23 -35 -29 -49 -44 -101 -329 -350 -401
-350 -11 0 -25 -7 -32 -15 -15 -18 -113 -65 -135 -65 -9 0 -26 -5 -38 -12 -12
-7 -58 -18 -102 -24 -44 -7 -108 -17 -143 -23 -43 -6 -82 -6 -120 0 -31 6 -95
16 -142 23 -47 7 -98 21 -115 30 -16 9 -42 16 -56 16 -15 0 -32 7 -39 15 -7 8
-20 15 -30 15 -9 0 -25 9 -35 20 -10 11 -23 20 -28 20 -89 0 -354 253 -433
414 -14 28 -30 58 -35 66 -92 153 -131 368 -109 593 7 73 19 141 25 152 7 11
16 41 19 67 4 25 14 52 21 58 8 7 15 18 15 25 0 21 90 186 128 235 102 131
250 250 402 322 101 47 128 58 160 64 19 4 44 12 55 18 42 22 306 32 440 16z"/>
<path d="M1539 2686 c-58 -6 -112 -16 -120 -23 -8 -6 -32 -14 -54 -18 -22 -4
-47 -13 -55 -20 -8 -7 -26 -16 -40 -20 -14 -4 -36 -16 -49 -26 -13 -11 -28
-19 -32 -19 -11 0 -97 -60 -158 -109 -25 -20 -71 -70 -103 -111 -32 -41 -68
-86 -78 -98 -11 -13 -20 -30 -20 -37 0 -7 -6 -18 -14 -24 -8 -7 -18 -25 -21
-41 -3 -16 -13 -34 -21 -41 -8 -6 -14 -18 -14 -27 0 -8 -9 -33 -19 -56 -60
-125 -58 -499 3 -611 9 -16 16 -36 16 -43 0 -16 78 -164 94 -177 6 -5 23 -28
36 -50 33 -56 73 -97 160 -166 41 -33 86 -69 98 -79 13 -11 30 -20 37 -20 7 0
15 -7 19 -15 3 -8 11 -15 18 -15 7 0 36 -12 63 -25 28 -14 55 -25 62 -25 6 0
24 -6 40 -14 122 -61 494 -58 614 5 20 10 46 19 57 19 11 0 25 7 32 15 7 8 17
15 23 15 10 0 219 138 252 167 69 61 245 335 245 382 0 6 6 22 14 34 26 42 49
241 42 351 -9 123 -27 228 -43 247 -6 8 -15 28 -19 44 -24 97 -113 242 -209
340 -59 59 -219 175 -243 175 -6 0 -12 4 -12 9 0 5 -15 14 -32 21 -18 6 -45
18 -60 26 -14 8 -34 14 -45 14 -10 0 -34 9 -54 19 -26 14 -66 21 -135 26 -55
3 -115 7 -134 9 -19 2 -83 -2 -141 -8z m85 -128 c9 -13 16 -43 16 -70 0 -60
31 -83 74 -54 23 14 25 21 20 59 -10 72 5 81 112 70 153 -17 270 -87 204 -123
-27 -14 -27 -71 0 -95 26 -23 60 -10 86 34 31 52 54 48 135 -24 103 -92 153
-186 103 -193 -12 -2 -34 -16 -50 -33 l-28 -29 21 -28 c27 -37 64 -40 97 -8
27 28 56 34 56 12 0 -7 9 -25 20 -39 11 -14 20 -32 20 -41 0 -9 9 -42 20 -73
24 -68 26 -135 5 -153 -10 -8 -30 -10 -63 -5 -56 7 -82 -9 -82 -50 0 -39 27
-58 73 -51 78 13 114 -57 72 -138 -9 -16 -20 -46 -25 -65 -31 -125 -51 -149
-86 -110 -32 36 -51 41 -84 24 -57 -30 -42 -99 28 -126 12 -5 22 -16 22 -25 0
-22 -103 -149 -138 -171 -15 -9 -35 -25 -45 -36 -25 -24 -49 -18 -66 18 -20
44 -41 65 -66 65 -48 0 -60 -58 -24 -117 29 -47 16 -58 -121 -112 -62 -23
-165 -30 -183 -12 -7 7 -14 40 -17 74 l-5 62 -45 0 -45 0 3 -53 c6 -87 -13
-106 -96 -97 -37 4 -76 13 -87 21 -10 8 -31 14 -46 14 -14 0 -37 8 -50 18 -13
9 -33 22 -44 28 -31 17 -29 41 4 80 36 41 39 69 10 84 -34 19 -68 4 -87 -38
-31 -66 -41 -67 -120 -4 -68 52 -162 164 -162 191 0 21 19 41 39 41 22 0 51
31 51 55 0 47 -42 58 -103 25 -20 -11 -40 -20 -45 -20 -9 0 -52 92 -52 112 0
8 -9 41 -20 73 -37 108 -26 135 57 135 64 0 94 31 77 78 -9 25 -14 27 -68 29
-86 3 -105 33 -72 114 8 19 17 54 21 79 4 25 16 56 26 69 11 13 19 32 19 42 0
27 30 24 75 -7 44 -29 74 -28 86 3 9 25 -27 77 -61 88 -48 15 22 136 124 213
67 52 87 51 130 -8 19 -25 38 -40 51 -40 54 0 62 66 14 111 -38 35 -30 49 39
75 26 10 56 24 67 31 11 7 31 13 45 14 14 0 45 6 70 13 66 19 77 18 94 -6z"/>
<path d="M1642 2292 c-17 -17 -18 -38 -14 -308 l4 -289 25 -27 c14 -14 47 -37
73 -51 27 -14 68 -40 92 -57 131 -96 168 -111 206 -84 45 31 21 73 -78 135
-14 9 -36 28 -50 41 -14 14 -36 29 -50 33 -35 11 -88 53 -95 76 -4 10 -7 127
-7 260 -1 220 -3 243 -20 265 -23 29 -61 31 -86 6z"/>
</g>
</svg>
