<?xml version="1.0" standalone="no"?>
<!DOCTYPE svg PUBLIC "-//W3C//DTD SVG 20010904//EN"
 "http://www.w3.org/TR/2001/REC-SVG-20010904/DTD/svg10.dtd">
<svg version="1.0" xmlns="http://www.w3.org/2000/svg"
 width="242.813810pt" height="340.401588pt" viewBox="0 0 242.813810 340.401588"
 preserveAspectRatio="xMidYMid meet">
<metadata>
Created by potrace 1.16, written by Peter Selinger 2001-2019
</metadata>
<g transform="translate(-89.000000,380.306501) scale(0.100000,-0.100000)"
fill="#000000" stroke="none">
<path d="M1717 3793 c-11 -10 -8 -123 4 -145 21 -39 73 -51 120 -28 47 24 58
45 36 68 -15 15 -18 14 -40 -6 -30 -28 -43 -28 -63 3 -11 17 -14 35 -10 57 8
42 -23 76 -47 51z"/>
<path d="M1947 3794 c-15 -16 -8 -161 9 -175 29 -24 45 15 42 101 -3 67 -5 75
-23 78 -12 2 -24 0 -28 -4z"/>
<path d="M2280 3786 c-6 -8 -23 -16 -38 -18 -16 -2 -31 -12 -39 -27 -6 -13
-19 -28 -27 -33 -9 -5 -16 -18 -16 -29 0 -25 56 -83 70 -74 6 4 32 10 58 14
l47 6 0 75 c0 94 -21 126 -55 86z m-3 -82 c8 -21 -19 -46 -40 -38 -17 6 -23
35 -10 47 12 13 44 7 50 -9z"/>
<path d="M2422 3783 c-13 -27 1 -152 18 -163 44 -28 82 0 59 42 -8 13 -16 48
-19 78 -5 60 -38 83 -58 43z"/>
<path d="M2058 3783 c-13 -24 -6 -143 8 -158 31 -30 45 -1 42 84 -3 69 -5 76
-25 79 -11 2 -23 0 -25 -5z"/>
<path d="M2054 3041 c-11 -5 -41 -32 -65 -59 l-45 -50 -307 -4 -306 -3 -36
-35 c-58 -56 -60 -63 -94 -310 -7 -47 -16 -110 -22 -140 -6 -30 -17 -103 -24
-163 -8 -59 -17 -112 -21 -119 -4 -6 -11 -50 -15 -97 -5 -47 -15 -112 -24
-144 -8 -32 -15 -81 -15 -110 0 -29 -7 -79 -14 -112 -8 -33 -17 -104 -21 -159
-7 -87 -11 -102 -35 -130 -94 -109 -120 -187 -120 -355 0 -149 19 -191 87
-191 34 0 53 -21 53 -59 0 -34 55 -61 126 -61 78 0 96 14 103 76 l6 49 819 0
818 0 19 -24 c11 -13 19 -31 19 -41 0 -47 106 -76 185 -50 31 10 41 21 61 66
23 53 25 54 64 54 63 0 74 36 66 205 -10 179 -30 235 -119 332 -26 28 -31 42
-38 120 -4 48 -15 131 -24 183 -56 334 -135 932 -135 1021 0 55 -41 130 -90
164 l-43 30 -301 5 -301 5 -19 30 c-40 61 -137 99 -192 76z m113 -122 l27 -41
-19 -36 c-43 -80 -128 -65 -133 22 -6 96 74 132 125 55z m658 -87 c53 -10 85
-56 85 -124 0 -27 4 -68 9 -91 6 -23 20 -127 32 -232 12 -104 28 -215 35 -245
8 -30 14 -80 14 -111 0 -30 7 -78 15 -105 8 -27 18 -83 21 -124 3 -41 12 -100
20 -132 19 -77 34 -231 24 -242 -10 -10 -163 -17 -198 -9 -20 5 -23 10 -17 32
18 74 18 77 -18 114 l-34 37 -202 -1 c-119 -1 -206 2 -212 8 -6 6 2 25 24 54
47 61 57 83 57 121 0 18 9 66 20 107 11 41 20 95 21 120 1 61 21 171 37 198
19 34 15 100 -6 112 -10 5 -56 14 -102 20 -47 6 -110 15 -140 19 -178 23 -646
-11 -672 -50 -14 -20 -1 -91 18 -105 18 -13 22 -31 48 -233 29 -222 41 -270
77 -303 12 -12 19 -29 17 -44 l-3 -26 -193 2 c-243 3 -250 0 -254 -112 l-3
-72 -101 -3 c-76 -2 -104 1 -112 11 -12 14 6 206 28 292 5 22 10 63 10 90 0
28 6 82 14 120 21 98 45 254 57 359 5 49 16 112 24 140 8 27 15 75 15 105 0
81 44 260 70 285 20 20 32 21 288 24 147 2 276 1 288 -2 11 -3 35 -28 52 -55
21 -32 43 -53 64 -60 l31 -11 -6 -135 c-5 -133 1 -166 31 -165 32 1 37 22 38
147 1 158 -1 150 27 158 27 9 87 64 87 81 0 7 12 22 27 34 26 20 33 20 267 15
133 -3 259 -9 281 -13z m-532 -547 c39 -17 9 -23 -151 -29 -285 -12 -499 16
-287 38 64 6 418 -1 438 -9z m-151 -105 c346 0 330 5 304 -97 -8 -32 -19 -98
-25 -148 -6 -49 -15 -105 -20 -123 -6 -18 -8 -39 -5 -47 8 -20 -93 -125 -120
-125 -12 0 -39 -7 -61 -15 -100 -36 -279 -3 -346 64 -40 40 -56 83 -65 181 -4
36 -15 101 -25 145 -20 83 -24 156 -11 169 4 4 23 5 42 2 19 -3 169 -6 332 -6z
m642 -689 c22 -24 13 -57 -17 -67 -36 -11 -1295 -6 -1317 6 -24 13 -35 47 -20
65 11 13 108 15 675 15 641 0 662 -1 679 -19z m346 -169 c36 -15 67 -51 85
-101 20 -57 21 -256 2 -264 -8 -3 -488 -3 -1068 -1 -580 3 -1073 5 -1097 4
-66 0 -82 22 -82 119 0 99 22 169 67 213 l34 33 952 5 c1102 6 1074 6 1107 -8z
m-1955 -477 c0 -26 -49 -34 -59 -10 -9 25 3 37 32 33 19 -2 27 -9 27 -23z
m1931 10 c9 -23 -15 -45 -48 -45 -30 0 -44 19 -34 45 7 20 75 20 82 0z"/>
<path d="M1238 1214 c-57 -43 -65 -92 -23 -142 l26 -31 126 2 127 2 23 34 c27
39 29 80 8 121 -19 37 -31 40 -152 39 -91 -1 -106 -4 -135 -25z m94 -51 c21
-19 24 -56 4 -72 -22 -19 -80 0 -84 27 -8 52 41 80 80 45z m138 -3 c21 -39
-15 -85 -46 -59 -14 12 -19 60 -7 72 13 14 43 6 53 -13z"/>
<path d="M2498 1149 c-11 -6 -18 -22 -18 -40 l0 -29 261 2 c237 3 263 5 273
21 8 12 8 22 0 35 -10 15 -35 17 -255 19 -153 2 -250 -1 -261 -8z"/>
<path d="M2464 617 c-2 -7 -3 -58 -2 -113 3 -87 5 -99 22 -102 10 -2 23 1 28
6 11 11 12 181 1 208 -7 18 -42 19 -49 1z"/>
<path d="M3035 608 c-3 -13 -5 -63 -3 -113 3 -89 3 -90 28 -90 21 0 26 5 28
33 5 48 61 45 76 -5 9 -29 44 -40 63 -20 13 12 13 21 4 50 -16 47 -34 60 -90
67 -40 4 -46 8 -49 30 -6 56 -13 70 -32 70 -12 0 -22 -9 -25 -22z"/>
<path d="M2127 613 c-11 -10 -8 -41 4 -49 16 -9 41 20 33 39 -6 17 -25 22 -37
10z"/>
<path d="M2696 612 c-13 -21 -9 -194 5 -203 19 -12 36 -11 45 2 9 16 11 159 2
187 -7 21 -41 31 -52 14z"/>
<path d="M1575 546 c-18 -32 -18 -37 -3 -73 9 -21 19 -46 22 -55 9 -31 46 -22
52 12 4 16 13 35 20 41 18 15 18 46 0 56 -7 4 -18 18 -25 31 -17 32 -45 27
-66 -12z"/>
<path d="M1045 531 l-50 -6 -5 -47 c-3 -26 -2 -55 3 -63 8 -15 46 -21 48 -7 1
4 3 18 4 31 5 50 61 45 67 -6 5 -45 52 -40 56 5 5 46 54 44 62 -3 7 -43 53
-44 58 -1 9 75 -40 118 -110 97 -26 -8 -44 -9 -57 -1 -11 5 -21 9 -23 8 -2 0
-25 -4 -53 -7z"/>
<path d="M1393 528 c-25 -8 -33 -17 -33 -35 0 -28 21 -39 48 -24 40 21 73 -16
35 -38 -24 -13 -13 -21 33 -24 l39 -2 3 47 c3 40 0 49 -20 62 -33 21 -68 26
-105 14z"/>
<path d="M1746 507 c-46 -46 -43 -107 5 -107 22 0 33 16 33 50 1 16 8 26 20
28 24 5 37 -17 24 -41 -13 -24 2 -40 33 -35 29 4 39 70 16 102 -23 32 -100 34
-131 3z"/>
<path d="M2252 521 c-18 -11 -11 -57 8 -54 8 1 26 5 40 8 32 7 53 -7 44 -28
-4 -11 -17 -17 -37 -17 -45 0 -21 -16 35 -24 53 -8 72 10 61 55 -14 58 -100
93 -151 60z"/>
<path d="M2817 515 c-30 -29 -10 -55 41 -52 44 2 47 1 52 -28 4 -24 10 -30 30
-30 35 0 42 73 11 104 -26 26 -111 29 -134 6z"/>
<path d="M1954 506 c-3 -7 -4 -33 -2 -57 4 -53 34 -62 56 -17 7 16 22 33 33
38 10 6 19 20 19 30 0 25 -97 30 -106 6z"/>
<path d="M2120 500 c-6 -11 -10 -38 -8 -58 3 -32 6 -37 28 -37 24 0 25 3 25
55 0 60 -23 81 -45 40z"/>
</g>
</svg>
