<?xml version="1.0" standalone="no"?>
<!DOCTYPE svg PUBLIC "-//W3C//DTD SVG 20010904//EN"
 "http://www.w3.org/TR/2001/REC-SVG-20010904/DTD/svg10.dtd">
<svg version="1.0" xmlns="http://www.w3.org/2000/svg"
 width="242.144311pt" height="238.776285pt" viewBox="0 0 242.144311 238.776285"
 preserveAspectRatio="xMidYMid meet">
<metadata>
Created by potrace 1.16, written by Peter Selinger 2001-2019
</metadata>
<g transform="translate(-43.014541,281.912160) scale(0.100000,-0.100000)"
fill="#000000" stroke="none">
<path d="M1594 2807 c-12 -7 -43 -38 -69 -70 -26 -32 -57 -68 -68 -80 -332
-346 -380 -451 -199 -435 98 9 95 19 91 -231 -4 -235 0 -257 39 -273 35 -14
455 -11 500 3 44 14 46 28 38 274 -5 154 -4 215 4 220 6 4 45 7 87 7 66 -1 78
2 99 23 38 38 9 86 -147 250 -37 39 -84 93 -105 120 -20 28 -49 61 -63 74 -14
13 -52 48 -83 77 -58 56 -84 64 -124 41z m121 -164 c32 -32 65 -69 74 -83 9
-13 50 -60 91 -103 117 -123 124 -157 30 -157 -69 0 -70 -4 -70 -179 0 -86 -3
-193 -7 -238 l-6 -83 -178 0 c-140 0 -181 3 -192 14 -15 16 -33 333 -21 403
10 62 -24 97 -86 88 -26 -4 -50 -3 -53 2 -7 11 22 73 34 73 5 0 31 30 59 68
70 92 228 252 249 252 10 0 44 -26 76 -57z"/>
<path d="M1565 1890 c-11 -18 3 -24 61 -26 49 -2 76 8 57 19 -21 12 -111 18
-118 7z"/>
<path d="M1747 1884 c-11 -11 3 -24 24 -24 12 0 19 5 17 13 -5 14 -31 21 -41
11z"/>
<path d="M774 2012 c-60 -6 -122 -117 -199 -358 -30 -95 -67 -187 -83 -206 -6
-8 -16 -25 -22 -38 -6 -14 -17 -36 -25 -50 -10 -17 -15 -56 -15 -123 0 -107 9
-125 82 -163 15 -8 30 -24 32 -37 20 -105 27 -150 41 -272 22 -194 45 -266 98
-302 l40 -28 891 -3 c490 -2 906 0 924 3 45 8 112 79 112 118 0 16 5 37 10 48
6 11 15 59 21 107 5 48 16 112 24 143 8 31 15 74 15 95 1 53 32 119 66 136 96
47 86 211 -26 443 -21 44 -49 107 -61 140 -13 33 -29 67 -35 75 -11 14 -41 91
-65 167 -5 18 -25 48 -43 68 l-33 35 -164 1 c-90 1 -199 2 -242 2 -95 1 -121
-15 -93 -57 19 -30 7 -28 278 -30 205 -2 189 6 233 -111 15 -38 31 -77 36 -85
5 -8 14 -26 21 -40 6 -14 26 -56 44 -95 18 -38 36 -81 39 -94 4 -14 16 -38 26
-55 23 -38 25 -92 3 -100 -9 -3 -51 -6 -95 -6 -89 0 -98 7 -125 96 -8 26 -18
52 -23 58 -5 6 -21 47 -36 91 -65 191 -61 188 -190 183 -79 -3 -80 -3 -83 -30
-4 -35 44 -63 92 -54 42 8 57 -6 85 -79 12 -33 31 -82 43 -110 35 -85 44 -123
31 -136 -9 -9 -1391 -17 -1525 -9 -16 0 -7 50 20 116 16 38 37 90 46 116 28
77 50 98 102 98 52 0 79 12 94 41 21 38 -2 49 -109 49 l-97 0 -24 -31 c-12
-18 -26 -46 -31 -63 -4 -17 -22 -69 -40 -116 -17 -47 -40 -111 -51 -143 -25
-71 -38 -79 -141 -75 l-82 3 -3 34 c-2 22 3 40 15 55 19 21 33 55 87 206 15
41 33 89 41 105 7 17 27 60 44 98 20 44 38 70 53 76 13 4 114 8 225 9 111 0
207 3 212 7 15 9 14 62 -1 72 -12 7 -396 12 -464 5z m1974 -767 c18 -6 15 -62
-4 -69 -23 -9 -2197 -7 -2210 2 -16 11 -23 37 -13 53 7 12 93 15 511 19 555 6
1696 2 1716 -5z m-103 -175 c8 -12 -10 -130 -30 -205 -8 -27 -17 -79 -20 -115
-4 -36 -13 -80 -21 -99 -8 -18 -14 -44 -14 -58 0 -13 -11 -35 -25 -48 l-24
-25 -873 0 c-785 0 -876 2 -896 16 -30 21 -42 53 -51 139 -5 39 -18 139 -31
222 -12 84 -20 160 -16 168 7 19 1990 23 2001 5z"/>
<path d="M1293 993 c-26 -10 -17 -239 11 -299 49 -105 192 -118 263 -25 27 34
28 42 31 167 3 113 1 133 -13 148 -15 15 -20 15 -39 3 -19 -13 -21 -23 -21
-135 0 -133 -9 -155 -66 -167 -76 -17 -101 27 -101 176 -1 128 -13 153 -65
132z"/>
<path d="M1677 993 c-13 -12 -7 -59 13 -98 11 -22 20 -43 20 -48 0 -4 8 -27
18 -50 11 -23 32 -73 47 -110 35 -84 55 -98 90 -63 14 14 25 32 25 40 0 8 7
27 15 43 64 123 109 245 100 273 -15 48 -48 20 -100 -85 -37 -74 -55 -100 -69
-100 -21 0 -23 3 -62 95 -43 102 -70 131 -97 103z"/>
<path d="M1933 1650 c-41 -16 -30 -59 30 -123 57 -61 81 -72 121 -58 34 13 33
38 -3 75 -16 17 -47 50 -69 74 -43 45 -45 46 -79 32z"/>
<path d="M1223 1579 c-53 -80 -51 -102 9 -107 30 -3 40 3 86 54 72 78 69 124
-10 124 -36 0 -40 -4 -85 -71z"/>
<path d="M1602 1578 c-19 -19 -16 -153 4 -172 47 -48 87 29 75 149 -3 33 -54
48 -79 23z"/>
</g>
</svg>
