<?xml version="1.0" standalone="no"?>
<!DOCTYPE svg PUBLIC "-//W3C//DTD SVG 20010904//EN"
 "http://www.w3.org/TR/2001/REC-SVG-20010904/DTD/svg10.dtd">
<svg version="1.0" xmlns="http://www.w3.org/2000/svg"
 width="244.350570pt" height="240.566399pt" viewBox="0 0 244.350570 240.566399"
 preserveAspectRatio="xMidYMid meet">
<metadata>
Created by potrace 1.16, written by Peter Selinger 2001-2019
</metadata>
<g transform="translate(-44.275350,293.882990) scale(0.100000,-0.100000)"
fill="#000000" stroke="none">
<path d="M735 2926 c-120 -27 -215 -116 -269 -251 -30 -74 -31 -741 -2 -820
33 -86 142 -197 216 -220 38 -12 40 -18 40 -206 0 -188 3 -199 51 -199 30 0
51 15 180 132 110 99 128 99 129 0 0 -37 40 -130 79 -181 26 -35 62 -60 157
-112 l56 -30 390 3 389 3 5 -25 c2 -14 9 -43 15 -65 6 -22 14 -65 19 -95 18
-121 53 -209 82 -210 10 0 99 78 124 108 28 34 68 23 101 -28 13 -19 34 -47
48 -63 14 -15 37 -45 51 -67 61 -91 144 -89 230 6 65 73 60 94 -62 248 -87
112 -88 120 -10 143 55 16 122 57 130 80 10 25 -17 67 -53 84 -51 24 -57 44
-22 65 61 36 71 98 71 453 0 332 -5 371 -60 479 -56 110 -151 170 -287 179
-46 3 -87 11 -92 17 -5 6 -11 65 -14 131 -6 137 -20 220 -40 244 -8 9 -17 25
-21 37 -8 27 -95 109 -126 119 -14 4 -32 13 -40 20 -38 30 -147 35 -781 34
-433 -1 -650 -5 -684 -13z m1421 -115 c15 -12 32 -21 38 -21 20 0 61 -51 95
-115 l31 -60 0 -340 c0 -203 -4 -355 -10 -377 -14 -48 -64 -112 -118 -152
l-44 -31 -446 0 c-512 -1 -486 3 -592 -95 -30 -28 -77 -66 -105 -85 -27 -18
-70 -54 -95 -79 -75 -78 -82 -69 -74 84 7 127 6 131 -16 155 -15 16 -34 25
-55 25 -56 0 -152 76 -189 149 -20 38 -26 135 -26 426 -1 322 2 344 65 425 56
71 108 103 180 110 28 3 339 4 693 3 633 -2 642 -2 668 -22z m462 -596 c64
-33 83 -52 118 -110 l29 -50 3 -330 c3 -281 1 -340 -13 -398 -16 -65 -16 -70
1 -88 23 -26 11 -36 -20 -15 -14 9 -34 16 -44 16 -10 0 -27 9 -37 20 -10 11
-23 20 -29 20 -6 0 -53 20 -104 45 -51 25 -97 45 -101 45 -5 0 -75 34 -157 75
-168 85 -160 82 -191 53 -27 -25 -29 -51 -8 -101 8 -20 15 -52 15 -71 0 -18 9
-53 20 -77 21 -46 27 -139 10 -139 -6 0 -22 7 -35 16 -22 14 -66 16 -333 16
-328 0 -369 4 -434 50 -100 69 -128 122 -136 250 l-4 88 35 35 35 35 435 0
c425 0 437 1 494 22 199 75 263 193 263 481 0 134 1 136 88 137 37 0 67 -7
100 -25z m-379 -849 c15 -8 33 -22 40 -30 8 -9 21 -16 31 -16 9 0 25 -9 35
-20 10 -11 28 -20 41 -20 12 0 46 -12 76 -27 29 -16 67 -33 83 -40 63 -26 81
-33 95 -43 8 -5 27 -14 43 -20 57 -20 46 -56 -22 -71 -54 -12 -101 -47 -101
-74 0 -12 25 -54 55 -94 30 -40 55 -79 55 -86 0 -8 8 -20 18 -27 61 -44 78
-135 30 -152 -36 -13 -53 3 -115 103 -48 79 -129 181 -142 181 -5 0 -43 -27
-85 -60 -85 -67 -96 -68 -96 -7 0 24 -9 68 -20 100 -11 31 -20 73 -20 92 0 20
-6 50 -13 68 -8 18 -17 50 -21 72 -4 22 -16 66 -28 98 -29 79 -6 107 61 73z"/>
<path d="M851 2462 c-12 -23 -4 -59 15 -66 26 -10 1156 -8 1166 2 5 5 8 25 6
43 l-3 34 -587 3 c-562 2 -588 1 -597 -16z"/>
<path d="M862 2140 c-31 -29 -28 -57 8 -75 24 -13 86 -15 393 -15 353 0 365 1
391 21 30 24 33 49 8 72 -17 15 -59 17 -398 17 -369 0 -381 -1 -402 -20z"/>
</g>
</svg>
