<?xml version="1.0" standalone="no"?>
<!DOCTYPE svg PUBLIC "-//W3C//DTD SVG 20010904//EN"
 "http://www.w3.org/TR/2001/REC-SVG-20010904/DTD/svg10.dtd">
<svg version="1.0" xmlns="http://www.w3.org/2000/svg"
 width="203.271281pt" height="238.750872pt" viewBox="0 0 203.271281 238.750872"
 preserveAspectRatio="xMidYMid meet">
<metadata>
Created by potrace 1.16, written by Peter Selinger 2001-2019
</metadata>
<g transform="translate(-64.685064,296.750872) scale(0.100000,-0.100000)"
fill="#000000" stroke="none">
<path d="M1114 2947 c-165 -55 -242 -101 -301 -179 -56 -75 -103 -152 -103
-170 0 -9 -7 -21 -15 -28 -8 -7 -15 -27 -15 -45 0 -17 -7 -53 -14 -80 -34
-112 -21 -275 29 -380 8 -16 18 -45 21 -62 4 -18 13 -38 20 -44 8 -6 14 -22
14 -34 0 -12 8 -33 18 -46 11 -13 34 -67 52 -119 19 -52 40 -104 47 -115 7
-11 13 -41 13 -67 0 -25 7 -79 15 -118 8 -39 19 -124 24 -189 5 -65 13 -127
20 -138 6 -12 14 -47 17 -79 4 -33 13 -68 20 -79 8 -11 14 -32 14 -47 0 -15 8
-44 19 -65 10 -21 31 -68 46 -104 47 -115 131 -179 235 -179 53 0 56 2 105 54
53 57 95 157 95 225 0 17 6 47 14 65 7 18 17 75 21 127 4 52 14 106 21 121 8
15 14 43 14 63 0 45 36 134 64 158 14 13 29 17 50 13 65 -13 96 -74 120 -232
9 -60 21 -129 27 -154 5 -25 14 -76 18 -115 23 -181 97 -306 189 -321 98 -16
196 37 242 131 8 17 21 41 30 54 18 30 57 140 70 199 5 24 17 67 25 95 8 28
15 76 15 107 0 31 6 103 14 161 8 57 17 144 21 194 4 49 13 99 21 110 8 11 14
27 14 37 0 16 16 56 61 153 34 74 69 164 69 180 0 9 9 33 20 55 11 22 20 50
20 64 0 14 7 51 15 83 18 67 20 170 4 210 -6 15 -14 51 -19 79 -10 62 -87 230
-130 285 -53 66 -161 129 -282 163 -81 24 -244 25 -285 3 -18 -9 -42 -17 -53
-17 -12 0 -36 -6 -53 -13 -76 -33 -175 -60 -198 -54 -13 3 -64 19 -114 36
-222 74 -311 85 -421 48z m278 -133 c92 -29 193 -79 235 -116 10 -9 28 -19 41
-23 12 -3 46 -22 75 -41 28 -19 58 -34 67 -34 8 0 33 -7 55 -15 63 -22 100
-19 136 13 58 52 -1 120 -114 131 -58 6 -62 8 -62 31 0 26 5 28 161 64 150 34
295 -2 405 -99 126 -111 195 -376 145 -550 -57 -193 -86 -268 -158 -395 -4 -8
-13 -26 -18 -40 -6 -14 -17 -38 -25 -55 -14 -30 -27 -143 -45 -390 -12 -164
-33 -284 -61 -355 -11 -30 -26 -68 -33 -85 -28 -71 -98 -155 -131 -155 -36 0
-106 178 -103 265 0 17 -7 58 -16 93 -9 35 -16 78 -16 95 0 45 -37 171 -71
244 -79 167 -257 183 -358 33 -17 -25 -31 -55 -31 -66 0 -12 -6 -27 -14 -33
-8 -7 -17 -35 -21 -63 -4 -28 -13 -65 -20 -82 -7 -17 -16 -63 -19 -102 -4 -39
-13 -92 -21 -119 -8 -26 -15 -69 -15 -94 0 -220 -142 -221 -219 -3 -15 42 -35
91 -44 109 -9 18 -17 45 -17 60 0 16 -9 54 -20 86 -11 31 -20 80 -20 109 0 29
-7 94 -15 143 -8 50 -15 126 -15 170 -1 58 -6 91 -20 120 -11 22 -19 47 -20
55 0 8 -25 76 -56 150 -30 74 -60 149 -66 165 -6 17 -19 46 -28 65 -53 106
-44 357 17 466 15 29 38 71 51 94 14 25 49 60 87 88 129 94 262 115 417 66z"/>
</g>
</svg>
