<?xml version="1.0" standalone="no"?>
<!DOCTYPE svg PUBLIC "-//W3C//DTD SVG 20010904//EN"
 "http://www.w3.org/TR/2001/REC-SVG-20010904/DTD/svg10.dtd">
<svg version="1.0" xmlns="http://www.w3.org/2000/svg"
 width="245.076561pt" height="184.468276pt" viewBox="0 0 245.076561 184.468276"
 preserveAspectRatio="xMidYMid meet">
<metadata>
Created by potrace 1.16, written by Peter Selinger 2001-2019
</metadata>
<g transform="translate(-43.032391,268.468276) scale(0.100000,-0.100000)"
fill="#000000" stroke="none">
<path d="M1443 2683 c-23 -2 -47 -11 -53 -19 -7 -7 -20 -14 -30 -14 -10 0 -41
-18 -69 -40 -28 -22 -57 -40 -64 -40 -26 0 -150 -49 -171 -68 -12 -11 -28 -22
-37 -25 -9 -3 -23 -25 -31 -49 -11 -34 -25 -50 -64 -75 -89 -57 -112 -88 -138
-184 -14 -50 -27 -71 -95 -160 -13 -17 -20 -40 -19 -62 1 -29 -7 -45 -47 -89
-53 -59 -54 -60 -85 -173 -12 -44 -35 -110 -51 -146 -16 -36 -29 -81 -29 -100
0 -19 -7 -66 -15 -104 -36 -173 -8 -253 116 -326 37 -21 88 -56 115 -77 73
-57 139 -92 172 -92 42 0 124 43 161 85 37 43 101 252 122 400 3 28 11 64 17
80 6 17 15 48 20 70 14 57 40 130 60 165 5 8 22 41 38 74 39 80 131 170 211
208 107 50 293 49 393 -3 123 -64 249 -280 290 -494 6 -33 17 -88 25 -122 8
-34 15 -74 15 -90 0 -91 120 -333 165 -333 6 0 27 -9 48 -20 46 -25 53 -25
111 1 56 24 100 53 141 92 17 15 46 35 65 45 19 9 61 42 93 73 l58 56 -4 139
c-4 150 -12 184 -73 307 -21 42 -34 82 -34 106 0 29 -12 58 -45 112 -25 40
-45 83 -45 96 0 35 -60 142 -107 191 -30 30 -43 52 -43 72 0 68 -55 155 -116
181 -44 20 -84 61 -84 85 0 39 -163 154 -218 154 -16 0 -44 13 -67 32 -87 72
-117 79 -350 82 -115 1 -229 1 -252 -1z m416 -83 c66 -9 114 -29 134 -55 11
-14 -1 -116 -16 -135 -7 -8 -21 -32 -31 -53 -30 -59 -89 -107 -131 -107 -41 0
-95 63 -95 110 0 15 -7 44 -15 63 -15 38 -20 144 -7 163 13 20 47 34 68 29 12
-3 53 -9 93 -15z m-255 0 c25 -9 26 -12 26 -104 0 -168 -52 -244 -162 -237
-27 2 -84 67 -113 129 -15 31 -34 69 -41 84 -20 38 -18 43 30 83 56 45 195 70
260 45z m-348 -128 c6 -4 16 -25 22 -47 6 -22 18 -65 27 -95 23 -84 20 -104
-21 -135 l-37 -28 -44 24 c-70 38 -153 125 -153 160 0 65 154 156 206 121z
m909 -16 c62 -30 115 -78 115 -106 0 -25 -120 -143 -164 -161 -25 -11 -34 -10
-65 7 l-36 19 3 95 c6 164 39 197 147 146z m-1131 -207 c84 -74 103 -161 46
-212 -35 -32 -44 -31 -130 11 -96 47 -111 80 -66 151 53 84 96 98 150 50z
m1370 -9 c48 -53 52 -122 9 -161 -97 -88 -206 -78 -205 18 1 63 25 108 79 147
61 45 73 45 117 -4z m-1508 -235 c89 -59 110 -100 82 -160 -24 -53 -131 -65
-169 -19 -6 8 -18 14 -25 14 -26 0 -48 48 -35 76 6 14 11 34 11 45 0 19 56 78
74 79 5 0 33 -16 62 -35z m1631 3 c41 -44 66 -95 59 -123 -7 -27 -69 -70 -116
-79 -100 -20 -95 -21 -129 23 -50 63 -34 111 66 188 42 33 83 30 120 -9z
m-1667 -262 c42 -43 50 -57 50 -90 0 -81 -82 -136 -151 -101 -15 8 -42 15 -59
15 -46 0 -99 57 -70 75 6 3 10 26 10 50 0 120 126 149 220 51z m1756 39 c56
-38 80 -205 30 -205 -7 0 -41 -9 -75 -20 -61 -19 -74 -19 -119 3 -28 13 -52
56 -52 90 0 26 54 107 71 107 6 0 22 9 36 20 30 24 80 26 109 5z m-1932 -270
c87 -27 125 -61 150 -138 7 -20 -25 -88 -54 -117 -39 -39 -156 -16 -209 41
-36 39 -27 164 16 211 19 22 34 22 97 3z m2031 -1 c52 -20 72 -201 24 -225
-121 -62 -165 -65 -215 -15 -28 28 -34 42 -34 76 0 48 32 112 64 129 11 7 32
18 46 26 26 15 86 20 115 9z"/>
<path d="M710 1670 c0 -13 18 -22 24 -11 3 5 -1 11 -9 15 -8 3 -15 1 -15 -4z"/>
<path d="M635 1404 c-19 -20 -19 -53 0 -60 21 -8 45 14 45 41 0 29 -25 39 -45
19z"/>
<path d="M2631 1446 c-16 -19 -11 -46 12 -60 22 -13 50 17 45 49 -4 25 -40 32
-57 11z"/>
</g>
</svg>
