<?xml version="1.0" standalone="no"?>
<!DOCTYPE svg PUBLIC "-//W3C//DTD SVG 20010904//EN"
 "http://www.w3.org/TR/2001/REC-SVG-20010904/DTD/svg10.dtd">
<svg version="1.0" xmlns="http://www.w3.org/2000/svg"
 width="207.280851pt" height="235.219029pt" viewBox="0 0 207.280851 235.219029"
 preserveAspectRatio="xMidYMid meet">
<metadata>
Created by potrace 1.16, written by Peter Selinger 2001-2019
</metadata>
<g transform="translate(-59.473678,280.547408) scale(0.100000,-0.100000)"
fill="#000000" stroke="none">
<path d="M1075 2800 c-211 -37 -372 -186 -455 -420 -32 -90 -34 -302 -4 -362
8 -15 14 -41 14 -57 0 -17 8 -50 19 -73 10 -24 24 -59 31 -78 6 -19 23 -64 37
-100 13 -36 30 -85 38 -110 8 -25 20 -65 29 -90 28 -85 45 -185 52 -305 3 -66
12 -131 19 -145 7 -14 15 -54 19 -89 4 -36 13 -76 21 -90 7 -14 16 -42 20 -61
7 -39 43 -133 74 -196 32 -66 132 -151 186 -160 109 -16 194 35 226 134 6 21
17 46 24 57 6 11 15 44 19 74 4 30 12 63 18 74 6 11 16 63 23 116 31 227 75
331 143 331 33 0 80 -53 88 -98 3 -20 13 -47 20 -60 8 -12 18 -53 23 -91 5
-37 13 -77 19 -87 5 -10 13 -50 17 -89 4 -38 13 -86 20 -105 7 -19 16 -51 19
-71 4 -21 13 -42 21 -49 8 -7 15 -20 15 -29 0 -10 15 -33 33 -53 113 -124 283
-64 368 130 12 26 27 61 35 77 7 17 16 44 20 60 4 17 13 39 20 50 7 11 15 43
19 70 4 28 13 68 20 90 8 22 19 89 25 149 6 61 13 113 16 118 3 4 9 56 14 115
8 89 16 123 46 193 20 47 39 97 41 112 3 15 11 33 19 39 8 6 14 19 14 28 0 9
12 39 25 66 14 28 25 58 25 68 0 10 6 30 14 45 21 42 49 235 43 295 -16 134
-34 196 -78 267 -5 8 -15 26 -22 40 -44 91 -183 208 -297 248 -137 48 -362 31
-490 -37 -70 -38 -277 -35 -320 4 -9 8 -26 15 -37 15 -11 0 -47 8 -79 19 -71
22 -201 33 -269 21z m295 -146 c47 -15 92 -34 101 -41 43 -36 258 -35 331 2
17 8 36 15 42 15 6 0 27 8 46 18 64 34 172 47 257 33 151 -25 235 -91 345
-271 48 -78 71 -250 44 -326 -7 -22 -17 -63 -21 -91 -4 -29 -13 -57 -21 -64
-8 -6 -14 -21 -14 -33 0 -11 -7 -34 -15 -50 -8 -16 -31 -70 -51 -120 -19 -50
-40 -99 -45 -108 -5 -10 -13 -34 -18 -55 -6 -21 -17 -63 -26 -93 -8 -30 -15
-73 -15 -95 0 -22 -9 -101 -20 -175 -11 -74 -20 -156 -20 -181 0 -26 -7 -60
-15 -75 -8 -16 -15 -40 -15 -54 0 -14 -9 -38 -20 -55 -11 -16 -20 -39 -20 -49
0 -34 -58 -142 -90 -170 -75 -63 -121 -38 -162 87 -15 45 -27 94 -28 108 0 15
-6 45 -14 67 -8 22 -17 66 -21 98 -4 33 -13 73 -20 89 -7 17 -16 47 -20 69 -3
21 -15 55 -26 75 -10 20 -19 40 -19 46 -2 43 -101 105 -168 105 -54 0 -152
-42 -152 -65 0 -7 -8 -23 -18 -36 -22 -29 -72 -176 -72 -211 0 -14 -6 -41 -14
-59 -8 -19 -17 -63 -21 -99 -4 -36 -13 -77 -21 -91 -7 -15 -16 -46 -20 -70
-11 -71 -66 -159 -100 -159 -25 0 -81 46 -110 90 -36 55 -91 215 -100 290 -4
30 -13 73 -21 94 -7 22 -16 94 -19 160 -3 67 -12 144 -19 171 -7 28 -16 78
-20 112 -4 34 -13 67 -21 74 -8 6 -14 17 -14 24 0 13 -44 131 -75 200 -7 17
-22 62 -34 100 -12 39 -31 97 -42 131 -28 86 -27 322 2 340 5 2 14 24 20 47
18 69 133 198 209 235 14 6 32 16 40 21 64 39 235 37 360 -5z"/>
<path d="M1204 2251 c-94 -70 -116 -152 -49 -183 29 -13 64 12 91 65 25 47 83
39 131 -18 68 -82 141 -41 103 59 -5 14 -32 43 -60 65 -69 55 -152 59 -216 12z"/>
<path d="M1841 2254 c-77 -54 -105 -159 -48 -178 34 -12 54 -2 82 42 42 66
132 64 157 -4 14 -38 44 -52 76 -35 50 27 34 99 -35 160 -45 41 -46 41 -122
40 -64 -1 -82 -5 -110 -25z"/>
<path d="M1251 1791 c-46 -46 18 -120 179 -210 70 -39 342 -39 410 0 102 58
120 72 150 116 35 54 37 73 12 96 -36 33 -57 22 -173 -88 -9 -8 -24 -15 -35
-15 -10 0 -39 -9 -63 -20 -52 -24 -156 -27 -198 -6 -15 8 -39 19 -53 26 -57
25 -87 45 -127 81 -47 43 -74 48 -102 20z"/>
</g>
</svg>
