<?xml version="1.0" standalone="no"?>
<!DOCTYPE svg PUBLIC "-//W3C//DTD SVG 20010904//EN"
 "http://www.w3.org/TR/2001/REC-SVG-20010904/DTD/svg10.dtd">
<svg version="1.0" xmlns="http://www.w3.org/2000/svg"
 width="243.988468pt" height="197.482914pt" viewBox="0 0 243.988468 197.482914"
 preserveAspectRatio="xMidYMid meet">
<metadata>
Created by potrace 1.16, written by Peter Selinger 2001-2019
</metadata>
<g transform="translate(-43.500000,269.557422) scale(0.100000,-0.100000)"
fill="#000000" stroke="none">
<path d="M1503 2686 c-51 -6 -98 -17 -105 -24 -6 -6 -21 -12 -32 -12 -21 0
-61 -17 -195 -83 -103 -50 -319 -255 -365 -345 -14 -28 -30 -53 -35 -57 -6 -3
-24 -35 -42 -71 -18 -35 -36 -67 -41 -70 -4 -3 -8 -13 -8 -22 0 -10 -9 -34
-19 -53 -11 -20 -24 -58 -29 -85 -6 -27 -15 -62 -21 -79 -5 -16 -20 -75 -31
-130 -47 -222 -61 -270 -80 -285 -53 -40 -59 -74 -62 -307 l-3 -218 30 -38
c77 -99 260 -104 346 -11 44 48 61 129 66 314 l5 165 -36 34 c-41 40 -47 84
-21 148 8 19 15 50 15 67 1 17 8 49 16 71 9 22 20 59 24 82 13 62 65 204 98
270 92 185 211 308 375 392 31 16 63 33 70 39 23 18 207 45 266 38 122 -13
171 -23 189 -39 10 -9 24 -17 30 -17 15 0 51 -17 83 -38 177 -117 246 -189
317 -331 7 -14 17 -33 23 -41 20 -32 69 -144 69 -159 0 -7 7 -25 15 -39 8 -15
18 -47 24 -72 5 -25 16 -63 25 -85 8 -22 16 -60 16 -85 0 -25 7 -63 15 -85 21
-56 20 -61 -25 -117 l-39 -50 5 -151 c6 -187 24 -264 74 -317 113 -121 326
-75 358 77 10 47 9 180 -4 361 -5 72 -10 88 -34 115 -41 48 -57 85 -65 157 -4
36 -16 87 -26 113 -11 26 -19 63 -19 83 0 19 -6 45 -14 57 -8 12 -17 39 -21
61 -3 21 -12 52 -19 70 -8 17 -24 58 -36 91 -24 65 -80 187 -89 195 -14 12
-51 70 -51 80 0 15 -251 264 -280 278 -24 12 -39 20 -90 52 -24 15 -76 36
-185 74 -113 40 -273 52 -432 32z m302 -111 c96 -26 120 -34 187 -58 139 -50
241 -132 373 -297 60 -76 73 -95 107 -160 10 -19 22 -42 27 -50 9 -16 39 -96
64 -170 8 -25 19 -58 25 -75 29 -79 52 -168 52 -196 0 -16 9 -57 21 -91 22
-67 19 -118 -9 -118 -38 1 -37 -2 -78 215 -8 44 -20 94 -25 110 -6 17 -17 50
-24 75 -7 25 -20 59 -29 75 -9 17 -16 35 -16 41 0 17 -113 235 -148 286 -106
154 -255 260 -471 335 -103 35 -305 37 -408 3 -207 -69 -386 -202 -494 -367
-28 -43 -56 -85 -63 -93 -7 -8 -25 -49 -40 -90 -15 -41 -34 -89 -41 -106 -8
-18 -17 -49 -21 -70 -4 -22 -13 -51 -20 -66 -8 -15 -14 -38 -14 -51 0 -13 -9
-50 -19 -83 -11 -32 -22 -88 -26 -124 -7 -79 -15 -93 -46 -88 -17 2 -25 10
-27 29 -4 32 51 326 73 389 113 329 329 611 549 715 29 14 58 25 65 25 7 0 29
9 49 19 108 56 296 71 427 36z m-1057 -1344 c10 -12 12 -36 8 -90 -3 -41 -6
-111 -6 -155 0 -107 -29 -146 -107 -146 -54 0 -62 4 -84 40 -22 34 -3 355 21
370 23 14 153 0 168 -19z m1990 17 c16 -20 33 -322 20 -358 -19 -56 -113 -71
-165 -26 l-28 24 -3 164 c-1 89 2 169 7 177 5 8 28 16 52 18 24 3 46 6 48 9 9
9 59 3 69 -8z"/>
</g>
</svg>
