<?xml version="1.0" standalone="no"?>
<!DOCTYPE svg PUBLIC "-//W3C//DTD SVG 20010904//EN"
 "http://www.w3.org/TR/2001/REC-SVG-20010904/DTD/svg10.dtd">
<svg version="1.0" xmlns="http://www.w3.org/2000/svg"
 width="69.802506pt" height="238.307511pt" viewBox="0 0 69.802506 238.307511"
 preserveAspectRatio="xMidYMid meet">
<metadata>
Created by potrace 1.16, written by Peter Selinger 2001-2019
</metadata>
<g transform="translate(-128.015693,285.451732) scale(0.100000,-0.100000)"
fill="#000000" stroke="none">
<path d="M1505 2852 c-61 -4 -104 -34 -130 -92 -18 -40 -18 -52 -5 -303 7
-144 15 -301 17 -349 l4 -87 -30 -15 c-76 -40 -105 -148 -58 -216 40 -60 70
-75 160 -78 98 -5 113 -15 119 -80 4 -41 1 -52 -29 -89 -48 -60 -44 -86 20
-151 l52 -54 -25 -16 c-107 -71 -116 -121 -35 -197 66 -60 66 -58 13 -92 -90
-57 -94 -103 -16 -174 56 -53 56 -64 -3 -94 -57 -30 -60 -119 -5 -157 17 -12
33 -23 36 -25 2 -2 7 -28 10 -56 5 -50 6 -52 36 -55 25 -2 37 3 53 24 27 35
27 61 -4 119 -28 52 -26 75 9 99 31 20 56 70 56 112 0 27 -8 40 -45 71 -53 44
-56 67 -12 93 41 24 71 74 63 105 -3 13 -26 44 -51 70 -54 54 -54 56 -11 92
78 66 80 95 11 171 l-35 40 9 107 c5 59 14 112 19 117 5 5 47 11 92 14 124 6
173 43 186 137 10 68 -16 129 -69 165 -33 22 -41 34 -39 53 20 166 30 685 14
716 -30 56 -85 76 -210 77 -64 1 -139 0 -167 -2z m236 -112 c31 -17 49 -41 49
-65 0 -32 -43 -43 -183 -44 -106 -2 -107 -1 -119 24 -23 52 -1 79 67 85 110 9
168 9 186 0z m32 -229 c11 -9 14 -18 8 -30 -11 -20 -21 -163 -22 -311 -1 -161
-1 -160 -134 -160 -100 0 -106 1 -115 23 -9 22 -30 452 -22 474 7 23 258 27
285 4z m78 -611 c29 -16 23 -48 -13 -70 -45 -27 -389 -30 -426 -4 -28 19 -28
49 0 68 27 19 405 24 439 6z"/>
</g>
</svg>
