<?xml version="1.0" standalone="no"?>
<!DOCTYPE svg PUBLIC "-//W3C//DTD SVG 20010904//EN"
 "http://www.w3.org/TR/2001/REC-SVG-20010904/DTD/svg10.dtd">
<svg version="1.0" xmlns="http://www.w3.org/2000/svg"
 width="257.736344pt" height="250.198005pt" viewBox="0 0 257.736344 250.198005"
 preserveAspectRatio="xMidYMid meet">
<metadata>
Created by potrace 1.16, written by Peter Selinger 2001-2019
</metadata>
<g transform="translate(-42.021896,297.089103) scale(0.100000,-0.100000)"
fill="#000000" stroke="none">
<path d="M2470 2949 c-30 -11 -64 -23 -75 -26 -37 -11 -135 -124 -176 -203
-30 -58 -34 -257 -5 -288 9 -10 16 -23 16 -28 0 -21 72 -114 119 -153 144
-120 411 -99 527 43 71 86 98 161 98 275 0 123 -29 200 -111 291 -91 101 -258
139 -393 89z m198 -71 c237 -58 309 -347 137 -546 -47 -56 -111 -77 -226 -76
-65 1 -114 6 -129 14 -31 17 -130 110 -130 122 0 6 -8 20 -18 33 -27 33 -49
168 -33 201 6 14 11 33 11 42 0 31 98 151 143 173 92 47 162 58 245 37z"/>
<path d="M2678 2663 c-172 -183 -173 -184 -191 -127 -13 40 -36 64 -62 64 -22
0 -65 -38 -65 -57 0 -30 137 -143 173 -143 19 0 79 58 195 188 63 71 73 86 70
114 -6 60 -37 49 -120 -39z"/>
<path d="M1366 2499 c-60 -22 -97 -57 -136 -126 -39 -69 -44 -239 -10 -336 11
-31 20 -67 20 -80 0 -12 7 -32 15 -44 8 -12 18 -42 21 -66 7 -49 -15 -80 -86
-117 -50 -26 -76 -85 -84 -190 -4 -47 -13 -108 -21 -135 -8 -26 -15 -62 -15
-80 0 -17 -9 -71 -20 -121 -45 -202 -28 -217 315 -274 99 -17 520 -25 584 -11
28 6 93 15 144 21 247 27 314 65 295 168 -5 26 -13 90 -19 142 -6 52 -18 117
-26 144 -8 27 -17 72 -20 100 -3 28 -14 82 -25 120 -20 70 -29 82 -117 158
-34 29 -42 42 -38 60 59 251 75 418 47 492 -46 122 -87 159 -188 171 -63 7
-178 -14 -215 -40 -31 -22 -66 -18 -122 12 -97 51 -215 64 -299 32z m215 -90
c19 -9 62 -35 95 -56 127 -82 253 -92 169 -13 -51 48 -19 70 103 70 162 0 203
-93 157 -360 -34 -199 -65 -247 -189 -290 -177 -63 -388 -37 -498 59 -137 121
-196 465 -95 559 63 59 176 73 258 31z m-170 -705 c6 -8 19 -14 28 -14 10 0
26 -7 37 -15 10 -8 36 -15 56 -15 21 0 68 -5 105 -11 89 -15 255 7 335 45 89
42 130 31 66 -17 -56 -40 -131 -74 -183 -81 -27 -4 -75 -10 -105 -15 -37 -6
-76 -4 -120 5 -36 8 -78 14 -93 14 -31 0 -116 40 -136 64 -8 9 -19 16 -26 16
-12 0 -25 21 -25 39 0 13 48 0 61 -15z m-115 -55 c30 -32 81 -68 144 -102 72
-38 238 -54 375 -36 166 22 238 54 312 143 33 38 55 33 82 -17 19 -35 21 -47
13 -64 -14 -26 -149 -81 -217 -89 -27 -3 -86 -14 -129 -25 -106 -25 -247 -25
-341 1 -38 11 -86 20 -105 20 -70 1 -202 56 -221 91 -13 24 -4 66 18 92 22 24
35 22 69 -14z m-26 -204 c33 -14 71 -25 85 -25 14 0 42 -7 62 -15 19 -8 55
-15 80 -15 82 0 94 -17 69 -99 -14 -44 -24 -83 -47 -179 -18 -71 -14 -72 196
-72 216 0 213 -2 185 89 -11 34 -20 81 -20 102 0 22 -7 54 -16 70 -30 58 -17
83 46 90 85 10 198 38 242 60 22 11 53 19 71 17 l32 -3 8 -75 c4 -41 14 -104
22 -140 20 -89 27 -163 17 -177 -51 -78 -759 -100 -1078 -33 -116 24 -122 37
-84 185 11 43 20 99 20 124 0 62 17 121 36 121 8 0 41 -11 74 -25z m485 -79
c13 -13 27 -41 30 -62 4 -22 13 -59 20 -84 36 -124 32 -130 -90 -130 -124 0
-135 14 -95 127 11 32 20 71 20 88 0 46 10 73 29 78 38 11 63 6 86 -17z"/>
<path d="M483 796 c-49 -22 -63 -60 -63 -168 0 -73 4 -98 18 -114 83 -103 239
-13 192 111 -9 23 -15 26 -47 23 -48 -4 -59 -38 -18 -56 28 -13 31 -21 13 -44
-21 -27 -53 -30 -79 -9 -28 22 -32 127 -7 178 15 33 58 42 78 19 23 -29 67
-16 55 16 -18 42 -93 66 -142 44z"/>
<path d="M740 803 c-55 -6 -60 -21 -60 -174 0 -142 4 -155 40 -144 16 5 20 15
20 51 0 68 68 73 85 7 9 -37 23 -53 47 -53 24 0 19 51 -7 80 -21 23 -19 46 5
70 29 29 28 99 -2 128 -22 20 -72 44 -86 40 -4 0 -23 -3 -42 -5z m90 -79 c19
-49 3 -75 -44 -72 -39 3 -41 5 -44 36 -5 51 3 62 43 62 29 0 37 -5 45 -26z"/>
<path d="M1208 799 c-16 -9 -18 -28 -18 -159 0 -177 -3 -172 118 -168 71 3 77
5 80 25 4 26 -30 39 -82 30 -47 -8 -58 3 -54 54 3 42 4 44 41 50 20 3 40 9 43
12 13 13 -6 37 -33 43 -49 10 -53 13 -53 33 0 26 16 35 61 33 44 -3 69 19 49
43 -15 18 -124 21 -152 4z"/>
<path d="M1859 790 c-95 -50 -56 -157 74 -203 18 -7 22 -24 9 -43 -13 -19 -57
-24 -86 -9 -59 31 -78 3 -28 -40 59 -52 182 -9 182 64 0 30 -55 91 -81 91 -32
0 -63 47 -51 75 12 25 36 33 47 15 3 -5 15 -10 26 -10 28 0 24 35 -7 59 -32
25 -39 25 -85 1z"/>
<path d="M2816 789 c-26 -20 -26 -21 -26 -159 0 -164 -3 -160 113 -160 53 0
78 4 87 15 20 24 1 35 -64 35 -76 0 -90 12 -80 67 8 48 22 65 45 58 11 -4 19
-2 19 4 0 6 -11 11 -24 11 -34 0 -60 87 -27 91 3 0 30 2 59 3 61 3 82 17 62
41 -20 24 -130 21 -164 -6z"/>
<path d="M957 793 c-10 -9 -8 -286 2 -301 11 -18 133 -25 155 -9 33 24 9 50
-40 44 -53 -6 -66 7 -62 60 2 29 8 39 23 41 50 10 51 47 2 54 -17 2 -22 10
-22 33 0 28 3 30 42 33 42 3 70 23 58 42 -7 11 -147 14 -158 3z"/>
<path d="M1438 788 c-10 -32 -2 -288 9 -299 25 -25 43 -2 43 53 0 102 32 103
78 4 31 -67 54 -88 74 -68 18 18 11 293 -8 312 -25 25 -45 -13 -43 -81 2 -54
-4 -79 -19 -79 -8 0 -14 11 -59 103 -32 65 -64 88 -75 55z"/>
<path d="M2037 786 c-7 -18 10 -33 43 -38 25 -3 25 -4 27 -113 4 -141 7 -157
36 -153 21 3 22 7 25 130 l3 128 30 15 c51 27 31 40 -68 43 -72 2 -92 0 -96
-12z"/>
<path d="M2331 774 c-12 -15 -21 -40 -21 -56 0 -16 -6 -41 -14 -56 -8 -15 -17
-46 -21 -67 -4 -22 -14 -50 -22 -63 -16 -26 -11 -52 9 -52 7 0 32 21 55 47
l42 46 35 -26 c19 -15 38 -36 41 -47 7 -23 43 -27 51 -5 4 8 -2 27 -11 41 -9
15 -21 50 -25 78 -10 63 -48 168 -63 178 -21 13 -35 9 -56 -18z m67 -120 c4
-40 -21 -73 -45 -58 -26 16 -27 50 -3 74 27 27 44 21 48 -16z"/>
<path d="M2582 784 c-110 -77 -65 -314 59 -314 11 0 37 16 56 35 45 45 45 110
1 135 -41 23 -59 1 -35 -43 36 -66 -17 -103 -64 -46 -37 45 -40 124 -7 169 27
37 44 38 79 4 31 -29 49 -25 49 12 0 17 -8 27 -24 34 -13 5 -27 14 -31 19 -9
16 -57 13 -83 -5z"/>
</g>
</svg>
