<?xml version="1.0" standalone="no"?>
<!DOCTYPE svg PUBLIC "-//W3C//DTD SVG 20010904//EN"
 "http://www.w3.org/TR/2001/REC-SVG-20010904/DTD/svg10.dtd">
<svg version="1.0" xmlns="http://www.w3.org/2000/svg"
 width="243.385944pt" height="169.144060pt" viewBox="0 0 243.385944 169.144060"
 preserveAspectRatio="xMidYMid meet">
<metadata>
Created by potrace 1.16, written by Peter Selinger 2001-2019
</metadata>
<g transform="translate(-43.500000,257.000000) scale(0.100000,-0.100000)"
fill="#000000" stroke="none">
<path d="M530 2523 c-69 -69 -71 -86 -18 -135 89 -84 123 -89 112 -18 l-7 40
364 -2 364 -3 3 -42 c3 -45 24 -62 44 -36 7 9 32 35 56 57 23 23 42 51 42 62
0 27 -100 124 -128 124 -26 0 -29 -25 -6 -51 34 -38 15 -40 -368 -38 -388 1
-402 3 -368 44 7 8 10 22 6 30 -10 28 -47 16 -96 -32z"/>
<path d="M648 2210 c-70 -24 -128 -70 -173 -136 l-40 -58 1 -141 c1 -105 5
-148 16 -170 9 -17 21 -59 27 -95 6 -36 18 -90 26 -120 8 -30 15 -64 15 -75 0
-29 50 -109 86 -138 189 -157 741 -121 826 53 20 41 46 155 59 255 5 39 14 80
19 93 16 38 32 213 25 276 -9 84 -38 128 -128 195 -43 33 -167 31 -272 -4 -72
-24 -151 -26 -179 -4 -13 10 -29 19 -34 19 -5 0 -15 6 -21 14 -15 18 -140 56
-178 55 -15 -1 -49 -9 -75 -19z m227 -110 c31 -25 69 -52 84 -60 14 -8 46 -30
70 -47 38 -29 49 -32 85 -27 75 12 84 43 19 70 -41 17 -36 31 15 39 20 3 65
11 99 17 77 13 102 7 149 -35 70 -61 95 -182 60 -289 -8 -24 -17 -63 -21 -88
-4 -25 -13 -63 -20 -85 -8 -22 -16 -71 -20 -109 -3 -38 -12 -83 -20 -102 -17
-41 -86 -92 -134 -99 -20 -3 -61 -13 -91 -23 -78 -24 -281 -24 -329 1 -19 9
-44 17 -56 17 -25 0 -101 47 -131 81 -22 25 -64 146 -64 184 0 11 -7 48 -16
80 -25 95 -54 236 -54 265 0 87 67 196 149 241 66 36 156 23 226 -31z"/>
<path d="M2209 1953 c-88 -92 -115 -198 -75 -294 7 -19 17 -56 20 -84 13 -88
46 -167 88 -207 79 -75 280 -110 397 -69 34 12 65 21 71 21 5 0 29 13 53 30
52 35 73 79 81 170 3 36 10 97 16 135 31 225 -15 307 -174 309 -62 1 -87 -3
-106 -17 -35 -25 -55 -22 -114 18 -49 33 -58 35 -132 35 l-80 0 -45 -47z m217
-48 c19 -8 54 -27 77 -44 77 -53 109 -50 111 13 l1 31 55 -3 c65 -5 117 -33
126 -69 10 -38 -15 -259 -37 -333 -35 -114 -73 -135 -250 -134 -86 0 -128 5
-162 18 -50 19 -97 66 -97 97 0 11 -6 32 -14 47 -17 33 -39 243 -31 286 12 59
17 67 48 87 39 23 122 25 173 4z"/>
<path d="M1837 1793 c-11 -11 -8 -20 19 -52 37 -45 26 -50 -98 -50 -125 0
-160 -13 -125 -48 15 -15 35 -18 132 -16 67 1 117 -2 120 -8 4 -5 -7 -31 -24
-58 -35 -54 -37 -64 -16 -81 12 -10 30 3 105 78 49 50 90 97 90 105 0 15 -79
87 -132 120 -28 18 -60 22 -71 10z"/>
<path d="M555 1109 c-11 -11 -32 -27 -47 -35 -48 -25 -46 -55 7 -121 74 -91
118 -99 113 -21 l-3 43 365 0 365 0 -2 -29 c-5 -72 55 -64 106 13 43 68 41 81
-25 130 -67 50 -89 50 -89 1 l0 -35 -235 -3 c-129 -2 -289 -1 -355 3 l-120 7
0 31 c0 42 -49 51 -80 16z"/>
</g>
</svg>
