<?xml version="1.0" standalone="no"?>
<!DOCTYPE svg PUBLIC "-//W3C//DTD SVG 20010904//EN"
 "http://www.w3.org/TR/2001/REC-SVG-20010904/DTD/svg10.dtd">
<svg version="1.0" xmlns="http://www.w3.org/2000/svg"
 width="213.393014pt" height="238.462115pt" viewBox="0 0 213.393014 238.462115"
 preserveAspectRatio="xMidYMid meet">
<metadata>
Created by potrace 1.16, written by Peter Selinger 2001-2019
</metadata>
<g transform="translate(-67.500000,293.819328) scale(0.100000,-0.100000)"
fill="#000000" stroke="none">
<path d="M868 2930 c-56 -7 -148 -64 -148 -90 0 -5 -10 -19 -22 -30 l-23 -21
0 -947 0 -947 33 -47 c18 -25 54 -60 80 -77 88 -56 89 -58 97 -106 4 -30 17
-58 35 -78 l28 -32 129 -1 c168 -2 178 3 189 96 4 30 12 58 18 62 21 14 934 9
943 -4 4 -7 8 -34 8 -60 0 -85 19 -95 184 -94 120 1 142 4 159 19 29 26 35 62
17 97 -17 32 -1 50 43 50 11 0 25 7 32 15 7 8 18 15 24 15 18 0 71 60 95 106
21 41 21 42 19 985 l-3 944 -24 43 c-33 61 -85 92 -168 103 -81 10 -1663 10
-1745 -1z m1810 -124 l37 -34 3 -923 2 -922 -26 -38 c-55 -80 15 -75 -934 -73
-907 2 -878 0 -935 51 -62 56 -57 -13 -61 978 l-3 901 22 22 c12 12 36 33 52
47 l30 24 888 1 887 0 38 -34z m-1518 -2100 c6 -8 10 -25 8 -38 -3 -21 -9 -23
-70 -26 -37 -2 -77 2 -88 8 -25 13 -26 45 -2 59 27 16 137 14 152 -3z m1338
-8 c7 -36 -36 -61 -96 -56 -63 6 -89 27 -71 60 14 26 162 23 167 -4z"/>
<path d="M952 2686 l-37 -34 -3 -112 -4 -112 -33 -14 c-43 -18 -45 -26 -44
-157 1 -132 4 -145 50 -166 l34 -16 0 -235 0 -235 -30 -3 c-53 -6 -55 -13 -55
-163 0 -149 7 -169 55 -169 30 0 35 -20 35 -151 0 -102 1 -106 28 -131 15 -14
36 -28 47 -32 46 -13 1489 -11 1520 2 74 32 70 -26 70 857 1 434 -3 803 -7
819 -4 16 -20 42 -35 58 l-27 28 -763 0 -763 0 -38 -34z m1522 -72 c24 -24 24
-1559 0 -1568 -9 -3 -330 -6 -715 -6 l-700 0 -24 25 c-49 48 -31 173 30 202
46 22 54 51 54 188 -1 124 -6 141 -49 150 -46 10 -50 28 -50 247 0 211 3 228
42 228 35 0 47 39 50 172 3 122 2 128 -21 152 -14 14 -32 26 -42 26 -58 0 -69
106 -18 165 l31 35 698 0 c622 0 700 -2 714 -16z m-1480 -300 c16 -6 23 -75
10 -108 -7 -18 -36 -21 -65 -6 -23 13 -28 105 -6 113 18 8 43 8 61 1z m20
-826 c21 -103 15 -123 -38 -121 -50 1 -56 8 -56 67 0 60 12 76 57 76 26 0 34
-5 37 -22z"/>
<path d="M1651 2323 c-25 -2 -56 -13 -69 -24 -14 -10 -31 -19 -39 -19 -34 0
-208 -178 -235 -239 -34 -78 -39 -102 -39 -217 -1 -187 65 -305 232 -417 153
-102 399 -93 543 21 15 11 49 49 77 84 27 35 58 74 69 86 11 13 20 32 20 43 0
11 7 30 15 43 23 34 24 252 3 287 -9 13 -19 38 -23 56 -3 17 -13 37 -21 44 -8
6 -14 16 -14 22 0 23 -134 146 -188 172 -32 15 -69 33 -83 40 -27 15 -176 26
-248 18z m69 -153 c-16 -30 -2 -50 36 -50 19 0 36 6 38 13 19 69 21 72 56 69
19 -2 46 -11 60 -20 14 -9 37 -22 53 -29 37 -17 34 -30 -23 -91 l-49 -52 -59
32 c-57 31 -59 32 -115 19 -32 -7 -70 -23 -86 -37 -16 -13 -34 -24 -40 -24
-16 0 -63 -79 -73 -123 -8 -37 5 -122 23 -141 18 -20 9 -56 -16 -66 -14 -5
-27 -20 -31 -35 -4 -17 -13 -25 -29 -25 -29 0 -44 19 -66 83 -28 79 -25 90 24
112 54 25 58 56 8 66 -60 12 -67 29 -38 91 43 90 73 112 111 83 53 -40 94 -4
52 45 -30 36 -27 47 22 78 69 45 166 46 142 2z m362 -160 c50 -72 50 -113 -1
-120 -74 -11 -69 -95 6 -95 23 0 45 -3 49 -7 9 -9 -24 -118 -42 -139 -8 -8
-14 -21 -14 -27 0 -6 -9 -14 -20 -17 -11 -3 -20 -12 -20 -19 0 -20 -89 -94
-129 -107 -20 -6 -43 -18 -52 -26 -17 -14 -64 -9 -75 8 -3 5 1 25 8 45 13 37
-3 64 -38 64 -21 0 -46 -31 -38 -49 3 -9 9 -26 11 -38 10 -46 -70 -37 -157 18
-8 5 -25 14 -37 21 -30 15 -29 32 2 52 20 13 25 25 25 56 0 49 2 49 55 6 56
-46 190 -55 236 -15 13 11 36 27 52 35 15 8 27 22 27 32 0 9 9 34 20 55 14 26
20 56 20 100 0 51 -4 68 -20 82 -29 26 -25 49 14 79 19 14 38 35 41 47 10 32
35 19 77 -41z m-250 -97 c72 -71 60 -133 -37 -199 l-39 -26 -49 23 c-79 37
-107 110 -66 175 55 89 119 98 191 27z"/>
<path d="M1957 1673 c-26 -4 -27 -7 -21 -41 12 -66 35 -78 72 -39 27 29 28 63
3 77 -11 5 -21 9 -23 9 -2 -1 -16 -4 -31 -6z"/>
</g>
</svg>
