<?xml version="1.0" standalone="no"?>
<!DOCTYPE svg PUBLIC "-//W3C//DTD SVG 20010904//EN"
 "http://www.w3.org/TR/2001/REC-SVG-20010904/DTD/svg10.dtd">
<svg version="1.0" xmlns="http://www.w3.org/2000/svg"
 width="214.658794pt" height="238.032155pt" viewBox="0 0 214.658794 238.032155"
 preserveAspectRatio="xMidYMid meet">
<metadata>
Created by potrace 1.16, written by Peter Selinger 2001-2019
</metadata>
<g transform="translate(-50.728358,281.244126) scale(0.100000,-0.100000)"
fill="#000000" stroke="none">
<path d="M1114 2782 c-75 -40 -122 -74 -183 -132 -30 -29 -98 -87 -150 -131
-127 -103 -180 -154 -227 -213 l-39 -49 -5 -501 c-7 -710 -1 -919 28 -971 12
-22 22 -43 22 -47 0 -17 86 -133 127 -172 41 -39 71 -57 187 -112 59 -28 1356
-29 1399 -1 14 9 34 17 42 17 16 0 95 43 125 67 108 90 151 146 185 242 l24
66 2 695 3 695 -28 48 c-35 60 -483 462 -558 501 -73 38 -192 38 -237 0 -35
-29 -54 -86 -45 -135 9 -46 19 -64 75 -135 108 -136 106 -205 -11 -323 -75
-76 -112 -91 -253 -98 -133 -7 -233 35 -328 138 -74 80 -62 181 34 285 95 102
109 140 77 204 -47 91 -162 118 -266 62z m137 -92 c28 -15 25 -23 -41 -107
-33 -41 -60 -80 -60 -86 0 -6 -8 -19 -17 -29 -31 -34 -25 -200 9 -263 32 -61
98 -126 158 -156 25 -13 48 -27 51 -32 4 -6 49 -16 100 -23 272 -38 444 22
556 194 36 56 37 60 37 153 1 109 -29 187 -106 274 -63 72 -46 99 47 72 63
-18 82 -31 185 -131 41 -40 116 -105 165 -145 50 -40 116 -100 148 -133 l57
-60 0 -673 c0 -750 6 -687 -71 -806 -35 -53 -69 -84 -156 -143 -67 -45 -206
-54 -803 -50 -280 1 -529 7 -560 12 -146 27 -256 139 -321 327 -16 46 -14
1271 2 1313 15 40 76 107 157 173 42 35 123 107 178 160 139 132 234 186 285
159z"/>
<path d="M1162 1558 c-20 -20 -14 -65 10 -82 35 -24 799 -24 823 0 23 23 15
66 -15 81 -35 18 -800 19 -818 1z"/>
<path d="M1551 1333 c-399 -3 -401 -4 -401 -54 0 -55 7 -56 436 -59 351 -1
393 0 408 15 32 33 6 91 -44 97 -14 2 -193 2 -399 1z"/>
<path d="M1163 1078 c-21 -27 -23 -51 -8 -74 l15 -24 404 0 c378 0 404 1 419
18 20 22 22 63 5 80 -18 18 -822 17 -835 0z"/>
</g>
</svg>
