<?xml version="1.0" standalone="no"?>
<!DOCTYPE svg PUBLIC "-//W3C//DTD SVG 20010904//EN"
 "http://www.w3.org/TR/2001/REC-SVG-20010904/DTD/svg10.dtd">
<svg version="1.0" xmlns="http://www.w3.org/2000/svg"
 width="187.087106pt" height="238.759249pt" viewBox="0 0 187.087106 238.759249"
 preserveAspectRatio="xMidYMid meet">
<metadata>
Created by potrace 1.16, written by Peter Selinger 2001-2019
</metadata>
<g transform="translate(-67.855975,279.259249) scale(0.100000,-0.100000)"
fill="#000000" stroke="none">
<path d="M1148 2769 c-51 -38 -24 -86 55 -100 99 -17 129 -37 167 -106 22 -40
22 -44 7 -61 -9 -10 -17 -24 -17 -30 0 -45 -163 -152 -232 -152 -37 0 -104
-23 -148 -51 -8 -5 -29 -16 -46 -24 -32 -14 -124 -101 -156 -146 -10 -13 -26
-36 -37 -50 -11 -14 -23 -39 -27 -55 -4 -16 -13 -38 -20 -49 -21 -29 -20
-1108 0 -1147 8 -15 17 -40 21 -57 4 -17 11 -33 16 -37 5 -3 15 -20 23 -37 17
-41 167 -183 203 -192 15 -3 35 -12 43 -19 8 -6 42 -21 75 -31 56 -19 91 -20
541 -20 350 0 485 3 495 12 8 6 32 15 54 19 108 20 291 171 320 264 4 14 13
31 19 39 33 42 44 189 45 638 2 525 -5 580 -93 708 -32 46 -137 145 -171 161
-16 7 -37 18 -45 23 -38 23 -129 51 -165 51 -100 0 -235 118 -235 206 0 37 5
48 34 74 47 43 104 70 147 70 64 0 90 52 51 100 l-18 23 -75 -19 c-41 -10 -85
-26 -98 -36 -13 -10 -29 -18 -35 -18 -20 0 -91 -82 -115 -133 -45 -94 22 -225
158 -312 71 -44 101 -105 101 -204 0 -107 -26 -165 -107 -244 -105 -101 -152
-126 -253 -134 -243 -21 -492 288 -392 487 25 51 118 138 148 140 10 0 35 30
82 99 21 31 24 44 20 111 -3 76 -4 78 -51 134 -27 31 -54 56 -61 56 -7 0 -23
9 -36 20 -12 11 -45 23 -72 26 -26 4 -51 11 -54 15 -9 15 -38 9 -66 -12z m-46
-644 c-4 -91 16 -214 40 -244 10 -13 18 -29 18 -35 0 -7 31 -46 69 -87 137
-148 273 -197 472 -169 52 7 104 20 118 30 15 9 46 30 70 46 50 33 131 121
166 180 29 50 57 195 53 279 -3 65 15 83 50 52 9 -9 29 -19 44 -22 38 -10 185
-155 194 -191 4 -16 13 -41 20 -56 11 -21 14 -129 15 -531 l1 -505 -24 -63
c-33 -89 -146 -206 -241 -248 l-67 -30 -488 -3 c-451 -3 -490 -2 -515 15 -14
9 -35 17 -45 17 -26 0 -133 80 -168 126 -97 125 -99 137 -90 719 4 258 10 486
14 505 17 86 121 209 222 265 68 37 76 32 72 -50z"/>
</g>
</svg>
