<?xml version="1.0" standalone="no"?>
<!DOCTYPE svg PUBLIC "-//W3C//DTD SVG 20010904//EN"
 "http://www.w3.org/TR/2001/REC-SVG-20010904/DTD/svg10.dtd">
<svg version="1.0" xmlns="http://www.w3.org/2000/svg"
 width="201.653301pt" height="238.741527pt" viewBox="0 0 201.653301 238.741527"
 preserveAspectRatio="xMidYMid meet">
<metadata>
Created by potrace 1.16, written by Peter Selinger 2001-2019
</metadata>
<g transform="translate(-62.537985,284.901661) scale(0.100000,-0.100000)"
fill="#000000" stroke="none">
<path d="M1080 2829 c-212 -66 -352 -201 -427 -412 -33 -91 -37 -338 -8 -417
9 -25 20 -61 25 -80 12 -50 53 -154 67 -171 6 -8 14 -26 18 -41 4 -15 13 -32
21 -39 8 -6 14 -18 14 -26 0 -7 8 -30 19 -51 10 -20 21 -57 25 -82 4 -25 13
-63 21 -85 8 -24 14 -80 15 -140 0 -137 64 -465 110 -570 10 -22 21 -50 24
-62 4 -13 11 -23 16 -23 5 0 11 -13 15 -28 3 -15 18 -39 33 -53 103 -97 210
-115 280 -46 41 40 92 152 92 201 0 15 9 66 19 114 11 48 25 128 31 177 7 50
18 110 26 134 8 25 14 51 14 58 0 14 38 73 55 85 15 11 73 10 95 -2 25 -14 71
-109 77 -163 3 -23 11 -53 18 -67 7 -14 15 -67 19 -118 3 -51 13 -106 21 -122
8 -16 15 -47 15 -70 0 -22 7 -57 15 -77 8 -19 15 -43 15 -52 0 -18 54 -98 80
-118 22 -17 92 -26 142 -18 50 9 138 92 175 166 45 92 73 158 73 174 0 9 6 28
14 43 7 15 16 57 19 94 3 37 13 80 20 95 9 18 16 78 20 173 10 259 70 487 182
692 8 14 15 34 15 45 0 10 9 35 20 56 25 47 30 338 6 372 -7 11 -17 36 -21 55
-4 19 -13 42 -20 50 -7 8 -16 26 -20 40 -21 69 -180 250 -219 250 -6 0 -24 7
-41 16 -16 8 -48 19 -70 24 -22 5 -66 16 -99 25 -48 14 -71 15 -130 6 -84 -13
-187 -39 -200 -52 -6 -5 -21 -9 -35 -9 -13 0 -44 -12 -69 -26 -49 -29 -68 -28
-152 6 -74 31 -117 45 -170 59 -25 7 -61 16 -80 21 -57 15 -150 11 -220 -11z
m286 -135 c89 -39 162 -76 234 -117 127 -74 156 -87 238 -108 73 -18 74 -18
113 1 56 29 54 59 -8 102 -37 25 -61 33 -105 36 -98 7 -71 60 43 83 302 59
459 -6 572 -236 63 -131 78 -303 36 -428 -37 -111 -27 -107 -285 -107 -122 0
-229 3 -238 6 -11 4 -16 19 -16 49 0 23 -9 64 -20 91 -32 76 -60 84 -296 84
-278 0 -317 -17 -319 -138 -1 -37 -5 -73 -9 -80 -10 -17 -451 -17 -485 1 -74
38 -94 355 -31 502 50 116 188 239 309 275 64 20 206 11 267 -16z m452 -680
c26 -18 28 -53 7 -94 -14 -27 -14 -32 0 -53 11 -18 14 -38 9 -84 -9 -86 -27
-93 -224 -93 -181 0 -170 -11 -170 174 0 174 -10 166 200 166 125 0 160 -3
178 -16z m-505 -284 c9 -72 36 -125 70 -134 36 -9 483 -7 510 3 41 16 71 75
63 126 -10 78 -20 75 221 75 l215 0 -5 -27 c-5 -31 -40 -131 -63 -180 -7 -17
-14 -44 -14 -60 0 -16 -6 -52 -14 -79 -8 -27 -17 -112 -20 -189 -4 -77 -13
-162 -21 -190 -7 -27 -18 -72 -23 -100 -18 -86 -33 -139 -53 -177 -10 -20 -19
-44 -19 -52 0 -51 -83 -166 -120 -166 -35 0 -64 48 -83 138 -10 48 -22 105
-27 127 -5 22 -9 60 -10 85 0 25 -9 70 -20 100 -11 30 -19 71 -20 90 0 20 -6
44 -14 55 -7 11 -16 32 -20 47 -8 35 -55 104 -100 148 -32 30 -43 35 -100 38
-140 9 -233 -102 -261 -313 -3 -27 -13 -72 -21 -99 -8 -27 -14 -70 -14 -95 0
-25 -9 -75 -20 -109 -11 -35 -20 -80 -20 -101 0 -45 -42 -111 -71 -111 -24 0
-109 85 -109 109 0 9 -7 26 -15 39 -21 28 -54 124 -65 184 -5 27 -11 52 -14
56 -11 17 -36 212 -45 347 -12 168 -52 340 -90 378 -6 6 -11 18 -11 26 0 8 -9
25 -21 37 -39 41 -22 45 214 42 l222 -3 8 -65z"/>
<path d="M1496 1902 c-9 -27 3 -52 25 -52 10 0 26 -11 35 -25 22 -34 51 -32
59 4 4 20 16 33 36 41 57 24 40 35 -68 45 -75 6 -82 5 -87 -13z"/>
<path d="M1766 1871 c-4 -5 -2 -12 3 -15 5 -4 12 -2 15 3 4 5 2 12 -3 15 -5 4
-12 2 -15 -3z"/>
<path d="M1686 1854 c-22 -21 -20 -44 4 -44 21 0 45 34 35 50 -9 14 -21 12
-39 -6z"/>
</g>
</svg>
