<?xml version="1.0" standalone="no"?>
<!DOCTYPE svg PUBLIC "-//W3C//DTD SVG 20010904//EN"
 "http://www.w3.org/TR/2001/REC-SVG-20010904/DTD/svg10.dtd">
<svg version="1.0" xmlns="http://www.w3.org/2000/svg"
 width="241.547735pt" height="182.968885pt" viewBox="0 0 241.547735 182.968885"
 preserveAspectRatio="xMidYMid meet">
<metadata>
Created by potrace 1.16, written by Peter Selinger 2001-2019
</metadata>
<g transform="translate(-44.598548,257.623524) scale(0.100000,-0.100000)"
fill="#000000" stroke="none">
<path d="M1010 2570 c-206 -30 -394 -172 -492 -372 -27 -53 -48 -107 -48 -120
0 -13 -5 -41 -11 -62 -16 -59 -17 -154 -2 -214 7 -29 13 -66 13 -82 0 -16 9
-52 20 -80 11 -28 20 -58 20 -68 1 -9 9 -35 20 -57 11 -22 19 -46 20 -54 0
-14 28 -82 85 -206 42 -93 75 -177 75 -194 0 -30 51 -120 84 -147 49 -41 104
-74 124 -74 9 0 31 -8 47 -17 17 -9 50 -19 75 -23 25 -4 104 -18 175 -31 118
-21 158 -23 435 -22 299 0 378 6 565 40 174 31 355 116 355 167 0 5 6 17 13
25 12 14 44 106 62 181 4 14 12 39 20 55 7 17 18 41 24 55 6 14 15 32 19 40
23 40 52 113 75 185 14 44 33 105 43 135 47 150 47 416 0 508 -9 17 -16 39
-16 49 0 61 -166 248 -272 307 -121 67 -170 79 -343 78 -151 -1 -165 -2 -245
-31 -162 -56 -188 -67 -204 -84 -10 -9 -26 -17 -35 -17 -10 0 -24 -7 -31 -15
-20 -24 -50 -18 -94 19 -23 18 -52 37 -66 41 -14 4 -30 11 -36 16 -65 52 -329
90 -474 69z m270 -127 c81 -19 190 -73 296 -145 45 -31 92 -59 105 -63 13 -4
33 -13 44 -19 36 -23 179 -66 217 -66 25 0 44 7 58 22 40 43 19 68 -77 93
-118 30 -118 30 -121 57 -3 26 49 68 84 68 8 0 32 9 52 19 71 36 235 64 316
53 136 -18 270 -88 356 -186 14 -15 33 -36 42 -47 34 -36 56 -96 79 -207 l22
-113 -22 -130 c-21 -127 -49 -229 -76 -279 -7 -14 -16 -42 -20 -62 -4 -21 -13
-42 -20 -48 -8 -6 -17 -26 -20 -43 -4 -18 -13 -39 -20 -47 -7 -8 -15 -32 -19
-52 -4 -20 -15 -47 -25 -59 l-19 -23 -45 37 c-25 20 -49 37 -53 37 -4 0 -25 9
-48 19 -122 57 -370 86 -726 85 -292 0 -465 -16 -549 -50 -18 -8 -44 -14 -57
-14 -13 0 -41 -9 -61 -20 -21 -11 -43 -20 -50 -20 -7 0 -36 -16 -64 -36 -58
-40 -67 -36 -90 39 -7 20 -18 42 -26 48 -7 6 -13 22 -13 36 0 13 -7 38 -17 56
-26 50 -113 309 -113 337 0 14 -7 47 -15 74 -27 88 -4 262 46 358 10 20 19 42
19 49 0 21 114 130 184 176 63 42 129 66 236 86 37 8 136 -2 210 -20z m590
-1214 c80 -5 170 -16 201 -24 31 -8 74 -15 96 -15 21 0 47 -6 58 -14 11 -7 40
-17 65 -21 25 -4 52 -13 60 -20 8 -7 26 -15 40 -18 26 -7 90 -61 90 -77 0 -14
-64 -70 -80 -70 -8 0 -30 -9 -48 -20 -18 -11 -45 -20 -60 -20 -15 0 -54 -9
-87 -20 -208 -68 -886 -73 -1070 -8 -16 5 -48 15 -70 20 -22 6 -58 19 -81 29
-23 11 -46 19 -52 19 -24 0 -81 46 -82 66 0 22 54 66 97 78 11 4 27 13 33 21
7 8 24 15 39 15 14 0 43 9 64 20 20 11 51 20 67 20 17 0 62 7 99 15 126 29
405 40 621 24z"/>
</g>
</svg>
