<?xml version="1.0" standalone="no"?>
<!DOCTYPE svg PUBLIC "-//W3C//DTD SVG 20010904//EN"
 "http://www.w3.org/TR/2001/REC-SVG-20010904/DTD/svg10.dtd">
<svg version="1.0" xmlns="http://www.w3.org/2000/svg"
 width="241.538497pt" height="239.581470pt" viewBox="0 0 241.538497 239.581470"
 preserveAspectRatio="xMidYMid meet">
<metadata>
Created by potrace 1.16, written by Peter Selinger 2001-2019
</metadata>
<g transform="translate(-40.827882,282.602841) scale(0.100000,-0.100000)"
fill="#000000" stroke="none">
<path d="M820 2820 c-25 -5 -63 -12 -85 -16 -22 -4 -46 -15 -53 -25 -7 -11
-20 -19 -28 -19 -19 0 -171 -155 -180 -183 -3 -12 -12 -29 -18 -37 -7 -8 -20
-54 -30 -103 -22 -113 -4 -223 46 -269 35 -33 38 -34 38 -8 0 13 7 20 19 20
39 0 45 26 22 86 -34 89 -29 129 32 251 27 54 114 148 147 158 14 4 36 14 49
22 20 13 46 15 138 10 101 -5 115 -3 121 11 3 9 15 24 25 33 54 44 -120 93
-243 69z"/>
<path d="M2346 2796 c-20 -19 -26 -35 -26 -70 0 -41 -22 -234 -36 -315 -4 -27
-35 -63 -153 -180 -187 -185 -194 -191 -239 -191 -38 0 -122 -35 -135 -57 -4
-7 -13 -13 -19 -13 -6 0 -35 -20 -64 -45 -41 -36 -60 -45 -89 -45 -47 0 -100
-40 -109 -80 -5 -25 -10 -30 -35 -30 -20 0 -34 -7 -41 -20 -6 -11 -17 -20 -25
-20 -30 0 -13 -36 44 -95 59 -60 131 -156 131 -175 0 -5 9 -14 19 -20 11 -5
33 -34 50 -63 36 -63 106 -139 401 -436 124 -125 239 -242 255 -261 54 -61
244 -234 267 -243 42 -16 140 -3 178 23 87 60 123 153 94 245 -17 52 -40 77
-434 470 -229 229 -430 424 -447 435 -28 16 -53 47 -53 64 0 3 11 15 24 28 13
13 49 52 80 88 54 62 56 67 56 122 l0 57 165 162 c192 190 191 188 205 381 6
78 18 157 26 176 l14 35 168 -5 c185 -5 192 -4 192 23 0 40 -41 52 -218 60
-92 4 -179 10 -194 14 -21 5 -32 1 -52 -19z m-448 -882 c12 -8 22 -21 22 -27
-1 -16 -132 -157 -146 -157 -6 0 -24 18 -40 41 -27 40 -28 42 -9 55 10 8 40
34 67 59 52 48 71 54 106 29z m-205 -260 c50 -48 93 -94 95 -103 3 -20 -61
-91 -82 -91 -9 0 -33 24 -54 53 -22 28 -56 72 -76 97 -41 52 -44 67 -15 104
28 36 28 36 132 -60z m349 -301 c511 -502 678 -680 678 -719 0 -21 -43 -66
-77 -80 -29 -13 -37 -12 -63 1 -26 13 -684 669 -759 756 -17 20 -31 44 -31 54
0 23 88 105 113 105 11 0 69 -49 139 -117z"/>
<path d="M1231 2633 c10 -20 23 -41 29 -47 5 -5 10 -17 10 -25 1 -21 58 -87
67 -77 4 4 2 16 -5 26 -7 11 -12 25 -12 32 0 25 -80 127 -101 128 -4 0 2 -17
12 -37z"/>
<path d="M1172 2593 c2 -9 9 -18 16 -21 18 -6 15 25 -4 32 -11 4 -14 1 -12
-11z"/>
<path d="M650 2060 c0 -5 7 -10 15 -10 8 0 15 5 15 10 0 6 -7 10 -15 10 -8 0
-15 -4 -15 -10z"/>
<path d="M1280 1564 c-49 -44 -76 -87 -84 -135 -4 -21 -15 -48 -26 -62 -11
-14 -20 -30 -20 -36 0 -27 34 -5 120 75 50 47 94 84 98 82 4 -2 29 -27 56 -55
l49 -53 -76 -92 c-113 -139 -739 -758 -766 -758 -26 0 -111 86 -111 112 0 22
74 101 305 328 93 91 192 190 222 220 54 55 77 100 55 108 -7 2 -12 17 -12 33
0 65 -34 38 -341 -269 -356 -357 -370 -379 -318 -496 46 -104 183 -164 276
-120 23 12 171 151 388 369 430 431 475 479 475 508 0 45 -21 99 -41 104 -10
3 -19 9 -19 13 0 16 -93 120 -125 140 -45 28 -59 25 -105 -16z"/>
</g>
</svg>
