<?xml version="1.0" standalone="no"?>
<!DOCTYPE svg PUBLIC "-//W3C//DTD SVG 20010904//EN"
 "http://www.w3.org/TR/2001/REC-SVG-20010904/DTD/svg10.dtd">
<svg version="1.0" xmlns="http://www.w3.org/2000/svg"
 width="236.493907pt" height="239.448263pt" viewBox="0 0 236.493907 239.448263"
 preserveAspectRatio="xMidYMid meet">
<metadata>
Created by potrace 1.16, written by Peter Selinger 2001-2019
</metadata>
<g transform="translate(-52.006093,290.290585) scale(0.100000,-0.100000)"
fill="#000000" stroke="none">
<path d="M789 2899 c-79 -13 -79 -14 -79 -167 0 -132 1 -140 25 -172 31 -42
31 -69 0 -198 -14 -57 -25 -114 -25 -128 0 -14 -6 -37 -14 -52 -7 -15 -17 -53
-21 -86 -4 -32 -13 -77 -21 -99 -25 -71 -38 -293 -40 -667 -1 -381 -8 -451
-44 -497 -11 -14 -20 -31 -20 -38 0 -7 -7 -26 -15 -41 -8 -16 -15 -55 -15 -86
0 -53 3 -62 37 -99 21 -23 49 -46 63 -52 17 -7 351 -10 1045 -8 561 1 1042 1
1068 1 45 0 53 4 100 49 l52 50 -1 63 c0 51 -6 72 -30 113 -65 110 -63 92 -68
540 -3 226 -9 460 -14 520 -9 113 -57 397 -72 426 -5 8 -12 40 -16 70 -4 30
-13 71 -20 93 -20 56 -17 83 14 123 26 35 27 42 30 174 l3 138 -29 15 c-27 14
-143 16 -945 18 -503 2 -929 0 -948 -3z m1791 -124 c16 -20 18 -91 2 -107 -9
-9 -203 -12 -866 -12 -819 0 -856 1 -875 19 -25 22 -26 46 -6 85 l16 30 858 0
c753 0 860 -2 871 -15z m-54 -295 c12 -36 25 -90 29 -120 4 -30 12 -64 18 -75
6 -11 14 -42 17 -70 4 -27 14 -79 23 -115 17 -70 42 -231 53 -345 4 -38 8
-252 8 -475 l1 -405 24 -50 c14 -27 33 -61 43 -74 23 -30 24 -103 2 -122 -14
-11 -917 -16 -1982 -9 -79 0 -85 2 -113 30 l-30 29 21 38 c11 21 36 63 55 93
l34 55 1 435 c1 247 5 454 11 480 5 25 13 77 18 115 4 39 15 102 24 140 25
104 58 263 67 321 4 28 13 61 19 72 6 11 11 34 11 49 0 73 -41 70 1000 69
l625 -1 21 -65z"/>
<path d="M1429 2294 c-30 -20 -68 -53 -86 -73 -18 -20 -39 -43 -47 -51 -35
-37 -56 -131 -56 -256 0 -137 4 -129 -85 -163 -78 -31 -149 -76 -170 -108 -64
-98 -90 -179 -87 -276 3 -82 47 -103 68 -32 7 22 19 54 28 70 9 17 16 34 16
38 0 18 55 79 102 112 59 43 145 49 141 10 -11 -93 8 -181 54 -253 48 -74 141
-142 194 -142 64 0 -25 -110 -117 -146 -51 -20 -163 -25 -219 -11 -21 6 -36 4
-50 -7 -28 -21 -11 -44 60 -81 56 -29 65 -30 179 -30 118 1 123 2 206 39 47
21 92 44 101 52 20 18 63 18 79 -1 17 -20 111 -62 184 -81 151 -40 389 19 374
93 -3 14 -11 17 -43 15 -186 -15 -244 -2 -343 78 -68 54 -64 80 11 80 33 0 46
8 92 53 80 80 115 163 115 270 0 100 9 113 70 103 88 -14 176 -102 211 -212
26 -84 41 -103 65 -84 27 23 33 53 23 135 -15 138 -95 245 -235 316 -102 51
-102 51 -106 175 -6 156 -39 236 -137 331 -68 66 -117 87 -146 63 -21 -17 -20
-21 23 -66 20 -23 49 -66 65 -96 58 -117 17 -276 -54 -212 -71 64 -305 69
-419 8 -63 -34 -78 -31 -86 12 -19 102 16 201 102 295 28 29 31 54 8 63 -25 9
-29 8 -85 -30z m401 -438 c53 -17 53 -53 -1 -86 -117 -70 -123 -71 -194 -32
-123 68 -127 72 -101 108 25 33 206 40 296 10z m-396 -90 c42 -41 76 -77 76
-80 0 -13 -67 -5 -121 15 l-59 22 0 52 c0 86 7 86 104 -9z m616 37 c0 -14 8
-35 17 -45 23 -25 11 -34 -77 -57 -102 -27 -107 -16 -29 63 71 71 89 79 89 39z
m-286 -204 c53 -31 52 -66 -2 -121 -50 -53 -81 -51 -138 6 -67 66 -60 119 16
129 73 8 90 6 124 -14z m262 -55 c4 -14 0 -34 -8 -47 -8 -12 -18 -34 -21 -48
-16 -65 -99 -179 -131 -179 -21 0 -66 68 -66 100 0 33 110 165 158 189 43 22
60 18 68 -15z m-544 -36 c23 -29 60 -71 81 -92 20 -22 37 -45 37 -51 0 -25
-46 -105 -61 -105 -19 0 -119 110 -136 150 -7 16 -17 31 -23 35 -11 7 -14 98
-3 108 22 23 63 5 105 -45z m237 -220 c5 -13 17 -52 27 -88 9 -36 23 -77 31
-92 18 -37 1 -43 -35 -13 -38 32 -65 32 -87 -1 -12 -19 -19 -23 -29 -14 -11 8
-8 23 14 78 15 38 31 84 35 103 12 56 29 66 44 27z"/>
</g>
</svg>
