<?xml version="1.0" standalone="no"?>
<!DOCTYPE svg PUBLIC "-//W3C//DTD SVG 20010904//EN"
 "http://www.w3.org/TR/2001/REC-SVG-20010904/DTD/svg10.dtd">
<svg version="1.0" xmlns="http://www.w3.org/2000/svg"
 width="242.569398pt" height="237.167881pt" viewBox="0 0 242.569398 237.167881"
 preserveAspectRatio="xMidYMid meet">
<metadata>
Created by potrace 1.16, written by Peter Selinger 2001-2019
</metadata>
<g transform="translate(-41.476636,284.514907) scale(0.100000,-0.100000)"
fill="#000000" stroke="none">
<path d="M2460 2840 c-66 -9 -102 -24 -154 -65 -41 -32 -116 -151 -116 -184 0
-11 -5 -23 -10 -26 -6 -3 -15 -26 -21 -50 -6 -25 -17 -50 -25 -56 -8 -6 -14
-17 -14 -23 -1 -19 -59 -98 -108 -145 -26 -25 -96 -92 -155 -148 -59 -57 -110
-103 -115 -103 -4 0 -34 -25 -67 -56 -33 -30 -82 -68 -110 -84 -57 -33 -83
-54 -215 -183 -53 -50 -161 -150 -240 -222 -79 -71 -187 -173 -240 -225 -52
-53 -122 -118 -155 -145 -33 -28 -108 -99 -167 -158 -95 -95 -109 -114 -123
-164 -34 -116 19 -233 138 -307 46 -28 190 -30 245 -3 41 20 140 107 158 139
5 9 50 61 100 115 51 54 105 113 120 131 16 18 70 77 119 130 50 53 113 124
140 157 28 32 77 86 109 120 32 33 84 92 114 130 31 39 83 99 116 134 34 35
68 71 77 81 8 9 30 42 47 72 38 65 147 192 321 373 80 82 107 116 136 165 6
10 16 24 22 31 15 19 63 142 63 161 0 9 7 21 15 28 8 7 15 22 15 35 0 21 45
90 65 98 12 5 40 -6 76 -31 136 -91 144 -93 187 -57 86 72 -11 255 -166 314
-67 26 -112 31 -182 21z m122 -122 c41 -12 118 -86 118 -113 0 -24 -34 -17
-81 17 -58 42 -144 46 -184 8 -28 -27 -75 -105 -75 -126 0 -21 -52 -146 -73
-174 -93 -127 -403 -470 -425 -470 -18 0 -36 44 -29 72 4 13 86 104 184 203
166 169 181 187 226 276 26 52 47 102 47 111 0 29 48 123 76 150 58 54 135 71
216 46z m-830 -893 c6 -14 19 -27 30 -30 35 -12 2 -90 -65 -153 -24 -23 -67
-19 -67 6 0 5 -16 25 -35 46 -46 51 -44 64 15 116 77 67 97 70 122 15z m-204
-230 c28 -21 52 -47 52 -56 0 -19 -100 -143 -160 -199 -21 -19 -67 -73 -104
-119 -37 -46 -91 -107 -119 -135 -29 -29 -74 -79 -101 -112 -28 -32 -75 -86
-105 -119 -31 -33 -93 -101 -138 -150 -54 -60 -100 -100 -137 -120 l-56 -29
-27 21 c-16 11 -38 23 -50 27 -32 10 -73 87 -73 136 0 40 5 46 123 163 166
164 385 371 422 398 17 13 71 62 120 110 50 47 104 99 121 115 18 16 49 45 70
64 74 68 78 68 162 5z"/>
</g>
</svg>
