<?xml version="1.0" standalone="no"?>
<!DOCTYPE svg PUBLIC "-//W3C//DTD SVG 20010904//EN"
 "http://www.w3.org/TR/2001/REC-SVG-20010904/DTD/svg10.dtd">
<svg version="1.0" xmlns="http://www.w3.org/2000/svg"
 width="199.480353pt" height="200.404909pt" viewBox="0 0 199.480353 200.404909"
 preserveAspectRatio="xMidYMid meet">
<metadata>
Created by potrace 1.16, written by Peter Selinger 2001-2019
</metadata>
<g transform="translate(-41.232702,241.710343) scale(0.100000,-0.100000)"
fill="#000000" stroke="none">
<path d="M890 2412 c-112 -21 -172 -55 -266 -147 -87 -85 -154 -189 -154 -238
0 -7 -4 -17 -10 -23 -17 -17 -52 -225 -47 -284 10 -133 30 -278 43 -320 7 -25
17 -72 20 -105 4 -33 11 -68 16 -78 5 -9 13 -45 18 -80 36 -256 78 -387 149
-464 42 -45 200 -150 238 -158 17 -3 37 -13 44 -21 6 -8 23 -14 38 -14 14 0
46 -9 70 -20 24 -11 57 -20 73 -20 17 0 73 -7 124 -16 154 -26 491 -3 569 40
17 9 38 16 48 16 9 0 34 9 54 20 21 11 45 20 55 20 9 0 19 4 22 9 3 5 32 24
63 41 69 39 164 128 196 184 27 46 48 151 72 356 9 74 20 157 25 183 6 27 13
81 16 120 3 40 14 126 26 192 24 143 20 226 -17 363 -42 155 -101 236 -213
289 -67 32 -233 38 -300 11 -44 -18 -158 -47 -227 -59 -27 -4 -66 -13 -85 -18
-75 -23 -105 -15 -169 43 -50 46 -92 78 -155 118 -78 49 -239 78 -336 60z
m271 -136 c42 -21 109 -68 154 -108 160 -141 329 -230 405 -213 65 14 31 79
-46 88 -92 10 -95 63 -3 74 24 3 67 13 94 23 126 45 155 52 233 57 73 5 87 3
110 -14 15 -11 37 -23 49 -27 33 -10 88 -77 105 -127 62 -179 71 -279 39 -445
-10 -54 -24 -148 -31 -209 -13 -124 -24 -150 -73 -159 -19 -3 -44 -17 -57 -31
-13 -14 -29 -25 -36 -25 -7 0 -17 -6 -21 -14 -45 -78 -329 -226 -434 -226 -22
0 -56 -7 -76 -15 -49 -21 -245 -21 -303 0 -23 8 -59 15 -79 15 -36 0 -155 39
-241 78 -46 21 -57 30 -226 167 -55 44 -111 86 -126 92 -20 9 -28 21 -33 50
-3 21 -12 58 -20 83 -47 143 -48 492 -2 586 69 137 76 148 157 235 77 83 154
111 291 106 87 -3 103 -7 170 -41z"/>
</g>
</svg>
