<?xml version="1.0" standalone="no"?>
<!DOCTYPE svg PUBLIC "-//W3C//DTD SVG 20010904//EN"
 "http://www.w3.org/TR/2001/REC-SVG-20010904/DTD/svg10.dtd">
<svg version="1.0" xmlns="http://www.w3.org/2000/svg"
 width="242.962354pt" height="193.044445pt" viewBox="0 0 242.962354 193.044445"
 preserveAspectRatio="xMidYMid meet">
<metadata>
Created by potrace 1.16, written by Peter Selinger 2001-2019
</metadata>
<g transform="translate(-43.867061,265.100310) scale(0.100000,-0.100000)"
fill="#000000" stroke="none">
<path d="M1215 2634 c-22 -9 -60 -20 -85 -25 -25 -5 -63 -15 -85 -24 -38 -14
-122 -36 -210 -55 -22 -5 -84 -9 -137 -10 -133 0 -192 -32 -234 -128 -29 -64
-34 -246 -10 -328 8 -27 17 -61 21 -76 3 -15 32 -54 65 -88 70 -71 72 -83 34
-179 -35 -90 -55 -128 -81 -153 -13 -12 -23 -31 -23 -42 0 -12 -7 -43 -15 -70
-24 -77 -20 -271 5 -340 30 -80 119 -152 280 -228 127 -60 395 -138 474 -138
19 0 61 -7 93 -15 71 -19 242 -19 303 -1 38 11 51 11 84 0 50 -18 202 -17 286
1 36 8 81 14 100 15 36 0 120 17 250 52 41 11 96 25 121 31 25 7 52 17 60 23
8 6 59 32 114 59 77 38 114 64 161 111 l61 62 7 97 c17 224 -4 332 -89 470
-13 22 -31 54 -39 72 -9 17 -20 34 -26 38 -29 18 -9 63 48 113 67 58 102 121
102 183 0 24 5 82 12 127 9 67 9 98 -2 150 -26 135 -84 172 -285 182 -92 4
-148 12 -190 27 -33 12 -94 31 -135 43 -41 12 -97 29 -125 38 -72 24 -251 23
-288 0 -14 -10 -34 -18 -43 -18 -9 0 -38 -18 -64 -40 -59 -49 -77 -50 -140 -5
-111 78 -273 108 -375 69z m251 -140 c27 -14 65 -41 86 -59 39 -36 89 -65 110
-65 8 0 49 29 93 65 97 79 127 88 265 82 83 -3 126 -11 205 -37 55 -18 118
-37 140 -42 22 -5 60 -16 85 -24 26 -8 86 -14 142 -14 l97 0 30 -37 c28 -34
31 -44 31 -107 0 -70 -15 -172 -31 -214 -12 -30 -49 -26 -65 6 -17 35 -73 89
-104 102 -26 11 -118 -23 -135 -50 -9 -15 -61 -12 -75 4 -41 51 -147 43 -217
-15 -58 -48 -55 -48 -110 0 -80 71 -219 76 -279 10 -9 -10 -23 -19 -29 -19 -7
0 -18 -7 -25 -15 -20 -25 -49 -17 -89 23 -44 44 -148 75 -182 54 -10 -7 -30
-12 -44 -12 -16 0 -42 -15 -69 -40 -54 -50 -76 -51 -107 -3 -34 51 -91 67
-168 47 -30 -7 -59 -18 -65 -24 -18 -18 -51 -11 -86 20 -66 56 -153 28 -211
-68 -39 -65 -47 -63 -75 19 -35 98 -34 225 3 271 15 18 28 34 28 35 1 2 50 5
109 8 65 3 119 11 137 20 15 8 36 15 45 15 9 0 73 18 143 39 163 51 150 48
267 50 91 1 106 -2 150 -25z m-623 -482 c26 -27 27 -33 27 -128 0 -111 -6
-124 -56 -124 -79 0 -117 157 -59 243 31 44 52 47 88 9z m666 -1 c12 -12 24
-21 29 -21 47 0 81 -294 37 -327 -16 -11 -35 -13 -90 -7 -38 4 -88 8 -110 9
-62 1 -65 6 -65 103 0 132 14 197 48 231 46 46 112 51 151 12z m418 -1 c52
-38 70 -86 76 -202 7 -132 -10 -147 -175 -161 -109 -9 -110 -7 -106 171 3 134
4 142 28 168 55 59 117 68 177 24z m606 1 c37 -44 45 -136 21 -223 -8 -27 -83
-47 -98 -26 -21 29 -15 232 8 257 26 28 40 26 69 -8z m-1406 -1 c49 -29 61
-64 65 -177 3 -105 -8 -141 -41 -128 -8 3 -49 10 -90 16 -41 5 -78 15 -83 21
-28 44 13 227 59 264 35 29 49 29 90 4z m1164 -32 c21 -29 24 -46 27 -131 4
-112 -2 -127 -57 -127 -20 0 -52 -5 -71 -10 -31 -9 -37 -8 -54 12 -27 33 -16
195 17 240 42 58 101 64 138 16z m-1583 -323 c3 -34 -30 -95 -52 -95 -42 0
-44 64 -3 108 28 30 51 25 55 -13z m1970 -17 c27 -53 24 -73 -12 -90 -40 -18
-56 3 -56 72 0 88 28 95 68 18z m-198 -18 c30 -30 40 -63 40 -130 0 -74 -5
-87 -42 -106 -61 -31 -116 63 -102 173 6 49 10 56 38 69 41 18 43 17 66 -6z
m-1586 -11 c33 -15 34 -20 26 -111 -7 -85 -26 -118 -66 -118 -39 0 -54 35 -54
130 0 109 21 132 94 99z m1355 -18 c23 -15 10 -234 -16 -269 -27 -37 -57 -39
-104 -6 -38 26 -39 29 -39 84 0 31 -3 77 -6 101 -7 57 10 80 67 89 64 11 82
11 98 1z m-1045 -24 c24 -16 26 -22 26 -97 0 -98 -9 -121 -56 -149 -81 -48
-124 9 -124 162 0 51 3 97 8 101 12 13 118 1 146 -17z m374 -22 c16 -6 7 -165
-14 -241 -19 -69 -73 -95 -133 -64 -49 25 -60 52 -72 183 -13 139 -14 138 115
131 50 -3 97 -7 104 -9z m380 0 c11 -10 -17 -224 -33 -256 -69 -136 -205 -45
-205 138 0 115 5 121 97 126 78 4 133 1 141 -8z m-1271 -189 c111 -108 149
-127 191 -97 33 23 77 28 89 8 4 -6 24 -26 44 -43 46 -39 160 -47 203 -13 32
25 36 24 78 -13 64 -59 92 -75 143 -81 70 -9 127 5 173 42 51 40 64 39 119 -6
64 -53 153 -54 226 -4 26 18 52 41 57 52 12 22 46 25 69 6 31 -26 99 -41 126
-29 14 7 34 12 43 12 9 0 33 20 52 45 39 49 57 54 114 30 66 -28 168 22 190
93 4 12 22 29 39 37 18 8 40 20 50 27 39 29 52 1 55 -126 2 -107 1 -120 -21
-156 -23 -38 -131 -121 -179 -136 -13 -4 -34 -15 -47 -25 -13 -11 -30 -19 -38
-19 -8 0 -27 -6 -41 -14 -42 -21 -157 -49 -362 -87 -102 -19 -684 -20 -785 -1
-38 7 -99 18 -135 24 -36 5 -94 19 -129 29 -35 11 -70 19 -77 19 -7 0 -25 7
-41 14 -15 8 -71 36 -124 61 -56 27 -119 67 -150 94 l-54 48 -3 119 c-3 114 6
174 27 174 5 0 49 -38 98 -84z"/>
</g>
</svg>
