<?xml version="1.0" standalone="no"?>
<!DOCTYPE svg PUBLIC "-//W3C//DTD SVG 20010904//EN"
 "http://www.w3.org/TR/2001/REC-SVG-20010904/DTD/svg10.dtd">
<svg version="1.0" xmlns="http://www.w3.org/2000/svg"
 width="242.052383pt" height="172.181491pt" viewBox="0 0 242.052383 172.181491"
 preserveAspectRatio="xMidYMid meet">
<metadata>
Created by potrace 1.16, written by Peter Selinger 2001-2019
</metadata>
<g transform="translate(-43.117692,248.181491) scale(0.100000,-0.100000)"
fill="#000000" stroke="none">
<path d="M590 2455 c-45 -23 -120 -103 -120 -126 0 -7 -7 -21 -17 -31 -21 -23
-29 -148 -15 -238 21 -131 87 -291 155 -372 l39 -47 2 -137 c1 -117 -2 -141
-16 -160 -25 -31 -22 -67 7 -94 28 -27 31 -46 10 -74 -22 -29 -19 -44 15 -83
35 -40 37 -57 10 -80 -26 -23 -25 -45 4 -70 13 -11 40 -46 60 -76 36 -54 105
-107 140 -107 50 0 133 70 147 124 4 17 12 48 17 69 6 20 19 45 30 55 30 26
43 74 30 116 -9 29 -8 41 11 76 25 48 26 69 6 96 -21 27 -18 44 10 70 30 28
32 60 5 94 -22 28 -26 55 -9 66 8 4 10 28 6 67 l-5 60 47 46 c26 25 58 69 72
98 29 63 50 67 74 16 10 -21 35 -57 56 -80 22 -24 39 -53 39 -65 1 -65 59 -89
225 -95 162 -6 265 26 265 83 0 14 21 45 54 79 30 32 56 69 60 86 8 41 28 36
56 -13 88 -162 294 -216 539 -142 122 36 169 97 225 292 52 180 30 353 -56
454 -53 62 -184 84 -301 51 -55 -15 -62 -15 -111 0 -67 21 -185 22 -212 2 -10
-8 -25 -15 -33 -15 -7 0 -29 -13 -48 -30 -40 -36 -49 -37 -65 -9 -37 61 -205
91 -295 54 -19 -8 -46 -15 -58 -15 -12 0 -39 7 -58 15 -84 35 -249 8 -296 -48
-18 -22 -46 -21 -68 2 -56 58 -204 82 -290 46 -44 -19 -80 -19 -113 0 -43 24
-176 19 -230 -10z m161 -95 c30 -5 71 -17 92 -27 33 -14 44 -15 70 -4 66 26
143 42 174 36 40 -7 103 -65 103 -93 0 -11 5 -33 10 -48 14 -35 -5 -220 -26
-251 -8 -12 -14 -27 -14 -33 0 -21 -61 -138 -82 -156 -18 -17 -38 -19 -182
-19 -219 0 -220 0 -308 202 -73 168 -36 380 71 396 14 2 29 5 32 6 4 0 31 -3
60 -9z m781 -4 c29 -8 68 -20 86 -28 26 -10 38 -10 65 1 57 23 142 37 177 30
45 -10 97 -66 106 -116 10 -51 -13 -223 -36 -278 -24 -56 -44 -57 -70 -5 -33
65 -82 84 -212 82 -140 -2 -192 -23 -210 -86 -16 -56 -25 -64 -47 -41 -29 30
-61 163 -61 253 0 165 65 225 202 188z m762 0 c30 -8 64 -19 75 -25 27 -15 73
-14 96 3 37 25 121 39 158 27 128 -42 151 -219 60 -451 -50 -128 -116 -165
-287 -158 -145 5 -220 49 -259 153 -46 122 -65 283 -41 356 17 54 38 76 91 95
48 17 42 17 107 0z m-539 -447 c19 -18 42 -206 27 -221 -5 -5 -65 -7 -133 -6
l-124 3 -3 105 c-4 137 2 143 130 138 63 -2 92 -7 103 -19z m-796 -250 c46
-16 39 -49 -14 -68 -59 -20 -171 -26 -190 -11 -47 39 -2 78 95 83 41 1 75 4
76 5 1 1 15 -3 33 -9z m6 -199 c0 -8 -13 -17 -30 -21 -16 -4 -47 -14 -67 -23
-54 -23 -108 -22 -108 3 0 25 9 30 74 46 67 17 131 15 131 -5z m-7 -162 c-5
-38 -173 -77 -173 -40 0 17 100 59 143 61 29 1 33 -2 30 -21z m-11 -164 c8
-22 -14 -39 -67 -53 -68 -18 -75 -18 -78 5 -6 42 130 87 145 48z m-27 -179 c0
-31 -44 -78 -68 -73 -29 6 -23 69 8 85 40 21 60 16 60 -12z"/>
</g>
</svg>
