<?xml version="1.0" standalone="no"?>
<!DOCTYPE svg PUBLIC "-//W3C//DTD SVG 20010904//EN"
 "http://www.w3.org/TR/2001/REC-SVG-20010904/DTD/svg10.dtd">
<svg version="1.0" xmlns="http://www.w3.org/2000/svg"
 width="240.037834pt" height="179.853498pt" viewBox="0 0 240.037834 179.853498"
 preserveAspectRatio="xMidYMid meet">
<metadata>
Created by potrace 1.16, written by Peter Selinger 2001-2019
</metadata>
<g transform="translate(-41.789141,252.636768) scale(0.100000,-0.100000)"
fill="#000000" stroke="none">
<path d="M574 2521 c-65 -11 -122 -58 -143 -121 -21 -58 -15 -1503 6 -1544 27
-54 75 -96 127 -111 80 -24 2051 -22 2116 2 51 19 94 54 118 98 21 38 29 1488
8 1559 -8 27 -27 52 -60 80 l-48 41 -1042 1 c-572 1 -1059 -1 -1082 -5z m2107
-132 l29 -20 0 -735 0 -735 -28 -27 -28 -27 -1026 0 -1027 0 -36 35 c-36 35
-36 36 -34 110 1 41 1 360 0 709 -1 622 -1 634 19 666 12 19 26 36 33 39 7 2
475 5 1040 5 1024 1 1029 1 1058 -20z"/>
<path d="M1360 2312 c-25 -20 -23 -65 4 -75 33 -13 505 -11 520 2 23 19 20 57
-6 75 -36 26 -487 23 -518 -2z"/>
<path d="M2501 1991 c-17 -17 -61 -101 -75 -143 -6 -21 -30 -15 -63 14 -39 36
-112 34 -165 -4 -14 -10 -24 -8 -56 10 -58 32 -140 31 -181 -4 -30 -25 -71
-27 -71 -3 0 16 -82 49 -122 49 -44 0 -123 -32 -131 -54 -8 -21 -31 -20 -48 1
-21 25 -90 53 -132 53 -39 0 -117 -33 -117 -50 0 -23 -42 -21 -65 4 -38 41
-161 35 -188 -10 -11 -20 -27 -17 -54 8 -35 33 -141 33 -176 0 -25 -23 -57
-22 -57 3 0 17 -37 83 -63 113 -28 30 -52 28 -77 -7 l-20 -30 30 -53 c109
-195 132 -273 110 -379 -20 -95 0 -170 61 -233 l49 -49 58 7 c57 6 58 6 97
-34 60 -61 119 -77 179 -48 52 25 45 27 137 -37 63 -44 144 -43 213 3 48 33
49 33 67 13 19 -21 106 -51 143 -51 29 1 107 37 129 61 22 23 50 24 108 4 42
-15 46 -15 91 6 26 12 50 30 53 39 14 43 48 60 103 51 77 -12 98 -5 137 50 44
59 58 130 49 246 -6 72 -4 89 16 135 23 55 64 142 79 168 45 76 46 114 5 154
-20 21 -30 20 -53 -3z m-702 -207 c59 -35 107 -216 68 -256 -25 -25 -136 -41
-163 -23 -55 36 -33 260 28 285 32 12 36 12 67 -6z m-287 -11 c33 -38 41 -69
41 -149 0 -104 0 -104 -83 -104 -101 0 -100 -1 -100 94 0 107 37 176 93 176
20 0 40 -7 49 -17z m-289 -32 c21 -26 24 -38 23 -111 -1 -100 -11 -111 -75
-90 -49 16 -55 32 -49 127 6 97 52 131 101 74z m872 -2 c23 -28 26 -39 23 -98
-3 -66 -3 -66 -41 -84 -67 -31 -72 -25 -75 88 -2 85 0 102 15 112 27 21 49 15
78 -18z m226 2 c44 -45 41 -97 -7 -117 -60 -25 -74 -13 -74 61 0 50 4 66 18
74 25 15 31 14 63 -18z m-1334 -11 c17 -34 16 -95 -2 -110 -39 -32 -102 24
-90 80 14 62 67 79 92 30z m1365 -265 c9 -36 -31 -105 -61 -105 -55 0 -73 97
-23 125 42 23 74 16 84 -20z m-1358 -17 c14 -39 -3 -82 -33 -86 -44 -7 -83 57
-61 99 18 32 81 23 94 -13z m244 -36 c8 -10 11 -29 8 -46 -3 -16 -6 -39 -6
-52 0 -25 -31 -64 -51 -64 -6 0 -24 13 -40 29 -25 26 -29 37 -29 89 0 32 3 62
7 66 13 13 97 -4 111 -22z m880 -34 c3 -53 1 -60 -32 -95 -34 -37 -34 -38 -55
-19 -21 19 -43 78 -36 99 2 7 6 24 9 39 5 21 13 28 39 31 69 9 72 7 75 -55z
m-576 10 c26 -20 10 -144 -21 -169 -66 -53 -146 -1 -153 99 -5 76 0 82 86 82
43 0 79 -5 88 -12z m320 -42 c-5 -108 -61 -173 -121 -142 -41 22 -50 37 -59
105 -12 86 -4 93 102 89 l81 -3 -3 -49z"/>
<path d="M661 1033 c-29 -20 -29 -77 1 -97 34 -24 212 -22 258 3 41 21 51 58
23 83 -26 24 -252 33 -282 11z"/>
<path d="M2291 1014 c-25 -31 -16 -56 26 -72 45 -17 223 -21 255 -6 41 21 46
53 14 81 -25 21 -36 23 -151 23 -121 0 -124 0 -144 -26z"/>
</g>
</svg>
