<?xml version="1.0" standalone="no"?>
<!DOCTYPE svg PUBLIC "-//W3C//DTD SVG 20010904//EN"
 "http://www.w3.org/TR/2001/REC-SVG-20010904/DTD/svg10.dtd">
<svg version="1.0" xmlns="http://www.w3.org/2000/svg"
 width="241.359905pt" height="140.660617pt" viewBox="0 0 241.359905 140.660617"
 preserveAspectRatio="xMidYMid meet">
<metadata>
Created by potrace 1.16, written by Peter Selinger 2001-2019
</metadata>
<g transform="translate(-42.253263,232.703039) scale(0.100000,-0.100000)"
fill="#000000" stroke="none">
<path d="M662 2321 c-23 -4 -48 -13 -54 -19 -7 -7 -19 -12 -28 -12 -25 0 -94
-55 -126 -101 -57 -82 -34 -274 44 -362 9 -10 23 -64 33 -127 17 -105 63 -220
89 -220 7 0 38 -92 54 -163 11 -48 84 -117 161 -153 45 -21 80 -46 98 -69 58
-73 101 -95 186 -95 58 0 87 -5 116 -21 111 -57 238 -74 324 -43 48 17 54 17
123 1 121 -29 272 -11 331 39 25 21 39 24 113 24 101 0 147 21 210 96 27 31
61 56 109 78 102 48 142 106 160 232 5 35 16 59 40 84 56 61 75 103 89 199 9
61 24 113 44 154 137 275 24 480 -264 482 -155 0 -255 -75 -267 -203 -3 -32
-14 -77 -26 -102 -11 -25 -21 -65 -21 -89 0 -33 -9 -58 -39 -105 -24 -38 -41
-80 -45 -111 -9 -56 -34 -105 -53 -105 -7 0 -30 -16 -52 -35 -41 -37 -70 -43
-118 -24 -46 18 -157 12 -200 -11 -47 -25 -74 -25 -123 0 -50 26 -178 28 -215
4 -22 -15 -27 -14 -69 11 -25 15 -48 31 -51 35 -3 5 -18 11 -35 15 -30 7 -34
13 -45 80 -9 55 -35 128 -52 141 -16 14 -33 68 -33 108 0 15 -14 58 -31 94
-18 38 -33 86 -35 115 -3 45 -9 57 -51 99 -26 26 -52 48 -57 48 -5 0 -18 7
-28 16 -20 19 -135 28 -206 15z m195 -143 c32 -36 46 -69 54 -127 5 -32 16
-62 29 -76 18 -19 20 -30 14 -74 -6 -44 -4 -55 13 -74 76 -85 99 -214 50 -284
-53 -77 -29 -104 51 -57 43 26 47 26 76 11 17 -9 41 -18 53 -22 12 -3 38 -24
57 -45 39 -44 56 -49 77 -23 22 26 74 43 135 43 54 0 59 -2 102 -45 54 -54 59
-55 105 -11 69 64 181 75 236 22 35 -33 52 -33 78 2 22 29 132 92 161 92 9 0
26 -7 36 -15 11 -8 30 -15 43 -15 22 0 23 3 19 55 -3 34 -13 65 -26 83 l-21
29 26 49 c14 27 34 58 43 69 37 43 52 84 52 142 1 32 8 76 16 98 9 22 19 62
23 88 12 76 43 101 136 105 105 6 139 -3 185 -47 50 -47 55 -110 16 -194 -66
-143 -68 -150 -63 -198 7 -57 -29 -138 -92 -210 -46 -53 -64 -86 -56 -100 4
-5 4 -31 0 -58 -16 -120 -176 -169 -187 -57 -2 26 -7 31 -28 31 -34 0 -39 -39
-9 -71 25 -27 19 -67 -21 -132 -35 -57 -135 -74 -190 -34 -40 30 -58 28 -78
-10 -31 -58 -54 -74 -115 -81 -66 -8 -138 6 -178 33 -35 26 -60 25 -95 -2 -25
-20 -40 -23 -127 -23 -109 0 -99 -5 -169 85 l-27 35 -28 -27 c-30 -29 -88 -44
-128 -34 -77 20 -162 170 -115 203 26 18 23 58 -4 58 -10 0 -23 -8 -27 -17 -5
-10 -13 -26 -17 -35 -32 -65 -114 -45 -150 35 -12 26 -23 75 -25 110 -3 63 -4
65 -56 110 -58 51 -81 112 -81 215 0 49 -25 112 -54 136 -9 8 -16 21 -16 30 0
9 -7 25 -15 35 -30 40 -19 106 25 158 46 53 51 55 176 57 82 1 92 -1 111 -21z"/>
<path d="M785 2042 c-6 -5 -29 -14 -51 -20 -92 -26 -84 -78 10 -68 72 7 119
42 100 74 -12 19 -44 27 -59 14z"/>
<path d="M2419 2028 c-5 -55 19 -75 91 -76 60 -1 60 -1 60 28 0 34 -14 45 -52
42 -14 -1 -29 2 -33 8 -9 14 -65 12 -66 -2z"/>
<path d="M811 1694 c-39 -32 -39 -49 -1 -69 49 -25 91 -18 53 10 -9 7 -13 17
-9 23 11 19 37 14 43 -8 9 -35 73 -20 73 17 0 53 -107 71 -159 27z"/>
<path d="M2348 1698 c-61 -26 -63 -50 -7 -79 41 -20 43 -20 80 -3 63 28 69 41
31 75 -38 34 -43 35 -104 7z m62 -43 c0 -8 -7 -15 -15 -15 -8 0 -15 7 -15 15
0 8 7 15 15 15 8 0 15 -7 15 -15z"/>
<path d="M1254 1273 c-38 -28 -10 -86 30 -60 27 19 28 61 1 65 -11 1 -25 -1
-31 -5z"/>
<path d="M1954 1254 c-8 -31 14 -58 39 -48 19 7 33 47 22 63 -13 22 -54 12
-61 -15z"/>
<path d="M1601 1202 c-11 -21 3 -52 23 -52 21 0 38 27 31 50 -8 25 -41 26 -54
2z"/>
</g>
</svg>
