<?xml version="1.0" standalone="no"?>
<!DOCTYPE svg PUBLIC "-//W3C//DTD SVG 20010904//EN"
 "http://www.w3.org/TR/2001/REC-SVG-20010904/DTD/svg10.dtd">
<svg version="1.0" xmlns="http://www.w3.org/2000/svg"
 width="188.500000pt" height="241.845966pt" viewBox="0 0 188.500000 241.845966"
 preserveAspectRatio="xMidYMid meet">
<metadata>
Created by potrace 1.16, written by Peter Selinger 2001-2019
</metadata>
<g transform="translate(-72.000000,286.845818) scale(0.100000,-0.100000)"
fill="#000000" stroke="none">
<path d="M887 2850 c-51 -18 -93 -52 -138 -114 l-29 -39 0 -1042 0 -1042 25
-45 c67 -120 57 -118 675 -118 568 0 569 0 633 59 75 69 72 49 75 516 1 231 5
430 7 443 5 22 8 22 155 22 181 0 234 17 285 90 l30 43 0 278 0 277 -30 44
c-56 78 -95 92 -280 98 l-160 5 -5 190 -6 190 -32 46 c-79 115 -100 119 -682
117 -420 -1 -481 -3 -523 -18z m1019 -91 c83 -14 116 -47 122 -122 8 -94 55
-87 -612 -87 -523 0 -585 2 -597 16 -43 52 37 181 121 195 62 10 901 8 966 -2z
m111 -312 c6 -6 13 -31 16 -55 9 -72 10 -72 -269 -72 -281 0 -313 -8 -374 -92
l-30 -41 0 -268 c0 -264 0 -268 25 -316 29 -59 43 -72 115 -103 75 -33 73 -29
71 -119 -2 -75 -1 -81 23 -96 36 -24 57 -13 161 76 49 43 95 79 102 79 7 0 17
8 22 18 18 35 109 52 135 26 27 -26 24 -549 -3 -564 -26 -13 -1187 -14 -1196
0 -9 14 -6 1513 3 1522 17 17 1186 22 1199 5z m462 -245 l33 -27 -1 -258 c-1
-142 -6 -269 -11 -282 -20 -51 -50 -57 -319 -55 -303 1 -302 2 -392 -80 -107
-96 -129 -97 -129 -6 0 71 -16 91 -65 83 -45 -7 -92 16 -125 63 -19 26 -20 43
-20 277 0 136 4 253 8 259 4 6 25 21 47 33 39 21 50 21 490 21 l451 0 33 -28z
m-471 -1398 c19 -13 22 -24 22 -80 0 -79 -17 -123 -62 -158 l-35 -26 -496 0
c-557 0 -562 1 -604 72 -24 39 -37 159 -19 183 10 13 83 15 581 18 314 1 575
3 580 5 6 1 21 -5 33 -14z"/>
<path d="M1281 2687 c-14 -14 -14 -40 1 -55 13 -13 243 -16 288 -3 37 10 39
48 4 61 -35 14 -279 11 -293 -3z"/>
<path d="M1602 2038 c-17 -17 -15 -35 6 -56 16 -16 46 -17 376 -15 350 1 359
2 380 22 16 17 18 25 10 39 -14 22 -750 32 -772 10z"/>
<path d="M1602 1838 c-17 -17 -15 -43 4 -59 26 -22 459 -25 491 -4 27 18 31
60 7 69 -32 12 -489 7 -502 -6z"/>
<path d="M1330 723 c-60 -6 -80 -41 -44 -77 23 -23 245 -23 268 0 18 18 21 60
5 70 -13 8 -166 13 -229 7z"/>
</g>
</svg>
