<?xml version="1.0" standalone="no"?>
<!DOCTYPE svg PUBLIC "-//W3C//DTD SVG 20010904//EN"
 "http://www.w3.org/TR/2001/REC-SVG-20010904/DTD/svg10.dtd">
<svg version="1.0" xmlns="http://www.w3.org/2000/svg"
 width="245.528092pt" height="249.856193pt" viewBox="0 0 245.528092 249.856193"
 preserveAspectRatio="xMidYMid meet">
<metadata>
Created by potrace 1.16, written by Peter Selinger 2001-2019
</metadata>
<g transform="translate(-46.471908,292.908154) scale(0.100000,-0.100000)"
fill="#000000" stroke="none">
<path d="M1915 2904 c-47 -25 -118 -77 -158 -117 -10 -10 -66 -57 -125 -104
-59 -48 -138 -117 -177 -154 -38 -37 -91 -85 -116 -106 -63 -51 -305 -344
-384 -464 -66 -100 -91 -119 -155 -119 -15 0 -33 -6 -39 -14 -6 -8 -24 -19
-39 -25 -38 -16 -119 -119 -131 -167 -29 -113 -36 -127 -76 -156 -62 -45 -64
-57 -20 -95 42 -36 55 -38 205 -33 91 2 165 26 246 79 37 23 52 41 91 106 7
11 13 49 13 84 l0 65 73 70 c40 39 91 84 113 99 103 73 455 431 553 563 25 34
82 106 127 160 151 186 191 280 139 328 -36 34 -76 33 -140 0z m41 -99 c23
-58 -519 -685 -591 -685 -21 0 -85 72 -85 94 0 24 138 176 160 176 6 0 47 38
93 85 45 46 97 95 115 108 17 13 70 59 117 101 141 129 179 153 191 121z
m-688 -698 c45 -46 53 -80 23 -96 -25 -14 -92 -70 -184 -154 -90 -83 -113 -90
-111 -36 2 63 182 329 223 329 4 0 26 -19 49 -43z"/>
<path d="M1787 2222 l-27 -28 0 -356 c0 -227 4 -359 10 -363 6 -3 10 -10 10
-16 0 -19 -28 -7 -70 31 -28 25 -54 40 -71 40 -14 0 -42 11 -61 24 -20 13 -53
29 -74 36 -22 7 -51 19 -65 26 -25 13 -29 11 -72 -35 -31 -32 -57 -51 -80 -55
-44 -8 -90 -58 -111 -121 -61 -183 -62 -198 -14 -445 33 -173 49 -240 74 -324
9 -29 81 -102 127 -129 126 -74 362 -97 577 -57 163 30 186 40 267 114 38 34
46 57 67 181 55 329 65 378 79 387 6 4 122 8 256 8 l243 0 34 34 c34 34 34 35
34 124 0 104 -21 149 -78 166 -39 11 -40 22 -7 56 24 25 25 29 14 81 -14 67
-46 123 -99 172 -22 21 -40 45 -40 53 0 31 -33 78 -101 142 -75 72 -89 80
-132 81 -22 1 -29 7 -33 30 -10 48 -181 138 -235 124 -23 -6 -55 -49 -70 -93
-20 -55 -49 -40 -49 26 0 48 -4 59 -29 85 -29 28 -31 29 -138 29 -107 0 -110
-1 -136 -28z m219 -76 c3 -7 2 -40 -3 -72 l-8 -59 -60 -2 c-33 -1 -65 3 -72 8
-11 9 -16 115 -6 132 8 14 143 8 149 -7z m281 -47 c7 -9 24 -20 38 -23 36 -9
37 -54 3 -112 -23 -39 -25 -40 -98 -14 -65 22 -69 31 -35 98 42 84 61 94 92
51z m183 -128 c0 -32 -102 -103 -116 -80 -8 13 11 35 60 71 46 33 56 35 56 9z
m-475 -31 c13 -21 23 -350 12 -379 -8 -23 -7 -34 6 -54 9 -14 19 -43 23 -65 6
-36 11 -42 50 -57 27 -10 55 -14 74 -10 49 11 154 13 173 3 22 -11 25 -129 4
-147 -9 -7 -86 -10 -240 -8 -222 2 -226 3 -251 26 -54 51 -43 118 37 233 9 14
7 22 -15 45 l-26 28 6 198 5 197 68 0 c37 0 71 -5 74 -10z m589 -74 c57 -50
57 -69 -3 -103 -53 -30 -59 -29 -103 14 -47 46 -47 57 -1 99 46 42 48 42 107
-10z m-374 0 c38 -17 36 -44 -6 -87 -56 -58 -77 -50 -87 33 -10 75 16 90 93
54z m171 -108 c7 -13 18 -27 25 -31 25 -14 14 -41 -32 -79 -52 -43 -76 -47
-98 -16 -25 35 -19 60 23 106 44 47 65 52 82 20z m327 -50 c7 -7 12 -22 12
-33 0 -12 9 -30 20 -40 44 -40 20 -100 -45 -110 -52 -7 -70 2 -92 50 -7 17
-19 38 -26 48 -16 23 1 49 40 59 17 4 36 15 43 23 15 18 32 19 48 3z m-216
-95 c39 -44 61 -105 44 -121 -17 -17 -127 -29 -171 -18 -49 12 -34 55 38 108
72 54 69 53 89 31z m-314 -16 c4 -21 -25 -34 -40 -19 -8 8 -8 16 2 27 16 19
34 15 38 -8z m-687 -84 c30 -35 36 -38 91 -38 55 0 59 -2 108 -50 49 -48 70
-91 70 -144 0 -32 40 -83 87 -113 35 -21 49 -23 188 -24 250 -2 235 -1 235
-28 0 -13 -7 -29 -15 -36 -8 -7 -15 -24 -15 -38 0 -15 -7 -44 -15 -67 -8 -22
-21 -107 -29 -189 -20 -196 -39 -216 -241 -257 -235 -47 -505 -9 -608 85 -28
26 -37 44 -52 111 -10 44 -24 100 -31 125 -8 25 -17 68 -20 95 -3 28 -13 73
-22 100 -24 73 -24 275 1 302 9 11 17 27 17 36 0 20 47 57 73 57 28 0 85 37
92 60 7 22 32 50 45 50 4 0 23 -17 41 -37z m759 2 c14 -17 7 -43 -14 -51 -22
-8 -96 15 -96 31 0 28 89 45 110 20z m563 -137 c18 -14 27 -124 13 -147 -10
-16 -155 -15 -160 2 -15 47 -15 127 0 141 19 20 122 22 147 4z m-232 -19 c16
-25 11 -126 -7 -133 -41 -16 -143 -6 -154 14 -13 23 -4 107 13 129 15 18 135
11 148 -10z"/>
<path d="M1895 1376 c-47 -47 -30 -96 37 -103 37 -4 49 -1 74 20 l29 26 -20
38 c-26 50 -80 59 -120 19z"/>
<path d="M1427 1423 c-12 -11 -8 -41 7 -46 17 -7 36 11 36 35 0 18 -29 25 -43
11z"/>
<path d="M1276 1352 c-23 -26 7 -64 63 -81 51 -15 61 -34 61 -114 0 -100 50
-115 65 -19 16 108 28 123 127 158 26 9 49 23 53 31 15 42 -60 58 -105 23 -14
-11 -32 -20 -41 -20 -9 0 -28 -9 -42 -20 l-26 -21 -49 25 c-27 14 -52 32 -55
41 -8 20 -30 19 -51 -3z"/>
</g>
</svg>
