<?xml version="1.0" standalone="no"?>
<!DOCTYPE svg PUBLIC "-//W3C//DTD SVG 20010904//EN"
 "http://www.w3.org/TR/2001/REC-SVG-20010904/DTD/svg10.dtd">
<svg version="1.0" xmlns="http://www.w3.org/2000/svg"
 width="243.527122pt" height="191.339323pt" viewBox="0 0 243.527122 191.339323"
 preserveAspectRatio="xMidYMid meet">
<metadata>
Created by potrace 1.16, written by Peter Selinger 2001-2019
</metadata>
<g transform="translate(-43.821404,263.339323) scale(0.100000,-0.100000)"
fill="#000000" stroke="none">
<path d="M575 2617 c-52 -18 -82 -47 -117 -112 -21 -40 -21 -42 -19 -819 2
-845 -1 -804 57 -888 16 -23 43 -44 74 -57 48 -21 56 -21 1091 -21 l1042 0 36
22 c62 36 100 79 117 131 15 44 17 132 17 811 1 857 5 807 -75 883 -69 66 -7
63 -1143 65 -959 3 -1033 2 -1080 -15z m2149 -134 l25 -30 1 -773 1 -772 -23
-27 c-13 -14 -24 -28 -25 -30 -2 -2 -474 -4 -1049 -3 l-1047 1 -26 25 -26 26
0 781 0 781 30 27 30 27 1042 -2 1041 -1 26 -30z"/>
<path d="M720 2392 c-49 -24 -63 -61 -67 -175 -5 -145 28 -208 83 -157 22 21
24 31 24 111 0 136 2 139 104 139 91 0 110 10 104 52 -5 34 -44 48 -133 48
-56 0 -90 -5 -115 -18z"/>
<path d="M1280 2339 c-105 -49 -195 -166 -212 -275 -13 -83 2 -238 26 -277 8
-12 17 -35 21 -52 3 -16 11 -36 17 -43 23 -27 58 -149 58 -202 0 -72 17 -200
37 -275 34 -127 120 -225 195 -225 92 0 133 46 148 168 4 37 15 92 24 122 9
30 16 67 16 81 0 31 31 62 56 57 22 -4 39 -60 53 -171 26 -211 84 -286 196
-256 41 11 95 54 95 75 0 6 6 17 14 23 8 7 18 27 22 44 3 18 15 49 25 69 11
21 19 52 19 71 0 19 7 56 15 82 8 27 17 91 20 144 6 81 12 107 40 166 85 175
107 388 51 495 -67 130 -176 200 -312 200 -52 0 -98 -6 -117 -14 -18 -8 -55
-22 -84 -32 l-52 -18 -78 29 c-106 39 -228 44 -293 14z m214 -118 c91 -43 206
-65 220 -42 3 4 20 11 37 15 17 3 42 15 56 26 44 34 169 29 217 -9 86 -69 120
-175 96 -305 -8 -39 -19 -80 -26 -91 -6 -11 -15 -31 -19 -45 -4 -14 -13 -32
-20 -40 -21 -26 -53 -151 -60 -240 -4 -47 -11 -105 -16 -130 -5 -25 -14 -72
-21 -105 -21 -110 -41 -142 -84 -131 -20 5 -24 13 -24 41 0 19 -6 54 -14 77
-8 24 -19 75 -24 115 -6 40 -17 82 -26 95 -9 12 -16 30 -16 39 0 28 -64 69
-109 69 -98 0 -162 -102 -195 -315 -20 -127 -32 -147 -70 -121 -14 9 -26 24
-26 34 0 10 -8 28 -17 42 -18 26 -35 121 -57 320 -8 69 -22 145 -31 170 -9 25
-19 59 -22 75 -3 17 -12 37 -19 46 -8 8 -16 31 -20 50 -3 19 -12 50 -21 71
-34 81 12 206 103 279 46 37 141 41 208 10z"/>
<path d="M2508 1889 c-37 -27 -40 -97 -6 -129 71 -66 156 43 92 119 -30 36
-49 38 -86 10z"/>
<path d="M2511 1466 c-19 -22 -10 -48 22 -66 27 -14 29 -14 47 8 26 32 13 66
-27 70 -17 2 -35 -3 -42 -12z"/>
<path d="M2517 1294 c-36 -20 -34 -62 4 -83 37 -21 79 6 79 49 0 46 -35 60
-83 34z"/>
</g>
</svg>
