<?xml version="1.0" standalone="no"?>
<!DOCTYPE svg PUBLIC "-//W3C//DTD SVG 20010904//EN"
 "http://www.w3.org/TR/2001/REC-SVG-20010904/DTD/svg10.dtd">
<svg version="1.0" xmlns="http://www.w3.org/2000/svg"
 width="242.187504pt" height="238.879214pt" viewBox="0 0 242.187504 238.879214"
 preserveAspectRatio="xMidYMid meet">
<metadata>
Created by potrace 1.16, written by Peter Selinger 2001-2019
</metadata>
<g transform="translate(-42.812496,281.996263) scale(0.100000,-0.100000)"
fill="#000000" stroke="none">
<path d="M1595 2802 c-16 -11 -48 -39 -69 -63 -22 -24 -93 -104 -159 -177 -67
-73 -128 -143 -136 -156 -9 -13 -31 -43 -48 -66 -63 -82 -32 -124 91 -125 l71
0 1 -216 c1 -234 8 -267 54 -280 43 -12 444 -10 479 2 50 17 52 32 50 258 -1
115 2 214 6 221 6 9 25 11 73 6 62 -7 67 -5 94 20 52 51 23 116 -117 258 -34
34 -131 150 -141 167 -17 30 -182 169 -200 169 -11 0 -32 -8 -49 -18z m135
-190 c166 -173 240 -264 240 -298 0 -14 -32 -24 -81 -24 -49 0 -49 -1 -49
-210 0 -146 -3 -180 -15 -190 -11 -9 -52 -11 -156 -8 -149 5 -154 3 -151 -44
2 -25 -1 -28 -28 -28 -46 0 -51 28 -54 255 -3 246 -9 261 -89 251 -43 -6 -49
-5 -43 9 3 9 6 20 6 25 0 4 22 30 48 56 27 27 67 72 88 99 22 28 67 78 99 113
81 85 98 85 185 -6z"/>
<path d="M760 2012 c-27 -8 -79 -65 -85 -93 -4 -15 -13 -33 -21 -40 -8 -6 -14
-23 -14 -38 0 -15 -7 -36 -15 -48 -8 -11 -29 -63 -46 -114 -35 -107 -44 -128
-106 -256 l-45 -93 4 -101 c3 -109 2 -106 87 -169 24 -18 35 -78 81 -418 14
-106 45 -168 94 -192 43 -20 52 -20 964 -18 l921 3 31 32 c35 36 53 99 70 239
5 45 15 94 21 110 7 16 15 59 19 95 8 82 38 155 67 168 38 18 63 81 63 163 0
77 -20 145 -85 283 -18 39 -42 90 -53 115 -11 25 -32 71 -46 102 -14 31 -26
63 -26 70 0 8 -4 18 -8 23 -5 6 -19 35 -31 66 -12 31 -36 69 -52 85 l-30 29
-244 2 c-264 2 -274 0 -261 -51 10 -39 51 -46 263 -46 212 0 228 -4 238 -52 9
-47 25 -86 159 -373 25 -55 46 -105 46 -112 0 -26 -39 -39 -110 -37 -83 2
-115 23 -126 83 -7 33 -24 76 -60 143 -8 14 -14 34 -14 45 0 41 -57 140 -87
151 -35 12 -165 4 -175 -11 -16 -26 43 -67 98 -67 31 0 114 -135 114 -185 0
-8 7 -21 16 -30 21 -21 30 -90 15 -109 -11 -12 -74 -15 -389 -17 -1069 -5
-1122 -4 -1127 9 -11 30 29 148 92 267 29 55 43 65 93 65 37 0 51 5 70 25 39
41 15 55 -92 55 -88 0 -91 -1 -119 -31 -16 -17 -32 -43 -34 -58 -3 -14 -15
-43 -25 -63 -11 -20 -20 -42 -20 -48 0 -6 -11 -35 -25 -63 -13 -29 -29 -71
-35 -95 -15 -60 -53 -77 -141 -66 -80 11 -83 21 -36 117 19 40 47 113 63 162
15 50 35 106 45 125 9 19 29 60 43 91 39 87 30 84 275 86 247 3 271 12 218 81
-10 13 -447 16 -487 4z m1990 -777 c19 -23 -2 -65 -32 -65 -495 -7 -2173 1
-2184 11 -22 18 -13 52 16 60 14 4 512 7 1106 8 962 1 1083 0 1094 -14z m-120
-170 c9 -11 8 -31 -5 -92 -10 -43 -21 -114 -25 -158 -5 -44 -16 -97 -24 -117
-9 -21 -16 -56 -16 -78 0 -42 -14 -79 -34 -92 -23 -16 -1760 -9 -1782 6 -27
19 -41 69 -54 200 -6 60 -13 113 -16 117 -14 23 -24 213 -12 220 26 17 1954
11 1968 -6z"/>
<path d="M1283 988 c-18 -24 1 -258 25 -304 54 -106 200 -108 268 -4 26 39 27
44 22 158 -5 129 -16 162 -53 162 -36 0 -40 -14 -36 -140 3 -127 -13 -170 -63
-170 -56 0 -85 71 -86 206 0 48 -5 85 -12 92 -16 16 -53 15 -65 0z"/>
<path d="M1667 993 c-13 -12 -7 -44 19 -101 14 -31 32 -70 40 -87 7 -16 21
-52 30 -80 28 -86 51 -117 87 -113 28 3 34 10 60 73 43 102 67 157 82 185 22
42 28 93 12 114 -21 28 -45 14 -69 -41 -11 -27 -25 -50 -30 -51 -5 -2 -17 -21
-28 -42 -27 -53 -70 -60 -70 -10 0 8 -9 29 -20 45 -11 17 -20 37 -20 45 -1 38
-71 86 -93 63z"/>
<path d="M1927 1648 c-53 -29 50 -178 124 -178 67 0 75 23 27 77 -82 91 -122
118 -151 101z"/>
<path d="M1243 1593 c-78 -91 -78 -119 2 -114 31 2 125 95 125 123 0 70 -63
65 -127 -9z"/>
<path d="M1621 1601 c-10 -6 -18 -37 -22 -86 -12 -120 13 -157 61 -93 54 73
22 217 -39 179z"/>
</g>
</svg>
