<?xml version="1.0" standalone="no"?>
<!DOCTYPE svg PUBLIC "-//W3C//DTD SVG 20010904//EN"
 "http://www.w3.org/TR/2001/REC-SVG-20010904/DTD/svg10.dtd">
<svg version="1.0" xmlns="http://www.w3.org/2000/svg"
 width="328.504893pt" height="270.804895pt" viewBox="0 0 328.504893 270.804895"
 preserveAspectRatio="xMidYMid meet">
<metadata>
Created by potrace 1.16, written by Peter Selinger 2001-2019
</metadata>
<g transform="translate(-41.110414,342.605808) scale(0.100000,-0.100000)"
fill="#000000" stroke="none">
<path d="M1567 3409 c-97 -30 -93 -4 -101 -561 -3 -265 -4 -724 -2 -1018 l5
-535 33 -28 c53 -45 58 -45 453 -47 406 -1 415 0 415 51 0 36 -30 39 -413 39
-310 0 -377 2 -386 14 -20 24 -15 1966 5 1986 13 13 89 15 564 18 548 2 549 2
560 -18 7 -14 10 -72 9 -164 -5 -216 8 -228 237 -236 84 -3 156 -8 160 -12 4
-4 6 -159 5 -345 -1 -356 2 -383 44 -391 43 -9 45 10 45 422 l-1 391 -72 79
c-119 131 -340 347 -367 359 -44 20 -1129 16 -1193 -4z m1352 -274 c56 -57
101 -110 99 -117 -8 -24 -183 -23 -208 2 -29 29 -30 220 -1 220 4 0 53 -47
110 -105z"/>
<path d="M1756 3090 c-19 -17 -40 -47 -47 -67 -13 -41 -5 -143 16 -183 7 -14
17 -55 20 -91 14 -132 45 -189 104 -189 40 0 58 14 79 63 16 37 26 34 62 -19
29 -41 35 -45 67 -42 47 4 67 33 89 123 9 39 28 107 41 151 44 140 23 222 -69
270 -35 18 -92 18 -108 -1 -7 -8 -23 -15 -35 -15 -12 0 -39 7 -58 15 -62 26
-121 20 -161 -15z m124 -70 c24 -12 59 -20 91 -20 36 0 58 6 76 20 76 59 108
-51 52 -179 -11 -26 -19 -67 -19 -100 0 -53 -20 -105 -34 -90 -4 3 -15 37 -25
74 -25 89 -65 112 -111 63 -20 -21 -25 -35 -32 -83 -4 -23 -36 -33 -42 -13 -2
7 -9 47 -16 88 -23 137 -28 165 -35 185 -6 21 27 75 46 75 5 0 27 -9 49 -20z"/>
<path d="M2350 2751 c-14 -27 -13 -37 6 -55 13 -14 54 -16 288 -16 286 0 296
2 296 45 0 44 -10 45 -302 45 -264 0 -278 -1 -288 -19z"/>
<path d="M2285 2537 c-40 -62 -14 -67 353 -67 290 0 322 4 322 39 0 38 -42 43
-357 48 l-302 4 -16 -24z"/>
<path d="M1738 2333 c-25 -6 -33 -42 -14 -62 15 -14 74 -16 603 -16 577 -1
587 -1 610 20 29 24 23 50 -13 59 -27 7 -1157 5 -1186 -1z"/>
<path d="M2669 2137 c-18 -12 -36 -33 -39 -47 -5 -21 -13 -26 -50 -30 -55 -7
-90 -29 -123 -78 -31 -44 -29 -19 -28 -504 l1 -378 28 -30 c24 -27 36 -32 99
-38 88 -10 91 -12 68 -62 -15 -33 -16 -45 -7 -66 7 -14 12 -56 12 -93 0 -72
12 -96 47 -89 16 3 18 12 15 70 -2 37 2 81 9 101 10 30 10 40 -4 70 -21 44
-21 53 -1 61 9 3 180 6 380 6 398 0 415 2 451 56 17 26 18 56 16 444 -2 277
-6 424 -14 442 -16 39 -76 76 -136 84 -48 6 -53 9 -63 40 -24 72 -85 71 -74
-1 6 -41 4 -45 -15 -45 -15 0 -23 9 -29 32 -11 45 -35 46 -61 3 l-21 -36 -152
3 -153 3 -15 33 c-17 35 -64 72 -91 72 -9 0 -31 -10 -50 -23z m59 -29 c18 -18
15 -55 -5 -62 -28 -11 -49 18 -35 49 13 28 22 31 40 13z m6 -127 c8 -13 -20
-45 -32 -37 -20 12 -14 46 7 46 11 0 22 -4 25 -9z m-102 -43 l17 -35 71 2 c39
1 72 4 73 6 2 2 11 16 20 32 l17 27 155 0 154 0 16 -30 c14 -27 20 -30 70 -32
30 -1 63 -2 72 -2 9 -1 24 13 33 29 32 57 111 43 130 -23 29 -105 53 -100
-467 -100 -247 -1 -456 2 -466 4 -75 22 1 177 78 160 6 -1 18 -18 27 -38z
m819 -225 c16 -18 21 -503 6 -555 -14 -50 -21 -51 -461 -50 -226 1 -419 1
-428 1 -46 2 -48 15 -48 320 0 158 3 291 7 294 3 4 210 7 458 7 409 0 454 -2
466 -17z"/>
<path d="M3149 1583 c-133 -147 -209 -223 -225 -223 -9 0 -41 25 -70 55 -30
30 -58 55 -63 55 -14 0 -41 -30 -41 -45 0 -14 87 -127 102 -133 5 -2 22 -15
37 -28 40 -34 51 -31 108 29 28 28 96 99 152 155 113 117 124 137 91 164 -33
26 -43 23 -91 -29z"/>
<path d="M1720 2110 c-14 -26 2 -58 33 -65 13 -4 160 -5 327 -3 296 3 306 4
348 26 29 16 42 29 40 40 -3 16 -34 17 -370 20 -359 2 -367 2 -378 -18z"/>
<path d="M1727 1913 c-13 -13 -7 -61 9 -67 9 -3 144 -6 300 -6 l284 0 12 25
c24 53 14 55 -307 55 -160 0 -295 -3 -298 -7z"/>
<path d="M1730 1700 c-11 -11 -20 -26 -20 -33 0 -35 20 -37 307 -37 269 0 284
1 303 20 15 15 17 25 11 42 l-8 23 -286 3 c-276 2 -287 2 -307 -18z"/>
<path d="M2275 1046 c-12 -8 -15 -19 -11 -33 8 -26 34 -37 52 -22 35 29 -4 82
-41 55z"/>
<path d="M3615 982 c-21 -21 -25 -33 -20 -57 4 -16 9 -64 12 -105 5 -84 15
-102 52 -98 28 3 28 2 15 89 -4 24 0 48 11 68 15 30 15 35 -1 76 -21 55 -37
61 -69 27z"/>
<path d="M1360 936 c-43 -16 -56 -56 -18 -56 13 0 34 7 47 16 19 14 25 14 32
3 20 -32 9 -47 -50 -64 -49 -14 -78 -57 -63 -90 18 -38 51 -30 66 15 15 48 50
49 54 2 4 -36 24 -51 46 -33 10 9 13 34 11 96 -3 94 -6 101 -37 108 -13 2 -30
7 -38 10 -8 3 -31 0 -50 -7z"/>
<path d="M1645 940 c-3 -5 2 -21 11 -36 13 -19 18 -48 18 -102 1 -78 11 -97
41 -72 16 13 21 122 9 168 -9 31 -66 62 -79 42z"/>
<path d="M2069 930 c-75 -40 -77 -223 -2 -208 13 3 17 11 15 28 -12 92 4 150
39 150 23 0 29 -20 29 -101 0 -55 3 -71 16 -76 25 -9 44 24 44 78 0 85 -9 108
-51 129 -46 24 -45 24 -90 0z"/>
<path d="M3178 934 c-72 -39 -74 -214 -2 -214 26 0 33 27 12 48 -17 17 -5 24
58 33 68 9 66 7 58 60 -12 75 -64 105 -126 73z m56 -30 c16 -41 -4 -73 -34
-54 -11 7 -11 14 0 39 14 34 25 39 34 15z"/>
<path d="M1800 923 c-25 -18 -23 -181 3 -197 35 -22 52 4 49 75 -3 56 -1 67
18 84 27 24 39 9 41 -50 1 -22 2 -56 3 -75 1 -25 6 -36 20 -38 27 -6 36 15 36
88 0 83 -7 108 -34 117 -33 12 -116 9 -136 -4z"/>
<path d="M2443 933 c-52 -5 -55 -14 -51 -128 3 -74 5 -80 26 -83 13 -2 22 2
23 10 1 7 2 43 3 80 1 82 17 105 47 69 16 -19 19 -37 17 -82 -3 -62 8 -83 38
-77 33 6 33 160 0 193 -14 14 -33 24 -43 23 -10 -1 -37 -3 -60 -5z"/>
<path d="M2825 930 l-60 -5 0 -100 0 -100 25 0 c24 0 25 3 30 69 6 76 24 101
58 80 14 -9 16 -23 14 -68 -4 -60 8 -86 38 -86 24 0 28 15 22 77 -6 63 13 120
34 102 8 -7 14 -40 16 -92 3 -80 4 -82 28 -82 25 0 25 1 28 91 2 76 0 93 -14
105 -18 15 -107 18 -219 9z"/>
<path d="M3417 933 c-59 -5 -69 -24 -65 -126 2 -53 7 -73 20 -81 29 -18 42 6
39 72 -1 47 2 64 19 83 31 37 50 6 50 -83 0 -52 4 -70 15 -74 32 -13 45 15 45
95 0 86 -16 122 -53 119 -12 -1 -44 -3 -70 -5z"/>
<path d="M1557 923 c-3 -4 -6 -48 -8 -97 -3 -76 -2 -90 14 -100 37 -23 49 2
51 104 l1 95 -27 3 c-14 2 -28 0 -31 -5z"/>
<path d="M2271 917 c-7 -9 -10 -48 -8 -103 l2 -89 30 0 30 0 3 88 c3 106 -20
148 -57 104z"/>
<path d="M474 835 c-10 -15 -28 -31 -41 -36 -35 -13 -28 -36 19 -59 51 -24 57
-24 86 -1 30 26 28 42 -12 86 l-34 37 -18 -27z"/>
<path d="M3251 747 c-13 -16 -5 -27 20 -27 24 0 35 20 18 31 -19 12 -25 11
-38 -4z"/>
</g>
</svg>
