<?xml version="1.0" standalone="no"?>
<!DOCTYPE svg PUBLIC "-//W3C//DTD SVG 20010904//EN"
 "http://www.w3.org/TR/2001/REC-SVG-20010904/DTD/svg10.dtd">
<svg version="1.0" xmlns="http://www.w3.org/2000/svg"
 width="244.419905pt" height="340.231813pt" viewBox="0 0 244.419905 340.231813"
 preserveAspectRatio="xMidYMid meet">
<metadata>
Created by potrace 1.16, written by Peter Selinger 2001-2019
</metadata>
<g transform="translate(-88.000000,380.116665) scale(0.100000,-0.100000)"
fill="#000000" stroke="none">
<path d="M1597 3793 c-9 -9 -9 -115 1 -129 14 -20 79 -64 96 -64 22 0 76 40
76 56 0 21 -20 27 -50 14 -21 -9 -34 -9 -49 0 -28 14 -27 39 2 44 97 18 102
20 105 49 5 43 -24 48 -74 12 -19 -14 -23 -14 -47 5 -26 20 -48 25 -60 13z"/>
<path d="M1835 3787 c-3 -7 -5 -49 -3 -93 3 -73 5 -79 25 -82 28 -4 35 20 31
113 -3 64 -5 70 -26 73 -12 2 -24 -3 -27 -11z"/>
<path d="M1954 3787 c-3 -8 -4 -49 -2 -93 3 -77 4 -79 28 -79 24 0 25 3 31 75
3 41 2 83 -3 93 -10 20 -46 23 -54 4z"/>
<path d="M2076 3785 c-8 -21 -8 -138 0 -159 9 -24 43 -20 49 7 3 12 5 54 3 92
-3 63 -5 70 -24 73 -13 2 -24 -4 -28 -13z"/>
<path d="M2310 3785 c-7 -8 -21 -15 -30 -15 -29 0 -50 -11 -50 -26 0 -8 -4
-14 -10 -14 -24 0 -43 -49 -30 -80 17 -40 33 -47 103 -42 67 5 70 9 65 117 -3
73 -20 94 -48 60z m-4 -80 c7 -18 -13 -45 -33 -45 -17 0 -27 24 -19 45 7 20
45 19 52 0z"/>
<path d="M2433 3793 c-20 -7 -18 -172 2 -179 32 -13 44 15 43 93 -2 75 -13 97
-45 86z"/>
<path d="M2552 3783 c-4 -10 -6 -52 -3 -93 5 -66 8 -75 26 -75 18 0 21 9 26
80 6 80 0 105 -27 105 -7 0 -17 -8 -22 -17z"/>
<path d="M1224 3125 c-27 -27 -26 -74 2 -144 8 -18 14 -42 14 -53 0 -11 10
-33 21 -50 12 -17 22 -47 23 -67 l1 -36 -187 -5 c-105 -3 -191 -9 -197 -15 -5
-5 -11 -79 -13 -163 -3 -143 -2 -155 16 -168 16 -11 68 -14 255 -14 130 0 243
-4 251 -10 8 -5 17 -31 20 -62 5 -50 7 -53 35 -56 70 -6 75 -10 75 -53 0 -69
25 -101 72 -92 44 9 58 -11 58 -79 0 -84 10 -98 70 -98 78 0 76 3 74 -117 -2
-58 -7 -110 -12 -115 -21 -21 -164 -2 -267 37 -55 20 -123 40 -151 44 -28 4
-63 14 -77 24 -22 14 -52 17 -183 17 l-158 0 -43 -46 c-24 -26 -43 -52 -43
-59 0 -21 55 -63 105 -80 28 -9 66 -25 85 -35 19 -10 54 -29 78 -41 23 -12 48
-29 55 -39 17 -23 50 -40 84 -41 35 0 113 -38 127 -62 9 -15 5 -23 -24 -47
-19 -16 -38 -30 -42 -30 -4 0 -50 -27 -103 -60 -53 -33 -108 -63 -123 -66 -15
-4 -38 -15 -51 -26 -13 -10 -32 -18 -42 -18 -10 0 -27 -14 -39 -30 -20 -29
-21 -34 -8 -77 25 -88 63 -109 133 -73 46 24 103 26 131 5 24 -18 58 -19 92
-1 15 7 50 23 77 35 28 13 62 29 77 37 14 8 39 14 56 14 16 0 46 11 66 25 46
31 54 31 96 0 41 -30 78 -26 123 11 36 30 62 30 91 1 22 -22 24 -35 31 -175 7
-146 8 -153 36 -192 31 -43 66 -58 97 -41 12 6 38 11 59 11 46 0 63 14 63 52
0 16 7 45 16 66 9 21 20 85 24 146 6 88 11 112 26 123 26 19 82 16 132 -8 42
-21 44 -21 82 -4 37 17 44 17 107 1 38 -9 76 -16 87 -16 10 0 52 -16 92 -35
117 -54 150 -62 184 -42 38 23 59 21 114 -8 63 -34 91 -32 127 7 62 66 51 124
-30 168 -20 11 -43 24 -51 29 -8 5 -49 26 -90 47 -131 66 -230 136 -230 163 0
24 20 41 47 41 13 0 40 9 60 20 21 11 50 20 65 20 19 0 31 8 40 27 7 14 20 30
28 34 96 49 160 78 185 83 48 10 95 43 95 66 0 41 -40 101 -77 117 -31 12 -49
13 -112 3 -64 -9 -83 -9 -119 4 -46 16 -58 14 -112 -20 -20 -12 -56 -24 -80
-26 -52 -6 -119 -29 -226 -79 -32 -15 -53 -18 -103 -13 -88 10 -92 16 -85 127
7 102 16 117 71 117 41 0 53 21 53 97 0 67 11 83 56 83 47 0 88 54 79 104 l-7
35 53 3 54 3 12 48 c20 80 5 76 287 79 l251 3 5 152 c7 220 30 197 -197 201
-227 3 -221 -1 -175 120 70 182 74 211 36 241 -27 21 -32 21 -881 21 l-854 0
-25 -25z m430 -71 c13 -13 16 -44 17 -172 1 -86 3 -197 4 -247 4 -131 8 -125
-89 -125 -88 0 -106 8 -106 47 0 13 -9 41 -20 63 -11 22 -20 46 -20 55 0 8 -9
32 -20 52 -11 21 -20 43 -20 50 0 7 -9 30 -20 50 -11 21 -20 47 -20 59 0 12
-7 27 -15 34 -8 7 -15 21 -15 32 0 10 -6 31 -14 47 -26 49 -12 55 141 62 76 3
148 6 160 7 12 1 29 -5 37 -14z m609 -3 c7 -7 12 -37 12 -69 0 -57 0 -57 -30
-57 -26 0 -30 4 -33 30 -8 63 -63 75 -92 20 -27 -54 -64 -62 -75 -18 -4 16
-11 34 -17 40 -13 15 -64 17 -73 3 -11 -17 -25 0 -25 30 0 15 6 30 13 33 25
10 309 -1 320 -12z m171 -3 c17 -28 -15 -55 -49 -40 -29 13 -31 24 -9 47 20
19 43 16 58 -7z m-585 -3 c9 -9 8 -416 -1 -443 l-8 -23 -40 21 c-51 26 -59 45
-31 74 26 28 26 37 1 59 -27 23 -27 78 0 102 19 17 19 19 3 38 -21 22 -28 139
-11 170 10 19 69 20 87 2z m1045 -20 c-1 -29 -69 -229 -84 -250 -4 -5 -11 -26
-15 -45 -4 -19 -12 -41 -18 -48 -5 -7 -14 -35 -18 -63 -4 -27 -18 -65 -29 -84
l-22 -35 -86 0 c-119 0 -116 -4 -113 136 1 65 4 121 7 126 3 4 7 67 10 140 4
73 11 139 16 146 8 9 53 12 182 10 l171 -3 -1 -30z m-906 -81 c37 -25 24 -62
-18 -49 -20 6 -35 38 -25 55 8 14 17 13 43 -6z m440 -1 c17 -34 -10 -417 -30
-429 -21 -13 -30 14 -13 39 16 25 16 27 -10 62 -21 27 -26 41 -20 62 9 34 9
68 0 109 -5 21 -2 34 9 43 20 17 21 45 1 61 -18 15 -19 42 -3 58 18 18 56 15
66 -5z m-207 -99 c22 -4 42 -11 45 -16 11 -17 14 -292 4 -308 -8 -13 -120 -18
-139 -5 -4 2 -5 74 -4 161 4 158 11 191 40 179 8 -3 32 -8 54 -11z m-188 -16
c14 -11 18 -35 21 -143 2 -71 5 -136 7 -144 9 -36 -88 -54 -119 -23 -17 17
-18 33 -15 153 6 172 -2 156 79 168 5 0 18 -5 27 -11z m-686 -160 c13 -21 34
-81 40 -112 10 -51 -9 -56 -214 -56 -170 0 -183 1 -193 19 -14 27 -13 134 2
149 17 17 354 17 365 0z m1891 -60 c5 -112 12 -108 -202 -108 -210 0 -214 2
-196 68 10 37 23 68 43 100 7 9 50 12 180 10 l172 -3 3 -67z m-1411 -86 c-15
-14 -47 -11 -47 5 0 4 12 15 28 24 32 18 45 -2 19 -29z m755 -91 c105 -1 118
-3 128 -20 7 -15 6 -23 -6 -35 -14 -14 -79 -16 -602 -14 l-587 3 0 30 0 30
165 5 c144 4 527 5 902 1z m-2 -167 c11 -12 10 -18 -4 -32 -17 -17 -159 -20
-772 -14 -173 2 -213 12 -185 46 20 24 942 24 961 0z m-152 -136 c17 -17 15
-64 -3 -82 -12 -12 -63 -15 -313 -16 -289 -1 -299 0 -325 20 -29 23 -35 51
-14 69 9 7 115 12 323 14 170 1 311 3 315 5 3 1 10 -3 17 -10z m-114 -184 c17
-6 23 -78 8 -88 -13 -8 -377 -10 -390 -2 -13 8 -17 78 -5 89 8 9 366 9 387 1z
m-1266 -171 c-5 -26 -38 -29 -38 -4 0 15 6 21 21 21 14 0 19 -5 17 -17z m2182
-9 c0 -21 -4 -25 -22 -22 -35 5 -38 48 -4 48 21 0 26 -5 26 -26z m-2025 -15
c15 -23 -5 -59 -33 -59 -38 0 -93 46 -72 60 20 13 97 13 105 -1z m1106 -8 l24
-19 -1 -221 c-2 -261 -4 -273 -42 -269 l-27 3 3 95 c2 52 7 118 12 145 19 103
17 215 -4 231 -25 18 -331 21 -342 3 -4 -6 -6 -113 -5 -236 l2 -225 -23 4 -23
3 -3 225 -2 225 25 28 26 27 178 0 c161 0 181 -2 202 -19z m804 -5 c0 -12 -11
-23 -31 -30 -17 -6 -39 -19 -48 -28 -23 -24 -42 -23 -60 4 -20 28 -12 38 29
38 24 0 38 6 45 21 15 27 65 23 65 -5z m-1697 -40 c10 -50 -41 -135 -73 -123
-12 5 -17 114 -6 145 5 14 76 -6 79 -22z m1452 8 c39 -46 4 -138 -38 -101 -20
18 -37 90 -27 108 10 14 51 11 65 -7z m-1316 -30 c22 -21 20 -50 -5 -85 -12
-17 -24 -42 -28 -57 -9 -31 -35 -41 -45 -16 -7 19 11 129 25 156 12 22 33 23
53 2z m-284 -20 c0 -8 -4 -14 -10 -14 -5 0 -10 9 -10 21 0 11 5 17 10 14 6 -3
10 -13 10 -21z m1450 -29 c3 -27 12 -60 19 -71 18 -27 8 -54 -18 -54 -13 0
-27 12 -37 33 -9 17 -22 39 -29 47 -38 46 -18 104 34 98 23 -3 27 -9 31 -53z
m-508 21 c21 -32 -11 -42 -123 -38 -82 4 -105 16 -81 45 13 16 194 10 204 -7z
m-415 -28 c17 -13 16 -380 -1 -403 -17 -23 -49 -12 -64 21 -21 44 -16 381 5
392 17 10 38 6 60 -10z m689 -9 c20 -22 23 -174 4 -225 -6 -14 -10 -43 -10
-66 0 -57 -27 -110 -54 -106 -20 3 -21 8 -22 188 -1 102 3 195 7 208 11 28 49
29 75 1z m-275 -75 c29 -35 0 -49 -101 -49 -98 0 -121 11 -107 49 9 23 188 24
208 0z m-574 -46 c-4 -29 -2 -93 3 -142 10 -98 4 -116 -35 -116 -31 0 -35 16
-35 124 0 119 21 186 58 186 12 0 14 -10 9 -52z m980 -25 c24 -36 23 -181 0
-217 -41 -61 -99 -34 -71 32 8 20 17 70 20 111 8 113 17 126 51 74z m-437 -58
c30 -36 9 -50 -75 -50 -69 0 -80 2 -83 18 -7 34 17 47 83 47 42 0 66 -5 75
-15z m-687 -72 c3 -21 8 -48 12 -60 11 -34 -18 -29 -49 8 -30 36 -32 46 -9 71
25 28 40 22 46 -19z m1334 -48 c2 -11 -8 -33 -22 -50 -42 -51 -77 -5 -43 58
13 25 62 19 65 -8z m-652 -21 c28 -28 15 -59 -25 -62 -19 -2 -43 -10 -52 -19
-31 -27 -63 -13 -60 27 4 62 94 97 137 54z m545 -20 c0 -15 -6 -24 -15 -24
-16 0 -19 17 -9 44 9 22 24 10 24 -20z m-1333 4 c59 -25 73 -46 47 -72 -37
-38 -84 -5 -84 59 0 29 0 29 37 13z m-92 -80 c16 -30 17 -40 7 -50 -25 -25
-80 39 -66 76 10 26 37 14 59 -26z m1597 25 c39 -35 11 -77 -38 -54 -33 15
-42 41 -19 57 24 18 35 18 57 -3z m136 5 c7 -7 12 -22 12 -35 0 -31 -44 -32
-60 -2 -19 35 20 65 48 37z m-1852 -40 c11 -17 -43 -58 -77 -58 -36 0 -37 18
-1 47 29 24 67 30 78 11z m1969 -18 c13 -20 -6 -50 -31 -50 -26 0 -40 20 -30
45 6 17 51 20 61 5z m-1000 -51 c9 -29 -6 -41 -46 -37 -24 2 -35 9 -37 22 -8
38 71 53 83 15z m25 -128 c0 -12 -11 -25 -27 -33 -21 -10 -28 -21 -29 -44 -1
-40 -10 -54 -34 -54 -27 0 -33 15 -25 69 6 47 8 49 53 64 61 20 62 20 62 -2z"/>
<path d="M1455 2904 c-37 -38 9 -85 67 -71 35 9 41 31 17 61 -23 30 -60 34
-84 10z"/>
<path d="M1496 2757 c-22 -16 -18 -65 6 -80 27 -17 92 3 96 29 6 43 -65 78
-102 51z"/>
<path d="M1530 2619 c-31 -56 37 -100 74 -47 20 28 20 33 0 52 -22 23 -61 20
-74 -5z"/>
<path d="M2662 2894 c-29 -20 -25 -54 9 -73 56 -31 124 25 84 69 -22 24 -62
26 -93 4z"/>
<path d="M2622 2744 c-43 -30 -18 -74 43 -74 60 0 84 37 43 64 -39 24 -63 27
-86 10z"/>
<path d="M2566 2605 c-20 -20 -20 -20 0 -39 36 -37 152 -9 128 31 -15 25 -105
31 -128 8z"/>
<path d="M1560 611 c-16 -32 -13 -186 5 -201 34 -28 45 -5 45 94 0 52 -3 101
-6 110 -8 22 -31 20 -44 -3z"/>
<path d="M2010 620 c-12 -7 -15 -33 -15 -112 l0 -103 25 0 c20 0 26 6 28 27 7
57 82 61 82 4 0 -28 17 -37 43 -24 52 27 -4 136 -65 124 -38 -8 -58 8 -58 44
0 33 -20 53 -40 40z"/>
<path d="M962 591 c-6 -3 -16 -18 -21 -31 -6 -14 -16 -33 -23 -42 -10 -14 -9
-20 4 -35 9 -10 18 -31 20 -48 4 -43 43 -48 59 -8 6 15 15 36 20 45 13 26 11
44 -6 58 -8 7 -15 23 -15 35 0 24 -19 38 -38 26z"/>
<path d="M1135 526 c-59 -26 -87 -121 -35 -121 20 0 26 6 30 30 7 41 49 43 68
3 13 -28 54 -39 66 -19 10 15 -31 98 -51 103 -10 3 -25 8 -33 12 -8 3 -29 -1
-45 -8z"/>
<path d="M1823 520 c-19 -11 -33 -28 -33 -39 0 -11 -4 -23 -10 -26 -5 -3 -10
-15 -10 -26 0 -29 51 -22 66 9 21 41 31 46 58 28 49 -31 64 -2 25 48 -24 31
-52 33 -96 6z"/>
<path d="M2273 528 c-29 -14 -35 -32 -18 -54 11 -15 15 -16 28 -5 20 16 62 10
62 -9 0 -11 -11 -15 -40 -15 -29 0 -41 -4 -43 -17 -4 -19 42 -32 99 -26 34 3
34 4 37 56 3 52 3 53 -32 67 -41 17 -62 18 -93 3z"/>
<path d="M2520 531 c-54 -11 -60 -18 -60 -72 0 -45 2 -49 24 -49 17 0 29 9 38
28 20 41 55 42 66 0 15 -57 46 -45 50 19 3 52 3 52 -34 68 -20 8 -39 14 -43
14 -3 -1 -22 -4 -41 -8z"/>
<path d="M2754 526 c-34 -15 -77 -86 -67 -111 9 -24 46 -14 61 17 27 56 82 57
82 1 0 -27 25 -42 43 -24 11 11 11 102 -1 112 -16 15 -89 17 -118 5z"/>
<path d="M1349 516 c-28 -16 -49 -90 -30 -109 18 -18 46 -2 51 28 8 47 45 47
64 0 23 -55 51 -45 50 18 0 26 -5 52 -11 58 -18 18 -95 21 -124 5z"/>
<path d="M2971 511 c-21 -21 -37 -83 -27 -100 4 -6 40 -10 89 -8 l82 2 3 37
c6 74 -95 121 -147 69z m87 -52 c3 -17 -23 -33 -39 -23 -5 3 -9 14 -9 25 0 25
43 23 48 -2z"/>
<path d="M3172 518 c-18 -18 -15 -105 4 -112 22 -9 54 11 54 34 0 11 5 20 10
20 18 0 50 39 44 55 -7 19 -94 21 -112 3z"/>
</g>
</svg>
