<?xml version="1.0" standalone="no"?>
<!DOCTYPE svg PUBLIC "-//W3C//DTD SVG 20010904//EN"
 "http://www.w3.org/TR/2001/REC-SVG-20010904/DTD/svg10.dtd">
<svg version="1.0" xmlns="http://www.w3.org/2000/svg"
 width="237.836656pt" height="237.108636pt" viewBox="0 0 237.836656 237.108636"
 preserveAspectRatio="xMidYMid meet">
<metadata>
Created by potrace 1.16, written by Peter Selinger 2001-2019
</metadata>
<g transform="translate(-49.000000,283.310831) scale(0.100000,-0.100000)"
fill="#000000" stroke="none">
<path d="M685 2819 c-98 -40 -172 -147 -155 -225 29 -128 104 -196 217 -195
93 0 148 38 189 130 31 69 30 111 -3 169 -39 69 -53 83 -108 107 -77 34 -86
35 -140 14z m120 -134 c45 -45 46 -79 2 -128 -46 -52 -92 -52 -137 -1 -38 44
-36 80 7 123 52 51 82 53 128 6z"/>
<path d="M1905 2745 c-22 -8 -52 -15 -66 -15 -14 0 -34 -9 -44 -20 -10 -11
-23 -20 -30 -20 -12 0 -99 -90 -140 -145 -17 -22 -31 -28 -70 -32 -68 -5 -98
12 -106 62 -5 28 -18 49 -47 77 -40 36 -44 38 -111 38 l-69 0 -50 -56 c-28
-31 -53 -67 -56 -80 -4 -13 -25 -51 -49 -84 -56 -80 -94 -139 -109 -170 -13
-26 -67 -114 -99 -161 -10 -15 -21 -40 -25 -55 -4 -16 -13 -38 -19 -49 -7 -11
-16 -58 -20 -105 -4 -56 -13 -96 -26 -116 -21 -35 -123 -134 -137 -134 -20 0
-142 -128 -142 -148 0 -37 36 -82 197 -250 183 -189 177 -182 159 -217 -8 -15
-12 -35 -8 -44 9 -27 535 -551 559 -557 32 -8 60 11 143 96 81 84 122 104 234
117 28 3 58 11 66 19 8 7 29 16 45 20 17 4 37 13 45 21 8 7 38 28 65 45 49 31
216 190 524 498 211 211 210 210 221 268 11 61 -1 110 -35 142 -29 27 -35 87
-10 96 21 8 145 183 151 214 3 14 10 35 15 48 43 106 -105 372 -222 397 -33 7
-51 26 -85 90 -63 121 -126 156 -277 157 -76 0 -117 4 -127 12 -46 39 -188 63
-245 41z m193 -146 c58 -29 66 -31 101 -20 95 28 199 -5 236 -75 42 -80 51
-92 81 -118 18 -14 38 -26 46 -26 28 0 109 -73 148 -134 45 -68 54 -140 25
-196 -20 -38 -21 -38 -77 15 -51 47 -57 65 -33 85 50 41 -10 154 -107 203
l-56 29 -44 -26 c-54 -31 -84 -33 -100 -6 -20 32 -92 70 -132 70 -48 0 -118
-49 -226 -159 -147 -149 -318 -311 -328 -311 -25 0 -34 31 -27 89 10 89 1 115
-55 156 -54 40 -126 48 -180 20 -32 -16 -90 -94 -90 -120 0 -9 -8 -32 -19 -53
-10 -20 -22 -53 -26 -72 -4 -19 -13 -42 -20 -50 -7 -8 -16 -26 -20 -40 -11
-36 -86 -192 -101 -210 -19 -23 -35 -111 -44 -250 -4 -69 -9 -126 -9 -127 -13
-22 -79 -73 -95 -73 -23 0 -118 87 -140 128 -6 11 -46 53 -88 92 -99 92 -99
99 -3 174 41 32 87 75 102 94 16 19 38 47 50 61 26 32 38 79 52 191 10 81 32
142 65 179 8 9 17 28 21 43 4 15 13 29 20 31 7 3 16 18 20 34 3 15 21 46 39
68 50 62 114 158 159 239 30 53 54 67 73 42 23 -32 17 -54 -36 -129 -29 -43
-58 -101 -71 -142 -12 -39 -29 -81 -39 -95 -37 -52 -90 -160 -90 -183 0 -31
36 -77 60 -77 20 0 60 44 60 65 0 12 23 64 105 240 20 44 49 95 62 114 l26 33
121 -2 c66 -2 129 -2 138 -1 9 0 40 33 68 73 63 86 93 113 142 127 20 7 40 16
43 21 15 24 128 11 193 -21z m123 -329 c13 -7 19 -21 19 -43 0 -27 -23 -55
-187 -222 -266 -269 -261 -263 -220 -311 32 -37 52 -28 134 58 288 303 482
490 502 483 21 -6 51 -52 51 -77 0 -16 -92 -119 -185 -207 -38 -36 -90 -88
-115 -115 -25 -27 -87 -92 -137 -143 -51 -52 -93 -101 -93 -109 0 -18 48 -64
66 -64 8 0 116 101 240 225 154 152 234 225 249 225 11 0 36 -15 54 -33 l32
-34 -241 -239 c-250 -250 -261 -264 -223 -306 33 -37 55 -23 204 126 150 149
169 162 224 152 74 -14 52 -68 -76 -183 -41 -37 -87 -83 -102 -102 -35 -44
-375 -379 -412 -406 -15 -11 -43 -35 -63 -53 -76 -69 -180 -114 -284 -125 -50
-5 -142 -62 -202 -126 -38 -40 -66 -39 -96 1 -20 27 -192 210 -256 272 -53 52
-104 119 -104 137 0 11 25 44 55 74 103 103 108 116 109 268 1 108 4 137 19
157 9 13 17 32 17 41 0 9 8 27 19 40 10 13 40 76 66 139 26 63 56 133 66 156
10 23 19 50 19 61 0 10 5 24 11 30 5 5 18 25 27 44 39 78 117 27 93 -60 -8
-25 -21 -84 -31 -131 -10 -47 -21 -100 -25 -117 -9 -39 9 -89 37 -104 20 -11
86 48 318 282 323 326 372 365 421 339z"/>
</g>
</svg>
