<?xml version="1.0" standalone="no"?>
<!DOCTYPE svg PUBLIC "-//W3C//DTD SVG 20010904//EN"
 "http://www.w3.org/TR/2001/REC-SVG-20010904/DTD/svg10.dtd">
<svg version="1.0" xmlns="http://www.w3.org/2000/svg"
 width="243.149340pt" height="221.629756pt" viewBox="0 0 243.149340 221.629756"
 preserveAspectRatio="xMidYMid meet">
<metadata>
Created by potrace 1.16, written by Peter Selinger 2001-2019
</metadata>
<g transform="translate(-45.309800,276.003316) scale(0.100000,-0.100000)"
fill="#000000" stroke="none">
<path d="M1325 2754 c-27 -3 -96 -11 -153 -19 -56 -8 -119 -15 -140 -15 -21 0
-47 -7 -60 -15 -12 -9 -45 -19 -74 -22 -29 -3 -69 -14 -88 -25 -19 -10 -44
-18 -56 -18 -12 0 -27 -7 -34 -15 -7 -8 -25 -15 -40 -15 -15 0 -35 -9 -45 -20
-10 -11 -27 -20 -37 -20 -25 0 -128 -98 -128 -121 0 -10 -5 -29 -11 -42 -8
-17 -8 -89 -1 -252 9 -209 12 -230 32 -257 17 -23 23 -49 27 -120 5 -76 10
-95 30 -119 20 -23 52 -110 53 -141 0 -3 -29 -35 -64 -70 -75 -74 -79 -92 -78
-318 2 -256 6 -277 68 -337 29 -29 57 -53 63 -53 6 0 43 -16 84 -35 41 -19 80
-35 88 -35 8 0 22 -7 33 -15 10 -8 39 -17 65 -21 25 -4 58 -13 73 -20 15 -8
42 -14 60 -14 18 0 65 -9 103 -19 178 -48 1063 -50 1152 -3 11 6 47 14 79 18
33 3 75 11 94 18 19 8 53 18 75 24 173 45 318 132 362 217 25 50 25 52 24 279
-1 162 -5 233 -13 244 -7 8 -17 22 -23 32 -5 9 -31 45 -58 80 -53 70 -53 79
-6 144 23 32 29 51 30 95 1 91 14 148 45 192 l29 42 -2 231 c-2 127 -3 237 -3
244 0 37 -162 172 -206 172 -11 0 -24 4 -30 10 -13 13 -116 48 -189 65 -33 7
-73 17 -90 23 -102 36 -785 66 -1040 46z m635 -115 c145 -8 224 -17 269 -30
35 -10 81 -19 103 -19 21 0 51 -6 66 -14 15 -7 47 -16 71 -20 24 -4 53 -13 64
-21 12 -8 31 -15 43 -15 12 0 32 -8 45 -18 13 -11 35 -22 49 -25 23 -6 90 -61
90 -73 0 -30 -108 -124 -143 -124 -12 -1 -40 -9 -62 -20 -22 -11 -55 -19 -73
-20 -18 0 -43 -7 -55 -15 -12 -8 -58 -19 -102 -24 -44 -5 -93 -14 -110 -21
-96 -38 -986 -34 -1125 4 -30 9 -69 16 -85 16 -17 0 -47 9 -68 20 -20 11 -50
20 -65 20 -37 0 -186 51 -235 80 -21 12 -45 36 -53 52 -15 30 -15 31 17 64 18
19 38 34 44 34 6 0 28 9 49 19 21 11 52 23 69 27 18 4 48 15 67 25 19 11 45
19 58 19 12 0 39 7 59 15 19 8 50 15 67 15 17 0 56 7 86 16 115 33 548 50 860
33z m-1352 -434 c57 -31 122 -55 149 -55 16 0 39 -7 51 -16 12 -8 48 -17 79
-19 32 -3 78 -11 103 -19 25 -8 79 -18 120 -21 41 -4 100 -14 130 -23 64 -18
744 -22 835 -4 28 5 84 15 125 21 41 7 95 17 120 23 25 6 76 17 113 23 38 7
74 18 80 24 6 6 23 11 38 11 15 0 63 14 106 30 108 42 103 45 103 -64 0 -113
-4 -126 -38 -126 -44 0 -115 -31 -155 -69 -37 -35 -37 -35 -66 -18 -48 28 -97
17 -164 -39 -35 -29 -47 -30 -80 -4 -44 35 -155 16 -196 -33 -17 -21 -50 -22
-57 -2 -10 24 -92 55 -148 55 -55 0 -115 -24 -148 -60 -20 -21 -53 -27 -63
-10 -19 30 -115 80 -154 80 -38 0 -119 -34 -173 -72 -13 -10 -20 -9 -35 4 -29
26 -116 68 -140 68 -12 0 -35 -11 -51 -25 -34 -29 -45 -31 -62 -10 -39 47
-176 86 -195 55 -9 -15 -18 -12 -49 16 -46 44 -117 75 -152 69 -43 -8 -51 6
-64 113 -14 114 -10 124 38 97z m82 -360 c24 -28 59 -115 54 -130 -25 -64
-114 18 -114 105 0 42 34 56 60 25z m2003 -52 c-2 -78 -15 -103 -53 -103 -50
0 -55 97 -8 147 41 44 63 28 61 -44z m-1739 -34 c48 -57 27 -149 -35 -149 -43
0 -72 49 -65 109 10 78 54 95 100 40z m1521 10 c14 -44 -5 -138 -33 -159 -46
-37 -67 -24 -70 45 -3 56 -1 63 31 98 39 42 62 47 72 16z m-953 -8 c50 -19 81
-84 82 -170 1 -109 -4 -114 -122 -109 -120 4 -125 9 -115 123 7 89 27 128 78
151 36 16 47 17 77 5z m-316 -38 c24 -32 29 -49 32 -110 5 -91 -9 -103 -93
-78 -68 19 -77 35 -60 100 34 132 69 156 121 88z m726 8 c32 -28 32 -30 36
-131 3 -79 1 -104 -9 -111 -18 -11 -200 -11 -218 0 -35 22 11 233 56 260 37
21 100 13 135 -18z m284 15 c16 -12 20 -29 22 -99 5 -99 -3 -109 -92 -111
l-51 -1 -3 73 c-5 116 58 186 124 138z m-1420 -213 c40 -25 44 -31 39 -58 -5
-29 -46 -75 -66 -75 -23 0 -79 75 -79 107 0 57 40 67 106 26z m1846 5 c7 -20
-10 -109 -23 -124 -20 -25 -61 -12 -86 25 -30 44 -29 69 2 77 13 3 29 12 36
20 14 17 66 19 71 2z m-1602 -88 c49 -35 49 -104 -1 -130 -29 -16 -55 -4 -78
36 -51 86 2 149 79 94z m1331 10 c29 -16 26 -90 -5 -127 -21 -25 -26 -26 -50
-15 -49 22 -59 85 -21 126 26 28 45 32 76 16z m-1091 -60 c61 -31 65 -118 8
-154 -53 -33 -119 94 -77 148 24 31 20 31 69 6z m852 3 c31 -27 24 -82 -17
-125 -40 -44 -47 -46 -75 -16 -44 48 -28 117 33 143 40 18 37 18 59 -2z
m-1492 -53 c25 -46 88 -73 156 -66 57 6 64 4 81 -16 59 -73 133 -101 198 -74
34 15 37 14 68 -12 81 -70 141 -84 186 -46 39 33 56 31 108 -16 61 -53 124
-57 183 -10 21 17 45 30 54 30 9 0 30 -13 48 -30 43 -42 99 -42 156 0 23 17
42 35 42 40 0 19 47 10 73 -14 48 -45 155 -18 215 53 16 20 19 20 60 6 68 -24
117 -11 177 47 33 32 54 46 65 42 63 -28 127 -14 178 38 51 51 72 47 72 -14 0
-82 -5 -88 -128 -155 -24 -12 -55 -23 -70 -23 -15 0 -40 -9 -57 -20 -16 -11
-45 -20 -62 -20 -18 0 -52 -4 -75 -9 -150 -33 -192 -40 -273 -45 -49 -3 -106
-10 -125 -16 -44 -13 -511 -13 -565 0 -22 5 -98 14 -170 19 -125 10 -357 55
-402 80 -12 6 -31 11 -42 11 -12 0 -38 9 -58 20 -21 11 -45 20 -55 20 -34 0
-87 44 -94 78 -15 77 28 155 56 102z m949 6 c14 -17 5 -83 -14 -106 -6 -8 -15
-23 -18 -32 -15 -42 -52 -12 -87 69 -12 29 -20 59 -16 68 7 20 118 21 135 1z
m288 -7 c21 -21 -37 -149 -67 -149 -26 0 -36 13 -53 67 -20 62 -21 80 -4 86
23 10 113 7 124 -4z m-1237 -286 c24 -17 87 -37 215 -69 33 -8 83 -22 111 -30
28 -7 67 -14 87 -14 20 0 56 -6 79 -14 136 -46 958 -47 1087 -1 24 8 61 15 83
15 76 0 356 80 394 112 11 10 30 18 42 18 37 0 33 -143 -5 -192 -38 -49 -80
-76 -130 -84 -24 -3 -48 -12 -54 -20 -6 -7 -32 -16 -57 -20 -26 -3 -57 -12
-69 -20 -13 -8 -51 -17 -85 -21 -35 -3 -75 -12 -90 -19 -15 -8 -48 -14 -73
-14 -25 0 -121 -9 -213 -21 -194 -24 -419 -23 -662 6 -165 19 -336 50 -405 73
-16 6 -45 15 -62 21 -166 56 -208 78 -233 123 -22 39 -42 150 -33 176 7 17 44
15 73 -5z"/>
</g>
</svg>
